<?xml version="1.0" encoding="utf-8" standalone="no"?>
<!DOCTYPE svg PUBLIC "-//W3C//DTD SVG 1.1//EN"
  "http://www.w3.org/Graphics/SVG/1.1/DTD/svg11.dtd">
<svg xmlns:xlink="http://www.w3.org/1999/xlink" width="564.48pt" height="285.676404pt" viewBox="0 0 564.48 285.676404" xmlns="http://www.w3.org/2000/svg" version="1.1">
 <metadata>
  <rdf:RDF xmlns:dc="http://purl.org/dc/elements/1.1/" xmlns:cc="http://creativecommons.org/ns#" xmlns:rdf="http://www.w3.org/1999/02/22-rdf-syntax-ns#">
   <cc:Work>
    <dc:type rdf:resource="http://purl.org/dc/dcmitype/StillImage"/>
    <dc:date>2026-06-15T14:28:26.103108</dc:date>
    <dc:format>image/svg+xml</dc:format>
    <dc:creator>
     <cc:Agent>
      <dc:title>Matplotlib v3.9.4, https://matplotlib.org/</dc:title>
     </cc:Agent>
    </dc:creator>
   </cc:Work>
  </rdf:RDF>
 </metadata>
 <defs>
  <style type="text/css">*{stroke-linejoin: round; stroke-linecap: butt}</style>
 </defs>
 <g id="figure_1">
  <g id="patch_1">
   <path d="M 0 285.676404 
L 564.48 285.676404 
L 564.48 0 
L 0 0 
z
" style="fill: #ffffff"/>
  </g>
  <g id="axes_1">
   <g id="patch_2">
    <path d="M 7.2 230.92799 
L 557.28 230.92799 
L 557.28 24.09225 
L 7.2 24.09225 
z
" style="fill: #ffffff"/>
   </g>
   <g id="LineCollection_1">
    <path d="M 55.452632 53.968524 
L 325.667368 53.968524 
" clip-path="url(#pe8fb2aa422)" style="fill: none; stroke: #cbd5e1; stroke-width: 2.4"/>
   </g>
   <g id="LineCollection_2">
    <path d="M 55.452632 76.950272 
L 518.677895 76.950272 
" clip-path="url(#pe8fb2aa422)" style="fill: none; stroke: #cbd5e1; stroke-width: 2.4"/>
   </g>
   <g id="LineCollection_3">
    <path d="M 113.355789 99.932021 
L 267.764211 99.932021 
" clip-path="url(#pe8fb2aa422)" style="fill: none; stroke: #cbd5e1; stroke-width: 2.4"/>
   </g>
   <g id="LineCollection_4">
    <path d="M 55.452632 122.91377 
L 518.677895 122.91377 
" clip-path="url(#pe8fb2aa422)" style="fill: none; stroke: #cbd5e1; stroke-width: 2.4"/>
   </g>
   <g id="LineCollection_5">
    <path d="M 151.957895 145.895519 
L 229.162105 145.895519 
" clip-path="url(#pe8fb2aa422)" style="fill: none; stroke: #cbd5e1; stroke-width: 2.4"/>
   </g>
   <g id="LineCollection_6">
    <path d="M 94.054737 168.877268 
L 422.172632 168.877268 
" clip-path="url(#pe8fb2aa422)" style="fill: none; stroke: #cbd5e1; stroke-width: 2.4"/>
   </g>
   <g id="LineCollection_7">
    <path d="M 55.452632 191.859017 
L 190.56 191.859017 
" clip-path="url(#pe8fb2aa422)" style="fill: none; stroke: #cbd5e1; stroke-width: 2.4"/>
   </g>
   <g id="LineCollection_8">
    <path d="M 171.258947 214.840766 
L 518.677895 214.840766 
" clip-path="url(#pe8fb2aa422)" style="fill: none; stroke: #cbd5e1; stroke-width: 2.4"/>
   </g>
   <g id="matplotlib.axis_1">
    <g id="xtick_1">
     <g id="line2d_1">
      <defs>
       <path id="m2a9b28f66d" d="M 0 0 
L 0 3.5 
" style="stroke: #5b6b7f; stroke-width: 0.8"/>
      </defs>
      <g>
       <use xlink:href="#m2a9b28f66d" x="55.452632" y="230.92799" style="fill: #5b6b7f; stroke: #5b6b7f; stroke-width: 0.8"/>
      </g>
     </g>
     <g id="text_1">
      <!-- 0 -->
      <g style="fill: #5b6b7f" transform="translate(51.770132 246.99924) scale(0.12 -0.12)">
       <defs>
        <path id="Georgia-30" d="M 3209 2919 
Q 3409 2678 3507 2354 
Q 3606 2031 3606 1678 
Q 3606 1253 3484 917 
Q 3363 581 3150 359 
Q 2931 131 2631 15 
Q 2331 -100 1963 -100 
Q 1559 -100 1243 34 
Q 928 169 731 403 
Q 525 647 423 973 
Q 322 1300 322 1678 
Q 322 2050 420 2362 
Q 519 2675 728 2928 
Q 928 3172 1243 3312 
Q 1559 3453 1966 3453 
Q 2394 3453 2700 3309 
Q 3006 3166 3209 2919 
z
M 2916 1678 
Q 2916 2422 2661 2831 
Q 2406 3241 1969 3241 
Q 1525 3241 1269 2831 
Q 1013 2422 1013 1678 
Q 1013 972 1258 542 
Q 1503 113 1963 113 
Q 2422 113 2669 542 
Q 2916 972 2916 1678 
z
" transform="scale(0.015625)"/>
       </defs>
       <use xlink:href="#Georgia-30"/>
      </g>
     </g>
    </g>
    <g id="xtick_2">
     <g id="line2d_2">
      <g>
       <use xlink:href="#m2a9b28f66d" x="151.957895" y="230.92799" style="fill: #5b6b7f; stroke: #5b6b7f; stroke-width: 0.8"/>
      </g>
     </g>
     <g id="text_2">
      <!-- 5 -->
      <g style="fill: #5b6b7f" transform="translate(148.788207 246.99924) scale(0.12 -0.12)">
       <defs>
        <path id="Georgia-35" d="M 2634 1466 
Q 2841 1303 2977 1047 
Q 3113 791 3113 406 
Q 3113 -266 2653 -703 
Q 2194 -1141 1488 -1141 
Q 941 -1141 562 -881 
Q 184 -622 184 -278 
Q 184 -119 262 0 
Q 341 119 503 119 
Q 691 119 789 20 
Q 888 -78 888 -194 
Q 888 -294 853 -444 
Q 819 -594 800 -666 
Q 825 -688 881 -725 
Q 938 -763 1016 -797 
Q 1097 -831 1214 -857 
Q 1331 -884 1488 -884 
Q 1688 -884 1866 -803 
Q 2044 -722 2166 -563 
Q 2300 -388 2367 -164 
Q 2434 59 2434 403 
Q 2434 844 2189 1133 
Q 1944 1422 1544 1422 
Q 1294 1422 1076 1328 
Q 859 1234 688 1016 
L 478 1097 
L 744 3353 
L 2981 3353 
L 2981 2797 
L 997 2797 
L 834 1472 
Q 975 1572 1204 1670 
Q 1434 1769 1709 1769 
Q 1938 1769 2183 1698 
Q 2428 1628 2634 1466 
z
" transform="scale(0.015625)"/>
       </defs>
       <use xlink:href="#Georgia-35"/>
      </g>
     </g>
    </g>
    <g id="xtick_3">
     <g id="line2d_3">
      <g>
       <use xlink:href="#m2a9b28f66d" x="248.463158" y="230.92799" style="fill: #5b6b7f; stroke: #5b6b7f; stroke-width: 0.8"/>
      </g>
     </g>
     <g id="text_3">
      <!-- 10 -->
      <g style="fill: #5b6b7f" transform="translate(242.202533 246.99924) scale(0.12 -0.12)">
       <defs>
        <path id="Georgia-31" d="M 2528 0 
L 422 0 
L 422 222 
Q 516 228 714 248 
Q 913 269 988 291 
Q 1084 322 1136 392 
Q 1188 463 1188 603 
L 1188 2797 
L 409 2797 
L 409 3059 
L 581 3059 
Q 919 3059 1186 3184 
Q 1453 3309 1569 3453 
L 1828 3453 
Q 1819 3250 1809 2978 
Q 1800 2706 1800 2491 
L 1800 638 
Q 1800 528 1848 442 
Q 1897 356 1988 316 
Q 2069 281 2253 253 
Q 2438 225 2528 222 
L 2528 0 
z
" transform="scale(0.015625)"/>
       </defs>
       <use xlink:href="#Georgia-31"/>
       <use xlink:href="#Georgia-30" x="42.96875"/>
      </g>
     </g>
    </g>
    <g id="xtick_4">
     <g id="line2d_4">
      <g>
       <use xlink:href="#m2a9b28f66d" x="344.968421" y="230.92799" style="fill: #5b6b7f; stroke: #5b6b7f; stroke-width: 0.8"/>
      </g>
     </g>
     <g id="text_4">
      <!-- 15 -->
      <g style="fill: #5b6b7f" transform="translate(339.220609 246.99924) scale(0.12 -0.12)">
       <use xlink:href="#Georgia-31"/>
       <use xlink:href="#Georgia-35" x="42.96875"/>
      </g>
     </g>
    </g>
    <g id="xtick_5">
     <g id="line2d_5">
      <g>
       <use xlink:href="#m2a9b28f66d" x="441.473684" y="230.92799" style="fill: #5b6b7f; stroke: #5b6b7f; stroke-width: 0.8"/>
      </g>
     </g>
     <g id="text_5">
      <!-- 20 -->
      <g style="fill: #5b6b7f" transform="translate(434.439622 246.99924) scale(0.12 -0.12)">
       <defs>
        <path id="Georgia-32" d="M 3272 0 
L 344 0 
L 344 425 
Q 428 522 578 642 
Q 728 763 934 903 
Q 1059 988 1234 1088 
Q 1409 1188 1631 1306 
Q 1878 1438 2011 1538 
Q 2144 1638 2253 1784 
Q 2325 1881 2369 2026 
Q 2413 2172 2413 2441 
Q 2413 2831 2203 3014 
Q 1994 3197 1666 3197 
Q 1463 3197 1281 3117 
Q 1100 3038 1009 2897 
Q 1031 2797 1064 2659 
Q 1097 2522 1097 2391 
Q 1097 2272 998 2180 
Q 900 2088 706 2088 
Q 550 2088 465 2195 
Q 381 2303 381 2484 
Q 381 2653 475 2823 
Q 569 2994 744 3138 
Q 916 3278 1169 3365 
Q 1422 3453 1716 3453 
Q 2356 3453 2732 3167 
Q 3109 2881 3109 2403 
Q 3109 2175 3042 1987 
Q 2975 1800 2825 1656 
Q 2659 1497 2437 1383 
Q 2216 1269 1759 1066 
Q 1488 944 1253 811 
Q 1019 678 869 553 
L 3272 553 
L 3272 0 
z
" transform="scale(0.015625)"/>
       </defs>
       <use xlink:href="#Georgia-32"/>
       <use xlink:href="#Georgia-30" x="55.859375"/>
      </g>
     </g>
    </g>
    <g id="xtick_6">
     <g id="line2d_6">
      <g>
       <use xlink:href="#m2a9b28f66d" x="537.978947" y="230.92799" style="fill: #5b6b7f; stroke: #5b6b7f; stroke-width: 0.8"/>
      </g>
     </g>
     <g id="text_6">
      <!-- 25 -->
      <g style="fill: #5b6b7f" transform="translate(531.457697 246.99924) scale(0.12 -0.12)">
       <use xlink:href="#Georgia-32"/>
       <use xlink:href="#Georgia-35" x="55.859375"/>
      </g>
     </g>
    </g>
    <g id="text_7">
     <!-- time (months) -->
     <g style="fill: #33415a" transform="translate(244.056562 262.67299) scale(0.12 -0.12)">
      <defs>
       <path id="Georgia-74" d="M 2128 134 
Q 1925 50 1744 -8 
Q 1563 -66 1300 -66 
Q 913 -66 755 129 
Q 597 325 597 681 
L 597 2769 
L 41 2769 
L 41 3069 
L 609 3069 
L 609 4028 
L 1178 4028 
L 1178 3069 
L 2063 3069 
L 2063 2769 
L 1184 2769 
L 1184 1047 
Q 1184 853 1198 723 
Q 1213 594 1266 497 
Q 1316 406 1416 359 
Q 1516 313 1684 313 
Q 1763 313 1914 327 
Q 2066 341 2128 363 
L 2128 134 
z
" transform="scale(0.015625)"/>
       <path id="Georgia-69" d="M 1722 0 
L 231 0 
L 231 206 
Q 303 213 379 219 
Q 456 225 513 244 
Q 600 272 642 342 
Q 684 413 684 525 
L 684 2428 
Q 684 2528 639 2611 
Q 594 2694 513 2750 
Q 453 2788 340 2814 
Q 228 2841 134 2847 
L 134 3050 
L 1222 3119 
L 1266 3075 
L 1266 563 
Q 1266 453 1308 381 
Q 1350 309 1441 275 
Q 1509 247 1575 230 
Q 1641 213 1722 206 
L 1722 0 
z
M 1328 4334 
Q 1328 4156 1211 4023 
Q 1094 3891 922 3891 
Q 763 3891 645 4017 
Q 528 4144 528 4306 
Q 528 4478 645 4606 
Q 763 4734 922 4734 
Q 1100 4734 1214 4614 
Q 1328 4494 1328 4334 
z
" transform="scale(0.015625)"/>
       <path id="Georgia-6d" d="M 5503 0 
L 4000 0 
L 4000 206 
Q 4072 213 4145 219 
Q 4219 225 4275 244 
Q 4363 272 4405 342 
Q 4447 413 4447 525 
L 4447 2116 
Q 4447 2441 4298 2617 
Q 4150 2794 3928 2794 
Q 3775 2794 3640 2747 
Q 3506 2700 3394 2616 
Q 3303 2547 3242 2467 
Q 3181 2388 3150 2334 
L 3150 556 
Q 3150 447 3187 376 
Q 3225 306 3316 269 
Q 3388 241 3445 227 
Q 3503 213 3597 206 
L 3597 0 
L 2125 0 
L 2125 206 
Q 2197 213 2264 219 
Q 2331 225 2388 244 
Q 2475 272 2517 342 
Q 2559 413 2559 525 
L 2559 2116 
Q 2559 2441 2411 2617 
Q 2263 2794 2041 2794 
Q 1888 2794 1753 2745 
Q 1619 2697 1506 2613 
Q 1416 2544 1353 2458 
Q 1291 2372 1259 2328 
L 1259 563 
Q 1259 456 1303 384 
Q 1347 313 1434 275 
Q 1500 244 1569 228 
Q 1638 213 1722 206 
L 1722 0 
L 225 0 
L 225 206 
Q 297 213 373 219 
Q 450 225 506 244 
Q 594 272 636 342 
Q 678 413 678 525 
L 678 2441 
Q 678 2541 633 2620 
Q 588 2700 506 2756 
Q 447 2794 359 2817 
Q 272 2841 178 2847 
L 178 3050 
L 1209 3119 
L 1253 3075 
L 1253 2634 
L 1275 2634 
Q 1353 2713 1465 2819 
Q 1578 2925 1675 2991 
Q 1784 3066 1948 3116 
Q 2113 3166 2303 3166 
Q 2603 3166 2818 3005 
Q 3034 2844 3128 2616 
Q 3241 2725 3327 2808 
Q 3413 2891 3553 2984 
Q 3672 3066 3833 3116 
Q 3994 3166 4191 3166 
Q 4581 3166 4809 2909 
Q 5038 2653 5038 2122 
L 5038 556 
Q 5038 447 5075 376 
Q 5113 306 5203 269 
Q 5275 241 5345 227 
Q 5416 213 5503 206 
L 5503 0 
z
" transform="scale(0.015625)"/>
       <path id="Georgia-65" d="M 2963 725 
Q 2769 356 2444 137 
Q 2119 -81 1697 -81 
Q 1325 -81 1045 50 
Q 766 181 584 406 
Q 403 631 314 931 
Q 225 1231 225 1566 
Q 225 1866 320 2155 
Q 416 2444 600 2675 
Q 778 2897 1042 3033 
Q 1306 3169 1634 3169 
Q 1972 3169 2212 3062 
Q 2453 2956 2603 2772 
Q 2747 2597 2817 2359 
Q 2888 2122 2888 1844 
L 2888 1638 
L 847 1638 
Q 847 1334 905 1087 
Q 963 841 1088 653 
Q 1209 472 1406 367 
Q 1603 263 1875 263 
Q 2153 263 2354 392 
Q 2556 522 2744 859 
L 2963 725 
z
M 2272 1900 
Q 2272 2075 2242 2275 
Q 2213 2475 2147 2609 
Q 2075 2753 1950 2843 
Q 1825 2934 1628 2934 
Q 1300 2934 1083 2661 
Q 866 2388 847 1900 
L 2272 1900 
z
" transform="scale(0.015625)"/>
       <path id="Georgia-20" transform="scale(0.015625)"/>
       <path id="Georgia-28" d="M 2191 -1025 
Q 1338 -919 852 -165 
Q 366 588 366 1863 
Q 366 3159 852 3917 
Q 1338 4675 2191 4788 
L 2191 4528 
Q 1591 4419 1278 3762 
Q 966 3106 966 1856 
Q 966 666 1272 5 
Q 1578 -656 2191 -769 
L 2191 -1025 
z
" transform="scale(0.015625)"/>
       <path id="Georgia-6f" d="M 3228 1572 
Q 3228 1247 3125 933 
Q 3022 619 2831 400 
Q 2616 150 2331 28 
Q 2047 -94 1694 -94 
Q 1400 -94 1134 17 
Q 869 128 663 341 
Q 459 550 339 851 
Q 219 1153 219 1528 
Q 219 2250 639 2709 
Q 1059 3169 1741 3169 
Q 2388 3169 2808 2733 
Q 3228 2297 3228 1572 
z
M 2581 1566 
Q 2581 1800 2534 2061 
Q 2488 2322 2394 2503 
Q 2294 2697 2131 2814 
Q 1969 2931 1734 2931 
Q 1494 2931 1323 2812 
Q 1153 2694 1047 2488 
Q 947 2297 906 2053 
Q 866 1809 866 1581 
Q 866 1281 914 1026 
Q 963 772 1069 572 
Q 1175 372 1336 258 
Q 1497 144 1734 144 
Q 2125 144 2353 522 
Q 2581 900 2581 1566 
z
" transform="scale(0.015625)"/>
       <path id="Georgia-6e" d="M 3628 0 
L 2119 0 
L 2119 206 
Q 2191 213 2277 219 
Q 2363 225 2419 244 
Q 2506 272 2548 342 
Q 2591 413 2591 525 
L 2591 2109 
Q 2591 2438 2436 2616 
Q 2281 2794 2059 2794 
Q 1894 2794 1756 2742 
Q 1619 2691 1513 2616 
Q 1409 2544 1348 2461 
Q 1288 2378 1259 2328 
L 1259 556 
Q 1259 450 1303 381 
Q 1347 313 1434 275 
Q 1500 244 1576 228 
Q 1653 213 1734 206 
L 1734 0 
L 225 0 
L 225 206 
Q 297 213 373 219 
Q 450 225 506 244 
Q 594 272 636 342 
Q 678 413 678 525 
L 678 2428 
Q 678 2534 633 2623 
Q 588 2713 506 2769 
Q 447 2806 365 2823 
Q 284 2841 191 2847 
L 191 3050 
L 1216 3119 
L 1259 3075 
L 1259 2641 
L 1275 2641 
Q 1350 2716 1462 2820 
Q 1575 2925 1675 2991 
Q 1791 3066 1950 3116 
Q 2109 3166 2309 3166 
Q 2753 3166 2967 2889 
Q 3181 2613 3181 2153 
L 3181 550 
Q 3181 441 3218 373 
Q 3256 306 3347 269 
Q 3422 238 3476 225 
Q 3531 213 3628 206 
L 3628 0 
z
" transform="scale(0.015625)"/>
       <path id="Georgia-68" d="M 3572 0 
L 2059 0 
L 2059 206 
Q 2131 213 2218 219 
Q 2306 225 2363 244 
Q 2450 272 2492 342 
Q 2534 413 2534 525 
L 2534 2109 
Q 2534 2438 2379 2616 
Q 2225 2794 2003 2794 
Q 1841 2794 1702 2742 
Q 1563 2691 1453 2616 
Q 1347 2538 1290 2459 
Q 1234 2381 1203 2328 
L 1203 556 
Q 1203 450 1245 381 
Q 1288 313 1375 275 
Q 1444 244 1517 228 
Q 1591 213 1678 206 
L 1678 0 
L 166 0 
L 166 206 
Q 238 213 316 220 
Q 394 228 447 244 
Q 534 272 578 342 
Q 622 413 622 525 
L 622 4113 
Q 622 4219 573 4325 
Q 525 4431 447 4484 
Q 391 4525 248 4542 
Q 106 4559 19 4566 
L 19 4766 
L 1159 4838 
L 1203 4791 
L 1203 2641 
L 1216 2641 
Q 1319 2744 1403 2823 
Q 1488 2903 1625 2991 
Q 1744 3066 1905 3116 
Q 2066 3166 2266 3166 
Q 2678 3166 2900 2905 
Q 3122 2644 3122 2153 
L 3122 550 
Q 3122 441 3161 373 
Q 3200 306 3291 269 
Q 3363 241 3420 227 
Q 3478 213 3572 206 
L 3572 0 
z
" transform="scale(0.015625)"/>
       <path id="Georgia-73" d="M 2259 1509 
Q 2388 1397 2456 1250 
Q 2525 1103 2525 891 
Q 2525 463 2204 191 
Q 1884 -81 1375 -81 
Q 1106 -81 879 16 
Q 653 113 556 194 
L 494 -9 
L 259 -9 
L 228 1063 
L 444 1063 
Q 469 941 550 778 
Q 631 616 747 484 
Q 869 347 1039 253 
Q 1209 159 1422 159 
Q 1722 159 1884 295 
Q 2047 431 2047 684 
Q 2047 816 1995 911 
Q 1944 1006 1844 1078 
Q 1741 1150 1591 1208 
Q 1441 1266 1256 1322 
Q 1109 1366 929 1442 
Q 750 1519 622 1622 
Q 484 1731 396 1890 
Q 309 2050 309 2266 
Q 309 2644 590 2906 
Q 872 3169 1344 3169 
Q 1525 3169 1714 3122 
Q 1903 3075 2022 3009 
L 2094 3172 
L 2319 3172 
L 2366 2181 
L 2150 2181 
Q 2084 2513 1867 2720 
Q 1650 2928 1338 2928 
Q 1081 2928 934 2800 
Q 788 2672 788 2491 
Q 788 2350 836 2256 
Q 884 2163 981 2097 
Q 1075 2034 1217 1979 
Q 1359 1925 1569 1856 
Q 1775 1791 1958 1703 
Q 2141 1616 2259 1509 
z
" transform="scale(0.015625)"/>
       <path id="Georgia-29" d="M 2034 1863 
Q 2034 588 1548 -165 
Q 1063 -919 209 -1025 
L 209 -769 
Q 822 -656 1128 5 
Q 1434 666 1434 1856 
Q 1434 3106 1121 3762 
Q 809 4419 209 4528 
L 209 4788 
Q 1063 4675 1548 3917 
Q 2034 3159 2034 1863 
z
" transform="scale(0.015625)"/>
      </defs>
      <use xlink:href="#Georgia-74"/>
      <use xlink:href="#Georgia-69" x="34.521484"/>
      <use xlink:href="#Georgia-6d" x="63.818359"/>
      <use xlink:href="#Georgia-65" x="151.904297"/>
      <use xlink:href="#Georgia-20" x="200.244141"/>
      <use xlink:href="#Georgia-28" x="224.365234"/>
      <use xlink:href="#Georgia-6d" x="261.865234"/>
      <use xlink:href="#Georgia-6f" x="349.951172"/>
      <use xlink:href="#Georgia-6e" x="403.857422"/>
      <use xlink:href="#Georgia-74" x="462.939453"/>
      <use xlink:href="#Georgia-68" x="497.460938"/>
      <use xlink:href="#Georgia-73" x="555.664062"/>
      <use xlink:href="#Georgia-29" x="598.876953"/>
     </g>
    </g>
   </g>
   <g id="matplotlib.axis_2"/>
   <g id="line2d_7">
    <path d="M 518.677895 230.92799 
L 518.677895 24.09225 
" clip-path="url(#pe8fb2aa422)" style="fill: none; stroke-dasharray: 5.92,2.56; stroke-dashoffset: 0; stroke: #ef6f6c; stroke-width: 1.6"/>
   </g>
   <g id="line2d_8"/>
   <g id="line2d_9"/>
   <g id="patch_3">
    <path d="M 7.2 230.92799 
L 557.28 230.92799 
" style="fill: none; stroke: #5b6b7f; stroke-width: 0.8; stroke-linejoin: miter; stroke-linecap: square"/>
   </g>
   <g id="line2d_10">
    <defs>
     <path id="m420f7f4434" d="M 0 4.5 
C 1.193414 4.5 2.338109 4.025852 3.181981 3.181981 
C 4.025852 2.338109 4.5 1.193414 4.5 0 
C 4.5 -1.193414 4.025852 -2.338109 3.181981 -3.181981 
C 2.338109 -4.025852 1.193414 -4.5 0 -4.5 
C -1.193414 -4.5 -2.338109 -4.025852 -3.181981 -3.181981 
C -4.025852 -2.338109 -4.5 -1.193414 -4.5 0 
C -4.5 1.193414 -4.025852 2.338109 -3.181981 3.181981 
C -2.338109 4.025852 -1.193414 4.5 0 4.5 
z
" style="stroke: #1b2a41"/>
    </defs>
    <g clip-path="url(#pe8fb2aa422)">
     <use xlink:href="#m420f7f4434" x="325.667368" y="53.968524" style="fill: #1b2a41; stroke: #1b2a41"/>
    </g>
   </g>
   <g id="text_8">
    <!-- P1 -->
    <g style="fill: #33415a" transform="translate(33.476687 56.663836) scale(0.1 -0.1)">
     <defs>
      <path id="Georgia-50" d="M 3700 3341 
Q 3700 2994 3564 2726 
Q 3428 2459 3188 2284 
Q 2950 2109 2665 2028 
Q 2381 1947 2063 1947 
L 1566 1947 
L 1566 603 
Q 1566 494 1602 411 
Q 1638 328 1750 284 
Q 1806 263 1948 244 
Q 2091 225 2209 222 
L 2209 0 
L 306 0 
L 306 222 
Q 381 228 523 243 
Q 666 259 722 284 
Q 816 325 858 403 
Q 900 481 900 603 
L 900 3803 
Q 900 3913 869 4000 
Q 838 4088 722 4131 
Q 603 4172 486 4189 
Q 369 4206 284 4213 
L 284 4434 
L 2309 4434 
Q 2928 4434 3314 4136 
Q 3700 3838 3700 3341 
z
M 2750 2584 
Q 2856 2734 2890 2895 
Q 2925 3056 2925 3184 
Q 2925 3363 2883 3547 
Q 2841 3731 2738 3869 
Q 2628 4016 2450 4097 
Q 2272 4178 2006 4178 
L 1566 4178 
L 1566 2219 
L 1884 2219 
Q 2222 2219 2433 2323 
Q 2644 2428 2750 2584 
z
" transform="scale(0.015625)"/>
     </defs>
     <use xlink:href="#Georgia-50"/>
     <use xlink:href="#Georgia-31" x="60.986328"/>
    </g>
   </g>
   <g id="line2d_11">
    <defs>
     <path id="m82c06475af" d="M 4.5 0 
L -4.5 -4.5 
L -4.5 4.5 
z
" style="stroke: #1c7293; stroke-linejoin: miter"/>
    </defs>
    <g clip-path="url(#pe8fb2aa422)">
     <use xlink:href="#m82c06475af" x="518.677895" y="76.950272" style="fill: #1c7293; stroke: #1c7293; stroke-linejoin: miter"/>
    </g>
   </g>
   <g id="text_9">
    <!-- P2 -->
    <g style="fill: #33415a" transform="translate(32.187625 79.645585) scale(0.1 -0.1)">
     <use xlink:href="#Georgia-50"/>
     <use xlink:href="#Georgia-32" x="60.986328"/>
    </g>
   </g>
   <g id="line2d_12">
    <g clip-path="url(#pe8fb2aa422)">
     <use xlink:href="#m420f7f4434" x="267.764211" y="99.932021" style="fill: #1b2a41; stroke: #1b2a41"/>
    </g>
   </g>
   <g id="text_10">
    <!-- P3 -->
    <g style="fill: #33415a" transform="translate(32.256375 102.627334) scale(0.1 -0.1)">
     <defs>
      <path id="Georgia-33" d="M 1522 -1141 
Q 1228 -1141 984 -1067 
Q 741 -994 566 -869 
Q 391 -744 295 -581 
Q 200 -419 200 -247 
Q 200 -94 275 29 
Q 350 153 516 153 
Q 703 153 801 61 
Q 900 -31 900 -150 
Q 900 -250 867 -403 
Q 834 -556 816 -622 
Q 838 -650 895 -697 
Q 953 -744 1038 -781 
Q 1138 -828 1247 -856 
Q 1356 -884 1556 -884 
Q 1744 -884 1917 -821 
Q 2091 -759 2222 -622 
Q 2359 -478 2436 -286 
Q 2513 -94 2513 219 
Q 2513 388 2477 553 
Q 2441 719 2344 841 
Q 2247 963 2080 1030 
Q 1913 1097 1656 1097 
L 1247 1097 
L 1247 1456 
L 1519 1456 
Q 1950 1456 2140 1693 
Q 2331 1931 2331 2409 
Q 2331 2800 2147 2998 
Q 1963 3197 1625 3197 
Q 1463 3197 1358 3158 
Q 1253 3119 1188 3081 
Q 1109 3038 1059 2984 
Q 1009 2931 984 2906 
Q 1006 2806 1037 2661 
Q 1069 2516 1069 2384 
Q 1069 2269 970 2176 
Q 872 2084 681 2084 
Q 516 2084 439 2203 
Q 363 2322 363 2478 
Q 363 2641 453 2809 
Q 544 2978 722 3125 
Q 900 3272 1156 3362 
Q 1413 3453 1747 3453 
Q 2131 3453 2382 3339 
Q 2634 3225 2778 3063 
Q 2919 2903 2972 2728 
Q 3025 2553 3025 2428 
Q 3025 2272 2981 2114 
Q 2938 1956 2838 1822 
Q 2728 1675 2548 1554 
Q 2369 1434 2097 1359 
L 2097 1309 
Q 2272 1294 2470 1231 
Q 2669 1169 2828 1047 
Q 2994 919 3100 717 
Q 3206 516 3206 206 
Q 3206 -394 2725 -767 
Q 2244 -1141 1522 -1141 
z
" transform="scale(0.015625)"/>
     </defs>
     <use xlink:href="#Georgia-50"/>
     <use xlink:href="#Georgia-33" x="60.986328"/>
    </g>
   </g>
   <g id="line2d_13">
    <g clip-path="url(#pe8fb2aa422)">
     <use xlink:href="#m82c06475af" x="518.677895" y="122.91377" style="fill: #1c7293; stroke: #1c7293; stroke-linejoin: miter"/>
    </g>
   </g>
   <g id="text_11">
    <!-- P4 -->
    <g style="fill: #33415a" transform="translate(32.123562 125.609083) scale(0.1 -0.1)">
     <defs>
      <path id="Georgia-34" d="M 3388 281 
L 2753 281 
L 2753 -1141 
L 2153 -1141 
L 2153 281 
L 153 281 
L 153 763 
L 2344 3434 
L 2753 3434 
L 2753 691 
L 3388 691 
L 3388 281 
z
M 2153 691 
L 2153 2738 
L 466 691 
L 2153 691 
z
" transform="scale(0.015625)"/>
     </defs>
     <use xlink:href="#Georgia-50"/>
     <use xlink:href="#Georgia-34" x="60.986328"/>
    </g>
   </g>
   <g id="line2d_14">
    <g clip-path="url(#pe8fb2aa422)">
     <use xlink:href="#m420f7f4434" x="229.162105" y="145.895519" style="fill: #1b2a41; stroke: #1b2a41"/>
    </g>
   </g>
   <g id="text_12">
    <!-- P5 -->
    <g style="fill: #33415a" transform="translate(32.49075 148.590832) scale(0.1 -0.1)">
     <use xlink:href="#Georgia-50"/>
     <use xlink:href="#Georgia-35" x="60.986328"/>
    </g>
   </g>
   <g id="line2d_15">
    <g clip-path="url(#pe8fb2aa422)">
     <use xlink:href="#m82c06475af" x="422.172632" y="168.877268" style="fill: #1c7293; stroke: #1c7293; stroke-linejoin: miter"/>
    </g>
   </g>
   <g id="text_13">
    <!-- P6 -->
    <g style="fill: #33415a" transform="translate(32.114187 171.57258) scale(0.1 -0.1)">
     <defs>
      <path id="Georgia-36" d="M 3359 1441 
Q 3359 1116 3242 831 
Q 3125 547 2928 347 
Q 2700 119 2423 9 
Q 2147 -100 1847 -100 
Q 1500 -100 1219 28 
Q 938 156 741 391 
Q 541 628 431 972 
Q 322 1316 322 1744 
Q 322 2859 986 3625 
Q 1650 4391 2766 4544 
L 2822 4263 
L 2541 4213 
Q 1863 3994 1492 3531 
Q 1122 3069 1013 2409 
Q 1281 2644 1543 2741 
Q 1806 2838 2097 2838 
Q 2619 2838 2989 2438 
Q 3359 2038 3359 1441 
z
M 2681 1356 
Q 2681 1863 2448 2169 
Q 2216 2475 1825 2475 
Q 1591 2475 1389 2387 
Q 1188 2300 1000 2094 
Q 997 2056 990 1920 
Q 984 1784 984 1706 
Q 984 975 1223 561 
Q 1463 147 1853 147 
Q 2225 147 2453 470 
Q 2681 794 2681 1356 
z
" transform="scale(0.015625)"/>
     </defs>
     <use xlink:href="#Georgia-50"/>
     <use xlink:href="#Georgia-36" x="60.986328"/>
    </g>
   </g>
   <g id="line2d_16">
    <g clip-path="url(#pe8fb2aa422)">
     <use xlink:href="#m420f7f4434" x="190.56" y="191.859017" style="fill: #1b2a41; stroke: #1b2a41"/>
    </g>
   </g>
   <g id="text_14">
    <!-- P7 -->
    <g style="fill: #33415a" transform="translate(32.748562 194.554329) scale(0.1 -0.1)">
     <defs>
      <path id="Georgia-37" d="M 3216 3150 
L 988 -1141 
L 597 -1141 
L 2694 2828 
L 1466 2828 
Q 1194 2828 1041 2822 
Q 888 2816 759 2763 
Q 663 2722 586 2555 
Q 509 2388 469 2128 
L 278 2128 
L 278 3353 
L 3216 3353 
L 3216 3150 
z
" transform="scale(0.015625)"/>
     </defs>
     <use xlink:href="#Georgia-50"/>
     <use xlink:href="#Georgia-37" x="60.986328"/>
    </g>
   </g>
   <g id="line2d_17">
    <g clip-path="url(#pe8fb2aa422)">
     <use xlink:href="#m82c06475af" x="518.677895" y="214.840766" style="fill: #1c7293; stroke: #1c7293; stroke-linejoin: miter"/>
    </g>
   </g>
   <g id="text_15">
    <!-- P8 -->
    <g style="fill: #33415a" transform="translate(31.811062 217.536078) scale(0.1 -0.1)">
     <defs>
      <path id="Georgia-38" d="M 3491 1175 
Q 3491 650 3037 272 
Q 2584 -106 1847 -106 
Q 1156 -106 740 241 
Q 325 588 325 1134 
Q 325 1538 570 1808 
Q 816 2078 1297 2266 
Q 900 2488 703 2753 
Q 506 3019 506 3353 
Q 506 3863 939 4206 
Q 1372 4550 1975 4550 
Q 2578 4550 2951 4225 
Q 3325 3900 3325 3409 
Q 3325 3094 3119 2811 
Q 2913 2528 2513 2347 
Q 3031 2125 3261 1856 
Q 3491 1588 3491 1175 
z
M 2734 3444 
Q 2734 3825 2507 4064 
Q 2281 4303 1928 4303 
Q 1575 4303 1350 4073 
Q 1125 3844 1125 3503 
Q 1125 3175 1381 2947 
Q 1638 2719 2294 2459 
Q 2528 2609 2631 2856 
Q 2734 3103 2734 3444 
z
M 2866 1028 
Q 2866 1225 2781 1373 
Q 2697 1522 2538 1644 
Q 2384 1763 2111 1892 
Q 1838 2022 1519 2156 
Q 1219 1994 1078 1742 
Q 938 1491 938 1169 
Q 938 709 1208 426 
Q 1478 144 1928 144 
Q 2359 144 2612 394 
Q 2866 644 2866 1028 
z
" transform="scale(0.015625)"/>
     </defs>
     <use xlink:href="#Georgia-50"/>
     <use xlink:href="#Georgia-38" x="60.986328"/>
    </g>
   </g>
   <g id="text_16">
    <!-- study ends -->
    <g style="fill: #ef6f6c" transform="translate(494.973988 37.881299) scale(0.1 -0.1)">
     <defs>
      <path id="Georgia-75" d="M 3528 56 
L 2525 -13 
L 2478 31 
L 2478 422 
L 2459 422 
Q 2384 344 2290 255 
Q 2197 166 2075 94 
Q 1934 9 1803 -34 
Q 1672 -78 1431 -78 
Q 1022 -78 808 189 
Q 594 456 594 966 
L 594 2441 
Q 594 2553 551 2629 
Q 509 2706 428 2763 
Q 372 2800 287 2817 
Q 203 2834 109 2841 
L 109 3044 
L 1138 3119 
L 1184 3075 
L 1184 934 
Q 1184 600 1334 431 
Q 1484 263 1694 263 
Q 1866 263 2000 316 
Q 2134 369 2225 441 
Q 2309 506 2373 579 
Q 2438 653 2472 716 
L 2472 2463 
Q 2472 2566 2428 2645 
Q 2384 2725 2306 2781 
Q 2250 2819 2139 2826 
Q 2028 2834 1891 2841 
L 1891 3044 
L 3009 3119 
L 3056 3075 
L 3056 628 
Q 3056 522 3100 447 
Q 3144 372 3222 319 
Q 3278 284 3356 273 
Q 3434 263 3528 259 
L 3528 56 
z
" transform="scale(0.015625)"/>
      <path id="Georgia-64" d="M 3600 56 
L 2525 -13 
L 2478 31 
L 2478 319 
L 2453 325 
Q 2291 144 2052 28 
Q 1813 -88 1559 -88 
Q 1297 -88 1051 29 
Q 806 147 625 359 
Q 441 575 333 878 
Q 225 1181 225 1547 
Q 225 1881 340 2181 
Q 456 2481 659 2706 
Q 850 2916 1126 3041 
Q 1403 3166 1691 3166 
Q 1906 3166 2114 3111 
Q 2322 3056 2472 2972 
L 2472 4044 
Q 2472 4175 2428 4283 
Q 2384 4391 2306 4447 
Q 2219 4506 2070 4532 
Q 1922 4559 1750 4572 
L 1750 4766 
L 3009 4838 
L 3056 4791 
L 3056 634 
Q 3056 525 3098 448 
Q 3141 372 3222 319 
Q 3281 281 3393 272 
Q 3506 263 3600 259 
L 3600 56 
z
M 2472 597 
L 2472 2400 
Q 2447 2481 2390 2575 
Q 2334 2669 2250 2747 
Q 2159 2825 2037 2876 
Q 1916 2928 1753 2928 
Q 1566 2928 1408 2831 
Q 1250 2734 1128 2553 
Q 1013 2378 945 2108 
Q 878 1838 878 1509 
Q 878 1247 928 1033 
Q 978 819 1097 634 
Q 1206 459 1376 353 
Q 1547 247 1781 247 
Q 2031 247 2195 356 
Q 2359 466 2472 597 
z
" transform="scale(0.015625)"/>
      <path id="Georgia-79" d="M -9 -1006 
Q -9 -850 77 -751 
Q 163 -653 291 -653 
Q 391 -653 462 -690 
Q 534 -728 591 -788 
Q 638 -834 691 -915 
Q 744 -997 775 -1050 
Q 931 -966 1148 -609 
Q 1366 -253 1463 16 
Q 1166 756 925 1340 
Q 684 1925 422 2550 
Q 363 2694 222 2773 
Q 81 2853 -59 2875 
L -59 3081 
L 1347 3081 
L 1347 2863 
Q 1253 2859 1122 2823 
Q 991 2788 991 2741 
Q 991 2722 1005 2678 
Q 1019 2634 1038 2588 
Q 1156 2278 1400 1695 
Q 1644 1113 1778 763 
Q 1919 1097 2070 1455 
Q 2222 1813 2409 2300 
Q 2431 2359 2472 2464 
Q 2513 2569 2513 2644 
Q 2513 2725 2370 2795 
Q 2228 2866 2100 2881 
L 2100 3081 
L 3244 3081 
L 3244 2888 
Q 3150 2872 2997 2780 
Q 2844 2688 2769 2519 
Q 2397 1656 2108 947 
Q 1819 238 1669 -97 
Q 1472 -534 1317 -779 
Q 1163 -1025 1016 -1166 
Q 872 -1297 755 -1342 
Q 638 -1388 513 -1388 
Q 269 -1388 130 -1272 
Q -9 -1156 -9 -1006 
z
" transform="scale(0.015625)"/>
     </defs>
     <use xlink:href="#Georgia-73"/>
     <use xlink:href="#Georgia-74" x="43.212891"/>
     <use xlink:href="#Georgia-75" x="77.734375"/>
     <use xlink:href="#Georgia-64" x="135.253906"/>
     <use xlink:href="#Georgia-79" x="192.675781"/>
     <use xlink:href="#Georgia-20" x="241.894531"/>
     <use xlink:href="#Georgia-65" x="266.015625"/>
     <use xlink:href="#Georgia-6e" x="314.355469"/>
     <use xlink:href="#Georgia-64" x="373.4375"/>
     <use xlink:href="#Georgia-73" x="430.859375"/>
    </g>
   </g>
   <g id="text_17">
    <!-- Censoring: each subject contributes follow-up up to their last-seen time -->
    <g style="fill: #1b2a41" transform="translate(55.598625 18.09225) scale(0.144 -0.144)">
     <defs>
      <path id="Georgia-43" d="M 2259 -103 
Q 1863 -103 1498 53 
Q 1134 209 853 503 
Q 575 797 409 1220 
Q 244 1644 244 2175 
Q 244 2706 406 3139 
Q 569 3572 856 3884 
Q 1141 4194 1528 4362 
Q 1916 4531 2356 4531 
Q 2684 4531 2950 4450 
Q 3216 4369 3456 4222 
L 3584 4434 
L 3834 4434 
L 3863 2853 
L 3606 2853 
Q 3556 3084 3456 3354 
Q 3356 3625 3222 3813 
Q 3072 4025 2865 4145 
Q 2659 4266 2394 4266 
Q 2091 4266 1830 4131 
Q 1569 3997 1378 3734 
Q 1197 3481 1094 3090 
Q 991 2700 991 2219 
Q 991 1794 1098 1439 
Q 1206 1084 1406 816 
Q 1606 550 1879 400 
Q 2153 250 2491 250 
Q 2744 250 2956 329 
Q 3169 409 3325 541 
Q 3481 678 3600 853 
Q 3719 1028 3794 1234 
L 4028 1122 
Q 3759 463 3315 180 
Q 2872 -103 2259 -103 
z
" transform="scale(0.015625)"/>
      <path id="Georgia-72" d="M 2584 2684 
Q 2584 2525 2506 2401 
Q 2428 2278 2266 2278 
Q 2091 2278 1998 2368 
Q 1906 2459 1906 2569 
Q 1906 2638 1917 2694 
Q 1928 2750 1938 2806 
Q 1791 2806 1594 2687 
Q 1397 2569 1259 2350 
L 1259 556 
Q 1259 447 1301 378 
Q 1344 309 1434 275 
Q 1513 244 1636 228 
Q 1759 213 1850 206 
L 1850 0 
L 225 0 
L 225 206 
Q 297 213 373 219 
Q 450 225 506 244 
Q 594 272 636 342 
Q 678 413 678 525 
L 678 2428 
Q 678 2525 633 2619 
Q 588 2713 506 2769 
Q 447 2806 365 2823 
Q 284 2841 191 2847 
L 191 3050 
L 1216 3119 
L 1259 3075 
L 1259 2641 
L 1275 2641 
Q 1469 2894 1706 3025 
Q 1944 3156 2141 3156 
Q 2338 3156 2461 3028 
Q 2584 2900 2584 2684 
z
" transform="scale(0.015625)"/>
      <path id="Georgia-67" d="M 2866 319 
Q 2991 200 3062 50 
Q 3134 -100 3134 -322 
Q 3134 -544 3037 -739 
Q 2941 -934 2744 -1078 
Q 2534 -1225 2243 -1306 
Q 1953 -1388 1525 -1388 
Q 825 -1388 478 -1183 
Q 131 -978 131 -584 
Q 131 -266 381 -81 
Q 631 103 1019 119 
L 1019 163 
Q 925 191 825 233 
Q 725 275 653 331 
Q 572 397 522 486 
Q 472 575 472 706 
Q 472 872 589 1011 
Q 706 1150 944 1250 
L 944 1297 
Q 644 1438 478 1658 
Q 313 1878 313 2169 
Q 313 2606 639 2887 
Q 966 3169 1475 3169 
Q 1616 3169 1755 3141 
Q 1894 3113 2038 3069 
L 3113 3069 
L 3113 2769 
L 2388 2769 
L 2388 2750 
Q 2503 2616 2559 2453 
Q 2616 2291 2616 2134 
Q 2616 1728 2286 1447 
Q 1956 1166 1519 1166 
L 1141 1166 
Q 1069 1141 991 1075 
Q 913 1009 913 897 
Q 913 781 978 720 
Q 1044 659 1138 638 
Q 1228 613 1348 606 
Q 1469 600 1597 597 
Q 1734 594 1973 578 
Q 2213 563 2313 559 
Q 2456 553 2601 490 
Q 2747 428 2866 319 
z
M 2022 2147 
Q 2022 2513 1873 2730 
Q 1725 2947 1456 2947 
Q 1309 2947 1204 2886 
Q 1100 2825 1034 2713 
Q 972 2609 945 2464 
Q 919 2319 919 2166 
Q 919 1819 1070 1600 
Q 1222 1381 1463 1381 
Q 1731 1381 1876 1598 
Q 2022 1816 2022 2147 
z
M 2622 -438 
Q 2622 -263 2540 -150 
Q 2459 -38 2294 3 
Q 2206 16 1934 31 
Q 1663 47 1303 47 
Q 966 -19 823 -173 
Q 681 -328 681 -572 
Q 681 -681 728 -781 
Q 775 -881 891 -966 
Q 1000 -1047 1184 -1098 
Q 1369 -1150 1634 -1150 
Q 2094 -1150 2358 -973 
Q 2622 -797 2622 -438 
z
" transform="scale(0.015625)"/>
      <path id="Georgia-3a" d="M 1428 2666 
Q 1428 2491 1301 2366 
Q 1175 2241 1000 2241 
Q 825 2241 698 2366 
Q 572 2491 572 2666 
Q 572 2841 697 2967 
Q 822 3094 1000 3094 
Q 1178 3094 1303 2967 
Q 1428 2841 1428 2666 
z
M 1428 359 
Q 1428 184 1301 60 
Q 1175 -63 1000 -63 
Q 825 -63 698 60 
Q 572 184 572 359 
Q 572 534 698 661 
Q 825 788 1000 788 
Q 1175 788 1301 661 
Q 1428 534 1428 359 
z
" transform="scale(0.015625)"/>
      <path id="Georgia-61" d="M 3144 56 
Q 2997 3 2886 -30 
Q 2775 -63 2634 -63 
Q 2391 -63 2245 51 
Q 2100 166 2059 384 
L 2041 384 
Q 1838 159 1605 40 
Q 1372 -78 1044 -78 
Q 697 -78 473 134 
Q 250 347 250 691 
Q 250 869 300 1009 
Q 350 1150 450 1263 
Q 528 1356 656 1429 
Q 784 1503 897 1547 
Q 1038 1600 1467 1744 
Q 1897 1888 2047 1969 
L 2047 2278 
Q 2047 2319 2030 2434 
Q 2013 2550 1956 2653 
Q 1894 2769 1780 2855 
Q 1666 2941 1456 2941 
Q 1313 2941 1189 2892 
Q 1066 2844 1016 2791 
Q 1016 2728 1045 2606 
Q 1075 2484 1075 2381 
Q 1075 2272 976 2181 
Q 878 2091 703 2091 
Q 547 2091 473 2202 
Q 400 2313 400 2450 
Q 400 2594 501 2725 
Q 603 2856 766 2959 
Q 906 3047 1106 3108 
Q 1306 3169 1497 3169 
Q 1759 3169 1954 3133 
Q 2150 3097 2309 2978 
Q 2469 2863 2551 2664 
Q 2634 2466 2634 2153 
Q 2634 1706 2625 1361 
Q 2616 1016 2616 606 
Q 2616 484 2658 412 
Q 2700 341 2788 291 
Q 2834 263 2936 259 
Q 3038 256 3144 256 
L 3144 56 
z
M 2053 1706 
Q 1788 1628 1588 1553 
Q 1388 1478 1216 1366 
Q 1059 1259 968 1114 
Q 878 969 878 769 
Q 878 509 1014 387 
Q 1150 266 1359 266 
Q 1581 266 1750 373 
Q 1919 481 2034 628 
L 2053 1706 
z
" transform="scale(0.015625)"/>
      <path id="Georgia-63" d="M 1650 -81 
Q 981 -81 603 362 
Q 225 806 225 1553 
Q 225 1878 326 2161 
Q 428 2444 622 2675 
Q 806 2897 1084 3033 
Q 1363 3169 1691 3169 
Q 2144 3169 2428 2951 
Q 2713 2734 2713 2359 
Q 2713 2203 2638 2083 
Q 2563 1963 2391 1963 
Q 2206 1963 2104 2056 
Q 2003 2150 2003 2266 
Q 2003 2406 2040 2554 
Q 2078 2703 2084 2772 
Q 2028 2869 1917 2901 
Q 1806 2934 1678 2934 
Q 1528 2934 1392 2870 
Q 1256 2806 1128 2634 
Q 1013 2478 941 2212 
Q 869 1947 869 1578 
Q 869 997 1126 630 
Q 1384 263 1803 263 
Q 2106 263 2311 409 
Q 2516 556 2691 850 
L 2891 719 
Q 2684 350 2346 134 
Q 2009 -81 1650 -81 
z
" transform="scale(0.015625)"/>
      <path id="Georgia-62" d="M 3353 1544 
Q 3353 850 2915 378 
Q 2478 -94 1900 -94 
Q 1647 -94 1401 -15 
Q 1156 63 941 194 
L 709 -166 
L 516 -122 
Q 531 109 537 434 
Q 544 759 544 1063 
L 544 4113 
Q 544 4219 495 4325 
Q 447 4431 372 4478 
Q 313 4519 173 4539 
Q 34 4559 -50 4566 
L -50 4766 
L 1081 4838 
L 1125 4791 
L 1125 2759 
L 1147 2753 
Q 1341 2959 1570 3062 
Q 1800 3166 2022 3166 
Q 2591 3166 2972 2716 
Q 3353 2266 3353 1544 
z
M 2700 1522 
Q 2700 1753 2650 1993 
Q 2600 2234 2494 2413 
Q 2388 2594 2216 2706 
Q 2044 2819 1803 2819 
Q 1584 2819 1420 2733 
Q 1256 2647 1125 2500 
L 1125 706 
Q 1144 631 1198 531 
Q 1253 431 1347 341 
Q 1441 253 1559 198 
Q 1678 144 1850 144 
Q 2231 144 2465 512 
Q 2700 881 2700 1522 
z
" transform="scale(0.015625)"/>
      <path id="Georgia-6a" d="M 1347 188 
Q 1347 -156 1247 -457 
Q 1147 -759 981 -956 
Q 803 -1166 579 -1277 
Q 356 -1388 88 -1388 
Q -191 -1388 -331 -1277 
Q -472 -1166 -472 -1016 
Q -472 -881 -397 -779 
Q -322 -678 -178 -678 
Q -81 -678 -6 -718 
Q 69 -759 125 -825 
Q 175 -881 226 -964 
Q 278 -1047 325 -1125 
Q 563 -1125 664 -837 
Q 766 -550 766 84 
L 766 2403 
Q 766 2503 717 2595 
Q 669 2688 591 2744 
Q 541 2778 352 2812 
Q 163 2847 66 2856 
L 66 3050 
L 1303 3119 
L 1347 3075 
L 1347 188 
z
M 1394 4338 
Q 1394 4159 1276 4026 
Q 1159 3894 988 3894 
Q 828 3894 711 4020 
Q 594 4147 594 4309 
Q 594 4481 711 4609 
Q 828 4738 988 4738 
Q 1166 4738 1280 4617 
Q 1394 4497 1394 4338 
z
" transform="scale(0.015625)"/>
      <path id="Georgia-66" d="M 2519 4466 
Q 2519 4325 2444 4228 
Q 2369 4131 2216 4131 
Q 2119 4131 2045 4172 
Q 1972 4213 1909 4281 
Q 1847 4350 1794 4437 
Q 1741 4525 1703 4578 
Q 1494 4569 1380 4286 
Q 1266 4003 1266 3384 
L 1266 3069 
L 2059 3069 
L 2059 2769 
L 1266 2769 
L 1266 556 
Q 1266 447 1308 378 
Q 1350 309 1441 275 
Q 1516 247 1641 230 
Q 1766 213 1856 206 
L 1856 0 
L 231 0 
L 231 206 
Q 303 213 379 219 
Q 456 225 513 244 
Q 600 272 642 342 
Q 684 413 684 525 
L 684 2769 
L 75 2769 
L 75 3069 
L 684 3069 
L 684 3266 
Q 684 3969 1048 4405 
Q 1413 4841 1959 4841 
Q 2238 4841 2378 4731 
Q 2519 4622 2519 4466 
z
" transform="scale(0.015625)"/>
      <path id="Georgia-6c" d="M 1669 0 
L 166 0 
L 166 206 
Q 238 213 319 220 
Q 400 228 453 244 
Q 541 272 584 342 
Q 628 413 628 525 
L 628 4094 
Q 628 4206 579 4304 
Q 531 4403 453 4459 
Q 397 4497 247 4528 
Q 97 4559 6 4566 
L 6 4766 
L 1166 4838 
L 1209 4791 
L 1209 563 
Q 1209 453 1250 383 
Q 1291 313 1381 275 
Q 1450 244 1517 228 
Q 1584 213 1669 206 
L 1669 0 
z
" transform="scale(0.015625)"/>
      <path id="Georgia-77" d="M 4816 2881 
Q 4684 2869 4532 2772 
Q 4381 2675 4313 2481 
Q 4156 2022 4017 1611 
Q 3878 1200 3706 688 
Q 3650 525 3592 337 
Q 3534 150 3488 -22 
L 3219 -22 
L 2391 2247 
L 1556 -22 
L 1300 -22 
Q 1066 672 842 1355 
Q 619 2038 447 2544 
Q 397 2691 256 2775 
Q 116 2859 -16 2875 
L -16 3081 
L 1359 3081 
L 1359 2863 
Q 1256 2859 1136 2828 
Q 1016 2797 1016 2725 
Q 1016 2713 1027 2672 
Q 1038 2631 1053 2584 
Q 1153 2256 1279 1851 
Q 1406 1447 1606 800 
L 2394 3019 
L 2694 3019 
L 3497 831 
Q 3631 1250 3764 1642 
Q 3897 2034 3997 2378 
Q 4019 2459 4039 2526 
Q 4059 2594 4059 2659 
Q 4059 2716 4009 2759 
Q 3959 2803 3888 2831 
Q 3825 2856 3751 2868 
Q 3678 2881 3644 2881 
L 3644 3081 
L 4816 3081 
L 4816 2881 
z
" transform="scale(0.015625)"/>
      <path id="Georgia-2d" d="M 2128 1453 
L 266 1453 
L 266 1944 
L 2128 1944 
L 2128 1453 
z
" transform="scale(0.015625)"/>
      <path id="Georgia-70" d="M 3041 2716 
Q 3225 2497 3326 2208 
Q 3428 1919 3428 1547 
Q 3428 1181 3306 879 
Q 3184 578 2984 366 
Q 2775 150 2519 34 
Q 2263 -81 1975 -81 
Q 1697 -81 1519 -18 
Q 1341 44 1228 128 
L 1203 128 
L 1203 -797 
Q 1203 -909 1247 -984 
Q 1291 -1059 1381 -1094 
Q 1456 -1122 1595 -1148 
Q 1734 -1175 1825 -1178 
L 1825 -1388 
L 103 -1388 
L 103 -1178 
Q 200 -1172 290 -1162 
Q 381 -1153 453 -1131 
Q 547 -1100 584 -1022 
Q 622 -944 622 -838 
L 622 2441 
Q 622 2534 575 2621 
Q 528 2709 453 2763 
Q 397 2800 297 2820 
Q 197 2841 103 2847 
L 103 3050 
L 1153 3119 
L 1197 3081 
L 1197 2734 
L 1222 2728 
Q 1384 2916 1625 3041 
Q 1866 3166 2103 3166 
Q 2391 3166 2630 3044 
Q 2869 2922 3041 2716 
z
M 2531 500 
Q 2656 694 2715 950 
Q 2775 1206 2775 1522 
Q 2775 1753 2725 1993 
Q 2675 2234 2569 2413 
Q 2463 2594 2291 2706 
Q 2119 2819 1878 2819 
Q 1647 2819 1484 2717 
Q 1322 2616 1203 2475 
L 1203 653 
Q 1231 569 1295 478 
Q 1359 388 1438 322 
Q 1534 244 1646 195 
Q 1759 147 1922 147 
Q 2097 147 2259 239 
Q 2422 331 2531 500 
z
" transform="scale(0.015625)"/>
     </defs>
     <use xlink:href="#Georgia-43"/>
     <use xlink:href="#Georgia-65" x="64.208984"/>
     <use xlink:href="#Georgia-6e" x="112.548828"/>
     <use xlink:href="#Georgia-73" x="171.630859"/>
     <use xlink:href="#Georgia-6f" x="214.84375"/>
     <use xlink:href="#Georgia-72" x="268.75"/>
     <use xlink:href="#Georgia-69" x="309.716797"/>
     <use xlink:href="#Georgia-6e" x="339.013672"/>
     <use xlink:href="#Georgia-67" x="398.095703"/>
     <use xlink:href="#Georgia-3a" x="449.023438"/>
     <use xlink:href="#Georgia-20" x="480.273438"/>
     <use xlink:href="#Georgia-65" x="504.394531"/>
     <use xlink:href="#Georgia-61" x="552.734375"/>
     <use xlink:href="#Georgia-63" x="603.125"/>
     <use xlink:href="#Georgia-68" x="648.535156"/>
     <use xlink:href="#Georgia-20" x="706.738281"/>
     <use xlink:href="#Georgia-73" x="730.859375"/>
     <use xlink:href="#Georgia-75" x="774.072266"/>
     <use xlink:href="#Georgia-62" x="831.591797"/>
     <use xlink:href="#Georgia-6a" x="887.597656"/>
     <use xlink:href="#Georgia-65" x="916.796875"/>
     <use xlink:href="#Georgia-63" x="965.136719"/>
     <use xlink:href="#Georgia-74" x="1010.546875"/>
     <use xlink:href="#Georgia-20" x="1045.068359"/>
     <use xlink:href="#Georgia-63" x="1069.189453"/>
     <use xlink:href="#Georgia-6f" x="1114.599609"/>
     <use xlink:href="#Georgia-6e" x="1168.505859"/>
     <use xlink:href="#Georgia-74" x="1227.587891"/>
     <use xlink:href="#Georgia-72" x="1262.109375"/>
     <use xlink:href="#Georgia-69" x="1303.076172"/>
     <use xlink:href="#Georgia-62" x="1332.373047"/>
     <use xlink:href="#Georgia-75" x="1388.378906"/>
     <use xlink:href="#Georgia-74" x="1445.898438"/>
     <use xlink:href="#Georgia-65" x="1480.419922"/>
     <use xlink:href="#Georgia-73" x="1528.759766"/>
     <use xlink:href="#Georgia-20" x="1571.972656"/>
     <use xlink:href="#Georgia-66" x="1596.09375"/>
     <use xlink:href="#Georgia-6f" x="1628.613281"/>
     <use xlink:href="#Georgia-6c" x="1682.519531"/>
     <use xlink:href="#Georgia-6c" x="1711.132812"/>
     <use xlink:href="#Georgia-6f" x="1739.746094"/>
     <use xlink:href="#Georgia-77" x="1793.652344"/>
     <use xlink:href="#Georgia-2d" x="1867.382812"/>
     <use xlink:href="#Georgia-75" x="1904.785156"/>
     <use xlink:href="#Georgia-70" x="1962.304688"/>
     <use xlink:href="#Georgia-20" x="2019.433594"/>
     <use xlink:href="#Georgia-75" x="2043.554688"/>
     <use xlink:href="#Georgia-70" x="2101.074219"/>
     <use xlink:href="#Georgia-20" x="2158.203125"/>
     <use xlink:href="#Georgia-74" x="2182.324219"/>
     <use xlink:href="#Georgia-6f" x="2216.845703"/>
     <use xlink:href="#Georgia-20" x="2270.751953"/>
     <use xlink:href="#Georgia-74" x="2294.873047"/>
     <use xlink:href="#Georgia-68" x="2329.394531"/>
     <use xlink:href="#Georgia-65" x="2387.597656"/>
     <use xlink:href="#Georgia-69" x="2435.9375"/>
     <use xlink:href="#Georgia-72" x="2465.234375"/>
     <use xlink:href="#Georgia-20" x="2506.201172"/>
     <use xlink:href="#Georgia-6c" x="2530.322266"/>
     <use xlink:href="#Georgia-61" x="2558.935547"/>
     <use xlink:href="#Georgia-73" x="2609.326172"/>
     <use xlink:href="#Georgia-74" x="2652.539062"/>
     <use xlink:href="#Georgia-2d" x="2687.060547"/>
     <use xlink:href="#Georgia-73" x="2724.462891"/>
     <use xlink:href="#Georgia-65" x="2767.675781"/>
     <use xlink:href="#Georgia-65" x="2816.015625"/>
     <use xlink:href="#Georgia-6e" x="2864.355469"/>
     <use xlink:href="#Georgia-20" x="2923.4375"/>
     <use xlink:href="#Georgia-74" x="2947.558594"/>
     <use xlink:href="#Georgia-69" x="2982.080078"/>
     <use xlink:href="#Georgia-6d" x="3011.376953"/>
     <use xlink:href="#Georgia-65" x="3099.462891"/>
    </g>
   </g>
   <g id="legend_1">
    <g id="line2d_18">
     <g>
      <use xlink:href="#m420f7f4434" x="166.59" y="268.807654" style="fill: #1b2a41; stroke: #1b2a41"/>
     </g>
    </g>
    <g id="text_18">
     <!-- event observed ($\delta=1$) -->
     <g style="fill: #33415a" transform="translate(184.59 272.307654) scale(0.1 -0.1)">
      <defs>
       <path id="Georgia-76" d="M 3269 2891 
Q 3128 2866 3001 2789 
Q 2875 2713 2784 2519 
Q 2600 2100 2403 1645 
Q 2206 1191 1994 691 
Q 1931 547 1861 350 
Q 1791 153 1731 -28 
L 1488 -28 
Q 1191 706 941 1311 
Q 691 1916 422 2550 
Q 359 2694 220 2773 
Q 81 2853 -59 2875 
L -59 3081 
L 1366 3081 
L 1366 2863 
Q 1272 2859 1131 2823 
Q 991 2788 991 2725 
Q 991 2716 1006 2677 
Q 1022 2638 1038 2588 
Q 1166 2269 1400 1697 
Q 1634 1125 1781 775 
Q 1894 1044 2064 1444 
Q 2234 1844 2431 2338 
Q 2463 2422 2491 2495 
Q 2519 2569 2519 2644 
Q 2519 2697 2467 2739 
Q 2416 2781 2344 2813 
Q 2272 2844 2203 2859 
Q 2134 2875 2091 2881 
L 2091 3081 
L 3269 3081 
L 3269 2891 
z
" transform="scale(0.015625)"/>
       <path id="DejaVuSans-Oblique-3b4" d="M 3472 4053 
Q 3197 4272 2450 4272 
Q 1659 4272 1588 3906 
Q 1531 3619 2328 3469 
Q 2953 3353 3253 3003 
Q 3616 2581 3447 1716 
Q 3284 888 2763 400 
Q 2238 -91 1488 -91 
Q 741 -91 406 400 
Q 72 888 241 1747 
Q 363 2384 891 2900 
Q 1097 3100 1353 3213 
Q 913 3459 1000 3900 
Q 1166 4750 2544 4750 
Q 3234 4750 3566 4531 
L 3472 4053 
z
M 1753 3056 
Q 1525 2966 1306 2738 
Q 969 2384 847 1747 
Q 722 1113 919 756 
Q 1119 397 1584 397 
Q 2044 397 2381 759 
Q 2722 1122 2838 1716 
Q 2956 2338 2731 2638 
Q 2491 2959 2103 2994 
Q 1906 3013 1753 3056 
z
" transform="scale(0.015625)"/>
       <path id="DejaVuSans-3d" d="M 678 2906 
L 4684 2906 
L 4684 2381 
L 678 2381 
L 678 2906 
z
M 678 1631 
L 4684 1631 
L 4684 1100 
L 678 1100 
L 678 1631 
z
" transform="scale(0.015625)"/>
       <path id="DejaVuSans-31" d="M 794 531 
L 1825 531 
L 1825 4091 
L 703 3866 
L 703 4441 
L 1819 4666 
L 2450 4666 
L 2450 531 
L 3481 531 
L 3481 0 
L 794 0 
L 794 531 
z
" transform="scale(0.015625)"/>
      </defs>
      <use xlink:href="#Georgia-65" transform="translate(0 0.40625)"/>
      <use xlink:href="#Georgia-76" transform="translate(48.339844 0.40625)"/>
      <use xlink:href="#Georgia-65" transform="translate(97.998047 0.40625)"/>
      <use xlink:href="#Georgia-6e" transform="translate(146.337891 0.40625)"/>
      <use xlink:href="#Georgia-74" transform="translate(205.419922 0.40625)"/>
      <use xlink:href="#Georgia-20" transform="translate(239.941406 0.40625)"/>
      <use xlink:href="#Georgia-6f" transform="translate(264.0625 0.40625)"/>
      <use xlink:href="#Georgia-62" transform="translate(317.96875 0.40625)"/>
      <use xlink:href="#Georgia-73" transform="translate(373.974609 0.40625)"/>
      <use xlink:href="#Georgia-65" transform="translate(417.1875 0.40625)"/>
      <use xlink:href="#Georgia-72" transform="translate(465.527344 0.40625)"/>
      <use xlink:href="#Georgia-76" transform="translate(506.494141 0.40625)"/>
      <use xlink:href="#Georgia-65" transform="translate(556.152344 0.40625)"/>
      <use xlink:href="#Georgia-64" transform="translate(604.492188 0.40625)"/>
      <use xlink:href="#Georgia-20" transform="translate(661.914062 0.40625)"/>
      <use xlink:href="#Georgia-28" transform="translate(686.035156 0.40625)"/>
      <use xlink:href="#DejaVuSans-Oblique-3b4" transform="translate(723.535156 0.40625)"/>
      <use xlink:href="#DejaVuSans-3d" transform="translate(804.199219 0.40625)"/>
      <use xlink:href="#DejaVuSans-31" transform="translate(907.470703 0.40625)"/>
      <use xlink:href="#Georgia-29" transform="translate(971.09375 0.40625)"/>
     </g>
    </g>
    <g id="line2d_19">
     <g>
      <use xlink:href="#m82c06475af" x="315.49" y="268.807654" style="fill: #1c7293; stroke: #1c7293; stroke-linejoin: miter"/>
     </g>
    </g>
    <g id="text_19">
     <!-- censored ($\delta=0$) -->
     <g style="fill: #33415a" transform="translate(333.49 272.307654) scale(0.1 -0.1)">
      <defs>
       <path id="DejaVuSans-30" d="M 2034 4250 
Q 1547 4250 1301 3770 
Q 1056 3291 1056 2328 
Q 1056 1369 1301 889 
Q 1547 409 2034 409 
Q 2525 409 2770 889 
Q 3016 1369 3016 2328 
Q 3016 3291 2770 3770 
Q 2525 4250 2034 4250 
z
M 2034 4750 
Q 2819 4750 3233 4129 
Q 3647 3509 3647 2328 
Q 3647 1150 3233 529 
Q 2819 -91 2034 -91 
Q 1250 -91 836 529 
Q 422 1150 422 2328 
Q 422 3509 836 4129 
Q 1250 4750 2034 4750 
z
" transform="scale(0.015625)"/>
      </defs>
      <use xlink:href="#Georgia-63" transform="translate(0 0.40625)"/>
      <use xlink:href="#Georgia-65" transform="translate(45.410156 0.40625)"/>
      <use xlink:href="#Georgia-6e" transform="translate(93.75 0.40625)"/>
      <use xlink:href="#Georgia-73" transform="translate(152.832031 0.40625)"/>
      <use xlink:href="#Georgia-6f" transform="translate(196.044922 0.40625)"/>
      <use xlink:href="#Georgia-72" transform="translate(249.951172 0.40625)"/>
      <use xlink:href="#Georgia-65" transform="translate(290.917969 0.40625)"/>
      <use xlink:href="#Georgia-64" transform="translate(339.257812 0.40625)"/>
      <use xlink:href="#Georgia-20" transform="translate(396.679688 0.40625)"/>
      <use xlink:href="#Georgia-28" transform="translate(420.800781 0.40625)"/>
      <use xlink:href="#DejaVuSans-Oblique-3b4" transform="translate(458.300781 0.40625)"/>
      <use xlink:href="#DejaVuSans-3d" transform="translate(538.964844 0.40625)"/>
      <use xlink:href="#DejaVuSans-30" transform="translate(642.236328 0.40625)"/>
      <use xlink:href="#Georgia-29" transform="translate(705.859375 0.40625)"/>
     </g>
    </g>
   </g>
  </g>
 </g>
 <defs>
  <clipPath id="pe8fb2aa422">
   <rect x="7.2" y="24.09225" width="550.08" height="206.83574"/>
  </clipPath>
 </defs>
</svg>
