<?xml version="1.0" encoding="utf-8" standalone="no"?>
<!DOCTYPE svg PUBLIC "-//W3C//DTD SVG 1.1//EN"
  "http://www.w3.org/Graphics/SVG/1.1/DTD/svg11.dtd">
<svg xmlns:xlink="http://www.w3.org/1999/xlink" width="484.905pt" height="284.9265pt" viewBox="0 0 484.905 284.9265" xmlns="http://www.w3.org/2000/svg" version="1.1">
 <metadata>
  <rdf:RDF xmlns:dc="http://purl.org/dc/elements/1.1/" xmlns:cc="http://creativecommons.org/ns#" xmlns:rdf="http://www.w3.org/1999/02/22-rdf-syntax-ns#">
   <cc:Work>
    <dc:type rdf:resource="http://purl.org/dc/dcmitype/StillImage"/>
    <dc:date>2026-07-16T21:39:23.666882</dc:date>
    <dc:format>image/svg+xml</dc:format>
    <dc:creator>
     <cc:Agent>
      <dc:title>Matplotlib v3.9.4, https://matplotlib.org/</dc:title>
     </cc:Agent>
    </dc:creator>
   </cc:Work>
  </rdf:RDF>
 </metadata>
 <defs>
  <style type="text/css">*{stroke-linejoin: round; stroke-linecap: butt}</style>
 </defs>
 <g id="figure_1">
  <g id="patch_1">
   <path d="M 0 284.9265 
L 484.905 284.9265 
L 484.905 0 
L 0 0 
z
" style="fill: #fbf7ef"/>
  </g>
  <g id="axes_1">
   <g id="patch_2">
    <path d="M 49.955 238.0165 
L 477.705 238.0165 
L 477.705 26.424 
L 49.955 26.424 
z
" style="fill: #fbf7ef"/>
   </g>
   <g id="PolyCollection_1">
    <defs>
     <path id="mef6a93ad23" d="M 49.955 -52.147265 
L 49.955 -52.199812 
L 57.205 -57.206541 
L 64.455 -61.945336 
L 71.705 -66.430535 
L 78.955 -70.675709 
L 86.205 -74.693703 
L 93.455 -78.496675 
L 100.705 -82.096131 
L 107.955 -85.502963 
L 115.205 -88.727479 
L 122.455 -91.779435 
L 129.705 -94.668066 
L 136.955 -97.402113 
L 144.205 -99.989847 
L 151.455 -102.4391 
L 158.705 -104.757281 
L 165.955 -106.951405 
L 173.205 -109.02811 
L 180.455 -110.993681 
L 187.705 -112.854065 
L 194.955 -114.614891 
L 202.205 -116.281486 
L 209.455 -117.858894 
L 216.705 -119.351887 
L 223.955 -120.764982 
L 231.205 -122.102456 
L 238.455 -123.368356 
L 245.705 -124.566511 
L 252.955 -125.700546 
L 260.205 -126.773894 
L 267.455 -127.789802 
L 274.705 -128.751344 
L 281.955 -129.661429 
L 289.205 -130.522811 
L 296.455 -131.338097 
L 303.705 -132.109752 
L 310.955 -132.840112 
L 318.205 -133.531388 
L 325.455 -134.185669 
L 332.705 -134.804937 
L 339.955 -135.391065 
L 347.205 -135.945827 
L 354.455 -136.4709 
L 361.705 -136.967874 
L 368.955 -137.438253 
L 376.205 -137.883459 
L 383.455 -138.304841 
L 390.705 -138.703672 
L 397.955 -139.08116 
L 405.205 -139.438446 
L 412.455 -139.776612 
L 419.705 -140.096682 
L 426.955 -140.399623 
L 434.205 -140.686352 
L 441.455 -140.957737 
L 448.705 -141.214599 
L 455.955 -141.457715 
L 463.205 -141.68782 
L 470.455 -141.905612 
L 477.705 -142.111748 
L 477.705 -231.73758 
L 477.705 -231.73758 
L 470.455 -230.128279 
L 463.205 -228.486469 
L 455.955 -226.811492 
L 448.705 -225.102678 
L 441.455 -223.359344 
L 434.205 -221.580792 
L 426.955 -219.766311 
L 419.705 -217.915175 
L 412.455 -216.026644 
L 405.205 -214.099962 
L 397.955 -212.134358 
L 390.705 -210.129046 
L 383.455 -208.083225 
L 376.205 -205.996075 
L 368.955 -203.866762 
L 361.705 -201.694433 
L 354.455 -199.478221 
L 347.205 -197.217239 
L 339.955 -194.910581 
L 332.705 -192.557326 
L 325.455 -190.156533 
L 318.205 -187.707239 
L 310.955 -185.208467 
L 303.705 -182.659217 
L 296.455 -180.058468 
L 289.205 -177.40518 
L 281.955 -174.698293 
L 274.705 -171.936722 
L 267.455 -169.119364 
L 260.205 -166.245092 
L 252.955 -163.312756 
L 245.705 -160.321183 
L 238.455 -157.269176 
L 231.205 -154.155514 
L 223.955 -150.978952 
L 216.705 -147.738219 
L 209.455 -144.432019 
L 202.205 -141.059029 
L 194.955 -137.617901 
L 187.705 -134.107257 
L 180.455 -130.525693 
L 173.205 -126.871777 
L 165.955 -123.144047 
L 158.705 -119.341012 
L 151.455 -115.461151 
L 144.205 -111.502911 
L 136.955 -107.464709 
L 129.705 -103.34493 
L 122.455 -99.141927 
L 115.205 -94.854016 
L 107.955 -90.479485 
L 100.705 -86.016582 
L 93.455 -81.463522 
L 86.205 -76.818484 
L 78.955 -72.079611 
L 71.705 -67.245006 
L 64.455 -62.312735 
L 57.205 -57.280826 
L 49.955 -52.147265 
z
" style="stroke: #b23a24; stroke-opacity: 0.1"/>
    </defs>
    <g clip-path="url(#pac5dfed9ac)">
     <use xlink:href="#mef6a93ad23" x="0" y="284.9265" style="fill: #b23a24; fill-opacity: 0.1; stroke: #b23a24; stroke-opacity: 0.1"/>
    </g>
   </g>
   <g id="matplotlib.axis_1">
    <g id="xtick_1">
     <g id="line2d_1">
      <defs>
       <path id="maafdae9b21" d="M 0 0 
L 0 3.5 
" style="stroke: #5f776c; stroke-width: 0.8"/>
      </defs>
      <g>
       <use xlink:href="#maafdae9b21" x="49.955" y="238.0165" style="fill: #5f776c; stroke: #5f776c; stroke-width: 0.8"/>
      </g>
     </g>
     <g id="text_1">
      <!-- 0 -->
      <g style="fill: #5f776c" transform="translate(46.475 255.239) scale(0.145 -0.145)">
       <defs>
        <path id="EBGaramond-Regular-30" d="M 1571 -90 
Q 1245 -90 1005 89 
Q 765 269 605 566 
Q 445 864 368 1222 
Q 291 1581 291 1933 
Q 291 2298 368 2669 
Q 445 3040 608 3347 
Q 771 3654 1027 3843 
Q 1283 4032 1635 4032 
Q 1962 4032 2202 3853 
Q 2442 3674 2602 3376 
Q 2762 3078 2838 2723 
Q 2915 2368 2915 2022 
Q 2915 1664 2838 1293 
Q 2762 922 2598 608 
Q 2435 294 2182 102 
Q 1930 -90 1571 -90 
z
M 1680 77 
Q 1936 77 2093 336 
Q 2250 595 2320 1011 
Q 2390 1427 2390 1907 
Q 2390 2266 2336 2611 
Q 2282 2957 2170 3238 
Q 2058 3520 1894 3686 
Q 1731 3853 1514 3853 
Q 1258 3853 1107 3603 
Q 957 3354 889 2941 
Q 822 2528 822 2048 
Q 822 1690 876 1338 
Q 931 986 1036 701 
Q 1142 416 1302 246 
Q 1462 77 1680 77 
z
" transform="scale(0.015625)"/>
       </defs>
       <use xlink:href="#EBGaramond-Regular-30"/>
      </g>
     </g>
    </g>
    <g id="xtick_2">
     <g id="line2d_2">
      <g>
       <use xlink:href="#maafdae9b21" x="122.455" y="238.0165" style="fill: #5f776c; stroke: #5f776c; stroke-width: 0.8"/>
      </g>
     </g>
     <g id="text_2">
      <!-- 10 -->
      <g style="fill: #5f776c" transform="translate(115.495 255.239) scale(0.145 -0.145)">
       <defs>
        <path id="EBGaramond-Regular-31" d="M 685 -19 
Q 640 -19 614 6 
Q 589 32 589 58 
Q 589 115 685 141 
Q 928 205 1085 259 
Q 1242 314 1315 413 
Q 1389 512 1389 698 
L 1389 3142 
Q 1389 3264 1312 3328 
Q 1235 3392 1113 3417 
Q 992 3443 851 3450 
Q 787 3456 736 3481 
Q 685 3507 685 3558 
Q 685 3603 733 3635 
Q 781 3667 845 3674 
Q 1133 3718 1360 3785 
Q 1587 3853 1805 4070 
Q 1811 4077 1820 4077 
Q 1830 4077 1837 4077 
Q 1869 4077 1894 4061 
Q 1920 4045 1914 4019 
Q 1901 3923 1894 3811 
Q 1888 3699 1888 3565 
L 1888 621 
Q 1888 461 1949 377 
Q 2010 294 2157 246 
Q 2304 198 2566 134 
Q 2605 128 2640 105 
Q 2675 83 2675 51 
Q 2675 -19 2586 -19 
Q 2406 -19 2256 -9 
Q 2106 0 1962 6 
Q 1818 13 1645 13 
Q 1472 13 1318 6 
Q 1165 0 1011 -9 
Q 858 -19 685 -19 
z
" transform="scale(0.015625)"/>
       </defs>
       <use xlink:href="#EBGaramond-Regular-31"/>
       <use xlink:href="#EBGaramond-Regular-30" x="47.999985"/>
      </g>
     </g>
    </g>
    <g id="xtick_3">
     <g id="line2d_3">
      <g>
       <use xlink:href="#maafdae9b21" x="194.955" y="238.0165" style="fill: #5f776c; stroke: #5f776c; stroke-width: 0.8"/>
      </g>
     </g>
     <g id="text_3">
      <!-- 20 -->
      <g style="fill: #5f776c" transform="translate(187.995 255.239) scale(0.145 -0.145)">
       <defs>
        <path id="EBGaramond-Regular-32" d="M 2683 -19 
Q 2638 -19 2542 -12 
Q 2446 -6 2324 0 
Q 2203 6 2072 12 
Q 1941 19 1819 19 
Q 1698 19 1474 12 
Q 1250 6 1003 3 
Q 757 0 571 -6 
Q 386 -13 334 -13 
Q 309 -13 257 28 
Q 206 70 206 96 
Q 206 128 219 141 
Q 232 154 258 179 
L 1352 1312 
Q 1672 1645 1883 2057 
Q 2094 2470 2094 2893 
Q 2094 3232 1889 3427 
Q 1685 3622 1410 3622 
Q 1147 3622 923 3478 
Q 699 3334 565 3104 
Q 546 3066 517 3040 
Q 488 3014 456 3014 
Q 430 3014 395 3068 
Q 360 3123 360 3206 
Q 360 3283 453 3417 
Q 546 3552 712 3693 
Q 878 3834 1108 3933 
Q 1339 4032 1608 4032 
Q 1928 4032 2158 3897 
Q 2389 3763 2510 3526 
Q 2632 3290 2632 2976 
Q 2632 2803 2571 2604 
Q 2510 2406 2404 2214 
Q 2299 2022 2165 1856 
Q 2082 1754 1918 1584 
Q 1755 1414 1566 1222 
Q 1378 1030 1208 860 
Q 1038 691 929 579 
Q 821 467 821 454 
Q 821 422 910 410 
Q 1019 403 1156 396 
Q 1294 390 1474 390 
Q 1659 390 1844 396 
Q 2030 403 2203 410 
Q 2389 422 2491 441 
Q 2594 461 2664 521 
Q 2734 582 2811 710 
Q 2837 749 2878 803 
Q 2920 858 2971 858 
Q 3003 858 3009 832 
Q 3016 806 3016 781 
Q 3016 749 2981 656 
Q 2946 563 2901 428 
Q 2856 294 2824 134 
Q 2805 32 2760 6 
Q 2715 -19 2683 -19 
z
" transform="scale(0.015625)"/>
       </defs>
       <use xlink:href="#EBGaramond-Regular-32"/>
       <use xlink:href="#EBGaramond-Regular-30" x="47.999985"/>
      </g>
     </g>
    </g>
    <g id="xtick_4">
     <g id="line2d_4">
      <g>
       <use xlink:href="#maafdae9b21" x="267.455" y="238.0165" style="fill: #5f776c; stroke: #5f776c; stroke-width: 0.8"/>
      </g>
     </g>
     <g id="text_4">
      <!-- 30 -->
      <g style="fill: #5f776c" transform="translate(260.495 255.239) scale(0.145 -0.145)">
       <defs>
        <path id="EBGaramond-Regular-33" d="M 1030 -243 
Q 883 -243 716 -195 
Q 550 -147 435 -83 
Q 320 -19 320 32 
Q 320 77 371 147 
Q 422 218 489 272 
Q 557 326 602 326 
Q 672 326 729 288 
Q 787 250 851 198 
Q 934 128 1043 64 
Q 1152 0 1331 0 
Q 1568 0 1779 121 
Q 1990 243 2128 457 
Q 2266 672 2266 934 
Q 2266 1184 2182 1414 
Q 2099 1645 1936 1795 
Q 1773 1946 1523 1946 
Q 1453 1946 1334 1930 
Q 1216 1914 1107 1850 
Q 1075 1830 1033 1852 
Q 992 1875 998 1907 
Q 1024 1990 1075 2044 
Q 1126 2099 1190 2125 
Q 1248 2150 1376 2224 
Q 1504 2298 1648 2410 
Q 1792 2522 1894 2666 
Q 1997 2810 1997 2982 
Q 1997 3245 1827 3446 
Q 1658 3648 1395 3648 
Q 1146 3648 995 3561 
Q 845 3475 755 3363 
Q 666 3251 621 3164 
Q 576 3078 538 3078 
Q 512 3078 473 3116 
Q 435 3155 435 3200 
Q 435 3283 505 3420 
Q 576 3558 726 3699 
Q 877 3840 1110 3936 
Q 1344 4032 1670 4032 
Q 1882 4032 2070 3939 
Q 2259 3846 2380 3683 
Q 2502 3520 2502 3302 
Q 2502 3149 2438 2982 
Q 2374 2816 2227 2653 
Q 2080 2490 1830 2342 
Q 1811 2336 1811 2320 
Q 1811 2304 1837 2304 
Q 2112 2304 2329 2166 
Q 2547 2029 2678 1801 
Q 2810 1574 2810 1299 
Q 2810 941 2656 656 
Q 2502 371 2246 169 
Q 1990 -32 1673 -137 
Q 1357 -243 1030 -243 
z
" transform="scale(0.015625)"/>
       </defs>
       <use xlink:href="#EBGaramond-Regular-33"/>
       <use xlink:href="#EBGaramond-Regular-30" x="47.999985"/>
      </g>
     </g>
    </g>
    <g id="xtick_5">
     <g id="line2d_5">
      <g>
       <use xlink:href="#maafdae9b21" x="339.955" y="238.0165" style="fill: #5f776c; stroke: #5f776c; stroke-width: 0.8"/>
      </g>
     </g>
     <g id="text_5">
      <!-- 40 -->
      <g style="fill: #5f776c" transform="translate(332.995 255.239) scale(0.145 -0.145)">
       <defs>
        <path id="EBGaramond-Regular-34" d="M 1344 -19 
Q 1312 -19 1270 0 
Q 1229 19 1229 64 
Q 1229 96 1267 115 
Q 1306 134 1344 141 
Q 1645 179 1741 268 
Q 1837 358 1837 512 
L 1837 1107 
Q 1837 1139 1792 1152 
Q 1747 1165 1741 1165 
Q 1478 1165 1251 1155 
Q 1024 1146 774 1136 
Q 525 1126 186 1120 
Q 160 1120 141 1142 
Q 122 1165 122 1184 
Q 122 1197 128 1203 
Q 211 1306 249 1347 
Q 288 1389 313 1417 
Q 339 1446 378 1504 
L 2067 3930 
Q 2106 3987 2160 4048 
Q 2214 4109 2259 4109 
L 2394 4109 
Q 2426 4109 2403 4064 
Q 2381 4019 2381 4019 
L 653 1536 
Q 646 1523 640 1500 
Q 634 1478 653 1478 
L 1760 1478 
Q 1786 1478 1811 1494 
Q 1837 1510 1837 1530 
L 1837 2522 
Q 1837 2592 1846 2617 
Q 1856 2643 1894 2662 
Q 1990 2714 2099 2730 
Q 2208 2746 2253 2746 
Q 2323 2746 2336 2643 
Q 2349 2541 2349 2336 
L 2349 1510 
Q 2349 1472 2381 1472 
Q 2451 1466 2515 1466 
Q 2579 1466 2637 1466 
Q 2726 1466 2819 1469 
Q 2912 1472 3014 1478 
Q 3085 1478 3085 1427 
Q 3085 1376 3056 1318 
Q 3027 1261 2995 1222 
Q 2963 1184 2950 1184 
Q 2880 1184 2797 1187 
Q 2714 1190 2637 1190 
Q 2579 1190 2528 1187 
Q 2477 1184 2438 1178 
Q 2413 1171 2384 1158 
Q 2355 1146 2355 1139 
L 2355 538 
Q 2355 352 2441 281 
Q 2528 211 2784 141 
Q 2822 134 2860 108 
Q 2899 83 2899 51 
Q 2899 26 2870 3 
Q 2842 -19 2803 -19 
Q 2624 -19 2518 -9 
Q 2413 0 2323 6 
Q 2234 13 2080 13 
Q 1920 13 1821 6 
Q 1722 0 1619 -9 
Q 1517 -19 1344 -19 
z
" transform="scale(0.015625)"/>
       </defs>
       <use xlink:href="#EBGaramond-Regular-34"/>
       <use xlink:href="#EBGaramond-Regular-30" x="47.999985"/>
      </g>
     </g>
    </g>
    <g id="xtick_6">
     <g id="line2d_6">
      <g>
       <use xlink:href="#maafdae9b21" x="412.455" y="238.0165" style="fill: #5f776c; stroke: #5f776c; stroke-width: 0.8"/>
      </g>
     </g>
     <g id="text_6">
      <!-- 50 -->
      <g style="fill: #5f776c" transform="translate(405.495 255.239) scale(0.145 -0.145)">
       <defs>
        <path id="EBGaramond-Regular-35" d="M 698 -243 
Q 627 -243 544 -227 
Q 461 -211 461 -166 
Q 461 -115 547 -80 
Q 634 -45 691 -45 
Q 1197 -45 1526 137 
Q 1856 320 2019 595 
Q 2182 870 2182 1146 
Q 2182 1395 2035 1587 
Q 1888 1779 1552 1939 
Q 1216 2099 646 2246 
Q 563 2317 528 2387 
Q 493 2458 493 2541 
Q 493 2630 528 2758 
Q 563 2886 614 3030 
Q 666 3174 717 3315 
Q 768 3456 800 3558 
Q 832 3654 896 3708 
Q 960 3763 1062 3789 
Q 1210 3827 1363 3859 
Q 1517 3891 1683 3920 
Q 1850 3949 2026 3971 
Q 2202 3994 2387 4013 
Q 2438 4019 2460 3984 
Q 2483 3949 2458 3904 
Q 2432 3853 2403 3798 
Q 2374 3744 2349 3693 
Q 2304 3597 2249 3549 
Q 2195 3501 2112 3488 
Q 1990 3475 1830 3459 
Q 1670 3443 1510 3427 
Q 1350 3411 1216 3398 
Q 1082 3386 1011 3373 
Q 966 3366 902 3260 
Q 838 3155 787 3036 
Q 736 2918 730 2867 
Q 723 2822 739 2790 
Q 755 2758 813 2746 
Q 1171 2643 1465 2537 
Q 1760 2432 1978 2317 
Q 2336 2131 2512 1878 
Q 2688 1626 2688 1235 
Q 2688 883 2477 576 
Q 2266 269 1907 64 
Q 1734 -32 1542 -99 
Q 1350 -166 1139 -204 
Q 928 -243 698 -243 
z
" transform="scale(0.015625)"/>
       </defs>
       <use xlink:href="#EBGaramond-Regular-35"/>
       <use xlink:href="#EBGaramond-Regular-30" x="47.999985"/>
      </g>
     </g>
    </g>
    <g id="text_7">
     <!-- time (months) -->
     <g style="fill: #33463f" transform="translate(223.8825 273.594) scale(0.145 -0.145)">
      <defs>
       <path id="EBGaramond-Regular-74" d="M 1210 -90 
Q 896 -90 720 102 
Q 544 294 544 672 
L 544 2157 
Q 544 2208 505 2230 
Q 467 2253 339 2253 
L 301 2253 
Q 269 2253 246 2294 
Q 224 2336 224 2381 
Q 224 2394 243 2419 
Q 262 2445 269 2451 
Q 397 2541 502 2630 
Q 608 2720 694 2806 
Q 781 2893 838 2963 
Q 870 2995 892 3017 
Q 915 3040 947 3040 
Q 979 3040 1008 3027 
Q 1037 3014 1030 2970 
L 998 2682 
Q 992 2611 1030 2585 
Q 1069 2560 1152 2560 
L 1882 2560 
Q 1907 2560 1926 2518 
Q 1946 2477 1946 2419 
Q 1946 2362 1926 2307 
Q 1907 2253 1882 2253 
L 1248 2253 
Q 1088 2253 1040 2227 
Q 992 2202 992 2074 
L 992 813 
Q 992 557 1101 409 
Q 1210 262 1414 262 
Q 1600 262 1702 291 
Q 1805 320 1888 378 
Q 1901 390 1914 390 
Q 1939 390 1948 361 
Q 1958 333 1958 301 
Q 1958 269 1852 173 
Q 1747 77 1577 -6 
Q 1408 -90 1210 -90 
z
" transform="scale(0.015625)"/>
       <path id="EBGaramond-Regular-69" d="M 282 -19 
Q 224 -19 189 -3 
Q 154 13 154 51 
Q 154 102 202 121 
Q 250 141 301 154 
Q 435 186 505 234 
Q 576 282 576 397 
L 576 1786 
Q 576 1958 515 2092 
Q 454 2227 288 2253 
Q 256 2259 240 2278 
Q 224 2298 224 2336 
Q 224 2406 282 2413 
Q 538 2470 704 2569 
Q 870 2669 954 2733 
Q 1011 2778 1043 2778 
Q 1082 2778 1082 2746 
Q 1082 2694 1066 2544 
Q 1050 2394 1037 2211 
Q 1024 2029 1024 1882 
L 1024 397 
Q 1024 288 1097 237 
Q 1171 186 1299 154 
Q 1350 141 1398 121 
Q 1446 102 1446 51 
Q 1446 -19 1318 -19 
Q 1197 -19 1123 -9 
Q 1050 0 982 6 
Q 915 13 800 13 
Q 691 13 620 6 
Q 550 0 480 -9 
Q 410 -19 282 -19 
z
M 792 3302 
Q 658 3302 565 3395 
Q 472 3488 472 3622 
Q 472 3763 565 3856 
Q 658 3949 792 3949 
Q 933 3949 1025 3856 
Q 1118 3763 1118 3622 
Q 1118 3488 1025 3395 
Q 933 3302 792 3302 
z
" transform="scale(0.015625)"/>
       <path id="EBGaramond-Regular-6d" d="M 282 -19 
Q 230 -19 192 -6 
Q 154 6 154 51 
Q 154 96 195 115 
Q 237 134 301 154 
Q 390 186 483 227 
Q 576 269 576 397 
L 576 1773 
Q 576 1946 537 2077 
Q 499 2208 333 2234 
Q 307 2240 291 2259 
Q 275 2278 275 2317 
Q 275 2381 326 2394 
Q 499 2438 601 2486 
Q 704 2534 784 2595 
Q 864 2656 979 2726 
Q 992 2733 1005 2742 
Q 1018 2752 1037 2752 
Q 1075 2752 1075 2707 
Q 1075 2662 1059 2524 
Q 1043 2387 1043 2298 
Q 1043 2234 1056 2221 
L 1069 2221 
Q 1216 2362 1456 2506 
Q 1696 2650 2067 2650 
Q 2298 2650 2451 2550 
Q 2605 2451 2707 2208 
L 2726 2208 
Q 2931 2394 3193 2522 
Q 3456 2650 3770 2650 
Q 3981 2650 4121 2522 
Q 4262 2394 4336 2189 
Q 4410 1984 4410 1760 
L 4410 397 
Q 4410 269 4499 227 
Q 4589 186 4685 154 
Q 4749 134 4790 115 
Q 4832 96 4832 51 
Q 4832 13 4803 -3 
Q 4774 -19 4704 -19 
Q 4576 -19 4505 -9 
Q 4435 0 4374 6 
Q 4314 13 4198 13 
Q 4090 13 4019 6 
Q 3949 0 3872 -9 
Q 3795 -19 3667 -19 
Q 3610 -19 3574 -3 
Q 3539 13 3539 51 
Q 3539 102 3580 121 
Q 3622 141 3686 154 
Q 3789 179 3875 224 
Q 3962 269 3962 397 
L 3962 1741 
Q 3962 1894 3891 2032 
Q 3821 2170 3705 2259 
Q 3590 2349 3450 2349 
Q 3290 2349 3152 2310 
Q 3014 2272 2893 2176 
Q 2714 2035 2714 1715 
L 2714 397 
Q 2714 269 2810 224 
Q 2906 179 3002 154 
Q 3066 141 3107 118 
Q 3149 96 3149 51 
Q 3149 13 3117 -3 
Q 3085 -19 3021 -19 
Q 2893 -19 2819 -9 
Q 2746 0 2678 6 
Q 2611 13 2496 13 
Q 2387 13 2316 6 
Q 2246 0 2169 -9 
Q 2093 -19 1965 -19 
Q 1914 -19 1875 -3 
Q 1837 13 1837 51 
Q 1837 102 1885 118 
Q 1933 134 1984 154 
Q 2080 186 2173 227 
Q 2266 269 2266 397 
L 2266 1741 
Q 2266 1894 2195 2032 
Q 2125 2170 2009 2259 
Q 1894 2349 1754 2349 
Q 1594 2349 1456 2310 
Q 1318 2272 1197 2176 
Q 1024 2048 1024 1715 
L 1024 397 
Q 1024 269 1113 227 
Q 1203 186 1299 154 
Q 1350 134 1398 118 
Q 1446 102 1446 51 
Q 1446 13 1411 -3 
Q 1376 -19 1318 -19 
Q 1190 -19 1116 -9 
Q 1043 0 979 6 
Q 915 13 800 13 
Q 691 13 624 6 
Q 557 0 483 -9 
Q 410 -19 282 -19 
z
" transform="scale(0.015625)"/>
       <path id="EBGaramond-Regular-65" d="M 1363 -96 
Q 1011 -96 748 77 
Q 486 250 339 566 
Q 192 883 192 1299 
Q 192 1670 361 1974 
Q 531 2278 812 2464 
Q 1094 2650 1427 2650 
Q 1683 2650 1881 2547 
Q 2080 2445 2192 2262 
Q 2304 2080 2304 1843 
Q 2304 1645 2112 1645 
L 762 1645 
Q 672 1645 637 1597 
Q 602 1549 602 1408 
Q 602 1101 736 848 
Q 870 595 1094 444 
Q 1318 294 1587 294 
Q 1779 294 1936 368 
Q 2093 442 2214 582 
Q 2240 614 2253 624 
Q 2266 634 2285 634 
Q 2336 634 2336 570 
Q 2336 448 2221 301 
Q 2125 179 1990 89 
Q 1856 0 1696 -48 
Q 1536 -96 1363 -96 
z
M 774 1843 
L 1357 1843 
Q 1510 1843 1619 1849 
Q 1728 1856 1830 1875 
Q 1862 1882 1872 1917 
Q 1882 1952 1882 2016 
Q 1882 2202 1718 2333 
Q 1555 2464 1331 2464 
Q 1184 2464 1037 2377 
Q 890 2291 794 2163 
Q 698 2035 698 1907 
Q 698 1843 774 1843 
z
" transform="scale(0.015625)"/>
       <path id="EBGaramond-Regular-20" transform="scale(0.015625)"/>
       <path id="EBGaramond-Regular-28" d="M 1517 -1370 
Q 1453 -1370 1408 -1325 
Q 1274 -1190 1117 -940 
Q 960 -691 806 -371 
Q 653 -51 528 310 
Q 403 672 329 1033 
Q 256 1395 256 1722 
Q 256 2131 365 2540 
Q 474 2950 646 3318 
Q 819 3686 1014 3977 
Q 1210 4269 1382 4442 
Q 1414 4474 1462 4493 
Q 1510 4512 1555 4512 
Q 1587 4512 1641 4483 
Q 1696 4454 1696 4410 
Q 1696 4403 1677 4377 
Q 1658 4352 1638 4323 
Q 1619 4294 1613 4288 
Q 1421 4064 1229 3686 
Q 1037 3309 912 2825 
Q 787 2342 787 1798 
Q 787 1389 857 950 
Q 928 512 1043 105 
Q 1158 -301 1302 -617 
Q 1446 -934 1594 -1107 
Q 1600 -1114 1622 -1139 
Q 1645 -1165 1667 -1193 
Q 1690 -1222 1690 -1229 
Q 1690 -1293 1635 -1331 
Q 1581 -1370 1517 -1370 
z
" transform="scale(0.015625)"/>
       <path id="EBGaramond-Regular-6f" d="M 1498 -90 
Q 1139 -90 851 76 
Q 563 243 393 534 
Q 224 826 224 1197 
Q 224 1466 329 1722 
Q 435 1978 627 2189 
Q 819 2400 1075 2525 
Q 1331 2650 1626 2650 
Q 1997 2650 2294 2470 
Q 2592 2291 2768 2000 
Q 2944 1709 2944 1363 
Q 2944 992 2781 659 
Q 2618 326 2298 118 
Q 1978 -90 1498 -90 
z
M 1632 102 
Q 1850 102 2022 185 
Q 2195 269 2291 454 
Q 2368 602 2393 813 
Q 2419 1024 2419 1210 
Q 2419 1517 2307 1801 
Q 2195 2086 1993 2268 
Q 1792 2451 1517 2451 
Q 1344 2451 1206 2396 
Q 1069 2342 954 2195 
Q 826 2035 787 1804 
Q 749 1574 749 1344 
Q 749 1030 864 745 
Q 979 461 1177 281 
Q 1376 102 1632 102 
z
" transform="scale(0.015625)"/>
       <path id="EBGaramond-Regular-6e" d="M 282 -19 
Q 224 -19 189 -3 
Q 154 13 154 51 
Q 154 102 192 118 
Q 230 134 301 154 
Q 397 179 486 224 
Q 576 269 576 397 
L 576 1773 
Q 576 1946 541 2067 
Q 506 2189 339 2234 
Q 314 2246 294 2262 
Q 275 2278 275 2317 
Q 275 2387 333 2394 
Q 557 2451 697 2534 
Q 838 2618 973 2720 
Q 992 2733 1008 2742 
Q 1024 2752 1043 2752 
Q 1056 2752 1065 2739 
Q 1075 2726 1075 2707 
Q 1075 2662 1059 2524 
Q 1043 2387 1043 2298 
Q 1043 2272 1046 2249 
Q 1050 2227 1056 2221 
Q 1280 2432 1533 2541 
Q 1786 2650 2086 2650 
Q 2400 2650 2605 2394 
Q 2810 2138 2810 1760 
L 2810 397 
Q 2810 269 2899 227 
Q 2989 186 3085 154 
Q 3136 134 3184 112 
Q 3232 90 3232 38 
Q 3232 0 3187 -9 
Q 3142 -19 3104 -19 
Q 2976 -19 2905 -9 
Q 2835 0 2771 6 
Q 2707 13 2592 13 
Q 2483 13 2412 6 
Q 2342 0 2268 -9 
Q 2195 -19 2067 -19 
Q 2035 -19 1987 -9 
Q 1939 0 1939 38 
Q 1939 90 1987 112 
Q 2035 134 2086 154 
Q 2182 186 2272 227 
Q 2362 269 2362 397 
L 2362 1741 
Q 2362 2022 2205 2179 
Q 2048 2336 1786 2342 
Q 1555 2342 1382 2268 
Q 1210 2195 1075 2086 
Q 1050 2061 1037 2019 
Q 1024 1978 1024 1939 
L 1024 397 
Q 1024 269 1113 224 
Q 1203 179 1299 154 
Q 1446 115 1446 51 
Q 1446 13 1414 -3 
Q 1382 -19 1318 -19 
Q 1190 -19 1116 -9 
Q 1043 0 979 6 
Q 915 13 800 13 
Q 691 13 624 6 
Q 557 0 483 -9 
Q 410 -19 282 -19 
z
" transform="scale(0.015625)"/>
       <path id="EBGaramond-Regular-68" d="M 250 -19 
Q 122 -19 122 51 
Q 122 109 269 154 
Q 365 186 451 237 
Q 538 288 544 416 
L 544 3622 
Q 544 3795 486 3926 
Q 429 4058 262 4083 
Q 205 4096 205 4173 
Q 205 4230 256 4250 
Q 346 4282 470 4320 
Q 595 4358 729 4406 
Q 864 4454 966 4499 
Q 992 4512 1005 4512 
Q 1024 4512 1037 4499 
Q 1050 4486 1050 4467 
Q 1050 4429 1034 4358 
Q 1018 4288 1005 4115 
Q 992 3942 992 3597 
L 992 2483 
Q 992 2381 1001 2336 
Q 1011 2291 1037 2246 
Q 1139 2323 1289 2416 
Q 1440 2509 1625 2579 
Q 1811 2650 2010 2650 
Q 2323 2650 2531 2403 
Q 2739 2157 2739 1779 
L 2739 435 
Q 2739 307 2822 246 
Q 2906 186 3002 154 
Q 3072 134 3110 112 
Q 3149 90 3149 51 
Q 3149 -19 3021 -19 
Q 2893 -19 2825 -9 
Q 2758 0 2697 6 
Q 2637 13 2522 13 
Q 2413 13 2349 6 
Q 2285 0 2217 -9 
Q 2150 -19 2022 -19 
Q 1894 -19 1894 51 
Q 1894 96 1932 112 
Q 1971 128 2042 154 
Q 2138 186 2214 246 
Q 2291 307 2291 435 
L 2291 1741 
Q 2291 1901 2198 2032 
Q 2106 2163 1971 2240 
Q 1837 2317 1696 2317 
Q 1574 2317 1414 2281 
Q 1254 2246 1165 2176 
Q 1062 2093 1027 2003 
Q 992 1914 992 1715 
L 992 416 
Q 998 288 1072 237 
Q 1146 186 1242 154 
Q 1312 134 1347 112 
Q 1382 90 1382 51 
Q 1382 -19 1254 -19 
Q 1126 -19 1062 -9 
Q 998 0 940 6 
Q 883 13 768 13 
Q 659 13 592 6 
Q 525 0 451 -9 
Q 378 -19 250 -19 
z
" transform="scale(0.015625)"/>
       <path id="EBGaramond-Regular-73" d="M 922 -90 
Q 723 -90 550 -29 
Q 378 32 256 141 
Q 224 211 208 377 
Q 192 544 186 653 
Q 186 710 269 710 
Q 294 710 316 700 
Q 339 691 346 666 
Q 429 352 611 217 
Q 794 83 979 83 
Q 1165 83 1296 208 
Q 1427 333 1427 518 
Q 1427 691 1312 816 
Q 1197 941 909 1120 
Q 691 1254 556 1376 
Q 422 1498 361 1626 
Q 301 1754 301 1914 
Q 301 2118 397 2284 
Q 493 2451 685 2550 
Q 877 2650 1165 2650 
Q 1357 2650 1485 2611 
Q 1613 2573 1677 2528 
Q 1728 2458 1763 2307 
Q 1798 2157 1798 2022 
Q 1798 1978 1734 1978 
Q 1696 1978 1661 1994 
Q 1626 2010 1613 2035 
Q 1530 2246 1405 2358 
Q 1280 2470 1094 2470 
Q 934 2470 809 2374 
Q 685 2278 685 2093 
Q 685 1946 777 1830 
Q 870 1715 1126 1568 
Q 1498 1357 1680 1174 
Q 1862 992 1862 691 
Q 1862 346 1600 128 
Q 1338 -90 922 -90 
z
" transform="scale(0.015625)"/>
       <path id="EBGaramond-Regular-29" d="M 499 -1370 
Q 435 -1370 380 -1331 
Q 326 -1293 326 -1229 
Q 326 -1222 348 -1193 
Q 371 -1165 396 -1139 
Q 422 -1114 422 -1107 
Q 570 -934 714 -617 
Q 858 -301 973 105 
Q 1088 512 1158 950 
Q 1229 1389 1229 1798 
Q 1229 2342 1104 2825 
Q 979 3309 790 3686 
Q 602 4064 403 4288 
Q 397 4294 377 4323 
Q 358 4352 339 4377 
Q 320 4403 320 4410 
Q 320 4454 374 4483 
Q 429 4512 461 4512 
Q 512 4512 560 4493 
Q 608 4474 634 4442 
Q 806 4269 1001 3977 
Q 1197 3686 1369 3318 
Q 1542 2950 1651 2540 
Q 1760 2131 1760 1722 
Q 1760 1395 1686 1033 
Q 1613 672 1488 310 
Q 1363 -51 1209 -371 
Q 1056 -691 899 -940 
Q 742 -1190 608 -1325 
Q 563 -1370 499 -1370 
z
" transform="scale(0.015625)"/>
      </defs>
      <use xlink:href="#EBGaramond-Regular-74"/>
      <use xlink:href="#EBGaramond-Regular-69" x="31.399994"/>
      <use xlink:href="#EBGaramond-Regular-6d" x="55.899979"/>
      <use xlink:href="#EBGaramond-Regular-65" x="133.699966"/>
      <use xlink:href="#EBGaramond-Regular-20" x="172.699951"/>
      <use xlink:href="#EBGaramond-Regular-28" x="192.699936"/>
      <use xlink:href="#EBGaramond-Regular-6d" x="224.199921"/>
      <use xlink:href="#EBGaramond-Regular-6f" x="301.999908"/>
      <use xlink:href="#EBGaramond-Regular-6e" x="351.499893"/>
      <use xlink:href="#EBGaramond-Regular-74" x="404.299881"/>
      <use xlink:href="#EBGaramond-Regular-68" x="435.699875"/>
      <use xlink:href="#EBGaramond-Regular-73" x="487.19986"/>
      <use xlink:href="#EBGaramond-Regular-29" x="519.499847"/>
     </g>
    </g>
   </g>
   <g id="matplotlib.axis_2">
    <g id="ytick_1">
     <g id="line2d_7">
      <defs>
       <path id="maf4f24e1a9" d="M 0 0 
L -3.5 0 
" style="stroke: #5f776c; stroke-width: 0.8"/>
      </defs>
      <g>
       <use xlink:href="#maf4f24e1a9" x="49.955" y="238.0165" style="fill: #5f776c; stroke: #5f776c; stroke-width: 0.8"/>
      </g>
     </g>
     <g id="text_8">
      <!-- 0.0 -->
      <g style="fill: #5f776c" transform="translate(25.7 243.12775) scale(0.145 -0.145)">
       <defs>
        <path id="EBGaramond-Regular-2e" d="M 736 -90 
Q 595 -90 489 16 
Q 384 122 384 262 
Q 384 410 489 512 
Q 595 614 736 614 
Q 883 614 985 512 
Q 1088 410 1088 262 
Q 1088 122 985 16 
Q 883 -90 736 -90 
z
" transform="scale(0.015625)"/>
       </defs>
       <use xlink:href="#EBGaramond-Regular-30"/>
       <use xlink:href="#EBGaramond-Regular-2e" x="47.999985"/>
       <use xlink:href="#EBGaramond-Regular-30" x="70.999969"/>
      </g>
     </g>
    </g>
    <g id="ytick_2">
     <g id="line2d_8">
      <g>
       <use xlink:href="#maf4f24e1a9" x="49.955" y="185.118375" style="fill: #5f776c; stroke: #5f776c; stroke-width: 0.8"/>
      </g>
     </g>
     <g id="text_9">
      <!-- 0.2 -->
      <g style="fill: #5f776c" transform="translate(25.7 190.229625) scale(0.145 -0.145)">
       <use xlink:href="#EBGaramond-Regular-30"/>
       <use xlink:href="#EBGaramond-Regular-2e" x="47.999985"/>
       <use xlink:href="#EBGaramond-Regular-32" x="70.999969"/>
      </g>
     </g>
    </g>
    <g id="ytick_3">
     <g id="line2d_9">
      <g>
       <use xlink:href="#maf4f24e1a9" x="49.955" y="132.22025" style="fill: #5f776c; stroke: #5f776c; stroke-width: 0.8"/>
      </g>
     </g>
     <g id="text_10">
      <!-- 0.4 -->
      <g style="fill: #5f776c" transform="translate(25.7 137.3315) scale(0.145 -0.145)">
       <use xlink:href="#EBGaramond-Regular-30"/>
       <use xlink:href="#EBGaramond-Regular-2e" x="47.999985"/>
       <use xlink:href="#EBGaramond-Regular-34" x="70.999969"/>
      </g>
     </g>
    </g>
    <g id="ytick_4">
     <g id="line2d_10">
      <g>
       <use xlink:href="#maf4f24e1a9" x="49.955" y="79.322125" style="fill: #5f776c; stroke: #5f776c; stroke-width: 0.8"/>
      </g>
     </g>
     <g id="text_11">
      <!-- 0.6 -->
      <g style="fill: #5f776c" transform="translate(25.7 84.433375) scale(0.145 -0.145)">
       <defs>
        <path id="EBGaramond-Regular-36" d="M 1614 -102 
Q 1288 -102 987 45 
Q 686 192 494 489 
Q 302 787 302 1235 
Q 302 1594 385 1888 
Q 469 2182 597 2409 
Q 725 2637 856 2800 
Q 987 2963 1077 3053 
Q 1237 3219 1486 3424 
Q 1736 3629 2065 3814 
Q 2395 4000 2786 4102 
Q 2843 4115 2878 4096 
Q 2914 4077 2901 4058 
Q 2875 4000 2820 3971 
Q 2766 3942 2734 3930 
Q 2306 3744 1995 3507 
Q 1685 3270 1442 2918 
Q 1339 2765 1198 2499 
Q 1058 2234 955 1907 
Q 853 1581 853 1248 
Q 859 896 1000 649 
Q 1141 403 1349 275 
Q 1557 147 1768 141 
Q 2030 134 2228 323 
Q 2427 512 2427 909 
Q 2427 1107 2353 1276 
Q 2280 1446 2149 1555 
Q 2018 1664 1845 1664 
Q 1678 1664 1560 1645 
Q 1442 1626 1333 1568 
Q 1275 1542 1265 1571 
Q 1256 1600 1288 1638 
Q 1339 1690 1374 1722 
Q 1410 1754 1461 1792 
Q 1531 1843 1720 1923 
Q 1909 2003 2088 2003 
Q 2312 2003 2501 1900 
Q 2690 1798 2808 1622 
Q 2926 1446 2926 1216 
Q 2926 915 2811 672 
Q 2696 429 2504 256 
Q 2312 83 2078 -9 
Q 1845 -102 1614 -102 
z
" transform="scale(0.015625)"/>
       </defs>
       <use xlink:href="#EBGaramond-Regular-30"/>
       <use xlink:href="#EBGaramond-Regular-2e" x="47.999985"/>
       <use xlink:href="#EBGaramond-Regular-36" x="70.999969"/>
      </g>
     </g>
    </g>
    <g id="ytick_5">
     <g id="line2d_11">
      <g>
       <use xlink:href="#maf4f24e1a9" x="49.955" y="26.424" style="fill: #5f776c; stroke: #5f776c; stroke-width: 0.8"/>
      </g>
     </g>
     <g id="text_12">
      <!-- 0.8 -->
      <g style="fill: #5f776c" transform="translate(25.7 31.53525) scale(0.145 -0.145)">
       <defs>
        <path id="EBGaramond-Regular-38" d="M 1549 -90 
Q 1254 -90 995 35 
Q 736 160 576 384 
Q 416 608 416 902 
Q 416 1184 563 1382 
Q 710 1581 912 1712 
Q 1114 1843 1274 1933 
Q 1318 1958 1305 1971 
Q 1293 1984 1254 2016 
Q 1062 2182 892 2332 
Q 723 2483 617 2672 
Q 512 2861 512 3130 
Q 512 3379 685 3584 
Q 858 3789 1126 3910 
Q 1395 4032 1677 4032 
Q 1933 4032 2166 3926 
Q 2400 3821 2547 3629 
Q 2694 3437 2694 3174 
Q 2694 2944 2579 2800 
Q 2464 2656 2355 2560 
Q 2266 2483 2195 2428 
Q 2125 2374 2016 2291 
Q 1933 2234 1933 2211 
Q 1933 2189 1984 2157 
Q 2227 1990 2412 1830 
Q 2598 1670 2704 1484 
Q 2810 1299 2810 1050 
Q 2810 717 2624 461 
Q 2438 205 2150 57 
Q 1862 -90 1549 -90 
z
M 1638 96 
Q 1920 96 2109 304 
Q 2298 512 2298 794 
Q 2298 992 2186 1171 
Q 2074 1350 1901 1507 
Q 1728 1664 1542 1792 
Q 1504 1824 1475 1840 
Q 1446 1856 1414 1856 
Q 1389 1856 1338 1818 
Q 1133 1651 1030 1481 
Q 928 1312 928 1005 
Q 928 781 1011 573 
Q 1094 365 1254 230 
Q 1414 96 1638 96 
z
M 1843 2291 
Q 2067 2477 2134 2701 
Q 2202 2925 2202 3219 
Q 2202 3488 2064 3683 
Q 1926 3878 1645 3878 
Q 1498 3878 1350 3795 
Q 1203 3712 1104 3571 
Q 1005 3430 1005 3258 
Q 1005 3014 1097 2873 
Q 1190 2733 1360 2614 
Q 1530 2496 1754 2310 
Q 1773 2298 1798 2288 
Q 1824 2278 1843 2291 
z
" transform="scale(0.015625)"/>
       </defs>
       <use xlink:href="#EBGaramond-Regular-30"/>
       <use xlink:href="#EBGaramond-Regular-2e" x="47.999985"/>
       <use xlink:href="#EBGaramond-Regular-38" x="70.999969"/>
      </g>
     </g>
    </g>
    <g id="text_13">
     <!-- probability of event 1 by $t$ -->
     <g style="fill: #33463f" transform="translate(17.495 204.43025) rotate(-90) scale(0.145 -0.145)">
      <defs>
       <path id="EBGaramond-Regular-70" d="M 256 -1824 
Q 224 -1824 173 -1814 
Q 122 -1805 122 -1766 
Q 122 -1715 170 -1692 
Q 218 -1670 269 -1651 
Q 365 -1619 454 -1577 
Q 544 -1536 544 -1408 
L 544 1837 
Q 544 1888 515 1990 
Q 486 2093 422 2189 
Q 358 2285 250 2304 
Q 224 2310 211 2336 
Q 198 2362 198 2387 
Q 198 2419 211 2438 
Q 224 2458 243 2464 
Q 486 2522 659 2589 
Q 832 2656 986 2720 
Q 992 2720 992 2723 
Q 992 2726 998 2726 
Q 1011 2726 1024 2707 
Q 1037 2688 1037 2669 
Q 1037 2611 1021 2486 
Q 1005 2362 1005 2285 
Q 1005 2234 1011 2227 
Q 1075 2291 1244 2390 
Q 1414 2490 1632 2570 
Q 1850 2650 2048 2650 
Q 2381 2650 2614 2474 
Q 2848 2298 2973 2019 
Q 3098 1741 3098 1440 
Q 3098 1152 2989 880 
Q 2880 608 2681 390 
Q 2483 173 2220 41 
Q 1958 -90 1658 -90 
Q 1568 -90 1443 -61 
Q 1318 -32 1200 13 
Q 1082 58 1018 115 
Q 1011 115 1004 41 
Q 998 -32 995 -112 
Q 992 -192 992 -211 
L 992 -1408 
Q 992 -1491 1059 -1539 
Q 1126 -1587 1212 -1609 
Q 1299 -1632 1363 -1651 
Q 1414 -1670 1462 -1692 
Q 1510 -1715 1510 -1766 
Q 1510 -1805 1459 -1814 
Q 1408 -1824 1370 -1824 
Q 1184 -1824 1059 -1808 
Q 934 -1792 768 -1792 
Q 659 -1792 592 -1798 
Q 525 -1805 454 -1814 
Q 384 -1824 256 -1824 
z
M 1754 109 
Q 1850 109 1987 166 
Q 2125 224 2262 352 
Q 2400 480 2493 697 
Q 2586 915 2586 1235 
Q 2586 1606 2490 1830 
Q 2394 2054 2253 2169 
Q 2112 2285 1965 2323 
Q 1818 2362 1715 2362 
Q 1562 2362 1398 2298 
Q 1235 2234 1123 2154 
Q 1011 2074 1011 2029 
Q 1011 1888 1008 1744 
Q 1005 1600 1001 1465 
Q 998 1331 995 1225 
Q 992 1120 992 1062 
Q 992 806 1110 588 
Q 1229 371 1405 240 
Q 1581 109 1754 109 
z
" transform="scale(0.015625)"/>
       <path id="EBGaramond-Regular-72" d="M 314 -19 
Q 250 -19 218 -3 
Q 186 13 186 51 
Q 186 102 224 118 
Q 262 134 333 154 
Q 454 186 515 246 
Q 576 307 576 397 
L 576 1773 
Q 576 1946 525 2074 
Q 474 2202 314 2234 
Q 288 2240 269 2265 
Q 250 2291 250 2317 
Q 250 2381 307 2394 
Q 474 2445 656 2544 
Q 838 2643 941 2707 
Q 979 2733 1001 2742 
Q 1024 2752 1037 2752 
Q 1069 2752 1069 2707 
Q 1069 2688 1065 2611 
Q 1062 2534 1059 2432 
Q 1056 2330 1050 2227 
Q 1050 2214 1062 2214 
Q 1165 2342 1289 2438 
Q 1414 2534 1545 2592 
Q 1677 2650 1798 2650 
Q 1933 2650 2019 2592 
Q 2106 2534 2106 2445 
Q 2106 2381 2070 2304 
Q 2035 2227 1977 2169 
Q 1920 2112 1856 2112 
Q 1818 2112 1773 2128 
Q 1728 2144 1677 2170 
Q 1626 2189 1574 2208 
Q 1523 2227 1472 2227 
Q 1318 2227 1174 2118 
Q 1030 2010 1030 1690 
L 1030 397 
Q 1030 314 1120 259 
Q 1210 205 1370 154 
Q 1440 134 1478 115 
Q 1517 96 1517 51 
Q 1517 -19 1389 -19 
Q 1197 -19 1097 -3 
Q 998 13 832 13 
Q 723 13 656 6 
Q 589 0 515 -9 
Q 442 -19 314 -19 
z
" transform="scale(0.015625)"/>
       <path id="EBGaramond-Regular-62" d="M 1658 -90 
Q 1517 -90 1376 -64 
Q 1235 -38 1107 -6 
Q 966 32 860 64 
Q 755 96 723 96 
Q 685 96 649 70 
Q 614 45 582 13 
Q 550 -19 525 -19 
Q 499 -19 467 3 
Q 435 26 435 58 
Q 435 115 457 256 
Q 480 397 480 518 
L 480 3622 
Q 480 3789 397 3910 
Q 314 4032 186 4090 
Q 160 4102 131 4124 
Q 102 4147 102 4186 
Q 102 4218 128 4230 
Q 154 4243 179 4250 
Q 262 4269 406 4320 
Q 550 4371 678 4422 
Q 806 4474 851 4493 
Q 890 4512 909 4512 
Q 922 4512 934 4499 
Q 947 4486 947 4467 
Q 947 4442 937 4253 
Q 928 4064 928 3795 
L 928 2483 
Q 928 2362 941 2320 
Q 954 2278 986 2272 
Q 1184 2438 1446 2544 
Q 1709 2650 1920 2650 
Q 2246 2650 2505 2483 
Q 2765 2317 2918 2032 
Q 3072 1747 3072 1389 
Q 3072 954 2893 618 
Q 2714 282 2397 96 
Q 2080 -90 1658 -90 
z
M 1805 109 
Q 2048 109 2224 259 
Q 2400 410 2496 669 
Q 2592 928 2592 1248 
Q 2592 1498 2499 1760 
Q 2406 2022 2211 2201 
Q 2016 2381 1709 2381 
Q 1453 2381 1261 2297 
Q 1069 2214 928 2086 
L 928 845 
Q 928 621 1053 454 
Q 1178 288 1379 198 
Q 1581 109 1805 109 
z
" transform="scale(0.015625)"/>
       <path id="EBGaramond-Regular-61" d="M 749 -90 
Q 634 -90 515 0 
Q 397 90 317 218 
Q 237 346 237 461 
Q 237 666 345 781 
Q 454 896 691 992 
L 1344 1261 
Q 1472 1312 1494 1350 
Q 1517 1389 1523 1517 
L 1536 1926 
Q 1542 2093 1443 2214 
Q 1344 2336 1158 2336 
Q 1062 2336 966 2304 
Q 870 2272 806 2221 
Q 768 2195 755 2144 
Q 742 2093 742 2035 
Q 742 2010 745 1978 
Q 749 1946 749 1920 
Q 749 1888 669 1833 
Q 589 1779 489 1737 
Q 390 1696 326 1696 
Q 294 1696 275 1712 
Q 256 1728 256 1754 
Q 256 1856 323 1974 
Q 390 2093 512 2195 
Q 659 2330 832 2432 
Q 1005 2534 1171 2592 
Q 1338 2650 1466 2650 
Q 1696 2650 1846 2486 
Q 1997 2323 1990 2080 
L 1958 544 
Q 1952 410 2019 326 
Q 2086 243 2189 243 
Q 2349 243 2426 314 
Q 2458 346 2477 346 
Q 2509 346 2528 326 
Q 2547 307 2547 275 
Q 2547 205 2477 134 
Q 2374 32 2256 -29 
Q 2138 -90 2035 -90 
Q 1741 -90 1568 243 
L 1549 243 
Q 1338 70 1146 -10 
Q 954 -90 749 -90 
z
M 1050 218 
Q 1178 218 1267 259 
Q 1357 301 1427 371 
Q 1459 403 1481 457 
Q 1504 512 1510 634 
L 1523 947 
Q 1530 1018 1517 1050 
Q 1504 1082 1466 1082 
Q 1453 1082 1421 1075 
Q 1389 1069 1338 1050 
Q 998 928 867 797 
Q 736 666 736 557 
Q 736 390 835 304 
Q 934 218 1050 218 
z
" transform="scale(0.015625)"/>
       <path id="EBGaramond-Regular-6c" d="M 250 -19 
Q 218 -19 170 -9 
Q 122 0 122 38 
Q 122 90 170 112 
Q 218 134 269 154 
Q 365 186 454 227 
Q 544 269 544 397 
L 544 3622 
Q 544 3808 477 3933 
Q 410 4058 250 4090 
Q 198 4102 198 4173 
Q 198 4237 243 4250 
Q 410 4288 531 4329 
Q 653 4371 758 4416 
Q 864 4461 966 4499 
Q 992 4512 1005 4512 
Q 1018 4512 1027 4496 
Q 1037 4480 1037 4467 
Q 1037 4410 1014 4221 
Q 992 4032 992 3597 
L 992 397 
Q 992 269 1081 227 
Q 1171 186 1267 154 
Q 1318 134 1366 112 
Q 1414 90 1414 38 
Q 1414 0 1366 -9 
Q 1318 -19 1286 -19 
Q 1165 -19 1091 -9 
Q 1018 0 950 6 
Q 883 13 768 13 
Q 659 13 588 6 
Q 518 0 448 -9 
Q 378 -19 250 -19 
z
" transform="scale(0.015625)"/>
       <path id="EBGaramond-Regular-79" d="M 410 -1824 
Q 288 -1824 185 -1763 
Q 83 -1702 83 -1562 
Q 83 -1446 137 -1360 
Q 192 -1274 294 -1274 
Q 365 -1274 432 -1293 
Q 499 -1312 550 -1312 
Q 589 -1312 617 -1296 
Q 646 -1280 672 -1242 
Q 742 -1126 835 -953 
Q 928 -781 1027 -563 
Q 1126 -346 1216 -102 
Q 1235 -45 1235 45 
Q 1235 96 1228 144 
Q 1222 192 1210 230 
L 467 2106 
Q 422 2221 348 2307 
Q 275 2394 179 2419 
Q 128 2438 80 2464 
Q 32 2490 32 2534 
Q 32 2573 80 2582 
Q 128 2592 160 2592 
Q 288 2592 349 2585 
Q 410 2579 464 2569 
Q 518 2560 627 2560 
Q 742 2560 800 2569 
Q 858 2579 922 2585 
Q 986 2592 1114 2592 
Q 1152 2592 1197 2576 
Q 1242 2560 1242 2522 
Q 1242 2477 1174 2435 
Q 1107 2394 1056 2381 
Q 992 2362 960 2314 
Q 928 2266 928 2176 
Q 928 2138 947 2083 
Q 966 2029 979 1997 
L 1498 717 
Q 1510 678 1536 678 
Q 1555 678 1568 717 
L 2010 1888 
Q 2029 1933 2045 2006 
Q 2061 2080 2061 2125 
Q 2061 2246 2025 2294 
Q 1990 2342 1933 2368 
Q 1882 2394 1814 2435 
Q 1747 2477 1747 2522 
Q 1747 2560 1795 2576 
Q 1843 2592 1875 2592 
Q 1965 2592 2057 2576 
Q 2150 2560 2330 2560 
Q 2451 2560 2505 2569 
Q 2560 2579 2598 2585 
Q 2637 2592 2707 2592 
Q 2739 2592 2787 2582 
Q 2835 2573 2835 2534 
Q 2835 2490 2787 2464 
Q 2739 2438 2688 2419 
Q 2592 2394 2483 2269 
Q 2374 2144 2310 1990 
L 1440 -83 
Q 1434 -102 1373 -249 
Q 1312 -397 1222 -614 
Q 1133 -832 1027 -1081 
Q 922 -1331 826 -1562 
Q 768 -1690 659 -1757 
Q 550 -1824 410 -1824 
z
" transform="scale(0.015625)"/>
       <path id="EBGaramond-Regular-66" d="M 282 -19 
Q 218 -19 186 -3 
Q 154 13 154 51 
Q 154 102 195 121 
Q 237 141 301 154 
Q 448 186 512 246 
Q 576 307 576 435 
L 576 2240 
Q 512 2240 429 2243 
Q 346 2246 243 2253 
Q 224 2259 189 2297 
Q 154 2336 154 2368 
Q 154 2381 173 2390 
Q 192 2400 198 2406 
Q 314 2464 397 2509 
Q 480 2554 576 2598 
Q 576 3155 713 3526 
Q 851 3898 1068 4115 
Q 1286 4333 1529 4425 
Q 1773 4518 1984 4518 
Q 2342 4518 2515 4409 
Q 2688 4301 2688 4134 
Q 2688 4006 2624 3942 
Q 2560 3878 2470 3878 
Q 2413 3878 2365 3923 
Q 2317 3968 2253 4026 
Q 2170 4109 2048 4182 
Q 1926 4256 1715 4256 
Q 1414 4256 1219 3993 
Q 1024 3731 1024 3187 
L 1024 2624 
Q 1024 2586 1046 2573 
Q 1069 2560 1094 2560 
L 1894 2560 
Q 1926 2560 1952 2541 
Q 1978 2522 1978 2490 
Q 1978 2445 1968 2393 
Q 1958 2342 1939 2304 
Q 1920 2253 1882 2253 
L 1146 2253 
Q 1069 2253 1046 2230 
Q 1024 2208 1024 2170 
L 1024 435 
Q 1024 307 1107 246 
Q 1190 186 1446 154 
Q 1594 134 1594 51 
Q 1594 13 1562 -3 
Q 1530 -19 1466 -19 
Q 1274 -19 1126 -3 
Q 979 13 813 13 
Q 704 13 633 6 
Q 563 0 486 -9 
Q 410 -19 282 -19 
z
" transform="scale(0.015625)"/>
       <path id="EBGaramond-Regular-76" d="M 1370 -134 
Q 1344 -134 1305 -35 
Q 1267 64 1254 109 
Q 1210 218 1171 336 
Q 1133 454 1094 557 
Q 954 954 790 1334 
Q 627 1715 474 2106 
Q 429 2221 336 2313 
Q 243 2406 147 2432 
Q 96 2451 64 2470 
Q 32 2490 32 2534 
Q 32 2573 80 2582 
Q 128 2592 160 2592 
Q 288 2592 345 2585 
Q 403 2579 460 2569 
Q 518 2560 627 2560 
Q 742 2560 800 2569 
Q 858 2579 922 2585 
Q 986 2592 1107 2592 
Q 1139 2592 1187 2582 
Q 1235 2573 1235 2534 
Q 1235 2490 1190 2464 
Q 1146 2438 1088 2419 
Q 1024 2394 992 2320 
Q 960 2246 960 2157 
Q 960 2112 966 2067 
Q 973 2022 986 1984 
L 1491 640 
Q 1498 634 1501 634 
Q 1504 634 1510 640 
L 1997 1888 
Q 2022 1952 2035 2025 
Q 2048 2099 2048 2150 
Q 2048 2278 2009 2332 
Q 1971 2387 1882 2419 
Q 1798 2451 1766 2470 
Q 1734 2490 1734 2534 
Q 1734 2573 1776 2582 
Q 1818 2592 1862 2592 
Q 1933 2592 2048 2576 
Q 2163 2560 2330 2560 
Q 2496 2560 2557 2576 
Q 2618 2592 2707 2592 
Q 2758 2592 2796 2582 
Q 2835 2573 2835 2534 
Q 2835 2464 2688 2419 
Q 2592 2394 2477 2272 
Q 2362 2150 2291 1990 
L 1792 787 
Q 1779 762 1740 662 
Q 1702 563 1657 444 
Q 1613 326 1581 240 
Q 1549 154 1549 154 
Q 1549 154 1523 93 
Q 1498 32 1466 -35 
Q 1434 -102 1408 -134 
L 1370 -134 
z
" transform="scale(0.015625)"/>
       <path id="DejaVuSans-Oblique-74" d="M 2706 3500 
L 2619 3053 
L 1472 3053 
L 1100 1153 
Q 1081 1047 1072 975 
Q 1063 903 1063 863 
Q 1063 663 1183 572 
Q 1303 481 1569 481 
L 2150 481 
L 2053 0 
L 1503 0 
Q 991 0 739 200 
Q 488 400 488 806 
Q 488 878 497 964 
Q 506 1050 525 1153 
L 897 3053 
L 409 3053 
L 500 3500 
L 978 3500 
L 1172 4494 
L 1747 4494 
L 1556 3500 
L 2706 3500 
z
" transform="scale(0.015625)"/>
      </defs>
      <use xlink:href="#EBGaramond-Regular-70" transform="translate(0 0.40625)"/>
      <use xlink:href="#EBGaramond-Regular-72" transform="translate(51.899994 0.40625)"/>
      <use xlink:href="#EBGaramond-Regular-6f" transform="translate(85.299988 0.40625)"/>
      <use xlink:href="#EBGaramond-Regular-62" transform="translate(134.799973 0.40625)"/>
      <use xlink:href="#EBGaramond-Regular-61" transform="translate(186.299957 0.40625)"/>
      <use xlink:href="#EBGaramond-Regular-62" transform="translate(226.199951 0.40625)"/>
      <use xlink:href="#EBGaramond-Regular-69" transform="translate(277.699936 0.40625)"/>
      <use xlink:href="#EBGaramond-Regular-6c" transform="translate(302.199921 0.40625)"/>
      <use xlink:href="#EBGaramond-Regular-69" transform="translate(326.199905 0.40625)"/>
      <use xlink:href="#EBGaramond-Regular-74" transform="translate(350.69989 0.40625)"/>
      <use xlink:href="#EBGaramond-Regular-79" transform="translate(382.099884 0.40625)"/>
      <use xlink:href="#EBGaramond-Regular-20" transform="translate(425.899872 0.40625)"/>
      <use xlink:href="#EBGaramond-Regular-6f" transform="translate(445.899857 0.40625)"/>
      <use xlink:href="#EBGaramond-Regular-66" transform="translate(495.399841 0.40625)"/>
      <use xlink:href="#EBGaramond-Regular-20" transform="translate(527.199829 0.40625)"/>
      <use xlink:href="#EBGaramond-Regular-65" transform="translate(547.199814 0.40625)"/>
      <use xlink:href="#EBGaramond-Regular-76" transform="translate(586.199799 0.40625)"/>
      <use xlink:href="#EBGaramond-Regular-65" transform="translate(629.999786 0.40625)"/>
      <use xlink:href="#EBGaramond-Regular-6e" transform="translate(668.999771 0.40625)"/>
      <use xlink:href="#EBGaramond-Regular-74" transform="translate(721.799759 0.40625)"/>
      <use xlink:href="#EBGaramond-Regular-20" transform="translate(753.199753 0.40625)"/>
      <use xlink:href="#EBGaramond-Regular-31" transform="translate(773.199738 0.40625)"/>
      <use xlink:href="#EBGaramond-Regular-20" transform="translate(821.199722 0.40625)"/>
      <use xlink:href="#EBGaramond-Regular-62" transform="translate(841.199707 0.40625)"/>
      <use xlink:href="#EBGaramond-Regular-79" transform="translate(892.699692 0.40625)"/>
      <use xlink:href="#EBGaramond-Regular-20" transform="translate(936.49968 0.40625)"/>
      <use xlink:href="#DejaVuSans-Oblique-74" transform="translate(956.499664 0.40625)"/>
     </g>
    </g>
   </g>
   <g id="line2d_12">
    <path d="M 49.955 232.779235 
L 57.205 227.645674 
L 64.455 222.613765 
L 71.705 217.681494 
L 78.955 212.846889 
L 86.205 208.108016 
L 93.455 203.462978 
L 100.705 198.909918 
L 107.955 194.447015 
L 115.205 190.072484 
L 122.455 185.784573 
L 129.705 181.58157 
L 136.955 177.461791 
L 144.205 173.423589 
L 151.455 169.465349 
L 158.705 165.585488 
L 165.955 161.782453 
L 173.205 158.054723 
L 180.455 154.400807 
L 187.705 150.819243 
L 194.955 147.308599 
L 202.205 143.867471 
L 209.455 140.494481 
L 216.705 137.188281 
L 223.955 133.947548 
L 231.205 130.770986 
L 238.455 127.657324 
L 245.705 124.605317 
L 252.955 121.613744 
L 260.205 118.681408 
L 267.455 115.807136 
L 274.705 112.989778 
L 281.955 110.228207 
L 289.205 107.52132 
L 296.455 104.868032 
L 303.705 102.267283 
L 310.955 99.718033 
L 318.205 97.219261 
L 325.455 94.769967 
L 332.705 92.369174 
L 339.955 90.015919 
L 347.205 87.709261 
L 354.455 85.448279 
L 361.705 83.232067 
L 368.955 81.059738 
L 376.205 78.930425 
L 383.455 76.843275 
L 390.705 74.797454 
L 397.955 72.792142 
L 405.205 70.826538 
L 412.455 68.899856 
L 419.705 67.011325 
L 426.955 65.160189 
L 434.205 63.345708 
L 441.455 61.567156 
L 448.705 59.823822 
L 455.955 58.115008 
L 463.205 56.440031 
L 470.455 54.798221 
L 477.705 53.18892 
" clip-path="url(#pac5dfed9ac)" style="fill: none; stroke-dasharray: 8.14,3.52; stroke-dashoffset: 0; stroke: #b23a24; stroke-width: 2.2"/>
   </g>
   <g id="line2d_13">
    <path d="M 49.955 232.726687 
L 57.205 227.719959 
L 64.455 222.981164 
L 71.705 218.495965 
L 78.955 214.250791 
L 86.205 210.232797 
L 93.455 206.429825 
L 100.705 202.830369 
L 107.955 199.423537 
L 115.205 196.199021 
L 122.455 193.147065 
L 129.705 190.258434 
L 136.955 187.524387 
L 144.205 184.936653 
L 151.455 182.4874 
L 158.705 180.169219 
L 165.955 177.975095 
L 173.205 175.89839 
L 180.455 173.932819 
L 187.705 172.072435 
L 194.955 170.311609 
L 202.205 168.645014 
L 209.455 167.067606 
L 216.705 165.574613 
L 223.955 164.161518 
L 231.205 162.824044 
L 238.455 161.558144 
L 245.705 160.359989 
L 252.955 159.225954 
L 260.205 158.152606 
L 267.455 157.136698 
L 274.705 156.175156 
L 281.955 155.265071 
L 289.205 154.403689 
L 296.455 153.588403 
L 303.705 152.816748 
L 310.955 152.086388 
L 318.205 151.395112 
L 325.455 150.740831 
L 332.705 150.121563 
L 339.955 149.535435 
L 347.205 148.980673 
L 354.455 148.4556 
L 361.705 147.958626 
L 368.955 147.488247 
L 376.205 147.043041 
L 383.455 146.621659 
L 390.705 146.222828 
L 397.955 145.84534 
L 405.205 145.488054 
L 412.455 145.149888 
L 419.705 144.829818 
L 426.955 144.526877 
L 434.205 144.240148 
L 441.455 143.968763 
L 448.705 143.711901 
L 455.955 143.468785 
L 463.205 143.23868 
L 470.455 143.020888 
L 477.705 142.814752 
" clip-path="url(#pac5dfed9ac)" style="fill: none; stroke: #2f8a5f; stroke-width: 2.4; stroke-linecap: square"/>
   </g>
   <g id="patch_3">
    <path d="M 49.955 238.0165 
L 49.955 26.424 
" style="fill: none; stroke: #5f776c; stroke-width: 0.8; stroke-linejoin: miter; stroke-linecap: square"/>
   </g>
   <g id="patch_4">
    <path d="M 49.955 238.0165 
L 477.705 238.0165 
" style="fill: none; stroke: #5f776c; stroke-width: 0.8; stroke-linejoin: miter; stroke-linecap: square"/>
   </g>
   <g id="patch_5">
    <path d="M 313.479497 80.434615 
Q 343.95596 96.250724 373.440063 111.551837 
" style="fill: none; stroke: #5f776c; stroke-linecap: round"/>
    <path d="M 370.285117 107.210602 
L 373.440063 111.551837 
L 368.074107 111.471053 
" style="fill: none; stroke: #5f776c; stroke-linecap: round"/>
   </g>
   <g id="text_14">
    <!-- overestimation gap -->
    <g style="fill: #5f776c" transform="translate(252.955 74.032312) scale(0.12 -0.12)">
     <defs>
      <path id="EBGaramond-Regular-67" d="M 1248 -1856 
Q 704 -1856 387 -1648 
Q 70 -1440 70 -1088 
Q 70 -922 121 -806 
Q 173 -691 282 -608 
Q 371 -531 521 -412 
Q 672 -294 832 -166 
L 1101 -179 
Q 794 -378 672 -557 
Q 550 -736 550 -992 
Q 550 -1248 777 -1424 
Q 1005 -1600 1338 -1600 
Q 1715 -1600 1946 -1427 
Q 2106 -1306 2195 -1110 
Q 2285 -915 2285 -698 
Q 2285 -557 2185 -464 
Q 2086 -371 1875 -313 
Q 1664 -256 1325 -237 
Q 723 -192 489 -77 
Q 256 38 256 282 
Q 256 346 291 400 
Q 326 454 403 518 
Q 550 634 620 688 
Q 691 742 726 780 
Q 762 819 794 877 
L 1011 768 
Q 870 717 774 630 
Q 678 544 678 474 
Q 678 384 774 317 
Q 870 250 1056 211 
Q 1242 173 1510 154 
Q 2099 122 2387 -38 
Q 2675 -198 2675 -493 
Q 2675 -742 2550 -982 
Q 2426 -1222 2221 -1420 
Q 2016 -1619 1763 -1737 
Q 1510 -1856 1248 -1856 
z
M 1325 902 
Q 1568 902 1728 1148 
Q 1888 1395 1888 1760 
Q 1888 1946 1801 2109 
Q 1715 2272 1577 2371 
Q 1440 2470 1280 2470 
Q 1133 2470 1001 2364 
Q 870 2259 790 2092 
Q 710 1926 710 1728 
Q 710 1504 793 1315 
Q 877 1126 1017 1014 
Q 1158 902 1325 902 
z
M 1286 678 
Q 1024 678 787 812 
Q 550 947 400 1168 
Q 250 1389 250 1651 
Q 250 1952 406 2179 
Q 563 2406 819 2534 
Q 1075 2662 1363 2662 
Q 1549 2662 1686 2614 
Q 1824 2566 1958 2528 
Q 2112 2483 2201 2473 
Q 2291 2464 2387 2464 
Q 2464 2464 2579 2473 
Q 2694 2483 2739 2483 
Q 2822 2483 2822 2387 
Q 2822 2330 2758 2266 
Q 2726 2234 2707 2234 
L 2534 2234 
Q 2362 2234 2342 2182 
Q 2336 2157 2326 2109 
Q 2317 2061 2310 2003 
Q 2304 1946 2304 1888 
Q 2304 1562 2163 1286 
Q 2022 1011 1792 844 
Q 1562 678 1286 678 
z
" transform="scale(0.015625)"/>
     </defs>
     <use xlink:href="#EBGaramond-Regular-6f"/>
     <use xlink:href="#EBGaramond-Regular-76" x="49.499985"/>
     <use xlink:href="#EBGaramond-Regular-65" x="93.299973"/>
     <use xlink:href="#EBGaramond-Regular-72" x="132.299957"/>
     <use xlink:href="#EBGaramond-Regular-65" x="165.699951"/>
     <use xlink:href="#EBGaramond-Regular-73" x="204.699936"/>
     <use xlink:href="#EBGaramond-Regular-74" x="236.999924"/>
     <use xlink:href="#EBGaramond-Regular-69" x="268.399918"/>
     <use xlink:href="#EBGaramond-Regular-6d" x="292.899902"/>
     <use xlink:href="#EBGaramond-Regular-61" x="370.69989"/>
     <use xlink:href="#EBGaramond-Regular-74" x="410.599884"/>
     <use xlink:href="#EBGaramond-Regular-69" x="441.999878"/>
     <use xlink:href="#EBGaramond-Regular-6f" x="466.499863"/>
     <use xlink:href="#EBGaramond-Regular-6e" x="515.999847"/>
     <use xlink:href="#EBGaramond-Regular-20" x="568.799835"/>
     <use xlink:href="#EBGaramond-Regular-67" x="588.79982"/>
     <use xlink:href="#EBGaramond-Regular-61" x="632.299805"/>
     <use xlink:href="#EBGaramond-Regular-70" x="672.199799"/>
    </g>
   </g>
   <g id="text_15">
    <!-- Competing risks: why $1-S(t)$ overstates cumulative incidence -->
    <g style="fill: #0e1f1b" transform="translate(50.68 20.424) scale(0.174 -0.174)">
     <defs>
      <path id="EBGaramond-Regular-43" d="M 2605 -96 
Q 2157 -96 1741 57 
Q 1325 211 998 496 
Q 672 781 483 1181 
Q 294 1581 294 2067 
Q 294 2534 492 2931 
Q 691 3328 1036 3622 
Q 1382 3917 1827 4080 
Q 2272 4243 2765 4243 
Q 3014 4243 3187 4224 
Q 3360 4205 3523 4169 
Q 3686 4134 3904 4077 
Q 4000 4051 4041 4000 
Q 4083 3949 4090 3859 
Q 4102 3712 4121 3542 
Q 4141 3373 4147 3123 
Q 4154 3078 4106 3049 
Q 4058 3021 4003 3033 
Q 3949 3046 3930 3117 
Q 3866 3360 3782 3536 
Q 3699 3712 3533 3827 
Q 3373 3936 3145 3990 
Q 2918 4045 2656 4045 
Q 2285 4045 1968 3894 
Q 1651 3744 1424 3485 
Q 1197 3226 1069 2899 
Q 941 2573 941 2221 
Q 941 1830 1065 1452 
Q 1190 1075 1424 771 
Q 1658 467 1981 284 
Q 2304 102 2701 102 
Q 3162 102 3462 313 
Q 3763 525 3974 902 
Q 4019 986 4105 986 
Q 4192 986 4192 883 
Q 4192 832 4166 720 
Q 4141 608 4099 483 
Q 4058 358 4019 262 
Q 3974 173 3945 147 
Q 3917 122 3814 90 
Q 3578 -6 3248 -51 
Q 2918 -96 2605 -96 
z
" transform="scale(0.015625)"/>
      <path id="EBGaramond-Regular-6b" d="M 269 -19 
Q 122 -19 122 51 
Q 122 102 170 118 
Q 218 134 269 154 
Q 365 186 454 237 
Q 544 288 544 416 
L 544 3622 
Q 544 3846 480 3948 
Q 416 4051 256 4090 
Q 198 4102 198 4173 
Q 198 4237 250 4250 
Q 416 4288 537 4329 
Q 659 4371 758 4412 
Q 858 4454 954 4493 
Q 992 4512 1011 4512 
Q 1030 4512 1040 4499 
Q 1050 4486 1050 4454 
Q 1050 4390 1021 4198 
Q 992 4006 992 3597 
L 992 1498 
Q 992 1440 1024 1440 
Q 1062 1440 1123 1472 
Q 1184 1504 1254 1568 
Q 1517 1792 1693 1974 
Q 1869 2157 1933 2227 
Q 1965 2266 1977 2288 
Q 1990 2310 1990 2323 
Q 1990 2355 1936 2380 
Q 1882 2406 1824 2419 
Q 1747 2438 1747 2483 
Q 1747 2515 1785 2537 
Q 1824 2560 1888 2560 
L 2202 2560 
Q 2304 2560 2416 2579 
Q 2528 2598 2627 2617 
Q 2726 2637 2784 2637 
Q 2874 2637 2874 2573 
Q 2874 2534 2829 2505 
Q 2784 2477 2714 2458 
Q 2592 2426 2486 2368 
Q 2381 2310 2291 2259 
Q 2253 2234 2115 2122 
Q 1978 2010 1802 1862 
Q 1626 1715 1472 1581 
Q 1434 1542 1434 1517 
Q 1434 1510 1440 1497 
Q 1446 1485 1453 1472 
Q 1619 1267 1811 1056 
Q 2003 845 2166 685 
Q 2330 525 2394 461 
Q 2502 358 2640 278 
Q 2778 198 2874 166 
Q 2944 141 3005 121 
Q 3066 102 3066 51 
Q 3066 -19 2938 -19 
Q 2688 -19 2377 -9 
Q 2067 0 1741 0 
Q 1626 0 1626 58 
Q 1626 96 1658 121 
Q 1690 147 1734 160 
Q 1805 186 1856 218 
Q 1907 250 1907 307 
Q 1907 326 1894 348 
Q 1882 371 1862 397 
L 1088 1274 
Q 1050 1318 1024 1318 
Q 992 1318 992 1274 
Q 986 1184 986 1078 
Q 986 973 986 864 
Q 986 755 986 640 
Q 986 525 992 416 
Q 992 288 1056 237 
Q 1120 186 1216 154 
Q 1267 134 1315 118 
Q 1363 102 1363 51 
Q 1363 6 1302 -6 
Q 1242 -19 1216 -19 
Q 1094 -19 1036 -9 
Q 979 0 931 6 
Q 883 13 768 13 
Q 659 13 595 6 
Q 531 0 464 -9 
Q 397 -19 269 -19 
z
" transform="scale(0.015625)"/>
      <path id="EBGaramond-Regular-3a" d="M 800 1702 
Q 659 1702 553 1808 
Q 448 1914 448 2054 
Q 448 2202 553 2304 
Q 659 2406 800 2406 
Q 947 2406 1049 2304 
Q 1152 2202 1152 2054 
Q 1152 1914 1049 1808 
Q 947 1702 800 1702 
z
M 800 -90 
Q 659 -90 553 16 
Q 448 122 448 262 
Q 448 410 553 512 
Q 659 614 800 614 
Q 947 614 1049 512 
Q 1152 410 1152 262 
Q 1152 122 1049 16 
Q 947 -90 800 -90 
z
" transform="scale(0.015625)"/>
      <path id="EBGaramond-Regular-77" d="M 1446 -147 
Q 1434 -147 1421 -134 
Q 1408 -122 1402 -102 
L 512 2106 
Q 467 2234 371 2314 
Q 275 2394 179 2419 
Q 128 2438 80 2464 
Q 32 2490 32 2534 
Q 32 2573 80 2582 
Q 128 2592 160 2592 
Q 243 2592 316 2585 
Q 390 2579 467 2569 
Q 544 2560 627 2560 
Q 717 2560 806 2569 
Q 896 2579 982 2585 
Q 1069 2592 1158 2592 
Q 1184 2592 1235 2582 
Q 1286 2573 1286 2534 
Q 1286 2490 1238 2464 
Q 1190 2438 1139 2419 
Q 1075 2400 1040 2326 
Q 1005 2253 1005 2163 
Q 1005 2080 1037 1997 
L 1536 710 
Q 1542 685 1568 685 
Q 1594 685 1600 710 
L 2035 1747 
Q 2067 1830 2076 1907 
Q 2086 1984 2086 2054 
Q 2086 2195 1977 2284 
Q 1869 2374 1760 2419 
Q 1709 2438 1661 2464 
Q 1613 2490 1613 2534 
Q 1613 2573 1657 2582 
Q 1702 2592 1741 2592 
Q 1830 2592 1936 2576 
Q 2042 2560 2221 2560 
Q 2400 2560 2528 2576 
Q 2656 2592 2758 2592 
Q 2790 2592 2838 2582 
Q 2886 2573 2886 2534 
Q 2886 2490 2838 2464 
Q 2790 2438 2739 2419 
Q 2669 2394 2595 2349 
Q 2522 2304 2522 2189 
Q 2522 2150 2531 2102 
Q 2541 2054 2566 1997 
L 3046 762 
Q 3078 691 3098 691 
Q 3123 691 3149 755 
L 3635 1888 
Q 3661 1939 3670 2016 
Q 3680 2093 3680 2138 
Q 3680 2253 3603 2323 
Q 3526 2394 3456 2419 
Q 3405 2438 3357 2464 
Q 3309 2490 3309 2534 
Q 3309 2573 3357 2582 
Q 3405 2592 3437 2592 
Q 3578 2592 3661 2576 
Q 3744 2560 3917 2560 
Q 4038 2560 4089 2569 
Q 4141 2579 4179 2585 
Q 4218 2592 4288 2592 
Q 4326 2592 4371 2582 
Q 4416 2573 4416 2534 
Q 4416 2490 4368 2464 
Q 4320 2438 4269 2419 
Q 4173 2394 4083 2269 
Q 3994 2144 3930 1997 
L 3053 -102 
Q 3034 -147 2995 -147 
Q 2970 -147 2944 -102 
L 2278 1549 
Q 2259 1600 2240 1606 
Q 2221 1606 2195 1542 
L 1498 -102 
Q 1478 -147 1446 -147 
z
" transform="scale(0.015625)"/>
      <path id="DejaVuSans-31" d="M 794 531 
L 1825 531 
L 1825 4091 
L 703 3866 
L 703 4441 
L 1819 4666 
L 2450 4666 
L 2450 531 
L 3481 531 
L 3481 0 
L 794 0 
L 794 531 
z
" transform="scale(0.015625)"/>
      <path id="DejaVuSans-2212" d="M 678 2272 
L 4684 2272 
L 4684 1741 
L 678 1741 
L 678 2272 
z
" transform="scale(0.015625)"/>
      <path id="DejaVuSans-Oblique-53" d="M 3859 4513 
L 3738 3897 
Q 3422 4066 3111 4152 
Q 2800 4238 2509 4238 
Q 1944 4238 1609 3991 
Q 1275 3744 1275 3334 
Q 1275 3109 1398 2989 
Q 1522 2869 2034 2731 
L 2413 2638 
Q 3053 2472 3303 2217 
Q 3553 1963 3553 1503 
Q 3553 797 2998 353 
Q 2444 -91 1538 -91 
Q 1166 -91 791 -17 
Q 416 56 38 206 
L 166 856 
Q 513 641 861 531 
Q 1209 422 1556 422 
Q 2147 422 2503 684 
Q 2859 947 2859 1369 
Q 2859 1650 2717 1795 
Q 2575 1941 2106 2059 
L 1728 2156 
Q 1081 2325 845 2545 
Q 609 2766 609 3163 
Q 609 3859 1145 4304 
Q 1681 4750 2541 4750 
Q 2875 4750 3203 4690 
Q 3531 4631 3859 4513 
z
" transform="scale(0.015625)"/>
      <path id="DejaVuSans-28" d="M 1984 4856 
Q 1566 4138 1362 3434 
Q 1159 2731 1159 2009 
Q 1159 1288 1364 580 
Q 1569 -128 1984 -844 
L 1484 -844 
Q 1016 -109 783 600 
Q 550 1309 550 2009 
Q 550 2706 781 3412 
Q 1013 4119 1484 4856 
L 1984 4856 
z
" transform="scale(0.015625)"/>
      <path id="DejaVuSans-29" d="M 513 4856 
L 1013 4856 
Q 1481 4119 1714 3412 
Q 1947 2706 1947 2009 
Q 1947 1309 1714 600 
Q 1481 -109 1013 -844 
L 513 -844 
Q 928 -128 1133 580 
Q 1338 1288 1338 2009 
Q 1338 2731 1133 3434 
Q 928 4138 513 4856 
z
" transform="scale(0.015625)"/>
      <path id="EBGaramond-Regular-63" d="M 1363 -96 
Q 1043 -96 784 67 
Q 525 230 374 515 
Q 224 800 224 1152 
Q 224 1568 406 1907 
Q 589 2246 896 2448 
Q 1203 2650 1574 2650 
Q 1990 2650 2304 2426 
Q 2381 2368 2381 2304 
Q 2381 2253 2336 2189 
Q 2291 2125 2227 2083 
Q 2163 2042 2106 2042 
Q 2074 2042 2042 2064 
Q 2010 2086 1971 2112 
Q 1830 2221 1657 2317 
Q 1485 2413 1370 2413 
Q 1056 2413 861 2121 
Q 666 1830 666 1357 
Q 666 1056 797 813 
Q 928 570 1149 429 
Q 1370 288 1638 288 
Q 1824 288 1958 349 
Q 2093 410 2246 563 
Q 2259 576 2278 585 
Q 2298 595 2310 595 
Q 2381 595 2381 506 
Q 2381 467 2358 419 
Q 2336 371 2285 307 
Q 2182 179 2041 86 
Q 1901 -6 1731 -51 
Q 1562 -96 1363 -96 
z
" transform="scale(0.015625)"/>
      <path id="EBGaramond-Regular-75" d="M 2342 -122 
Q 2298 -122 2298 -70 
Q 2298 -6 2314 118 
Q 2330 243 2330 326 
Q 2330 339 2330 348 
Q 2330 358 2330 365 
Q 2080 122 1827 16 
Q 1574 -90 1274 -90 
Q 1069 -90 902 -3 
Q 736 83 640 252 
Q 544 422 544 672 
L 544 1971 
Q 544 2112 480 2195 
Q 416 2278 269 2336 
Q 237 2349 211 2368 
Q 186 2387 186 2438 
Q 186 2496 214 2515 
Q 243 2534 282 2541 
Q 499 2554 617 2576 
Q 736 2598 915 2643 
Q 934 2650 944 2650 
Q 954 2650 966 2650 
Q 1037 2650 1030 2560 
Q 1011 2413 1001 2313 
Q 992 2214 992 2067 
L 992 819 
Q 992 666 1069 534 
Q 1146 403 1270 320 
Q 1395 237 1530 237 
Q 1696 237 1821 256 
Q 1946 275 2067 365 
Q 2138 416 2246 531 
Q 2355 646 2355 845 
L 2355 2016 
Q 2355 2150 2275 2217 
Q 2195 2285 2092 2310 
Q 1990 2336 1926 2336 
Q 1869 2336 1830 2358 
Q 1792 2381 1792 2445 
Q 1792 2502 1833 2521 
Q 1875 2541 1926 2541 
Q 2125 2547 2256 2556 
Q 2387 2566 2492 2588 
Q 2598 2611 2714 2643 
Q 2726 2650 2745 2653 
Q 2765 2656 2778 2656 
Q 2861 2656 2861 2586 
Q 2861 2579 2857 2563 
Q 2854 2547 2848 2528 
Q 2842 2509 2832 2419 
Q 2822 2330 2812 2234 
Q 2803 2138 2803 2086 
L 2803 608 
Q 2803 435 2838 361 
Q 2874 288 2918 288 
Q 2970 288 3069 297 
Q 3168 307 3213 307 
Q 3245 307 3277 294 
Q 3309 282 3309 224 
Q 3309 173 3283 157 
Q 3258 141 3219 134 
Q 2970 102 2790 38 
Q 2611 -26 2470 -83 
Q 2451 -90 2412 -106 
Q 2374 -122 2342 -122 
z
" transform="scale(0.015625)"/>
      <path id="EBGaramond-Regular-64" d="M 2285 -122 
Q 2272 -122 2243 -96 
Q 2214 -70 2214 -58 
Q 2214 6 2230 124 
Q 2246 243 2246 326 
L 2246 365 
Q 2150 218 1939 64 
Q 1728 -90 1408 -90 
Q 1043 -90 777 102 
Q 512 294 368 595 
Q 224 896 224 1216 
Q 224 1587 397 1913 
Q 570 2240 893 2445 
Q 1216 2650 1664 2650 
Q 1792 2650 1923 2627 
Q 2054 2605 2125 2579 
Q 2182 2560 2208 2560 
Q 2253 2560 2253 2714 
L 2253 3622 
Q 2253 3885 2169 3974 
Q 2086 4064 1933 4090 
Q 1875 4102 1875 4173 
Q 1875 4230 1926 4250 
Q 2208 4320 2368 4384 
Q 2528 4448 2618 4486 
Q 2643 4499 2665 4502 
Q 2688 4506 2701 4506 
Q 2739 4506 2746 4467 
Q 2746 4429 2736 4336 
Q 2726 4243 2713 4064 
Q 2701 3885 2701 3597 
L 2701 704 
Q 2701 486 2733 387 
Q 2765 288 2835 288 
Q 2867 288 2947 294 
Q 3027 301 3110 307 
Q 3226 314 3226 250 
Q 3226 205 3197 169 
Q 3168 134 3136 134 
Q 2957 109 2784 61 
Q 2611 13 2387 -83 
Q 2336 -109 2320 -115 
Q 2304 -122 2285 -122 
z
M 1638 243 
Q 1805 243 1965 329 
Q 2125 416 2246 557 
L 2253 1709 
Q 2253 1882 2153 2048 
Q 2054 2214 1878 2320 
Q 1702 2426 1466 2426 
Q 1318 2426 1132 2336 
Q 947 2246 812 2019 
Q 678 1792 678 1363 
Q 678 998 787 777 
Q 896 557 1053 441 
Q 1210 326 1373 284 
Q 1536 243 1638 243 
z
" transform="scale(0.015625)"/>
     </defs>
     <use xlink:href="#EBGaramond-Regular-43" transform="translate(0 0.125)"/>
     <use xlink:href="#EBGaramond-Regular-6f" transform="translate(70.999985 0.125)"/>
     <use xlink:href="#EBGaramond-Regular-6d" transform="translate(120.499969 0.125)"/>
     <use xlink:href="#EBGaramond-Regular-70" transform="translate(198.299957 0.125)"/>
     <use xlink:href="#EBGaramond-Regular-65" transform="translate(250.199951 0.125)"/>
     <use xlink:href="#EBGaramond-Regular-74" transform="translate(289.199936 0.125)"/>
     <use xlink:href="#EBGaramond-Regular-69" transform="translate(320.59993 0.125)"/>
     <use xlink:href="#EBGaramond-Regular-6e" transform="translate(345.099915 0.125)"/>
     <use xlink:href="#EBGaramond-Regular-67" transform="translate(397.899902 0.125)"/>
     <use xlink:href="#EBGaramond-Regular-20" transform="translate(441.399887 0.125)"/>
     <use xlink:href="#EBGaramond-Regular-72" transform="translate(461.399872 0.125)"/>
     <use xlink:href="#EBGaramond-Regular-69" transform="translate(494.799866 0.125)"/>
     <use xlink:href="#EBGaramond-Regular-73" transform="translate(519.29985 0.125)"/>
     <use xlink:href="#EBGaramond-Regular-6b" transform="translate(551.599838 0.125)"/>
     <use xlink:href="#EBGaramond-Regular-73" transform="translate(598.499832 0.125)"/>
     <use xlink:href="#EBGaramond-Regular-3a" transform="translate(630.79982 0.125)"/>
     <use xlink:href="#EBGaramond-Regular-20" transform="translate(655.599808 0.125)"/>
     <use xlink:href="#EBGaramond-Regular-77" transform="translate(675.599792 0.125)"/>
     <use xlink:href="#EBGaramond-Regular-68" transform="translate(744.099777 0.125)"/>
     <use xlink:href="#EBGaramond-Regular-79" transform="translate(795.599762 0.125)"/>
     <use xlink:href="#EBGaramond-Regular-20" transform="translate(839.39975 0.125)"/>
     <use xlink:href="#DejaVuSans-31" transform="translate(859.399734 0.125)"/>
     <use xlink:href="#DejaVuSans-2212" transform="translate(942.505203 0.125)"/>
     <use xlink:href="#DejaVuSans-Oblique-53" transform="translate(1045.776688 0.125)"/>
     <use xlink:href="#DejaVuSans-28" transform="translate(1109.25325 0.125)"/>
     <use xlink:href="#DejaVuSans-Oblique-74" transform="translate(1148.266922 0.125)"/>
     <use xlink:href="#DejaVuSans-29" transform="translate(1187.475906 0.125)"/>
     <use xlink:href="#EBGaramond-Regular-20" transform="translate(1226.489578 0.125)"/>
     <use xlink:href="#EBGaramond-Regular-6f" transform="translate(1246.489563 0.125)"/>
     <use xlink:href="#EBGaramond-Regular-76" transform="translate(1295.989548 0.125)"/>
     <use xlink:href="#EBGaramond-Regular-65" transform="translate(1339.789536 0.125)"/>
     <use xlink:href="#EBGaramond-Regular-72" transform="translate(1378.78952 0.125)"/>
     <use xlink:href="#EBGaramond-Regular-73" transform="translate(1412.189514 0.125)"/>
     <use xlink:href="#EBGaramond-Regular-74" transform="translate(1444.489502 0.125)"/>
     <use xlink:href="#EBGaramond-Regular-61" transform="translate(1475.889496 0.125)"/>
     <use xlink:href="#EBGaramond-Regular-74" transform="translate(1515.78949 0.125)"/>
     <use xlink:href="#EBGaramond-Regular-65" transform="translate(1547.189484 0.125)"/>
     <use xlink:href="#EBGaramond-Regular-73" transform="translate(1586.189468 0.125)"/>
     <use xlink:href="#EBGaramond-Regular-20" transform="translate(1618.489456 0.125)"/>
     <use xlink:href="#EBGaramond-Regular-63" transform="translate(1638.489441 0.125)"/>
     <use xlink:href="#EBGaramond-Regular-75" transform="translate(1679.189438 0.125)"/>
     <use xlink:href="#EBGaramond-Regular-6d" transform="translate(1731.889435 0.125)"/>
     <use xlink:href="#EBGaramond-Regular-75" transform="translate(1809.689423 0.125)"/>
     <use xlink:href="#EBGaramond-Regular-6c" transform="translate(1862.38942 0.125)"/>
     <use xlink:href="#EBGaramond-Regular-61" transform="translate(1886.389404 0.125)"/>
     <use xlink:href="#EBGaramond-Regular-74" transform="translate(1926.289398 0.125)"/>
     <use xlink:href="#EBGaramond-Regular-69" transform="translate(1957.689392 0.125)"/>
     <use xlink:href="#EBGaramond-Regular-76" transform="translate(1982.189377 0.125)"/>
     <use xlink:href="#EBGaramond-Regular-65" transform="translate(2025.989365 0.125)"/>
     <use xlink:href="#EBGaramond-Regular-20" transform="translate(2064.989349 0.125)"/>
     <use xlink:href="#EBGaramond-Regular-69" transform="translate(2084.989334 0.125)"/>
     <use xlink:href="#EBGaramond-Regular-6e" transform="translate(2109.489319 0.125)"/>
     <use xlink:href="#EBGaramond-Regular-63" transform="translate(2162.289307 0.125)"/>
     <use xlink:href="#EBGaramond-Regular-69" transform="translate(2202.989304 0.125)"/>
     <use xlink:href="#EBGaramond-Regular-64" transform="translate(2227.489288 0.125)"/>
     <use xlink:href="#EBGaramond-Regular-65" transform="translate(2278.089279 0.125)"/>
     <use xlink:href="#EBGaramond-Regular-6e" transform="translate(2317.089264 0.125)"/>
     <use xlink:href="#EBGaramond-Regular-63" transform="translate(2369.889252 0.125)"/>
     <use xlink:href="#EBGaramond-Regular-65" transform="translate(2410.589249 0.125)"/>
    </g>
   </g>
   <g id="legend_1">
    <g id="line2d_14">
     <path d="M 60.755 41.484 
L 72.755 41.484 
L 84.755 41.484 
" style="fill: none; stroke-dasharray: 8.14,3.52; stroke-dashoffset: 0; stroke: #b23a24; stroke-width: 2.2"/>
    </g>
    <g id="text_16">
     <!-- $1-S_1(t)$  (naive, overestimates) -->
     <g style="fill: #33463f" transform="translate(94.355 45.684) scale(0.12 -0.12)">
      <defs>
       <path id="EBGaramond-Regular-2c" d="M 243 -941 
Q 128 -941 128 -870 
Q 128 -845 150 -822 
Q 173 -800 218 -794 
Q 358 -762 499 -685 
Q 640 -608 736 -464 
Q 832 -320 832 -96 
Q 832 -19 761 80 
Q 691 179 582 186 
Q 442 198 362 275 
Q 282 352 282 454 
Q 282 582 387 665 
Q 493 749 634 749 
Q 864 749 1014 573 
Q 1165 397 1165 128 
Q 1165 -115 1069 -310 
Q 973 -506 825 -646 
Q 678 -787 521 -864 
Q 365 -941 243 -941 
z
" transform="scale(0.015625)"/>
      </defs>
      <use xlink:href="#DejaVuSans-31" transform="translate(0 0.125)"/>
      <use xlink:href="#DejaVuSans-2212" transform="translate(83.105469 0.125)"/>
      <use xlink:href="#DejaVuSans-Oblique-53" transform="translate(186.376953 0.125)"/>
      <use xlink:href="#DejaVuSans-31" transform="translate(249.853516 -16.28125) scale(0.7)"/>
      <use xlink:href="#DejaVuSans-28" transform="translate(297.124023 0.125)"/>
      <use xlink:href="#DejaVuSans-Oblique-74" transform="translate(336.137695 0.125)"/>
      <use xlink:href="#DejaVuSans-29" transform="translate(375.34668 0.125)"/>
      <use xlink:href="#EBGaramond-Regular-20" transform="translate(414.360352 0.125)"/>
      <use xlink:href="#EBGaramond-Regular-20" transform="translate(434.360336 0.125)"/>
      <use xlink:href="#EBGaramond-Regular-28" transform="translate(454.360321 0.125)"/>
      <use xlink:href="#EBGaramond-Regular-6e" transform="translate(485.860306 0.125)"/>
      <use xlink:href="#EBGaramond-Regular-61" transform="translate(538.660294 0.125)"/>
      <use xlink:href="#EBGaramond-Regular-69" transform="translate(578.560287 0.125)"/>
      <use xlink:href="#EBGaramond-Regular-76" transform="translate(603.060272 0.125)"/>
      <use xlink:href="#EBGaramond-Regular-65" transform="translate(646.86026 0.125)"/>
      <use xlink:href="#EBGaramond-Regular-2c" transform="translate(685.860245 0.125)"/>
      <use xlink:href="#EBGaramond-Regular-20" transform="translate(708.860229 0.125)"/>
      <use xlink:href="#EBGaramond-Regular-6f" transform="translate(728.860214 0.125)"/>
      <use xlink:href="#EBGaramond-Regular-76" transform="translate(778.360199 0.125)"/>
      <use xlink:href="#EBGaramond-Regular-65" transform="translate(822.160187 0.125)"/>
      <use xlink:href="#EBGaramond-Regular-72" transform="translate(861.160172 0.125)"/>
      <use xlink:href="#EBGaramond-Regular-65" transform="translate(894.560165 0.125)"/>
      <use xlink:href="#EBGaramond-Regular-73" transform="translate(933.56015 0.125)"/>
      <use xlink:href="#EBGaramond-Regular-74" transform="translate(965.860138 0.125)"/>
      <use xlink:href="#EBGaramond-Regular-69" transform="translate(997.260132 0.125)"/>
      <use xlink:href="#EBGaramond-Regular-6d" transform="translate(1021.760117 0.125)"/>
      <use xlink:href="#EBGaramond-Regular-61" transform="translate(1099.560104 0.125)"/>
      <use xlink:href="#EBGaramond-Regular-74" transform="translate(1139.460098 0.125)"/>
      <use xlink:href="#EBGaramond-Regular-65" transform="translate(1170.860092 0.125)"/>
      <use xlink:href="#EBGaramond-Regular-73" transform="translate(1209.860077 0.125)"/>
      <use xlink:href="#EBGaramond-Regular-29" transform="translate(1242.160065 0.125)"/>
     </g>
    </g>
    <g id="line2d_15">
     <path d="M 60.755 59.364 
L 72.755 59.364 
L 84.755 59.364 
" style="fill: none; stroke: #2f8a5f; stroke-width: 2.4; stroke-linecap: square"/>
    </g>
    <g id="text_17">
     <!-- $\mathrm{CIF}_1(t)$  (correct, Aalen-Johansen) -->
     <g style="fill: #33463f" transform="translate(94.355 63.564) scale(0.12 -0.12)">
      <defs>
       <path id="DejaVuSans-43" d="M 4122 4306 
L 4122 3641 
Q 3803 3938 3442 4084 
Q 3081 4231 2675 4231 
Q 1875 4231 1450 3742 
Q 1025 3253 1025 2328 
Q 1025 1406 1450 917 
Q 1875 428 2675 428 
Q 3081 428 3442 575 
Q 3803 722 4122 1019 
L 4122 359 
Q 3791 134 3420 21 
Q 3050 -91 2638 -91 
Q 1578 -91 968 557 
Q 359 1206 359 2328 
Q 359 3453 968 4101 
Q 1578 4750 2638 4750 
Q 3056 4750 3426 4639 
Q 3797 4528 4122 4306 
z
" transform="scale(0.015625)"/>
       <path id="DejaVuSans-49" d="M 628 4666 
L 1259 4666 
L 1259 0 
L 628 0 
L 628 4666 
z
" transform="scale(0.015625)"/>
       <path id="DejaVuSans-46" d="M 628 4666 
L 3309 4666 
L 3309 4134 
L 1259 4134 
L 1259 2759 
L 3109 2759 
L 3109 2228 
L 1259 2228 
L 1259 0 
L 628 0 
L 628 4666 
z
" transform="scale(0.015625)"/>
       <path id="EBGaramond-Regular-41" d="M 173 -32 
Q 90 -32 38 -9 
Q -13 13 -13 51 
Q -13 96 41 131 
Q 96 166 198 198 
Q 365 250 505 352 
Q 646 454 749 691 
Q 928 1101 1078 1459 
Q 1229 1818 1363 2163 
Q 1498 2509 1642 2883 
Q 1786 3258 1946 3699 
Q 1978 3789 2003 3878 
Q 2029 3968 2035 4070 
Q 2093 4090 2150 4109 
Q 2208 4128 2266 4166 
Q 2323 4205 2345 4281 
Q 2368 4358 2387 4384 
Q 2394 4390 2403 4390 
Q 2413 4390 2419 4378 
Q 2432 4352 2441 4313 
Q 2451 4275 2464 4237 
Q 2618 3750 2784 3244 
Q 2950 2739 3107 2268 
Q 3264 1798 3395 1424 
Q 3526 1050 3603 819 
Q 3693 563 3795 435 
Q 3898 307 4010 256 
Q 4122 205 4250 179 
Q 4358 160 4409 118 
Q 4461 77 4461 32 
Q 4461 -6 4409 -19 
Q 4358 -32 4275 -32 
Q 4186 -32 4032 -22 
Q 3878 -13 3705 -3 
Q 3533 6 3386 6 
Q 3264 6 3136 6 
Q 3008 6 2899 3 
Q 2790 0 2714 0 
Q 2630 0 2579 19 
Q 2528 38 2528 77 
Q 2528 122 2592 154 
Q 2656 186 2739 198 
Q 2950 230 3040 307 
Q 3130 384 3130 486 
Q 3130 582 3088 764 
Q 3046 947 2988 1155 
Q 2931 1363 2880 1523 
Q 2867 1574 2832 1584 
Q 2797 1594 2707 1594 
L 1498 1594 
Q 1472 1594 1443 1571 
Q 1414 1549 1389 1478 
Q 1370 1414 1325 1276 
Q 1280 1139 1235 985 
Q 1190 832 1158 710 
Q 1126 589 1126 557 
Q 1126 416 1235 323 
Q 1344 230 1498 192 
Q 1709 134 1709 64 
Q 1709 26 1657 10 
Q 1606 -6 1523 -6 
Q 1440 -6 1280 0 
Q 1120 6 941 6 
Q 730 6 531 -13 
Q 333 -32 173 -32 
z
M 1670 1805 
L 2662 1805 
Q 2752 1805 2752 1837 
Q 2752 1850 2749 1866 
Q 2746 1882 2739 1901 
L 2240 3462 
Q 2202 3578 2182 3578 
Q 2170 3578 2131 3469 
L 1549 1901 
Q 1536 1862 1536 1850 
Q 1536 1818 1571 1811 
Q 1606 1805 1670 1805 
z
" transform="scale(0.015625)"/>
       <path id="EBGaramond-Regular-2d" d="M 224 1088 
Q 186 1088 186 1126 
Q 186 1235 214 1350 
Q 243 1466 288 1472 
Q 595 1517 902 1558 
Q 1210 1600 1517 1632 
Q 1536 1632 1552 1622 
Q 1568 1613 1568 1594 
Q 1568 1472 1539 1366 
Q 1510 1261 1434 1248 
Q 1146 1203 848 1161 
Q 550 1120 224 1088 
z
" transform="scale(0.015625)"/>
       <path id="EBGaramond-Regular-4a" d="M 218 -1280 
Q -442 -1280 -442 -966 
Q -442 -858 -352 -762 
Q -262 -666 -192 -666 
Q -109 -666 -32 -701 
Q 45 -736 109 -826 
Q 192 -928 259 -973 
Q 326 -1018 410 -1018 
Q 634 -1018 733 -746 
Q 832 -474 832 -6 
L 832 3526 
Q 832 3750 736 3843 
Q 640 3936 410 3981 
Q 198 4019 198 4109 
Q 198 4147 249 4163 
Q 301 4179 384 4179 
Q 557 4179 669 4172 
Q 781 4166 883 4163 
Q 986 4160 1133 4160 
Q 1254 4160 1321 4163 
Q 1389 4166 1475 4172 
Q 1562 4179 1734 4179 
Q 1818 4179 1869 4163 
Q 1920 4147 1920 4109 
Q 1920 4064 1869 4032 
Q 1818 4000 1709 3981 
Q 1472 3936 1408 3843 
Q 1344 3750 1344 3526 
L 1344 301 
Q 1344 32 1261 -205 
Q 1178 -442 1059 -627 
Q 941 -813 838 -934 
Q 710 -1088 556 -1184 
Q 403 -1280 218 -1280 
z
" transform="scale(0.015625)"/>
      </defs>
      <use xlink:href="#DejaVuSans-43" transform="translate(0 0.125)"/>
      <use xlink:href="#DejaVuSans-49" transform="translate(69.824219 0.125)"/>
      <use xlink:href="#DejaVuSans-46" transform="translate(99.316406 0.125)"/>
      <use xlink:href="#DejaVuSans-31" transform="translate(157.792969 -16.28125) scale(0.7)"/>
      <use xlink:href="#DejaVuSans-28" transform="translate(205.063477 0.125)"/>
      <use xlink:href="#DejaVuSans-Oblique-74" transform="translate(244.077148 0.125)"/>
      <use xlink:href="#DejaVuSans-29" transform="translate(283.286133 0.125)"/>
      <use xlink:href="#EBGaramond-Regular-20" transform="translate(322.299805 0.125)"/>
      <use xlink:href="#EBGaramond-Regular-20" transform="translate(342.299789 0.125)"/>
      <use xlink:href="#EBGaramond-Regular-28" transform="translate(362.299774 0.125)"/>
      <use xlink:href="#EBGaramond-Regular-63" transform="translate(393.799759 0.125)"/>
      <use xlink:href="#EBGaramond-Regular-6f" transform="translate(434.499756 0.125)"/>
      <use xlink:href="#EBGaramond-Regular-72" transform="translate(483.999741 0.125)"/>
      <use xlink:href="#EBGaramond-Regular-72" transform="translate(517.399734 0.125)"/>
      <use xlink:href="#EBGaramond-Regular-65" transform="translate(550.799728 0.125)"/>
      <use xlink:href="#EBGaramond-Regular-63" transform="translate(589.799713 0.125)"/>
      <use xlink:href="#EBGaramond-Regular-74" transform="translate(630.49971 0.125)"/>
      <use xlink:href="#EBGaramond-Regular-2c" transform="translate(661.899704 0.125)"/>
      <use xlink:href="#EBGaramond-Regular-20" transform="translate(684.899689 0.125)"/>
      <use xlink:href="#EBGaramond-Regular-41" transform="translate(704.899673 0.125)"/>
      <use xlink:href="#EBGaramond-Regular-61" transform="translate(774.099655 0.125)"/>
      <use xlink:href="#EBGaramond-Regular-6c" transform="translate(813.999649 0.125)"/>
      <use xlink:href="#EBGaramond-Regular-65" transform="translate(837.999634 0.125)"/>
      <use xlink:href="#EBGaramond-Regular-6e" transform="translate(876.999619 0.125)"/>
      <use xlink:href="#EBGaramond-Regular-2d" transform="translate(929.799606 0.125)"/>
      <use xlink:href="#EBGaramond-Regular-4a" transform="translate(957.1996 0.125)"/>
      <use xlink:href="#EBGaramond-Regular-6f" transform="translate(991.199585 0.125)"/>
      <use xlink:href="#EBGaramond-Regular-68" transform="translate(1040.69957 0.125)"/>
      <use xlink:href="#EBGaramond-Regular-61" transform="translate(1092.199554 0.125)"/>
      <use xlink:href="#EBGaramond-Regular-6e" transform="translate(1132.099548 0.125)"/>
      <use xlink:href="#EBGaramond-Regular-73" transform="translate(1184.899536 0.125)"/>
      <use xlink:href="#EBGaramond-Regular-65" transform="translate(1217.199524 0.125)"/>
      <use xlink:href="#EBGaramond-Regular-6e" transform="translate(1256.199509 0.125)"/>
      <use xlink:href="#EBGaramond-Regular-29" transform="translate(1308.999496 0.125)"/>
     </g>
    </g>
   </g>
  </g>
 </g>
 <defs>
  <clipPath id="pac5dfed9ac">
   <rect x="49.955" y="26.424" width="427.75" height="211.5925"/>
  </clipPath>
 </defs>
</svg>
