<?xml version="1.0" encoding="utf-8" standalone="no"?>
<!DOCTYPE svg PUBLIC "-//W3C//DTD SVG 1.1//EN"
  "http://www.w3.org/Graphics/SVG/1.1/DTD/svg11.dtd">
<svg xmlns:xlink="http://www.w3.org/1999/xlink" width="702.14pt" height="259.601063pt" viewBox="0 0 702.14 259.601063" xmlns="http://www.w3.org/2000/svg" version="1.1">
 <metadata>
  <rdf:RDF xmlns:dc="http://purl.org/dc/elements/1.1/" xmlns:cc="http://creativecommons.org/ns#" xmlns:rdf="http://www.w3.org/1999/02/22-rdf-syntax-ns#">
   <cc:Work>
    <dc:type rdf:resource="http://purl.org/dc/dcmitype/StillImage"/>
    <dc:date>2026-07-16T21:39:23.751812</dc:date>
    <dc:format>image/svg+xml</dc:format>
    <dc:creator>
     <cc:Agent>
      <dc:title>Matplotlib v3.9.4, https://matplotlib.org/</dc:title>
     </cc:Agent>
    </dc:creator>
   </cc:Work>
  </rdf:RDF>
 </metadata>
 <defs>
  <style type="text/css">*{stroke-linejoin: round; stroke-linecap: butt}</style>
 </defs>
 <g id="figure_1">
  <g id="patch_1">
   <path d="M 0 259.601063 
L 702.14 259.601063 
L 702.14 0 
L 0 0 
z
" style="fill: #fbf7ef"/>
  </g>
  <g id="axes_1">
   <g id="patch_2">
    <path d="M 56.77 212.691063 
L 366.275 212.691063 
L 366.275 39.838313 
L 56.77 39.838313 
z
" style="fill: #fbf7ef"/>
   </g>
   <g id="matplotlib.axis_1">
    <g id="xtick_1">
     <g id="line2d_1">
      <defs>
       <path id="m4d0b75aba7" d="M 0 0 
L 0 3.5 
" style="stroke: #5f776c; stroke-width: 0.8"/>
      </defs>
      <g>
       <use xlink:href="#m4d0b75aba7" x="56.77" y="212.691063" style="fill: #5f776c; stroke: #5f776c; stroke-width: 0.8"/>
      </g>
     </g>
     <g id="text_1">
      <!-- 0 -->
      <g style="fill: #5f776c" transform="translate(53.29 229.913563) scale(0.145 -0.145)">
       <defs>
        <path id="EBGaramond-Regular-30" d="M 1571 -90 
Q 1245 -90 1005 89 
Q 765 269 605 566 
Q 445 864 368 1222 
Q 291 1581 291 1933 
Q 291 2298 368 2669 
Q 445 3040 608 3347 
Q 771 3654 1027 3843 
Q 1283 4032 1635 4032 
Q 1962 4032 2202 3853 
Q 2442 3674 2602 3376 
Q 2762 3078 2838 2723 
Q 2915 2368 2915 2022 
Q 2915 1664 2838 1293 
Q 2762 922 2598 608 
Q 2435 294 2182 102 
Q 1930 -90 1571 -90 
z
M 1680 77 
Q 1936 77 2093 336 
Q 2250 595 2320 1011 
Q 2390 1427 2390 1907 
Q 2390 2266 2336 2611 
Q 2282 2957 2170 3238 
Q 2058 3520 1894 3686 
Q 1731 3853 1514 3853 
Q 1258 3853 1107 3603 
Q 957 3354 889 2941 
Q 822 2528 822 2048 
Q 822 1690 876 1338 
Q 931 986 1036 701 
Q 1142 416 1302 246 
Q 1462 77 1680 77 
z
" transform="scale(0.015625)"/>
       </defs>
       <use xlink:href="#EBGaramond-Regular-30"/>
      </g>
     </g>
    </g>
    <g id="xtick_2">
     <g id="line2d_2">
      <g>
       <use xlink:href="#m4d0b75aba7" x="121.250208" y="212.691063" style="fill: #5f776c; stroke: #5f776c; stroke-width: 0.8"/>
      </g>
     </g>
     <g id="text_2">
      <!-- 5 -->
      <g style="fill: #5f776c" transform="translate(117.770208 229.913563) scale(0.145 -0.145)">
       <defs>
        <path id="EBGaramond-Regular-35" d="M 698 -243 
Q 627 -243 544 -227 
Q 461 -211 461 -166 
Q 461 -115 547 -80 
Q 634 -45 691 -45 
Q 1197 -45 1526 137 
Q 1856 320 2019 595 
Q 2182 870 2182 1146 
Q 2182 1395 2035 1587 
Q 1888 1779 1552 1939 
Q 1216 2099 646 2246 
Q 563 2317 528 2387 
Q 493 2458 493 2541 
Q 493 2630 528 2758 
Q 563 2886 614 3030 
Q 666 3174 717 3315 
Q 768 3456 800 3558 
Q 832 3654 896 3708 
Q 960 3763 1062 3789 
Q 1210 3827 1363 3859 
Q 1517 3891 1683 3920 
Q 1850 3949 2026 3971 
Q 2202 3994 2387 4013 
Q 2438 4019 2460 3984 
Q 2483 3949 2458 3904 
Q 2432 3853 2403 3798 
Q 2374 3744 2349 3693 
Q 2304 3597 2249 3549 
Q 2195 3501 2112 3488 
Q 1990 3475 1830 3459 
Q 1670 3443 1510 3427 
Q 1350 3411 1216 3398 
Q 1082 3386 1011 3373 
Q 966 3366 902 3260 
Q 838 3155 787 3036 
Q 736 2918 730 2867 
Q 723 2822 739 2790 
Q 755 2758 813 2746 
Q 1171 2643 1465 2537 
Q 1760 2432 1978 2317 
Q 2336 2131 2512 1878 
Q 2688 1626 2688 1235 
Q 2688 883 2477 576 
Q 2266 269 1907 64 
Q 1734 -32 1542 -99 
Q 1350 -166 1139 -204 
Q 928 -243 698 -243 
z
" transform="scale(0.015625)"/>
       </defs>
       <use xlink:href="#EBGaramond-Regular-35"/>
      </g>
     </g>
    </g>
    <g id="xtick_3">
     <g id="line2d_3">
      <g>
       <use xlink:href="#m4d0b75aba7" x="185.730417" y="212.691063" style="fill: #5f776c; stroke: #5f776c; stroke-width: 0.8"/>
      </g>
     </g>
     <g id="text_3">
      <!-- 10 -->
      <g style="fill: #5f776c" transform="translate(178.770417 229.913563) scale(0.145 -0.145)">
       <defs>
        <path id="EBGaramond-Regular-31" d="M 685 -19 
Q 640 -19 614 6 
Q 589 32 589 58 
Q 589 115 685 141 
Q 928 205 1085 259 
Q 1242 314 1315 413 
Q 1389 512 1389 698 
L 1389 3142 
Q 1389 3264 1312 3328 
Q 1235 3392 1113 3417 
Q 992 3443 851 3450 
Q 787 3456 736 3481 
Q 685 3507 685 3558 
Q 685 3603 733 3635 
Q 781 3667 845 3674 
Q 1133 3718 1360 3785 
Q 1587 3853 1805 4070 
Q 1811 4077 1820 4077 
Q 1830 4077 1837 4077 
Q 1869 4077 1894 4061 
Q 1920 4045 1914 4019 
Q 1901 3923 1894 3811 
Q 1888 3699 1888 3565 
L 1888 621 
Q 1888 461 1949 377 
Q 2010 294 2157 246 
Q 2304 198 2566 134 
Q 2605 128 2640 105 
Q 2675 83 2675 51 
Q 2675 -19 2586 -19 
Q 2406 -19 2256 -9 
Q 2106 0 1962 6 
Q 1818 13 1645 13 
Q 1472 13 1318 6 
Q 1165 0 1011 -9 
Q 858 -19 685 -19 
z
" transform="scale(0.015625)"/>
       </defs>
       <use xlink:href="#EBGaramond-Regular-31"/>
       <use xlink:href="#EBGaramond-Regular-30" x="47.999985"/>
      </g>
     </g>
    </g>
    <g id="xtick_4">
     <g id="line2d_4">
      <g>
       <use xlink:href="#m4d0b75aba7" x="250.210625" y="212.691063" style="fill: #5f776c; stroke: #5f776c; stroke-width: 0.8"/>
      </g>
     </g>
     <g id="text_4">
      <!-- 15 -->
      <g style="fill: #5f776c" transform="translate(243.250625 229.913563) scale(0.145 -0.145)">
       <use xlink:href="#EBGaramond-Regular-31"/>
       <use xlink:href="#EBGaramond-Regular-35" x="47.999985"/>
      </g>
     </g>
    </g>
    <g id="xtick_5">
     <g id="line2d_5">
      <g>
       <use xlink:href="#m4d0b75aba7" x="314.690833" y="212.691063" style="fill: #5f776c; stroke: #5f776c; stroke-width: 0.8"/>
      </g>
     </g>
     <g id="text_5">
      <!-- 20 -->
      <g style="fill: #5f776c" transform="translate(307.730833 229.913563) scale(0.145 -0.145)">
       <defs>
        <path id="EBGaramond-Regular-32" d="M 2683 -19 
Q 2638 -19 2542 -12 
Q 2446 -6 2324 0 
Q 2203 6 2072 12 
Q 1941 19 1819 19 
Q 1698 19 1474 12 
Q 1250 6 1003 3 
Q 757 0 571 -6 
Q 386 -13 334 -13 
Q 309 -13 257 28 
Q 206 70 206 96 
Q 206 128 219 141 
Q 232 154 258 179 
L 1352 1312 
Q 1672 1645 1883 2057 
Q 2094 2470 2094 2893 
Q 2094 3232 1889 3427 
Q 1685 3622 1410 3622 
Q 1147 3622 923 3478 
Q 699 3334 565 3104 
Q 546 3066 517 3040 
Q 488 3014 456 3014 
Q 430 3014 395 3068 
Q 360 3123 360 3206 
Q 360 3283 453 3417 
Q 546 3552 712 3693 
Q 878 3834 1108 3933 
Q 1339 4032 1608 4032 
Q 1928 4032 2158 3897 
Q 2389 3763 2510 3526 
Q 2632 3290 2632 2976 
Q 2632 2803 2571 2604 
Q 2510 2406 2404 2214 
Q 2299 2022 2165 1856 
Q 2082 1754 1918 1584 
Q 1755 1414 1566 1222 
Q 1378 1030 1208 860 
Q 1038 691 929 579 
Q 821 467 821 454 
Q 821 422 910 410 
Q 1019 403 1156 396 
Q 1294 390 1474 390 
Q 1659 390 1844 396 
Q 2030 403 2203 410 
Q 2389 422 2491 441 
Q 2594 461 2664 521 
Q 2734 582 2811 710 
Q 2837 749 2878 803 
Q 2920 858 2971 858 
Q 3003 858 3009 832 
Q 3016 806 3016 781 
Q 3016 749 2981 656 
Q 2946 563 2901 428 
Q 2856 294 2824 134 
Q 2805 32 2760 6 
Q 2715 -19 2683 -19 
z
" transform="scale(0.015625)"/>
       </defs>
       <use xlink:href="#EBGaramond-Regular-32"/>
       <use xlink:href="#EBGaramond-Regular-30" x="47.999985"/>
      </g>
     </g>
    </g>
    <g id="text_6">
     <!-- time (months) -->
     <g style="fill: #33463f" transform="translate(171.575 248.268563) scale(0.145 -0.145)">
      <defs>
       <path id="EBGaramond-Regular-74" d="M 1210 -90 
Q 896 -90 720 102 
Q 544 294 544 672 
L 544 2157 
Q 544 2208 505 2230 
Q 467 2253 339 2253 
L 301 2253 
Q 269 2253 246 2294 
Q 224 2336 224 2381 
Q 224 2394 243 2419 
Q 262 2445 269 2451 
Q 397 2541 502 2630 
Q 608 2720 694 2806 
Q 781 2893 838 2963 
Q 870 2995 892 3017 
Q 915 3040 947 3040 
Q 979 3040 1008 3027 
Q 1037 3014 1030 2970 
L 998 2682 
Q 992 2611 1030 2585 
Q 1069 2560 1152 2560 
L 1882 2560 
Q 1907 2560 1926 2518 
Q 1946 2477 1946 2419 
Q 1946 2362 1926 2307 
Q 1907 2253 1882 2253 
L 1248 2253 
Q 1088 2253 1040 2227 
Q 992 2202 992 2074 
L 992 813 
Q 992 557 1101 409 
Q 1210 262 1414 262 
Q 1600 262 1702 291 
Q 1805 320 1888 378 
Q 1901 390 1914 390 
Q 1939 390 1948 361 
Q 1958 333 1958 301 
Q 1958 269 1852 173 
Q 1747 77 1577 -6 
Q 1408 -90 1210 -90 
z
" transform="scale(0.015625)"/>
       <path id="EBGaramond-Regular-69" d="M 282 -19 
Q 224 -19 189 -3 
Q 154 13 154 51 
Q 154 102 202 121 
Q 250 141 301 154 
Q 435 186 505 234 
Q 576 282 576 397 
L 576 1786 
Q 576 1958 515 2092 
Q 454 2227 288 2253 
Q 256 2259 240 2278 
Q 224 2298 224 2336 
Q 224 2406 282 2413 
Q 538 2470 704 2569 
Q 870 2669 954 2733 
Q 1011 2778 1043 2778 
Q 1082 2778 1082 2746 
Q 1082 2694 1066 2544 
Q 1050 2394 1037 2211 
Q 1024 2029 1024 1882 
L 1024 397 
Q 1024 288 1097 237 
Q 1171 186 1299 154 
Q 1350 141 1398 121 
Q 1446 102 1446 51 
Q 1446 -19 1318 -19 
Q 1197 -19 1123 -9 
Q 1050 0 982 6 
Q 915 13 800 13 
Q 691 13 620 6 
Q 550 0 480 -9 
Q 410 -19 282 -19 
z
M 792 3302 
Q 658 3302 565 3395 
Q 472 3488 472 3622 
Q 472 3763 565 3856 
Q 658 3949 792 3949 
Q 933 3949 1025 3856 
Q 1118 3763 1118 3622 
Q 1118 3488 1025 3395 
Q 933 3302 792 3302 
z
" transform="scale(0.015625)"/>
       <path id="EBGaramond-Regular-6d" d="M 282 -19 
Q 230 -19 192 -6 
Q 154 6 154 51 
Q 154 96 195 115 
Q 237 134 301 154 
Q 390 186 483 227 
Q 576 269 576 397 
L 576 1773 
Q 576 1946 537 2077 
Q 499 2208 333 2234 
Q 307 2240 291 2259 
Q 275 2278 275 2317 
Q 275 2381 326 2394 
Q 499 2438 601 2486 
Q 704 2534 784 2595 
Q 864 2656 979 2726 
Q 992 2733 1005 2742 
Q 1018 2752 1037 2752 
Q 1075 2752 1075 2707 
Q 1075 2662 1059 2524 
Q 1043 2387 1043 2298 
Q 1043 2234 1056 2221 
L 1069 2221 
Q 1216 2362 1456 2506 
Q 1696 2650 2067 2650 
Q 2298 2650 2451 2550 
Q 2605 2451 2707 2208 
L 2726 2208 
Q 2931 2394 3193 2522 
Q 3456 2650 3770 2650 
Q 3981 2650 4121 2522 
Q 4262 2394 4336 2189 
Q 4410 1984 4410 1760 
L 4410 397 
Q 4410 269 4499 227 
Q 4589 186 4685 154 
Q 4749 134 4790 115 
Q 4832 96 4832 51 
Q 4832 13 4803 -3 
Q 4774 -19 4704 -19 
Q 4576 -19 4505 -9 
Q 4435 0 4374 6 
Q 4314 13 4198 13 
Q 4090 13 4019 6 
Q 3949 0 3872 -9 
Q 3795 -19 3667 -19 
Q 3610 -19 3574 -3 
Q 3539 13 3539 51 
Q 3539 102 3580 121 
Q 3622 141 3686 154 
Q 3789 179 3875 224 
Q 3962 269 3962 397 
L 3962 1741 
Q 3962 1894 3891 2032 
Q 3821 2170 3705 2259 
Q 3590 2349 3450 2349 
Q 3290 2349 3152 2310 
Q 3014 2272 2893 2176 
Q 2714 2035 2714 1715 
L 2714 397 
Q 2714 269 2810 224 
Q 2906 179 3002 154 
Q 3066 141 3107 118 
Q 3149 96 3149 51 
Q 3149 13 3117 -3 
Q 3085 -19 3021 -19 
Q 2893 -19 2819 -9 
Q 2746 0 2678 6 
Q 2611 13 2496 13 
Q 2387 13 2316 6 
Q 2246 0 2169 -9 
Q 2093 -19 1965 -19 
Q 1914 -19 1875 -3 
Q 1837 13 1837 51 
Q 1837 102 1885 118 
Q 1933 134 1984 154 
Q 2080 186 2173 227 
Q 2266 269 2266 397 
L 2266 1741 
Q 2266 1894 2195 2032 
Q 2125 2170 2009 2259 
Q 1894 2349 1754 2349 
Q 1594 2349 1456 2310 
Q 1318 2272 1197 2176 
Q 1024 2048 1024 1715 
L 1024 397 
Q 1024 269 1113 227 
Q 1203 186 1299 154 
Q 1350 134 1398 118 
Q 1446 102 1446 51 
Q 1446 13 1411 -3 
Q 1376 -19 1318 -19 
Q 1190 -19 1116 -9 
Q 1043 0 979 6 
Q 915 13 800 13 
Q 691 13 624 6 
Q 557 0 483 -9 
Q 410 -19 282 -19 
z
" transform="scale(0.015625)"/>
       <path id="EBGaramond-Regular-65" d="M 1363 -96 
Q 1011 -96 748 77 
Q 486 250 339 566 
Q 192 883 192 1299 
Q 192 1670 361 1974 
Q 531 2278 812 2464 
Q 1094 2650 1427 2650 
Q 1683 2650 1881 2547 
Q 2080 2445 2192 2262 
Q 2304 2080 2304 1843 
Q 2304 1645 2112 1645 
L 762 1645 
Q 672 1645 637 1597 
Q 602 1549 602 1408 
Q 602 1101 736 848 
Q 870 595 1094 444 
Q 1318 294 1587 294 
Q 1779 294 1936 368 
Q 2093 442 2214 582 
Q 2240 614 2253 624 
Q 2266 634 2285 634 
Q 2336 634 2336 570 
Q 2336 448 2221 301 
Q 2125 179 1990 89 
Q 1856 0 1696 -48 
Q 1536 -96 1363 -96 
z
M 774 1843 
L 1357 1843 
Q 1510 1843 1619 1849 
Q 1728 1856 1830 1875 
Q 1862 1882 1872 1917 
Q 1882 1952 1882 2016 
Q 1882 2202 1718 2333 
Q 1555 2464 1331 2464 
Q 1184 2464 1037 2377 
Q 890 2291 794 2163 
Q 698 2035 698 1907 
Q 698 1843 774 1843 
z
" transform="scale(0.015625)"/>
       <path id="EBGaramond-Regular-20" transform="scale(0.015625)"/>
       <path id="EBGaramond-Regular-28" d="M 1517 -1370 
Q 1453 -1370 1408 -1325 
Q 1274 -1190 1117 -940 
Q 960 -691 806 -371 
Q 653 -51 528 310 
Q 403 672 329 1033 
Q 256 1395 256 1722 
Q 256 2131 365 2540 
Q 474 2950 646 3318 
Q 819 3686 1014 3977 
Q 1210 4269 1382 4442 
Q 1414 4474 1462 4493 
Q 1510 4512 1555 4512 
Q 1587 4512 1641 4483 
Q 1696 4454 1696 4410 
Q 1696 4403 1677 4377 
Q 1658 4352 1638 4323 
Q 1619 4294 1613 4288 
Q 1421 4064 1229 3686 
Q 1037 3309 912 2825 
Q 787 2342 787 1798 
Q 787 1389 857 950 
Q 928 512 1043 105 
Q 1158 -301 1302 -617 
Q 1446 -934 1594 -1107 
Q 1600 -1114 1622 -1139 
Q 1645 -1165 1667 -1193 
Q 1690 -1222 1690 -1229 
Q 1690 -1293 1635 -1331 
Q 1581 -1370 1517 -1370 
z
" transform="scale(0.015625)"/>
       <path id="EBGaramond-Regular-6f" d="M 1498 -90 
Q 1139 -90 851 76 
Q 563 243 393 534 
Q 224 826 224 1197 
Q 224 1466 329 1722 
Q 435 1978 627 2189 
Q 819 2400 1075 2525 
Q 1331 2650 1626 2650 
Q 1997 2650 2294 2470 
Q 2592 2291 2768 2000 
Q 2944 1709 2944 1363 
Q 2944 992 2781 659 
Q 2618 326 2298 118 
Q 1978 -90 1498 -90 
z
M 1632 102 
Q 1850 102 2022 185 
Q 2195 269 2291 454 
Q 2368 602 2393 813 
Q 2419 1024 2419 1210 
Q 2419 1517 2307 1801 
Q 2195 2086 1993 2268 
Q 1792 2451 1517 2451 
Q 1344 2451 1206 2396 
Q 1069 2342 954 2195 
Q 826 2035 787 1804 
Q 749 1574 749 1344 
Q 749 1030 864 745 
Q 979 461 1177 281 
Q 1376 102 1632 102 
z
" transform="scale(0.015625)"/>
       <path id="EBGaramond-Regular-6e" d="M 282 -19 
Q 224 -19 189 -3 
Q 154 13 154 51 
Q 154 102 192 118 
Q 230 134 301 154 
Q 397 179 486 224 
Q 576 269 576 397 
L 576 1773 
Q 576 1946 541 2067 
Q 506 2189 339 2234 
Q 314 2246 294 2262 
Q 275 2278 275 2317 
Q 275 2387 333 2394 
Q 557 2451 697 2534 
Q 838 2618 973 2720 
Q 992 2733 1008 2742 
Q 1024 2752 1043 2752 
Q 1056 2752 1065 2739 
Q 1075 2726 1075 2707 
Q 1075 2662 1059 2524 
Q 1043 2387 1043 2298 
Q 1043 2272 1046 2249 
Q 1050 2227 1056 2221 
Q 1280 2432 1533 2541 
Q 1786 2650 2086 2650 
Q 2400 2650 2605 2394 
Q 2810 2138 2810 1760 
L 2810 397 
Q 2810 269 2899 227 
Q 2989 186 3085 154 
Q 3136 134 3184 112 
Q 3232 90 3232 38 
Q 3232 0 3187 -9 
Q 3142 -19 3104 -19 
Q 2976 -19 2905 -9 
Q 2835 0 2771 6 
Q 2707 13 2592 13 
Q 2483 13 2412 6 
Q 2342 0 2268 -9 
Q 2195 -19 2067 -19 
Q 2035 -19 1987 -9 
Q 1939 0 1939 38 
Q 1939 90 1987 112 
Q 2035 134 2086 154 
Q 2182 186 2272 227 
Q 2362 269 2362 397 
L 2362 1741 
Q 2362 2022 2205 2179 
Q 2048 2336 1786 2342 
Q 1555 2342 1382 2268 
Q 1210 2195 1075 2086 
Q 1050 2061 1037 2019 
Q 1024 1978 1024 1939 
L 1024 397 
Q 1024 269 1113 224 
Q 1203 179 1299 154 
Q 1446 115 1446 51 
Q 1446 13 1414 -3 
Q 1382 -19 1318 -19 
Q 1190 -19 1116 -9 
Q 1043 0 979 6 
Q 915 13 800 13 
Q 691 13 624 6 
Q 557 0 483 -9 
Q 410 -19 282 -19 
z
" transform="scale(0.015625)"/>
       <path id="EBGaramond-Regular-68" d="M 250 -19 
Q 122 -19 122 51 
Q 122 109 269 154 
Q 365 186 451 237 
Q 538 288 544 416 
L 544 3622 
Q 544 3795 486 3926 
Q 429 4058 262 4083 
Q 205 4096 205 4173 
Q 205 4230 256 4250 
Q 346 4282 470 4320 
Q 595 4358 729 4406 
Q 864 4454 966 4499 
Q 992 4512 1005 4512 
Q 1024 4512 1037 4499 
Q 1050 4486 1050 4467 
Q 1050 4429 1034 4358 
Q 1018 4288 1005 4115 
Q 992 3942 992 3597 
L 992 2483 
Q 992 2381 1001 2336 
Q 1011 2291 1037 2246 
Q 1139 2323 1289 2416 
Q 1440 2509 1625 2579 
Q 1811 2650 2010 2650 
Q 2323 2650 2531 2403 
Q 2739 2157 2739 1779 
L 2739 435 
Q 2739 307 2822 246 
Q 2906 186 3002 154 
Q 3072 134 3110 112 
Q 3149 90 3149 51 
Q 3149 -19 3021 -19 
Q 2893 -19 2825 -9 
Q 2758 0 2697 6 
Q 2637 13 2522 13 
Q 2413 13 2349 6 
Q 2285 0 2217 -9 
Q 2150 -19 2022 -19 
Q 1894 -19 1894 51 
Q 1894 96 1932 112 
Q 1971 128 2042 154 
Q 2138 186 2214 246 
Q 2291 307 2291 435 
L 2291 1741 
Q 2291 1901 2198 2032 
Q 2106 2163 1971 2240 
Q 1837 2317 1696 2317 
Q 1574 2317 1414 2281 
Q 1254 2246 1165 2176 
Q 1062 2093 1027 2003 
Q 992 1914 992 1715 
L 992 416 
Q 998 288 1072 237 
Q 1146 186 1242 154 
Q 1312 134 1347 112 
Q 1382 90 1382 51 
Q 1382 -19 1254 -19 
Q 1126 -19 1062 -9 
Q 998 0 940 6 
Q 883 13 768 13 
Q 659 13 592 6 
Q 525 0 451 -9 
Q 378 -19 250 -19 
z
" transform="scale(0.015625)"/>
       <path id="EBGaramond-Regular-73" d="M 922 -90 
Q 723 -90 550 -29 
Q 378 32 256 141 
Q 224 211 208 377 
Q 192 544 186 653 
Q 186 710 269 710 
Q 294 710 316 700 
Q 339 691 346 666 
Q 429 352 611 217 
Q 794 83 979 83 
Q 1165 83 1296 208 
Q 1427 333 1427 518 
Q 1427 691 1312 816 
Q 1197 941 909 1120 
Q 691 1254 556 1376 
Q 422 1498 361 1626 
Q 301 1754 301 1914 
Q 301 2118 397 2284 
Q 493 2451 685 2550 
Q 877 2650 1165 2650 
Q 1357 2650 1485 2611 
Q 1613 2573 1677 2528 
Q 1728 2458 1763 2307 
Q 1798 2157 1798 2022 
Q 1798 1978 1734 1978 
Q 1696 1978 1661 1994 
Q 1626 2010 1613 2035 
Q 1530 2246 1405 2358 
Q 1280 2470 1094 2470 
Q 934 2470 809 2374 
Q 685 2278 685 2093 
Q 685 1946 777 1830 
Q 870 1715 1126 1568 
Q 1498 1357 1680 1174 
Q 1862 992 1862 691 
Q 1862 346 1600 128 
Q 1338 -90 922 -90 
z
" transform="scale(0.015625)"/>
       <path id="EBGaramond-Regular-29" d="M 499 -1370 
Q 435 -1370 380 -1331 
Q 326 -1293 326 -1229 
Q 326 -1222 348 -1193 
Q 371 -1165 396 -1139 
Q 422 -1114 422 -1107 
Q 570 -934 714 -617 
Q 858 -301 973 105 
Q 1088 512 1158 950 
Q 1229 1389 1229 1798 
Q 1229 2342 1104 2825 
Q 979 3309 790 3686 
Q 602 4064 403 4288 
Q 397 4294 377 4323 
Q 358 4352 339 4377 
Q 320 4403 320 4410 
Q 320 4454 374 4483 
Q 429 4512 461 4512 
Q 512 4512 560 4493 
Q 608 4474 634 4442 
Q 806 4269 1001 3977 
Q 1197 3686 1369 3318 
Q 1542 2950 1651 2540 
Q 1760 2131 1760 1722 
Q 1760 1395 1686 1033 
Q 1613 672 1488 310 
Q 1363 -51 1209 -371 
Q 1056 -691 899 -940 
Q 742 -1190 608 -1325 
Q 563 -1370 499 -1370 
z
" transform="scale(0.015625)"/>
      </defs>
      <use xlink:href="#EBGaramond-Regular-74"/>
      <use xlink:href="#EBGaramond-Regular-69" x="31.399994"/>
      <use xlink:href="#EBGaramond-Regular-6d" x="55.899979"/>
      <use xlink:href="#EBGaramond-Regular-65" x="133.699966"/>
      <use xlink:href="#EBGaramond-Regular-20" x="172.699951"/>
      <use xlink:href="#EBGaramond-Regular-28" x="192.699936"/>
      <use xlink:href="#EBGaramond-Regular-6d" x="224.199921"/>
      <use xlink:href="#EBGaramond-Regular-6f" x="301.999908"/>
      <use xlink:href="#EBGaramond-Regular-6e" x="351.499893"/>
      <use xlink:href="#EBGaramond-Regular-74" x="404.299881"/>
      <use xlink:href="#EBGaramond-Regular-68" x="435.699875"/>
      <use xlink:href="#EBGaramond-Regular-73" x="487.19986"/>
      <use xlink:href="#EBGaramond-Regular-29" x="519.499847"/>
     </g>
    </g>
   </g>
   <g id="matplotlib.axis_2">
    <g id="ytick_1">
     <g id="line2d_6">
      <defs>
       <path id="m12ab5798b3" d="M 0 0 
L -3.5 0 
" style="stroke: #5f776c; stroke-width: 0.8"/>
      </defs>
      <g>
       <use xlink:href="#m12ab5798b3" x="56.77" y="212.691063" style="fill: #5f776c; stroke: #5f776c; stroke-width: 0.8"/>
      </g>
     </g>
     <g id="text_7">
      <!-- 0.00 -->
      <g style="fill: #5f776c" transform="translate(25.555 217.802312) scale(0.145 -0.145)">
       <defs>
        <path id="EBGaramond-Regular-2e" d="M 736 -90 
Q 595 -90 489 16 
Q 384 122 384 262 
Q 384 410 489 512 
Q 595 614 736 614 
Q 883 614 985 512 
Q 1088 410 1088 262 
Q 1088 122 985 16 
Q 883 -90 736 -90 
z
" transform="scale(0.015625)"/>
       </defs>
       <use xlink:href="#EBGaramond-Regular-30"/>
       <use xlink:href="#EBGaramond-Regular-2e" x="47.999985"/>
       <use xlink:href="#EBGaramond-Regular-30" x="70.999969"/>
       <use xlink:href="#EBGaramond-Regular-30" x="118.999954"/>
      </g>
     </g>
    </g>
    <g id="ytick_2">
     <g id="line2d_7">
      <g>
       <use xlink:href="#m12ab5798b3" x="56.77" y="164.67641" style="fill: #5f776c; stroke: #5f776c; stroke-width: 0.8"/>
      </g>
     </g>
     <g id="text_8">
      <!-- 0.05 -->
      <g style="fill: #5f776c" transform="translate(25.555 169.78766) scale(0.145 -0.145)">
       <use xlink:href="#EBGaramond-Regular-30"/>
       <use xlink:href="#EBGaramond-Regular-2e" x="47.999985"/>
       <use xlink:href="#EBGaramond-Regular-30" x="70.999969"/>
       <use xlink:href="#EBGaramond-Regular-35" x="118.999954"/>
      </g>
     </g>
    </g>
    <g id="ytick_3">
     <g id="line2d_8">
      <g>
       <use xlink:href="#m12ab5798b3" x="56.77" y="116.661757" style="fill: #5f776c; stroke: #5f776c; stroke-width: 0.8"/>
      </g>
     </g>
     <g id="text_9">
      <!-- 0.10 -->
      <g style="fill: #5f776c" transform="translate(25.555 121.773007) scale(0.145 -0.145)">
       <use xlink:href="#EBGaramond-Regular-30"/>
       <use xlink:href="#EBGaramond-Regular-2e" x="47.999985"/>
       <use xlink:href="#EBGaramond-Regular-31" x="70.999969"/>
       <use xlink:href="#EBGaramond-Regular-30" x="118.999954"/>
      </g>
     </g>
    </g>
    <g id="ytick_4">
     <g id="line2d_9">
      <g>
       <use xlink:href="#m12ab5798b3" x="56.77" y="68.647104" style="fill: #5f776c; stroke: #5f776c; stroke-width: 0.8"/>
      </g>
     </g>
     <g id="text_10">
      <!-- 0.15 -->
      <g style="fill: #5f776c" transform="translate(25.555 73.758354) scale(0.145 -0.145)">
       <use xlink:href="#EBGaramond-Regular-30"/>
       <use xlink:href="#EBGaramond-Regular-2e" x="47.999985"/>
       <use xlink:href="#EBGaramond-Regular-31" x="70.999969"/>
       <use xlink:href="#EBGaramond-Regular-35" x="118.999954"/>
      </g>
     </g>
    </g>
    <g id="text_11">
     <!-- hazard $h(t)$ -->
     <g style="fill: #33463f" transform="translate(17.4225 159.179688) rotate(-90) scale(0.145 -0.145)">
      <defs>
       <path id="EBGaramond-Regular-61" d="M 749 -90 
Q 634 -90 515 0 
Q 397 90 317 218 
Q 237 346 237 461 
Q 237 666 345 781 
Q 454 896 691 992 
L 1344 1261 
Q 1472 1312 1494 1350 
Q 1517 1389 1523 1517 
L 1536 1926 
Q 1542 2093 1443 2214 
Q 1344 2336 1158 2336 
Q 1062 2336 966 2304 
Q 870 2272 806 2221 
Q 768 2195 755 2144 
Q 742 2093 742 2035 
Q 742 2010 745 1978 
Q 749 1946 749 1920 
Q 749 1888 669 1833 
Q 589 1779 489 1737 
Q 390 1696 326 1696 
Q 294 1696 275 1712 
Q 256 1728 256 1754 
Q 256 1856 323 1974 
Q 390 2093 512 2195 
Q 659 2330 832 2432 
Q 1005 2534 1171 2592 
Q 1338 2650 1466 2650 
Q 1696 2650 1846 2486 
Q 1997 2323 1990 2080 
L 1958 544 
Q 1952 410 2019 326 
Q 2086 243 2189 243 
Q 2349 243 2426 314 
Q 2458 346 2477 346 
Q 2509 346 2528 326 
Q 2547 307 2547 275 
Q 2547 205 2477 134 
Q 2374 32 2256 -29 
Q 2138 -90 2035 -90 
Q 1741 -90 1568 243 
L 1549 243 
Q 1338 70 1146 -10 
Q 954 -90 749 -90 
z
M 1050 218 
Q 1178 218 1267 259 
Q 1357 301 1427 371 
Q 1459 403 1481 457 
Q 1504 512 1510 634 
L 1523 947 
Q 1530 1018 1517 1050 
Q 1504 1082 1466 1082 
Q 1453 1082 1421 1075 
Q 1389 1069 1338 1050 
Q 998 928 867 797 
Q 736 666 736 557 
Q 736 390 835 304 
Q 934 218 1050 218 
z
" transform="scale(0.015625)"/>
       <path id="EBGaramond-Regular-7a" d="M 250 -32 
Q 224 -32 192 9 
Q 160 51 160 77 
Q 160 96 201 160 
Q 243 224 297 307 
Q 352 390 397 448 
Q 557 678 704 892 
Q 851 1107 995 1321 
Q 1139 1536 1292 1776 
Q 1446 2016 1619 2291 
Q 1632 2310 1632 2332 
Q 1632 2355 1562 2355 
L 928 2374 
Q 838 2381 761 2336 
Q 685 2291 646 2253 
Q 608 2214 573 2169 
Q 538 2125 502 2073 
Q 467 2022 432 1974 
Q 397 1926 365 1882 
Q 326 1843 265 1868 
Q 205 1894 224 1946 
Q 243 2003 272 2115 
Q 301 2227 323 2348 
Q 346 2470 346 2547 
Q 346 2598 384 2630 
Q 422 2662 442 2662 
Q 467 2662 538 2605 
Q 570 2579 650 2572 
Q 730 2566 813 2566 
Q 883 2566 947 2569 
Q 1011 2573 1056 2573 
Q 1389 2573 1670 2579 
Q 1952 2586 2246 2592 
Q 2266 2592 2278 2579 
Q 2291 2566 2297 2547 
Q 2304 2528 2291 2515 
Q 2227 2432 2169 2361 
Q 2112 2291 2048 2195 
L 800 307 
Q 774 262 793 236 
Q 813 211 858 211 
L 1613 211 
Q 1683 211 1756 249 
Q 1830 288 1901 358 
Q 1978 435 2067 560 
Q 2157 685 2253 826 
Q 2285 870 2339 851 
Q 2394 832 2394 781 
Q 2394 762 2368 662 
Q 2342 563 2307 438 
Q 2272 314 2243 205 
Q 2214 96 2202 58 
Q 2182 -32 2099 -32 
Q 1958 -32 1622 -16 
Q 1286 0 762 0 
Q 627 0 480 -16 
Q 333 -32 250 -32 
z
" transform="scale(0.015625)"/>
       <path id="EBGaramond-Regular-72" d="M 314 -19 
Q 250 -19 218 -3 
Q 186 13 186 51 
Q 186 102 224 118 
Q 262 134 333 154 
Q 454 186 515 246 
Q 576 307 576 397 
L 576 1773 
Q 576 1946 525 2074 
Q 474 2202 314 2234 
Q 288 2240 269 2265 
Q 250 2291 250 2317 
Q 250 2381 307 2394 
Q 474 2445 656 2544 
Q 838 2643 941 2707 
Q 979 2733 1001 2742 
Q 1024 2752 1037 2752 
Q 1069 2752 1069 2707 
Q 1069 2688 1065 2611 
Q 1062 2534 1059 2432 
Q 1056 2330 1050 2227 
Q 1050 2214 1062 2214 
Q 1165 2342 1289 2438 
Q 1414 2534 1545 2592 
Q 1677 2650 1798 2650 
Q 1933 2650 2019 2592 
Q 2106 2534 2106 2445 
Q 2106 2381 2070 2304 
Q 2035 2227 1977 2169 
Q 1920 2112 1856 2112 
Q 1818 2112 1773 2128 
Q 1728 2144 1677 2170 
Q 1626 2189 1574 2208 
Q 1523 2227 1472 2227 
Q 1318 2227 1174 2118 
Q 1030 2010 1030 1690 
L 1030 397 
Q 1030 314 1120 259 
Q 1210 205 1370 154 
Q 1440 134 1478 115 
Q 1517 96 1517 51 
Q 1517 -19 1389 -19 
Q 1197 -19 1097 -3 
Q 998 13 832 13 
Q 723 13 656 6 
Q 589 0 515 -9 
Q 442 -19 314 -19 
z
" transform="scale(0.015625)"/>
       <path id="EBGaramond-Regular-64" d="M 2285 -122 
Q 2272 -122 2243 -96 
Q 2214 -70 2214 -58 
Q 2214 6 2230 124 
Q 2246 243 2246 326 
L 2246 365 
Q 2150 218 1939 64 
Q 1728 -90 1408 -90 
Q 1043 -90 777 102 
Q 512 294 368 595 
Q 224 896 224 1216 
Q 224 1587 397 1913 
Q 570 2240 893 2445 
Q 1216 2650 1664 2650 
Q 1792 2650 1923 2627 
Q 2054 2605 2125 2579 
Q 2182 2560 2208 2560 
Q 2253 2560 2253 2714 
L 2253 3622 
Q 2253 3885 2169 3974 
Q 2086 4064 1933 4090 
Q 1875 4102 1875 4173 
Q 1875 4230 1926 4250 
Q 2208 4320 2368 4384 
Q 2528 4448 2618 4486 
Q 2643 4499 2665 4502 
Q 2688 4506 2701 4506 
Q 2739 4506 2746 4467 
Q 2746 4429 2736 4336 
Q 2726 4243 2713 4064 
Q 2701 3885 2701 3597 
L 2701 704 
Q 2701 486 2733 387 
Q 2765 288 2835 288 
Q 2867 288 2947 294 
Q 3027 301 3110 307 
Q 3226 314 3226 250 
Q 3226 205 3197 169 
Q 3168 134 3136 134 
Q 2957 109 2784 61 
Q 2611 13 2387 -83 
Q 2336 -109 2320 -115 
Q 2304 -122 2285 -122 
z
M 1638 243 
Q 1805 243 1965 329 
Q 2125 416 2246 557 
L 2253 1709 
Q 2253 1882 2153 2048 
Q 2054 2214 1878 2320 
Q 1702 2426 1466 2426 
Q 1318 2426 1132 2336 
Q 947 2246 812 2019 
Q 678 1792 678 1363 
Q 678 998 787 777 
Q 896 557 1053 441 
Q 1210 326 1373 284 
Q 1536 243 1638 243 
z
" transform="scale(0.015625)"/>
       <path id="DejaVuSans-Oblique-68" d="M 3566 2113 
L 3156 0 
L 2578 0 
L 2988 2091 
Q 3016 2238 3031 2350 
Q 3047 2463 3047 2528 
Q 3047 2791 2881 2937 
Q 2716 3084 2419 3084 
Q 1956 3084 1617 2771 
Q 1278 2459 1178 1941 
L 800 0 
L 225 0 
L 1172 4863 
L 1747 4863 
L 1375 2950 
Q 1594 3244 1934 3414 
Q 2275 3584 2650 3584 
Q 3113 3584 3367 3334 
Q 3622 3084 3622 2631 
Q 3622 2519 3608 2391 
Q 3594 2263 3566 2113 
z
" transform="scale(0.015625)"/>
       <path id="DejaVuSans-28" d="M 1984 4856 
Q 1566 4138 1362 3434 
Q 1159 2731 1159 2009 
Q 1159 1288 1364 580 
Q 1569 -128 1984 -844 
L 1484 -844 
Q 1016 -109 783 600 
Q 550 1309 550 2009 
Q 550 2706 781 3412 
Q 1013 4119 1484 4856 
L 1984 4856 
z
" transform="scale(0.015625)"/>
       <path id="DejaVuSans-Oblique-74" d="M 2706 3500 
L 2619 3053 
L 1472 3053 
L 1100 1153 
Q 1081 1047 1072 975 
Q 1063 903 1063 863 
Q 1063 663 1183 572 
Q 1303 481 1569 481 
L 2150 481 
L 2053 0 
L 1503 0 
Q 991 0 739 200 
Q 488 400 488 806 
Q 488 878 497 964 
Q 506 1050 525 1153 
L 897 3053 
L 409 3053 
L 500 3500 
L 978 3500 
L 1172 4494 
L 1747 4494 
L 1556 3500 
L 2706 3500 
z
" transform="scale(0.015625)"/>
       <path id="DejaVuSans-29" d="M 513 4856 
L 1013 4856 
Q 1481 4119 1714 3412 
Q 1947 2706 1947 2009 
Q 1947 1309 1714 600 
Q 1481 -109 1013 -844 
L 513 -844 
Q 928 -128 1133 580 
Q 1338 1288 1338 2009 
Q 1338 2731 1133 3434 
Q 928 4138 513 4856 
z
" transform="scale(0.015625)"/>
      </defs>
      <use xlink:href="#EBGaramond-Regular-68" transform="translate(0 0.015625)"/>
      <use xlink:href="#EBGaramond-Regular-61" transform="translate(51.499985 0.015625)"/>
      <use xlink:href="#EBGaramond-Regular-7a" transform="translate(91.399979 0.015625)"/>
      <use xlink:href="#EBGaramond-Regular-61" transform="translate(129.099976 0.015625)"/>
      <use xlink:href="#EBGaramond-Regular-72" transform="translate(168.999969 0.015625)"/>
      <use xlink:href="#EBGaramond-Regular-64" transform="translate(202.399963 0.015625)"/>
      <use xlink:href="#EBGaramond-Regular-20" transform="translate(252.999954 0.015625)"/>
      <use xlink:href="#DejaVuSans-Oblique-68" transform="translate(272.999939 0.015625)"/>
      <use xlink:href="#DejaVuSans-28" transform="translate(336.378845 0.015625)"/>
      <use xlink:href="#DejaVuSans-Oblique-74" transform="translate(375.392517 0.015625)"/>
      <use xlink:href="#DejaVuSans-29" transform="translate(414.601501 0.015625)"/>
     </g>
    </g>
   </g>
   <g id="line2d_10">
    <path d="M 59.349208 193.139496 
L 366.275 152.000541 
L 366.275 152.000541 
" clip-path="url(#pa5091e6d6b)" style="fill: none; stroke: #2f8a5f; stroke-width: 2.2; stroke-linecap: square"/>
   </g>
   <g id="line2d_11">
    <path d="M 59.349208 165.767303 
L 366.275 67.033812 
L 366.275 67.033812 
" clip-path="url(#pa5091e6d6b)" style="fill: none; stroke: #b23a24; stroke-width: 2.2; stroke-linecap: square"/>
   </g>
   <g id="patch_3">
    <path d="M 56.77 212.691063 
L 56.77 39.838313 
" style="fill: none; stroke: #5f776c; stroke-width: 0.8; stroke-linejoin: miter; stroke-linecap: square"/>
   </g>
   <g id="patch_4">
    <path d="M 56.77 212.691063 
L 366.275 212.691063 
" style="fill: none; stroke: #5f776c; stroke-width: 0.8; stroke-linejoin: miter; stroke-linecap: square"/>
   </g>
   <g id="text_12">
    <!-- Proportional hazards — holds -->
    <g style="fill: #0e1f1b" transform="translate(128.638008 17.438813) scale(0.145 -0.145)">
     <defs>
      <path id="EBGaramond-Regular-50" d="M 339 -32 
Q 256 -32 205 -16 
Q 154 0 154 38 
Q 154 115 365 154 
Q 608 198 720 300 
Q 832 403 832 640 
L 832 3341 
Q 832 3629 758 3782 
Q 685 3936 442 3981 
Q 333 4000 281 4032 
Q 230 4064 230 4109 
Q 230 4147 281 4163 
Q 333 4179 416 4179 
Q 589 4179 675 4179 
Q 762 4179 838 4176 
Q 915 4173 1043 4173 
Q 1171 4173 1302 4182 
Q 1434 4192 1549 4201 
Q 1664 4211 1754 4211 
Q 2483 4211 2928 3910 
Q 3373 3610 3373 3072 
Q 3373 2682 3219 2352 
Q 3066 2022 2749 1824 
Q 2432 1626 1939 1626 
Q 1798 1626 1724 1667 
Q 1651 1709 1651 1747 
Q 1651 1773 1686 1805 
Q 1722 1837 1754 1837 
Q 1786 1837 1853 1830 
Q 1920 1824 2048 1824 
Q 2432 1824 2627 2144 
Q 2822 2464 2822 3027 
Q 2822 3539 2521 3785 
Q 2221 4032 1754 4032 
Q 1574 4032 1459 3971 
Q 1344 3910 1344 3763 
L 1344 710 
Q 1344 480 1440 339 
Q 1536 198 1773 154 
Q 1882 134 1933 108 
Q 1984 83 1984 38 
Q 1984 0 1933 -16 
Q 1882 -32 1798 -32 
Q 1626 -32 1533 -19 
Q 1440 -6 1366 3 
Q 1293 13 1171 13 
Q 1011 13 886 3 
Q 762 -6 637 -19 
Q 512 -32 339 -32 
z
" transform="scale(0.015625)"/>
      <path id="EBGaramond-Regular-70" d="M 256 -1824 
Q 224 -1824 173 -1814 
Q 122 -1805 122 -1766 
Q 122 -1715 170 -1692 
Q 218 -1670 269 -1651 
Q 365 -1619 454 -1577 
Q 544 -1536 544 -1408 
L 544 1837 
Q 544 1888 515 1990 
Q 486 2093 422 2189 
Q 358 2285 250 2304 
Q 224 2310 211 2336 
Q 198 2362 198 2387 
Q 198 2419 211 2438 
Q 224 2458 243 2464 
Q 486 2522 659 2589 
Q 832 2656 986 2720 
Q 992 2720 992 2723 
Q 992 2726 998 2726 
Q 1011 2726 1024 2707 
Q 1037 2688 1037 2669 
Q 1037 2611 1021 2486 
Q 1005 2362 1005 2285 
Q 1005 2234 1011 2227 
Q 1075 2291 1244 2390 
Q 1414 2490 1632 2570 
Q 1850 2650 2048 2650 
Q 2381 2650 2614 2474 
Q 2848 2298 2973 2019 
Q 3098 1741 3098 1440 
Q 3098 1152 2989 880 
Q 2880 608 2681 390 
Q 2483 173 2220 41 
Q 1958 -90 1658 -90 
Q 1568 -90 1443 -61 
Q 1318 -32 1200 13 
Q 1082 58 1018 115 
Q 1011 115 1004 41 
Q 998 -32 995 -112 
Q 992 -192 992 -211 
L 992 -1408 
Q 992 -1491 1059 -1539 
Q 1126 -1587 1212 -1609 
Q 1299 -1632 1363 -1651 
Q 1414 -1670 1462 -1692 
Q 1510 -1715 1510 -1766 
Q 1510 -1805 1459 -1814 
Q 1408 -1824 1370 -1824 
Q 1184 -1824 1059 -1808 
Q 934 -1792 768 -1792 
Q 659 -1792 592 -1798 
Q 525 -1805 454 -1814 
Q 384 -1824 256 -1824 
z
M 1754 109 
Q 1850 109 1987 166 
Q 2125 224 2262 352 
Q 2400 480 2493 697 
Q 2586 915 2586 1235 
Q 2586 1606 2490 1830 
Q 2394 2054 2253 2169 
Q 2112 2285 1965 2323 
Q 1818 2362 1715 2362 
Q 1562 2362 1398 2298 
Q 1235 2234 1123 2154 
Q 1011 2074 1011 2029 
Q 1011 1888 1008 1744 
Q 1005 1600 1001 1465 
Q 998 1331 995 1225 
Q 992 1120 992 1062 
Q 992 806 1110 588 
Q 1229 371 1405 240 
Q 1581 109 1754 109 
z
" transform="scale(0.015625)"/>
      <path id="EBGaramond-Regular-6c" d="M 250 -19 
Q 218 -19 170 -9 
Q 122 0 122 38 
Q 122 90 170 112 
Q 218 134 269 154 
Q 365 186 454 227 
Q 544 269 544 397 
L 544 3622 
Q 544 3808 477 3933 
Q 410 4058 250 4090 
Q 198 4102 198 4173 
Q 198 4237 243 4250 
Q 410 4288 531 4329 
Q 653 4371 758 4416 
Q 864 4461 966 4499 
Q 992 4512 1005 4512 
Q 1018 4512 1027 4496 
Q 1037 4480 1037 4467 
Q 1037 4410 1014 4221 
Q 992 4032 992 3597 
L 992 397 
Q 992 269 1081 227 
Q 1171 186 1267 154 
Q 1318 134 1366 112 
Q 1414 90 1414 38 
Q 1414 0 1366 -9 
Q 1318 -19 1286 -19 
Q 1165 -19 1091 -9 
Q 1018 0 950 6 
Q 883 13 768 13 
Q 659 13 588 6 
Q 518 0 448 -9 
Q 378 -19 250 -19 
z
" transform="scale(0.015625)"/>
      <path id="EBGaramond-Regular-2014" d="M 410 1184 
Q 378 1184 349 1209 
Q 320 1235 320 1261 
Q 320 1293 333 1357 
Q 346 1421 381 1475 
Q 416 1530 474 1530 
L 5677 1530 
Q 5709 1530 5734 1507 
Q 5760 1485 5760 1453 
Q 5760 1357 5699 1270 
Q 5638 1184 5562 1184 
L 410 1184 
z
" transform="scale(0.015625)"/>
     </defs>
     <use xlink:href="#EBGaramond-Regular-50"/>
     <use xlink:href="#EBGaramond-Regular-72" x="55.199997"/>
     <use xlink:href="#EBGaramond-Regular-6f" x="88.599991"/>
     <use xlink:href="#EBGaramond-Regular-70" x="138.099976"/>
     <use xlink:href="#EBGaramond-Regular-6f" x="189.999969"/>
     <use xlink:href="#EBGaramond-Regular-72" x="239.499954"/>
     <use xlink:href="#EBGaramond-Regular-74" x="272.899948"/>
     <use xlink:href="#EBGaramond-Regular-69" x="304.299942"/>
     <use xlink:href="#EBGaramond-Regular-6f" x="328.799927"/>
     <use xlink:href="#EBGaramond-Regular-6e" x="378.299911"/>
     <use xlink:href="#EBGaramond-Regular-61" x="431.099899"/>
     <use xlink:href="#EBGaramond-Regular-6c" x="470.999893"/>
     <use xlink:href="#EBGaramond-Regular-20" x="494.999878"/>
     <use xlink:href="#EBGaramond-Regular-68" x="514.999863"/>
     <use xlink:href="#EBGaramond-Regular-61" x="566.499847"/>
     <use xlink:href="#EBGaramond-Regular-7a" x="606.399841"/>
     <use xlink:href="#EBGaramond-Regular-61" x="644.099838"/>
     <use xlink:href="#EBGaramond-Regular-72" x="683.999832"/>
     <use xlink:href="#EBGaramond-Regular-64" x="717.399826"/>
     <use xlink:href="#EBGaramond-Regular-73" x="767.999817"/>
     <use xlink:href="#EBGaramond-Regular-20" x="800.299805"/>
     <use xlink:href="#EBGaramond-Regular-2014" x="820.299789"/>
     <use xlink:href="#EBGaramond-Regular-20" x="915.299774"/>
     <use xlink:href="#EBGaramond-Regular-68" x="935.299759"/>
     <use xlink:href="#EBGaramond-Regular-6f" x="986.799744"/>
     <use xlink:href="#EBGaramond-Regular-6c" x="1036.299728"/>
     <use xlink:href="#EBGaramond-Regular-64" x="1060.299713"/>
     <use xlink:href="#EBGaramond-Regular-73" x="1110.899704"/>
    </g>
    <!-- constant ratio, curves never cross -->
    <g style="fill: #0e1f1b" transform="translate(120.851055 33.838313) scale(0.145 -0.145)">
     <defs>
      <path id="EBGaramond-Regular-63" d="M 1363 -96 
Q 1043 -96 784 67 
Q 525 230 374 515 
Q 224 800 224 1152 
Q 224 1568 406 1907 
Q 589 2246 896 2448 
Q 1203 2650 1574 2650 
Q 1990 2650 2304 2426 
Q 2381 2368 2381 2304 
Q 2381 2253 2336 2189 
Q 2291 2125 2227 2083 
Q 2163 2042 2106 2042 
Q 2074 2042 2042 2064 
Q 2010 2086 1971 2112 
Q 1830 2221 1657 2317 
Q 1485 2413 1370 2413 
Q 1056 2413 861 2121 
Q 666 1830 666 1357 
Q 666 1056 797 813 
Q 928 570 1149 429 
Q 1370 288 1638 288 
Q 1824 288 1958 349 
Q 2093 410 2246 563 
Q 2259 576 2278 585 
Q 2298 595 2310 595 
Q 2381 595 2381 506 
Q 2381 467 2358 419 
Q 2336 371 2285 307 
Q 2182 179 2041 86 
Q 1901 -6 1731 -51 
Q 1562 -96 1363 -96 
z
" transform="scale(0.015625)"/>
      <path id="EBGaramond-Regular-2c" d="M 243 -941 
Q 128 -941 128 -870 
Q 128 -845 150 -822 
Q 173 -800 218 -794 
Q 358 -762 499 -685 
Q 640 -608 736 -464 
Q 832 -320 832 -96 
Q 832 -19 761 80 
Q 691 179 582 186 
Q 442 198 362 275 
Q 282 352 282 454 
Q 282 582 387 665 
Q 493 749 634 749 
Q 864 749 1014 573 
Q 1165 397 1165 128 
Q 1165 -115 1069 -310 
Q 973 -506 825 -646 
Q 678 -787 521 -864 
Q 365 -941 243 -941 
z
" transform="scale(0.015625)"/>
      <path id="EBGaramond-Regular-75" d="M 2342 -122 
Q 2298 -122 2298 -70 
Q 2298 -6 2314 118 
Q 2330 243 2330 326 
Q 2330 339 2330 348 
Q 2330 358 2330 365 
Q 2080 122 1827 16 
Q 1574 -90 1274 -90 
Q 1069 -90 902 -3 
Q 736 83 640 252 
Q 544 422 544 672 
L 544 1971 
Q 544 2112 480 2195 
Q 416 2278 269 2336 
Q 237 2349 211 2368 
Q 186 2387 186 2438 
Q 186 2496 214 2515 
Q 243 2534 282 2541 
Q 499 2554 617 2576 
Q 736 2598 915 2643 
Q 934 2650 944 2650 
Q 954 2650 966 2650 
Q 1037 2650 1030 2560 
Q 1011 2413 1001 2313 
Q 992 2214 992 2067 
L 992 819 
Q 992 666 1069 534 
Q 1146 403 1270 320 
Q 1395 237 1530 237 
Q 1696 237 1821 256 
Q 1946 275 2067 365 
Q 2138 416 2246 531 
Q 2355 646 2355 845 
L 2355 2016 
Q 2355 2150 2275 2217 
Q 2195 2285 2092 2310 
Q 1990 2336 1926 2336 
Q 1869 2336 1830 2358 
Q 1792 2381 1792 2445 
Q 1792 2502 1833 2521 
Q 1875 2541 1926 2541 
Q 2125 2547 2256 2556 
Q 2387 2566 2492 2588 
Q 2598 2611 2714 2643 
Q 2726 2650 2745 2653 
Q 2765 2656 2778 2656 
Q 2861 2656 2861 2586 
Q 2861 2579 2857 2563 
Q 2854 2547 2848 2528 
Q 2842 2509 2832 2419 
Q 2822 2330 2812 2234 
Q 2803 2138 2803 2086 
L 2803 608 
Q 2803 435 2838 361 
Q 2874 288 2918 288 
Q 2970 288 3069 297 
Q 3168 307 3213 307 
Q 3245 307 3277 294 
Q 3309 282 3309 224 
Q 3309 173 3283 157 
Q 3258 141 3219 134 
Q 2970 102 2790 38 
Q 2611 -26 2470 -83 
Q 2451 -90 2412 -106 
Q 2374 -122 2342 -122 
z
" transform="scale(0.015625)"/>
      <path id="EBGaramond-Regular-76" d="M 1370 -134 
Q 1344 -134 1305 -35 
Q 1267 64 1254 109 
Q 1210 218 1171 336 
Q 1133 454 1094 557 
Q 954 954 790 1334 
Q 627 1715 474 2106 
Q 429 2221 336 2313 
Q 243 2406 147 2432 
Q 96 2451 64 2470 
Q 32 2490 32 2534 
Q 32 2573 80 2582 
Q 128 2592 160 2592 
Q 288 2592 345 2585 
Q 403 2579 460 2569 
Q 518 2560 627 2560 
Q 742 2560 800 2569 
Q 858 2579 922 2585 
Q 986 2592 1107 2592 
Q 1139 2592 1187 2582 
Q 1235 2573 1235 2534 
Q 1235 2490 1190 2464 
Q 1146 2438 1088 2419 
Q 1024 2394 992 2320 
Q 960 2246 960 2157 
Q 960 2112 966 2067 
Q 973 2022 986 1984 
L 1491 640 
Q 1498 634 1501 634 
Q 1504 634 1510 640 
L 1997 1888 
Q 2022 1952 2035 2025 
Q 2048 2099 2048 2150 
Q 2048 2278 2009 2332 
Q 1971 2387 1882 2419 
Q 1798 2451 1766 2470 
Q 1734 2490 1734 2534 
Q 1734 2573 1776 2582 
Q 1818 2592 1862 2592 
Q 1933 2592 2048 2576 
Q 2163 2560 2330 2560 
Q 2496 2560 2557 2576 
Q 2618 2592 2707 2592 
Q 2758 2592 2796 2582 
Q 2835 2573 2835 2534 
Q 2835 2464 2688 2419 
Q 2592 2394 2477 2272 
Q 2362 2150 2291 1990 
L 1792 787 
Q 1779 762 1740 662 
Q 1702 563 1657 444 
Q 1613 326 1581 240 
Q 1549 154 1549 154 
Q 1549 154 1523 93 
Q 1498 32 1466 -35 
Q 1434 -102 1408 -134 
L 1370 -134 
z
" transform="scale(0.015625)"/>
     </defs>
     <use xlink:href="#EBGaramond-Regular-63"/>
     <use xlink:href="#EBGaramond-Regular-6f" x="40.699997"/>
     <use xlink:href="#EBGaramond-Regular-6e" x="90.199982"/>
     <use xlink:href="#EBGaramond-Regular-73" x="142.999969"/>
     <use xlink:href="#EBGaramond-Regular-74" x="175.299957"/>
     <use xlink:href="#EBGaramond-Regular-61" x="206.699951"/>
     <use xlink:href="#EBGaramond-Regular-6e" x="246.599945"/>
     <use xlink:href="#EBGaramond-Regular-74" x="299.399933"/>
     <use xlink:href="#EBGaramond-Regular-20" x="330.799927"/>
     <use xlink:href="#EBGaramond-Regular-72" x="350.799911"/>
     <use xlink:href="#EBGaramond-Regular-61" x="384.199905"/>
     <use xlink:href="#EBGaramond-Regular-74" x="424.099899"/>
     <use xlink:href="#EBGaramond-Regular-69" x="455.499893"/>
     <use xlink:href="#EBGaramond-Regular-6f" x="479.999878"/>
     <use xlink:href="#EBGaramond-Regular-2c" x="529.499863"/>
     <use xlink:href="#EBGaramond-Regular-20" x="552.499847"/>
     <use xlink:href="#EBGaramond-Regular-63" x="572.499832"/>
     <use xlink:href="#EBGaramond-Regular-75" x="613.199829"/>
     <use xlink:href="#EBGaramond-Regular-72" x="665.899826"/>
     <use xlink:href="#EBGaramond-Regular-76" x="699.29982"/>
     <use xlink:href="#EBGaramond-Regular-65" x="743.099808"/>
     <use xlink:href="#EBGaramond-Regular-73" x="782.099792"/>
     <use xlink:href="#EBGaramond-Regular-20" x="814.39978"/>
     <use xlink:href="#EBGaramond-Regular-6e" x="834.399765"/>
     <use xlink:href="#EBGaramond-Regular-65" x="887.199753"/>
     <use xlink:href="#EBGaramond-Regular-76" x="926.199738"/>
     <use xlink:href="#EBGaramond-Regular-65" x="969.999725"/>
     <use xlink:href="#EBGaramond-Regular-72" x="1008.99971"/>
     <use xlink:href="#EBGaramond-Regular-20" x="1042.399704"/>
     <use xlink:href="#EBGaramond-Regular-63" x="1062.399689"/>
     <use xlink:href="#EBGaramond-Regular-72" x="1103.099686"/>
     <use xlink:href="#EBGaramond-Regular-6f" x="1136.49968"/>
     <use xlink:href="#EBGaramond-Regular-73" x="1185.999664"/>
     <use xlink:href="#EBGaramond-Regular-73" x="1218.299652"/>
    </g>
   </g>
   <g id="legend_1">
    <g id="line2d_12">
     <path d="M 66.67 53.643313 
L 77.67 53.643313 
L 88.67 53.643313 
" style="fill: none; stroke: #2f8a5f; stroke-width: 2.2; stroke-linecap: square"/>
    </g>
    <g id="text_13">
     <!-- patient A (baseline) -->
     <g style="fill: #33463f" transform="translate(97.47 57.493313) scale(0.11 -0.11)">
      <defs>
       <path id="EBGaramond-Regular-41" d="M 173 -32 
Q 90 -32 38 -9 
Q -13 13 -13 51 
Q -13 96 41 131 
Q 96 166 198 198 
Q 365 250 505 352 
Q 646 454 749 691 
Q 928 1101 1078 1459 
Q 1229 1818 1363 2163 
Q 1498 2509 1642 2883 
Q 1786 3258 1946 3699 
Q 1978 3789 2003 3878 
Q 2029 3968 2035 4070 
Q 2093 4090 2150 4109 
Q 2208 4128 2266 4166 
Q 2323 4205 2345 4281 
Q 2368 4358 2387 4384 
Q 2394 4390 2403 4390 
Q 2413 4390 2419 4378 
Q 2432 4352 2441 4313 
Q 2451 4275 2464 4237 
Q 2618 3750 2784 3244 
Q 2950 2739 3107 2268 
Q 3264 1798 3395 1424 
Q 3526 1050 3603 819 
Q 3693 563 3795 435 
Q 3898 307 4010 256 
Q 4122 205 4250 179 
Q 4358 160 4409 118 
Q 4461 77 4461 32 
Q 4461 -6 4409 -19 
Q 4358 -32 4275 -32 
Q 4186 -32 4032 -22 
Q 3878 -13 3705 -3 
Q 3533 6 3386 6 
Q 3264 6 3136 6 
Q 3008 6 2899 3 
Q 2790 0 2714 0 
Q 2630 0 2579 19 
Q 2528 38 2528 77 
Q 2528 122 2592 154 
Q 2656 186 2739 198 
Q 2950 230 3040 307 
Q 3130 384 3130 486 
Q 3130 582 3088 764 
Q 3046 947 2988 1155 
Q 2931 1363 2880 1523 
Q 2867 1574 2832 1584 
Q 2797 1594 2707 1594 
L 1498 1594 
Q 1472 1594 1443 1571 
Q 1414 1549 1389 1478 
Q 1370 1414 1325 1276 
Q 1280 1139 1235 985 
Q 1190 832 1158 710 
Q 1126 589 1126 557 
Q 1126 416 1235 323 
Q 1344 230 1498 192 
Q 1709 134 1709 64 
Q 1709 26 1657 10 
Q 1606 -6 1523 -6 
Q 1440 -6 1280 0 
Q 1120 6 941 6 
Q 730 6 531 -13 
Q 333 -32 173 -32 
z
M 1670 1805 
L 2662 1805 
Q 2752 1805 2752 1837 
Q 2752 1850 2749 1866 
Q 2746 1882 2739 1901 
L 2240 3462 
Q 2202 3578 2182 3578 
Q 2170 3578 2131 3469 
L 1549 1901 
Q 1536 1862 1536 1850 
Q 1536 1818 1571 1811 
Q 1606 1805 1670 1805 
z
" transform="scale(0.015625)"/>
       <path id="EBGaramond-Regular-62" d="M 1658 -90 
Q 1517 -90 1376 -64 
Q 1235 -38 1107 -6 
Q 966 32 860 64 
Q 755 96 723 96 
Q 685 96 649 70 
Q 614 45 582 13 
Q 550 -19 525 -19 
Q 499 -19 467 3 
Q 435 26 435 58 
Q 435 115 457 256 
Q 480 397 480 518 
L 480 3622 
Q 480 3789 397 3910 
Q 314 4032 186 4090 
Q 160 4102 131 4124 
Q 102 4147 102 4186 
Q 102 4218 128 4230 
Q 154 4243 179 4250 
Q 262 4269 406 4320 
Q 550 4371 678 4422 
Q 806 4474 851 4493 
Q 890 4512 909 4512 
Q 922 4512 934 4499 
Q 947 4486 947 4467 
Q 947 4442 937 4253 
Q 928 4064 928 3795 
L 928 2483 
Q 928 2362 941 2320 
Q 954 2278 986 2272 
Q 1184 2438 1446 2544 
Q 1709 2650 1920 2650 
Q 2246 2650 2505 2483 
Q 2765 2317 2918 2032 
Q 3072 1747 3072 1389 
Q 3072 954 2893 618 
Q 2714 282 2397 96 
Q 2080 -90 1658 -90 
z
M 1805 109 
Q 2048 109 2224 259 
Q 2400 410 2496 669 
Q 2592 928 2592 1248 
Q 2592 1498 2499 1760 
Q 2406 2022 2211 2201 
Q 2016 2381 1709 2381 
Q 1453 2381 1261 2297 
Q 1069 2214 928 2086 
L 928 845 
Q 928 621 1053 454 
Q 1178 288 1379 198 
Q 1581 109 1805 109 
z
" transform="scale(0.015625)"/>
      </defs>
      <use xlink:href="#EBGaramond-Regular-70"/>
      <use xlink:href="#EBGaramond-Regular-61" x="51.899994"/>
      <use xlink:href="#EBGaramond-Regular-74" x="91.799988"/>
      <use xlink:href="#EBGaramond-Regular-69" x="123.199982"/>
      <use xlink:href="#EBGaramond-Regular-65" x="147.699966"/>
      <use xlink:href="#EBGaramond-Regular-6e" x="186.699951"/>
      <use xlink:href="#EBGaramond-Regular-74" x="239.499939"/>
      <use xlink:href="#EBGaramond-Regular-20" x="270.899933"/>
      <use xlink:href="#EBGaramond-Regular-41" x="290.899918"/>
      <use xlink:href="#EBGaramond-Regular-20" x="360.099899"/>
      <use xlink:href="#EBGaramond-Regular-28" x="380.099884"/>
      <use xlink:href="#EBGaramond-Regular-62" x="411.599869"/>
      <use xlink:href="#EBGaramond-Regular-61" x="463.099854"/>
      <use xlink:href="#EBGaramond-Regular-73" x="502.999847"/>
      <use xlink:href="#EBGaramond-Regular-65" x="535.299835"/>
      <use xlink:href="#EBGaramond-Regular-6c" x="574.29982"/>
      <use xlink:href="#EBGaramond-Regular-69" x="598.299805"/>
      <use xlink:href="#EBGaramond-Regular-6e" x="622.799789"/>
      <use xlink:href="#EBGaramond-Regular-65" x="675.599777"/>
      <use xlink:href="#EBGaramond-Regular-29" x="714.599762"/>
     </g>
    </g>
    <g id="line2d_13">
     <path d="M 66.67 70.528312 
L 77.67 70.528312 
L 88.67 70.528312 
" style="fill: none; stroke: #b23a24; stroke-width: 2.2; stroke-linecap: square"/>
    </g>
    <g id="text_14">
     <!-- patient B ($\times2.4$) -->
     <g style="fill: #33463f" transform="translate(97.47 74.378312) scale(0.11 -0.11)">
      <defs>
       <path id="EBGaramond-Regular-42" d="M 307 -32 
Q 224 -32 173 -16 
Q 122 0 122 38 
Q 122 115 333 154 
Q 576 198 704 300 
Q 832 403 832 634 
L 832 3514 
Q 832 3744 736 3853 
Q 640 3962 403 3981 
Q 294 3994 243 4029 
Q 192 4064 192 4109 
Q 192 4147 243 4163 
Q 294 4179 378 4179 
Q 550 4179 646 4179 
Q 742 4179 828 4176 
Q 915 4173 1043 4173 
Q 1165 4173 1254 4182 
Q 1344 4192 1456 4198 
Q 1568 4205 1754 4205 
Q 2502 4205 2870 3990 
Q 3238 3776 3238 3251 
Q 3238 3034 3164 2870 
Q 3091 2707 3021 2637 
Q 2918 2534 2835 2480 
Q 2752 2426 2592 2362 
Q 2566 2355 2566 2332 
Q 2566 2310 2592 2298 
Q 2739 2253 2896 2182 
Q 3053 2112 3190 2000 
Q 3328 1888 3414 1705 
Q 3501 1523 3501 1242 
Q 3501 890 3389 685 
Q 3277 480 3123 371 
Q 2970 262 2835 192 
Q 2637 90 2374 32 
Q 2112 -26 1747 -26 
Q 1664 -26 1497 -13 
Q 1331 0 1139 0 
Q 973 0 857 -6 
Q 742 -13 617 -22 
Q 493 -32 307 -32 
z
M 1837 237 
Q 2118 237 2361 365 
Q 2605 493 2752 713 
Q 2899 934 2899 1210 
Q 2899 1459 2816 1622 
Q 2733 1786 2624 1888 
Q 2515 1990 2426 2035 
Q 2342 2086 2163 2140 
Q 1984 2195 1696 2195 
Q 1491 2195 1411 2112 
Q 1331 2029 1331 1965 
L 1331 691 
Q 1331 422 1462 329 
Q 1594 237 1837 237 
z
M 1626 2374 
Q 1798 2374 2000 2412 
Q 2202 2451 2400 2560 
Q 2470 2598 2579 2745 
Q 2688 2893 2688 3168 
Q 2688 3354 2617 3549 
Q 2547 3744 2348 3878 
Q 2150 4013 1754 4013 
Q 1491 4013 1411 3942 
Q 1331 3872 1331 3725 
L 1331 2611 
Q 1331 2445 1440 2409 
Q 1549 2374 1626 2374 
z
" transform="scale(0.015625)"/>
       <path id="DejaVuSans-d7" d="M 4488 3438 
L 3059 2003 
L 4488 575 
L 4116 197 
L 2681 1631 
L 1247 197 
L 878 575 
L 2303 2003 
L 878 3438 
L 1247 3816 
L 2681 2381 
L 4116 3816 
L 4488 3438 
z
" transform="scale(0.015625)"/>
       <path id="DejaVuSans-32" d="M 1228 531 
L 3431 531 
L 3431 0 
L 469 0 
L 469 531 
Q 828 903 1448 1529 
Q 2069 2156 2228 2338 
Q 2531 2678 2651 2914 
Q 2772 3150 2772 3378 
Q 2772 3750 2511 3984 
Q 2250 4219 1831 4219 
Q 1534 4219 1204 4116 
Q 875 4013 500 3803 
L 500 4441 
Q 881 4594 1212 4672 
Q 1544 4750 1819 4750 
Q 2544 4750 2975 4387 
Q 3406 4025 3406 3419 
Q 3406 3131 3298 2873 
Q 3191 2616 2906 2266 
Q 2828 2175 2409 1742 
Q 1991 1309 1228 531 
z
" transform="scale(0.015625)"/>
       <path id="DejaVuSans-2e" d="M 684 794 
L 1344 794 
L 1344 0 
L 684 0 
L 684 794 
z
" transform="scale(0.015625)"/>
       <path id="DejaVuSans-34" d="M 2419 4116 
L 825 1625 
L 2419 1625 
L 2419 4116 
z
M 2253 4666 
L 3047 4666 
L 3047 1625 
L 3713 1625 
L 3713 1100 
L 3047 1100 
L 3047 0 
L 2419 0 
L 2419 1100 
L 313 1100 
L 313 1709 
L 2253 4666 
z
" transform="scale(0.015625)"/>
      </defs>
      <use xlink:href="#EBGaramond-Regular-70" transform="translate(0 0.78125)"/>
      <use xlink:href="#EBGaramond-Regular-61" transform="translate(51.899994 0.78125)"/>
      <use xlink:href="#EBGaramond-Regular-74" transform="translate(91.799988 0.78125)"/>
      <use xlink:href="#EBGaramond-Regular-69" transform="translate(123.199982 0.78125)"/>
      <use xlink:href="#EBGaramond-Regular-65" transform="translate(147.699966 0.78125)"/>
      <use xlink:href="#EBGaramond-Regular-6e" transform="translate(186.699951 0.78125)"/>
      <use xlink:href="#EBGaramond-Regular-74" transform="translate(239.499939 0.78125)"/>
      <use xlink:href="#EBGaramond-Regular-20" transform="translate(270.899933 0.78125)"/>
      <use xlink:href="#EBGaramond-Regular-42" transform="translate(290.899918 0.78125)"/>
      <use xlink:href="#EBGaramond-Regular-20" transform="translate(349.599915 0.78125)"/>
      <use xlink:href="#EBGaramond-Regular-28" transform="translate(369.599899 0.78125)"/>
      <use xlink:href="#DejaVuSans-d7" transform="translate(401.099884 0.78125)"/>
      <use xlink:href="#DejaVuSans-32" transform="translate(484.888947 0.78125)"/>
      <use xlink:href="#DejaVuSans-2e" transform="translate(548.511993 0.78125)"/>
      <use xlink:href="#DejaVuSans-34" transform="translate(580.299103 0.78125)"/>
      <use xlink:href="#EBGaramond-Regular-29" transform="translate(643.92215 0.78125)"/>
     </g>
    </g>
   </g>
  </g>
  <g id="axes_2">
   <g id="patch_5">
    <path d="M 385.435 212.691063 
L 694.94 212.691063 
L 694.94 39.838313 
L 385.435 39.838313 
z
" style="fill: #fbf7ef"/>
   </g>
   <g id="matplotlib.axis_3">
    <g id="xtick_6">
     <g id="line2d_14">
      <g>
       <use xlink:href="#m4d0b75aba7" x="385.435" y="212.691063" style="fill: #5f776c; stroke: #5f776c; stroke-width: 0.8"/>
      </g>
     </g>
     <g id="text_15">
      <!-- 0 -->
      <g style="fill: #5f776c" transform="translate(381.955 229.913563) scale(0.145 -0.145)">
       <use xlink:href="#EBGaramond-Regular-30"/>
      </g>
     </g>
    </g>
    <g id="xtick_7">
     <g id="line2d_15">
      <g>
       <use xlink:href="#m4d0b75aba7" x="449.915208" y="212.691063" style="fill: #5f776c; stroke: #5f776c; stroke-width: 0.8"/>
      </g>
     </g>
     <g id="text_16">
      <!-- 5 -->
      <g style="fill: #5f776c" transform="translate(446.435208 229.913563) scale(0.145 -0.145)">
       <use xlink:href="#EBGaramond-Regular-35"/>
      </g>
     </g>
    </g>
    <g id="xtick_8">
     <g id="line2d_16">
      <g>
       <use xlink:href="#m4d0b75aba7" x="514.395417" y="212.691063" style="fill: #5f776c; stroke: #5f776c; stroke-width: 0.8"/>
      </g>
     </g>
     <g id="text_17">
      <!-- 10 -->
      <g style="fill: #5f776c" transform="translate(507.435417 229.913563) scale(0.145 -0.145)">
       <use xlink:href="#EBGaramond-Regular-31"/>
       <use xlink:href="#EBGaramond-Regular-30" x="47.999985"/>
      </g>
     </g>
    </g>
    <g id="xtick_9">
     <g id="line2d_17">
      <g>
       <use xlink:href="#m4d0b75aba7" x="578.875625" y="212.691063" style="fill: #5f776c; stroke: #5f776c; stroke-width: 0.8"/>
      </g>
     </g>
     <g id="text_18">
      <!-- 15 -->
      <g style="fill: #5f776c" transform="translate(571.915625 229.913563) scale(0.145 -0.145)">
       <use xlink:href="#EBGaramond-Regular-31"/>
       <use xlink:href="#EBGaramond-Regular-35" x="47.999985"/>
      </g>
     </g>
    </g>
    <g id="xtick_10">
     <g id="line2d_18">
      <g>
       <use xlink:href="#m4d0b75aba7" x="643.355833" y="212.691063" style="fill: #5f776c; stroke: #5f776c; stroke-width: 0.8"/>
      </g>
     </g>
     <g id="text_19">
      <!-- 20 -->
      <g style="fill: #5f776c" transform="translate(636.395833 229.913563) scale(0.145 -0.145)">
       <use xlink:href="#EBGaramond-Regular-32"/>
       <use xlink:href="#EBGaramond-Regular-30" x="47.999985"/>
      </g>
     </g>
    </g>
    <g id="text_20">
     <!-- time (months) -->
     <g style="fill: #33463f" transform="translate(500.24 248.268563) scale(0.145 -0.145)">
      <use xlink:href="#EBGaramond-Regular-74"/>
      <use xlink:href="#EBGaramond-Regular-69" x="31.399994"/>
      <use xlink:href="#EBGaramond-Regular-6d" x="55.899979"/>
      <use xlink:href="#EBGaramond-Regular-65" x="133.699966"/>
      <use xlink:href="#EBGaramond-Regular-20" x="172.699951"/>
      <use xlink:href="#EBGaramond-Regular-28" x="192.699936"/>
      <use xlink:href="#EBGaramond-Regular-6d" x="224.199921"/>
      <use xlink:href="#EBGaramond-Regular-6f" x="301.999908"/>
      <use xlink:href="#EBGaramond-Regular-6e" x="351.499893"/>
      <use xlink:href="#EBGaramond-Regular-74" x="404.299881"/>
      <use xlink:href="#EBGaramond-Regular-68" x="435.699875"/>
      <use xlink:href="#EBGaramond-Regular-73" x="487.19986"/>
      <use xlink:href="#EBGaramond-Regular-29" x="519.499847"/>
     </g>
    </g>
   </g>
   <g id="matplotlib.axis_4">
    <g id="ytick_5">
     <g id="line2d_19">
      <g>
       <use xlink:href="#m12ab5798b3" x="385.435" y="212.691063" style="fill: #5f776c; stroke: #5f776c; stroke-width: 0.8"/>
      </g>
     </g>
    </g>
    <g id="ytick_6">
     <g id="line2d_20">
      <g>
       <use xlink:href="#m12ab5798b3" x="385.435" y="164.67641" style="fill: #5f776c; stroke: #5f776c; stroke-width: 0.8"/>
      </g>
     </g>
    </g>
    <g id="ytick_7">
     <g id="line2d_21">
      <g>
       <use xlink:href="#m12ab5798b3" x="385.435" y="116.661757" style="fill: #5f776c; stroke: #5f776c; stroke-width: 0.8"/>
      </g>
     </g>
    </g>
    <g id="ytick_8">
     <g id="line2d_22">
      <g>
       <use xlink:href="#m12ab5798b3" x="385.435" y="68.647104" style="fill: #5f776c; stroke: #5f776c; stroke-width: 0.8"/>
      </g>
     </g>
    </g>
   </g>
   <g id="line2d_23">
    <path d="M 388.014208 194.983259 
L 694.94 144.702314 
L 694.94 144.702314 
" clip-path="url(#p56c5cbf1a8)" style="fill: none; stroke: #2f8a5f; stroke-width: 2.2; stroke-linecap: square"/>
   </g>
   <g id="line2d_24">
    <path d="M 388.014208 55.014104 
L 391.860396 65.515159 
L 395.706584 75.261718 
L 399.552772 84.307991 
L 403.39896 92.704294 
L 407.245148 100.497326 
L 411.091336 107.730433 
L 414.937523 114.443845 
L 418.783711 120.674901 
L 422.629899 126.458259 
L 426.476087 131.826085 
L 430.322275 136.808236 
L 434.168463 141.432421 
L 438.014651 145.724361 
L 441.860838 149.707927 
L 445.707026 153.405276 
L 449.553214 156.836972 
L 454.16864 160.631123 
L 458.784065 164.100541 
L 463.39949 167.27302 
L 468.014916 170.173973 
L 472.630341 172.826641 
L 477.245767 175.252273 
L 482.63043 177.821059 
L 488.015093 180.135221 
L 493.399756 182.219997 
L 499.553656 184.35078 
L 505.707557 186.241942 
L 512.630695 188.116509 
L 519.553833 189.755642 
L 527.246209 191.336609 
L 534.938585 192.698554 
L 543.400198 193.979809 
L 552.631049 195.15752 
L 562.631137 196.216646 
L 574.169701 197.208967 
L 587.24674 198.0954 
L 601.862254 198.853395 
L 618.78548 199.500634 
L 638.785657 200.036375 
L 663.40126 200.465628 
L 694.94 200.786693 
L 694.94 200.786693 
" clip-path="url(#p56c5cbf1a8)" style="fill: none; stroke: #b23a24; stroke-width: 2.2; stroke-linecap: square"/>
   </g>
   <g id="patch_6">
    <path d="M 385.435 212.691063 
L 385.435 39.838313 
" style="fill: none; stroke: #5f776c; stroke-width: 0.8; stroke-linejoin: miter; stroke-linecap: square"/>
   </g>
   <g id="patch_7">
    <path d="M 385.435 212.691063 
L 694.94 212.691063 
" style="fill: none; stroke: #5f776c; stroke-width: 0.8; stroke-linejoin: miter; stroke-linecap: square"/>
   </g>
   <g id="text_21">
    <!-- Proportional hazards violated -->
    <g style="fill: #0e1f1b" transform="translate(458.766602 17.4225) scale(0.145 -0.145)">
     <use xlink:href="#EBGaramond-Regular-50"/>
     <use xlink:href="#EBGaramond-Regular-72" x="55.199997"/>
     <use xlink:href="#EBGaramond-Regular-6f" x="88.599991"/>
     <use xlink:href="#EBGaramond-Regular-70" x="138.099976"/>
     <use xlink:href="#EBGaramond-Regular-6f" x="189.999969"/>
     <use xlink:href="#EBGaramond-Regular-72" x="239.499954"/>
     <use xlink:href="#EBGaramond-Regular-74" x="272.899948"/>
     <use xlink:href="#EBGaramond-Regular-69" x="304.299942"/>
     <use xlink:href="#EBGaramond-Regular-6f" x="328.799927"/>
     <use xlink:href="#EBGaramond-Regular-6e" x="378.299911"/>
     <use xlink:href="#EBGaramond-Regular-61" x="431.099899"/>
     <use xlink:href="#EBGaramond-Regular-6c" x="470.999893"/>
     <use xlink:href="#EBGaramond-Regular-20" x="494.999878"/>
     <use xlink:href="#EBGaramond-Regular-68" x="514.999863"/>
     <use xlink:href="#EBGaramond-Regular-61" x="566.499847"/>
     <use xlink:href="#EBGaramond-Regular-7a" x="606.399841"/>
     <use xlink:href="#EBGaramond-Regular-61" x="644.099838"/>
     <use xlink:href="#EBGaramond-Regular-72" x="683.999832"/>
     <use xlink:href="#EBGaramond-Regular-64" x="717.399826"/>
     <use xlink:href="#EBGaramond-Regular-73" x="767.999817"/>
     <use xlink:href="#EBGaramond-Regular-20" x="800.299805"/>
     <use xlink:href="#EBGaramond-Regular-76" x="820.299789"/>
     <use xlink:href="#EBGaramond-Regular-69" x="864.099777"/>
     <use xlink:href="#EBGaramond-Regular-6f" x="888.599762"/>
     <use xlink:href="#EBGaramond-Regular-6c" x="938.099747"/>
     <use xlink:href="#EBGaramond-Regular-61" x="962.099731"/>
     <use xlink:href="#EBGaramond-Regular-74" x="1001.999725"/>
     <use xlink:href="#EBGaramond-Regular-65" x="1033.399719"/>
     <use xlink:href="#EBGaramond-Regular-64" x="1072.399704"/>
    </g>
    <!-- ratio flips, curves cross -->
    <g style="fill: #0e1f1b" transform="translate(478.103711 33.838313) scale(0.145 -0.145)">
     <defs>
      <path id="EBGaramond-Regular-66" d="M 282 -19 
Q 218 -19 186 -3 
Q 154 13 154 51 
Q 154 102 195 121 
Q 237 141 301 154 
Q 448 186 512 246 
Q 576 307 576 435 
L 576 2240 
Q 512 2240 429 2243 
Q 346 2246 243 2253 
Q 224 2259 189 2297 
Q 154 2336 154 2368 
Q 154 2381 173 2390 
Q 192 2400 198 2406 
Q 314 2464 397 2509 
Q 480 2554 576 2598 
Q 576 3155 713 3526 
Q 851 3898 1068 4115 
Q 1286 4333 1529 4425 
Q 1773 4518 1984 4518 
Q 2342 4518 2515 4409 
Q 2688 4301 2688 4134 
Q 2688 4006 2624 3942 
Q 2560 3878 2470 3878 
Q 2413 3878 2365 3923 
Q 2317 3968 2253 4026 
Q 2170 4109 2048 4182 
Q 1926 4256 1715 4256 
Q 1414 4256 1219 3993 
Q 1024 3731 1024 3187 
L 1024 2624 
Q 1024 2586 1046 2573 
Q 1069 2560 1094 2560 
L 1894 2560 
Q 1926 2560 1952 2541 
Q 1978 2522 1978 2490 
Q 1978 2445 1968 2393 
Q 1958 2342 1939 2304 
Q 1920 2253 1882 2253 
L 1146 2253 
Q 1069 2253 1046 2230 
Q 1024 2208 1024 2170 
L 1024 435 
Q 1024 307 1107 246 
Q 1190 186 1446 154 
Q 1594 134 1594 51 
Q 1594 13 1562 -3 
Q 1530 -19 1466 -19 
Q 1274 -19 1126 -3 
Q 979 13 813 13 
Q 704 13 633 6 
Q 563 0 486 -9 
Q 410 -19 282 -19 
z
" transform="scale(0.015625)"/>
     </defs>
     <use xlink:href="#EBGaramond-Regular-72"/>
     <use xlink:href="#EBGaramond-Regular-61" x="33.399994"/>
     <use xlink:href="#EBGaramond-Regular-74" x="73.299988"/>
     <use xlink:href="#EBGaramond-Regular-69" x="104.699982"/>
     <use xlink:href="#EBGaramond-Regular-6f" x="129.199966"/>
     <use xlink:href="#EBGaramond-Regular-20" x="178.699951"/>
     <use xlink:href="#EBGaramond-Regular-66" x="198.699936"/>
     <use xlink:href="#EBGaramond-Regular-6c" x="230.499924"/>
     <use xlink:href="#EBGaramond-Regular-69" x="254.499908"/>
     <use xlink:href="#EBGaramond-Regular-70" x="278.999893"/>
     <use xlink:href="#EBGaramond-Regular-73" x="330.899887"/>
     <use xlink:href="#EBGaramond-Regular-2c" x="363.199875"/>
     <use xlink:href="#EBGaramond-Regular-20" x="386.19986"/>
     <use xlink:href="#EBGaramond-Regular-63" x="406.199844"/>
     <use xlink:href="#EBGaramond-Regular-75" x="446.899841"/>
     <use xlink:href="#EBGaramond-Regular-72" x="499.599838"/>
     <use xlink:href="#EBGaramond-Regular-76" x="532.999832"/>
     <use xlink:href="#EBGaramond-Regular-65" x="576.79982"/>
     <use xlink:href="#EBGaramond-Regular-73" x="615.799805"/>
     <use xlink:href="#EBGaramond-Regular-20" x="648.099792"/>
     <use xlink:href="#EBGaramond-Regular-63" x="668.099777"/>
     <use xlink:href="#EBGaramond-Regular-72" x="708.799774"/>
     <use xlink:href="#EBGaramond-Regular-6f" x="742.199768"/>
     <use xlink:href="#EBGaramond-Regular-73" x="791.699753"/>
     <use xlink:href="#EBGaramond-Regular-73" x="823.999741"/>
    </g>
   </g>
   <g id="line2d_25">
    <defs>
     <path id="m1bc60e3043" d="M 0 3.5 
C 0.928211 3.5 1.81853 3.131218 2.474874 2.474874 
C 3.131218 1.81853 3.5 0.928211 3.5 0 
C 3.5 -0.928211 3.131218 -1.81853 2.474874 -2.474874 
C 1.81853 -3.131218 0.928211 -3.5 0 -3.5 
C -0.928211 -3.5 -1.81853 -3.131218 -2.474874 -2.474874 
C -3.131218 -1.81853 -3.5 -0.928211 -3.5 0 
C -3.5 0.928211 -3.131218 1.81853 -2.474874 2.474874 
C -1.81853 3.131218 -0.928211 3.5 0 3.5 
z
" style="stroke: #0e1f1b"/>
    </defs>
    <g clip-path="url(#p56c5cbf1a8)">
     <use xlink:href="#m1bc60e3043" x="485.70738" y="179.172937" style="fill: #0e1f1b; stroke: #0e1f1b"/>
    </g>
   </g>
   <g id="legend_2">
    <g id="line2d_26">
     <path d="M 585.398906 53.643313 
L 596.398906 53.643313 
L 607.398906 53.643313 
" style="fill: none; stroke: #2f8a5f; stroke-width: 2.2; stroke-linecap: square"/>
    </g>
    <g id="text_22">
     <!-- control -->
     <g style="fill: #33463f" transform="translate(616.198906 57.493313) scale(0.11 -0.11)">
      <use xlink:href="#EBGaramond-Regular-63"/>
      <use xlink:href="#EBGaramond-Regular-6f" x="40.699997"/>
      <use xlink:href="#EBGaramond-Regular-6e" x="90.199982"/>
      <use xlink:href="#EBGaramond-Regular-74" x="142.999969"/>
      <use xlink:href="#EBGaramond-Regular-72" x="174.399963"/>
      <use xlink:href="#EBGaramond-Regular-6f" x="207.799957"/>
      <use xlink:href="#EBGaramond-Regular-6c" x="257.299942"/>
     </g>
    </g>
    <g id="line2d_27">
     <path d="M 585.398906 70.033312 
L 596.398906 70.033312 
L 607.398906 70.033312 
" style="fill: none; stroke: #b23a24; stroke-width: 2.2; stroke-linecap: square"/>
    </g>
    <g id="text_23">
     <!-- treated (surgery) -->
     <g style="fill: #33463f" transform="translate(616.198906 73.883312) scale(0.11 -0.11)">
      <defs>
       <path id="EBGaramond-Regular-67" d="M 1248 -1856 
Q 704 -1856 387 -1648 
Q 70 -1440 70 -1088 
Q 70 -922 121 -806 
Q 173 -691 282 -608 
Q 371 -531 521 -412 
Q 672 -294 832 -166 
L 1101 -179 
Q 794 -378 672 -557 
Q 550 -736 550 -992 
Q 550 -1248 777 -1424 
Q 1005 -1600 1338 -1600 
Q 1715 -1600 1946 -1427 
Q 2106 -1306 2195 -1110 
Q 2285 -915 2285 -698 
Q 2285 -557 2185 -464 
Q 2086 -371 1875 -313 
Q 1664 -256 1325 -237 
Q 723 -192 489 -77 
Q 256 38 256 282 
Q 256 346 291 400 
Q 326 454 403 518 
Q 550 634 620 688 
Q 691 742 726 780 
Q 762 819 794 877 
L 1011 768 
Q 870 717 774 630 
Q 678 544 678 474 
Q 678 384 774 317 
Q 870 250 1056 211 
Q 1242 173 1510 154 
Q 2099 122 2387 -38 
Q 2675 -198 2675 -493 
Q 2675 -742 2550 -982 
Q 2426 -1222 2221 -1420 
Q 2016 -1619 1763 -1737 
Q 1510 -1856 1248 -1856 
z
M 1325 902 
Q 1568 902 1728 1148 
Q 1888 1395 1888 1760 
Q 1888 1946 1801 2109 
Q 1715 2272 1577 2371 
Q 1440 2470 1280 2470 
Q 1133 2470 1001 2364 
Q 870 2259 790 2092 
Q 710 1926 710 1728 
Q 710 1504 793 1315 
Q 877 1126 1017 1014 
Q 1158 902 1325 902 
z
M 1286 678 
Q 1024 678 787 812 
Q 550 947 400 1168 
Q 250 1389 250 1651 
Q 250 1952 406 2179 
Q 563 2406 819 2534 
Q 1075 2662 1363 2662 
Q 1549 2662 1686 2614 
Q 1824 2566 1958 2528 
Q 2112 2483 2201 2473 
Q 2291 2464 2387 2464 
Q 2464 2464 2579 2473 
Q 2694 2483 2739 2483 
Q 2822 2483 2822 2387 
Q 2822 2330 2758 2266 
Q 2726 2234 2707 2234 
L 2534 2234 
Q 2362 2234 2342 2182 
Q 2336 2157 2326 2109 
Q 2317 2061 2310 2003 
Q 2304 1946 2304 1888 
Q 2304 1562 2163 1286 
Q 2022 1011 1792 844 
Q 1562 678 1286 678 
z
" transform="scale(0.015625)"/>
       <path id="EBGaramond-Regular-79" d="M 410 -1824 
Q 288 -1824 185 -1763 
Q 83 -1702 83 -1562 
Q 83 -1446 137 -1360 
Q 192 -1274 294 -1274 
Q 365 -1274 432 -1293 
Q 499 -1312 550 -1312 
Q 589 -1312 617 -1296 
Q 646 -1280 672 -1242 
Q 742 -1126 835 -953 
Q 928 -781 1027 -563 
Q 1126 -346 1216 -102 
Q 1235 -45 1235 45 
Q 1235 96 1228 144 
Q 1222 192 1210 230 
L 467 2106 
Q 422 2221 348 2307 
Q 275 2394 179 2419 
Q 128 2438 80 2464 
Q 32 2490 32 2534 
Q 32 2573 80 2582 
Q 128 2592 160 2592 
Q 288 2592 349 2585 
Q 410 2579 464 2569 
Q 518 2560 627 2560 
Q 742 2560 800 2569 
Q 858 2579 922 2585 
Q 986 2592 1114 2592 
Q 1152 2592 1197 2576 
Q 1242 2560 1242 2522 
Q 1242 2477 1174 2435 
Q 1107 2394 1056 2381 
Q 992 2362 960 2314 
Q 928 2266 928 2176 
Q 928 2138 947 2083 
Q 966 2029 979 1997 
L 1498 717 
Q 1510 678 1536 678 
Q 1555 678 1568 717 
L 2010 1888 
Q 2029 1933 2045 2006 
Q 2061 2080 2061 2125 
Q 2061 2246 2025 2294 
Q 1990 2342 1933 2368 
Q 1882 2394 1814 2435 
Q 1747 2477 1747 2522 
Q 1747 2560 1795 2576 
Q 1843 2592 1875 2592 
Q 1965 2592 2057 2576 
Q 2150 2560 2330 2560 
Q 2451 2560 2505 2569 
Q 2560 2579 2598 2585 
Q 2637 2592 2707 2592 
Q 2739 2592 2787 2582 
Q 2835 2573 2835 2534 
Q 2835 2490 2787 2464 
Q 2739 2438 2688 2419 
Q 2592 2394 2483 2269 
Q 2374 2144 2310 1990 
L 1440 -83 
Q 1434 -102 1373 -249 
Q 1312 -397 1222 -614 
Q 1133 -832 1027 -1081 
Q 922 -1331 826 -1562 
Q 768 -1690 659 -1757 
Q 550 -1824 410 -1824 
z
" transform="scale(0.015625)"/>
      </defs>
      <use xlink:href="#EBGaramond-Regular-74"/>
      <use xlink:href="#EBGaramond-Regular-72" x="31.399994"/>
      <use xlink:href="#EBGaramond-Regular-65" x="64.799988"/>
      <use xlink:href="#EBGaramond-Regular-61" x="103.799973"/>
      <use xlink:href="#EBGaramond-Regular-74" x="143.699966"/>
      <use xlink:href="#EBGaramond-Regular-65" x="175.09996"/>
      <use xlink:href="#EBGaramond-Regular-64" x="214.099945"/>
      <use xlink:href="#EBGaramond-Regular-20" x="264.699936"/>
      <use xlink:href="#EBGaramond-Regular-28" x="284.699921"/>
      <use xlink:href="#EBGaramond-Regular-73" x="316.199905"/>
      <use xlink:href="#EBGaramond-Regular-75" x="348.499893"/>
      <use xlink:href="#EBGaramond-Regular-72" x="401.19989"/>
      <use xlink:href="#EBGaramond-Regular-67" x="434.599884"/>
      <use xlink:href="#EBGaramond-Regular-65" x="478.099869"/>
      <use xlink:href="#EBGaramond-Regular-72" x="517.099854"/>
      <use xlink:href="#EBGaramond-Regular-79" x="550.499847"/>
      <use xlink:href="#EBGaramond-Regular-29" x="594.299835"/>
     </g>
    </g>
   </g>
  </g>
 </g>
 <defs>
  <clipPath id="pa5091e6d6b">
   <rect x="56.77" y="39.838313" width="309.505" height="172.85275"/>
  </clipPath>
  <clipPath id="p56c5cbf1a8">
   <rect x="385.435" y="39.838313" width="309.505" height="172.85275"/>
  </clipPath>
 </defs>
</svg>
