<?xml version="1.0" encoding="utf-8" standalone="no"?>
<!DOCTYPE svg PUBLIC "-//W3C//DTD SVG 1.1//EN"
  "http://www.w3.org/Graphics/SVG/1.1/DTD/svg11.dtd">
<svg xmlns:xlink="http://www.w3.org/1999/xlink" width="698.323125pt" height="257.0175pt" viewBox="0 0 698.323125 257.0175" xmlns="http://www.w3.org/2000/svg" version="1.1">
 <metadata>
  <rdf:RDF xmlns:dc="http://purl.org/dc/elements/1.1/" xmlns:cc="http://creativecommons.org/ns#" xmlns:rdf="http://www.w3.org/1999/02/22-rdf-syntax-ns#">
   <cc:Work>
    <dc:type rdf:resource="http://purl.org/dc/dcmitype/StillImage"/>
    <dc:date>2026-06-15T14:28:26.253204</dc:date>
    <dc:format>image/svg+xml</dc:format>
    <dc:creator>
     <cc:Agent>
      <dc:title>Matplotlib v3.9.4, https://matplotlib.org/</dc:title>
     </cc:Agent>
    </dc:creator>
   </cc:Work>
  </rdf:RDF>
 </metadata>
 <defs>
  <style type="text/css">*{stroke-linejoin: round; stroke-linecap: butt}</style>
 </defs>
 <g id="figure_1">
  <g id="patch_1">
   <path d="M 0 257.0175 
L 698.323125 257.0175 
L 698.323125 0 
L 0 0 
z
" style="fill: #ffffff"/>
  </g>
  <g id="axes_1">
   <g id="patch_2">
    <path d="M 55.203125 215.47 
L 364.838125 215.47 
L 364.838125 35.766 
L 55.203125 35.766 
z
" style="fill: #ffffff"/>
   </g>
   <g id="matplotlib.axis_1">
    <g id="xtick_1">
     <g id="line2d_1">
      <defs>
       <path id="m6f412d733b" d="M 0 0 
L 0 3.5 
" style="stroke: #5b6b7f; stroke-width: 0.8"/>
      </defs>
      <g>
       <use xlink:href="#m6f412d733b" x="55.203125" y="215.47" style="fill: #5b6b7f; stroke: #5b6b7f; stroke-width: 0.8"/>
      </g>
     </g>
     <g id="text_1">
      <!-- 0 -->
      <g style="fill: #5b6b7f" transform="translate(51.520625 231.54125) scale(0.12 -0.12)">
       <defs>
        <path id="Georgia-30" d="M 3209 2919 
Q 3409 2678 3507 2354 
Q 3606 2031 3606 1678 
Q 3606 1253 3484 917 
Q 3363 581 3150 359 
Q 2931 131 2631 15 
Q 2331 -100 1963 -100 
Q 1559 -100 1243 34 
Q 928 169 731 403 
Q 525 647 423 973 
Q 322 1300 322 1678 
Q 322 2050 420 2362 
Q 519 2675 728 2928 
Q 928 3172 1243 3312 
Q 1559 3453 1966 3453 
Q 2394 3453 2700 3309 
Q 3006 3166 3209 2919 
z
M 2916 1678 
Q 2916 2422 2661 2831 
Q 2406 3241 1969 3241 
Q 1525 3241 1269 2831 
Q 1013 2422 1013 1678 
Q 1013 972 1258 542 
Q 1503 113 1963 113 
Q 2422 113 2669 542 
Q 2916 972 2916 1678 
z
" transform="scale(0.015625)"/>
       </defs>
       <use xlink:href="#Georgia-30"/>
      </g>
     </g>
    </g>
    <g id="xtick_2">
     <g id="line2d_2">
      <g>
       <use xlink:href="#m6f412d733b" x="119.710417" y="215.47" style="fill: #5b6b7f; stroke: #5b6b7f; stroke-width: 0.8"/>
      </g>
     </g>
     <g id="text_2">
      <!-- 5 -->
      <g style="fill: #5b6b7f" transform="translate(116.540729 231.54125) scale(0.12 -0.12)">
       <defs>
        <path id="Georgia-35" d="M 2634 1466 
Q 2841 1303 2977 1047 
Q 3113 791 3113 406 
Q 3113 -266 2653 -703 
Q 2194 -1141 1488 -1141 
Q 941 -1141 562 -881 
Q 184 -622 184 -278 
Q 184 -119 262 0 
Q 341 119 503 119 
Q 691 119 789 20 
Q 888 -78 888 -194 
Q 888 -294 853 -444 
Q 819 -594 800 -666 
Q 825 -688 881 -725 
Q 938 -763 1016 -797 
Q 1097 -831 1214 -857 
Q 1331 -884 1488 -884 
Q 1688 -884 1866 -803 
Q 2044 -722 2166 -563 
Q 2300 -388 2367 -164 
Q 2434 59 2434 403 
Q 2434 844 2189 1133 
Q 1944 1422 1544 1422 
Q 1294 1422 1076 1328 
Q 859 1234 688 1016 
L 478 1097 
L 744 3353 
L 2981 3353 
L 2981 2797 
L 997 2797 
L 834 1472 
Q 975 1572 1204 1670 
Q 1434 1769 1709 1769 
Q 1938 1769 2183 1698 
Q 2428 1628 2634 1466 
z
" transform="scale(0.015625)"/>
       </defs>
       <use xlink:href="#Georgia-35"/>
      </g>
     </g>
    </g>
    <g id="xtick_3">
     <g id="line2d_3">
      <g>
       <use xlink:href="#m6f412d733b" x="184.217708" y="215.47" style="fill: #5b6b7f; stroke: #5b6b7f; stroke-width: 0.8"/>
      </g>
     </g>
     <g id="text_3">
      <!-- 10 -->
      <g style="fill: #5b6b7f" transform="translate(177.957083 231.54125) scale(0.12 -0.12)">
       <defs>
        <path id="Georgia-31" d="M 2528 0 
L 422 0 
L 422 222 
Q 516 228 714 248 
Q 913 269 988 291 
Q 1084 322 1136 392 
Q 1188 463 1188 603 
L 1188 2797 
L 409 2797 
L 409 3059 
L 581 3059 
Q 919 3059 1186 3184 
Q 1453 3309 1569 3453 
L 1828 3453 
Q 1819 3250 1809 2978 
Q 1800 2706 1800 2491 
L 1800 638 
Q 1800 528 1848 442 
Q 1897 356 1988 316 
Q 2069 281 2253 253 
Q 2438 225 2528 222 
L 2528 0 
z
" transform="scale(0.015625)"/>
       </defs>
       <use xlink:href="#Georgia-31"/>
       <use xlink:href="#Georgia-30" x="42.96875"/>
      </g>
     </g>
    </g>
    <g id="xtick_4">
     <g id="line2d_4">
      <g>
       <use xlink:href="#m6f412d733b" x="248.725" y="215.47" style="fill: #5b6b7f; stroke: #5b6b7f; stroke-width: 0.8"/>
      </g>
     </g>
     <g id="text_4">
      <!-- 15 -->
      <g style="fill: #5b6b7f" transform="translate(242.977187 231.54125) scale(0.12 -0.12)">
       <use xlink:href="#Georgia-31"/>
       <use xlink:href="#Georgia-35" x="42.96875"/>
      </g>
     </g>
    </g>
    <g id="xtick_5">
     <g id="line2d_5">
      <g>
       <use xlink:href="#m6f412d733b" x="313.232292" y="215.47" style="fill: #5b6b7f; stroke: #5b6b7f; stroke-width: 0.8"/>
      </g>
     </g>
     <g id="text_5">
      <!-- 20 -->
      <g style="fill: #5b6b7f" transform="translate(306.198229 231.54125) scale(0.12 -0.12)">
       <defs>
        <path id="Georgia-32" d="M 3272 0 
L 344 0 
L 344 425 
Q 428 522 578 642 
Q 728 763 934 903 
Q 1059 988 1234 1088 
Q 1409 1188 1631 1306 
Q 1878 1438 2011 1538 
Q 2144 1638 2253 1784 
Q 2325 1881 2369 2026 
Q 2413 2172 2413 2441 
Q 2413 2831 2203 3014 
Q 1994 3197 1666 3197 
Q 1463 3197 1281 3117 
Q 1100 3038 1009 2897 
Q 1031 2797 1064 2659 
Q 1097 2522 1097 2391 
Q 1097 2272 998 2180 
Q 900 2088 706 2088 
Q 550 2088 465 2195 
Q 381 2303 381 2484 
Q 381 2653 475 2823 
Q 569 2994 744 3138 
Q 916 3278 1169 3365 
Q 1422 3453 1716 3453 
Q 2356 3453 2732 3167 
Q 3109 2881 3109 2403 
Q 3109 2175 3042 1987 
Q 2975 1800 2825 1656 
Q 2659 1497 2437 1383 
Q 2216 1269 1759 1066 
Q 1488 944 1253 811 
Q 1019 678 869 553 
L 3272 553 
L 3272 0 
z
" transform="scale(0.015625)"/>
       </defs>
       <use xlink:href="#Georgia-32"/>
       <use xlink:href="#Georgia-30" x="55.859375"/>
      </g>
     </g>
    </g>
    <g id="text_6">
     <!-- time (months) -->
     <g style="fill: #33415a" transform="translate(171.837187 247.215) scale(0.12 -0.12)">
      <defs>
       <path id="Georgia-74" d="M 2128 134 
Q 1925 50 1744 -8 
Q 1563 -66 1300 -66 
Q 913 -66 755 129 
Q 597 325 597 681 
L 597 2769 
L 41 2769 
L 41 3069 
L 609 3069 
L 609 4028 
L 1178 4028 
L 1178 3069 
L 2063 3069 
L 2063 2769 
L 1184 2769 
L 1184 1047 
Q 1184 853 1198 723 
Q 1213 594 1266 497 
Q 1316 406 1416 359 
Q 1516 313 1684 313 
Q 1763 313 1914 327 
Q 2066 341 2128 363 
L 2128 134 
z
" transform="scale(0.015625)"/>
       <path id="Georgia-69" d="M 1722 0 
L 231 0 
L 231 206 
Q 303 213 379 219 
Q 456 225 513 244 
Q 600 272 642 342 
Q 684 413 684 525 
L 684 2428 
Q 684 2528 639 2611 
Q 594 2694 513 2750 
Q 453 2788 340 2814 
Q 228 2841 134 2847 
L 134 3050 
L 1222 3119 
L 1266 3075 
L 1266 563 
Q 1266 453 1308 381 
Q 1350 309 1441 275 
Q 1509 247 1575 230 
Q 1641 213 1722 206 
L 1722 0 
z
M 1328 4334 
Q 1328 4156 1211 4023 
Q 1094 3891 922 3891 
Q 763 3891 645 4017 
Q 528 4144 528 4306 
Q 528 4478 645 4606 
Q 763 4734 922 4734 
Q 1100 4734 1214 4614 
Q 1328 4494 1328 4334 
z
" transform="scale(0.015625)"/>
       <path id="Georgia-6d" d="M 5503 0 
L 4000 0 
L 4000 206 
Q 4072 213 4145 219 
Q 4219 225 4275 244 
Q 4363 272 4405 342 
Q 4447 413 4447 525 
L 4447 2116 
Q 4447 2441 4298 2617 
Q 4150 2794 3928 2794 
Q 3775 2794 3640 2747 
Q 3506 2700 3394 2616 
Q 3303 2547 3242 2467 
Q 3181 2388 3150 2334 
L 3150 556 
Q 3150 447 3187 376 
Q 3225 306 3316 269 
Q 3388 241 3445 227 
Q 3503 213 3597 206 
L 3597 0 
L 2125 0 
L 2125 206 
Q 2197 213 2264 219 
Q 2331 225 2388 244 
Q 2475 272 2517 342 
Q 2559 413 2559 525 
L 2559 2116 
Q 2559 2441 2411 2617 
Q 2263 2794 2041 2794 
Q 1888 2794 1753 2745 
Q 1619 2697 1506 2613 
Q 1416 2544 1353 2458 
Q 1291 2372 1259 2328 
L 1259 563 
Q 1259 456 1303 384 
Q 1347 313 1434 275 
Q 1500 244 1569 228 
Q 1638 213 1722 206 
L 1722 0 
L 225 0 
L 225 206 
Q 297 213 373 219 
Q 450 225 506 244 
Q 594 272 636 342 
Q 678 413 678 525 
L 678 2441 
Q 678 2541 633 2620 
Q 588 2700 506 2756 
Q 447 2794 359 2817 
Q 272 2841 178 2847 
L 178 3050 
L 1209 3119 
L 1253 3075 
L 1253 2634 
L 1275 2634 
Q 1353 2713 1465 2819 
Q 1578 2925 1675 2991 
Q 1784 3066 1948 3116 
Q 2113 3166 2303 3166 
Q 2603 3166 2818 3005 
Q 3034 2844 3128 2616 
Q 3241 2725 3327 2808 
Q 3413 2891 3553 2984 
Q 3672 3066 3833 3116 
Q 3994 3166 4191 3166 
Q 4581 3166 4809 2909 
Q 5038 2653 5038 2122 
L 5038 556 
Q 5038 447 5075 376 
Q 5113 306 5203 269 
Q 5275 241 5345 227 
Q 5416 213 5503 206 
L 5503 0 
z
" transform="scale(0.015625)"/>
       <path id="Georgia-65" d="M 2963 725 
Q 2769 356 2444 137 
Q 2119 -81 1697 -81 
Q 1325 -81 1045 50 
Q 766 181 584 406 
Q 403 631 314 931 
Q 225 1231 225 1566 
Q 225 1866 320 2155 
Q 416 2444 600 2675 
Q 778 2897 1042 3033 
Q 1306 3169 1634 3169 
Q 1972 3169 2212 3062 
Q 2453 2956 2603 2772 
Q 2747 2597 2817 2359 
Q 2888 2122 2888 1844 
L 2888 1638 
L 847 1638 
Q 847 1334 905 1087 
Q 963 841 1088 653 
Q 1209 472 1406 367 
Q 1603 263 1875 263 
Q 2153 263 2354 392 
Q 2556 522 2744 859 
L 2963 725 
z
M 2272 1900 
Q 2272 2075 2242 2275 
Q 2213 2475 2147 2609 
Q 2075 2753 1950 2843 
Q 1825 2934 1628 2934 
Q 1300 2934 1083 2661 
Q 866 2388 847 1900 
L 2272 1900 
z
" transform="scale(0.015625)"/>
       <path id="Georgia-20" transform="scale(0.015625)"/>
       <path id="Georgia-28" d="M 2191 -1025 
Q 1338 -919 852 -165 
Q 366 588 366 1863 
Q 366 3159 852 3917 
Q 1338 4675 2191 4788 
L 2191 4528 
Q 1591 4419 1278 3762 
Q 966 3106 966 1856 
Q 966 666 1272 5 
Q 1578 -656 2191 -769 
L 2191 -1025 
z
" transform="scale(0.015625)"/>
       <path id="Georgia-6f" d="M 3228 1572 
Q 3228 1247 3125 933 
Q 3022 619 2831 400 
Q 2616 150 2331 28 
Q 2047 -94 1694 -94 
Q 1400 -94 1134 17 
Q 869 128 663 341 
Q 459 550 339 851 
Q 219 1153 219 1528 
Q 219 2250 639 2709 
Q 1059 3169 1741 3169 
Q 2388 3169 2808 2733 
Q 3228 2297 3228 1572 
z
M 2581 1566 
Q 2581 1800 2534 2061 
Q 2488 2322 2394 2503 
Q 2294 2697 2131 2814 
Q 1969 2931 1734 2931 
Q 1494 2931 1323 2812 
Q 1153 2694 1047 2488 
Q 947 2297 906 2053 
Q 866 1809 866 1581 
Q 866 1281 914 1026 
Q 963 772 1069 572 
Q 1175 372 1336 258 
Q 1497 144 1734 144 
Q 2125 144 2353 522 
Q 2581 900 2581 1566 
z
" transform="scale(0.015625)"/>
       <path id="Georgia-6e" d="M 3628 0 
L 2119 0 
L 2119 206 
Q 2191 213 2277 219 
Q 2363 225 2419 244 
Q 2506 272 2548 342 
Q 2591 413 2591 525 
L 2591 2109 
Q 2591 2438 2436 2616 
Q 2281 2794 2059 2794 
Q 1894 2794 1756 2742 
Q 1619 2691 1513 2616 
Q 1409 2544 1348 2461 
Q 1288 2378 1259 2328 
L 1259 556 
Q 1259 450 1303 381 
Q 1347 313 1434 275 
Q 1500 244 1576 228 
Q 1653 213 1734 206 
L 1734 0 
L 225 0 
L 225 206 
Q 297 213 373 219 
Q 450 225 506 244 
Q 594 272 636 342 
Q 678 413 678 525 
L 678 2428 
Q 678 2534 633 2623 
Q 588 2713 506 2769 
Q 447 2806 365 2823 
Q 284 2841 191 2847 
L 191 3050 
L 1216 3119 
L 1259 3075 
L 1259 2641 
L 1275 2641 
Q 1350 2716 1462 2820 
Q 1575 2925 1675 2991 
Q 1791 3066 1950 3116 
Q 2109 3166 2309 3166 
Q 2753 3166 2967 2889 
Q 3181 2613 3181 2153 
L 3181 550 
Q 3181 441 3218 373 
Q 3256 306 3347 269 
Q 3422 238 3476 225 
Q 3531 213 3628 206 
L 3628 0 
z
" transform="scale(0.015625)"/>
       <path id="Georgia-68" d="M 3572 0 
L 2059 0 
L 2059 206 
Q 2131 213 2218 219 
Q 2306 225 2363 244 
Q 2450 272 2492 342 
Q 2534 413 2534 525 
L 2534 2109 
Q 2534 2438 2379 2616 
Q 2225 2794 2003 2794 
Q 1841 2794 1702 2742 
Q 1563 2691 1453 2616 
Q 1347 2538 1290 2459 
Q 1234 2381 1203 2328 
L 1203 556 
Q 1203 450 1245 381 
Q 1288 313 1375 275 
Q 1444 244 1517 228 
Q 1591 213 1678 206 
L 1678 0 
L 166 0 
L 166 206 
Q 238 213 316 220 
Q 394 228 447 244 
Q 534 272 578 342 
Q 622 413 622 525 
L 622 4113 
Q 622 4219 573 4325 
Q 525 4431 447 4484 
Q 391 4525 248 4542 
Q 106 4559 19 4566 
L 19 4766 
L 1159 4838 
L 1203 4791 
L 1203 2641 
L 1216 2641 
Q 1319 2744 1403 2823 
Q 1488 2903 1625 2991 
Q 1744 3066 1905 3116 
Q 2066 3166 2266 3166 
Q 2678 3166 2900 2905 
Q 3122 2644 3122 2153 
L 3122 550 
Q 3122 441 3161 373 
Q 3200 306 3291 269 
Q 3363 241 3420 227 
Q 3478 213 3572 206 
L 3572 0 
z
" transform="scale(0.015625)"/>
       <path id="Georgia-73" d="M 2259 1509 
Q 2388 1397 2456 1250 
Q 2525 1103 2525 891 
Q 2525 463 2204 191 
Q 1884 -81 1375 -81 
Q 1106 -81 879 16 
Q 653 113 556 194 
L 494 -9 
L 259 -9 
L 228 1063 
L 444 1063 
Q 469 941 550 778 
Q 631 616 747 484 
Q 869 347 1039 253 
Q 1209 159 1422 159 
Q 1722 159 1884 295 
Q 2047 431 2047 684 
Q 2047 816 1995 911 
Q 1944 1006 1844 1078 
Q 1741 1150 1591 1208 
Q 1441 1266 1256 1322 
Q 1109 1366 929 1442 
Q 750 1519 622 1622 
Q 484 1731 396 1890 
Q 309 2050 309 2266 
Q 309 2644 590 2906 
Q 872 3169 1344 3169 
Q 1525 3169 1714 3122 
Q 1903 3075 2022 3009 
L 2094 3172 
L 2319 3172 
L 2366 2181 
L 2150 2181 
Q 2084 2513 1867 2720 
Q 1650 2928 1338 2928 
Q 1081 2928 934 2800 
Q 788 2672 788 2491 
Q 788 2350 836 2256 
Q 884 2163 981 2097 
Q 1075 2034 1217 1979 
Q 1359 1925 1569 1856 
Q 1775 1791 1958 1703 
Q 2141 1616 2259 1509 
z
" transform="scale(0.015625)"/>
       <path id="Georgia-29" d="M 2034 1863 
Q 2034 588 1548 -165 
Q 1063 -919 209 -1025 
L 209 -769 
Q 822 -656 1128 5 
Q 1434 666 1434 1856 
Q 1434 3106 1121 3762 
Q 809 4419 209 4528 
L 209 4788 
Q 1063 4675 1548 3917 
Q 2034 3159 2034 1863 
z
" transform="scale(0.015625)"/>
      </defs>
      <use xlink:href="#Georgia-74"/>
      <use xlink:href="#Georgia-69" x="34.521484"/>
      <use xlink:href="#Georgia-6d" x="63.818359"/>
      <use xlink:href="#Georgia-65" x="151.904297"/>
      <use xlink:href="#Georgia-20" x="200.244141"/>
      <use xlink:href="#Georgia-28" x="224.365234"/>
      <use xlink:href="#Georgia-6d" x="261.865234"/>
      <use xlink:href="#Georgia-6f" x="349.951172"/>
      <use xlink:href="#Georgia-6e" x="403.857422"/>
      <use xlink:href="#Georgia-74" x="462.939453"/>
      <use xlink:href="#Georgia-68" x="497.460938"/>
      <use xlink:href="#Georgia-73" x="555.664062"/>
      <use xlink:href="#Georgia-29" x="598.876953"/>
     </g>
    </g>
   </g>
   <g id="matplotlib.axis_2">
    <g id="ytick_1">
     <g id="line2d_6">
      <defs>
       <path id="m2d2f750c0c" d="M 0 0 
L -3.5 0 
" style="stroke: #5b6b7f; stroke-width: 0.8"/>
      </defs>
      <g>
       <use xlink:href="#m2d2f750c0c" x="55.203125" y="215.47" style="fill: #5b6b7f; stroke: #5b6b7f; stroke-width: 0.8"/>
      </g>
     </g>
     <g id="text_7">
      <!-- 0.00 -->
      <g style="fill: #5b6b7f" transform="translate(22.87375 220.005625) scale(0.12 -0.12)">
       <defs>
        <path id="Georgia-2e" d="M 1297 359 
Q 1297 184 1170 60 
Q 1044 -63 869 -63 
Q 694 -63 567 60 
Q 441 184 441 359 
Q 441 534 567 661 
Q 694 788 869 788 
Q 1044 788 1170 661 
Q 1297 534 1297 359 
z
" transform="scale(0.015625)"/>
       </defs>
       <use xlink:href="#Georgia-30"/>
       <use xlink:href="#Georgia-2e" x="61.376953"/>
       <use xlink:href="#Georgia-30" x="88.330078"/>
       <use xlink:href="#Georgia-30" x="149.707031"/>
      </g>
     </g>
    </g>
    <g id="ytick_2">
     <g id="line2d_7">
      <g>
       <use xlink:href="#m2d2f750c0c" x="55.203125" y="165.552222" style="fill: #5b6b7f; stroke: #5b6b7f; stroke-width: 0.8"/>
      </g>
     </g>
     <g id="text_8">
      <!-- 0.05 -->
      <g style="fill: #5b6b7f" transform="translate(23.899375 170.087847) scale(0.12 -0.12)">
       <use xlink:href="#Georgia-30"/>
       <use xlink:href="#Georgia-2e" x="61.376953"/>
       <use xlink:href="#Georgia-30" x="88.330078"/>
       <use xlink:href="#Georgia-35" x="149.707031"/>
      </g>
     </g>
    </g>
    <g id="ytick_3">
     <g id="line2d_8">
      <g>
       <use xlink:href="#m2d2f750c0c" x="55.203125" y="115.634444" style="fill: #5b6b7f; stroke: #5b6b7f; stroke-width: 0.8"/>
      </g>
     </g>
     <g id="text_9">
      <!-- 0.10 -->
      <g style="fill: #5b6b7f" transform="translate(25.0825 120.170069) scale(0.12 -0.12)">
       <use xlink:href="#Georgia-30"/>
       <use xlink:href="#Georgia-2e" x="61.376953"/>
       <use xlink:href="#Georgia-31" x="88.330078"/>
       <use xlink:href="#Georgia-30" x="131.298828"/>
      </g>
     </g>
    </g>
    <g id="ytick_4">
     <g id="line2d_9">
      <g>
       <use xlink:href="#m2d2f750c0c" x="55.203125" y="65.716667" style="fill: #5b6b7f; stroke: #5b6b7f; stroke-width: 0.8"/>
      </g>
     </g>
     <g id="text_10">
      <!-- 0.15 -->
      <g style="fill: #5b6b7f" transform="translate(26.108125 70.252292) scale(0.12 -0.12)">
       <use xlink:href="#Georgia-30"/>
       <use xlink:href="#Georgia-2e" x="61.376953"/>
       <use xlink:href="#Georgia-31" x="88.330078"/>
       <use xlink:href="#Georgia-35" x="131.298828"/>
      </g>
     </g>
    </g>
    <g id="text_11">
     <!-- hazard $h(t)$ -->
     <g style="fill: #33415a" transform="translate(16.27125 156.038) rotate(-90) scale(0.12 -0.12)">
      <defs>
       <path id="Georgia-61" d="M 3144 56 
Q 2997 3 2886 -30 
Q 2775 -63 2634 -63 
Q 2391 -63 2245 51 
Q 2100 166 2059 384 
L 2041 384 
Q 1838 159 1605 40 
Q 1372 -78 1044 -78 
Q 697 -78 473 134 
Q 250 347 250 691 
Q 250 869 300 1009 
Q 350 1150 450 1263 
Q 528 1356 656 1429 
Q 784 1503 897 1547 
Q 1038 1600 1467 1744 
Q 1897 1888 2047 1969 
L 2047 2278 
Q 2047 2319 2030 2434 
Q 2013 2550 1956 2653 
Q 1894 2769 1780 2855 
Q 1666 2941 1456 2941 
Q 1313 2941 1189 2892 
Q 1066 2844 1016 2791 
Q 1016 2728 1045 2606 
Q 1075 2484 1075 2381 
Q 1075 2272 976 2181 
Q 878 2091 703 2091 
Q 547 2091 473 2202 
Q 400 2313 400 2450 
Q 400 2594 501 2725 
Q 603 2856 766 2959 
Q 906 3047 1106 3108 
Q 1306 3169 1497 3169 
Q 1759 3169 1954 3133 
Q 2150 3097 2309 2978 
Q 2469 2863 2551 2664 
Q 2634 2466 2634 2153 
Q 2634 1706 2625 1361 
Q 2616 1016 2616 606 
Q 2616 484 2658 412 
Q 2700 341 2788 291 
Q 2834 263 2936 259 
Q 3038 256 3144 256 
L 3144 56 
z
M 2053 1706 
Q 1788 1628 1588 1553 
Q 1388 1478 1216 1366 
Q 1059 1259 968 1114 
Q 878 969 878 769 
Q 878 509 1014 387 
Q 1150 266 1359 266 
Q 1581 266 1750 373 
Q 1919 481 2034 628 
L 2053 1706 
z
" transform="scale(0.015625)"/>
       <path id="Georgia-7a" d="M 2666 0 
L 172 0 
L 172 166 
L 1916 2828 
L 1484 2828 
Q 1213 2828 1059 2818 
Q 906 2809 778 2756 
Q 691 2722 614 2559 
Q 538 2397 481 2134 
L 291 2134 
L 291 3081 
L 2647 3081 
L 2647 2953 
L 875 253 
Q 988 250 1122 248 
Q 1256 247 1413 247 
Q 1538 247 1673 250 
Q 1809 253 2022 266 
Q 2147 272 2211 350 
Q 2275 428 2309 528 
Q 2344 619 2392 778 
Q 2441 938 2478 1088 
L 2666 1088 
L 2666 0 
z
" transform="scale(0.015625)"/>
       <path id="Georgia-72" d="M 2584 2684 
Q 2584 2525 2506 2401 
Q 2428 2278 2266 2278 
Q 2091 2278 1998 2368 
Q 1906 2459 1906 2569 
Q 1906 2638 1917 2694 
Q 1928 2750 1938 2806 
Q 1791 2806 1594 2687 
Q 1397 2569 1259 2350 
L 1259 556 
Q 1259 447 1301 378 
Q 1344 309 1434 275 
Q 1513 244 1636 228 
Q 1759 213 1850 206 
L 1850 0 
L 225 0 
L 225 206 
Q 297 213 373 219 
Q 450 225 506 244 
Q 594 272 636 342 
Q 678 413 678 525 
L 678 2428 
Q 678 2525 633 2619 
Q 588 2713 506 2769 
Q 447 2806 365 2823 
Q 284 2841 191 2847 
L 191 3050 
L 1216 3119 
L 1259 3075 
L 1259 2641 
L 1275 2641 
Q 1469 2894 1706 3025 
Q 1944 3156 2141 3156 
Q 2338 3156 2461 3028 
Q 2584 2900 2584 2684 
z
" transform="scale(0.015625)"/>
       <path id="Georgia-64" d="M 3600 56 
L 2525 -13 
L 2478 31 
L 2478 319 
L 2453 325 
Q 2291 144 2052 28 
Q 1813 -88 1559 -88 
Q 1297 -88 1051 29 
Q 806 147 625 359 
Q 441 575 333 878 
Q 225 1181 225 1547 
Q 225 1881 340 2181 
Q 456 2481 659 2706 
Q 850 2916 1126 3041 
Q 1403 3166 1691 3166 
Q 1906 3166 2114 3111 
Q 2322 3056 2472 2972 
L 2472 4044 
Q 2472 4175 2428 4283 
Q 2384 4391 2306 4447 
Q 2219 4506 2070 4532 
Q 1922 4559 1750 4572 
L 1750 4766 
L 3009 4838 
L 3056 4791 
L 3056 634 
Q 3056 525 3098 448 
Q 3141 372 3222 319 
Q 3281 281 3393 272 
Q 3506 263 3600 259 
L 3600 56 
z
M 2472 597 
L 2472 2400 
Q 2447 2481 2390 2575 
Q 2334 2669 2250 2747 
Q 2159 2825 2037 2876 
Q 1916 2928 1753 2928 
Q 1566 2928 1408 2831 
Q 1250 2734 1128 2553 
Q 1013 2378 945 2108 
Q 878 1838 878 1509 
Q 878 1247 928 1033 
Q 978 819 1097 634 
Q 1206 459 1376 353 
Q 1547 247 1781 247 
Q 2031 247 2195 356 
Q 2359 466 2472 597 
z
" transform="scale(0.015625)"/>
       <path id="DejaVuSans-Oblique-68" d="M 3566 2113 
L 3156 0 
L 2578 0 
L 2988 2091 
Q 3016 2238 3031 2350 
Q 3047 2463 3047 2528 
Q 3047 2791 2881 2937 
Q 2716 3084 2419 3084 
Q 1956 3084 1617 2771 
Q 1278 2459 1178 1941 
L 800 0 
L 225 0 
L 1172 4863 
L 1747 4863 
L 1375 2950 
Q 1594 3244 1934 3414 
Q 2275 3584 2650 3584 
Q 3113 3584 3367 3334 
Q 3622 3084 3622 2631 
Q 3622 2519 3608 2391 
Q 3594 2263 3566 2113 
z
" transform="scale(0.015625)"/>
       <path id="DejaVuSans-28" d="M 1984 4856 
Q 1566 4138 1362 3434 
Q 1159 2731 1159 2009 
Q 1159 1288 1364 580 
Q 1569 -128 1984 -844 
L 1484 -844 
Q 1016 -109 783 600 
Q 550 1309 550 2009 
Q 550 2706 781 3412 
Q 1013 4119 1484 4856 
L 1984 4856 
z
" transform="scale(0.015625)"/>
       <path id="DejaVuSans-Oblique-74" d="M 2706 3500 
L 2619 3053 
L 1472 3053 
L 1100 1153 
Q 1081 1047 1072 975 
Q 1063 903 1063 863 
Q 1063 663 1183 572 
Q 1303 481 1569 481 
L 2150 481 
L 2053 0 
L 1503 0 
Q 991 0 739 200 
Q 488 400 488 806 
Q 488 878 497 964 
Q 506 1050 525 1153 
L 897 3053 
L 409 3053 
L 500 3500 
L 978 3500 
L 1172 4494 
L 1747 4494 
L 1556 3500 
L 2706 3500 
z
" transform="scale(0.015625)"/>
       <path id="DejaVuSans-29" d="M 513 4856 
L 1013 4856 
Q 1481 4119 1714 3412 
Q 1947 2706 1947 2009 
Q 1947 1309 1714 600 
Q 1481 -109 1013 -844 
L 513 -844 
Q 928 -128 1133 580 
Q 1338 1288 1338 2009 
Q 1338 2731 1133 3434 
Q 928 4138 513 4856 
z
" transform="scale(0.015625)"/>
      </defs>
      <use xlink:href="#Georgia-68" transform="translate(0 0.015625)"/>
      <use xlink:href="#Georgia-61" transform="translate(58.203125 0.015625)"/>
      <use xlink:href="#Georgia-7a" transform="translate(108.59375 0.015625)"/>
      <use xlink:href="#Georgia-61" transform="translate(152.978516 0.015625)"/>
      <use xlink:href="#Georgia-72" transform="translate(203.369141 0.015625)"/>
      <use xlink:href="#Georgia-64" transform="translate(244.335938 0.015625)"/>
      <use xlink:href="#Georgia-20" transform="translate(301.757812 0.015625)"/>
      <use xlink:href="#DejaVuSans-Oblique-68" transform="translate(325.878906 0.015625)"/>
      <use xlink:href="#DejaVuSans-28" transform="translate(389.257812 0.015625)"/>
      <use xlink:href="#DejaVuSans-Oblique-74" transform="translate(428.271484 0.015625)"/>
      <use xlink:href="#DejaVuSans-29" transform="translate(467.480469 0.015625)"/>
     </g>
    </g>
   </g>
   <g id="line2d_10">
    <path d="M 57.783417 195.143481 
L 364.838125 152.373929 
L 364.838125 152.373929 
" clip-path="url(#paddeb748ce)" style="fill: none; stroke: #1c7293; stroke-width: 2.2; stroke-linecap: square"/>
   </g>
   <g id="line2d_11">
    <path d="M 57.783417 166.686354 
L 364.838125 64.039429 
L 364.838125 64.039429 
" clip-path="url(#paddeb748ce)" style="fill: none; stroke: #ef6f6c; stroke-width: 2.2; stroke-linecap: square"/>
   </g>
   <g id="patch_3">
    <path d="M 55.203125 215.47 
L 55.203125 35.766 
" style="fill: none; stroke: #5b6b7f; stroke-width: 0.8; stroke-linejoin: miter; stroke-linecap: square"/>
   </g>
   <g id="patch_4">
    <path d="M 55.203125 215.47 
L 364.838125 215.47 
" style="fill: none; stroke: #5b6b7f; stroke-width: 0.8; stroke-linejoin: miter; stroke-linecap: square"/>
   </g>
   <g id="text_12">
    <!-- Proportional hazards — holds -->
    <g style="fill: #1b2a41" transform="translate(131.536875 16.278) scale(0.12 -0.12)">
     <defs>
      <path id="Georgia-50" d="M 3700 3341 
Q 3700 2994 3564 2726 
Q 3428 2459 3188 2284 
Q 2950 2109 2665 2028 
Q 2381 1947 2063 1947 
L 1566 1947 
L 1566 603 
Q 1566 494 1602 411 
Q 1638 328 1750 284 
Q 1806 263 1948 244 
Q 2091 225 2209 222 
L 2209 0 
L 306 0 
L 306 222 
Q 381 228 523 243 
Q 666 259 722 284 
Q 816 325 858 403 
Q 900 481 900 603 
L 900 3803 
Q 900 3913 869 4000 
Q 838 4088 722 4131 
Q 603 4172 486 4189 
Q 369 4206 284 4213 
L 284 4434 
L 2309 4434 
Q 2928 4434 3314 4136 
Q 3700 3838 3700 3341 
z
M 2750 2584 
Q 2856 2734 2890 2895 
Q 2925 3056 2925 3184 
Q 2925 3363 2883 3547 
Q 2841 3731 2738 3869 
Q 2628 4016 2450 4097 
Q 2272 4178 2006 4178 
L 1566 4178 
L 1566 2219 
L 1884 2219 
Q 2222 2219 2433 2323 
Q 2644 2428 2750 2584 
z
" transform="scale(0.015625)"/>
      <path id="Georgia-70" d="M 3041 2716 
Q 3225 2497 3326 2208 
Q 3428 1919 3428 1547 
Q 3428 1181 3306 879 
Q 3184 578 2984 366 
Q 2775 150 2519 34 
Q 2263 -81 1975 -81 
Q 1697 -81 1519 -18 
Q 1341 44 1228 128 
L 1203 128 
L 1203 -797 
Q 1203 -909 1247 -984 
Q 1291 -1059 1381 -1094 
Q 1456 -1122 1595 -1148 
Q 1734 -1175 1825 -1178 
L 1825 -1388 
L 103 -1388 
L 103 -1178 
Q 200 -1172 290 -1162 
Q 381 -1153 453 -1131 
Q 547 -1100 584 -1022 
Q 622 -944 622 -838 
L 622 2441 
Q 622 2534 575 2621 
Q 528 2709 453 2763 
Q 397 2800 297 2820 
Q 197 2841 103 2847 
L 103 3050 
L 1153 3119 
L 1197 3081 
L 1197 2734 
L 1222 2728 
Q 1384 2916 1625 3041 
Q 1866 3166 2103 3166 
Q 2391 3166 2630 3044 
Q 2869 2922 3041 2716 
z
M 2531 500 
Q 2656 694 2715 950 
Q 2775 1206 2775 1522 
Q 2775 1753 2725 1993 
Q 2675 2234 2569 2413 
Q 2463 2594 2291 2706 
Q 2119 2819 1878 2819 
Q 1647 2819 1484 2717 
Q 1322 2616 1203 2475 
L 1203 653 
Q 1231 569 1295 478 
Q 1359 388 1438 322 
Q 1534 244 1646 195 
Q 1759 147 1922 147 
Q 2097 147 2259 239 
Q 2422 331 2531 500 
z
" transform="scale(0.015625)"/>
      <path id="Georgia-6c" d="M 1669 0 
L 166 0 
L 166 206 
Q 238 213 319 220 
Q 400 228 453 244 
Q 541 272 584 342 
Q 628 413 628 525 
L 628 4094 
Q 628 4206 579 4304 
Q 531 4403 453 4459 
Q 397 4497 247 4528 
Q 97 4559 6 4566 
L 6 4766 
L 1166 4838 
L 1209 4791 
L 1209 563 
Q 1209 453 1250 383 
Q 1291 313 1381 275 
Q 1450 244 1517 228 
Q 1584 213 1669 206 
L 1669 0 
z
" transform="scale(0.015625)"/>
      <path id="Georgia-2014" d="M 5166 1553 
L 319 1553 
L 319 1944 
L 5166 1944 
L 5166 1553 
z
" transform="scale(0.015625)"/>
     </defs>
     <use xlink:href="#Georgia-50"/>
     <use xlink:href="#Georgia-72" x="60.986328"/>
     <use xlink:href="#Georgia-6f" x="101.953125"/>
     <use xlink:href="#Georgia-70" x="155.859375"/>
     <use xlink:href="#Georgia-6f" x="212.988281"/>
     <use xlink:href="#Georgia-72" x="266.894531"/>
     <use xlink:href="#Georgia-74" x="307.861328"/>
     <use xlink:href="#Georgia-69" x="342.382812"/>
     <use xlink:href="#Georgia-6f" x="371.679688"/>
     <use xlink:href="#Georgia-6e" x="425.585938"/>
     <use xlink:href="#Georgia-61" x="484.667969"/>
     <use xlink:href="#Georgia-6c" x="535.058594"/>
     <use xlink:href="#Georgia-20" x="563.671875"/>
     <use xlink:href="#Georgia-68" x="587.792969"/>
     <use xlink:href="#Georgia-61" x="645.996094"/>
     <use xlink:href="#Georgia-7a" x="696.386719"/>
     <use xlink:href="#Georgia-61" x="740.771484"/>
     <use xlink:href="#Georgia-72" x="791.162109"/>
     <use xlink:href="#Georgia-64" x="832.128906"/>
     <use xlink:href="#Georgia-73" x="889.550781"/>
     <use xlink:href="#Georgia-20" x="932.763672"/>
     <use xlink:href="#Georgia-2014" x="956.884766"/>
     <use xlink:href="#Georgia-20" x="1042.578125"/>
     <use xlink:href="#Georgia-68" x="1066.699219"/>
     <use xlink:href="#Georgia-6f" x="1124.902344"/>
     <use xlink:href="#Georgia-6c" x="1178.808594"/>
     <use xlink:href="#Georgia-64" x="1207.421875"/>
     <use xlink:href="#Georgia-73" x="1264.84375"/>
    </g>
    <!-- constant ratio, curves never cross -->
    <g style="fill: #1b2a41" transform="translate(121.769063 29.766) scale(0.12 -0.12)">
     <defs>
      <path id="Georgia-63" d="M 1650 -81 
Q 981 -81 603 362 
Q 225 806 225 1553 
Q 225 1878 326 2161 
Q 428 2444 622 2675 
Q 806 2897 1084 3033 
Q 1363 3169 1691 3169 
Q 2144 3169 2428 2951 
Q 2713 2734 2713 2359 
Q 2713 2203 2638 2083 
Q 2563 1963 2391 1963 
Q 2206 1963 2104 2056 
Q 2003 2150 2003 2266 
Q 2003 2406 2040 2554 
Q 2078 2703 2084 2772 
Q 2028 2869 1917 2901 
Q 1806 2934 1678 2934 
Q 1528 2934 1392 2870 
Q 1256 2806 1128 2634 
Q 1013 2478 941 2212 
Q 869 1947 869 1578 
Q 869 997 1126 630 
Q 1384 263 1803 263 
Q 2106 263 2311 409 
Q 2516 556 2691 850 
L 2891 719 
Q 2684 350 2346 134 
Q 2009 -81 1650 -81 
z
" transform="scale(0.015625)"/>
      <path id="Georgia-2c" d="M 1341 109 
Q 1341 -116 1239 -316 
Q 1138 -516 1006 -659 
Q 872 -809 722 -925 
Q 572 -1041 447 -1106 
L 303 -897 
Q 453 -803 572 -709 
Q 691 -616 766 -522 
Q 859 -413 925 -284 
Q 991 -156 1009 6 
L 850 6 
Q 641 6 523 115 
Q 406 225 406 409 
Q 406 541 512 664 
Q 619 788 803 788 
Q 1072 788 1206 608 
Q 1341 428 1341 109 
z
" transform="scale(0.015625)"/>
      <path id="Georgia-75" d="M 3528 56 
L 2525 -13 
L 2478 31 
L 2478 422 
L 2459 422 
Q 2384 344 2290 255 
Q 2197 166 2075 94 
Q 1934 9 1803 -34 
Q 1672 -78 1431 -78 
Q 1022 -78 808 189 
Q 594 456 594 966 
L 594 2441 
Q 594 2553 551 2629 
Q 509 2706 428 2763 
Q 372 2800 287 2817 
Q 203 2834 109 2841 
L 109 3044 
L 1138 3119 
L 1184 3075 
L 1184 934 
Q 1184 600 1334 431 
Q 1484 263 1694 263 
Q 1866 263 2000 316 
Q 2134 369 2225 441 
Q 2309 506 2373 579 
Q 2438 653 2472 716 
L 2472 2463 
Q 2472 2566 2428 2645 
Q 2384 2725 2306 2781 
Q 2250 2819 2139 2826 
Q 2028 2834 1891 2841 
L 1891 3044 
L 3009 3119 
L 3056 3075 
L 3056 628 
Q 3056 522 3100 447 
Q 3144 372 3222 319 
Q 3278 284 3356 273 
Q 3434 263 3528 259 
L 3528 56 
z
" transform="scale(0.015625)"/>
      <path id="Georgia-76" d="M 3269 2891 
Q 3128 2866 3001 2789 
Q 2875 2713 2784 2519 
Q 2600 2100 2403 1645 
Q 2206 1191 1994 691 
Q 1931 547 1861 350 
Q 1791 153 1731 -28 
L 1488 -28 
Q 1191 706 941 1311 
Q 691 1916 422 2550 
Q 359 2694 220 2773 
Q 81 2853 -59 2875 
L -59 3081 
L 1366 3081 
L 1366 2863 
Q 1272 2859 1131 2823 
Q 991 2788 991 2725 
Q 991 2716 1006 2677 
Q 1022 2638 1038 2588 
Q 1166 2269 1400 1697 
Q 1634 1125 1781 775 
Q 1894 1044 2064 1444 
Q 2234 1844 2431 2338 
Q 2463 2422 2491 2495 
Q 2519 2569 2519 2644 
Q 2519 2697 2467 2739 
Q 2416 2781 2344 2813 
Q 2272 2844 2203 2859 
Q 2134 2875 2091 2881 
L 2091 3081 
L 3269 3081 
L 3269 2891 
z
" transform="scale(0.015625)"/>
     </defs>
     <use xlink:href="#Georgia-63"/>
     <use xlink:href="#Georgia-6f" x="45.410156"/>
     <use xlink:href="#Georgia-6e" x="99.316406"/>
     <use xlink:href="#Georgia-73" x="158.398438"/>
     <use xlink:href="#Georgia-74" x="201.611328"/>
     <use xlink:href="#Georgia-61" x="236.132812"/>
     <use xlink:href="#Georgia-6e" x="286.523438"/>
     <use xlink:href="#Georgia-74" x="345.605469"/>
     <use xlink:href="#Georgia-20" x="380.126953"/>
     <use xlink:href="#Georgia-72" x="404.248047"/>
     <use xlink:href="#Georgia-61" x="445.214844"/>
     <use xlink:href="#Georgia-74" x="495.605469"/>
     <use xlink:href="#Georgia-69" x="530.126953"/>
     <use xlink:href="#Georgia-6f" x="559.423828"/>
     <use xlink:href="#Georgia-2c" x="613.330078"/>
     <use xlink:href="#Georgia-20" x="640.283203"/>
     <use xlink:href="#Georgia-63" x="664.404297"/>
     <use xlink:href="#Georgia-75" x="709.814453"/>
     <use xlink:href="#Georgia-72" x="767.333984"/>
     <use xlink:href="#Georgia-76" x="808.300781"/>
     <use xlink:href="#Georgia-65" x="857.958984"/>
     <use xlink:href="#Georgia-73" x="906.298828"/>
     <use xlink:href="#Georgia-20" x="949.511719"/>
     <use xlink:href="#Georgia-6e" x="973.632812"/>
     <use xlink:href="#Georgia-65" x="1032.714844"/>
     <use xlink:href="#Georgia-76" x="1081.054688"/>
     <use xlink:href="#Georgia-65" x="1130.712891"/>
     <use xlink:href="#Georgia-72" x="1179.052734"/>
     <use xlink:href="#Georgia-20" x="1220.019531"/>
     <use xlink:href="#Georgia-63" x="1244.140625"/>
     <use xlink:href="#Georgia-72" x="1289.550781"/>
     <use xlink:href="#Georgia-6f" x="1330.517578"/>
     <use xlink:href="#Georgia-73" x="1384.423828"/>
     <use xlink:href="#Georgia-73" x="1427.636719"/>
    </g>
   </g>
   <g id="legend_1">
    <g id="line2d_12">
     <path d="M 63.303125 47.519438 
L 72.303125 47.519438 
L 81.303125 47.519438 
" style="fill: none; stroke: #1c7293; stroke-width: 2.2; stroke-linecap: square"/>
    </g>
    <g id="text_13">
     <!-- patient A (baseline) -->
     <g style="fill: #33415a" transform="translate(88.503125 50.669438) scale(0.09 -0.09)">
      <defs>
       <path id="Georgia-41" d="M 4441 0 
L 2594 0 
L 2594 222 
Q 2838 238 2998 284 
Q 3159 331 3159 400 
Q 3159 428 3153 468 
Q 3147 509 3134 541 
L 2766 1534 
L 1213 1534 
Q 1125 1316 1070 1153 
Q 1016 991 972 853 
Q 931 719 915 634 
Q 900 550 900 497 
Q 900 372 1097 303 
Q 1294 234 1541 222 
L 1541 0 
L -128 0 
L -128 222 
Q -47 228 75 258 
Q 197 288 275 338 
Q 400 422 469 514 
Q 538 606 603 769 
Q 938 1603 1341 2643 
Q 1744 3684 2059 4497 
L 2309 4497 
L 3788 672 
Q 3834 550 3893 475 
Q 3953 400 4059 328 
Q 4131 284 4247 254 
Q 4363 225 4441 222 
L 4441 0 
z
M 2653 1813 
L 1981 3531 
L 1322 1813 
L 2653 1813 
z
" transform="scale(0.015625)"/>
       <path id="Georgia-62" d="M 3353 1544 
Q 3353 850 2915 378 
Q 2478 -94 1900 -94 
Q 1647 -94 1401 -15 
Q 1156 63 941 194 
L 709 -166 
L 516 -122 
Q 531 109 537 434 
Q 544 759 544 1063 
L 544 4113 
Q 544 4219 495 4325 
Q 447 4431 372 4478 
Q 313 4519 173 4539 
Q 34 4559 -50 4566 
L -50 4766 
L 1081 4838 
L 1125 4791 
L 1125 2759 
L 1147 2753 
Q 1341 2959 1570 3062 
Q 1800 3166 2022 3166 
Q 2591 3166 2972 2716 
Q 3353 2266 3353 1544 
z
M 2700 1522 
Q 2700 1753 2650 1993 
Q 2600 2234 2494 2413 
Q 2388 2594 2216 2706 
Q 2044 2819 1803 2819 
Q 1584 2819 1420 2733 
Q 1256 2647 1125 2500 
L 1125 706 
Q 1144 631 1198 531 
Q 1253 431 1347 341 
Q 1441 253 1559 198 
Q 1678 144 1850 144 
Q 2231 144 2465 512 
Q 2700 881 2700 1522 
z
" transform="scale(0.015625)"/>
      </defs>
      <use xlink:href="#Georgia-70"/>
      <use xlink:href="#Georgia-61" x="57.128906"/>
      <use xlink:href="#Georgia-74" x="107.519531"/>
      <use xlink:href="#Georgia-69" x="142.041016"/>
      <use xlink:href="#Georgia-65" x="171.337891"/>
      <use xlink:href="#Georgia-6e" x="219.677734"/>
      <use xlink:href="#Georgia-74" x="278.759766"/>
      <use xlink:href="#Georgia-20" x="313.28125"/>
      <use xlink:href="#Georgia-41" x="337.402344"/>
      <use xlink:href="#Georgia-20" x="404.492188"/>
      <use xlink:href="#Georgia-28" x="428.613281"/>
      <use xlink:href="#Georgia-62" x="466.113281"/>
      <use xlink:href="#Georgia-61" x="522.119141"/>
      <use xlink:href="#Georgia-73" x="572.509766"/>
      <use xlink:href="#Georgia-65" x="615.722656"/>
      <use xlink:href="#Georgia-6c" x="664.0625"/>
      <use xlink:href="#Georgia-69" x="692.675781"/>
      <use xlink:href="#Georgia-6e" x="721.972656"/>
      <use xlink:href="#Georgia-65" x="781.054688"/>
      <use xlink:href="#Georgia-29" x="829.394531"/>
     </g>
    </g>
    <g id="line2d_13">
     <path d="M 63.303125 60.77475 
L 72.303125 60.77475 
L 81.303125 60.77475 
" style="fill: none; stroke: #ef6f6c; stroke-width: 2.2; stroke-linecap: square"/>
    </g>
    <g id="text_14">
     <!-- patient B ($\times2.4$) -->
     <g style="fill: #33415a" transform="translate(88.503125 63.92475) scale(0.09 -0.09)">
      <defs>
       <path id="Georgia-42" d="M 3450 2066 
Q 3644 1934 3772 1721 
Q 3900 1509 3900 1206 
Q 3900 897 3765 669 
Q 3631 441 3416 294 
Q 3206 150 2942 75 
Q 2678 0 2397 0 
L 297 0 
L 297 222 
Q 372 228 515 248 
Q 659 269 722 297 
Q 819 341 859 414 
Q 900 488 900 603 
L 900 3791 
Q 900 3897 864 3978 
Q 828 4059 722 4109 
Q 628 4156 512 4181 
Q 397 4206 319 4213 
L 319 4434 
L 2366 4434 
Q 2603 4434 2820 4387 
Q 3038 4341 3234 4222 
Q 3419 4113 3537 3925 
Q 3656 3738 3656 3469 
Q 3656 3234 3572 3051 
Q 3488 2869 3334 2738 
Q 3191 2613 3005 2527 
Q 2819 2441 2603 2394 
L 2603 2366 
Q 2794 2344 3030 2270 
Q 3266 2197 3450 2066 
z
M 2697 2734 
Q 2813 2869 2858 3028 
Q 2903 3188 2903 3406 
Q 2903 3772 2703 3980 
Q 2503 4188 2072 4188 
Q 1972 4188 1820 4183 
Q 1669 4178 1566 4175 
L 1566 2472 
L 1963 2472 
Q 2219 2472 2401 2537 
Q 2584 2603 2697 2734 
z
M 3128 1319 
Q 3128 1713 2864 1966 
Q 2600 2219 2109 2219 
Q 1909 2219 1771 2214 
Q 1634 2209 1566 2206 
L 1566 644 
Q 1566 447 1725 347 
Q 1884 247 2169 247 
Q 2634 247 2881 519 
Q 3128 791 3128 1319 
z
" transform="scale(0.015625)"/>
       <path id="DejaVuSans-d7" d="M 4488 3438 
L 3059 2003 
L 4488 575 
L 4116 197 
L 2681 1631 
L 1247 197 
L 878 575 
L 2303 2003 
L 878 3438 
L 1247 3816 
L 2681 2381 
L 4116 3816 
L 4488 3438 
z
" transform="scale(0.015625)"/>
       <path id="DejaVuSans-32" d="M 1228 531 
L 3431 531 
L 3431 0 
L 469 0 
L 469 531 
Q 828 903 1448 1529 
Q 2069 2156 2228 2338 
Q 2531 2678 2651 2914 
Q 2772 3150 2772 3378 
Q 2772 3750 2511 3984 
Q 2250 4219 1831 4219 
Q 1534 4219 1204 4116 
Q 875 4013 500 3803 
L 500 4441 
Q 881 4594 1212 4672 
Q 1544 4750 1819 4750 
Q 2544 4750 2975 4387 
Q 3406 4025 3406 3419 
Q 3406 3131 3298 2873 
Q 3191 2616 2906 2266 
Q 2828 2175 2409 1742 
Q 1991 1309 1228 531 
z
" transform="scale(0.015625)"/>
       <path id="DejaVuSans-2e" d="M 684 794 
L 1344 794 
L 1344 0 
L 684 0 
L 684 794 
z
" transform="scale(0.015625)"/>
       <path id="DejaVuSans-34" d="M 2419 4116 
L 825 1625 
L 2419 1625 
L 2419 4116 
z
M 2253 4666 
L 3047 4666 
L 3047 1625 
L 3713 1625 
L 3713 1100 
L 3047 1100 
L 3047 0 
L 2419 0 
L 2419 1100 
L 313 1100 
L 313 1709 
L 2253 4666 
z
" transform="scale(0.015625)"/>
      </defs>
      <use xlink:href="#Georgia-70" transform="translate(0 0.1875)"/>
      <use xlink:href="#Georgia-61" transform="translate(57.128906 0.1875)"/>
      <use xlink:href="#Georgia-74" transform="translate(107.519531 0.1875)"/>
      <use xlink:href="#Georgia-69" transform="translate(142.041016 0.1875)"/>
      <use xlink:href="#Georgia-65" transform="translate(171.337891 0.1875)"/>
      <use xlink:href="#Georgia-6e" transform="translate(219.677734 0.1875)"/>
      <use xlink:href="#Georgia-74" transform="translate(278.759766 0.1875)"/>
      <use xlink:href="#Georgia-20" transform="translate(313.28125 0.1875)"/>
      <use xlink:href="#Georgia-42" transform="translate(337.402344 0.1875)"/>
      <use xlink:href="#Georgia-20" transform="translate(402.783203 0.1875)"/>
      <use xlink:href="#Georgia-28" transform="translate(426.904297 0.1875)"/>
      <use xlink:href="#DejaVuSans-d7" transform="translate(464.404297 0.1875)"/>
      <use xlink:href="#DejaVuSans-32" transform="translate(548.193359 0.1875)"/>
      <use xlink:href="#DejaVuSans-2e" transform="translate(611.816406 0.1875)"/>
      <use xlink:href="#DejaVuSans-34" transform="translate(643.603516 0.1875)"/>
      <use xlink:href="#Georgia-29" transform="translate(707.226562 0.1875)"/>
     </g>
    </g>
   </g>
  </g>
  <g id="axes_2">
   <g id="patch_5">
    <path d="M 381.488125 215.47 
L 691.123125 215.47 
L 691.123125 35.766 
L 381.488125 35.766 
z
" style="fill: #ffffff"/>
   </g>
   <g id="matplotlib.axis_3">
    <g id="xtick_6">
     <g id="line2d_14">
      <g>
       <use xlink:href="#m6f412d733b" x="381.488125" y="215.47" style="fill: #5b6b7f; stroke: #5b6b7f; stroke-width: 0.8"/>
      </g>
     </g>
     <g id="text_15">
      <!-- 0 -->
      <g style="fill: #5b6b7f" transform="translate(377.805625 231.54125) scale(0.12 -0.12)">
       <use xlink:href="#Georgia-30"/>
      </g>
     </g>
    </g>
    <g id="xtick_7">
     <g id="line2d_15">
      <g>
       <use xlink:href="#m6f412d733b" x="445.995417" y="215.47" style="fill: #5b6b7f; stroke: #5b6b7f; stroke-width: 0.8"/>
      </g>
     </g>
     <g id="text_16">
      <!-- 5 -->
      <g style="fill: #5b6b7f" transform="translate(442.825729 231.54125) scale(0.12 -0.12)">
       <use xlink:href="#Georgia-35"/>
      </g>
     </g>
    </g>
    <g id="xtick_8">
     <g id="line2d_16">
      <g>
       <use xlink:href="#m6f412d733b" x="510.502708" y="215.47" style="fill: #5b6b7f; stroke: #5b6b7f; stroke-width: 0.8"/>
      </g>
     </g>
     <g id="text_17">
      <!-- 10 -->
      <g style="fill: #5b6b7f" transform="translate(504.242083 231.54125) scale(0.12 -0.12)">
       <use xlink:href="#Georgia-31"/>
       <use xlink:href="#Georgia-30" x="42.96875"/>
      </g>
     </g>
    </g>
    <g id="xtick_9">
     <g id="line2d_17">
      <g>
       <use xlink:href="#m6f412d733b" x="575.01" y="215.47" style="fill: #5b6b7f; stroke: #5b6b7f; stroke-width: 0.8"/>
      </g>
     </g>
     <g id="text_18">
      <!-- 15 -->
      <g style="fill: #5b6b7f" transform="translate(569.262187 231.54125) scale(0.12 -0.12)">
       <use xlink:href="#Georgia-31"/>
       <use xlink:href="#Georgia-35" x="42.96875"/>
      </g>
     </g>
    </g>
    <g id="xtick_10">
     <g id="line2d_18">
      <g>
       <use xlink:href="#m6f412d733b" x="639.517292" y="215.47" style="fill: #5b6b7f; stroke: #5b6b7f; stroke-width: 0.8"/>
      </g>
     </g>
     <g id="text_19">
      <!-- 20 -->
      <g style="fill: #5b6b7f" transform="translate(632.483229 231.54125) scale(0.12 -0.12)">
       <use xlink:href="#Georgia-32"/>
       <use xlink:href="#Georgia-30" x="55.859375"/>
      </g>
     </g>
    </g>
    <g id="text_20">
     <!-- time (months) -->
     <g style="fill: #33415a" transform="translate(498.122187 247.215) scale(0.12 -0.12)">
      <use xlink:href="#Georgia-74"/>
      <use xlink:href="#Georgia-69" x="34.521484"/>
      <use xlink:href="#Georgia-6d" x="63.818359"/>
      <use xlink:href="#Georgia-65" x="151.904297"/>
      <use xlink:href="#Georgia-20" x="200.244141"/>
      <use xlink:href="#Georgia-28" x="224.365234"/>
      <use xlink:href="#Georgia-6d" x="261.865234"/>
      <use xlink:href="#Georgia-6f" x="349.951172"/>
      <use xlink:href="#Georgia-6e" x="403.857422"/>
      <use xlink:href="#Georgia-74" x="462.939453"/>
      <use xlink:href="#Georgia-68" x="497.460938"/>
      <use xlink:href="#Georgia-73" x="555.664062"/>
      <use xlink:href="#Georgia-29" x="598.876953"/>
     </g>
    </g>
   </g>
   <g id="matplotlib.axis_4">
    <g id="ytick_5">
     <g id="line2d_19">
      <g>
       <use xlink:href="#m2d2f750c0c" x="381.488125" y="215.47" style="fill: #5b6b7f; stroke: #5b6b7f; stroke-width: 0.8"/>
      </g>
     </g>
    </g>
    <g id="ytick_6">
     <g id="line2d_20">
      <g>
       <use xlink:href="#m2d2f750c0c" x="381.488125" y="165.552222" style="fill: #5b6b7f; stroke: #5b6b7f; stroke-width: 0.8"/>
      </g>
     </g>
    </g>
    <g id="ytick_7">
     <g id="line2d_21">
      <g>
       <use xlink:href="#m2d2f750c0c" x="381.488125" y="115.634444" style="fill: #5b6b7f; stroke: #5b6b7f; stroke-width: 0.8"/>
      </g>
     </g>
    </g>
    <g id="ytick_8">
     <g id="line2d_22">
      <g>
       <use xlink:href="#m2d2f750c0c" x="381.488125" y="65.716667" style="fill: #5b6b7f; stroke: #5b6b7f; stroke-width: 0.8"/>
      </g>
     </g>
    </g>
   </g>
   <g id="line2d_23">
    <path d="M 384.068417 197.060324 
L 691.123125 144.786427 
L 691.123125 144.786427 
" clip-path="url(#p659663c580)" style="fill: none; stroke: #1c7293; stroke-width: 2.2; stroke-linecap: square"/>
   </g>
   <g id="line2d_24">
    <path d="M 384.068417 51.543304 
L 387.91622 62.460582 
L 391.764023 72.593459 
L 395.611827 81.998293 
L 399.45963 90.727395 
L 403.307433 98.829315 
L 407.155237 106.349116 
L 411.00304 113.328622 
L 414.850844 119.806655 
L 418.698647 125.819244 
L 422.54645 131.399831 
L 426.394254 136.579456 
L 430.242057 141.386927 
L 434.08986 145.848984 
L 437.937664 149.990444 
L 441.785467 153.834342 
L 445.63327 157.402058 
L 449.481074 160.713436 
L 454.098438 164.374559 
L 458.715802 167.722336 
L 463.333166 170.783584 
L 467.95053 173.582827 
L 472.567894 176.14249 
L 477.954819 178.853216 
L 483.341743 181.295249 
L 488.728668 183.495221 
L 494.115593 185.477127 
L 500.272078 187.502769 
L 506.428564 189.300615 
L 513.35461 191.082683 
L 520.280656 192.640935 
L 527.976262 194.143891 
L 536.44143 195.557803 
L 545.676158 196.85745 
L 555.680447 198.026234 
L 566.454296 199.055665 
L 578.767267 199.996873 
L 592.619359 200.819142 
L 608.010572 201.507837 
L 626.480029 202.104097 
L 648.797288 202.590575 
L 676.501472 202.964093 
L 691.123125 203.093785 
L 691.123125 203.093785 
" clip-path="url(#p659663c580)" style="fill: none; stroke: #ef6f6c; stroke-width: 2.2; stroke-linecap: square"/>
   </g>
   <g id="patch_6">
    <path d="M 381.488125 215.47 
L 381.488125 35.766 
" style="fill: none; stroke: #5b6b7f; stroke-width: 0.8; stroke-linejoin: miter; stroke-linecap: square"/>
   </g>
   <g id="patch_7">
    <path d="M 381.488125 215.47 
L 691.123125 215.47 
" style="fill: none; stroke: #5b6b7f; stroke-width: 0.8; stroke-linejoin: miter; stroke-linecap: square"/>
   </g>
   <g id="text_21">
    <!-- Proportional hazards violated -->
    <g style="fill: #1b2a41" transform="translate(457.76375 16.27125) scale(0.12 -0.12)">
     <use xlink:href="#Georgia-50"/>
     <use xlink:href="#Georgia-72" x="60.986328"/>
     <use xlink:href="#Georgia-6f" x="101.953125"/>
     <use xlink:href="#Georgia-70" x="155.859375"/>
     <use xlink:href="#Georgia-6f" x="212.988281"/>
     <use xlink:href="#Georgia-72" x="266.894531"/>
     <use xlink:href="#Georgia-74" x="307.861328"/>
     <use xlink:href="#Georgia-69" x="342.382812"/>
     <use xlink:href="#Georgia-6f" x="371.679688"/>
     <use xlink:href="#Georgia-6e" x="425.585938"/>
     <use xlink:href="#Georgia-61" x="484.667969"/>
     <use xlink:href="#Georgia-6c" x="535.058594"/>
     <use xlink:href="#Georgia-20" x="563.671875"/>
     <use xlink:href="#Georgia-68" x="587.792969"/>
     <use xlink:href="#Georgia-61" x="645.996094"/>
     <use xlink:href="#Georgia-7a" x="696.386719"/>
     <use xlink:href="#Georgia-61" x="740.771484"/>
     <use xlink:href="#Georgia-72" x="791.162109"/>
     <use xlink:href="#Georgia-64" x="832.128906"/>
     <use xlink:href="#Georgia-73" x="889.550781"/>
     <use xlink:href="#Georgia-20" x="932.763672"/>
     <use xlink:href="#Georgia-76" x="956.884766"/>
     <use xlink:href="#Georgia-69" x="1006.542969"/>
     <use xlink:href="#Georgia-6f" x="1035.839844"/>
     <use xlink:href="#Georgia-6c" x="1089.746094"/>
     <use xlink:href="#Georgia-61" x="1118.359375"/>
     <use xlink:href="#Georgia-74" x="1168.75"/>
     <use xlink:href="#Georgia-65" x="1203.271484"/>
     <use xlink:href="#Georgia-64" x="1251.611328"/>
    </g>
    <!-- ratio flips, curves cross -->
    <g style="fill: #1b2a41" transform="translate(475.645625 29.766) scale(0.12 -0.12)">
     <defs>
      <path id="Georgia-66" d="M 2519 4466 
Q 2519 4325 2444 4228 
Q 2369 4131 2216 4131 
Q 2119 4131 2045 4172 
Q 1972 4213 1909 4281 
Q 1847 4350 1794 4437 
Q 1741 4525 1703 4578 
Q 1494 4569 1380 4286 
Q 1266 4003 1266 3384 
L 1266 3069 
L 2059 3069 
L 2059 2769 
L 1266 2769 
L 1266 556 
Q 1266 447 1308 378 
Q 1350 309 1441 275 
Q 1516 247 1641 230 
Q 1766 213 1856 206 
L 1856 0 
L 231 0 
L 231 206 
Q 303 213 379 219 
Q 456 225 513 244 
Q 600 272 642 342 
Q 684 413 684 525 
L 684 2769 
L 75 2769 
L 75 3069 
L 684 3069 
L 684 3266 
Q 684 3969 1048 4405 
Q 1413 4841 1959 4841 
Q 2238 4841 2378 4731 
Q 2519 4622 2519 4466 
z
" transform="scale(0.015625)"/>
     </defs>
     <use xlink:href="#Georgia-72"/>
     <use xlink:href="#Georgia-61" x="40.966797"/>
     <use xlink:href="#Georgia-74" x="91.357422"/>
     <use xlink:href="#Georgia-69" x="125.878906"/>
     <use xlink:href="#Georgia-6f" x="155.175781"/>
     <use xlink:href="#Georgia-20" x="209.082031"/>
     <use xlink:href="#Georgia-66" x="233.203125"/>
     <use xlink:href="#Georgia-6c" x="265.722656"/>
     <use xlink:href="#Georgia-69" x="294.335938"/>
     <use xlink:href="#Georgia-70" x="323.632812"/>
     <use xlink:href="#Georgia-73" x="380.761719"/>
     <use xlink:href="#Georgia-2c" x="423.974609"/>
     <use xlink:href="#Georgia-20" x="450.927734"/>
     <use xlink:href="#Georgia-63" x="475.048828"/>
     <use xlink:href="#Georgia-75" x="520.458984"/>
     <use xlink:href="#Georgia-72" x="577.978516"/>
     <use xlink:href="#Georgia-76" x="618.945312"/>
     <use xlink:href="#Georgia-65" x="668.603516"/>
     <use xlink:href="#Georgia-73" x="716.943359"/>
     <use xlink:href="#Georgia-20" x="760.15625"/>
     <use xlink:href="#Georgia-63" x="784.277344"/>
     <use xlink:href="#Georgia-72" x="829.6875"/>
     <use xlink:href="#Georgia-6f" x="870.654297"/>
     <use xlink:href="#Georgia-73" x="924.560547"/>
     <use xlink:href="#Georgia-73" x="967.773438"/>
    </g>
   </g>
   <g id="line2d_25">
    <defs>
     <path id="mcd68d422de" d="M 0 3.5 
C 0.928211 3.5 1.81853 3.131218 2.474874 2.474874 
C 3.131218 1.81853 3.5 0.928211 3.5 0 
C 3.5 -0.928211 3.131218 -1.81853 2.474874 -2.474874 
C 1.81853 -3.131218 0.928211 -3.5 0 -3.5 
C -0.928211 -3.5 -1.81853 -3.131218 -2.474874 -2.474874 
C -3.131218 -1.81853 -3.5 -0.928211 -3.5 0 
C -3.5 0.928211 -3.131218 1.81853 -2.474874 2.474874 
C -1.81853 3.131218 -0.928211 3.5 0 3.5 
z
" style="stroke: #1b2a41"/>
    </defs>
    <g clip-path="url(#p659663c580)">
     <use xlink:href="#mcd68d422de" x="481.802622" y="180.623338" style="fill: #1b2a41; stroke: #1b2a41"/>
    </g>
   </g>
   <g id="legend_2">
    <g id="line2d_26">
     <path d="M 590.792812 47.519437 
L 599.792812 47.519437 
L 608.792812 47.519437 
" style="fill: none; stroke: #1c7293; stroke-width: 2.2; stroke-linecap: square"/>
    </g>
    <g id="text_22">
     <!-- control -->
     <g style="fill: #33415a" transform="translate(615.992813 50.669437) scale(0.09 -0.09)">
      <use xlink:href="#Georgia-63"/>
      <use xlink:href="#Georgia-6f" x="45.410156"/>
      <use xlink:href="#Georgia-6e" x="99.316406"/>
      <use xlink:href="#Georgia-74" x="158.398438"/>
      <use xlink:href="#Georgia-72" x="192.919922"/>
      <use xlink:href="#Georgia-6f" x="233.886719"/>
      <use xlink:href="#Georgia-6c" x="287.792969"/>
     </g>
    </g>
    <g id="line2d_27">
     <path d="M 590.792812 60.77475 
L 599.792812 60.77475 
L 608.792812 60.77475 
" style="fill: none; stroke: #ef6f6c; stroke-width: 2.2; stroke-linecap: square"/>
    </g>
    <g id="text_23">
     <!-- treated (surgery) -->
     <g style="fill: #33415a" transform="translate(615.992813 63.92475) scale(0.09 -0.09)">
      <defs>
       <path id="Georgia-67" d="M 2866 319 
Q 2991 200 3062 50 
Q 3134 -100 3134 -322 
Q 3134 -544 3037 -739 
Q 2941 -934 2744 -1078 
Q 2534 -1225 2243 -1306 
Q 1953 -1388 1525 -1388 
Q 825 -1388 478 -1183 
Q 131 -978 131 -584 
Q 131 -266 381 -81 
Q 631 103 1019 119 
L 1019 163 
Q 925 191 825 233 
Q 725 275 653 331 
Q 572 397 522 486 
Q 472 575 472 706 
Q 472 872 589 1011 
Q 706 1150 944 1250 
L 944 1297 
Q 644 1438 478 1658 
Q 313 1878 313 2169 
Q 313 2606 639 2887 
Q 966 3169 1475 3169 
Q 1616 3169 1755 3141 
Q 1894 3113 2038 3069 
L 3113 3069 
L 3113 2769 
L 2388 2769 
L 2388 2750 
Q 2503 2616 2559 2453 
Q 2616 2291 2616 2134 
Q 2616 1728 2286 1447 
Q 1956 1166 1519 1166 
L 1141 1166 
Q 1069 1141 991 1075 
Q 913 1009 913 897 
Q 913 781 978 720 
Q 1044 659 1138 638 
Q 1228 613 1348 606 
Q 1469 600 1597 597 
Q 1734 594 1973 578 
Q 2213 563 2313 559 
Q 2456 553 2601 490 
Q 2747 428 2866 319 
z
M 2022 2147 
Q 2022 2513 1873 2730 
Q 1725 2947 1456 2947 
Q 1309 2947 1204 2886 
Q 1100 2825 1034 2713 
Q 972 2609 945 2464 
Q 919 2319 919 2166 
Q 919 1819 1070 1600 
Q 1222 1381 1463 1381 
Q 1731 1381 1876 1598 
Q 2022 1816 2022 2147 
z
M 2622 -438 
Q 2622 -263 2540 -150 
Q 2459 -38 2294 3 
Q 2206 16 1934 31 
Q 1663 47 1303 47 
Q 966 -19 823 -173 
Q 681 -328 681 -572 
Q 681 -681 728 -781 
Q 775 -881 891 -966 
Q 1000 -1047 1184 -1098 
Q 1369 -1150 1634 -1150 
Q 2094 -1150 2358 -973 
Q 2622 -797 2622 -438 
z
" transform="scale(0.015625)"/>
       <path id="Georgia-79" d="M -9 -1006 
Q -9 -850 77 -751 
Q 163 -653 291 -653 
Q 391 -653 462 -690 
Q 534 -728 591 -788 
Q 638 -834 691 -915 
Q 744 -997 775 -1050 
Q 931 -966 1148 -609 
Q 1366 -253 1463 16 
Q 1166 756 925 1340 
Q 684 1925 422 2550 
Q 363 2694 222 2773 
Q 81 2853 -59 2875 
L -59 3081 
L 1347 3081 
L 1347 2863 
Q 1253 2859 1122 2823 
Q 991 2788 991 2741 
Q 991 2722 1005 2678 
Q 1019 2634 1038 2588 
Q 1156 2278 1400 1695 
Q 1644 1113 1778 763 
Q 1919 1097 2070 1455 
Q 2222 1813 2409 2300 
Q 2431 2359 2472 2464 
Q 2513 2569 2513 2644 
Q 2513 2725 2370 2795 
Q 2228 2866 2100 2881 
L 2100 3081 
L 3244 3081 
L 3244 2888 
Q 3150 2872 2997 2780 
Q 2844 2688 2769 2519 
Q 2397 1656 2108 947 
Q 1819 238 1669 -97 
Q 1472 -534 1317 -779 
Q 1163 -1025 1016 -1166 
Q 872 -1297 755 -1342 
Q 638 -1388 513 -1388 
Q 269 -1388 130 -1272 
Q -9 -1156 -9 -1006 
z
" transform="scale(0.015625)"/>
      </defs>
      <use xlink:href="#Georgia-74"/>
      <use xlink:href="#Georgia-72" x="34.521484"/>
      <use xlink:href="#Georgia-65" x="75.488281"/>
      <use xlink:href="#Georgia-61" x="123.828125"/>
      <use xlink:href="#Georgia-74" x="174.21875"/>
      <use xlink:href="#Georgia-65" x="208.740234"/>
      <use xlink:href="#Georgia-64" x="257.080078"/>
      <use xlink:href="#Georgia-20" x="314.501953"/>
      <use xlink:href="#Georgia-28" x="338.623047"/>
      <use xlink:href="#Georgia-73" x="376.123047"/>
      <use xlink:href="#Georgia-75" x="419.335938"/>
      <use xlink:href="#Georgia-72" x="476.855469"/>
      <use xlink:href="#Georgia-67" x="517.822266"/>
      <use xlink:href="#Georgia-65" x="568.75"/>
      <use xlink:href="#Georgia-72" x="617.089844"/>
      <use xlink:href="#Georgia-79" x="658.056641"/>
      <use xlink:href="#Georgia-29" x="707.275391"/>
     </g>
    </g>
   </g>
  </g>
 </g>
 <defs>
  <clipPath id="paddeb748ce">
   <rect x="55.203125" y="35.766" width="309.635" height="179.704"/>
  </clipPath>
  <clipPath id="p659663c580">
   <rect x="381.488125" y="35.766" width="309.635" height="179.704"/>
  </clipPath>
 </defs>
</svg>
