<?xml version="1.0" encoding="utf-8" standalone="no"?>
<!DOCTYPE svg PUBLIC "-//W3C//DTD SVG 1.1//EN"
  "http://www.w3.org/Graphics/SVG/1.1/DTD/svg11.dtd">
<svg xmlns:xlink="http://www.w3.org/1999/xlink" width="504.33pt" height="290.313pt" viewBox="0 0 504.33 290.313" xmlns="http://www.w3.org/2000/svg" version="1.1">
 <metadata>
  <rdf:RDF xmlns:dc="http://purl.org/dc/elements/1.1/" xmlns:cc="http://creativecommons.org/ns#" xmlns:rdf="http://www.w3.org/1999/02/22-rdf-syntax-ns#">
   <cc:Work>
    <dc:type rdf:resource="http://purl.org/dc/dcmitype/StillImage"/>
    <dc:date>2026-07-16T21:25:05.702178</dc:date>
    <dc:format>image/svg+xml</dc:format>
    <dc:creator>
     <cc:Agent>
      <dc:title>Matplotlib v3.9.4, https://matplotlib.org/</dc:title>
     </cc:Agent>
    </dc:creator>
   </cc:Work>
  </rdf:RDF>
 </metadata>
 <defs>
  <style type="text/css">*{stroke-linejoin: round; stroke-linecap: butt}</style>
 </defs>
 <g id="figure_1">
  <g id="patch_1">
   <path d="M 0 290.313 
L 504.33 290.313 
L 504.33 0 
L 0 0 
z
" style="fill: #fbf7ef"/>
  </g>
  <g id="axes_1">
   <g id="patch_2">
    <path d="M 44.36 248.353 
L 491.37 248.353 
L 491.37 23.3655 
L 44.36 23.3655 
z
" style="fill: #fbf7ef"/>
   </g>
   <g id="matplotlib.axis_1">
    <g id="xtick_1">
     <g id="line2d_1">
      <defs>
       <path id="m1a3424f9a8" d="M 0 0 
L 0 3.5 
" style="stroke: #5f776c; stroke-width: 0.8"/>
      </defs>
      <g>
       <use xlink:href="#m1a3424f9a8" x="44.36" y="248.353" style="fill: #5f776c; stroke: #5f776c; stroke-width: 0.8"/>
      </g>
     </g>
     <g id="text_1">
      <!-- 0 -->
      <g style="fill: #5f776c" transform="translate(41.48 263.813) scale(0.12 -0.12)">
       <defs>
        <path id="EBGaramond-Regular-30" d="M 1571 -90 
Q 1245 -90 1005 89 
Q 765 269 605 566 
Q 445 864 368 1222 
Q 291 1581 291 1933 
Q 291 2298 368 2669 
Q 445 3040 608 3347 
Q 771 3654 1027 3843 
Q 1283 4032 1635 4032 
Q 1962 4032 2202 3853 
Q 2442 3674 2602 3376 
Q 2762 3078 2838 2723 
Q 2915 2368 2915 2022 
Q 2915 1664 2838 1293 
Q 2762 922 2598 608 
Q 2435 294 2182 102 
Q 1930 -90 1571 -90 
z
M 1680 77 
Q 1936 77 2093 336 
Q 2250 595 2320 1011 
Q 2390 1427 2390 1907 
Q 2390 2266 2336 2611 
Q 2282 2957 2170 3238 
Q 2058 3520 1894 3686 
Q 1731 3853 1514 3853 
Q 1258 3853 1107 3603 
Q 957 3354 889 2941 
Q 822 2528 822 2048 
Q 822 1690 876 1338 
Q 931 986 1036 701 
Q 1142 416 1302 246 
Q 1462 77 1680 77 
z
" transform="scale(0.015625)"/>
       </defs>
       <use xlink:href="#EBGaramond-Regular-30"/>
      </g>
     </g>
    </g>
    <g id="xtick_2">
     <g id="line2d_2">
      <g>
       <use xlink:href="#m1a3424f9a8" x="133.762" y="248.353" style="fill: #5f776c; stroke: #5f776c; stroke-width: 0.8"/>
      </g>
     </g>
     <g id="text_2">
      <!-- 2 -->
      <g style="fill: #5f776c" transform="translate(130.882 263.813) scale(0.12 -0.12)">
       <defs>
        <path id="EBGaramond-Regular-32" d="M 2683 -19 
Q 2638 -19 2542 -12 
Q 2446 -6 2324 0 
Q 2203 6 2072 12 
Q 1941 19 1819 19 
Q 1698 19 1474 12 
Q 1250 6 1003 3 
Q 757 0 571 -6 
Q 386 -13 334 -13 
Q 309 -13 257 28 
Q 206 70 206 96 
Q 206 128 219 141 
Q 232 154 258 179 
L 1352 1312 
Q 1672 1645 1883 2057 
Q 2094 2470 2094 2893 
Q 2094 3232 1889 3427 
Q 1685 3622 1410 3622 
Q 1147 3622 923 3478 
Q 699 3334 565 3104 
Q 546 3066 517 3040 
Q 488 3014 456 3014 
Q 430 3014 395 3068 
Q 360 3123 360 3206 
Q 360 3283 453 3417 
Q 546 3552 712 3693 
Q 878 3834 1108 3933 
Q 1339 4032 1608 4032 
Q 1928 4032 2158 3897 
Q 2389 3763 2510 3526 
Q 2632 3290 2632 2976 
Q 2632 2803 2571 2604 
Q 2510 2406 2404 2214 
Q 2299 2022 2165 1856 
Q 2082 1754 1918 1584 
Q 1755 1414 1566 1222 
Q 1378 1030 1208 860 
Q 1038 691 929 579 
Q 821 467 821 454 
Q 821 422 910 410 
Q 1019 403 1156 396 
Q 1294 390 1474 390 
Q 1659 390 1844 396 
Q 2030 403 2203 410 
Q 2389 422 2491 441 
Q 2594 461 2664 521 
Q 2734 582 2811 710 
Q 2837 749 2878 803 
Q 2920 858 2971 858 
Q 3003 858 3009 832 
Q 3016 806 3016 781 
Q 3016 749 2981 656 
Q 2946 563 2901 428 
Q 2856 294 2824 134 
Q 2805 32 2760 6 
Q 2715 -19 2683 -19 
z
" transform="scale(0.015625)"/>
       </defs>
       <use xlink:href="#EBGaramond-Regular-32"/>
      </g>
     </g>
    </g>
    <g id="xtick_3">
     <g id="line2d_3">
      <g>
       <use xlink:href="#m1a3424f9a8" x="223.164" y="248.353" style="fill: #5f776c; stroke: #5f776c; stroke-width: 0.8"/>
      </g>
     </g>
     <g id="text_3">
      <!-- 4 -->
      <g style="fill: #5f776c" transform="translate(220.284 263.813) scale(0.12 -0.12)">
       <defs>
        <path id="EBGaramond-Regular-34" d="M 1344 -19 
Q 1312 -19 1270 0 
Q 1229 19 1229 64 
Q 1229 96 1267 115 
Q 1306 134 1344 141 
Q 1645 179 1741 268 
Q 1837 358 1837 512 
L 1837 1107 
Q 1837 1139 1792 1152 
Q 1747 1165 1741 1165 
Q 1478 1165 1251 1155 
Q 1024 1146 774 1136 
Q 525 1126 186 1120 
Q 160 1120 141 1142 
Q 122 1165 122 1184 
Q 122 1197 128 1203 
Q 211 1306 249 1347 
Q 288 1389 313 1417 
Q 339 1446 378 1504 
L 2067 3930 
Q 2106 3987 2160 4048 
Q 2214 4109 2259 4109 
L 2394 4109 
Q 2426 4109 2403 4064 
Q 2381 4019 2381 4019 
L 653 1536 
Q 646 1523 640 1500 
Q 634 1478 653 1478 
L 1760 1478 
Q 1786 1478 1811 1494 
Q 1837 1510 1837 1530 
L 1837 2522 
Q 1837 2592 1846 2617 
Q 1856 2643 1894 2662 
Q 1990 2714 2099 2730 
Q 2208 2746 2253 2746 
Q 2323 2746 2336 2643 
Q 2349 2541 2349 2336 
L 2349 1510 
Q 2349 1472 2381 1472 
Q 2451 1466 2515 1466 
Q 2579 1466 2637 1466 
Q 2726 1466 2819 1469 
Q 2912 1472 3014 1478 
Q 3085 1478 3085 1427 
Q 3085 1376 3056 1318 
Q 3027 1261 2995 1222 
Q 2963 1184 2950 1184 
Q 2880 1184 2797 1187 
Q 2714 1190 2637 1190 
Q 2579 1190 2528 1187 
Q 2477 1184 2438 1178 
Q 2413 1171 2384 1158 
Q 2355 1146 2355 1139 
L 2355 538 
Q 2355 352 2441 281 
Q 2528 211 2784 141 
Q 2822 134 2860 108 
Q 2899 83 2899 51 
Q 2899 26 2870 3 
Q 2842 -19 2803 -19 
Q 2624 -19 2518 -9 
Q 2413 0 2323 6 
Q 2234 13 2080 13 
Q 1920 13 1821 6 
Q 1722 0 1619 -9 
Q 1517 -19 1344 -19 
z
" transform="scale(0.015625)"/>
       </defs>
       <use xlink:href="#EBGaramond-Regular-34"/>
      </g>
     </g>
    </g>
    <g id="xtick_4">
     <g id="line2d_4">
      <g>
       <use xlink:href="#m1a3424f9a8" x="312.566" y="248.353" style="fill: #5f776c; stroke: #5f776c; stroke-width: 0.8"/>
      </g>
     </g>
     <g id="text_4">
      <!-- 6 -->
      <g style="fill: #5f776c" transform="translate(309.686 263.813) scale(0.12 -0.12)">
       <defs>
        <path id="EBGaramond-Regular-36" d="M 1614 -102 
Q 1288 -102 987 45 
Q 686 192 494 489 
Q 302 787 302 1235 
Q 302 1594 385 1888 
Q 469 2182 597 2409 
Q 725 2637 856 2800 
Q 987 2963 1077 3053 
Q 1237 3219 1486 3424 
Q 1736 3629 2065 3814 
Q 2395 4000 2786 4102 
Q 2843 4115 2878 4096 
Q 2914 4077 2901 4058 
Q 2875 4000 2820 3971 
Q 2766 3942 2734 3930 
Q 2306 3744 1995 3507 
Q 1685 3270 1442 2918 
Q 1339 2765 1198 2499 
Q 1058 2234 955 1907 
Q 853 1581 853 1248 
Q 859 896 1000 649 
Q 1141 403 1349 275 
Q 1557 147 1768 141 
Q 2030 134 2228 323 
Q 2427 512 2427 909 
Q 2427 1107 2353 1276 
Q 2280 1446 2149 1555 
Q 2018 1664 1845 1664 
Q 1678 1664 1560 1645 
Q 1442 1626 1333 1568 
Q 1275 1542 1265 1571 
Q 1256 1600 1288 1638 
Q 1339 1690 1374 1722 
Q 1410 1754 1461 1792 
Q 1531 1843 1720 1923 
Q 1909 2003 2088 2003 
Q 2312 2003 2501 1900 
Q 2690 1798 2808 1622 
Q 2926 1446 2926 1216 
Q 2926 915 2811 672 
Q 2696 429 2504 256 
Q 2312 83 2078 -9 
Q 1845 -102 1614 -102 
z
" transform="scale(0.015625)"/>
       </defs>
       <use xlink:href="#EBGaramond-Regular-36"/>
      </g>
     </g>
    </g>
    <g id="xtick_5">
     <g id="line2d_5">
      <g>
       <use xlink:href="#m1a3424f9a8" x="401.968" y="248.353" style="fill: #5f776c; stroke: #5f776c; stroke-width: 0.8"/>
      </g>
     </g>
     <g id="text_5">
      <!-- 8 -->
      <g style="fill: #5f776c" transform="translate(399.088 263.813) scale(0.12 -0.12)">
       <defs>
        <path id="EBGaramond-Regular-38" d="M 1549 -90 
Q 1254 -90 995 35 
Q 736 160 576 384 
Q 416 608 416 902 
Q 416 1184 563 1382 
Q 710 1581 912 1712 
Q 1114 1843 1274 1933 
Q 1318 1958 1305 1971 
Q 1293 1984 1254 2016 
Q 1062 2182 892 2332 
Q 723 2483 617 2672 
Q 512 2861 512 3130 
Q 512 3379 685 3584 
Q 858 3789 1126 3910 
Q 1395 4032 1677 4032 
Q 1933 4032 2166 3926 
Q 2400 3821 2547 3629 
Q 2694 3437 2694 3174 
Q 2694 2944 2579 2800 
Q 2464 2656 2355 2560 
Q 2266 2483 2195 2428 
Q 2125 2374 2016 2291 
Q 1933 2234 1933 2211 
Q 1933 2189 1984 2157 
Q 2227 1990 2412 1830 
Q 2598 1670 2704 1484 
Q 2810 1299 2810 1050 
Q 2810 717 2624 461 
Q 2438 205 2150 57 
Q 1862 -90 1549 -90 
z
M 1638 96 
Q 1920 96 2109 304 
Q 2298 512 2298 794 
Q 2298 992 2186 1171 
Q 2074 1350 1901 1507 
Q 1728 1664 1542 1792 
Q 1504 1824 1475 1840 
Q 1446 1856 1414 1856 
Q 1389 1856 1338 1818 
Q 1133 1651 1030 1481 
Q 928 1312 928 1005 
Q 928 781 1011 573 
Q 1094 365 1254 230 
Q 1414 96 1638 96 
z
M 1843 2291 
Q 2067 2477 2134 2701 
Q 2202 2925 2202 3219 
Q 2202 3488 2064 3683 
Q 1926 3878 1645 3878 
Q 1498 3878 1350 3795 
Q 1203 3712 1104 3571 
Q 1005 3430 1005 3258 
Q 1005 3014 1097 2873 
Q 1190 2733 1360 2614 
Q 1530 2496 1754 2310 
Q 1773 2298 1798 2288 
Q 1824 2278 1843 2291 
z
" transform="scale(0.015625)"/>
       </defs>
       <use xlink:href="#EBGaramond-Regular-38"/>
      </g>
     </g>
    </g>
    <g id="xtick_6">
     <g id="line2d_6">
      <g>
       <use xlink:href="#m1a3424f9a8" x="491.37" y="248.353" style="fill: #5f776c; stroke: #5f776c; stroke-width: 0.8"/>
      </g>
     </g>
     <g id="text_6">
      <!-- 10 -->
      <g style="fill: #5f776c" transform="translate(485.61 263.813) scale(0.12 -0.12)">
       <defs>
        <path id="EBGaramond-Regular-31" d="M 685 -19 
Q 640 -19 614 6 
Q 589 32 589 58 
Q 589 115 685 141 
Q 928 205 1085 259 
Q 1242 314 1315 413 
Q 1389 512 1389 698 
L 1389 3142 
Q 1389 3264 1312 3328 
Q 1235 3392 1113 3417 
Q 992 3443 851 3450 
Q 787 3456 736 3481 
Q 685 3507 685 3558 
Q 685 3603 733 3635 
Q 781 3667 845 3674 
Q 1133 3718 1360 3785 
Q 1587 3853 1805 4070 
Q 1811 4077 1820 4077 
Q 1830 4077 1837 4077 
Q 1869 4077 1894 4061 
Q 1920 4045 1914 4019 
Q 1901 3923 1894 3811 
Q 1888 3699 1888 3565 
L 1888 621 
Q 1888 461 1949 377 
Q 2010 294 2157 246 
Q 2304 198 2566 134 
Q 2605 128 2640 105 
Q 2675 83 2675 51 
Q 2675 -19 2586 -19 
Q 2406 -19 2256 -9 
Q 2106 0 1962 6 
Q 1818 13 1645 13 
Q 1472 13 1318 6 
Q 1165 0 1011 -9 
Q 858 -19 685 -19 
z
" transform="scale(0.015625)"/>
       </defs>
       <use xlink:href="#EBGaramond-Regular-31"/>
       <use xlink:href="#EBGaramond-Regular-30" x="47.999985"/>
      </g>
     </g>
    </g>
    <g id="text_7">
     <!-- time -->
     <g style="fill: #33463f" transform="translate(257.502813 279.693) scale(0.12 -0.12)">
      <defs>
       <path id="EBGaramond-Regular-74" d="M 1210 -90 
Q 896 -90 720 102 
Q 544 294 544 672 
L 544 2157 
Q 544 2208 505 2230 
Q 467 2253 339 2253 
L 301 2253 
Q 269 2253 246 2294 
Q 224 2336 224 2381 
Q 224 2394 243 2419 
Q 262 2445 269 2451 
Q 397 2541 502 2630 
Q 608 2720 694 2806 
Q 781 2893 838 2963 
Q 870 2995 892 3017 
Q 915 3040 947 3040 
Q 979 3040 1008 3027 
Q 1037 3014 1030 2970 
L 998 2682 
Q 992 2611 1030 2585 
Q 1069 2560 1152 2560 
L 1882 2560 
Q 1907 2560 1926 2518 
Q 1946 2477 1946 2419 
Q 1946 2362 1926 2307 
Q 1907 2253 1882 2253 
L 1248 2253 
Q 1088 2253 1040 2227 
Q 992 2202 992 2074 
L 992 813 
Q 992 557 1101 409 
Q 1210 262 1414 262 
Q 1600 262 1702 291 
Q 1805 320 1888 378 
Q 1901 390 1914 390 
Q 1939 390 1948 361 
Q 1958 333 1958 301 
Q 1958 269 1852 173 
Q 1747 77 1577 -6 
Q 1408 -90 1210 -90 
z
" transform="scale(0.015625)"/>
       <path id="EBGaramond-Regular-69" d="M 282 -19 
Q 224 -19 189 -3 
Q 154 13 154 51 
Q 154 102 202 121 
Q 250 141 301 154 
Q 435 186 505 234 
Q 576 282 576 397 
L 576 1786 
Q 576 1958 515 2092 
Q 454 2227 288 2253 
Q 256 2259 240 2278 
Q 224 2298 224 2336 
Q 224 2406 282 2413 
Q 538 2470 704 2569 
Q 870 2669 954 2733 
Q 1011 2778 1043 2778 
Q 1082 2778 1082 2746 
Q 1082 2694 1066 2544 
Q 1050 2394 1037 2211 
Q 1024 2029 1024 1882 
L 1024 397 
Q 1024 288 1097 237 
Q 1171 186 1299 154 
Q 1350 141 1398 121 
Q 1446 102 1446 51 
Q 1446 -19 1318 -19 
Q 1197 -19 1123 -9 
Q 1050 0 982 6 
Q 915 13 800 13 
Q 691 13 620 6 
Q 550 0 480 -9 
Q 410 -19 282 -19 
z
M 792 3302 
Q 658 3302 565 3395 
Q 472 3488 472 3622 
Q 472 3763 565 3856 
Q 658 3949 792 3949 
Q 933 3949 1025 3856 
Q 1118 3763 1118 3622 
Q 1118 3488 1025 3395 
Q 933 3302 792 3302 
z
" transform="scale(0.015625)"/>
       <path id="EBGaramond-Regular-6d" d="M 282 -19 
Q 230 -19 192 -6 
Q 154 6 154 51 
Q 154 96 195 115 
Q 237 134 301 154 
Q 390 186 483 227 
Q 576 269 576 397 
L 576 1773 
Q 576 1946 537 2077 
Q 499 2208 333 2234 
Q 307 2240 291 2259 
Q 275 2278 275 2317 
Q 275 2381 326 2394 
Q 499 2438 601 2486 
Q 704 2534 784 2595 
Q 864 2656 979 2726 
Q 992 2733 1005 2742 
Q 1018 2752 1037 2752 
Q 1075 2752 1075 2707 
Q 1075 2662 1059 2524 
Q 1043 2387 1043 2298 
Q 1043 2234 1056 2221 
L 1069 2221 
Q 1216 2362 1456 2506 
Q 1696 2650 2067 2650 
Q 2298 2650 2451 2550 
Q 2605 2451 2707 2208 
L 2726 2208 
Q 2931 2394 3193 2522 
Q 3456 2650 3770 2650 
Q 3981 2650 4121 2522 
Q 4262 2394 4336 2189 
Q 4410 1984 4410 1760 
L 4410 397 
Q 4410 269 4499 227 
Q 4589 186 4685 154 
Q 4749 134 4790 115 
Q 4832 96 4832 51 
Q 4832 13 4803 -3 
Q 4774 -19 4704 -19 
Q 4576 -19 4505 -9 
Q 4435 0 4374 6 
Q 4314 13 4198 13 
Q 4090 13 4019 6 
Q 3949 0 3872 -9 
Q 3795 -19 3667 -19 
Q 3610 -19 3574 -3 
Q 3539 13 3539 51 
Q 3539 102 3580 121 
Q 3622 141 3686 154 
Q 3789 179 3875 224 
Q 3962 269 3962 397 
L 3962 1741 
Q 3962 1894 3891 2032 
Q 3821 2170 3705 2259 
Q 3590 2349 3450 2349 
Q 3290 2349 3152 2310 
Q 3014 2272 2893 2176 
Q 2714 2035 2714 1715 
L 2714 397 
Q 2714 269 2810 224 
Q 2906 179 3002 154 
Q 3066 141 3107 118 
Q 3149 96 3149 51 
Q 3149 13 3117 -3 
Q 3085 -19 3021 -19 
Q 2893 -19 2819 -9 
Q 2746 0 2678 6 
Q 2611 13 2496 13 
Q 2387 13 2316 6 
Q 2246 0 2169 -9 
Q 2093 -19 1965 -19 
Q 1914 -19 1875 -3 
Q 1837 13 1837 51 
Q 1837 102 1885 118 
Q 1933 134 1984 154 
Q 2080 186 2173 227 
Q 2266 269 2266 397 
L 2266 1741 
Q 2266 1894 2195 2032 
Q 2125 2170 2009 2259 
Q 1894 2349 1754 2349 
Q 1594 2349 1456 2310 
Q 1318 2272 1197 2176 
Q 1024 2048 1024 1715 
L 1024 397 
Q 1024 269 1113 227 
Q 1203 186 1299 154 
Q 1350 134 1398 118 
Q 1446 102 1446 51 
Q 1446 13 1411 -3 
Q 1376 -19 1318 -19 
Q 1190 -19 1116 -9 
Q 1043 0 979 6 
Q 915 13 800 13 
Q 691 13 624 6 
Q 557 0 483 -9 
Q 410 -19 282 -19 
z
" transform="scale(0.015625)"/>
       <path id="EBGaramond-Regular-65" d="M 1363 -96 
Q 1011 -96 748 77 
Q 486 250 339 566 
Q 192 883 192 1299 
Q 192 1670 361 1974 
Q 531 2278 812 2464 
Q 1094 2650 1427 2650 
Q 1683 2650 1881 2547 
Q 2080 2445 2192 2262 
Q 2304 2080 2304 1843 
Q 2304 1645 2112 1645 
L 762 1645 
Q 672 1645 637 1597 
Q 602 1549 602 1408 
Q 602 1101 736 848 
Q 870 595 1094 444 
Q 1318 294 1587 294 
Q 1779 294 1936 368 
Q 2093 442 2214 582 
Q 2240 614 2253 624 
Q 2266 634 2285 634 
Q 2336 634 2336 570 
Q 2336 448 2221 301 
Q 2125 179 1990 89 
Q 1856 0 1696 -48 
Q 1536 -96 1363 -96 
z
M 774 1843 
L 1357 1843 
Q 1510 1843 1619 1849 
Q 1728 1856 1830 1875 
Q 1862 1882 1872 1917 
Q 1882 1952 1882 2016 
Q 1882 2202 1718 2333 
Q 1555 2464 1331 2464 
Q 1184 2464 1037 2377 
Q 890 2291 794 2163 
Q 698 2035 698 1907 
Q 698 1843 774 1843 
z
" transform="scale(0.015625)"/>
      </defs>
      <use xlink:href="#EBGaramond-Regular-74"/>
      <use xlink:href="#EBGaramond-Regular-69" x="31.399994"/>
      <use xlink:href="#EBGaramond-Regular-6d" x="55.899979"/>
      <use xlink:href="#EBGaramond-Regular-65" x="133.699966"/>
     </g>
    </g>
   </g>
   <g id="matplotlib.axis_2">
    <g id="ytick_1">
     <g id="line2d_7">
      <defs>
       <path id="m5b19fcf96a" d="M 0 0 
L -3.5 0 
" style="stroke: #5f776c; stroke-width: 0.8"/>
      </defs>
      <g>
       <use xlink:href="#m5b19fcf96a" x="44.36" y="248.353" style="fill: #5f776c; stroke: #5f776c; stroke-width: 0.8"/>
      </g>
     </g>
     <g id="text_8">
      <!-- 0.0 -->
      <g style="fill: #5f776c" transform="translate(23.08 252.583) scale(0.12 -0.12)">
       <defs>
        <path id="EBGaramond-Regular-2e" d="M 736 -90 
Q 595 -90 489 16 
Q 384 122 384 262 
Q 384 410 489 512 
Q 595 614 736 614 
Q 883 614 985 512 
Q 1088 410 1088 262 
Q 1088 122 985 16 
Q 883 -90 736 -90 
z
" transform="scale(0.015625)"/>
       </defs>
       <use xlink:href="#EBGaramond-Regular-30"/>
       <use xlink:href="#EBGaramond-Regular-2e" x="47.999985"/>
       <use xlink:href="#EBGaramond-Regular-30" x="70.999969"/>
      </g>
     </g>
    </g>
    <g id="ytick_2">
     <g id="line2d_8">
      <g>
       <use xlink:href="#m5b19fcf96a" x="44.36" y="210.855083" style="fill: #5f776c; stroke: #5f776c; stroke-width: 0.8"/>
      </g>
     </g>
     <g id="text_9">
      <!-- 0.2 -->
      <g style="fill: #5f776c" transform="translate(23.08 215.085083) scale(0.12 -0.12)">
       <use xlink:href="#EBGaramond-Regular-30"/>
       <use xlink:href="#EBGaramond-Regular-2e" x="47.999985"/>
       <use xlink:href="#EBGaramond-Regular-32" x="70.999969"/>
      </g>
     </g>
    </g>
    <g id="ytick_3">
     <g id="line2d_9">
      <g>
       <use xlink:href="#m5b19fcf96a" x="44.36" y="173.357167" style="fill: #5f776c; stroke: #5f776c; stroke-width: 0.8"/>
      </g>
     </g>
     <g id="text_10">
      <!-- 0.4 -->
      <g style="fill: #5f776c" transform="translate(23.08 177.587167) scale(0.12 -0.12)">
       <use xlink:href="#EBGaramond-Regular-30"/>
       <use xlink:href="#EBGaramond-Regular-2e" x="47.999985"/>
       <use xlink:href="#EBGaramond-Regular-34" x="70.999969"/>
      </g>
     </g>
    </g>
    <g id="ytick_4">
     <g id="line2d_10">
      <g>
       <use xlink:href="#m5b19fcf96a" x="44.36" y="135.85925" style="fill: #5f776c; stroke: #5f776c; stroke-width: 0.8"/>
      </g>
     </g>
     <g id="text_11">
      <!-- 0.6 -->
      <g style="fill: #5f776c" transform="translate(23.08 140.08925) scale(0.12 -0.12)">
       <use xlink:href="#EBGaramond-Regular-30"/>
       <use xlink:href="#EBGaramond-Regular-2e" x="47.999985"/>
       <use xlink:href="#EBGaramond-Regular-36" x="70.999969"/>
      </g>
     </g>
    </g>
    <g id="ytick_5">
     <g id="line2d_11">
      <g>
       <use xlink:href="#m5b19fcf96a" x="44.36" y="98.361333" style="fill: #5f776c; stroke: #5f776c; stroke-width: 0.8"/>
      </g>
     </g>
     <g id="text_12">
      <!-- 0.8 -->
      <g style="fill: #5f776c" transform="translate(23.08 102.591333) scale(0.12 -0.12)">
       <use xlink:href="#EBGaramond-Regular-30"/>
       <use xlink:href="#EBGaramond-Regular-2e" x="47.999985"/>
       <use xlink:href="#EBGaramond-Regular-38" x="70.999969"/>
      </g>
     </g>
    </g>
    <g id="ytick_6">
     <g id="line2d_12">
      <g>
       <use xlink:href="#m5b19fcf96a" x="44.36" y="60.863417" style="fill: #5f776c; stroke: #5f776c; stroke-width: 0.8"/>
      </g>
     </g>
     <g id="text_13">
      <!-- 1.0 -->
      <g style="fill: #5f776c" transform="translate(23.08 65.093417) scale(0.12 -0.12)">
       <use xlink:href="#EBGaramond-Regular-31"/>
       <use xlink:href="#EBGaramond-Regular-2e" x="47.999985"/>
       <use xlink:href="#EBGaramond-Regular-30" x="70.999969"/>
      </g>
     </g>
    </g>
    <g id="ytick_7">
     <g id="line2d_13">
      <g>
       <use xlink:href="#m5b19fcf96a" x="44.36" y="23.3655" style="fill: #5f776c; stroke: #5f776c; stroke-width: 0.8"/>
      </g>
     </g>
     <g id="text_14">
      <!-- 1.2 -->
      <g style="fill: #5f776c" transform="translate(23.08 27.5955) scale(0.12 -0.12)">
       <use xlink:href="#EBGaramond-Regular-31"/>
       <use xlink:href="#EBGaramond-Regular-2e" x="47.999985"/>
       <use xlink:href="#EBGaramond-Regular-32" x="70.999969"/>
      </g>
     </g>
    </g>
    <g id="text_15">
     <!-- hazard $h(t)$ -->
     <g style="fill: #33463f" transform="translate(15.66 163.09925) rotate(-90) scale(0.12 -0.12)">
      <defs>
       <path id="EBGaramond-Regular-68" d="M 250 -19 
Q 122 -19 122 51 
Q 122 109 269 154 
Q 365 186 451 237 
Q 538 288 544 416 
L 544 3622 
Q 544 3795 486 3926 
Q 429 4058 262 4083 
Q 205 4096 205 4173 
Q 205 4230 256 4250 
Q 346 4282 470 4320 
Q 595 4358 729 4406 
Q 864 4454 966 4499 
Q 992 4512 1005 4512 
Q 1024 4512 1037 4499 
Q 1050 4486 1050 4467 
Q 1050 4429 1034 4358 
Q 1018 4288 1005 4115 
Q 992 3942 992 3597 
L 992 2483 
Q 992 2381 1001 2336 
Q 1011 2291 1037 2246 
Q 1139 2323 1289 2416 
Q 1440 2509 1625 2579 
Q 1811 2650 2010 2650 
Q 2323 2650 2531 2403 
Q 2739 2157 2739 1779 
L 2739 435 
Q 2739 307 2822 246 
Q 2906 186 3002 154 
Q 3072 134 3110 112 
Q 3149 90 3149 51 
Q 3149 -19 3021 -19 
Q 2893 -19 2825 -9 
Q 2758 0 2697 6 
Q 2637 13 2522 13 
Q 2413 13 2349 6 
Q 2285 0 2217 -9 
Q 2150 -19 2022 -19 
Q 1894 -19 1894 51 
Q 1894 96 1932 112 
Q 1971 128 2042 154 
Q 2138 186 2214 246 
Q 2291 307 2291 435 
L 2291 1741 
Q 2291 1901 2198 2032 
Q 2106 2163 1971 2240 
Q 1837 2317 1696 2317 
Q 1574 2317 1414 2281 
Q 1254 2246 1165 2176 
Q 1062 2093 1027 2003 
Q 992 1914 992 1715 
L 992 416 
Q 998 288 1072 237 
Q 1146 186 1242 154 
Q 1312 134 1347 112 
Q 1382 90 1382 51 
Q 1382 -19 1254 -19 
Q 1126 -19 1062 -9 
Q 998 0 940 6 
Q 883 13 768 13 
Q 659 13 592 6 
Q 525 0 451 -9 
Q 378 -19 250 -19 
z
" transform="scale(0.015625)"/>
       <path id="EBGaramond-Regular-61" d="M 749 -90 
Q 634 -90 515 0 
Q 397 90 317 218 
Q 237 346 237 461 
Q 237 666 345 781 
Q 454 896 691 992 
L 1344 1261 
Q 1472 1312 1494 1350 
Q 1517 1389 1523 1517 
L 1536 1926 
Q 1542 2093 1443 2214 
Q 1344 2336 1158 2336 
Q 1062 2336 966 2304 
Q 870 2272 806 2221 
Q 768 2195 755 2144 
Q 742 2093 742 2035 
Q 742 2010 745 1978 
Q 749 1946 749 1920 
Q 749 1888 669 1833 
Q 589 1779 489 1737 
Q 390 1696 326 1696 
Q 294 1696 275 1712 
Q 256 1728 256 1754 
Q 256 1856 323 1974 
Q 390 2093 512 2195 
Q 659 2330 832 2432 
Q 1005 2534 1171 2592 
Q 1338 2650 1466 2650 
Q 1696 2650 1846 2486 
Q 1997 2323 1990 2080 
L 1958 544 
Q 1952 410 2019 326 
Q 2086 243 2189 243 
Q 2349 243 2426 314 
Q 2458 346 2477 346 
Q 2509 346 2528 326 
Q 2547 307 2547 275 
Q 2547 205 2477 134 
Q 2374 32 2256 -29 
Q 2138 -90 2035 -90 
Q 1741 -90 1568 243 
L 1549 243 
Q 1338 70 1146 -10 
Q 954 -90 749 -90 
z
M 1050 218 
Q 1178 218 1267 259 
Q 1357 301 1427 371 
Q 1459 403 1481 457 
Q 1504 512 1510 634 
L 1523 947 
Q 1530 1018 1517 1050 
Q 1504 1082 1466 1082 
Q 1453 1082 1421 1075 
Q 1389 1069 1338 1050 
Q 998 928 867 797 
Q 736 666 736 557 
Q 736 390 835 304 
Q 934 218 1050 218 
z
" transform="scale(0.015625)"/>
       <path id="EBGaramond-Regular-7a" d="M 250 -32 
Q 224 -32 192 9 
Q 160 51 160 77 
Q 160 96 201 160 
Q 243 224 297 307 
Q 352 390 397 448 
Q 557 678 704 892 
Q 851 1107 995 1321 
Q 1139 1536 1292 1776 
Q 1446 2016 1619 2291 
Q 1632 2310 1632 2332 
Q 1632 2355 1562 2355 
L 928 2374 
Q 838 2381 761 2336 
Q 685 2291 646 2253 
Q 608 2214 573 2169 
Q 538 2125 502 2073 
Q 467 2022 432 1974 
Q 397 1926 365 1882 
Q 326 1843 265 1868 
Q 205 1894 224 1946 
Q 243 2003 272 2115 
Q 301 2227 323 2348 
Q 346 2470 346 2547 
Q 346 2598 384 2630 
Q 422 2662 442 2662 
Q 467 2662 538 2605 
Q 570 2579 650 2572 
Q 730 2566 813 2566 
Q 883 2566 947 2569 
Q 1011 2573 1056 2573 
Q 1389 2573 1670 2579 
Q 1952 2586 2246 2592 
Q 2266 2592 2278 2579 
Q 2291 2566 2297 2547 
Q 2304 2528 2291 2515 
Q 2227 2432 2169 2361 
Q 2112 2291 2048 2195 
L 800 307 
Q 774 262 793 236 
Q 813 211 858 211 
L 1613 211 
Q 1683 211 1756 249 
Q 1830 288 1901 358 
Q 1978 435 2067 560 
Q 2157 685 2253 826 
Q 2285 870 2339 851 
Q 2394 832 2394 781 
Q 2394 762 2368 662 
Q 2342 563 2307 438 
Q 2272 314 2243 205 
Q 2214 96 2202 58 
Q 2182 -32 2099 -32 
Q 1958 -32 1622 -16 
Q 1286 0 762 0 
Q 627 0 480 -16 
Q 333 -32 250 -32 
z
" transform="scale(0.015625)"/>
       <path id="EBGaramond-Regular-72" d="M 314 -19 
Q 250 -19 218 -3 
Q 186 13 186 51 
Q 186 102 224 118 
Q 262 134 333 154 
Q 454 186 515 246 
Q 576 307 576 397 
L 576 1773 
Q 576 1946 525 2074 
Q 474 2202 314 2234 
Q 288 2240 269 2265 
Q 250 2291 250 2317 
Q 250 2381 307 2394 
Q 474 2445 656 2544 
Q 838 2643 941 2707 
Q 979 2733 1001 2742 
Q 1024 2752 1037 2752 
Q 1069 2752 1069 2707 
Q 1069 2688 1065 2611 
Q 1062 2534 1059 2432 
Q 1056 2330 1050 2227 
Q 1050 2214 1062 2214 
Q 1165 2342 1289 2438 
Q 1414 2534 1545 2592 
Q 1677 2650 1798 2650 
Q 1933 2650 2019 2592 
Q 2106 2534 2106 2445 
Q 2106 2381 2070 2304 
Q 2035 2227 1977 2169 
Q 1920 2112 1856 2112 
Q 1818 2112 1773 2128 
Q 1728 2144 1677 2170 
Q 1626 2189 1574 2208 
Q 1523 2227 1472 2227 
Q 1318 2227 1174 2118 
Q 1030 2010 1030 1690 
L 1030 397 
Q 1030 314 1120 259 
Q 1210 205 1370 154 
Q 1440 134 1478 115 
Q 1517 96 1517 51 
Q 1517 -19 1389 -19 
Q 1197 -19 1097 -3 
Q 998 13 832 13 
Q 723 13 656 6 
Q 589 0 515 -9 
Q 442 -19 314 -19 
z
" transform="scale(0.015625)"/>
       <path id="EBGaramond-Regular-64" d="M 2285 -122 
Q 2272 -122 2243 -96 
Q 2214 -70 2214 -58 
Q 2214 6 2230 124 
Q 2246 243 2246 326 
L 2246 365 
Q 2150 218 1939 64 
Q 1728 -90 1408 -90 
Q 1043 -90 777 102 
Q 512 294 368 595 
Q 224 896 224 1216 
Q 224 1587 397 1913 
Q 570 2240 893 2445 
Q 1216 2650 1664 2650 
Q 1792 2650 1923 2627 
Q 2054 2605 2125 2579 
Q 2182 2560 2208 2560 
Q 2253 2560 2253 2714 
L 2253 3622 
Q 2253 3885 2169 3974 
Q 2086 4064 1933 4090 
Q 1875 4102 1875 4173 
Q 1875 4230 1926 4250 
Q 2208 4320 2368 4384 
Q 2528 4448 2618 4486 
Q 2643 4499 2665 4502 
Q 2688 4506 2701 4506 
Q 2739 4506 2746 4467 
Q 2746 4429 2736 4336 
Q 2726 4243 2713 4064 
Q 2701 3885 2701 3597 
L 2701 704 
Q 2701 486 2733 387 
Q 2765 288 2835 288 
Q 2867 288 2947 294 
Q 3027 301 3110 307 
Q 3226 314 3226 250 
Q 3226 205 3197 169 
Q 3168 134 3136 134 
Q 2957 109 2784 61 
Q 2611 13 2387 -83 
Q 2336 -109 2320 -115 
Q 2304 -122 2285 -122 
z
M 1638 243 
Q 1805 243 1965 329 
Q 2125 416 2246 557 
L 2253 1709 
Q 2253 1882 2153 2048 
Q 2054 2214 1878 2320 
Q 1702 2426 1466 2426 
Q 1318 2426 1132 2336 
Q 947 2246 812 2019 
Q 678 1792 678 1363 
Q 678 998 787 777 
Q 896 557 1053 441 
Q 1210 326 1373 284 
Q 1536 243 1638 243 
z
" transform="scale(0.015625)"/>
       <path id="EBGaramond-Regular-20" transform="scale(0.015625)"/>
       <path id="DejaVuSans-Oblique-68" d="M 3566 2113 
L 3156 0 
L 2578 0 
L 2988 2091 
Q 3016 2238 3031 2350 
Q 3047 2463 3047 2528 
Q 3047 2791 2881 2937 
Q 2716 3084 2419 3084 
Q 1956 3084 1617 2771 
Q 1278 2459 1178 1941 
L 800 0 
L 225 0 
L 1172 4863 
L 1747 4863 
L 1375 2950 
Q 1594 3244 1934 3414 
Q 2275 3584 2650 3584 
Q 3113 3584 3367 3334 
Q 3622 3084 3622 2631 
Q 3622 2519 3608 2391 
Q 3594 2263 3566 2113 
z
" transform="scale(0.015625)"/>
       <path id="DejaVuSans-28" d="M 1984 4856 
Q 1566 4138 1362 3434 
Q 1159 2731 1159 2009 
Q 1159 1288 1364 580 
Q 1569 -128 1984 -844 
L 1484 -844 
Q 1016 -109 783 600 
Q 550 1309 550 2009 
Q 550 2706 781 3412 
Q 1013 4119 1484 4856 
L 1984 4856 
z
" transform="scale(0.015625)"/>
       <path id="DejaVuSans-Oblique-74" d="M 2706 3500 
L 2619 3053 
L 1472 3053 
L 1100 1153 
Q 1081 1047 1072 975 
Q 1063 903 1063 863 
Q 1063 663 1183 572 
Q 1303 481 1569 481 
L 2150 481 
L 2053 0 
L 1503 0 
Q 991 0 739 200 
Q 488 400 488 806 
Q 488 878 497 964 
Q 506 1050 525 1153 
L 897 3053 
L 409 3053 
L 500 3500 
L 978 3500 
L 1172 4494 
L 1747 4494 
L 1556 3500 
L 2706 3500 
z
" transform="scale(0.015625)"/>
       <path id="DejaVuSans-29" d="M 513 4856 
L 1013 4856 
Q 1481 4119 1714 3412 
Q 1947 2706 1947 2009 
Q 1947 1309 1714 600 
Q 1481 -109 1013 -844 
L 513 -844 
Q 928 -128 1133 580 
Q 1338 1288 1338 2009 
Q 1338 2731 1133 3434 
Q 928 4138 513 4856 
z
" transform="scale(0.015625)"/>
      </defs>
      <use xlink:href="#EBGaramond-Regular-68" transform="translate(0 0.015625)"/>
      <use xlink:href="#EBGaramond-Regular-61" transform="translate(51.499985 0.015625)"/>
      <use xlink:href="#EBGaramond-Regular-7a" transform="translate(91.399979 0.015625)"/>
      <use xlink:href="#EBGaramond-Regular-61" transform="translate(129.099976 0.015625)"/>
      <use xlink:href="#EBGaramond-Regular-72" transform="translate(168.999969 0.015625)"/>
      <use xlink:href="#EBGaramond-Regular-64" transform="translate(202.399963 0.015625)"/>
      <use xlink:href="#EBGaramond-Regular-20" transform="translate(252.999954 0.015625)"/>
      <use xlink:href="#DejaVuSans-Oblique-68" transform="translate(272.999939 0.015625)"/>
      <use xlink:href="#DejaVuSans-28" transform="translate(336.378845 0.015625)"/>
      <use xlink:href="#DejaVuSans-Oblique-74" transform="translate(375.392517 0.015625)"/>
      <use xlink:href="#DejaVuSans-29" transform="translate(414.601501 0.015625)"/>
     </g>
    </g>
   </g>
   <g id="line2d_14">
    <path d="M 46.59505 182.731646 
L 491.37 182.731646 
L 491.37 182.731646 
" clip-path="url(#pfc57af3329)" style="fill: none; stroke: #5f776c; stroke-width: 2.2; stroke-linecap: square"/>
   </g>
   <g id="line2d_15">
    <path d="M 46.59505 248.133097 
L 52.834378 247.264532 
L 61.747704 245.774441 
L 73.335027 243.594008 
L 86.705015 240.849755 
L 102.749002 237.320253 
L 120.575653 233.163643 
L 140.184969 228.36079 
L 161.576951 222.892033 
L 184.751598 216.737815 
L 209.708909 209.878943 
L 236.448886 202.296697 
L 264.971528 193.972871 
L 295.276836 184.889773 
L 326.473475 175.307245 
L 359.45278 164.944074 
L 394.21475 153.783364 
L 429.868053 142.103589 
L 467.304021 129.605123 
L 491.37 121.451407 
L 491.37 121.451407 
" clip-path="url(#pfc57af3329)" style="fill: none; stroke: #2f8a5f; stroke-width: 2.2; stroke-linecap: square"/>
   </g>
   <g id="line2d_16">
    <path d="M 46.59505 33.185642 
L 47.486383 60.215904 
L 48.377715 78.176484 
L 49.269048 91.283311 
L 50.16038 101.423602 
L 51.051713 109.589142 
L 51.943045 116.359112 
L 52.834378 122.098126 
L 54.617043 131.380866 
L 56.399708 138.643332 
L 58.182373 144.538447 
L 59.965038 149.455492 
L 61.747704 153.643315 
L 63.530369 157.269628 
L 65.313034 160.452263 
L 67.095699 163.276824 
L 69.769697 166.977908 
L 72.443694 170.170494 
L 75.117692 172.963687 
L 77.79169 175.436141 
L 80.465687 177.646224 
L 84.031018 180.260082 
L 87.596348 182.564243 
L 91.161678 184.61672 
L 95.618341 186.894003 
L 100.075004 188.909767 
L 105.422999 191.049647 
L 110.770995 192.942089 
L 117.010323 194.897024 
L 123.249651 196.630052 
L 130.380311 198.389727 
L 138.402304 200.140242 
L 147.31563 201.855324 
L 157.120288 203.516798 
L 168.707611 205.237214 
L 181.186267 206.855351 
L 195.447588 208.468903 
L 211.491575 210.046905 
L 229.318226 211.568757 
L 249.818875 213.083336 
L 272.993522 214.559333 
L 298.842166 215.976616 
L 328.256141 217.362578 
L 362.126778 218.728714 
L 400.454078 220.047855 
L 445.020707 221.351954 
L 491.37 222.508723 
L 491.37 222.508723 
" clip-path="url(#pfc57af3329)" style="fill: none; stroke: #b23a24; stroke-width: 2.2; stroke-linecap: square"/>
   </g>
   <g id="line2d_17">
    <path d="M 46.59505 248.353 
L 66.204366 248.262728 
L 70.661029 248.040201 
L 74.22636 247.676408 
L 77.79169 247.081966 
L 81.35702 246.207539 
L 84.031018 245.347862 
L 86.705015 244.305716 
L 90.270346 242.632377 
L 93.835676 240.647994 
L 97.401006 238.379381 
L 100.966336 235.862521 
L 105.422999 232.430384 
L 110.770995 228.003195 
L 118.792988 221.015884 
L 132.162976 209.354246 
L 139.293637 203.466483 
L 145.532965 198.610971 
L 151.772293 194.068267 
L 157.120288 190.435518 
L 162.468283 187.045868 
L 167.816279 183.895958 
L 173.164274 180.978827 
L 178.51227 178.285101 
L 184.751598 175.410203 
L 190.990926 172.80587 
L 197.230254 170.452896 
L 203.469581 168.332239 
L 209.708909 166.425468 
L 216.83957 164.48576 
L 223.97023 162.778075 
L 231.992224 161.106275 
L 240.014217 159.670485 
L 248.927542 158.32024 
L 257.840868 157.197283 
L 267.645526 156.191274 
L 278.341517 155.330985 
L 289.92884 154.637808 
L 302.407496 154.125892 
L 315.777485 153.802664 
L 330.930138 153.66763 
L 347.865457 153.750648 
L 366.583441 154.067686 
L 388.866755 154.678649 
L 414.715399 155.617093 
L 446.803372 157.011463 
L 490.478667 159.145349 
L 491.37 159.190616 
L 491.37 159.190616 
" clip-path="url(#pfc57af3329)" style="fill: none; stroke: #3a6ea5; stroke-width: 2.2; stroke-linecap: square"/>
   </g>
   <g id="patch_3">
    <path d="M 44.36 248.353 
L 44.36 23.3655 
" style="fill: none; stroke: #5f776c; stroke-width: 0.8; stroke-linejoin: miter; stroke-linecap: square"/>
   </g>
   <g id="patch_4">
    <path d="M 44.36 248.353 
L 491.37 248.353 
" style="fill: none; stroke: #5f776c; stroke-width: 0.8; stroke-linejoin: miter; stroke-linecap: square"/>
   </g>
   <g id="text_16">
    <!-- Each distribution fixes the shape the hazard may take -->
    <g style="fill: #0e1f1b" transform="translate(123.262 17.3655) scale(0.144 -0.144)">
     <defs>
      <path id="EBGaramond-Regular-45" d="M 422 -32 
Q 339 -32 288 -16 
Q 237 0 237 38 
Q 237 115 448 154 
Q 691 198 806 300 
Q 922 403 922 634 
L 922 3514 
Q 922 3744 829 3840 
Q 736 3936 493 3981 
Q 384 4000 333 4032 
Q 282 4064 282 4109 
Q 282 4147 333 4163 
Q 384 4179 467 4179 
Q 710 4179 880 4172 
Q 1050 4166 1213 4163 
Q 1376 4160 1600 4160 
Q 1811 4160 2044 4163 
Q 2278 4166 2477 4166 
Q 2694 4173 2844 4176 
Q 2995 4179 3021 4179 
Q 3053 4179 3091 4166 
Q 3130 4154 3136 4122 
Q 3168 3942 3200 3766 
Q 3232 3590 3232 3462 
Q 3232 3405 3203 3385 
Q 3174 3366 3142 3366 
Q 3110 3366 3097 3382 
Q 3085 3398 3072 3430 
Q 3040 3539 3008 3638 
Q 2976 3738 2931 3782 
Q 2842 3885 2733 3920 
Q 2624 3955 2502 3955 
L 1664 3955 
Q 1613 3955 1523 3897 
Q 1434 3840 1434 3750 
L 1434 2394 
Q 1434 2336 1469 2294 
Q 1504 2253 1549 2253 
L 2182 2253 
Q 2368 2253 2438 2320 
Q 2509 2387 2554 2566 
Q 2592 2707 2669 2707 
Q 2694 2707 2723 2681 
Q 2752 2656 2752 2605 
Q 2752 2579 2749 2489 
Q 2746 2400 2739 2304 
Q 2733 2208 2733 2157 
Q 2733 2093 2736 1987 
Q 2739 1882 2742 1786 
Q 2746 1690 2746 1664 
Q 2746 1619 2736 1587 
Q 2726 1555 2688 1555 
Q 2592 1555 2541 1760 
Q 2502 1907 2438 1977 
Q 2374 2048 2246 2048 
L 1651 2048 
Q 1542 2048 1488 2019 
Q 1434 1990 1434 1882 
L 1434 653 
Q 1434 410 1536 317 
Q 1638 224 1856 224 
L 2330 224 
Q 2534 224 2672 246 
Q 2810 269 2912 333 
Q 3014 403 3094 518 
Q 3174 634 3277 826 
Q 3296 864 3321 889 
Q 3347 915 3379 909 
Q 3411 902 3430 880 
Q 3450 858 3450 819 
Q 3450 762 3418 618 
Q 3386 474 3338 320 
Q 3290 166 3251 77 
Q 3232 32 3216 0 
Q 3200 -32 3162 -32 
Q 2854 -32 2592 -25 
Q 2330 -19 2093 -12 
Q 1856 -6 1629 0 
Q 1402 6 1158 6 
Q 1018 6 915 -3 
Q 813 -13 704 -22 
Q 595 -32 422 -32 
z
" transform="scale(0.015625)"/>
      <path id="EBGaramond-Regular-63" d="M 1363 -96 
Q 1043 -96 784 67 
Q 525 230 374 515 
Q 224 800 224 1152 
Q 224 1568 406 1907 
Q 589 2246 896 2448 
Q 1203 2650 1574 2650 
Q 1990 2650 2304 2426 
Q 2381 2368 2381 2304 
Q 2381 2253 2336 2189 
Q 2291 2125 2227 2083 
Q 2163 2042 2106 2042 
Q 2074 2042 2042 2064 
Q 2010 2086 1971 2112 
Q 1830 2221 1657 2317 
Q 1485 2413 1370 2413 
Q 1056 2413 861 2121 
Q 666 1830 666 1357 
Q 666 1056 797 813 
Q 928 570 1149 429 
Q 1370 288 1638 288 
Q 1824 288 1958 349 
Q 2093 410 2246 563 
Q 2259 576 2278 585 
Q 2298 595 2310 595 
Q 2381 595 2381 506 
Q 2381 467 2358 419 
Q 2336 371 2285 307 
Q 2182 179 2041 86 
Q 1901 -6 1731 -51 
Q 1562 -96 1363 -96 
z
" transform="scale(0.015625)"/>
      <path id="EBGaramond-Regular-73" d="M 922 -90 
Q 723 -90 550 -29 
Q 378 32 256 141 
Q 224 211 208 377 
Q 192 544 186 653 
Q 186 710 269 710 
Q 294 710 316 700 
Q 339 691 346 666 
Q 429 352 611 217 
Q 794 83 979 83 
Q 1165 83 1296 208 
Q 1427 333 1427 518 
Q 1427 691 1312 816 
Q 1197 941 909 1120 
Q 691 1254 556 1376 
Q 422 1498 361 1626 
Q 301 1754 301 1914 
Q 301 2118 397 2284 
Q 493 2451 685 2550 
Q 877 2650 1165 2650 
Q 1357 2650 1485 2611 
Q 1613 2573 1677 2528 
Q 1728 2458 1763 2307 
Q 1798 2157 1798 2022 
Q 1798 1978 1734 1978 
Q 1696 1978 1661 1994 
Q 1626 2010 1613 2035 
Q 1530 2246 1405 2358 
Q 1280 2470 1094 2470 
Q 934 2470 809 2374 
Q 685 2278 685 2093 
Q 685 1946 777 1830 
Q 870 1715 1126 1568 
Q 1498 1357 1680 1174 
Q 1862 992 1862 691 
Q 1862 346 1600 128 
Q 1338 -90 922 -90 
z
" transform="scale(0.015625)"/>
      <path id="EBGaramond-Regular-62" d="M 1658 -90 
Q 1517 -90 1376 -64 
Q 1235 -38 1107 -6 
Q 966 32 860 64 
Q 755 96 723 96 
Q 685 96 649 70 
Q 614 45 582 13 
Q 550 -19 525 -19 
Q 499 -19 467 3 
Q 435 26 435 58 
Q 435 115 457 256 
Q 480 397 480 518 
L 480 3622 
Q 480 3789 397 3910 
Q 314 4032 186 4090 
Q 160 4102 131 4124 
Q 102 4147 102 4186 
Q 102 4218 128 4230 
Q 154 4243 179 4250 
Q 262 4269 406 4320 
Q 550 4371 678 4422 
Q 806 4474 851 4493 
Q 890 4512 909 4512 
Q 922 4512 934 4499 
Q 947 4486 947 4467 
Q 947 4442 937 4253 
Q 928 4064 928 3795 
L 928 2483 
Q 928 2362 941 2320 
Q 954 2278 986 2272 
Q 1184 2438 1446 2544 
Q 1709 2650 1920 2650 
Q 2246 2650 2505 2483 
Q 2765 2317 2918 2032 
Q 3072 1747 3072 1389 
Q 3072 954 2893 618 
Q 2714 282 2397 96 
Q 2080 -90 1658 -90 
z
M 1805 109 
Q 2048 109 2224 259 
Q 2400 410 2496 669 
Q 2592 928 2592 1248 
Q 2592 1498 2499 1760 
Q 2406 2022 2211 2201 
Q 2016 2381 1709 2381 
Q 1453 2381 1261 2297 
Q 1069 2214 928 2086 
L 928 845 
Q 928 621 1053 454 
Q 1178 288 1379 198 
Q 1581 109 1805 109 
z
" transform="scale(0.015625)"/>
      <path id="EBGaramond-Regular-75" d="M 2342 -122 
Q 2298 -122 2298 -70 
Q 2298 -6 2314 118 
Q 2330 243 2330 326 
Q 2330 339 2330 348 
Q 2330 358 2330 365 
Q 2080 122 1827 16 
Q 1574 -90 1274 -90 
Q 1069 -90 902 -3 
Q 736 83 640 252 
Q 544 422 544 672 
L 544 1971 
Q 544 2112 480 2195 
Q 416 2278 269 2336 
Q 237 2349 211 2368 
Q 186 2387 186 2438 
Q 186 2496 214 2515 
Q 243 2534 282 2541 
Q 499 2554 617 2576 
Q 736 2598 915 2643 
Q 934 2650 944 2650 
Q 954 2650 966 2650 
Q 1037 2650 1030 2560 
Q 1011 2413 1001 2313 
Q 992 2214 992 2067 
L 992 819 
Q 992 666 1069 534 
Q 1146 403 1270 320 
Q 1395 237 1530 237 
Q 1696 237 1821 256 
Q 1946 275 2067 365 
Q 2138 416 2246 531 
Q 2355 646 2355 845 
L 2355 2016 
Q 2355 2150 2275 2217 
Q 2195 2285 2092 2310 
Q 1990 2336 1926 2336 
Q 1869 2336 1830 2358 
Q 1792 2381 1792 2445 
Q 1792 2502 1833 2521 
Q 1875 2541 1926 2541 
Q 2125 2547 2256 2556 
Q 2387 2566 2492 2588 
Q 2598 2611 2714 2643 
Q 2726 2650 2745 2653 
Q 2765 2656 2778 2656 
Q 2861 2656 2861 2586 
Q 2861 2579 2857 2563 
Q 2854 2547 2848 2528 
Q 2842 2509 2832 2419 
Q 2822 2330 2812 2234 
Q 2803 2138 2803 2086 
L 2803 608 
Q 2803 435 2838 361 
Q 2874 288 2918 288 
Q 2970 288 3069 297 
Q 3168 307 3213 307 
Q 3245 307 3277 294 
Q 3309 282 3309 224 
Q 3309 173 3283 157 
Q 3258 141 3219 134 
Q 2970 102 2790 38 
Q 2611 -26 2470 -83 
Q 2451 -90 2412 -106 
Q 2374 -122 2342 -122 
z
" transform="scale(0.015625)"/>
      <path id="EBGaramond-Regular-6f" d="M 1498 -90 
Q 1139 -90 851 76 
Q 563 243 393 534 
Q 224 826 224 1197 
Q 224 1466 329 1722 
Q 435 1978 627 2189 
Q 819 2400 1075 2525 
Q 1331 2650 1626 2650 
Q 1997 2650 2294 2470 
Q 2592 2291 2768 2000 
Q 2944 1709 2944 1363 
Q 2944 992 2781 659 
Q 2618 326 2298 118 
Q 1978 -90 1498 -90 
z
M 1632 102 
Q 1850 102 2022 185 
Q 2195 269 2291 454 
Q 2368 602 2393 813 
Q 2419 1024 2419 1210 
Q 2419 1517 2307 1801 
Q 2195 2086 1993 2268 
Q 1792 2451 1517 2451 
Q 1344 2451 1206 2396 
Q 1069 2342 954 2195 
Q 826 2035 787 1804 
Q 749 1574 749 1344 
Q 749 1030 864 745 
Q 979 461 1177 281 
Q 1376 102 1632 102 
z
" transform="scale(0.015625)"/>
      <path id="EBGaramond-Regular-6e" d="M 282 -19 
Q 224 -19 189 -3 
Q 154 13 154 51 
Q 154 102 192 118 
Q 230 134 301 154 
Q 397 179 486 224 
Q 576 269 576 397 
L 576 1773 
Q 576 1946 541 2067 
Q 506 2189 339 2234 
Q 314 2246 294 2262 
Q 275 2278 275 2317 
Q 275 2387 333 2394 
Q 557 2451 697 2534 
Q 838 2618 973 2720 
Q 992 2733 1008 2742 
Q 1024 2752 1043 2752 
Q 1056 2752 1065 2739 
Q 1075 2726 1075 2707 
Q 1075 2662 1059 2524 
Q 1043 2387 1043 2298 
Q 1043 2272 1046 2249 
Q 1050 2227 1056 2221 
Q 1280 2432 1533 2541 
Q 1786 2650 2086 2650 
Q 2400 2650 2605 2394 
Q 2810 2138 2810 1760 
L 2810 397 
Q 2810 269 2899 227 
Q 2989 186 3085 154 
Q 3136 134 3184 112 
Q 3232 90 3232 38 
Q 3232 0 3187 -9 
Q 3142 -19 3104 -19 
Q 2976 -19 2905 -9 
Q 2835 0 2771 6 
Q 2707 13 2592 13 
Q 2483 13 2412 6 
Q 2342 0 2268 -9 
Q 2195 -19 2067 -19 
Q 2035 -19 1987 -9 
Q 1939 0 1939 38 
Q 1939 90 1987 112 
Q 2035 134 2086 154 
Q 2182 186 2272 227 
Q 2362 269 2362 397 
L 2362 1741 
Q 2362 2022 2205 2179 
Q 2048 2336 1786 2342 
Q 1555 2342 1382 2268 
Q 1210 2195 1075 2086 
Q 1050 2061 1037 2019 
Q 1024 1978 1024 1939 
L 1024 397 
Q 1024 269 1113 224 
Q 1203 179 1299 154 
Q 1446 115 1446 51 
Q 1446 13 1414 -3 
Q 1382 -19 1318 -19 
Q 1190 -19 1116 -9 
Q 1043 0 979 6 
Q 915 13 800 13 
Q 691 13 624 6 
Q 557 0 483 -9 
Q 410 -19 282 -19 
z
" transform="scale(0.015625)"/>
      <path id="EBGaramond-Regular-66" d="M 282 -19 
Q 218 -19 186 -3 
Q 154 13 154 51 
Q 154 102 195 121 
Q 237 141 301 154 
Q 448 186 512 246 
Q 576 307 576 435 
L 576 2240 
Q 512 2240 429 2243 
Q 346 2246 243 2253 
Q 224 2259 189 2297 
Q 154 2336 154 2368 
Q 154 2381 173 2390 
Q 192 2400 198 2406 
Q 314 2464 397 2509 
Q 480 2554 576 2598 
Q 576 3155 713 3526 
Q 851 3898 1068 4115 
Q 1286 4333 1529 4425 
Q 1773 4518 1984 4518 
Q 2342 4518 2515 4409 
Q 2688 4301 2688 4134 
Q 2688 4006 2624 3942 
Q 2560 3878 2470 3878 
Q 2413 3878 2365 3923 
Q 2317 3968 2253 4026 
Q 2170 4109 2048 4182 
Q 1926 4256 1715 4256 
Q 1414 4256 1219 3993 
Q 1024 3731 1024 3187 
L 1024 2624 
Q 1024 2586 1046 2573 
Q 1069 2560 1094 2560 
L 1894 2560 
Q 1926 2560 1952 2541 
Q 1978 2522 1978 2490 
Q 1978 2445 1968 2393 
Q 1958 2342 1939 2304 
Q 1920 2253 1882 2253 
L 1146 2253 
Q 1069 2253 1046 2230 
Q 1024 2208 1024 2170 
L 1024 435 
Q 1024 307 1107 246 
Q 1190 186 1446 154 
Q 1594 134 1594 51 
Q 1594 13 1562 -3 
Q 1530 -19 1466 -19 
Q 1274 -19 1126 -3 
Q 979 13 813 13 
Q 704 13 633 6 
Q 563 0 486 -9 
Q 410 -19 282 -19 
z
" transform="scale(0.015625)"/>
      <path id="EBGaramond-Regular-78" d="M 192 -26 
Q 154 -26 109 -16 
Q 64 -6 64 32 
Q 64 83 112 108 
Q 160 134 211 147 
Q 307 179 406 252 
Q 506 326 640 512 
L 1133 1197 
Q 1178 1248 1174 1277 
Q 1171 1306 1146 1344 
L 621 2144 
Q 544 2272 483 2329 
Q 422 2387 326 2413 
Q 275 2426 227 2451 
Q 179 2477 179 2528 
Q 179 2579 240 2582 
Q 301 2586 326 2586 
Q 454 2586 502 2579 
Q 550 2573 614 2566 
Q 678 2560 832 2560 
Q 947 2560 998 2566 
Q 1050 2573 1158 2573 
Q 1184 2573 1245 2569 
Q 1306 2566 1306 2515 
Q 1306 2477 1270 2457 
Q 1235 2438 1190 2426 
Q 1146 2413 1101 2390 
Q 1056 2368 1056 2317 
Q 1056 2285 1078 2230 
Q 1101 2176 1139 2112 
L 1434 1670 
Q 1459 1626 1491 1670 
L 1818 2163 
Q 1843 2195 1856 2233 
Q 1869 2272 1869 2304 
Q 1869 2381 1786 2406 
Q 1734 2426 1686 2451 
Q 1638 2477 1638 2522 
Q 1638 2573 1699 2576 
Q 1760 2579 1786 2579 
Q 1837 2579 1933 2569 
Q 2029 2560 2106 2560 
Q 2285 2560 2355 2576 
Q 2426 2592 2509 2592 
Q 2547 2592 2592 2582 
Q 2637 2573 2637 2534 
Q 2637 2490 2589 2464 
Q 2541 2438 2490 2419 
Q 2394 2394 2259 2320 
Q 2125 2246 2035 2118 
L 1632 1510 
Q 1626 1498 1622 1475 
Q 1619 1453 1638 1427 
L 2259 416 
Q 2336 294 2406 236 
Q 2477 179 2573 147 
Q 2624 134 2672 108 
Q 2720 83 2720 32 
Q 2720 -6 2675 -16 
Q 2630 -26 2592 -26 
Q 2464 -26 2406 -19 
Q 2349 -13 2281 -6 
Q 2214 0 2054 0 
Q 1939 0 1817 -6 
Q 1696 -13 1587 -13 
Q 1440 -13 1440 51 
Q 1440 109 1481 134 
Q 1523 160 1600 179 
Q 1670 198 1724 233 
Q 1779 269 1779 333 
Q 1779 358 1769 387 
Q 1760 416 1741 448 
L 1363 1062 
Q 1344 1082 1325 1062 
L 902 429 
Q 896 416 883 381 
Q 870 346 870 307 
Q 870 262 892 220 
Q 915 179 960 166 
Q 1011 147 1059 124 
Q 1107 102 1107 51 
Q 1107 6 1046 0 
Q 986 -6 960 -6 
Q 909 -6 803 0 
Q 698 6 621 6 
Q 442 6 362 -10 
Q 282 -26 192 -26 
z
" transform="scale(0.015625)"/>
      <path id="EBGaramond-Regular-70" d="M 256 -1824 
Q 224 -1824 173 -1814 
Q 122 -1805 122 -1766 
Q 122 -1715 170 -1692 
Q 218 -1670 269 -1651 
Q 365 -1619 454 -1577 
Q 544 -1536 544 -1408 
L 544 1837 
Q 544 1888 515 1990 
Q 486 2093 422 2189 
Q 358 2285 250 2304 
Q 224 2310 211 2336 
Q 198 2362 198 2387 
Q 198 2419 211 2438 
Q 224 2458 243 2464 
Q 486 2522 659 2589 
Q 832 2656 986 2720 
Q 992 2720 992 2723 
Q 992 2726 998 2726 
Q 1011 2726 1024 2707 
Q 1037 2688 1037 2669 
Q 1037 2611 1021 2486 
Q 1005 2362 1005 2285 
Q 1005 2234 1011 2227 
Q 1075 2291 1244 2390 
Q 1414 2490 1632 2570 
Q 1850 2650 2048 2650 
Q 2381 2650 2614 2474 
Q 2848 2298 2973 2019 
Q 3098 1741 3098 1440 
Q 3098 1152 2989 880 
Q 2880 608 2681 390 
Q 2483 173 2220 41 
Q 1958 -90 1658 -90 
Q 1568 -90 1443 -61 
Q 1318 -32 1200 13 
Q 1082 58 1018 115 
Q 1011 115 1004 41 
Q 998 -32 995 -112 
Q 992 -192 992 -211 
L 992 -1408 
Q 992 -1491 1059 -1539 
Q 1126 -1587 1212 -1609 
Q 1299 -1632 1363 -1651 
Q 1414 -1670 1462 -1692 
Q 1510 -1715 1510 -1766 
Q 1510 -1805 1459 -1814 
Q 1408 -1824 1370 -1824 
Q 1184 -1824 1059 -1808 
Q 934 -1792 768 -1792 
Q 659 -1792 592 -1798 
Q 525 -1805 454 -1814 
Q 384 -1824 256 -1824 
z
M 1754 109 
Q 1850 109 1987 166 
Q 2125 224 2262 352 
Q 2400 480 2493 697 
Q 2586 915 2586 1235 
Q 2586 1606 2490 1830 
Q 2394 2054 2253 2169 
Q 2112 2285 1965 2323 
Q 1818 2362 1715 2362 
Q 1562 2362 1398 2298 
Q 1235 2234 1123 2154 
Q 1011 2074 1011 2029 
Q 1011 1888 1008 1744 
Q 1005 1600 1001 1465 
Q 998 1331 995 1225 
Q 992 1120 992 1062 
Q 992 806 1110 588 
Q 1229 371 1405 240 
Q 1581 109 1754 109 
z
" transform="scale(0.015625)"/>
      <path id="EBGaramond-Regular-79" d="M 410 -1824 
Q 288 -1824 185 -1763 
Q 83 -1702 83 -1562 
Q 83 -1446 137 -1360 
Q 192 -1274 294 -1274 
Q 365 -1274 432 -1293 
Q 499 -1312 550 -1312 
Q 589 -1312 617 -1296 
Q 646 -1280 672 -1242 
Q 742 -1126 835 -953 
Q 928 -781 1027 -563 
Q 1126 -346 1216 -102 
Q 1235 -45 1235 45 
Q 1235 96 1228 144 
Q 1222 192 1210 230 
L 467 2106 
Q 422 2221 348 2307 
Q 275 2394 179 2419 
Q 128 2438 80 2464 
Q 32 2490 32 2534 
Q 32 2573 80 2582 
Q 128 2592 160 2592 
Q 288 2592 349 2585 
Q 410 2579 464 2569 
Q 518 2560 627 2560 
Q 742 2560 800 2569 
Q 858 2579 922 2585 
Q 986 2592 1114 2592 
Q 1152 2592 1197 2576 
Q 1242 2560 1242 2522 
Q 1242 2477 1174 2435 
Q 1107 2394 1056 2381 
Q 992 2362 960 2314 
Q 928 2266 928 2176 
Q 928 2138 947 2083 
Q 966 2029 979 1997 
L 1498 717 
Q 1510 678 1536 678 
Q 1555 678 1568 717 
L 2010 1888 
Q 2029 1933 2045 2006 
Q 2061 2080 2061 2125 
Q 2061 2246 2025 2294 
Q 1990 2342 1933 2368 
Q 1882 2394 1814 2435 
Q 1747 2477 1747 2522 
Q 1747 2560 1795 2576 
Q 1843 2592 1875 2592 
Q 1965 2592 2057 2576 
Q 2150 2560 2330 2560 
Q 2451 2560 2505 2569 
Q 2560 2579 2598 2585 
Q 2637 2592 2707 2592 
Q 2739 2592 2787 2582 
Q 2835 2573 2835 2534 
Q 2835 2490 2787 2464 
Q 2739 2438 2688 2419 
Q 2592 2394 2483 2269 
Q 2374 2144 2310 1990 
L 1440 -83 
Q 1434 -102 1373 -249 
Q 1312 -397 1222 -614 
Q 1133 -832 1027 -1081 
Q 922 -1331 826 -1562 
Q 768 -1690 659 -1757 
Q 550 -1824 410 -1824 
z
" transform="scale(0.015625)"/>
      <path id="EBGaramond-Regular-6b" d="M 269 -19 
Q 122 -19 122 51 
Q 122 102 170 118 
Q 218 134 269 154 
Q 365 186 454 237 
Q 544 288 544 416 
L 544 3622 
Q 544 3846 480 3948 
Q 416 4051 256 4090 
Q 198 4102 198 4173 
Q 198 4237 250 4250 
Q 416 4288 537 4329 
Q 659 4371 758 4412 
Q 858 4454 954 4493 
Q 992 4512 1011 4512 
Q 1030 4512 1040 4499 
Q 1050 4486 1050 4454 
Q 1050 4390 1021 4198 
Q 992 4006 992 3597 
L 992 1498 
Q 992 1440 1024 1440 
Q 1062 1440 1123 1472 
Q 1184 1504 1254 1568 
Q 1517 1792 1693 1974 
Q 1869 2157 1933 2227 
Q 1965 2266 1977 2288 
Q 1990 2310 1990 2323 
Q 1990 2355 1936 2380 
Q 1882 2406 1824 2419 
Q 1747 2438 1747 2483 
Q 1747 2515 1785 2537 
Q 1824 2560 1888 2560 
L 2202 2560 
Q 2304 2560 2416 2579 
Q 2528 2598 2627 2617 
Q 2726 2637 2784 2637 
Q 2874 2637 2874 2573 
Q 2874 2534 2829 2505 
Q 2784 2477 2714 2458 
Q 2592 2426 2486 2368 
Q 2381 2310 2291 2259 
Q 2253 2234 2115 2122 
Q 1978 2010 1802 1862 
Q 1626 1715 1472 1581 
Q 1434 1542 1434 1517 
Q 1434 1510 1440 1497 
Q 1446 1485 1453 1472 
Q 1619 1267 1811 1056 
Q 2003 845 2166 685 
Q 2330 525 2394 461 
Q 2502 358 2640 278 
Q 2778 198 2874 166 
Q 2944 141 3005 121 
Q 3066 102 3066 51 
Q 3066 -19 2938 -19 
Q 2688 -19 2377 -9 
Q 2067 0 1741 0 
Q 1626 0 1626 58 
Q 1626 96 1658 121 
Q 1690 147 1734 160 
Q 1805 186 1856 218 
Q 1907 250 1907 307 
Q 1907 326 1894 348 
Q 1882 371 1862 397 
L 1088 1274 
Q 1050 1318 1024 1318 
Q 992 1318 992 1274 
Q 986 1184 986 1078 
Q 986 973 986 864 
Q 986 755 986 640 
Q 986 525 992 416 
Q 992 288 1056 237 
Q 1120 186 1216 154 
Q 1267 134 1315 118 
Q 1363 102 1363 51 
Q 1363 6 1302 -6 
Q 1242 -19 1216 -19 
Q 1094 -19 1036 -9 
Q 979 0 931 6 
Q 883 13 768 13 
Q 659 13 595 6 
Q 531 0 464 -9 
Q 397 -19 269 -19 
z
" transform="scale(0.015625)"/>
     </defs>
     <use xlink:href="#EBGaramond-Regular-45"/>
     <use xlink:href="#EBGaramond-Regular-61" x="56.399994"/>
     <use xlink:href="#EBGaramond-Regular-63" x="96.299988"/>
     <use xlink:href="#EBGaramond-Regular-68" x="136.999985"/>
     <use xlink:href="#EBGaramond-Regular-20" x="188.499969"/>
     <use xlink:href="#EBGaramond-Regular-64" x="208.499954"/>
     <use xlink:href="#EBGaramond-Regular-69" x="259.099945"/>
     <use xlink:href="#EBGaramond-Regular-73" x="283.59993"/>
     <use xlink:href="#EBGaramond-Regular-74" x="315.899918"/>
     <use xlink:href="#EBGaramond-Regular-72" x="347.299911"/>
     <use xlink:href="#EBGaramond-Regular-69" x="380.699905"/>
     <use xlink:href="#EBGaramond-Regular-62" x="405.19989"/>
     <use xlink:href="#EBGaramond-Regular-75" x="456.699875"/>
     <use xlink:href="#EBGaramond-Regular-74" x="509.399872"/>
     <use xlink:href="#EBGaramond-Regular-69" x="540.799866"/>
     <use xlink:href="#EBGaramond-Regular-6f" x="565.29985"/>
     <use xlink:href="#EBGaramond-Regular-6e" x="614.799835"/>
     <use xlink:href="#EBGaramond-Regular-20" x="667.599823"/>
     <use xlink:href="#EBGaramond-Regular-66" x="687.599808"/>
     <use xlink:href="#EBGaramond-Regular-69" x="719.399796"/>
     <use xlink:href="#EBGaramond-Regular-78" x="743.89978"/>
     <use xlink:href="#EBGaramond-Regular-65" x="786.899765"/>
     <use xlink:href="#EBGaramond-Regular-73" x="825.89975"/>
     <use xlink:href="#EBGaramond-Regular-20" x="858.199738"/>
     <use xlink:href="#EBGaramond-Regular-74" x="878.199722"/>
     <use xlink:href="#EBGaramond-Regular-68" x="909.599716"/>
     <use xlink:href="#EBGaramond-Regular-65" x="961.099701"/>
     <use xlink:href="#EBGaramond-Regular-20" x="1000.099686"/>
     <use xlink:href="#EBGaramond-Regular-73" x="1020.09967"/>
     <use xlink:href="#EBGaramond-Regular-68" x="1052.399658"/>
     <use xlink:href="#EBGaramond-Regular-61" x="1103.899643"/>
     <use xlink:href="#EBGaramond-Regular-70" x="1143.799637"/>
     <use xlink:href="#EBGaramond-Regular-65" x="1195.699631"/>
     <use xlink:href="#EBGaramond-Regular-20" x="1234.699615"/>
     <use xlink:href="#EBGaramond-Regular-74" x="1254.6996"/>
     <use xlink:href="#EBGaramond-Regular-68" x="1286.099594"/>
     <use xlink:href="#EBGaramond-Regular-65" x="1337.599579"/>
     <use xlink:href="#EBGaramond-Regular-20" x="1376.599564"/>
     <use xlink:href="#EBGaramond-Regular-68" x="1396.599548"/>
     <use xlink:href="#EBGaramond-Regular-61" x="1448.099533"/>
     <use xlink:href="#EBGaramond-Regular-7a" x="1487.999527"/>
     <use xlink:href="#EBGaramond-Regular-61" x="1525.699524"/>
     <use xlink:href="#EBGaramond-Regular-72" x="1565.599518"/>
     <use xlink:href="#EBGaramond-Regular-64" x="1598.999512"/>
     <use xlink:href="#EBGaramond-Regular-20" x="1649.599503"/>
     <use xlink:href="#EBGaramond-Regular-6d" x="1669.599487"/>
     <use xlink:href="#EBGaramond-Regular-61" x="1747.399475"/>
     <use xlink:href="#EBGaramond-Regular-79" x="1787.299469"/>
     <use xlink:href="#EBGaramond-Regular-20" x="1831.099457"/>
     <use xlink:href="#EBGaramond-Regular-74" x="1851.099442"/>
     <use xlink:href="#EBGaramond-Regular-61" x="1882.499435"/>
     <use xlink:href="#EBGaramond-Regular-6b" x="1922.399429"/>
     <use xlink:href="#EBGaramond-Regular-65" x="1969.299423"/>
    </g>
   </g>
   <g id="legend_1">
    <g id="line2d_18">
     <path d="M 357.322031 34.6605 
L 366.322031 34.6605 
L 375.322031 34.6605 
" style="fill: none; stroke: #5f776c; stroke-width: 2.2; stroke-linecap: square"/>
    </g>
    <g id="text_17">
     <!-- Exponential — constant -->
     <g style="fill: #33463f" transform="translate(382.522031 37.8105) scale(0.09 -0.09)">
      <defs>
       <path id="EBGaramond-Regular-6c" d="M 250 -19 
Q 218 -19 170 -9 
Q 122 0 122 38 
Q 122 90 170 112 
Q 218 134 269 154 
Q 365 186 454 227 
Q 544 269 544 397 
L 544 3622 
Q 544 3808 477 3933 
Q 410 4058 250 4090 
Q 198 4102 198 4173 
Q 198 4237 243 4250 
Q 410 4288 531 4329 
Q 653 4371 758 4416 
Q 864 4461 966 4499 
Q 992 4512 1005 4512 
Q 1018 4512 1027 4496 
Q 1037 4480 1037 4467 
Q 1037 4410 1014 4221 
Q 992 4032 992 3597 
L 992 397 
Q 992 269 1081 227 
Q 1171 186 1267 154 
Q 1318 134 1366 112 
Q 1414 90 1414 38 
Q 1414 0 1366 -9 
Q 1318 -19 1286 -19 
Q 1165 -19 1091 -9 
Q 1018 0 950 6 
Q 883 13 768 13 
Q 659 13 588 6 
Q 518 0 448 -9 
Q 378 -19 250 -19 
z
" transform="scale(0.015625)"/>
       <path id="EBGaramond-Regular-2014" d="M 410 1184 
Q 378 1184 349 1209 
Q 320 1235 320 1261 
Q 320 1293 333 1357 
Q 346 1421 381 1475 
Q 416 1530 474 1530 
L 5677 1530 
Q 5709 1530 5734 1507 
Q 5760 1485 5760 1453 
Q 5760 1357 5699 1270 
Q 5638 1184 5562 1184 
L 410 1184 
z
" transform="scale(0.015625)"/>
      </defs>
      <use xlink:href="#EBGaramond-Regular-45"/>
      <use xlink:href="#EBGaramond-Regular-78" x="56.399994"/>
      <use xlink:href="#EBGaramond-Regular-70" x="99.399979"/>
      <use xlink:href="#EBGaramond-Regular-6f" x="151.299973"/>
      <use xlink:href="#EBGaramond-Regular-6e" x="200.799957"/>
      <use xlink:href="#EBGaramond-Regular-65" x="253.599945"/>
      <use xlink:href="#EBGaramond-Regular-6e" x="292.59993"/>
      <use xlink:href="#EBGaramond-Regular-74" x="345.399918"/>
      <use xlink:href="#EBGaramond-Regular-69" x="376.799911"/>
      <use xlink:href="#EBGaramond-Regular-61" x="401.299896"/>
      <use xlink:href="#EBGaramond-Regular-6c" x="441.19989"/>
      <use xlink:href="#EBGaramond-Regular-20" x="465.199875"/>
      <use xlink:href="#EBGaramond-Regular-2014" x="485.19986"/>
      <use xlink:href="#EBGaramond-Regular-20" x="580.199844"/>
      <use xlink:href="#EBGaramond-Regular-63" x="600.199829"/>
      <use xlink:href="#EBGaramond-Regular-6f" x="640.899826"/>
      <use xlink:href="#EBGaramond-Regular-6e" x="690.399811"/>
      <use xlink:href="#EBGaramond-Regular-73" x="743.199799"/>
      <use xlink:href="#EBGaramond-Regular-74" x="775.499786"/>
      <use xlink:href="#EBGaramond-Regular-61" x="806.89978"/>
      <use xlink:href="#EBGaramond-Regular-6e" x="846.799774"/>
      <use xlink:href="#EBGaramond-Regular-74" x="899.599762"/>
     </g>
    </g>
    <g id="line2d_19">
     <path d="M 357.322031 48.5655 
L 366.322031 48.5655 
L 375.322031 48.5655 
" style="fill: none; stroke: #2f8a5f; stroke-width: 2.2; stroke-linecap: square"/>
    </g>
    <g id="text_18">
     <!-- Weibull ($k&gt;1$) — rising -->
     <g style="fill: #33463f" transform="translate(382.522031 51.7155) scale(0.09 -0.09)">
      <defs>
       <path id="EBGaramond-Regular-57" d="M 2144 -102 
Q 2131 -102 2105 -44 
Q 2080 13 2054 77 
L 672 3546 
Q 595 3712 486 3817 
Q 378 3923 211 3968 
Q 109 4000 54 4032 
Q 0 4064 0 4109 
Q 0 4147 51 4163 
Q 102 4179 186 4179 
Q 333 4179 464 4169 
Q 595 4160 755 4160 
Q 934 4160 1094 4166 
Q 1254 4173 1350 4173 
Q 1434 4173 1485 4157 
Q 1536 4141 1536 4102 
Q 1536 4058 1485 4032 
Q 1434 4006 1325 3974 
Q 1248 3955 1222 3894 
Q 1197 3834 1197 3763 
Q 1197 3661 1222 3574 
Q 1248 3488 1248 3488 
Q 1395 3117 1516 2809 
Q 1638 2502 1756 2217 
Q 1875 1933 2006 1635 
Q 2138 1338 2298 973 
Q 2330 902 2352 908 
Q 2374 915 2394 966 
L 2893 2202 
Q 2912 2253 2921 2288 
Q 2931 2323 2931 2349 
Q 2931 2387 2918 2428 
Q 2906 2470 2880 2534 
L 2515 3443 
Q 2432 3648 2253 3785 
Q 2074 3923 1907 3968 
Q 1805 4000 1750 4032 
Q 1696 4064 1696 4109 
Q 1696 4147 1747 4163 
Q 1798 4179 1882 4179 
Q 1984 4179 2077 4172 
Q 2170 4166 2269 4163 
Q 2368 4160 2483 4160 
Q 2630 4160 2755 4166 
Q 2880 4173 2976 4173 
Q 3059 4173 3110 4157 
Q 3162 4141 3162 4102 
Q 3162 4051 3098 4019 
Q 3034 3987 2966 3948 
Q 2899 3910 2899 3834 
Q 2899 3821 2902 3808 
Q 2906 3795 2912 3782 
Q 2925 3757 2960 3657 
Q 2995 3558 3043 3436 
Q 3091 3315 3136 3209 
Q 3181 3104 3200 3059 
Q 3232 2982 3254 2979 
Q 3277 2976 3315 3059 
Q 3366 3174 3420 3321 
Q 3475 3469 3516 3600 
Q 3558 3731 3571 3782 
Q 3578 3802 3578 3827 
Q 3578 3904 3520 3942 
Q 3462 3981 3401 4016 
Q 3341 4051 3341 4102 
Q 3341 4141 3392 4157 
Q 3443 4173 3526 4173 
Q 3667 4173 3718 4166 
Q 3770 4160 3859 4160 
Q 3968 4160 4045 4169 
Q 4122 4179 4237 4179 
Q 4320 4179 4371 4163 
Q 4422 4147 4422 4109 
Q 4422 4064 4371 4035 
Q 4320 4006 4211 3981 
Q 4006 3936 3932 3872 
Q 3859 3808 3776 3674 
Q 3744 3616 3683 3481 
Q 3622 3347 3555 3187 
Q 3488 3027 3437 2886 
Q 3418 2842 3402 2758 
Q 3386 2675 3398 2643 
L 4058 947 
Q 4070 915 4089 928 
Q 4109 941 4128 986 
Q 4288 1408 4489 2067 
Q 4691 2726 4909 3462 
Q 4928 3520 4937 3581 
Q 4947 3642 4947 3693 
Q 4947 3789 4905 3865 
Q 4864 3942 4755 3968 
Q 4691 3987 4617 4019 
Q 4544 4051 4544 4096 
Q 4544 4134 4595 4150 
Q 4646 4166 4730 4166 
Q 4858 4166 4963 4163 
Q 5069 4160 5190 4160 
Q 5350 4160 5497 4169 
Q 5645 4179 5766 4179 
Q 5850 4179 5901 4163 
Q 5952 4147 5952 4109 
Q 5952 4064 5901 4035 
Q 5850 4006 5741 3981 
Q 5587 3949 5481 3849 
Q 5376 3750 5315 3632 
Q 5254 3514 5216 3418 
L 4083 70 
Q 4077 45 4045 -16 
Q 4013 -77 3981 -77 
Q 3955 -77 3923 -38 
Q 3891 0 3872 45 
Q 3706 429 3584 733 
Q 3462 1037 3350 1344 
Q 3238 1651 3085 2022 
Q 3066 2067 3053 2057 
Q 3040 2048 3014 1984 
Q 2861 1619 2749 1337 
Q 2637 1056 2528 765 
Q 2419 474 2285 96 
Q 2259 32 2220 -35 
Q 2182 -102 2144 -102 
z
" transform="scale(0.015625)"/>
       <path id="EBGaramond-Regular-28" d="M 1517 -1370 
Q 1453 -1370 1408 -1325 
Q 1274 -1190 1117 -940 
Q 960 -691 806 -371 
Q 653 -51 528 310 
Q 403 672 329 1033 
Q 256 1395 256 1722 
Q 256 2131 365 2540 
Q 474 2950 646 3318 
Q 819 3686 1014 3977 
Q 1210 4269 1382 4442 
Q 1414 4474 1462 4493 
Q 1510 4512 1555 4512 
Q 1587 4512 1641 4483 
Q 1696 4454 1696 4410 
Q 1696 4403 1677 4377 
Q 1658 4352 1638 4323 
Q 1619 4294 1613 4288 
Q 1421 4064 1229 3686 
Q 1037 3309 912 2825 
Q 787 2342 787 1798 
Q 787 1389 857 950 
Q 928 512 1043 105 
Q 1158 -301 1302 -617 
Q 1446 -934 1594 -1107 
Q 1600 -1114 1622 -1139 
Q 1645 -1165 1667 -1193 
Q 1690 -1222 1690 -1229 
Q 1690 -1293 1635 -1331 
Q 1581 -1370 1517 -1370 
z
" transform="scale(0.015625)"/>
       <path id="DejaVuSans-Oblique-6b" d="M 1172 4863 
L 1747 4863 
L 1197 2028 
L 3169 3500 
L 3916 3500 
L 1716 1825 
L 3322 0 
L 2625 0 
L 1131 1709 
L 800 0 
L 225 0 
L 1172 4863 
z
" transform="scale(0.015625)"/>
       <path id="DejaVuSans-3e" d="M 678 3150 
L 678 3719 
L 4684 2266 
L 4684 1747 
L 678 294 
L 678 863 
L 3897 2003 
L 678 3150 
z
" transform="scale(0.015625)"/>
       <path id="DejaVuSans-31" d="M 794 531 
L 1825 531 
L 1825 4091 
L 703 3866 
L 703 4441 
L 1819 4666 
L 2450 4666 
L 2450 531 
L 3481 531 
L 3481 0 
L 794 0 
L 794 531 
z
" transform="scale(0.015625)"/>
       <path id="EBGaramond-Regular-29" d="M 499 -1370 
Q 435 -1370 380 -1331 
Q 326 -1293 326 -1229 
Q 326 -1222 348 -1193 
Q 371 -1165 396 -1139 
Q 422 -1114 422 -1107 
Q 570 -934 714 -617 
Q 858 -301 973 105 
Q 1088 512 1158 950 
Q 1229 1389 1229 1798 
Q 1229 2342 1104 2825 
Q 979 3309 790 3686 
Q 602 4064 403 4288 
Q 397 4294 377 4323 
Q 358 4352 339 4377 
Q 320 4403 320 4410 
Q 320 4454 374 4483 
Q 429 4512 461 4512 
Q 512 4512 560 4493 
Q 608 4474 634 4442 
Q 806 4269 1001 3977 
Q 1197 3686 1369 3318 
Q 1542 2950 1651 2540 
Q 1760 2131 1760 1722 
Q 1760 1395 1686 1033 
Q 1613 672 1488 310 
Q 1363 -51 1209 -371 
Q 1056 -691 899 -940 
Q 742 -1190 608 -1325 
Q 563 -1370 499 -1370 
z
" transform="scale(0.015625)"/>
       <path id="DejaVuSansDisplay-2014" d="M 313 1978 
L 6088 1978 
L 6088 1528 
L 313 1528 
L 313 1978 
z
" transform="scale(0.015625)"/>
       <path id="EBGaramond-Regular-67" d="M 1248 -1856 
Q 704 -1856 387 -1648 
Q 70 -1440 70 -1088 
Q 70 -922 121 -806 
Q 173 -691 282 -608 
Q 371 -531 521 -412 
Q 672 -294 832 -166 
L 1101 -179 
Q 794 -378 672 -557 
Q 550 -736 550 -992 
Q 550 -1248 777 -1424 
Q 1005 -1600 1338 -1600 
Q 1715 -1600 1946 -1427 
Q 2106 -1306 2195 -1110 
Q 2285 -915 2285 -698 
Q 2285 -557 2185 -464 
Q 2086 -371 1875 -313 
Q 1664 -256 1325 -237 
Q 723 -192 489 -77 
Q 256 38 256 282 
Q 256 346 291 400 
Q 326 454 403 518 
Q 550 634 620 688 
Q 691 742 726 780 
Q 762 819 794 877 
L 1011 768 
Q 870 717 774 630 
Q 678 544 678 474 
Q 678 384 774 317 
Q 870 250 1056 211 
Q 1242 173 1510 154 
Q 2099 122 2387 -38 
Q 2675 -198 2675 -493 
Q 2675 -742 2550 -982 
Q 2426 -1222 2221 -1420 
Q 2016 -1619 1763 -1737 
Q 1510 -1856 1248 -1856 
z
M 1325 902 
Q 1568 902 1728 1148 
Q 1888 1395 1888 1760 
Q 1888 1946 1801 2109 
Q 1715 2272 1577 2371 
Q 1440 2470 1280 2470 
Q 1133 2470 1001 2364 
Q 870 2259 790 2092 
Q 710 1926 710 1728 
Q 710 1504 793 1315 
Q 877 1126 1017 1014 
Q 1158 902 1325 902 
z
M 1286 678 
Q 1024 678 787 812 
Q 550 947 400 1168 
Q 250 1389 250 1651 
Q 250 1952 406 2179 
Q 563 2406 819 2534 
Q 1075 2662 1363 2662 
Q 1549 2662 1686 2614 
Q 1824 2566 1958 2528 
Q 2112 2483 2201 2473 
Q 2291 2464 2387 2464 
Q 2464 2464 2579 2473 
Q 2694 2483 2739 2483 
Q 2822 2483 2822 2387 
Q 2822 2330 2758 2266 
Q 2726 2234 2707 2234 
L 2534 2234 
Q 2362 2234 2342 2182 
Q 2336 2157 2326 2109 
Q 2317 2061 2310 2003 
Q 2304 1946 2304 1888 
Q 2304 1562 2163 1286 
Q 2022 1011 1792 844 
Q 1562 678 1286 678 
z
" transform="scale(0.015625)"/>
      </defs>
      <use xlink:href="#EBGaramond-Regular-57" transform="translate(0 0.015625)"/>
      <use xlink:href="#EBGaramond-Regular-65" transform="translate(91.599991 0.015625)"/>
      <use xlink:href="#EBGaramond-Regular-69" transform="translate(130.599976 0.015625)"/>
      <use xlink:href="#EBGaramond-Regular-62" transform="translate(155.09996 0.015625)"/>
      <use xlink:href="#EBGaramond-Regular-75" transform="translate(206.599945 0.015625)"/>
      <use xlink:href="#EBGaramond-Regular-6c" transform="translate(259.299942 0.015625)"/>
      <use xlink:href="#EBGaramond-Regular-6c" transform="translate(283.299927 0.015625)"/>
      <use xlink:href="#EBGaramond-Regular-20" transform="translate(307.299911 0.015625)"/>
      <use xlink:href="#EBGaramond-Regular-28" transform="translate(327.299896 0.015625)"/>
      <use xlink:href="#DejaVuSans-Oblique-6b" transform="translate(358.799881 0.015625)"/>
      <use xlink:href="#DejaVuSans-3e" transform="translate(436.192459 0.015625)"/>
      <use xlink:href="#DejaVuSans-31" transform="translate(539.463943 0.015625)"/>
      <use xlink:href="#EBGaramond-Regular-29" transform="translate(603.08699 0.015625)"/>
      <use xlink:href="#EBGaramond-Regular-20" transform="translate(634.586975 0.015625)"/>
      <use xlink:href="#DejaVuSansDisplay-2014" transform="translate(654.58696 0.015625)"/>
      <use xlink:href="#EBGaramond-Regular-20" transform="translate(754.58696 0.015625)"/>
      <use xlink:href="#EBGaramond-Regular-72" transform="translate(774.586945 0.015625)"/>
      <use xlink:href="#EBGaramond-Regular-69" transform="translate(807.986938 0.015625)"/>
      <use xlink:href="#EBGaramond-Regular-73" transform="translate(832.486923 0.015625)"/>
      <use xlink:href="#EBGaramond-Regular-69" transform="translate(864.786911 0.015625)"/>
      <use xlink:href="#EBGaramond-Regular-6e" transform="translate(889.286896 0.015625)"/>
      <use xlink:href="#EBGaramond-Regular-67" transform="translate(942.086884 0.015625)"/>
     </g>
    </g>
    <g id="line2d_20">
     <path d="M 357.322031 62.5155 
L 366.322031 62.5155 
L 375.322031 62.5155 
" style="fill: none; stroke: #b23a24; stroke-width: 2.2; stroke-linecap: square"/>
    </g>
    <g id="text_19">
     <!-- Weibull ($k&lt;1$) — falling -->
     <g style="fill: #33463f" transform="translate(382.522031 65.6655) scale(0.09 -0.09)">
      <defs>
       <path id="DejaVuSans-3c" d="M 4684 3150 
L 1459 2003 
L 4684 863 
L 4684 294 
L 678 1747 
L 678 2266 
L 4684 3719 
L 4684 3150 
z
" transform="scale(0.015625)"/>
      </defs>
      <use xlink:href="#EBGaramond-Regular-57" transform="translate(0 0.015625)"/>
      <use xlink:href="#EBGaramond-Regular-65" transform="translate(91.599991 0.015625)"/>
      <use xlink:href="#EBGaramond-Regular-69" transform="translate(130.599976 0.015625)"/>
      <use xlink:href="#EBGaramond-Regular-62" transform="translate(155.09996 0.015625)"/>
      <use xlink:href="#EBGaramond-Regular-75" transform="translate(206.599945 0.015625)"/>
      <use xlink:href="#EBGaramond-Regular-6c" transform="translate(259.299942 0.015625)"/>
      <use xlink:href="#EBGaramond-Regular-6c" transform="translate(283.299927 0.015625)"/>
      <use xlink:href="#EBGaramond-Regular-20" transform="translate(307.299911 0.015625)"/>
      <use xlink:href="#EBGaramond-Regular-28" transform="translate(327.299896 0.015625)"/>
      <use xlink:href="#DejaVuSans-Oblique-6b" transform="translate(358.799881 0.015625)"/>
      <use xlink:href="#DejaVuSans-3c" transform="translate(436.192459 0.015625)"/>
      <use xlink:href="#DejaVuSans-31" transform="translate(539.463943 0.015625)"/>
      <use xlink:href="#EBGaramond-Regular-29" transform="translate(603.08699 0.015625)"/>
      <use xlink:href="#EBGaramond-Regular-20" transform="translate(634.586975 0.015625)"/>
      <use xlink:href="#DejaVuSansDisplay-2014" transform="translate(654.58696 0.015625)"/>
      <use xlink:href="#EBGaramond-Regular-20" transform="translate(754.58696 0.015625)"/>
      <use xlink:href="#EBGaramond-Regular-66" transform="translate(774.586945 0.015625)"/>
      <use xlink:href="#EBGaramond-Regular-61" transform="translate(806.386932 0.015625)"/>
      <use xlink:href="#EBGaramond-Regular-6c" transform="translate(846.286926 0.015625)"/>
      <use xlink:href="#EBGaramond-Regular-6c" transform="translate(870.286911 0.015625)"/>
      <use xlink:href="#EBGaramond-Regular-69" transform="translate(894.286896 0.015625)"/>
      <use xlink:href="#EBGaramond-Regular-6e" transform="translate(918.78688 0.015625)"/>
      <use xlink:href="#EBGaramond-Regular-67" transform="translate(971.586868 0.015625)"/>
     </g>
    </g>
    <g id="line2d_21">
     <path d="M 357.322031 75.978937 
L 366.322031 75.978937 
L 375.322031 75.978937 
" style="fill: none; stroke: #3a6ea5; stroke-width: 2.2; stroke-linecap: square"/>
    </g>
    <g id="text_20">
     <!-- Log-normal — rises then falls -->
     <g style="fill: #33463f" transform="translate(382.522031 79.128937) scale(0.09 -0.09)">
      <defs>
       <path id="EBGaramond-Regular-4c" d="M 352 -32 
Q 269 -32 221 -9 
Q 173 13 173 45 
Q 173 102 233 124 
Q 294 147 314 154 
Q 563 205 697 304 
Q 832 403 832 614 
L 832 3584 
Q 832 3738 800 3811 
Q 768 3885 685 3920 
Q 602 3955 442 3981 
Q 230 4019 230 4109 
Q 230 4147 281 4163 
Q 333 4179 416 4179 
Q 589 4179 694 4172 
Q 800 4166 896 4163 
Q 992 4160 1133 4160 
Q 1293 4160 1408 4163 
Q 1523 4166 1644 4172 
Q 1766 4179 1939 4179 
Q 2022 4179 2073 4163 
Q 2125 4147 2125 4109 
Q 2125 4064 2073 4032 
Q 2022 4000 1914 3981 
Q 1677 3936 1510 3875 
Q 1344 3814 1344 3629 
L 1344 614 
Q 1344 416 1433 320 
Q 1523 224 1837 224 
L 2630 224 
Q 2803 224 2934 278 
Q 3066 333 3130 390 
Q 3258 499 3318 585 
Q 3379 672 3462 845 
Q 3475 883 3516 960 
Q 3558 1037 3603 1037 
Q 3642 1037 3661 998 
Q 3680 960 3680 922 
Q 3680 915 3677 905 
Q 3674 896 3674 890 
Q 3629 723 3593 588 
Q 3558 454 3536 332 
Q 3514 211 3501 77 
Q 3494 32 3478 0 
Q 3462 -32 3411 -32 
Q 3091 -32 2796 -25 
Q 2502 -19 2230 -16 
Q 1958 -13 1708 -6 
Q 1459 0 1216 0 
Q 1056 0 854 -6 
Q 653 -13 502 -22 
Q 352 -32 352 -32 
z
" transform="scale(0.015625)"/>
       <path id="EBGaramond-Regular-2d" d="M 224 1088 
Q 186 1088 186 1126 
Q 186 1235 214 1350 
Q 243 1466 288 1472 
Q 595 1517 902 1558 
Q 1210 1600 1517 1632 
Q 1536 1632 1552 1622 
Q 1568 1613 1568 1594 
Q 1568 1472 1539 1366 
Q 1510 1261 1434 1248 
Q 1146 1203 848 1161 
Q 550 1120 224 1088 
z
" transform="scale(0.015625)"/>
      </defs>
      <use xlink:href="#EBGaramond-Regular-4c"/>
      <use xlink:href="#EBGaramond-Regular-6f" x="58.399994"/>
      <use xlink:href="#EBGaramond-Regular-67" x="107.899979"/>
      <use xlink:href="#EBGaramond-Regular-2d" x="151.399963"/>
      <use xlink:href="#EBGaramond-Regular-6e" x="178.799957"/>
      <use xlink:href="#EBGaramond-Regular-6f" x="231.599945"/>
      <use xlink:href="#EBGaramond-Regular-72" x="281.09993"/>
      <use xlink:href="#EBGaramond-Regular-6d" x="314.499924"/>
      <use xlink:href="#EBGaramond-Regular-61" x="392.299911"/>
      <use xlink:href="#EBGaramond-Regular-6c" x="432.199905"/>
      <use xlink:href="#EBGaramond-Regular-20" x="456.19989"/>
      <use xlink:href="#EBGaramond-Regular-2014" x="476.199875"/>
      <use xlink:href="#EBGaramond-Regular-20" x="571.19986"/>
      <use xlink:href="#EBGaramond-Regular-72" x="591.199844"/>
      <use xlink:href="#EBGaramond-Regular-69" x="624.599838"/>
      <use xlink:href="#EBGaramond-Regular-73" x="649.099823"/>
      <use xlink:href="#EBGaramond-Regular-65" x="681.399811"/>
      <use xlink:href="#EBGaramond-Regular-73" x="720.399796"/>
      <use xlink:href="#EBGaramond-Regular-20" x="752.699783"/>
      <use xlink:href="#EBGaramond-Regular-74" x="772.699768"/>
      <use xlink:href="#EBGaramond-Regular-68" x="804.099762"/>
      <use xlink:href="#EBGaramond-Regular-65" x="855.599747"/>
      <use xlink:href="#EBGaramond-Regular-6e" x="894.599731"/>
      <use xlink:href="#EBGaramond-Regular-20" x="947.399719"/>
      <use xlink:href="#EBGaramond-Regular-66" x="967.399704"/>
      <use xlink:href="#EBGaramond-Regular-61" x="999.199692"/>
      <use xlink:href="#EBGaramond-Regular-6c" x="1039.099686"/>
      <use xlink:href="#EBGaramond-Regular-6c" x="1063.09967"/>
      <use xlink:href="#EBGaramond-Regular-73" x="1087.099655"/>
     </g>
    </g>
   </g>
  </g>
 </g>
 <defs>
  <clipPath id="pfc57af3329">
   <rect x="44.36" y="23.3655" width="447.01" height="224.9875"/>
  </clipPath>
 </defs>
</svg>
