<?xml version="1.0" encoding="utf-8" standalone="no"?>
<!DOCTYPE svg PUBLIC "-//W3C//DTD SVG 1.1//EN"
  "http://www.w3.org/Graphics/SVG/1.1/DTD/svg11.dtd">
<svg xmlns:xlink="http://www.w3.org/1999/xlink" width="529.978265pt" height="312.824625pt" viewBox="0 0 529.978265 312.824625" xmlns="http://www.w3.org/2000/svg" version="1.1">
 <metadata>
  <rdf:RDF xmlns:dc="http://purl.org/dc/elements/1.1/" xmlns:cc="http://creativecommons.org/ns#" xmlns:rdf="http://www.w3.org/1999/02/22-rdf-syntax-ns#">
   <cc:Work>
    <dc:type rdf:resource="http://purl.org/dc/dcmitype/StillImage"/>
    <dc:date>2026-06-15T14:28:26.482233</dc:date>
    <dc:format>image/svg+xml</dc:format>
    <dc:creator>
     <cc:Agent>
      <dc:title>Matplotlib v3.9.4, https://matplotlib.org/</dc:title>
     </cc:Agent>
    </dc:creator>
   </cc:Work>
  </rdf:RDF>
 </metadata>
 <defs>
  <style type="text/css">*{stroke-linejoin: round; stroke-linecap: butt}</style>
 </defs>
 <g id="figure_1">
  <g id="patch_1">
   <path d="M 0 312.824625 
L 529.978265 312.824625 
L 529.978265 0 
L 0 0 
z
" style="fill: #ffffff"/>
  </g>
  <g id="axes_1">
   <g id="patch_2">
    <path d="M 61.73 263.98825 
L 509.146266 263.98825 
L 509.146266 24.09225 
L 61.73 24.09225 
z
" style="fill: #ffffff"/>
   </g>
   <g id="matplotlib.axis_1">
    <g id="xtick_1">
     <g id="line2d_1">
      <path d="M 84.100813 263.98825 
L 84.100813 24.09225 
" clip-path="url(#p9adaf52dac)" style="fill: none; stroke: #eef2f7; stroke-linecap: square"/>
     </g>
     <g id="line2d_2">
      <defs>
       <path id="mccfa696955" d="M 0 0 
L 0 3.5 
" style="stroke: #5b6b7f; stroke-width: 0.8"/>
      </defs>
      <g>
       <use xlink:href="#mccfa696955" x="84.100813" y="263.98825" style="fill: #5b6b7f; stroke: #5b6b7f; stroke-width: 0.8"/>
      </g>
     </g>
     <g id="text_1">
      <!-- rigid -->
      <g style="fill: #5b6b7f" transform="translate(74.745032 277.791687) scale(0.09 -0.09)">
       <defs>
        <path id="Georgia-72" d="M 2584 2684 
Q 2584 2525 2506 2401 
Q 2428 2278 2266 2278 
Q 2091 2278 1998 2368 
Q 1906 2459 1906 2569 
Q 1906 2638 1917 2694 
Q 1928 2750 1938 2806 
Q 1791 2806 1594 2687 
Q 1397 2569 1259 2350 
L 1259 556 
Q 1259 447 1301 378 
Q 1344 309 1434 275 
Q 1513 244 1636 228 
Q 1759 213 1850 206 
L 1850 0 
L 225 0 
L 225 206 
Q 297 213 373 219 
Q 450 225 506 244 
Q 594 272 636 342 
Q 678 413 678 525 
L 678 2428 
Q 678 2525 633 2619 
Q 588 2713 506 2769 
Q 447 2806 365 2823 
Q 284 2841 191 2847 
L 191 3050 
L 1216 3119 
L 1259 3075 
L 1259 2641 
L 1275 2641 
Q 1469 2894 1706 3025 
Q 1944 3156 2141 3156 
Q 2338 3156 2461 3028 
Q 2584 2900 2584 2684 
z
" transform="scale(0.015625)"/>
        <path id="Georgia-69" d="M 1722 0 
L 231 0 
L 231 206 
Q 303 213 379 219 
Q 456 225 513 244 
Q 600 272 642 342 
Q 684 413 684 525 
L 684 2428 
Q 684 2528 639 2611 
Q 594 2694 513 2750 
Q 453 2788 340 2814 
Q 228 2841 134 2847 
L 134 3050 
L 1222 3119 
L 1266 3075 
L 1266 563 
Q 1266 453 1308 381 
Q 1350 309 1441 275 
Q 1509 247 1575 230 
Q 1641 213 1722 206 
L 1722 0 
z
M 1328 4334 
Q 1328 4156 1211 4023 
Q 1094 3891 922 3891 
Q 763 3891 645 4017 
Q 528 4144 528 4306 
Q 528 4478 645 4606 
Q 763 4734 922 4734 
Q 1100 4734 1214 4614 
Q 1328 4494 1328 4334 
z
" transform="scale(0.015625)"/>
        <path id="Georgia-67" d="M 2866 319 
Q 2991 200 3062 50 
Q 3134 -100 3134 -322 
Q 3134 -544 3037 -739 
Q 2941 -934 2744 -1078 
Q 2534 -1225 2243 -1306 
Q 1953 -1388 1525 -1388 
Q 825 -1388 478 -1183 
Q 131 -978 131 -584 
Q 131 -266 381 -81 
Q 631 103 1019 119 
L 1019 163 
Q 925 191 825 233 
Q 725 275 653 331 
Q 572 397 522 486 
Q 472 575 472 706 
Q 472 872 589 1011 
Q 706 1150 944 1250 
L 944 1297 
Q 644 1438 478 1658 
Q 313 1878 313 2169 
Q 313 2606 639 2887 
Q 966 3169 1475 3169 
Q 1616 3169 1755 3141 
Q 1894 3113 2038 3069 
L 3113 3069 
L 3113 2769 
L 2388 2769 
L 2388 2750 
Q 2503 2616 2559 2453 
Q 2616 2291 2616 2134 
Q 2616 1728 2286 1447 
Q 1956 1166 1519 1166 
L 1141 1166 
Q 1069 1141 991 1075 
Q 913 1009 913 897 
Q 913 781 978 720 
Q 1044 659 1138 638 
Q 1228 613 1348 606 
Q 1469 600 1597 597 
Q 1734 594 1973 578 
Q 2213 563 2313 559 
Q 2456 553 2601 490 
Q 2747 428 2866 319 
z
M 2022 2147 
Q 2022 2513 1873 2730 
Q 1725 2947 1456 2947 
Q 1309 2947 1204 2886 
Q 1100 2825 1034 2713 
Q 972 2609 945 2464 
Q 919 2319 919 2166 
Q 919 1819 1070 1600 
Q 1222 1381 1463 1381 
Q 1731 1381 1876 1598 
Q 2022 1816 2022 2147 
z
M 2622 -438 
Q 2622 -263 2540 -150 
Q 2459 -38 2294 3 
Q 2206 16 1934 31 
Q 1663 47 1303 47 
Q 966 -19 823 -173 
Q 681 -328 681 -572 
Q 681 -681 728 -781 
Q 775 -881 891 -966 
Q 1000 -1047 1184 -1098 
Q 1369 -1150 1634 -1150 
Q 2094 -1150 2358 -973 
Q 2622 -797 2622 -438 
z
" transform="scale(0.015625)"/>
        <path id="Georgia-64" d="M 3600 56 
L 2525 -13 
L 2478 31 
L 2478 319 
L 2453 325 
Q 2291 144 2052 28 
Q 1813 -88 1559 -88 
Q 1297 -88 1051 29 
Q 806 147 625 359 
Q 441 575 333 878 
Q 225 1181 225 1547 
Q 225 1881 340 2181 
Q 456 2481 659 2706 
Q 850 2916 1126 3041 
Q 1403 3166 1691 3166 
Q 1906 3166 2114 3111 
Q 2322 3056 2472 2972 
L 2472 4044 
Q 2472 4175 2428 4283 
Q 2384 4391 2306 4447 
Q 2219 4506 2070 4532 
Q 1922 4559 1750 4572 
L 1750 4766 
L 3009 4838 
L 3056 4791 
L 3056 634 
Q 3056 525 3098 448 
Q 3141 372 3222 319 
Q 3281 281 3393 272 
Q 3506 263 3600 259 
L 3600 56 
z
M 2472 597 
L 2472 2400 
Q 2447 2481 2390 2575 
Q 2334 2669 2250 2747 
Q 2159 2825 2037 2876 
Q 1916 2928 1753 2928 
Q 1566 2928 1408 2831 
Q 1250 2734 1128 2553 
Q 1013 2378 945 2108 
Q 878 1838 878 1509 
Q 878 1247 928 1033 
Q 978 819 1097 634 
Q 1206 459 1376 353 
Q 1547 247 1781 247 
Q 2031 247 2195 356 
Q 2359 466 2472 597 
z
" transform="scale(0.015625)"/>
       </defs>
       <use xlink:href="#Georgia-72"/>
       <use xlink:href="#Georgia-69" x="40.966797"/>
       <use xlink:href="#Georgia-67" x="70.263672"/>
       <use xlink:href="#Georgia-69" x="121.191406"/>
       <use xlink:href="#Georgia-64" x="150.488281"/>
      </g>
      <!-- (PH / fixed shape) -->
      <g style="fill: #5b6b7f" transform="translate(47.557298 287.91275) scale(0.09 -0.09)">
       <defs>
        <path id="Georgia-28" d="M 2191 -1025 
Q 1338 -919 852 -165 
Q 366 588 366 1863 
Q 366 3159 852 3917 
Q 1338 4675 2191 4788 
L 2191 4528 
Q 1591 4419 1278 3762 
Q 966 3106 966 1856 
Q 966 666 1272 5 
Q 1578 -656 2191 -769 
L 2191 -1025 
z
" transform="scale(0.015625)"/>
        <path id="Georgia-50" d="M 3700 3341 
Q 3700 2994 3564 2726 
Q 3428 2459 3188 2284 
Q 2950 2109 2665 2028 
Q 2381 1947 2063 1947 
L 1566 1947 
L 1566 603 
Q 1566 494 1602 411 
Q 1638 328 1750 284 
Q 1806 263 1948 244 
Q 2091 225 2209 222 
L 2209 0 
L 306 0 
L 306 222 
Q 381 228 523 243 
Q 666 259 722 284 
Q 816 325 858 403 
Q 900 481 900 603 
L 900 3803 
Q 900 3913 869 4000 
Q 838 4088 722 4131 
Q 603 4172 486 4189 
Q 369 4206 284 4213 
L 284 4434 
L 2309 4434 
Q 2928 4434 3314 4136 
Q 3700 3838 3700 3341 
z
M 2750 2584 
Q 2856 2734 2890 2895 
Q 2925 3056 2925 3184 
Q 2925 3363 2883 3547 
Q 2841 3731 2738 3869 
Q 2628 4016 2450 4097 
Q 2272 4178 2006 4178 
L 1566 4178 
L 1566 2219 
L 1884 2219 
Q 2222 2219 2433 2323 
Q 2644 2428 2750 2584 
z
" transform="scale(0.015625)"/>
        <path id="Georgia-48" d="M 4897 0 
L 3056 0 
L 3056 222 
Q 3131 228 3273 240 
Q 3416 253 3469 278 
Q 3563 316 3606 392 
Q 3650 469 3650 591 
L 3650 2169 
L 1566 2169 
L 1566 625 
Q 1566 516 1602 441 
Q 1638 366 1744 309 
Q 1797 281 1933 253 
Q 2069 225 2147 222 
L 2147 0 
L 306 0 
L 306 222 
Q 381 228 523 240 
Q 666 253 719 278 
Q 813 316 856 392 
Q 900 469 900 591 
L 900 3791 
Q 900 3891 859 3973 
Q 819 4056 719 4103 
Q 634 4144 514 4175 
Q 394 4206 306 4213 
L 306 4434 
L 2147 4434 
L 2147 4213 
Q 2059 4209 1932 4184 
Q 1806 4159 1744 4138 
Q 1638 4100 1602 4012 
Q 1566 3925 1566 3822 
L 1566 2447 
L 3650 2447 
L 3650 3791 
Q 3650 3891 3609 3973 
Q 3569 4056 3469 4103 
Q 3384 4144 3264 4175 
Q 3144 4206 3056 4213 
L 3056 4434 
L 4897 4434 
L 4897 4213 
Q 4809 4209 4682 4184 
Q 4556 4159 4494 4138 
Q 4388 4100 4352 4012 
Q 4316 3925 4316 3822 
L 4316 625 
Q 4316 516 4352 441 
Q 4388 366 4494 309 
Q 4547 281 4683 253 
Q 4819 225 4897 222 
L 4897 0 
z
" transform="scale(0.015625)"/>
        <path id="Georgia-20" transform="scale(0.015625)"/>
        <path id="Georgia-2f" d="M 2719 4759 
L 559 -1325 
L 153 -1325 
L 2306 4759 
L 2719 4759 
z
" transform="scale(0.015625)"/>
        <path id="Georgia-66" d="M 2519 4466 
Q 2519 4325 2444 4228 
Q 2369 4131 2216 4131 
Q 2119 4131 2045 4172 
Q 1972 4213 1909 4281 
Q 1847 4350 1794 4437 
Q 1741 4525 1703 4578 
Q 1494 4569 1380 4286 
Q 1266 4003 1266 3384 
L 1266 3069 
L 2059 3069 
L 2059 2769 
L 1266 2769 
L 1266 556 
Q 1266 447 1308 378 
Q 1350 309 1441 275 
Q 1516 247 1641 230 
Q 1766 213 1856 206 
L 1856 0 
L 231 0 
L 231 206 
Q 303 213 379 219 
Q 456 225 513 244 
Q 600 272 642 342 
Q 684 413 684 525 
L 684 2769 
L 75 2769 
L 75 3069 
L 684 3069 
L 684 3266 
Q 684 3969 1048 4405 
Q 1413 4841 1959 4841 
Q 2238 4841 2378 4731 
Q 2519 4622 2519 4466 
z
" transform="scale(0.015625)"/>
        <path id="Georgia-78" d="M 3194 0 
L 1781 0 
L 1781 206 
Q 1922 222 2020 237 
Q 2119 253 2119 319 
Q 2119 347 2087 406 
Q 2056 466 2025 516 
Q 1947 638 1811 842 
Q 1675 1047 1478 1331 
Q 1316 1128 1178 936 
Q 1041 744 891 528 
Q 869 497 845 450 
Q 822 403 822 375 
Q 822 306 911 261 
Q 1000 216 1178 200 
L 1178 0 
L 38 0 
L 38 194 
Q 250 256 379 345 
Q 509 434 619 566 
Q 716 691 889 909 
Q 1063 1128 1338 1503 
Q 1178 1731 948 2061 
Q 719 2391 569 2609 
Q 488 2728 383 2801 
Q 278 2875 88 2875 
L 88 3081 
L 1428 3081 
L 1428 2875 
Q 1328 2875 1231 2862 
Q 1134 2850 1134 2806 
Q 1134 2778 1153 2743 
Q 1172 2709 1200 2669 
Q 1269 2563 1414 2341 
Q 1559 2119 1728 1872 
Q 1838 2022 1983 2222 
Q 2128 2422 2250 2603 
Q 2263 2625 2275 2658 
Q 2288 2691 2288 2722 
Q 2288 2788 2180 2827 
Q 2072 2866 1975 2881 
L 1975 3081 
L 3113 3081 
L 3113 2888 
Q 2872 2825 2737 2739 
Q 2603 2653 2509 2541 
Q 2406 2413 2264 2225 
Q 2122 2038 1866 1700 
Q 2150 1300 2328 1044 
Q 2506 788 2688 516 
Q 2778 378 2889 298 
Q 3000 219 3194 206 
L 3194 0 
z
" transform="scale(0.015625)"/>
        <path id="Georgia-65" d="M 2963 725 
Q 2769 356 2444 137 
Q 2119 -81 1697 -81 
Q 1325 -81 1045 50 
Q 766 181 584 406 
Q 403 631 314 931 
Q 225 1231 225 1566 
Q 225 1866 320 2155 
Q 416 2444 600 2675 
Q 778 2897 1042 3033 
Q 1306 3169 1634 3169 
Q 1972 3169 2212 3062 
Q 2453 2956 2603 2772 
Q 2747 2597 2817 2359 
Q 2888 2122 2888 1844 
L 2888 1638 
L 847 1638 
Q 847 1334 905 1087 
Q 963 841 1088 653 
Q 1209 472 1406 367 
Q 1603 263 1875 263 
Q 2153 263 2354 392 
Q 2556 522 2744 859 
L 2963 725 
z
M 2272 1900 
Q 2272 2075 2242 2275 
Q 2213 2475 2147 2609 
Q 2075 2753 1950 2843 
Q 1825 2934 1628 2934 
Q 1300 2934 1083 2661 
Q 866 2388 847 1900 
L 2272 1900 
z
" transform="scale(0.015625)"/>
        <path id="Georgia-73" d="M 2259 1509 
Q 2388 1397 2456 1250 
Q 2525 1103 2525 891 
Q 2525 463 2204 191 
Q 1884 -81 1375 -81 
Q 1106 -81 879 16 
Q 653 113 556 194 
L 494 -9 
L 259 -9 
L 228 1063 
L 444 1063 
Q 469 941 550 778 
Q 631 616 747 484 
Q 869 347 1039 253 
Q 1209 159 1422 159 
Q 1722 159 1884 295 
Q 2047 431 2047 684 
Q 2047 816 1995 911 
Q 1944 1006 1844 1078 
Q 1741 1150 1591 1208 
Q 1441 1266 1256 1322 
Q 1109 1366 929 1442 
Q 750 1519 622 1622 
Q 484 1731 396 1890 
Q 309 2050 309 2266 
Q 309 2644 590 2906 
Q 872 3169 1344 3169 
Q 1525 3169 1714 3122 
Q 1903 3075 2022 3009 
L 2094 3172 
L 2319 3172 
L 2366 2181 
L 2150 2181 
Q 2084 2513 1867 2720 
Q 1650 2928 1338 2928 
Q 1081 2928 934 2800 
Q 788 2672 788 2491 
Q 788 2350 836 2256 
Q 884 2163 981 2097 
Q 1075 2034 1217 1979 
Q 1359 1925 1569 1856 
Q 1775 1791 1958 1703 
Q 2141 1616 2259 1509 
z
" transform="scale(0.015625)"/>
        <path id="Georgia-68" d="M 3572 0 
L 2059 0 
L 2059 206 
Q 2131 213 2218 219 
Q 2306 225 2363 244 
Q 2450 272 2492 342 
Q 2534 413 2534 525 
L 2534 2109 
Q 2534 2438 2379 2616 
Q 2225 2794 2003 2794 
Q 1841 2794 1702 2742 
Q 1563 2691 1453 2616 
Q 1347 2538 1290 2459 
Q 1234 2381 1203 2328 
L 1203 556 
Q 1203 450 1245 381 
Q 1288 313 1375 275 
Q 1444 244 1517 228 
Q 1591 213 1678 206 
L 1678 0 
L 166 0 
L 166 206 
Q 238 213 316 220 
Q 394 228 447 244 
Q 534 272 578 342 
Q 622 413 622 525 
L 622 4113 
Q 622 4219 573 4325 
Q 525 4431 447 4484 
Q 391 4525 248 4542 
Q 106 4559 19 4566 
L 19 4766 
L 1159 4838 
L 1203 4791 
L 1203 2641 
L 1216 2641 
Q 1319 2744 1403 2823 
Q 1488 2903 1625 2991 
Q 1744 3066 1905 3116 
Q 2066 3166 2266 3166 
Q 2678 3166 2900 2905 
Q 3122 2644 3122 2153 
L 3122 550 
Q 3122 441 3161 373 
Q 3200 306 3291 269 
Q 3363 241 3420 227 
Q 3478 213 3572 206 
L 3572 0 
z
" transform="scale(0.015625)"/>
        <path id="Georgia-61" d="M 3144 56 
Q 2997 3 2886 -30 
Q 2775 -63 2634 -63 
Q 2391 -63 2245 51 
Q 2100 166 2059 384 
L 2041 384 
Q 1838 159 1605 40 
Q 1372 -78 1044 -78 
Q 697 -78 473 134 
Q 250 347 250 691 
Q 250 869 300 1009 
Q 350 1150 450 1263 
Q 528 1356 656 1429 
Q 784 1503 897 1547 
Q 1038 1600 1467 1744 
Q 1897 1888 2047 1969 
L 2047 2278 
Q 2047 2319 2030 2434 
Q 2013 2550 1956 2653 
Q 1894 2769 1780 2855 
Q 1666 2941 1456 2941 
Q 1313 2941 1189 2892 
Q 1066 2844 1016 2791 
Q 1016 2728 1045 2606 
Q 1075 2484 1075 2381 
Q 1075 2272 976 2181 
Q 878 2091 703 2091 
Q 547 2091 473 2202 
Q 400 2313 400 2450 
Q 400 2594 501 2725 
Q 603 2856 766 2959 
Q 906 3047 1106 3108 
Q 1306 3169 1497 3169 
Q 1759 3169 1954 3133 
Q 2150 3097 2309 2978 
Q 2469 2863 2551 2664 
Q 2634 2466 2634 2153 
Q 2634 1706 2625 1361 
Q 2616 1016 2616 606 
Q 2616 484 2658 412 
Q 2700 341 2788 291 
Q 2834 263 2936 259 
Q 3038 256 3144 256 
L 3144 56 
z
M 2053 1706 
Q 1788 1628 1588 1553 
Q 1388 1478 1216 1366 
Q 1059 1259 968 1114 
Q 878 969 878 769 
Q 878 509 1014 387 
Q 1150 266 1359 266 
Q 1581 266 1750 373 
Q 1919 481 2034 628 
L 2053 1706 
z
" transform="scale(0.015625)"/>
        <path id="Georgia-70" d="M 3041 2716 
Q 3225 2497 3326 2208 
Q 3428 1919 3428 1547 
Q 3428 1181 3306 879 
Q 3184 578 2984 366 
Q 2775 150 2519 34 
Q 2263 -81 1975 -81 
Q 1697 -81 1519 -18 
Q 1341 44 1228 128 
L 1203 128 
L 1203 -797 
Q 1203 -909 1247 -984 
Q 1291 -1059 1381 -1094 
Q 1456 -1122 1595 -1148 
Q 1734 -1175 1825 -1178 
L 1825 -1388 
L 103 -1388 
L 103 -1178 
Q 200 -1172 290 -1162 
Q 381 -1153 453 -1131 
Q 547 -1100 584 -1022 
Q 622 -944 622 -838 
L 622 2441 
Q 622 2534 575 2621 
Q 528 2709 453 2763 
Q 397 2800 297 2820 
Q 197 2841 103 2847 
L 103 3050 
L 1153 3119 
L 1197 3081 
L 1197 2734 
L 1222 2728 
Q 1384 2916 1625 3041 
Q 1866 3166 2103 3166 
Q 2391 3166 2630 3044 
Q 2869 2922 3041 2716 
z
M 2531 500 
Q 2656 694 2715 950 
Q 2775 1206 2775 1522 
Q 2775 1753 2725 1993 
Q 2675 2234 2569 2413 
Q 2463 2594 2291 2706 
Q 2119 2819 1878 2819 
Q 1647 2819 1484 2717 
Q 1322 2616 1203 2475 
L 1203 653 
Q 1231 569 1295 478 
Q 1359 388 1438 322 
Q 1534 244 1646 195 
Q 1759 147 1922 147 
Q 2097 147 2259 239 
Q 2422 331 2531 500 
z
" transform="scale(0.015625)"/>
        <path id="Georgia-29" d="M 2034 1863 
Q 2034 588 1548 -165 
Q 1063 -919 209 -1025 
L 209 -769 
Q 822 -656 1128 5 
Q 1434 666 1434 1856 
Q 1434 3106 1121 3762 
Q 809 4419 209 4528 
L 209 4788 
Q 1063 4675 1548 3917 
Q 2034 3159 2034 1863 
z
" transform="scale(0.015625)"/>
       </defs>
       <use xlink:href="#Georgia-28"/>
       <use xlink:href="#Georgia-50" x="37.5"/>
       <use xlink:href="#Georgia-48" x="98.486328"/>
       <use xlink:href="#Georgia-20" x="179.980469"/>
       <use xlink:href="#Georgia-2f" x="204.101562"/>
       <use xlink:href="#Georgia-20" x="250.976562"/>
       <use xlink:href="#Georgia-66" x="275.097656"/>
       <use xlink:href="#Georgia-69" x="307.617188"/>
       <use xlink:href="#Georgia-78" x="336.914062"/>
       <use xlink:href="#Georgia-65" x="387.402344"/>
       <use xlink:href="#Georgia-64" x="435.742188"/>
       <use xlink:href="#Georgia-20" x="493.164062"/>
       <use xlink:href="#Georgia-73" x="517.285156"/>
       <use xlink:href="#Georgia-68" x="560.498047"/>
       <use xlink:href="#Georgia-61" x="618.701172"/>
       <use xlink:href="#Georgia-70" x="669.091797"/>
       <use xlink:href="#Georgia-65" x="726.220703"/>
       <use xlink:href="#Georgia-29" x="774.560547"/>
      </g>
     </g>
    </g>
    <g id="xtick_2">
     <g id="line2d_3">
      <path d="M 486.775452 263.98825 
L 486.775452 24.09225 
" clip-path="url(#p9adaf52dac)" style="fill: none; stroke: #eef2f7; stroke-linecap: square"/>
     </g>
     <g id="line2d_4">
      <g>
       <use xlink:href="#mccfa696955" x="486.775452" y="263.98825" style="fill: #5b6b7f; stroke: #5b6b7f; stroke-width: 0.8"/>
      </g>
     </g>
     <g id="text_2">
      <!-- flexible -->
      <g style="fill: #5b6b7f" transform="translate(472.276312 277.791687) scale(0.09 -0.09)">
       <defs>
        <path id="Georgia-6c" d="M 1669 0 
L 166 0 
L 166 206 
Q 238 213 319 220 
Q 400 228 453 244 
Q 541 272 584 342 
Q 628 413 628 525 
L 628 4094 
Q 628 4206 579 4304 
Q 531 4403 453 4459 
Q 397 4497 247 4528 
Q 97 4559 6 4566 
L 6 4766 
L 1166 4838 
L 1209 4791 
L 1209 563 
Q 1209 453 1250 383 
Q 1291 313 1381 275 
Q 1450 244 1517 228 
Q 1584 213 1669 206 
L 1669 0 
z
" transform="scale(0.015625)"/>
        <path id="Georgia-62" d="M 3353 1544 
Q 3353 850 2915 378 
Q 2478 -94 1900 -94 
Q 1647 -94 1401 -15 
Q 1156 63 941 194 
L 709 -166 
L 516 -122 
Q 531 109 537 434 
Q 544 759 544 1063 
L 544 4113 
Q 544 4219 495 4325 
Q 447 4431 372 4478 
Q 313 4519 173 4539 
Q 34 4559 -50 4566 
L -50 4766 
L 1081 4838 
L 1125 4791 
L 1125 2759 
L 1147 2753 
Q 1341 2959 1570 3062 
Q 1800 3166 2022 3166 
Q 2591 3166 2972 2716 
Q 3353 2266 3353 1544 
z
M 2700 1522 
Q 2700 1753 2650 1993 
Q 2600 2234 2494 2413 
Q 2388 2594 2216 2706 
Q 2044 2819 1803 2819 
Q 1584 2819 1420 2733 
Q 1256 2647 1125 2500 
L 1125 706 
Q 1144 631 1198 531 
Q 1253 431 1347 341 
Q 1441 253 1559 198 
Q 1678 144 1850 144 
Q 2231 144 2465 512 
Q 2700 881 2700 1522 
z
" transform="scale(0.015625)"/>
       </defs>
       <use xlink:href="#Georgia-66"/>
       <use xlink:href="#Georgia-6c" x="32.519531"/>
       <use xlink:href="#Georgia-65" x="61.132812"/>
       <use xlink:href="#Georgia-78" x="109.472656"/>
       <use xlink:href="#Georgia-69" x="159.960938"/>
       <use xlink:href="#Georgia-62" x="189.257812"/>
       <use xlink:href="#Georgia-6c" x="245.263672"/>
       <use xlink:href="#Georgia-65" x="273.876953"/>
      </g>
      <!-- (no PH, no shape) -->
      <g style="fill: #5b6b7f" transform="translate(450.77264 287.907687) scale(0.09 -0.09)">
       <defs>
        <path id="Georgia-6e" d="M 3628 0 
L 2119 0 
L 2119 206 
Q 2191 213 2277 219 
Q 2363 225 2419 244 
Q 2506 272 2548 342 
Q 2591 413 2591 525 
L 2591 2109 
Q 2591 2438 2436 2616 
Q 2281 2794 2059 2794 
Q 1894 2794 1756 2742 
Q 1619 2691 1513 2616 
Q 1409 2544 1348 2461 
Q 1288 2378 1259 2328 
L 1259 556 
Q 1259 450 1303 381 
Q 1347 313 1434 275 
Q 1500 244 1576 228 
Q 1653 213 1734 206 
L 1734 0 
L 225 0 
L 225 206 
Q 297 213 373 219 
Q 450 225 506 244 
Q 594 272 636 342 
Q 678 413 678 525 
L 678 2428 
Q 678 2534 633 2623 
Q 588 2713 506 2769 
Q 447 2806 365 2823 
Q 284 2841 191 2847 
L 191 3050 
L 1216 3119 
L 1259 3075 
L 1259 2641 
L 1275 2641 
Q 1350 2716 1462 2820 
Q 1575 2925 1675 2991 
Q 1791 3066 1950 3116 
Q 2109 3166 2309 3166 
Q 2753 3166 2967 2889 
Q 3181 2613 3181 2153 
L 3181 550 
Q 3181 441 3218 373 
Q 3256 306 3347 269 
Q 3422 238 3476 225 
Q 3531 213 3628 206 
L 3628 0 
z
" transform="scale(0.015625)"/>
        <path id="Georgia-6f" d="M 3228 1572 
Q 3228 1247 3125 933 
Q 3022 619 2831 400 
Q 2616 150 2331 28 
Q 2047 -94 1694 -94 
Q 1400 -94 1134 17 
Q 869 128 663 341 
Q 459 550 339 851 
Q 219 1153 219 1528 
Q 219 2250 639 2709 
Q 1059 3169 1741 3169 
Q 2388 3169 2808 2733 
Q 3228 2297 3228 1572 
z
M 2581 1566 
Q 2581 1800 2534 2061 
Q 2488 2322 2394 2503 
Q 2294 2697 2131 2814 
Q 1969 2931 1734 2931 
Q 1494 2931 1323 2812 
Q 1153 2694 1047 2488 
Q 947 2297 906 2053 
Q 866 1809 866 1581 
Q 866 1281 914 1026 
Q 963 772 1069 572 
Q 1175 372 1336 258 
Q 1497 144 1734 144 
Q 2125 144 2353 522 
Q 2581 900 2581 1566 
z
" transform="scale(0.015625)"/>
        <path id="Georgia-2c" d="M 1341 109 
Q 1341 -116 1239 -316 
Q 1138 -516 1006 -659 
Q 872 -809 722 -925 
Q 572 -1041 447 -1106 
L 303 -897 
Q 453 -803 572 -709 
Q 691 -616 766 -522 
Q 859 -413 925 -284 
Q 991 -156 1009 6 
L 850 6 
Q 641 6 523 115 
Q 406 225 406 409 
Q 406 541 512 664 
Q 619 788 803 788 
Q 1072 788 1206 608 
Q 1341 428 1341 109 
z
" transform="scale(0.015625)"/>
       </defs>
       <use xlink:href="#Georgia-28"/>
       <use xlink:href="#Georgia-6e" x="37.5"/>
       <use xlink:href="#Georgia-6f" x="96.582031"/>
       <use xlink:href="#Georgia-20" x="150.488281"/>
       <use xlink:href="#Georgia-50" x="174.609375"/>
       <use xlink:href="#Georgia-48" x="235.595703"/>
       <use xlink:href="#Georgia-2c" x="317.089844"/>
       <use xlink:href="#Georgia-20" x="344.042969"/>
       <use xlink:href="#Georgia-6e" x="368.164062"/>
       <use xlink:href="#Georgia-6f" x="427.246094"/>
       <use xlink:href="#Georgia-20" x="481.152344"/>
       <use xlink:href="#Georgia-73" x="505.273438"/>
       <use xlink:href="#Georgia-68" x="548.486328"/>
       <use xlink:href="#Georgia-61" x="606.689453"/>
       <use xlink:href="#Georgia-70" x="657.080078"/>
       <use xlink:href="#Georgia-65" x="714.208984"/>
       <use xlink:href="#Georgia-29" x="762.548828"/>
      </g>
     </g>
    </g>
    <g id="text_3">
     <!-- flexibility  —  assumptions imposed on time  $\rightarrow$ -->
     <g style="fill: #33415a" transform="translate(159.018133 302.984625) scale(0.12 -0.12)">
      <defs>
       <path id="Georgia-74" d="M 2128 134 
Q 1925 50 1744 -8 
Q 1563 -66 1300 -66 
Q 913 -66 755 129 
Q 597 325 597 681 
L 597 2769 
L 41 2769 
L 41 3069 
L 609 3069 
L 609 4028 
L 1178 4028 
L 1178 3069 
L 2063 3069 
L 2063 2769 
L 1184 2769 
L 1184 1047 
Q 1184 853 1198 723 
Q 1213 594 1266 497 
Q 1316 406 1416 359 
Q 1516 313 1684 313 
Q 1763 313 1914 327 
Q 2066 341 2128 363 
L 2128 134 
z
" transform="scale(0.015625)"/>
       <path id="Georgia-79" d="M -9 -1006 
Q -9 -850 77 -751 
Q 163 -653 291 -653 
Q 391 -653 462 -690 
Q 534 -728 591 -788 
Q 638 -834 691 -915 
Q 744 -997 775 -1050 
Q 931 -966 1148 -609 
Q 1366 -253 1463 16 
Q 1166 756 925 1340 
Q 684 1925 422 2550 
Q 363 2694 222 2773 
Q 81 2853 -59 2875 
L -59 3081 
L 1347 3081 
L 1347 2863 
Q 1253 2859 1122 2823 
Q 991 2788 991 2741 
Q 991 2722 1005 2678 
Q 1019 2634 1038 2588 
Q 1156 2278 1400 1695 
Q 1644 1113 1778 763 
Q 1919 1097 2070 1455 
Q 2222 1813 2409 2300 
Q 2431 2359 2472 2464 
Q 2513 2569 2513 2644 
Q 2513 2725 2370 2795 
Q 2228 2866 2100 2881 
L 2100 3081 
L 3244 3081 
L 3244 2888 
Q 3150 2872 2997 2780 
Q 2844 2688 2769 2519 
Q 2397 1656 2108 947 
Q 1819 238 1669 -97 
Q 1472 -534 1317 -779 
Q 1163 -1025 1016 -1166 
Q 872 -1297 755 -1342 
Q 638 -1388 513 -1388 
Q 269 -1388 130 -1272 
Q -9 -1156 -9 -1006 
z
" transform="scale(0.015625)"/>
       <path id="DejaVuSansDisplay-2014" d="M 313 1978 
L 6088 1978 
L 6088 1528 
L 313 1528 
L 313 1978 
z
" transform="scale(0.015625)"/>
       <path id="Georgia-75" d="M 3528 56 
L 2525 -13 
L 2478 31 
L 2478 422 
L 2459 422 
Q 2384 344 2290 255 
Q 2197 166 2075 94 
Q 1934 9 1803 -34 
Q 1672 -78 1431 -78 
Q 1022 -78 808 189 
Q 594 456 594 966 
L 594 2441 
Q 594 2553 551 2629 
Q 509 2706 428 2763 
Q 372 2800 287 2817 
Q 203 2834 109 2841 
L 109 3044 
L 1138 3119 
L 1184 3075 
L 1184 934 
Q 1184 600 1334 431 
Q 1484 263 1694 263 
Q 1866 263 2000 316 
Q 2134 369 2225 441 
Q 2309 506 2373 579 
Q 2438 653 2472 716 
L 2472 2463 
Q 2472 2566 2428 2645 
Q 2384 2725 2306 2781 
Q 2250 2819 2139 2826 
Q 2028 2834 1891 2841 
L 1891 3044 
L 3009 3119 
L 3056 3075 
L 3056 628 
Q 3056 522 3100 447 
Q 3144 372 3222 319 
Q 3278 284 3356 273 
Q 3434 263 3528 259 
L 3528 56 
z
" transform="scale(0.015625)"/>
       <path id="Georgia-6d" d="M 5503 0 
L 4000 0 
L 4000 206 
Q 4072 213 4145 219 
Q 4219 225 4275 244 
Q 4363 272 4405 342 
Q 4447 413 4447 525 
L 4447 2116 
Q 4447 2441 4298 2617 
Q 4150 2794 3928 2794 
Q 3775 2794 3640 2747 
Q 3506 2700 3394 2616 
Q 3303 2547 3242 2467 
Q 3181 2388 3150 2334 
L 3150 556 
Q 3150 447 3187 376 
Q 3225 306 3316 269 
Q 3388 241 3445 227 
Q 3503 213 3597 206 
L 3597 0 
L 2125 0 
L 2125 206 
Q 2197 213 2264 219 
Q 2331 225 2388 244 
Q 2475 272 2517 342 
Q 2559 413 2559 525 
L 2559 2116 
Q 2559 2441 2411 2617 
Q 2263 2794 2041 2794 
Q 1888 2794 1753 2745 
Q 1619 2697 1506 2613 
Q 1416 2544 1353 2458 
Q 1291 2372 1259 2328 
L 1259 563 
Q 1259 456 1303 384 
Q 1347 313 1434 275 
Q 1500 244 1569 228 
Q 1638 213 1722 206 
L 1722 0 
L 225 0 
L 225 206 
Q 297 213 373 219 
Q 450 225 506 244 
Q 594 272 636 342 
Q 678 413 678 525 
L 678 2441 
Q 678 2541 633 2620 
Q 588 2700 506 2756 
Q 447 2794 359 2817 
Q 272 2841 178 2847 
L 178 3050 
L 1209 3119 
L 1253 3075 
L 1253 2634 
L 1275 2634 
Q 1353 2713 1465 2819 
Q 1578 2925 1675 2991 
Q 1784 3066 1948 3116 
Q 2113 3166 2303 3166 
Q 2603 3166 2818 3005 
Q 3034 2844 3128 2616 
Q 3241 2725 3327 2808 
Q 3413 2891 3553 2984 
Q 3672 3066 3833 3116 
Q 3994 3166 4191 3166 
Q 4581 3166 4809 2909 
Q 5038 2653 5038 2122 
L 5038 556 
Q 5038 447 5075 376 
Q 5113 306 5203 269 
Q 5275 241 5345 227 
Q 5416 213 5503 206 
L 5503 0 
z
" transform="scale(0.015625)"/>
       <path id="DejaVuSans-2192" d="M 5050 2147 
L 5050 1866 
L 3822 638 
L 3447 1013 
L 4175 1741 
L 366 1741 
L 366 2272 
L 4175 2272 
L 3447 3000 
L 3822 3375 
L 5050 2147 
z
" transform="scale(0.015625)"/>
      </defs>
      <use xlink:href="#Georgia-66" transform="translate(0 0.359375)"/>
      <use xlink:href="#Georgia-6c" transform="translate(32.519531 0.359375)"/>
      <use xlink:href="#Georgia-65" transform="translate(61.132812 0.359375)"/>
      <use xlink:href="#Georgia-78" transform="translate(109.472656 0.359375)"/>
      <use xlink:href="#Georgia-69" transform="translate(159.960938 0.359375)"/>
      <use xlink:href="#Georgia-62" transform="translate(189.257812 0.359375)"/>
      <use xlink:href="#Georgia-69" transform="translate(245.263672 0.359375)"/>
      <use xlink:href="#Georgia-6c" transform="translate(274.560547 0.359375)"/>
      <use xlink:href="#Georgia-69" transform="translate(303.173828 0.359375)"/>
      <use xlink:href="#Georgia-74" transform="translate(332.470703 0.359375)"/>
      <use xlink:href="#Georgia-79" transform="translate(366.992188 0.359375)"/>
      <use xlink:href="#Georgia-20" transform="translate(416.210938 0.359375)"/>
      <use xlink:href="#Georgia-20" transform="translate(440.332031 0.359375)"/>
      <use xlink:href="#DejaVuSansDisplay-2014" transform="translate(464.453125 0.359375)"/>
      <use xlink:href="#Georgia-20" transform="translate(564.453125 0.359375)"/>
      <use xlink:href="#Georgia-20" transform="translate(588.574219 0.359375)"/>
      <use xlink:href="#Georgia-61" transform="translate(612.695312 0.359375)"/>
      <use xlink:href="#Georgia-73" transform="translate(663.085938 0.359375)"/>
      <use xlink:href="#Georgia-73" transform="translate(706.298828 0.359375)"/>
      <use xlink:href="#Georgia-75" transform="translate(749.511719 0.359375)"/>
      <use xlink:href="#Georgia-6d" transform="translate(807.03125 0.359375)"/>
      <use xlink:href="#Georgia-70" transform="translate(895.117188 0.359375)"/>
      <use xlink:href="#Georgia-74" transform="translate(952.246094 0.359375)"/>
      <use xlink:href="#Georgia-69" transform="translate(986.767578 0.359375)"/>
      <use xlink:href="#Georgia-6f" transform="translate(1016.064453 0.359375)"/>
      <use xlink:href="#Georgia-6e" transform="translate(1069.970703 0.359375)"/>
      <use xlink:href="#Georgia-73" transform="translate(1129.052734 0.359375)"/>
      <use xlink:href="#Georgia-20" transform="translate(1172.265625 0.359375)"/>
      <use xlink:href="#Georgia-69" transform="translate(1196.386719 0.359375)"/>
      <use xlink:href="#Georgia-6d" transform="translate(1225.683594 0.359375)"/>
      <use xlink:href="#Georgia-70" transform="translate(1313.769531 0.359375)"/>
      <use xlink:href="#Georgia-6f" transform="translate(1370.898438 0.359375)"/>
      <use xlink:href="#Georgia-73" transform="translate(1424.804688 0.359375)"/>
      <use xlink:href="#Georgia-65" transform="translate(1468.017578 0.359375)"/>
      <use xlink:href="#Georgia-64" transform="translate(1516.357422 0.359375)"/>
      <use xlink:href="#Georgia-20" transform="translate(1573.779297 0.359375)"/>
      <use xlink:href="#Georgia-6f" transform="translate(1597.900391 0.359375)"/>
      <use xlink:href="#Georgia-6e" transform="translate(1651.806641 0.359375)"/>
      <use xlink:href="#Georgia-20" transform="translate(1710.888672 0.359375)"/>
      <use xlink:href="#Georgia-74" transform="translate(1735.009766 0.359375)"/>
      <use xlink:href="#Georgia-69" transform="translate(1769.53125 0.359375)"/>
      <use xlink:href="#Georgia-6d" transform="translate(1798.828125 0.359375)"/>
      <use xlink:href="#Georgia-65" transform="translate(1886.914062 0.359375)"/>
      <use xlink:href="#Georgia-20" transform="translate(1935.253906 0.359375)"/>
      <use xlink:href="#Georgia-20" transform="translate(1959.375 0.359375)"/>
      <use xlink:href="#DejaVuSans-2192" transform="translate(2002.978516 0.359375)"/>
     </g>
    </g>
   </g>
   <g id="matplotlib.axis_2">
    <g id="ytick_1">
     <g id="line2d_5">
      <path d="M 61.73 247.724114 
L 509.146266 247.724114 
" clip-path="url(#p9adaf52dac)" style="fill: none; stroke: #eef2f7; stroke-linecap: square"/>
     </g>
     <g id="line2d_6">
      <defs>
       <path id="md13a17b1bd" d="M 0 0 
L -3.5 0 
" style="stroke: #5b6b7f; stroke-width: 0.8"/>
      </defs>
      <g>
       <use xlink:href="#md13a17b1bd" x="61.73" y="247.724114" style="fill: #5b6b7f; stroke: #5b6b7f; stroke-width: 0.8"/>
      </g>
     </g>
     <g id="text_4">
      <!-- risk -->
      <g style="fill: #5b6b7f" transform="translate(39.695781 246.748177) scale(0.09 -0.09)">
       <defs>
        <path id="Georgia-6b" d="M 3491 0 
L 2559 0 
Q 2316 353 2037 756 
Q 1759 1159 1459 1541 
L 1203 1300 
L 1203 569 
Q 1203 456 1243 382 
Q 1284 309 1375 275 
Q 1450 244 1519 228 
Q 1588 213 1678 206 
L 1678 0 
L 166 0 
L 166 206 
Q 238 213 316 220 
Q 394 228 447 244 
Q 534 272 578 342 
Q 622 413 622 525 
L 622 4106 
Q 622 4222 573 4323 
Q 525 4425 447 4478 
Q 381 4528 242 4543 
Q 103 4559 19 4566 
L 19 4766 
L 1159 4838 
L 1203 4791 
L 1203 1531 
Q 1447 1775 1730 2054 
Q 2013 2334 2206 2553 
Q 2231 2581 2261 2626 
Q 2291 2672 2291 2700 
Q 2291 2784 2155 2825 
Q 2019 2866 1894 2881 
L 1894 3081 
L 3250 3081 
L 3250 2888 
Q 2988 2809 2786 2692 
Q 2584 2575 2478 2481 
Q 2403 2419 2265 2278 
Q 2128 2138 1881 1909 
Q 2138 1594 2458 1153 
Q 2778 713 2925 516 
Q 3063 331 3172 275 
Q 3281 219 3491 206 
L 3491 0 
z
" transform="scale(0.015625)"/>
       </defs>
       <use xlink:href="#Georgia-72"/>
       <use xlink:href="#Georgia-69" x="40.966797"/>
       <use xlink:href="#Georgia-73" x="70.263672"/>
       <use xlink:href="#Georgia-6b" x="113.476562"/>
      </g>
      <!-- score -->
      <g style="fill: #5b6b7f" transform="translate(33.864063 256.864177) scale(0.09 -0.09)">
       <defs>
        <path id="Georgia-63" d="M 1650 -81 
Q 981 -81 603 362 
Q 225 806 225 1553 
Q 225 1878 326 2161 
Q 428 2444 622 2675 
Q 806 2897 1084 3033 
Q 1363 3169 1691 3169 
Q 2144 3169 2428 2951 
Q 2713 2734 2713 2359 
Q 2713 2203 2638 2083 
Q 2563 1963 2391 1963 
Q 2206 1963 2104 2056 
Q 2003 2150 2003 2266 
Q 2003 2406 2040 2554 
Q 2078 2703 2084 2772 
Q 2028 2869 1917 2901 
Q 1806 2934 1678 2934 
Q 1528 2934 1392 2870 
Q 1256 2806 1128 2634 
Q 1013 2478 941 2212 
Q 869 1947 869 1578 
Q 869 997 1126 630 
Q 1384 263 1803 263 
Q 2106 263 2311 409 
Q 2516 556 2691 850 
L 2891 719 
Q 2684 350 2346 134 
Q 2009 -81 1650 -81 
z
" transform="scale(0.015625)"/>
       </defs>
       <use xlink:href="#Georgia-73"/>
       <use xlink:href="#Georgia-63" x="43.212891"/>
       <use xlink:href="#Georgia-6f" x="88.623047"/>
       <use xlink:href="#Georgia-72" x="142.529297"/>
       <use xlink:href="#Georgia-65" x="183.496094"/>
      </g>
     </g>
    </g>
    <g id="ytick_2">
     <g id="line2d_7">
      <path d="M 61.73 60.686555 
L 509.146266 60.686555 
" clip-path="url(#p9adaf52dac)" style="fill: none; stroke: #eef2f7; stroke-linecap: square"/>
     </g>
     <g id="line2d_8">
      <g>
       <use xlink:href="#md13a17b1bd" x="61.73" y="60.686555" style="fill: #5b6b7f; stroke: #5b6b7f; stroke-width: 0.8"/>
      </g>
     </g>
     <g id="text_5">
      <!-- full $S(t)$ -->
      <g style="fill: #5b6b7f" transform="translate(22.96 59.710618) scale(0.09 -0.09)">
       <defs>
        <path id="DejaVuSans-Oblique-53" d="M 3859 4513 
L 3738 3897 
Q 3422 4066 3111 4152 
Q 2800 4238 2509 4238 
Q 1944 4238 1609 3991 
Q 1275 3744 1275 3334 
Q 1275 3109 1398 2989 
Q 1522 2869 2034 2731 
L 2413 2638 
Q 3053 2472 3303 2217 
Q 3553 1963 3553 1503 
Q 3553 797 2998 353 
Q 2444 -91 1538 -91 
Q 1166 -91 791 -17 
Q 416 56 38 206 
L 166 856 
Q 513 641 861 531 
Q 1209 422 1556 422 
Q 2147 422 2503 684 
Q 2859 947 2859 1369 
Q 2859 1650 2717 1795 
Q 2575 1941 2106 2059 
L 1728 2156 
Q 1081 2325 845 2545 
Q 609 2766 609 3163 
Q 609 3859 1145 4304 
Q 1681 4750 2541 4750 
Q 2875 4750 3203 4690 
Q 3531 4631 3859 4513 
z
" transform="scale(0.015625)"/>
        <path id="DejaVuSans-28" d="M 1984 4856 
Q 1566 4138 1362 3434 
Q 1159 2731 1159 2009 
Q 1159 1288 1364 580 
Q 1569 -128 1984 -844 
L 1484 -844 
Q 1016 -109 783 600 
Q 550 1309 550 2009 
Q 550 2706 781 3412 
Q 1013 4119 1484 4856 
L 1984 4856 
z
" transform="scale(0.015625)"/>
        <path id="DejaVuSans-Oblique-74" d="M 2706 3500 
L 2619 3053 
L 1472 3053 
L 1100 1153 
Q 1081 1047 1072 975 
Q 1063 903 1063 863 
Q 1063 663 1183 572 
Q 1303 481 1569 481 
L 2150 481 
L 2053 0 
L 1503 0 
Q 991 0 739 200 
Q 488 400 488 806 
Q 488 878 497 964 
Q 506 1050 525 1153 
L 897 3053 
L 409 3053 
L 500 3500 
L 978 3500 
L 1172 4494 
L 1747 4494 
L 1556 3500 
L 2706 3500 
z
" transform="scale(0.015625)"/>
        <path id="DejaVuSans-29" d="M 513 4856 
L 1013 4856 
Q 1481 4119 1714 3412 
Q 1947 2706 1947 2009 
Q 1947 1309 1714 600 
Q 1481 -109 1013 -844 
L 513 -844 
Q 928 -128 1133 580 
Q 1338 1288 1338 2009 
Q 1338 2731 1133 3434 
Q 928 4138 513 4856 
z
" transform="scale(0.015625)"/>
       </defs>
       <use xlink:href="#Georgia-66" transform="translate(0 0.125)"/>
       <use xlink:href="#Georgia-75" transform="translate(32.519531 0.125)"/>
       <use xlink:href="#Georgia-6c" transform="translate(90.039062 0.125)"/>
       <use xlink:href="#Georgia-6c" transform="translate(118.652344 0.125)"/>
       <use xlink:href="#Georgia-20" transform="translate(147.265625 0.125)"/>
       <use xlink:href="#DejaVuSans-Oblique-53" transform="translate(171.386719 0.125)"/>
       <use xlink:href="#DejaVuSans-28" transform="translate(234.863281 0.125)"/>
       <use xlink:href="#DejaVuSans-Oblique-74" transform="translate(273.876953 0.125)"/>
       <use xlink:href="#DejaVuSans-29" transform="translate(313.085938 0.125)"/>
      </g>
      <!-- + CIF -->
      <g style="fill: #5b6b7f" transform="translate(32.093594 69.826618) scale(0.09 -0.09)">
       <defs>
        <path id="Georgia-2b" d="M 3666 1553 
L 2256 1553 
L 2256 144 
L 1859 144 
L 1859 1553 
L 450 1553 
L 450 1944 
L 1859 1944 
L 1859 3353 
L 2256 3353 
L 2256 1944 
L 3666 1944 
L 3666 1553 
z
" transform="scale(0.015625)"/>
        <path id="Georgia-43" d="M 2259 -103 
Q 1863 -103 1498 53 
Q 1134 209 853 503 
Q 575 797 409 1220 
Q 244 1644 244 2175 
Q 244 2706 406 3139 
Q 569 3572 856 3884 
Q 1141 4194 1528 4362 
Q 1916 4531 2356 4531 
Q 2684 4531 2950 4450 
Q 3216 4369 3456 4222 
L 3584 4434 
L 3834 4434 
L 3863 2853 
L 3606 2853 
Q 3556 3084 3456 3354 
Q 3356 3625 3222 3813 
Q 3072 4025 2865 4145 
Q 2659 4266 2394 4266 
Q 2091 4266 1830 4131 
Q 1569 3997 1378 3734 
Q 1197 3481 1094 3090 
Q 991 2700 991 2219 
Q 991 1794 1098 1439 
Q 1206 1084 1406 816 
Q 1606 550 1879 400 
Q 2153 250 2491 250 
Q 2744 250 2956 329 
Q 3169 409 3325 541 
Q 3481 678 3600 853 
Q 3719 1028 3794 1234 
L 4028 1122 
Q 3759 463 3315 180 
Q 2872 -103 2259 -103 
z
" transform="scale(0.015625)"/>
        <path id="Georgia-49" d="M 2244 0 
L 247 0 
L 247 222 
Q 331 228 490 240 
Q 650 253 716 278 
Q 819 319 866 389 
Q 913 459 913 584 
L 913 3797 
Q 913 3906 878 3979 
Q 844 4053 716 4103 
Q 622 4141 480 4173 
Q 338 4206 247 4213 
L 247 4434 
L 2244 4434 
L 2244 4213 
Q 2147 4209 2012 4189 
Q 1878 4169 1778 4138 
Q 1659 4100 1618 4015 
Q 1578 3931 1578 3828 
L 1578 619 
Q 1578 516 1623 436 
Q 1669 356 1778 309 
Q 1844 284 1992 254 
Q 2141 225 2244 222 
L 2244 0 
z
" transform="scale(0.015625)"/>
        <path id="Georgia-46" d="M 3747 3325 
L 3513 3325 
Q 3447 3572 3239 3853 
Q 3031 4134 2841 4163 
Q 2744 4175 2611 4181 
Q 2478 4188 2309 4188 
L 1566 4188 
L 1566 2406 
L 2075 2406 
Q 2306 2406 2434 2454 
Q 2563 2503 2653 2603 
Q 2716 2672 2767 2817 
Q 2819 2963 2834 3128 
L 3072 3128 
L 3072 1388 
L 2834 1388 
Q 2825 1525 2770 1700 
Q 2716 1875 2653 1953 
Q 2559 2069 2417 2111 
Q 2275 2153 2075 2153 
L 1566 2153 
L 1566 625 
Q 1566 522 1606 440 
Q 1647 359 1750 309 
Q 1797 288 1953 256 
Q 2109 225 2191 222 
L 2191 0 
L 269 0 
L 269 222 
Q 363 228 519 242 
Q 675 256 722 278 
Q 816 319 858 398 
Q 900 478 900 591 
L 900 3791 
Q 900 3894 865 3973 
Q 831 4053 722 4103 
Q 638 4144 495 4175 
Q 353 4206 269 4213 
L 269 4434 
L 3747 4434 
L 3747 3325 
z
" transform="scale(0.015625)"/>
       </defs>
       <use xlink:href="#Georgia-2b"/>
       <use xlink:href="#Georgia-20" x="64.306641"/>
       <use xlink:href="#Georgia-43" x="88.427734"/>
       <use xlink:href="#Georgia-49" x="152.636719"/>
       <use xlink:href="#Georgia-46" x="191.601562"/>
      </g>
     </g>
    </g>
    <g id="text_6">
     <!-- output: ranking  $\rightarrow$  absolute probability -->
     <g style="fill: #33415a" transform="translate(16.32 251.80025) rotate(-90) scale(0.12 -0.12)">
      <defs>
       <path id="Georgia-3a" d="M 1428 2666 
Q 1428 2491 1301 2366 
Q 1175 2241 1000 2241 
Q 825 2241 698 2366 
Q 572 2491 572 2666 
Q 572 2841 697 2967 
Q 822 3094 1000 3094 
Q 1178 3094 1303 2967 
Q 1428 2841 1428 2666 
z
M 1428 359 
Q 1428 184 1301 60 
Q 1175 -63 1000 -63 
Q 825 -63 698 60 
Q 572 184 572 359 
Q 572 534 698 661 
Q 825 788 1000 788 
Q 1175 788 1301 661 
Q 1428 534 1428 359 
z
" transform="scale(0.015625)"/>
      </defs>
      <use xlink:href="#Georgia-6f" transform="translate(0 0.40625)"/>
      <use xlink:href="#Georgia-75" transform="translate(53.90625 0.40625)"/>
      <use xlink:href="#Georgia-74" transform="translate(111.425781 0.40625)"/>
      <use xlink:href="#Georgia-70" transform="translate(145.947266 0.40625)"/>
      <use xlink:href="#Georgia-75" transform="translate(203.076172 0.40625)"/>
      <use xlink:href="#Georgia-74" transform="translate(260.595703 0.40625)"/>
      <use xlink:href="#Georgia-3a" transform="translate(295.117188 0.40625)"/>
      <use xlink:href="#Georgia-20" transform="translate(326.367188 0.40625)"/>
      <use xlink:href="#Georgia-72" transform="translate(350.488281 0.40625)"/>
      <use xlink:href="#Georgia-61" transform="translate(391.455078 0.40625)"/>
      <use xlink:href="#Georgia-6e" transform="translate(441.845703 0.40625)"/>
      <use xlink:href="#Georgia-6b" transform="translate(500.927734 0.40625)"/>
      <use xlink:href="#Georgia-69" transform="translate(554.492188 0.40625)"/>
      <use xlink:href="#Georgia-6e" transform="translate(583.789062 0.40625)"/>
      <use xlink:href="#Georgia-67" transform="translate(642.871094 0.40625)"/>
      <use xlink:href="#Georgia-20" transform="translate(693.798828 0.40625)"/>
      <use xlink:href="#Georgia-20" transform="translate(717.919922 0.40625)"/>
      <use xlink:href="#DejaVuSans-2192" transform="translate(761.523438 0.40625)"/>
      <use xlink:href="#Georgia-20" transform="translate(864.794922 0.40625)"/>
      <use xlink:href="#Georgia-20" transform="translate(888.916016 0.40625)"/>
      <use xlink:href="#Georgia-61" transform="translate(913.037109 0.40625)"/>
      <use xlink:href="#Georgia-62" transform="translate(963.427734 0.40625)"/>
      <use xlink:href="#Georgia-73" transform="translate(1019.433594 0.40625)"/>
      <use xlink:href="#Georgia-6f" transform="translate(1062.646484 0.40625)"/>
      <use xlink:href="#Georgia-6c" transform="translate(1116.552734 0.40625)"/>
      <use xlink:href="#Georgia-75" transform="translate(1145.166016 0.40625)"/>
      <use xlink:href="#Georgia-74" transform="translate(1202.685547 0.40625)"/>
      <use xlink:href="#Georgia-65" transform="translate(1237.207031 0.40625)"/>
      <use xlink:href="#Georgia-20" transform="translate(1285.546875 0.40625)"/>
      <use xlink:href="#Georgia-70" transform="translate(1309.667969 0.40625)"/>
      <use xlink:href="#Georgia-72" transform="translate(1366.796875 0.40625)"/>
      <use xlink:href="#Georgia-6f" transform="translate(1407.763672 0.40625)"/>
      <use xlink:href="#Georgia-62" transform="translate(1461.669922 0.40625)"/>
      <use xlink:href="#Georgia-61" transform="translate(1517.675781 0.40625)"/>
      <use xlink:href="#Georgia-62" transform="translate(1568.066406 0.40625)"/>
      <use xlink:href="#Georgia-69" transform="translate(1624.072266 0.40625)"/>
      <use xlink:href="#Georgia-6c" transform="translate(1653.369141 0.40625)"/>
      <use xlink:href="#Georgia-69" transform="translate(1681.982422 0.40625)"/>
      <use xlink:href="#Georgia-74" transform="translate(1711.279297 0.40625)"/>
      <use xlink:href="#Georgia-79" transform="translate(1745.800781 0.40625)"/>
     </g>
    </g>
   </g>
   <g id="patch_3">
    <path d="M 61.73 263.98825 
L 61.73 24.09225 
" style="fill: none; stroke: #5b6b7f; stroke-width: 0.8; stroke-linejoin: miter; stroke-linecap: square"/>
   </g>
   <g id="patch_4">
    <path d="M 61.73 263.98825 
L 509.146266 263.98825 
" style="fill: none; stroke: #5b6b7f; stroke-width: 0.8; stroke-linejoin: miter; stroke-linecap: square"/>
   </g>
   <g id="PathCollection_1">
    <defs>
     <path id="m32ea4ff14d" d="M 0 8.062258 
C 2.138136 8.062258 4.188987 7.212767 5.700877 5.700877 
C 7.212767 4.188987 8.062258 2.138136 8.062258 0 
C 8.062258 -2.138136 7.212767 -4.188987 5.700877 -5.700877 
C 4.188987 -7.212767 2.138136 -8.062258 0 -8.062258 
C -2.138136 -8.062258 -4.188987 -7.212767 -5.700877 -5.700877 
C -7.212767 -4.188987 -8.062258 -2.138136 -8.062258 0 
C -8.062258 2.138136 -7.212767 4.188987 -5.700877 5.700877 
C -4.188987 7.212767 -2.138136 8.062258 0 8.062258 
z
" style="stroke: #ffffff; stroke-opacity: 0.9; stroke-width: 1.5"/>
    </defs>
    <g clip-path="url(#p9adaf52dac)">
     <use xlink:href="#m32ea4ff14d" x="160.161578" y="239.592047" style="fill: #1c7293; fill-opacity: 0.9; stroke: #ffffff; stroke-opacity: 0.9; stroke-width: 1.5"/>
    </g>
   </g>
   <g id="PathCollection_2">
    <defs>
     <path id="m7b9fcb33cc" d="M 0 8.062258 
C 2.138136 8.062258 4.188987 7.212767 5.700877 5.700877 
C 7.212767 4.188987 8.062258 2.138136 8.062258 0 
C 8.062258 -2.138136 7.212767 -4.188987 5.700877 -5.700877 
C 4.188987 -7.212767 2.138136 -8.062258 0 -8.062258 
C -2.138136 -8.062258 -4.188987 -7.212767 -5.700877 -5.700877 
C -7.212767 -4.188987 -8.062258 -2.138136 -8.062258 0 
C -8.062258 2.138136 -7.212767 4.188987 -5.700877 5.700877 
C -4.188987 7.212767 -2.138136 8.062258 0 8.062258 
z
" style="stroke: #ffffff; stroke-opacity: 0.9; stroke-width: 1.5"/>
    </defs>
    <g clip-path="url(#p9adaf52dac)">
     <use xlink:href="#m7b9fcb33cc" x="240.696506" y="85.082758" style="fill: #e0a100; fill-opacity: 0.9; stroke: #ffffff; stroke-opacity: 0.9; stroke-width: 1.5"/>
    </g>
   </g>
   <g id="PathCollection_3">
    <defs>
     <path id="mf30a4f3c45" d="M 0 8.062258 
C 2.138136 8.062258 4.188987 7.212767 5.700877 5.700877 
C 7.212767 4.188987 8.062258 2.138136 8.062258 0 
C 8.062258 -2.138136 7.212767 -4.188987 5.700877 -5.700877 
C 4.188987 -7.212767 2.138136 -8.062258 0 -8.062258 
C -2.138136 -8.062258 -4.188987 -7.212767 -5.700877 -5.700877 
C -7.212767 -4.188987 -8.062258 -2.138136 -8.062258 0 
C -8.062258 2.138136 -7.212767 4.188987 -5.700877 5.700877 
C -4.188987 7.212767 -2.138136 8.062258 0 8.062258 
z
" style="stroke: #ffffff; stroke-opacity: 0.9; stroke-width: 1.5"/>
    </defs>
    <g clip-path="url(#p9adaf52dac)">
     <use xlink:href="#mf30a4f3c45" x="339.128085" y="129.809131" style="fill: #2e9e6b; fill-opacity: 0.9; stroke: #ffffff; stroke-opacity: 0.9; stroke-width: 1.5"/>
    </g>
   </g>
   <g id="PathCollection_4">
    <defs>
     <path id="m3c7b8107b8" d="M 0 8.062258 
C 2.138136 8.062258 4.188987 7.212767 5.700877 5.700877 
C 7.212767 4.188987 8.062258 2.138136 8.062258 0 
C 8.062258 -2.138136 7.212767 -4.188987 5.700877 -5.700877 
C 4.188987 -7.212767 2.138136 -8.062258 0 -8.062258 
C -2.138136 -8.062258 -4.188987 -7.212767 -5.700877 -5.700877 
C -7.212767 -4.188987 -8.062258 -2.138136 -8.062258 0 
C -8.062258 2.138136 -7.212767 4.188987 -5.700877 5.700877 
C -4.188987 7.212767 -2.138136 8.062258 0 8.062258 
z
" style="stroke: #ffffff; stroke-opacity: 0.9; stroke-width: 1.5"/>
    </defs>
    <g clip-path="url(#p9adaf52dac)">
     <use xlink:href="#m3c7b8107b8" x="446.507988" y="105.412928" style="fill: #ef6f6c; fill-opacity: 0.9; stroke: #ffffff; stroke-opacity: 0.9; stroke-width: 1.5"/>
    </g>
   </g>
   <g id="PathCollection_5">
    <defs>
     <path id="m41e178973f" d="M 0 8.062258 
C 2.138136 8.062258 4.188987 7.212767 5.700877 5.700877 
C 7.212767 4.188987 8.062258 2.138136 8.062258 0 
C 8.062258 -2.138136 7.212767 -4.188987 5.700877 -5.700877 
C 4.188987 -7.212767 2.138136 -8.062258 0 -8.062258 
C -2.138136 -8.062258 -4.188987 -7.212767 -5.700877 -5.700877 
C -7.212767 -4.188987 -8.062258 -2.138136 -8.062258 0 
C -8.062258 2.138136 -7.212767 4.188987 -5.700877 5.700877 
C -4.188987 7.212767 -2.138136 8.062258 0 8.062258 
z
" style="stroke: #ffffff; stroke-opacity: 0.9; stroke-width: 1.5"/>
    </defs>
    <g clip-path="url(#p9adaf52dac)">
     <use xlink:href="#m41e178973f" x="392.818037" y="70.85164" style="fill: #0f4c5c; fill-opacity: 0.9; stroke: #ffffff; stroke-opacity: 0.9; stroke-width: 1.5"/>
    </g>
   </g>
   <g id="text_7">
    <!-- Where each loss family sits -->
    <g style="fill: #1b2a41" transform="translate(199.787383 18.09225) scale(0.144 -0.144)">
     <defs>
      <path id="Georgia-57" d="M 6338 4213 
Q 6259 4209 6156 4176 
Q 6053 4144 5966 4091 
Q 5856 4022 5789 3933 
Q 5722 3844 5672 3684 
Q 5450 2963 5156 1998 
Q 4863 1034 4522 -56 
L 4234 -56 
L 3116 3356 
L 1950 -56 
L 1675 -56 
Q 1366 1038 1034 2214 
Q 703 3391 591 3791 
Q 563 3888 508 3963 
Q 453 4038 359 4100 
Q 281 4153 176 4179 
Q 72 4206 -13 4213 
L -13 4434 
L 1797 4434 
L 1797 4213 
Q 1559 4200 1392 4165 
Q 1225 4131 1225 4050 
Q 1225 4019 1234 3967 
Q 1244 3916 1250 3884 
Q 1322 3609 1505 2976 
Q 1688 2344 2047 1081 
L 3153 4372 
L 3459 4372 
L 4575 1009 
Q 4800 1784 4962 2364 
Q 5125 2944 5231 3356 
Q 5306 3647 5325 3755 
Q 5344 3863 5344 3938 
Q 5344 4044 5198 4116 
Q 5053 4188 4728 4213 
L 4728 4434 
L 6338 4434 
L 6338 4213 
z
" transform="scale(0.015625)"/>
     </defs>
     <use xlink:href="#Georgia-57"/>
     <use xlink:href="#Georgia-68" x="97.558594"/>
     <use xlink:href="#Georgia-65" x="155.761719"/>
     <use xlink:href="#Georgia-72" x="204.101562"/>
     <use xlink:href="#Georgia-65" x="245.068359"/>
     <use xlink:href="#Georgia-20" x="293.408203"/>
     <use xlink:href="#Georgia-65" x="317.529297"/>
     <use xlink:href="#Georgia-61" x="365.869141"/>
     <use xlink:href="#Georgia-63" x="416.259766"/>
     <use xlink:href="#Georgia-68" x="461.669922"/>
     <use xlink:href="#Georgia-20" x="519.873047"/>
     <use xlink:href="#Georgia-6c" x="543.994141"/>
     <use xlink:href="#Georgia-6f" x="572.607422"/>
     <use xlink:href="#Georgia-73" x="626.513672"/>
     <use xlink:href="#Georgia-73" x="669.726562"/>
     <use xlink:href="#Georgia-20" x="712.939453"/>
     <use xlink:href="#Georgia-66" x="737.060547"/>
     <use xlink:href="#Georgia-61" x="769.580078"/>
     <use xlink:href="#Georgia-6d" x="819.970703"/>
     <use xlink:href="#Georgia-69" x="908.056641"/>
     <use xlink:href="#Georgia-6c" x="937.353516"/>
     <use xlink:href="#Georgia-79" x="965.966797"/>
     <use xlink:href="#Georgia-20" x="1015.185547"/>
     <use xlink:href="#Georgia-73" x="1039.306641"/>
     <use xlink:href="#Georgia-69" x="1082.519531"/>
     <use xlink:href="#Georgia-74" x="1111.816406"/>
     <use xlink:href="#Georgia-73" x="1146.337891"/>
    </g>
   </g>
   <g id="text_8">
    <!-- Cox PH -->
    <g style="fill: #1b2a41" transform="translate(144.23943 224.531734) scale(0.095 -0.095)">
     <use xlink:href="#Georgia-43"/>
     <use xlink:href="#Georgia-6f" x="64.208984"/>
     <use xlink:href="#Georgia-78" x="118.115234"/>
     <use xlink:href="#Georgia-20" x="168.603516"/>
     <use xlink:href="#Georgia-50" x="192.724609"/>
     <use xlink:href="#Georgia-48" x="253.710938"/>
    </g>
   </g>
   <g id="text_9">
    <!-- Parametric -->
    <g style="fill: #1b2a41" transform="translate(217.451936 59.344446) scale(0.095 -0.095)">
     <use xlink:href="#Georgia-50"/>
     <use xlink:href="#Georgia-61" x="60.986328"/>
     <use xlink:href="#Georgia-72" x="111.376953"/>
     <use xlink:href="#Georgia-61" x="152.34375"/>
     <use xlink:href="#Georgia-6d" x="202.734375"/>
     <use xlink:href="#Georgia-65" x="290.820312"/>
     <use xlink:href="#Georgia-74" x="339.160156"/>
     <use xlink:href="#Georgia-72" x="373.681641"/>
     <use xlink:href="#Georgia-69" x="414.648438"/>
     <use xlink:href="#Georgia-63" x="443.945312"/>
    </g>
    <!-- NLL -->
    <g style="fill: #1b2a41" transform="translate(231.318967 70.022446) scale(0.095 -0.095)">
     <defs>
      <path id="Georgia-4e" d="M 4856 4213 
Q 4769 4209 4587 4162 
Q 4406 4116 4328 4066 
Q 4216 3988 4177 3766 
Q 4138 3544 4138 3203 
L 4138 -44 
L 3866 -44 
L 1178 3584 
L 1178 1297 
Q 1178 913 1226 706 
Q 1275 500 1375 413 
Q 1447 344 1672 284 
Q 1897 225 1969 222 
L 1969 0 
L 150 0 
L 150 222 
Q 234 228 434 283 
Q 634 338 684 381 
Q 794 469 834 648 
Q 875 828 875 1263 
L 875 3447 
Q 875 3591 825 3734 
Q 775 3878 691 3956 
Q 578 4059 386 4132 
Q 194 4206 75 4213 
L 75 4434 
L 1341 4434 
L 3834 1053 
L 3834 3163 
Q 3834 3550 3784 3758 
Q 3734 3966 3641 4034 
Q 3553 4094 3354 4150 
Q 3156 4206 3053 4213 
L 3053 4434 
L 4856 4434 
L 4856 4213 
z
" transform="scale(0.015625)"/>
      <path id="Georgia-4c" d="M 3866 1319 
L 3772 0 
L 306 0 
L 306 222 
Q 381 228 523 243 
Q 666 259 722 284 
Q 816 325 858 403 
Q 900 481 900 603 
L 900 3778 
Q 900 3884 864 3965 
Q 828 4047 722 4097 
Q 650 4134 520 4170 
Q 391 4206 306 4213 
L 306 4434 
L 2178 4434 
L 2178 4213 
Q 2091 4209 1952 4181 
Q 1813 4153 1750 4131 
Q 1644 4094 1605 4003 
Q 1566 3913 1566 3809 
L 1566 831 
Q 1566 625 1586 511 
Q 1606 397 1681 334 
Q 1753 278 1895 261 
Q 2038 244 2294 244 
Q 2409 244 2534 250 
Q 2659 256 2772 275 
Q 2881 294 2973 326 
Q 3066 359 3109 409 
Q 3238 553 3408 845 
Q 3578 1138 3644 1319 
L 3866 1319 
z
" transform="scale(0.015625)"/>
     </defs>
     <use xlink:href="#Georgia-4e"/>
     <use xlink:href="#Georgia-4c" x="76.708984"/>
     <use xlink:href="#Georgia-4c" x="137.060547"/>
    </g>
   </g>
   <g id="text_10">
    <!-- Discrete-time -->
    <g style="fill: #1b2a41" transform="translate(310.501913 104.070819) scale(0.095 -0.095)">
     <defs>
      <path id="Georgia-44" d="M 4553 2191 
Q 4553 1625 4340 1209 
Q 4128 794 3788 528 
Q 3444 263 3016 131 
Q 2588 0 2131 0 
L 294 0 
L 294 222 
Q 384 222 529 239 
Q 675 256 722 278 
Q 816 319 858 398 
Q 900 478 900 591 
L 900 3791 
Q 900 3897 864 3981 
Q 828 4066 722 4116 
Q 625 4163 512 4184 
Q 400 4206 319 4213 
L 319 4434 
L 2256 4434 
Q 2656 4434 3043 4311 
Q 3431 4188 3719 3978 
Q 4109 3700 4331 3250 
Q 4553 2800 4553 2191 
z
M 3788 2194 
Q 3788 2641 3669 3002 
Q 3550 3363 3322 3631 
Q 3106 3888 2792 4034 
Q 2478 4181 2094 4181 
Q 1966 4181 1805 4176 
Q 1644 4172 1566 4169 
L 1566 759 
Q 1566 475 1731 365 
Q 1897 256 2241 256 
Q 2638 256 2934 397 
Q 3231 538 3416 788 
Q 3609 1050 3698 1395 
Q 3788 1741 3788 2194 
z
" transform="scale(0.015625)"/>
      <path id="Georgia-2d" d="M 2128 1453 
L 266 1453 
L 266 1944 
L 2128 1944 
L 2128 1453 
z
" transform="scale(0.015625)"/>
     </defs>
     <use xlink:href="#Georgia-44"/>
     <use xlink:href="#Georgia-69" x="74.902344"/>
     <use xlink:href="#Georgia-73" x="104.199219"/>
     <use xlink:href="#Georgia-63" x="147.412109"/>
     <use xlink:href="#Georgia-72" x="192.822266"/>
     <use xlink:href="#Georgia-65" x="233.789062"/>
     <use xlink:href="#Georgia-74" x="282.128906"/>
     <use xlink:href="#Georgia-65" x="316.650391"/>
     <use xlink:href="#Georgia-2d" x="364.990234"/>
     <use xlink:href="#Georgia-74" x="402.392578"/>
     <use xlink:href="#Georgia-69" x="436.914062"/>
     <use xlink:href="#Georgia-6d" x="466.210938"/>
     <use xlink:href="#Georgia-65" x="554.296875"/>
    </g>
    <!-- NLL -->
    <g style="fill: #1b2a41" transform="translate(329.750546 114.748819) scale(0.095 -0.095)">
     <use xlink:href="#Georgia-4e"/>
     <use xlink:href="#Georgia-4c" x="76.708984"/>
     <use xlink:href="#Georgia-4c" x="137.060547"/>
    </g>
   </g>
   <g id="text_11">
    <!-- DeepHit -->
    <g style="fill: #1b2a41" transform="translate(428.741504 90.352615) scale(0.095 -0.095)">
     <use xlink:href="#Georgia-44"/>
     <use xlink:href="#Georgia-65" x="74.902344"/>
     <use xlink:href="#Georgia-65" x="123.242188"/>
     <use xlink:href="#Georgia-70" x="171.582031"/>
     <use xlink:href="#Georgia-48" x="228.710938"/>
     <use xlink:href="#Georgia-69" x="310.205078"/>
     <use xlink:href="#Georgia-74" x="339.501953"/>
    </g>
   </g>
   <g id="text_12">
    <!-- DSM -->
    <g style="fill: #1b2a41" transform="translate(382.190654 55.791327) scale(0.095 -0.095)">
     <defs>
      <path id="Georgia-53" d="M 3066 2034 
Q 3206 1878 3273 1692 
Q 3341 1506 3341 1259 
Q 3341 672 2906 290 
Q 2472 -91 1828 -91 
Q 1531 -91 1234 1 
Q 938 94 722 225 
L 588 -3 
L 338 -3 
L 294 1516 
L 547 1516 
Q 625 1234 729 1007 
Q 834 781 1006 584 
Q 1169 400 1386 290 
Q 1603 181 1891 181 
Q 2106 181 2267 237 
Q 2428 294 2528 397 
Q 2628 500 2676 639 
Q 2725 778 2725 959 
Q 2725 1225 2575 1454 
Q 2425 1684 2128 1803 
Q 1925 1884 1662 1982 
Q 1400 2081 1209 2169 
Q 834 2338 626 2611 
Q 419 2884 419 3325 
Q 419 3578 522 3797 
Q 625 4016 816 4188 
Q 997 4350 1244 4442 
Q 1491 4534 1759 4534 
Q 2066 4534 2308 4440 
Q 2550 4347 2750 4222 
L 2878 4434 
L 3128 4434 
L 3153 2963 
L 2900 2963 
Q 2831 3216 2745 3447 
Q 2659 3678 2522 3866 
Q 2388 4047 2194 4155 
Q 2000 4263 1719 4263 
Q 1422 4263 1212 4072 
Q 1003 3881 1003 3606 
Q 1003 3319 1137 3130 
Q 1272 2941 1528 2819 
Q 1756 2709 1976 2629 
Q 2197 2550 2403 2459 
Q 2591 2378 2764 2275 
Q 2938 2172 3066 2034 
z
" transform="scale(0.015625)"/>
      <path id="Georgia-4d" d="M 5644 0 
L 3684 0 
L 3684 222 
Q 3791 225 3958 244 
Q 4125 263 4188 297 
Q 4284 356 4329 432 
Q 4375 509 4375 625 
L 4375 3850 
L 4328 3850 
L 2816 72 
L 2659 72 
L 1219 3928 
L 1178 3928 
L 1178 1281 
Q 1178 897 1226 697 
Q 1275 497 1375 409 
Q 1444 344 1659 284 
Q 1875 225 1941 222 
L 1941 0 
L 150 0 
L 150 222 
Q 291 234 445 268 
Q 600 303 684 372 
Q 794 459 834 640 
Q 875 822 875 1247 
L 875 3516 
Q 875 3713 828 3838 
Q 781 3963 694 4041 
Q 597 4125 456 4165 
Q 316 4206 178 4213 
L 178 4434 
L 1691 4434 
L 2959 1109 
L 4044 3891 
Q 4103 4044 4145 4211 
Q 4188 4378 4191 4434 
L 5638 4434 
L 5638 4213 
Q 5550 4209 5414 4184 
Q 5278 4159 5216 4138 
Q 5109 4100 5071 4012 
Q 5034 3925 5034 3822 
L 5034 625 
Q 5034 516 5071 441 
Q 5109 366 5216 309 
Q 5272 278 5415 251 
Q 5559 225 5644 222 
L 5644 0 
z
" transform="scale(0.015625)"/>
     </defs>
     <use xlink:href="#Georgia-44"/>
     <use xlink:href="#Georgia-53" x="74.902344"/>
     <use xlink:href="#Georgia-4d" x="131.005859"/>
    </g>
   </g>
  </g>
 </g>
 <defs>
  <clipPath id="p9adaf52dac">
   <rect x="61.73" y="24.09225" width="447.416266" height="239.896"/>
  </clipPath>
 </defs>
</svg>
