<?xml version="1.0" encoding="utf-8" standalone="no"?>
<!DOCTYPE svg PUBLIC "-//W3C//DTD SVG 1.1//EN"
  "http://www.w3.org/Graphics/SVG/1.1/DTD/svg11.dtd">
<svg xmlns:xlink="http://www.w3.org/1999/xlink" width="527.455257pt" height="313.259375pt" viewBox="0 0 527.455257 313.259375" xmlns="http://www.w3.org/2000/svg" version="1.1">
 <metadata>
  <rdf:RDF xmlns:dc="http://purl.org/dc/elements/1.1/" xmlns:cc="http://creativecommons.org/ns#" xmlns:rdf="http://www.w3.org/1999/02/22-rdf-syntax-ns#">
   <cc:Work>
    <dc:type rdf:resource="http://purl.org/dc/dcmitype/StillImage"/>
    <dc:date>2026-07-16T21:39:23.989338</dc:date>
    <dc:format>image/svg+xml</dc:format>
    <dc:creator>
     <cc:Agent>
      <dc:title>Matplotlib v3.9.4, https://matplotlib.org/</dc:title>
     </cc:Agent>
    </dc:creator>
   </cc:Work>
  </rdf:RDF>
 </metadata>
 <defs>
  <style type="text/css">*{stroke-linejoin: round; stroke-linecap: butt}</style>
 </defs>
 <g id="figure_1">
  <g id="patch_1">
   <path d="M 0 313.259375 
L 527.455257 313.259375 
L 527.455257 0 
L 0 0 
z
" style="fill: #fbf7ef"/>
  </g>
  <g id="axes_1">
   <g id="patch_2">
    <path d="M 69.44 257.171312 
L 503.374646 257.171312 
L 503.374646 25.483312 
L 69.44 25.483312 
z
" style="fill: #fbf7ef"/>
   </g>
   <g id="matplotlib.axis_1">
    <g id="xtick_1">
     <g id="line2d_1">
      <path d="M 91.136732 257.171312 
L 91.136732 25.483312 
" clip-path="url(#p6f89012660)" style="fill: none; stroke: #f5f1e8; stroke-linecap: square"/>
     </g>
     <g id="line2d_2">
      <defs>
       <path id="m8c8aea93ca" d="M 0 0 
L 0 3.5 
" style="stroke: #5f776c; stroke-width: 0.8"/>
      </defs>
      <g>
       <use xlink:href="#m8c8aea93ca" x="91.136732" y="257.171312" style="fill: #5f776c; stroke: #5f776c; stroke-width: 0.8"/>
      </g>
     </g>
     <g id="text_1">
      <!-- rigid -->
      <g style="fill: #5f776c" transform="translate(81.429232 271.916) scale(0.11 -0.11)">
       <defs>
        <path id="EBGaramond-Regular-72" d="M 314 -19 
Q 250 -19 218 -3 
Q 186 13 186 51 
Q 186 102 224 118 
Q 262 134 333 154 
Q 454 186 515 246 
Q 576 307 576 397 
L 576 1773 
Q 576 1946 525 2074 
Q 474 2202 314 2234 
Q 288 2240 269 2265 
Q 250 2291 250 2317 
Q 250 2381 307 2394 
Q 474 2445 656 2544 
Q 838 2643 941 2707 
Q 979 2733 1001 2742 
Q 1024 2752 1037 2752 
Q 1069 2752 1069 2707 
Q 1069 2688 1065 2611 
Q 1062 2534 1059 2432 
Q 1056 2330 1050 2227 
Q 1050 2214 1062 2214 
Q 1165 2342 1289 2438 
Q 1414 2534 1545 2592 
Q 1677 2650 1798 2650 
Q 1933 2650 2019 2592 
Q 2106 2534 2106 2445 
Q 2106 2381 2070 2304 
Q 2035 2227 1977 2169 
Q 1920 2112 1856 2112 
Q 1818 2112 1773 2128 
Q 1728 2144 1677 2170 
Q 1626 2189 1574 2208 
Q 1523 2227 1472 2227 
Q 1318 2227 1174 2118 
Q 1030 2010 1030 1690 
L 1030 397 
Q 1030 314 1120 259 
Q 1210 205 1370 154 
Q 1440 134 1478 115 
Q 1517 96 1517 51 
Q 1517 -19 1389 -19 
Q 1197 -19 1097 -3 
Q 998 13 832 13 
Q 723 13 656 6 
Q 589 0 515 -9 
Q 442 -19 314 -19 
z
" transform="scale(0.015625)"/>
        <path id="EBGaramond-Regular-69" d="M 282 -19 
Q 224 -19 189 -3 
Q 154 13 154 51 
Q 154 102 202 121 
Q 250 141 301 154 
Q 435 186 505 234 
Q 576 282 576 397 
L 576 1786 
Q 576 1958 515 2092 
Q 454 2227 288 2253 
Q 256 2259 240 2278 
Q 224 2298 224 2336 
Q 224 2406 282 2413 
Q 538 2470 704 2569 
Q 870 2669 954 2733 
Q 1011 2778 1043 2778 
Q 1082 2778 1082 2746 
Q 1082 2694 1066 2544 
Q 1050 2394 1037 2211 
Q 1024 2029 1024 1882 
L 1024 397 
Q 1024 288 1097 237 
Q 1171 186 1299 154 
Q 1350 141 1398 121 
Q 1446 102 1446 51 
Q 1446 -19 1318 -19 
Q 1197 -19 1123 -9 
Q 1050 0 982 6 
Q 915 13 800 13 
Q 691 13 620 6 
Q 550 0 480 -9 
Q 410 -19 282 -19 
z
M 792 3302 
Q 658 3302 565 3395 
Q 472 3488 472 3622 
Q 472 3763 565 3856 
Q 658 3949 792 3949 
Q 933 3949 1025 3856 
Q 1118 3763 1118 3622 
Q 1118 3488 1025 3395 
Q 933 3302 792 3302 
z
" transform="scale(0.015625)"/>
        <path id="EBGaramond-Regular-67" d="M 1248 -1856 
Q 704 -1856 387 -1648 
Q 70 -1440 70 -1088 
Q 70 -922 121 -806 
Q 173 -691 282 -608 
Q 371 -531 521 -412 
Q 672 -294 832 -166 
L 1101 -179 
Q 794 -378 672 -557 
Q 550 -736 550 -992 
Q 550 -1248 777 -1424 
Q 1005 -1600 1338 -1600 
Q 1715 -1600 1946 -1427 
Q 2106 -1306 2195 -1110 
Q 2285 -915 2285 -698 
Q 2285 -557 2185 -464 
Q 2086 -371 1875 -313 
Q 1664 -256 1325 -237 
Q 723 -192 489 -77 
Q 256 38 256 282 
Q 256 346 291 400 
Q 326 454 403 518 
Q 550 634 620 688 
Q 691 742 726 780 
Q 762 819 794 877 
L 1011 768 
Q 870 717 774 630 
Q 678 544 678 474 
Q 678 384 774 317 
Q 870 250 1056 211 
Q 1242 173 1510 154 
Q 2099 122 2387 -38 
Q 2675 -198 2675 -493 
Q 2675 -742 2550 -982 
Q 2426 -1222 2221 -1420 
Q 2016 -1619 1763 -1737 
Q 1510 -1856 1248 -1856 
z
M 1325 902 
Q 1568 902 1728 1148 
Q 1888 1395 1888 1760 
Q 1888 1946 1801 2109 
Q 1715 2272 1577 2371 
Q 1440 2470 1280 2470 
Q 1133 2470 1001 2364 
Q 870 2259 790 2092 
Q 710 1926 710 1728 
Q 710 1504 793 1315 
Q 877 1126 1017 1014 
Q 1158 902 1325 902 
z
M 1286 678 
Q 1024 678 787 812 
Q 550 947 400 1168 
Q 250 1389 250 1651 
Q 250 1952 406 2179 
Q 563 2406 819 2534 
Q 1075 2662 1363 2662 
Q 1549 2662 1686 2614 
Q 1824 2566 1958 2528 
Q 2112 2483 2201 2473 
Q 2291 2464 2387 2464 
Q 2464 2464 2579 2473 
Q 2694 2483 2739 2483 
Q 2822 2483 2822 2387 
Q 2822 2330 2758 2266 
Q 2726 2234 2707 2234 
L 2534 2234 
Q 2362 2234 2342 2182 
Q 2336 2157 2326 2109 
Q 2317 2061 2310 2003 
Q 2304 1946 2304 1888 
Q 2304 1562 2163 1286 
Q 2022 1011 1792 844 
Q 1562 678 1286 678 
z
" transform="scale(0.015625)"/>
        <path id="EBGaramond-Regular-64" d="M 2285 -122 
Q 2272 -122 2243 -96 
Q 2214 -70 2214 -58 
Q 2214 6 2230 124 
Q 2246 243 2246 326 
L 2246 365 
Q 2150 218 1939 64 
Q 1728 -90 1408 -90 
Q 1043 -90 777 102 
Q 512 294 368 595 
Q 224 896 224 1216 
Q 224 1587 397 1913 
Q 570 2240 893 2445 
Q 1216 2650 1664 2650 
Q 1792 2650 1923 2627 
Q 2054 2605 2125 2579 
Q 2182 2560 2208 2560 
Q 2253 2560 2253 2714 
L 2253 3622 
Q 2253 3885 2169 3974 
Q 2086 4064 1933 4090 
Q 1875 4102 1875 4173 
Q 1875 4230 1926 4250 
Q 2208 4320 2368 4384 
Q 2528 4448 2618 4486 
Q 2643 4499 2665 4502 
Q 2688 4506 2701 4506 
Q 2739 4506 2746 4467 
Q 2746 4429 2736 4336 
Q 2726 4243 2713 4064 
Q 2701 3885 2701 3597 
L 2701 704 
Q 2701 486 2733 387 
Q 2765 288 2835 288 
Q 2867 288 2947 294 
Q 3027 301 3110 307 
Q 3226 314 3226 250 
Q 3226 205 3197 169 
Q 3168 134 3136 134 
Q 2957 109 2784 61 
Q 2611 13 2387 -83 
Q 2336 -109 2320 -115 
Q 2304 -122 2285 -122 
z
M 1638 243 
Q 1805 243 1965 329 
Q 2125 416 2246 557 
L 2253 1709 
Q 2253 1882 2153 2048 
Q 2054 2214 1878 2320 
Q 1702 2426 1466 2426 
Q 1318 2426 1132 2336 
Q 947 2246 812 2019 
Q 678 1792 678 1363 
Q 678 998 787 777 
Q 896 557 1053 441 
Q 1210 326 1373 284 
Q 1536 243 1638 243 
z
" transform="scale(0.015625)"/>
       </defs>
       <use xlink:href="#EBGaramond-Regular-72"/>
       <use xlink:href="#EBGaramond-Regular-69" x="33.399994"/>
       <use xlink:href="#EBGaramond-Regular-67" x="57.899979"/>
       <use xlink:href="#EBGaramond-Regular-69" x="101.399963"/>
       <use xlink:href="#EBGaramond-Regular-64" x="125.899948"/>
      </g>
      <!-- (PH / fixed shape) -->
      <g style="fill: #5f776c" transform="translate(52.493217 284.424375) scale(0.11 -0.11)">
       <defs>
        <path id="EBGaramond-Regular-28" d="M 1517 -1370 
Q 1453 -1370 1408 -1325 
Q 1274 -1190 1117 -940 
Q 960 -691 806 -371 
Q 653 -51 528 310 
Q 403 672 329 1033 
Q 256 1395 256 1722 
Q 256 2131 365 2540 
Q 474 2950 646 3318 
Q 819 3686 1014 3977 
Q 1210 4269 1382 4442 
Q 1414 4474 1462 4493 
Q 1510 4512 1555 4512 
Q 1587 4512 1641 4483 
Q 1696 4454 1696 4410 
Q 1696 4403 1677 4377 
Q 1658 4352 1638 4323 
Q 1619 4294 1613 4288 
Q 1421 4064 1229 3686 
Q 1037 3309 912 2825 
Q 787 2342 787 1798 
Q 787 1389 857 950 
Q 928 512 1043 105 
Q 1158 -301 1302 -617 
Q 1446 -934 1594 -1107 
Q 1600 -1114 1622 -1139 
Q 1645 -1165 1667 -1193 
Q 1690 -1222 1690 -1229 
Q 1690 -1293 1635 -1331 
Q 1581 -1370 1517 -1370 
z
" transform="scale(0.015625)"/>
        <path id="EBGaramond-Regular-50" d="M 339 -32 
Q 256 -32 205 -16 
Q 154 0 154 38 
Q 154 115 365 154 
Q 608 198 720 300 
Q 832 403 832 640 
L 832 3341 
Q 832 3629 758 3782 
Q 685 3936 442 3981 
Q 333 4000 281 4032 
Q 230 4064 230 4109 
Q 230 4147 281 4163 
Q 333 4179 416 4179 
Q 589 4179 675 4179 
Q 762 4179 838 4176 
Q 915 4173 1043 4173 
Q 1171 4173 1302 4182 
Q 1434 4192 1549 4201 
Q 1664 4211 1754 4211 
Q 2483 4211 2928 3910 
Q 3373 3610 3373 3072 
Q 3373 2682 3219 2352 
Q 3066 2022 2749 1824 
Q 2432 1626 1939 1626 
Q 1798 1626 1724 1667 
Q 1651 1709 1651 1747 
Q 1651 1773 1686 1805 
Q 1722 1837 1754 1837 
Q 1786 1837 1853 1830 
Q 1920 1824 2048 1824 
Q 2432 1824 2627 2144 
Q 2822 2464 2822 3027 
Q 2822 3539 2521 3785 
Q 2221 4032 1754 4032 
Q 1574 4032 1459 3971 
Q 1344 3910 1344 3763 
L 1344 710 
Q 1344 480 1440 339 
Q 1536 198 1773 154 
Q 1882 134 1933 108 
Q 1984 83 1984 38 
Q 1984 0 1933 -16 
Q 1882 -32 1798 -32 
Q 1626 -32 1533 -19 
Q 1440 -6 1366 3 
Q 1293 13 1171 13 
Q 1011 13 886 3 
Q 762 -6 637 -19 
Q 512 -32 339 -32 
z
" transform="scale(0.015625)"/>
        <path id="EBGaramond-Regular-48" d="M 422 -32 
Q 339 -32 288 -9 
Q 237 13 237 51 
Q 237 115 442 154 
Q 685 198 758 300 
Q 832 403 832 634 
L 832 3526 
Q 832 3750 784 3843 
Q 736 3936 493 3981 
Q 282 4019 282 4096 
Q 282 4134 326 4156 
Q 371 4179 467 4179 
Q 640 4179 736 4172 
Q 832 4166 915 4163 
Q 998 4160 1126 4160 
Q 1261 4160 1347 4163 
Q 1434 4166 1533 4172 
Q 1632 4179 1805 4179 
Q 1990 4179 1990 4096 
Q 1990 4051 1939 4025 
Q 1888 4000 1779 3981 
Q 1542 3936 1443 3824 
Q 1344 3712 1344 3526 
L 1344 2266 
Q 1344 2227 1376 2217 
Q 1408 2208 1434 2208 
L 3808 2208 
Q 3853 2208 3853 2285 
L 3853 3533 
Q 3853 3706 3763 3821 
Q 3674 3936 3430 3981 
Q 3322 4000 3270 4025 
Q 3219 4051 3219 4096 
Q 3219 4179 3405 4179 
Q 3578 4179 3690 4172 
Q 3802 4166 3904 4163 
Q 4006 4160 4147 4160 
Q 4262 4160 4326 4163 
Q 4390 4166 4473 4172 
Q 4557 4179 4730 4179 
Q 4819 4179 4867 4156 
Q 4915 4134 4915 4096 
Q 4915 4019 4704 3981 
Q 4467 3936 4416 3827 
Q 4365 3718 4365 3533 
L 4365 640 
Q 4365 403 4425 300 
Q 4486 198 4723 154 
Q 4928 115 4928 51 
Q 4928 13 4877 -9 
Q 4826 -32 4742 -32 
Q 4570 -32 4474 -22 
Q 4378 -13 4294 -6 
Q 4211 0 4077 0 
Q 3942 0 3856 -6 
Q 3770 -13 3667 -22 
Q 3565 -32 3392 -32 
Q 3309 -32 3257 -9 
Q 3206 13 3206 51 
Q 3206 96 3254 115 
Q 3302 134 3411 154 
Q 3616 192 3734 304 
Q 3853 416 3853 621 
L 3853 1869 
Q 3853 1901 3853 1933 
Q 3853 1965 3821 1965 
L 1376 1965 
Q 1344 1965 1344 1894 
L 1344 678 
Q 1344 480 1491 336 
Q 1638 192 1856 154 
Q 1965 134 2013 115 
Q 2061 96 2061 51 
Q 2061 13 2009 -9 
Q 1958 -32 1875 -32 
Q 1702 -32 1590 -22 
Q 1478 -13 1376 -6 
Q 1274 0 1126 0 
Q 992 0 899 -6 
Q 806 -13 700 -22 
Q 595 -32 422 -32 
z
" transform="scale(0.015625)"/>
        <path id="EBGaramond-Regular-20" transform="scale(0.015625)"/>
        <path id="EBGaramond-Regular-2f" d="M 237 -397 
Q 173 -397 144 -368 
Q 115 -339 134 -301 
L 2035 4147 
Q 2067 4218 2134 4237 
Q 2202 4256 2285 4256 
Q 2349 4256 2368 4224 
Q 2387 4192 2368 4147 
L 467 -301 
Q 442 -365 374 -381 
Q 307 -397 237 -397 
z
" transform="scale(0.015625)"/>
        <path id="EBGaramond-Regular-66" d="M 282 -19 
Q 218 -19 186 -3 
Q 154 13 154 51 
Q 154 102 195 121 
Q 237 141 301 154 
Q 448 186 512 246 
Q 576 307 576 435 
L 576 2240 
Q 512 2240 429 2243 
Q 346 2246 243 2253 
Q 224 2259 189 2297 
Q 154 2336 154 2368 
Q 154 2381 173 2390 
Q 192 2400 198 2406 
Q 314 2464 397 2509 
Q 480 2554 576 2598 
Q 576 3155 713 3526 
Q 851 3898 1068 4115 
Q 1286 4333 1529 4425 
Q 1773 4518 1984 4518 
Q 2342 4518 2515 4409 
Q 2688 4301 2688 4134 
Q 2688 4006 2624 3942 
Q 2560 3878 2470 3878 
Q 2413 3878 2365 3923 
Q 2317 3968 2253 4026 
Q 2170 4109 2048 4182 
Q 1926 4256 1715 4256 
Q 1414 4256 1219 3993 
Q 1024 3731 1024 3187 
L 1024 2624 
Q 1024 2586 1046 2573 
Q 1069 2560 1094 2560 
L 1894 2560 
Q 1926 2560 1952 2541 
Q 1978 2522 1978 2490 
Q 1978 2445 1968 2393 
Q 1958 2342 1939 2304 
Q 1920 2253 1882 2253 
L 1146 2253 
Q 1069 2253 1046 2230 
Q 1024 2208 1024 2170 
L 1024 435 
Q 1024 307 1107 246 
Q 1190 186 1446 154 
Q 1594 134 1594 51 
Q 1594 13 1562 -3 
Q 1530 -19 1466 -19 
Q 1274 -19 1126 -3 
Q 979 13 813 13 
Q 704 13 633 6 
Q 563 0 486 -9 
Q 410 -19 282 -19 
z
" transform="scale(0.015625)"/>
        <path id="EBGaramond-Regular-78" d="M 192 -26 
Q 154 -26 109 -16 
Q 64 -6 64 32 
Q 64 83 112 108 
Q 160 134 211 147 
Q 307 179 406 252 
Q 506 326 640 512 
L 1133 1197 
Q 1178 1248 1174 1277 
Q 1171 1306 1146 1344 
L 621 2144 
Q 544 2272 483 2329 
Q 422 2387 326 2413 
Q 275 2426 227 2451 
Q 179 2477 179 2528 
Q 179 2579 240 2582 
Q 301 2586 326 2586 
Q 454 2586 502 2579 
Q 550 2573 614 2566 
Q 678 2560 832 2560 
Q 947 2560 998 2566 
Q 1050 2573 1158 2573 
Q 1184 2573 1245 2569 
Q 1306 2566 1306 2515 
Q 1306 2477 1270 2457 
Q 1235 2438 1190 2426 
Q 1146 2413 1101 2390 
Q 1056 2368 1056 2317 
Q 1056 2285 1078 2230 
Q 1101 2176 1139 2112 
L 1434 1670 
Q 1459 1626 1491 1670 
L 1818 2163 
Q 1843 2195 1856 2233 
Q 1869 2272 1869 2304 
Q 1869 2381 1786 2406 
Q 1734 2426 1686 2451 
Q 1638 2477 1638 2522 
Q 1638 2573 1699 2576 
Q 1760 2579 1786 2579 
Q 1837 2579 1933 2569 
Q 2029 2560 2106 2560 
Q 2285 2560 2355 2576 
Q 2426 2592 2509 2592 
Q 2547 2592 2592 2582 
Q 2637 2573 2637 2534 
Q 2637 2490 2589 2464 
Q 2541 2438 2490 2419 
Q 2394 2394 2259 2320 
Q 2125 2246 2035 2118 
L 1632 1510 
Q 1626 1498 1622 1475 
Q 1619 1453 1638 1427 
L 2259 416 
Q 2336 294 2406 236 
Q 2477 179 2573 147 
Q 2624 134 2672 108 
Q 2720 83 2720 32 
Q 2720 -6 2675 -16 
Q 2630 -26 2592 -26 
Q 2464 -26 2406 -19 
Q 2349 -13 2281 -6 
Q 2214 0 2054 0 
Q 1939 0 1817 -6 
Q 1696 -13 1587 -13 
Q 1440 -13 1440 51 
Q 1440 109 1481 134 
Q 1523 160 1600 179 
Q 1670 198 1724 233 
Q 1779 269 1779 333 
Q 1779 358 1769 387 
Q 1760 416 1741 448 
L 1363 1062 
Q 1344 1082 1325 1062 
L 902 429 
Q 896 416 883 381 
Q 870 346 870 307 
Q 870 262 892 220 
Q 915 179 960 166 
Q 1011 147 1059 124 
Q 1107 102 1107 51 
Q 1107 6 1046 0 
Q 986 -6 960 -6 
Q 909 -6 803 0 
Q 698 6 621 6 
Q 442 6 362 -10 
Q 282 -26 192 -26 
z
" transform="scale(0.015625)"/>
        <path id="EBGaramond-Regular-65" d="M 1363 -96 
Q 1011 -96 748 77 
Q 486 250 339 566 
Q 192 883 192 1299 
Q 192 1670 361 1974 
Q 531 2278 812 2464 
Q 1094 2650 1427 2650 
Q 1683 2650 1881 2547 
Q 2080 2445 2192 2262 
Q 2304 2080 2304 1843 
Q 2304 1645 2112 1645 
L 762 1645 
Q 672 1645 637 1597 
Q 602 1549 602 1408 
Q 602 1101 736 848 
Q 870 595 1094 444 
Q 1318 294 1587 294 
Q 1779 294 1936 368 
Q 2093 442 2214 582 
Q 2240 614 2253 624 
Q 2266 634 2285 634 
Q 2336 634 2336 570 
Q 2336 448 2221 301 
Q 2125 179 1990 89 
Q 1856 0 1696 -48 
Q 1536 -96 1363 -96 
z
M 774 1843 
L 1357 1843 
Q 1510 1843 1619 1849 
Q 1728 1856 1830 1875 
Q 1862 1882 1872 1917 
Q 1882 1952 1882 2016 
Q 1882 2202 1718 2333 
Q 1555 2464 1331 2464 
Q 1184 2464 1037 2377 
Q 890 2291 794 2163 
Q 698 2035 698 1907 
Q 698 1843 774 1843 
z
" transform="scale(0.015625)"/>
        <path id="EBGaramond-Regular-73" d="M 922 -90 
Q 723 -90 550 -29 
Q 378 32 256 141 
Q 224 211 208 377 
Q 192 544 186 653 
Q 186 710 269 710 
Q 294 710 316 700 
Q 339 691 346 666 
Q 429 352 611 217 
Q 794 83 979 83 
Q 1165 83 1296 208 
Q 1427 333 1427 518 
Q 1427 691 1312 816 
Q 1197 941 909 1120 
Q 691 1254 556 1376 
Q 422 1498 361 1626 
Q 301 1754 301 1914 
Q 301 2118 397 2284 
Q 493 2451 685 2550 
Q 877 2650 1165 2650 
Q 1357 2650 1485 2611 
Q 1613 2573 1677 2528 
Q 1728 2458 1763 2307 
Q 1798 2157 1798 2022 
Q 1798 1978 1734 1978 
Q 1696 1978 1661 1994 
Q 1626 2010 1613 2035 
Q 1530 2246 1405 2358 
Q 1280 2470 1094 2470 
Q 934 2470 809 2374 
Q 685 2278 685 2093 
Q 685 1946 777 1830 
Q 870 1715 1126 1568 
Q 1498 1357 1680 1174 
Q 1862 992 1862 691 
Q 1862 346 1600 128 
Q 1338 -90 922 -90 
z
" transform="scale(0.015625)"/>
        <path id="EBGaramond-Regular-68" d="M 250 -19 
Q 122 -19 122 51 
Q 122 109 269 154 
Q 365 186 451 237 
Q 538 288 544 416 
L 544 3622 
Q 544 3795 486 3926 
Q 429 4058 262 4083 
Q 205 4096 205 4173 
Q 205 4230 256 4250 
Q 346 4282 470 4320 
Q 595 4358 729 4406 
Q 864 4454 966 4499 
Q 992 4512 1005 4512 
Q 1024 4512 1037 4499 
Q 1050 4486 1050 4467 
Q 1050 4429 1034 4358 
Q 1018 4288 1005 4115 
Q 992 3942 992 3597 
L 992 2483 
Q 992 2381 1001 2336 
Q 1011 2291 1037 2246 
Q 1139 2323 1289 2416 
Q 1440 2509 1625 2579 
Q 1811 2650 2010 2650 
Q 2323 2650 2531 2403 
Q 2739 2157 2739 1779 
L 2739 435 
Q 2739 307 2822 246 
Q 2906 186 3002 154 
Q 3072 134 3110 112 
Q 3149 90 3149 51 
Q 3149 -19 3021 -19 
Q 2893 -19 2825 -9 
Q 2758 0 2697 6 
Q 2637 13 2522 13 
Q 2413 13 2349 6 
Q 2285 0 2217 -9 
Q 2150 -19 2022 -19 
Q 1894 -19 1894 51 
Q 1894 96 1932 112 
Q 1971 128 2042 154 
Q 2138 186 2214 246 
Q 2291 307 2291 435 
L 2291 1741 
Q 2291 1901 2198 2032 
Q 2106 2163 1971 2240 
Q 1837 2317 1696 2317 
Q 1574 2317 1414 2281 
Q 1254 2246 1165 2176 
Q 1062 2093 1027 2003 
Q 992 1914 992 1715 
L 992 416 
Q 998 288 1072 237 
Q 1146 186 1242 154 
Q 1312 134 1347 112 
Q 1382 90 1382 51 
Q 1382 -19 1254 -19 
Q 1126 -19 1062 -9 
Q 998 0 940 6 
Q 883 13 768 13 
Q 659 13 592 6 
Q 525 0 451 -9 
Q 378 -19 250 -19 
z
" transform="scale(0.015625)"/>
        <path id="EBGaramond-Regular-61" d="M 749 -90 
Q 634 -90 515 0 
Q 397 90 317 218 
Q 237 346 237 461 
Q 237 666 345 781 
Q 454 896 691 992 
L 1344 1261 
Q 1472 1312 1494 1350 
Q 1517 1389 1523 1517 
L 1536 1926 
Q 1542 2093 1443 2214 
Q 1344 2336 1158 2336 
Q 1062 2336 966 2304 
Q 870 2272 806 2221 
Q 768 2195 755 2144 
Q 742 2093 742 2035 
Q 742 2010 745 1978 
Q 749 1946 749 1920 
Q 749 1888 669 1833 
Q 589 1779 489 1737 
Q 390 1696 326 1696 
Q 294 1696 275 1712 
Q 256 1728 256 1754 
Q 256 1856 323 1974 
Q 390 2093 512 2195 
Q 659 2330 832 2432 
Q 1005 2534 1171 2592 
Q 1338 2650 1466 2650 
Q 1696 2650 1846 2486 
Q 1997 2323 1990 2080 
L 1958 544 
Q 1952 410 2019 326 
Q 2086 243 2189 243 
Q 2349 243 2426 314 
Q 2458 346 2477 346 
Q 2509 346 2528 326 
Q 2547 307 2547 275 
Q 2547 205 2477 134 
Q 2374 32 2256 -29 
Q 2138 -90 2035 -90 
Q 1741 -90 1568 243 
L 1549 243 
Q 1338 70 1146 -10 
Q 954 -90 749 -90 
z
M 1050 218 
Q 1178 218 1267 259 
Q 1357 301 1427 371 
Q 1459 403 1481 457 
Q 1504 512 1510 634 
L 1523 947 
Q 1530 1018 1517 1050 
Q 1504 1082 1466 1082 
Q 1453 1082 1421 1075 
Q 1389 1069 1338 1050 
Q 998 928 867 797 
Q 736 666 736 557 
Q 736 390 835 304 
Q 934 218 1050 218 
z
" transform="scale(0.015625)"/>
        <path id="EBGaramond-Regular-70" d="M 256 -1824 
Q 224 -1824 173 -1814 
Q 122 -1805 122 -1766 
Q 122 -1715 170 -1692 
Q 218 -1670 269 -1651 
Q 365 -1619 454 -1577 
Q 544 -1536 544 -1408 
L 544 1837 
Q 544 1888 515 1990 
Q 486 2093 422 2189 
Q 358 2285 250 2304 
Q 224 2310 211 2336 
Q 198 2362 198 2387 
Q 198 2419 211 2438 
Q 224 2458 243 2464 
Q 486 2522 659 2589 
Q 832 2656 986 2720 
Q 992 2720 992 2723 
Q 992 2726 998 2726 
Q 1011 2726 1024 2707 
Q 1037 2688 1037 2669 
Q 1037 2611 1021 2486 
Q 1005 2362 1005 2285 
Q 1005 2234 1011 2227 
Q 1075 2291 1244 2390 
Q 1414 2490 1632 2570 
Q 1850 2650 2048 2650 
Q 2381 2650 2614 2474 
Q 2848 2298 2973 2019 
Q 3098 1741 3098 1440 
Q 3098 1152 2989 880 
Q 2880 608 2681 390 
Q 2483 173 2220 41 
Q 1958 -90 1658 -90 
Q 1568 -90 1443 -61 
Q 1318 -32 1200 13 
Q 1082 58 1018 115 
Q 1011 115 1004 41 
Q 998 -32 995 -112 
Q 992 -192 992 -211 
L 992 -1408 
Q 992 -1491 1059 -1539 
Q 1126 -1587 1212 -1609 
Q 1299 -1632 1363 -1651 
Q 1414 -1670 1462 -1692 
Q 1510 -1715 1510 -1766 
Q 1510 -1805 1459 -1814 
Q 1408 -1824 1370 -1824 
Q 1184 -1824 1059 -1808 
Q 934 -1792 768 -1792 
Q 659 -1792 592 -1798 
Q 525 -1805 454 -1814 
Q 384 -1824 256 -1824 
z
M 1754 109 
Q 1850 109 1987 166 
Q 2125 224 2262 352 
Q 2400 480 2493 697 
Q 2586 915 2586 1235 
Q 2586 1606 2490 1830 
Q 2394 2054 2253 2169 
Q 2112 2285 1965 2323 
Q 1818 2362 1715 2362 
Q 1562 2362 1398 2298 
Q 1235 2234 1123 2154 
Q 1011 2074 1011 2029 
Q 1011 1888 1008 1744 
Q 1005 1600 1001 1465 
Q 998 1331 995 1225 
Q 992 1120 992 1062 
Q 992 806 1110 588 
Q 1229 371 1405 240 
Q 1581 109 1754 109 
z
" transform="scale(0.015625)"/>
        <path id="EBGaramond-Regular-29" d="M 499 -1370 
Q 435 -1370 380 -1331 
Q 326 -1293 326 -1229 
Q 326 -1222 348 -1193 
Q 371 -1165 396 -1139 
Q 422 -1114 422 -1107 
Q 570 -934 714 -617 
Q 858 -301 973 105 
Q 1088 512 1158 950 
Q 1229 1389 1229 1798 
Q 1229 2342 1104 2825 
Q 979 3309 790 3686 
Q 602 4064 403 4288 
Q 397 4294 377 4323 
Q 358 4352 339 4377 
Q 320 4403 320 4410 
Q 320 4454 374 4483 
Q 429 4512 461 4512 
Q 512 4512 560 4493 
Q 608 4474 634 4442 
Q 806 4269 1001 3977 
Q 1197 3686 1369 3318 
Q 1542 2950 1651 2540 
Q 1760 2131 1760 1722 
Q 1760 1395 1686 1033 
Q 1613 672 1488 310 
Q 1363 -51 1209 -371 
Q 1056 -691 899 -940 
Q 742 -1190 608 -1325 
Q 563 -1370 499 -1370 
z
" transform="scale(0.015625)"/>
       </defs>
       <use xlink:href="#EBGaramond-Regular-28"/>
       <use xlink:href="#EBGaramond-Regular-50" x="31.499985"/>
       <use xlink:href="#EBGaramond-Regular-48" x="86.699982"/>
       <use xlink:href="#EBGaramond-Regular-20" x="167.699966"/>
       <use xlink:href="#EBGaramond-Regular-2f" x="187.699951"/>
       <use xlink:href="#EBGaramond-Regular-20" x="227.599945"/>
       <use xlink:href="#EBGaramond-Regular-66" x="247.59993"/>
       <use xlink:href="#EBGaramond-Regular-69" x="279.399918"/>
       <use xlink:href="#EBGaramond-Regular-78" x="303.899902"/>
       <use xlink:href="#EBGaramond-Regular-65" x="346.899887"/>
       <use xlink:href="#EBGaramond-Regular-64" x="385.899872"/>
       <use xlink:href="#EBGaramond-Regular-20" x="436.499863"/>
       <use xlink:href="#EBGaramond-Regular-73" x="456.499847"/>
       <use xlink:href="#EBGaramond-Regular-68" x="488.799835"/>
       <use xlink:href="#EBGaramond-Regular-61" x="540.29982"/>
       <use xlink:href="#EBGaramond-Regular-70" x="580.199814"/>
       <use xlink:href="#EBGaramond-Regular-65" x="632.099808"/>
       <use xlink:href="#EBGaramond-Regular-29" x="671.099792"/>
      </g>
     </g>
    </g>
    <g id="xtick_2">
     <g id="line2d_3">
      <path d="M 481.677913 257.171312 
L 481.677913 25.483312 
" clip-path="url(#p6f89012660)" style="fill: none; stroke: #f5f1e8; stroke-linecap: square"/>
     </g>
     <g id="line2d_4">
      <g>
       <use xlink:href="#m8c8aea93ca" x="481.677913" y="257.171312" style="fill: #5f776c; stroke: #5f776c; stroke-width: 0.8"/>
      </g>
     </g>
     <g id="text_2">
      <!-- flexible -->
      <g style="fill: #5f776c" transform="translate(466.454085 271.926312) scale(0.11 -0.11)">
       <defs>
        <path id="EBGaramond-Regular-6c" d="M 250 -19 
Q 218 -19 170 -9 
Q 122 0 122 38 
Q 122 90 170 112 
Q 218 134 269 154 
Q 365 186 454 227 
Q 544 269 544 397 
L 544 3622 
Q 544 3808 477 3933 
Q 410 4058 250 4090 
Q 198 4102 198 4173 
Q 198 4237 243 4250 
Q 410 4288 531 4329 
Q 653 4371 758 4416 
Q 864 4461 966 4499 
Q 992 4512 1005 4512 
Q 1018 4512 1027 4496 
Q 1037 4480 1037 4467 
Q 1037 4410 1014 4221 
Q 992 4032 992 3597 
L 992 397 
Q 992 269 1081 227 
Q 1171 186 1267 154 
Q 1318 134 1366 112 
Q 1414 90 1414 38 
Q 1414 0 1366 -9 
Q 1318 -19 1286 -19 
Q 1165 -19 1091 -9 
Q 1018 0 950 6 
Q 883 13 768 13 
Q 659 13 588 6 
Q 518 0 448 -9 
Q 378 -19 250 -19 
z
" transform="scale(0.015625)"/>
        <path id="EBGaramond-Regular-62" d="M 1658 -90 
Q 1517 -90 1376 -64 
Q 1235 -38 1107 -6 
Q 966 32 860 64 
Q 755 96 723 96 
Q 685 96 649 70 
Q 614 45 582 13 
Q 550 -19 525 -19 
Q 499 -19 467 3 
Q 435 26 435 58 
Q 435 115 457 256 
Q 480 397 480 518 
L 480 3622 
Q 480 3789 397 3910 
Q 314 4032 186 4090 
Q 160 4102 131 4124 
Q 102 4147 102 4186 
Q 102 4218 128 4230 
Q 154 4243 179 4250 
Q 262 4269 406 4320 
Q 550 4371 678 4422 
Q 806 4474 851 4493 
Q 890 4512 909 4512 
Q 922 4512 934 4499 
Q 947 4486 947 4467 
Q 947 4442 937 4253 
Q 928 4064 928 3795 
L 928 2483 
Q 928 2362 941 2320 
Q 954 2278 986 2272 
Q 1184 2438 1446 2544 
Q 1709 2650 1920 2650 
Q 2246 2650 2505 2483 
Q 2765 2317 2918 2032 
Q 3072 1747 3072 1389 
Q 3072 954 2893 618 
Q 2714 282 2397 96 
Q 2080 -90 1658 -90 
z
M 1805 109 
Q 2048 109 2224 259 
Q 2400 410 2496 669 
Q 2592 928 2592 1248 
Q 2592 1498 2499 1760 
Q 2406 2022 2211 2201 
Q 2016 2381 1709 2381 
Q 1453 2381 1261 2297 
Q 1069 2214 928 2086 
L 928 845 
Q 928 621 1053 454 
Q 1178 288 1379 198 
Q 1581 109 1805 109 
z
" transform="scale(0.015625)"/>
       </defs>
       <use xlink:href="#EBGaramond-Regular-66"/>
       <use xlink:href="#EBGaramond-Regular-6c" x="31.799988"/>
       <use xlink:href="#EBGaramond-Regular-65" x="55.799973"/>
       <use xlink:href="#EBGaramond-Regular-78" x="94.799957"/>
       <use xlink:href="#EBGaramond-Regular-69" x="137.799942"/>
       <use xlink:href="#EBGaramond-Regular-62" x="162.299927"/>
       <use xlink:href="#EBGaramond-Regular-6c" x="213.799911"/>
       <use xlink:href="#EBGaramond-Regular-65" x="237.799896"/>
      </g>
      <!-- (no PH, no shape) -->
      <g style="fill: #5f776c" transform="translate(443.10057 284.367312) scale(0.11 -0.11)">
       <defs>
        <path id="EBGaramond-Regular-6e" d="M 282 -19 
Q 224 -19 189 -3 
Q 154 13 154 51 
Q 154 102 192 118 
Q 230 134 301 154 
Q 397 179 486 224 
Q 576 269 576 397 
L 576 1773 
Q 576 1946 541 2067 
Q 506 2189 339 2234 
Q 314 2246 294 2262 
Q 275 2278 275 2317 
Q 275 2387 333 2394 
Q 557 2451 697 2534 
Q 838 2618 973 2720 
Q 992 2733 1008 2742 
Q 1024 2752 1043 2752 
Q 1056 2752 1065 2739 
Q 1075 2726 1075 2707 
Q 1075 2662 1059 2524 
Q 1043 2387 1043 2298 
Q 1043 2272 1046 2249 
Q 1050 2227 1056 2221 
Q 1280 2432 1533 2541 
Q 1786 2650 2086 2650 
Q 2400 2650 2605 2394 
Q 2810 2138 2810 1760 
L 2810 397 
Q 2810 269 2899 227 
Q 2989 186 3085 154 
Q 3136 134 3184 112 
Q 3232 90 3232 38 
Q 3232 0 3187 -9 
Q 3142 -19 3104 -19 
Q 2976 -19 2905 -9 
Q 2835 0 2771 6 
Q 2707 13 2592 13 
Q 2483 13 2412 6 
Q 2342 0 2268 -9 
Q 2195 -19 2067 -19 
Q 2035 -19 1987 -9 
Q 1939 0 1939 38 
Q 1939 90 1987 112 
Q 2035 134 2086 154 
Q 2182 186 2272 227 
Q 2362 269 2362 397 
L 2362 1741 
Q 2362 2022 2205 2179 
Q 2048 2336 1786 2342 
Q 1555 2342 1382 2268 
Q 1210 2195 1075 2086 
Q 1050 2061 1037 2019 
Q 1024 1978 1024 1939 
L 1024 397 
Q 1024 269 1113 224 
Q 1203 179 1299 154 
Q 1446 115 1446 51 
Q 1446 13 1414 -3 
Q 1382 -19 1318 -19 
Q 1190 -19 1116 -9 
Q 1043 0 979 6 
Q 915 13 800 13 
Q 691 13 624 6 
Q 557 0 483 -9 
Q 410 -19 282 -19 
z
" transform="scale(0.015625)"/>
        <path id="EBGaramond-Regular-6f" d="M 1498 -90 
Q 1139 -90 851 76 
Q 563 243 393 534 
Q 224 826 224 1197 
Q 224 1466 329 1722 
Q 435 1978 627 2189 
Q 819 2400 1075 2525 
Q 1331 2650 1626 2650 
Q 1997 2650 2294 2470 
Q 2592 2291 2768 2000 
Q 2944 1709 2944 1363 
Q 2944 992 2781 659 
Q 2618 326 2298 118 
Q 1978 -90 1498 -90 
z
M 1632 102 
Q 1850 102 2022 185 
Q 2195 269 2291 454 
Q 2368 602 2393 813 
Q 2419 1024 2419 1210 
Q 2419 1517 2307 1801 
Q 2195 2086 1993 2268 
Q 1792 2451 1517 2451 
Q 1344 2451 1206 2396 
Q 1069 2342 954 2195 
Q 826 2035 787 1804 
Q 749 1574 749 1344 
Q 749 1030 864 745 
Q 979 461 1177 281 
Q 1376 102 1632 102 
z
" transform="scale(0.015625)"/>
        <path id="EBGaramond-Regular-2c" d="M 243 -941 
Q 128 -941 128 -870 
Q 128 -845 150 -822 
Q 173 -800 218 -794 
Q 358 -762 499 -685 
Q 640 -608 736 -464 
Q 832 -320 832 -96 
Q 832 -19 761 80 
Q 691 179 582 186 
Q 442 198 362 275 
Q 282 352 282 454 
Q 282 582 387 665 
Q 493 749 634 749 
Q 864 749 1014 573 
Q 1165 397 1165 128 
Q 1165 -115 1069 -310 
Q 973 -506 825 -646 
Q 678 -787 521 -864 
Q 365 -941 243 -941 
z
" transform="scale(0.015625)"/>
       </defs>
       <use xlink:href="#EBGaramond-Regular-28"/>
       <use xlink:href="#EBGaramond-Regular-6e" x="31.499985"/>
       <use xlink:href="#EBGaramond-Regular-6f" x="84.299973"/>
       <use xlink:href="#EBGaramond-Regular-20" x="133.799957"/>
       <use xlink:href="#EBGaramond-Regular-50" x="153.799942"/>
       <use xlink:href="#EBGaramond-Regular-48" x="208.999939"/>
       <use xlink:href="#EBGaramond-Regular-2c" x="289.999924"/>
       <use xlink:href="#EBGaramond-Regular-20" x="312.999908"/>
       <use xlink:href="#EBGaramond-Regular-6e" x="332.999893"/>
       <use xlink:href="#EBGaramond-Regular-6f" x="385.799881"/>
       <use xlink:href="#EBGaramond-Regular-20" x="435.299866"/>
       <use xlink:href="#EBGaramond-Regular-73" x="455.29985"/>
       <use xlink:href="#EBGaramond-Regular-68" x="487.599838"/>
       <use xlink:href="#EBGaramond-Regular-61" x="539.099823"/>
       <use xlink:href="#EBGaramond-Regular-70" x="578.999817"/>
       <use xlink:href="#EBGaramond-Regular-65" x="630.899811"/>
       <use xlink:href="#EBGaramond-Regular-29" x="669.899796"/>
      </g>
     </g>
    </g>
    <g id="text_3">
     <!-- flexibility  —  assumptions imposed on time  $\rightarrow$ -->
     <g style="fill: #33463f" transform="translate(152.789823 301.854375) scale(0.145 -0.145)">
      <defs>
       <path id="EBGaramond-Regular-74" d="M 1210 -90 
Q 896 -90 720 102 
Q 544 294 544 672 
L 544 2157 
Q 544 2208 505 2230 
Q 467 2253 339 2253 
L 301 2253 
Q 269 2253 246 2294 
Q 224 2336 224 2381 
Q 224 2394 243 2419 
Q 262 2445 269 2451 
Q 397 2541 502 2630 
Q 608 2720 694 2806 
Q 781 2893 838 2963 
Q 870 2995 892 3017 
Q 915 3040 947 3040 
Q 979 3040 1008 3027 
Q 1037 3014 1030 2970 
L 998 2682 
Q 992 2611 1030 2585 
Q 1069 2560 1152 2560 
L 1882 2560 
Q 1907 2560 1926 2518 
Q 1946 2477 1946 2419 
Q 1946 2362 1926 2307 
Q 1907 2253 1882 2253 
L 1248 2253 
Q 1088 2253 1040 2227 
Q 992 2202 992 2074 
L 992 813 
Q 992 557 1101 409 
Q 1210 262 1414 262 
Q 1600 262 1702 291 
Q 1805 320 1888 378 
Q 1901 390 1914 390 
Q 1939 390 1948 361 
Q 1958 333 1958 301 
Q 1958 269 1852 173 
Q 1747 77 1577 -6 
Q 1408 -90 1210 -90 
z
" transform="scale(0.015625)"/>
       <path id="EBGaramond-Regular-79" d="M 410 -1824 
Q 288 -1824 185 -1763 
Q 83 -1702 83 -1562 
Q 83 -1446 137 -1360 
Q 192 -1274 294 -1274 
Q 365 -1274 432 -1293 
Q 499 -1312 550 -1312 
Q 589 -1312 617 -1296 
Q 646 -1280 672 -1242 
Q 742 -1126 835 -953 
Q 928 -781 1027 -563 
Q 1126 -346 1216 -102 
Q 1235 -45 1235 45 
Q 1235 96 1228 144 
Q 1222 192 1210 230 
L 467 2106 
Q 422 2221 348 2307 
Q 275 2394 179 2419 
Q 128 2438 80 2464 
Q 32 2490 32 2534 
Q 32 2573 80 2582 
Q 128 2592 160 2592 
Q 288 2592 349 2585 
Q 410 2579 464 2569 
Q 518 2560 627 2560 
Q 742 2560 800 2569 
Q 858 2579 922 2585 
Q 986 2592 1114 2592 
Q 1152 2592 1197 2576 
Q 1242 2560 1242 2522 
Q 1242 2477 1174 2435 
Q 1107 2394 1056 2381 
Q 992 2362 960 2314 
Q 928 2266 928 2176 
Q 928 2138 947 2083 
Q 966 2029 979 1997 
L 1498 717 
Q 1510 678 1536 678 
Q 1555 678 1568 717 
L 2010 1888 
Q 2029 1933 2045 2006 
Q 2061 2080 2061 2125 
Q 2061 2246 2025 2294 
Q 1990 2342 1933 2368 
Q 1882 2394 1814 2435 
Q 1747 2477 1747 2522 
Q 1747 2560 1795 2576 
Q 1843 2592 1875 2592 
Q 1965 2592 2057 2576 
Q 2150 2560 2330 2560 
Q 2451 2560 2505 2569 
Q 2560 2579 2598 2585 
Q 2637 2592 2707 2592 
Q 2739 2592 2787 2582 
Q 2835 2573 2835 2534 
Q 2835 2490 2787 2464 
Q 2739 2438 2688 2419 
Q 2592 2394 2483 2269 
Q 2374 2144 2310 1990 
L 1440 -83 
Q 1434 -102 1373 -249 
Q 1312 -397 1222 -614 
Q 1133 -832 1027 -1081 
Q 922 -1331 826 -1562 
Q 768 -1690 659 -1757 
Q 550 -1824 410 -1824 
z
" transform="scale(0.015625)"/>
       <path id="DejaVuSansDisplay-2014" d="M 313 1978 
L 6088 1978 
L 6088 1528 
L 313 1528 
L 313 1978 
z
" transform="scale(0.015625)"/>
       <path id="EBGaramond-Regular-75" d="M 2342 -122 
Q 2298 -122 2298 -70 
Q 2298 -6 2314 118 
Q 2330 243 2330 326 
Q 2330 339 2330 348 
Q 2330 358 2330 365 
Q 2080 122 1827 16 
Q 1574 -90 1274 -90 
Q 1069 -90 902 -3 
Q 736 83 640 252 
Q 544 422 544 672 
L 544 1971 
Q 544 2112 480 2195 
Q 416 2278 269 2336 
Q 237 2349 211 2368 
Q 186 2387 186 2438 
Q 186 2496 214 2515 
Q 243 2534 282 2541 
Q 499 2554 617 2576 
Q 736 2598 915 2643 
Q 934 2650 944 2650 
Q 954 2650 966 2650 
Q 1037 2650 1030 2560 
Q 1011 2413 1001 2313 
Q 992 2214 992 2067 
L 992 819 
Q 992 666 1069 534 
Q 1146 403 1270 320 
Q 1395 237 1530 237 
Q 1696 237 1821 256 
Q 1946 275 2067 365 
Q 2138 416 2246 531 
Q 2355 646 2355 845 
L 2355 2016 
Q 2355 2150 2275 2217 
Q 2195 2285 2092 2310 
Q 1990 2336 1926 2336 
Q 1869 2336 1830 2358 
Q 1792 2381 1792 2445 
Q 1792 2502 1833 2521 
Q 1875 2541 1926 2541 
Q 2125 2547 2256 2556 
Q 2387 2566 2492 2588 
Q 2598 2611 2714 2643 
Q 2726 2650 2745 2653 
Q 2765 2656 2778 2656 
Q 2861 2656 2861 2586 
Q 2861 2579 2857 2563 
Q 2854 2547 2848 2528 
Q 2842 2509 2832 2419 
Q 2822 2330 2812 2234 
Q 2803 2138 2803 2086 
L 2803 608 
Q 2803 435 2838 361 
Q 2874 288 2918 288 
Q 2970 288 3069 297 
Q 3168 307 3213 307 
Q 3245 307 3277 294 
Q 3309 282 3309 224 
Q 3309 173 3283 157 
Q 3258 141 3219 134 
Q 2970 102 2790 38 
Q 2611 -26 2470 -83 
Q 2451 -90 2412 -106 
Q 2374 -122 2342 -122 
z
" transform="scale(0.015625)"/>
       <path id="EBGaramond-Regular-6d" d="M 282 -19 
Q 230 -19 192 -6 
Q 154 6 154 51 
Q 154 96 195 115 
Q 237 134 301 154 
Q 390 186 483 227 
Q 576 269 576 397 
L 576 1773 
Q 576 1946 537 2077 
Q 499 2208 333 2234 
Q 307 2240 291 2259 
Q 275 2278 275 2317 
Q 275 2381 326 2394 
Q 499 2438 601 2486 
Q 704 2534 784 2595 
Q 864 2656 979 2726 
Q 992 2733 1005 2742 
Q 1018 2752 1037 2752 
Q 1075 2752 1075 2707 
Q 1075 2662 1059 2524 
Q 1043 2387 1043 2298 
Q 1043 2234 1056 2221 
L 1069 2221 
Q 1216 2362 1456 2506 
Q 1696 2650 2067 2650 
Q 2298 2650 2451 2550 
Q 2605 2451 2707 2208 
L 2726 2208 
Q 2931 2394 3193 2522 
Q 3456 2650 3770 2650 
Q 3981 2650 4121 2522 
Q 4262 2394 4336 2189 
Q 4410 1984 4410 1760 
L 4410 397 
Q 4410 269 4499 227 
Q 4589 186 4685 154 
Q 4749 134 4790 115 
Q 4832 96 4832 51 
Q 4832 13 4803 -3 
Q 4774 -19 4704 -19 
Q 4576 -19 4505 -9 
Q 4435 0 4374 6 
Q 4314 13 4198 13 
Q 4090 13 4019 6 
Q 3949 0 3872 -9 
Q 3795 -19 3667 -19 
Q 3610 -19 3574 -3 
Q 3539 13 3539 51 
Q 3539 102 3580 121 
Q 3622 141 3686 154 
Q 3789 179 3875 224 
Q 3962 269 3962 397 
L 3962 1741 
Q 3962 1894 3891 2032 
Q 3821 2170 3705 2259 
Q 3590 2349 3450 2349 
Q 3290 2349 3152 2310 
Q 3014 2272 2893 2176 
Q 2714 2035 2714 1715 
L 2714 397 
Q 2714 269 2810 224 
Q 2906 179 3002 154 
Q 3066 141 3107 118 
Q 3149 96 3149 51 
Q 3149 13 3117 -3 
Q 3085 -19 3021 -19 
Q 2893 -19 2819 -9 
Q 2746 0 2678 6 
Q 2611 13 2496 13 
Q 2387 13 2316 6 
Q 2246 0 2169 -9 
Q 2093 -19 1965 -19 
Q 1914 -19 1875 -3 
Q 1837 13 1837 51 
Q 1837 102 1885 118 
Q 1933 134 1984 154 
Q 2080 186 2173 227 
Q 2266 269 2266 397 
L 2266 1741 
Q 2266 1894 2195 2032 
Q 2125 2170 2009 2259 
Q 1894 2349 1754 2349 
Q 1594 2349 1456 2310 
Q 1318 2272 1197 2176 
Q 1024 2048 1024 1715 
L 1024 397 
Q 1024 269 1113 227 
Q 1203 186 1299 154 
Q 1350 134 1398 118 
Q 1446 102 1446 51 
Q 1446 13 1411 -3 
Q 1376 -19 1318 -19 
Q 1190 -19 1116 -9 
Q 1043 0 979 6 
Q 915 13 800 13 
Q 691 13 624 6 
Q 557 0 483 -9 
Q 410 -19 282 -19 
z
" transform="scale(0.015625)"/>
       <path id="DejaVuSans-2192" d="M 5050 2147 
L 5050 1866 
L 3822 638 
L 3447 1013 
L 4175 1741 
L 366 1741 
L 366 2272 
L 4175 2272 
L 3447 3000 
L 3822 3375 
L 5050 2147 
z
" transform="scale(0.015625)"/>
      </defs>
      <use xlink:href="#EBGaramond-Regular-66" transform="translate(0 0.40625)"/>
      <use xlink:href="#EBGaramond-Regular-6c" transform="translate(31.799988 0.40625)"/>
      <use xlink:href="#EBGaramond-Regular-65" transform="translate(55.799973 0.40625)"/>
      <use xlink:href="#EBGaramond-Regular-78" transform="translate(94.799957 0.40625)"/>
      <use xlink:href="#EBGaramond-Regular-69" transform="translate(137.799942 0.40625)"/>
      <use xlink:href="#EBGaramond-Regular-62" transform="translate(162.299927 0.40625)"/>
      <use xlink:href="#EBGaramond-Regular-69" transform="translate(213.799911 0.40625)"/>
      <use xlink:href="#EBGaramond-Regular-6c" transform="translate(238.299896 0.40625)"/>
      <use xlink:href="#EBGaramond-Regular-69" transform="translate(262.299881 0.40625)"/>
      <use xlink:href="#EBGaramond-Regular-74" transform="translate(286.799866 0.40625)"/>
      <use xlink:href="#EBGaramond-Regular-79" transform="translate(318.19986 0.40625)"/>
      <use xlink:href="#EBGaramond-Regular-20" transform="translate(361.999847 0.40625)"/>
      <use xlink:href="#EBGaramond-Regular-20" transform="translate(381.999832 0.40625)"/>
      <use xlink:href="#DejaVuSansDisplay-2014" transform="translate(401.999817 0.40625)"/>
      <use xlink:href="#EBGaramond-Regular-20" transform="translate(501.999817 0.40625)"/>
      <use xlink:href="#EBGaramond-Regular-20" transform="translate(521.999802 0.40625)"/>
      <use xlink:href="#EBGaramond-Regular-61" transform="translate(541.999786 0.40625)"/>
      <use xlink:href="#EBGaramond-Regular-73" transform="translate(581.89978 0.40625)"/>
      <use xlink:href="#EBGaramond-Regular-73" transform="translate(614.199768 0.40625)"/>
      <use xlink:href="#EBGaramond-Regular-75" transform="translate(646.499756 0.40625)"/>
      <use xlink:href="#EBGaramond-Regular-6d" transform="translate(699.199753 0.40625)"/>
      <use xlink:href="#EBGaramond-Regular-70" transform="translate(776.999741 0.40625)"/>
      <use xlink:href="#EBGaramond-Regular-74" transform="translate(828.899734 0.40625)"/>
      <use xlink:href="#EBGaramond-Regular-69" transform="translate(860.299728 0.40625)"/>
      <use xlink:href="#EBGaramond-Regular-6f" transform="translate(884.799713 0.40625)"/>
      <use xlink:href="#EBGaramond-Regular-6e" transform="translate(934.299698 0.40625)"/>
      <use xlink:href="#EBGaramond-Regular-73" transform="translate(987.099686 0.40625)"/>
      <use xlink:href="#EBGaramond-Regular-20" transform="translate(1019.399673 0.40625)"/>
      <use xlink:href="#EBGaramond-Regular-69" transform="translate(1039.399658 0.40625)"/>
      <use xlink:href="#EBGaramond-Regular-6d" transform="translate(1063.899643 0.40625)"/>
      <use xlink:href="#EBGaramond-Regular-70" transform="translate(1141.699631 0.40625)"/>
      <use xlink:href="#EBGaramond-Regular-6f" transform="translate(1193.599625 0.40625)"/>
      <use xlink:href="#EBGaramond-Regular-73" transform="translate(1243.099609 0.40625)"/>
      <use xlink:href="#EBGaramond-Regular-65" transform="translate(1275.399597 0.40625)"/>
      <use xlink:href="#EBGaramond-Regular-64" transform="translate(1314.399582 0.40625)"/>
      <use xlink:href="#EBGaramond-Regular-20" transform="translate(1364.999573 0.40625)"/>
      <use xlink:href="#EBGaramond-Regular-6f" transform="translate(1384.999557 0.40625)"/>
      <use xlink:href="#EBGaramond-Regular-6e" transform="translate(1434.499542 0.40625)"/>
      <use xlink:href="#EBGaramond-Regular-20" transform="translate(1487.29953 0.40625)"/>
      <use xlink:href="#EBGaramond-Regular-74" transform="translate(1507.299515 0.40625)"/>
      <use xlink:href="#EBGaramond-Regular-69" transform="translate(1538.699509 0.40625)"/>
      <use xlink:href="#EBGaramond-Regular-6d" transform="translate(1563.199493 0.40625)"/>
      <use xlink:href="#EBGaramond-Regular-65" transform="translate(1640.999481 0.40625)"/>
      <use xlink:href="#EBGaramond-Regular-20" transform="translate(1679.999466 0.40625)"/>
      <use xlink:href="#EBGaramond-Regular-20" transform="translate(1699.999451 0.40625)"/>
      <use xlink:href="#DejaVuSans-2192" transform="translate(1739.481857 0.40625)"/>
     </g>
    </g>
   </g>
   <g id="matplotlib.axis_2">
    <g id="ytick_1">
     <g id="line2d_5">
      <path d="M 69.44 241.463651 
L 503.374646 241.463651 
" clip-path="url(#p6f89012660)" style="fill: none; stroke: #f5f1e8; stroke-linecap: square"/>
     </g>
     <g id="line2d_6">
      <defs>
       <path id="ma2f2b8f61b" d="M 0 0 
L -3.5 0 
" style="stroke: #5f776c; stroke-width: 0.8"/>
      </defs>
      <g>
       <use xlink:href="#ma2f2b8f61b" x="69.44" y="241.463651" style="fill: #5f776c; stroke: #5f776c; stroke-width: 0.8"/>
      </g>
     </g>
     <g id="text_4">
      <!-- risk -->
      <g style="fill: #5f776c" transform="translate(47.357969 239.896151) scale(0.11 -0.11)">
       <defs>
        <path id="EBGaramond-Regular-6b" d="M 269 -19 
Q 122 -19 122 51 
Q 122 102 170 118 
Q 218 134 269 154 
Q 365 186 454 237 
Q 544 288 544 416 
L 544 3622 
Q 544 3846 480 3948 
Q 416 4051 256 4090 
Q 198 4102 198 4173 
Q 198 4237 250 4250 
Q 416 4288 537 4329 
Q 659 4371 758 4412 
Q 858 4454 954 4493 
Q 992 4512 1011 4512 
Q 1030 4512 1040 4499 
Q 1050 4486 1050 4454 
Q 1050 4390 1021 4198 
Q 992 4006 992 3597 
L 992 1498 
Q 992 1440 1024 1440 
Q 1062 1440 1123 1472 
Q 1184 1504 1254 1568 
Q 1517 1792 1693 1974 
Q 1869 2157 1933 2227 
Q 1965 2266 1977 2288 
Q 1990 2310 1990 2323 
Q 1990 2355 1936 2380 
Q 1882 2406 1824 2419 
Q 1747 2438 1747 2483 
Q 1747 2515 1785 2537 
Q 1824 2560 1888 2560 
L 2202 2560 
Q 2304 2560 2416 2579 
Q 2528 2598 2627 2617 
Q 2726 2637 2784 2637 
Q 2874 2637 2874 2573 
Q 2874 2534 2829 2505 
Q 2784 2477 2714 2458 
Q 2592 2426 2486 2368 
Q 2381 2310 2291 2259 
Q 2253 2234 2115 2122 
Q 1978 2010 1802 1862 
Q 1626 1715 1472 1581 
Q 1434 1542 1434 1517 
Q 1434 1510 1440 1497 
Q 1446 1485 1453 1472 
Q 1619 1267 1811 1056 
Q 2003 845 2166 685 
Q 2330 525 2394 461 
Q 2502 358 2640 278 
Q 2778 198 2874 166 
Q 2944 141 3005 121 
Q 3066 102 3066 51 
Q 3066 -19 2938 -19 
Q 2688 -19 2377 -9 
Q 2067 0 1741 0 
Q 1626 0 1626 58 
Q 1626 96 1658 121 
Q 1690 147 1734 160 
Q 1805 186 1856 218 
Q 1907 250 1907 307 
Q 1907 326 1894 348 
Q 1882 371 1862 397 
L 1088 1274 
Q 1050 1318 1024 1318 
Q 992 1318 992 1274 
Q 986 1184 986 1078 
Q 986 973 986 864 
Q 986 755 986 640 
Q 986 525 992 416 
Q 992 288 1056 237 
Q 1120 186 1216 154 
Q 1267 134 1315 118 
Q 1363 102 1363 51 
Q 1363 6 1302 -6 
Q 1242 -19 1216 -19 
Q 1094 -19 1036 -9 
Q 979 0 931 6 
Q 883 13 768 13 
Q 659 13 595 6 
Q 531 0 464 -9 
Q 397 -19 269 -19 
z
" transform="scale(0.015625)"/>
       </defs>
       <use xlink:href="#EBGaramond-Regular-72"/>
       <use xlink:href="#EBGaramond-Regular-69" x="33.399994"/>
       <use xlink:href="#EBGaramond-Regular-73" x="57.899979"/>
       <use xlink:href="#EBGaramond-Regular-6b" x="90.199966"/>
      </g>
      <!-- score -->
      <g style="fill: #5f776c" transform="translate(41.000313 252.337151) scale(0.11 -0.11)">
       <defs>
        <path id="EBGaramond-Regular-63" d="M 1363 -96 
Q 1043 -96 784 67 
Q 525 230 374 515 
Q 224 800 224 1152 
Q 224 1568 406 1907 
Q 589 2246 896 2448 
Q 1203 2650 1574 2650 
Q 1990 2650 2304 2426 
Q 2381 2368 2381 2304 
Q 2381 2253 2336 2189 
Q 2291 2125 2227 2083 
Q 2163 2042 2106 2042 
Q 2074 2042 2042 2064 
Q 2010 2086 1971 2112 
Q 1830 2221 1657 2317 
Q 1485 2413 1370 2413 
Q 1056 2413 861 2121 
Q 666 1830 666 1357 
Q 666 1056 797 813 
Q 928 570 1149 429 
Q 1370 288 1638 288 
Q 1824 288 1958 349 
Q 2093 410 2246 563 
Q 2259 576 2278 585 
Q 2298 595 2310 595 
Q 2381 595 2381 506 
Q 2381 467 2358 419 
Q 2336 371 2285 307 
Q 2182 179 2041 86 
Q 1901 -6 1731 -51 
Q 1562 -96 1363 -96 
z
" transform="scale(0.015625)"/>
       </defs>
       <use xlink:href="#EBGaramond-Regular-73"/>
       <use xlink:href="#EBGaramond-Regular-63" x="32.299988"/>
       <use xlink:href="#EBGaramond-Regular-6f" x="72.999985"/>
       <use xlink:href="#EBGaramond-Regular-72" x="122.499969"/>
       <use xlink:href="#EBGaramond-Regular-65" x="155.899963"/>
      </g>
     </g>
    </g>
    <g id="ytick_2">
     <g id="line2d_7">
      <path d="M 69.44 60.82555 
L 503.374646 60.82555 
" clip-path="url(#p6f89012660)" style="fill: none; stroke: #f5f1e8; stroke-linecap: square"/>
     </g>
     <g id="line2d_8">
      <g>
       <use xlink:href="#ma2f2b8f61b" x="69.44" y="60.82555" style="fill: #5f776c; stroke: #5f776c; stroke-width: 0.8"/>
      </g>
     </g>
     <g id="text_5">
      <!-- full $S(t)$ -->
      <g style="fill: #5f776c" transform="translate(25.7 59.25805) scale(0.11 -0.11)">
       <defs>
        <path id="DejaVuSans-Oblique-53" d="M 3859 4513 
L 3738 3897 
Q 3422 4066 3111 4152 
Q 2800 4238 2509 4238 
Q 1944 4238 1609 3991 
Q 1275 3744 1275 3334 
Q 1275 3109 1398 2989 
Q 1522 2869 2034 2731 
L 2413 2638 
Q 3053 2472 3303 2217 
Q 3553 1963 3553 1503 
Q 3553 797 2998 353 
Q 2444 -91 1538 -91 
Q 1166 -91 791 -17 
Q 416 56 38 206 
L 166 856 
Q 513 641 861 531 
Q 1209 422 1556 422 
Q 2147 422 2503 684 
Q 2859 947 2859 1369 
Q 2859 1650 2717 1795 
Q 2575 1941 2106 2059 
L 1728 2156 
Q 1081 2325 845 2545 
Q 609 2766 609 3163 
Q 609 3859 1145 4304 
Q 1681 4750 2541 4750 
Q 2875 4750 3203 4690 
Q 3531 4631 3859 4513 
z
" transform="scale(0.015625)"/>
        <path id="DejaVuSans-28" d="M 1984 4856 
Q 1566 4138 1362 3434 
Q 1159 2731 1159 2009 
Q 1159 1288 1364 580 
Q 1569 -128 1984 -844 
L 1484 -844 
Q 1016 -109 783 600 
Q 550 1309 550 2009 
Q 550 2706 781 3412 
Q 1013 4119 1484 4856 
L 1984 4856 
z
" transform="scale(0.015625)"/>
        <path id="DejaVuSans-Oblique-74" d="M 2706 3500 
L 2619 3053 
L 1472 3053 
L 1100 1153 
Q 1081 1047 1072 975 
Q 1063 903 1063 863 
Q 1063 663 1183 572 
Q 1303 481 1569 481 
L 2150 481 
L 2053 0 
L 1503 0 
Q 991 0 739 200 
Q 488 400 488 806 
Q 488 878 497 964 
Q 506 1050 525 1153 
L 897 3053 
L 409 3053 
L 500 3500 
L 978 3500 
L 1172 4494 
L 1747 4494 
L 1556 3500 
L 2706 3500 
z
" transform="scale(0.015625)"/>
        <path id="DejaVuSans-29" d="M 513 4856 
L 1013 4856 
Q 1481 4119 1714 3412 
Q 1947 2706 1947 2009 
Q 1947 1309 1714 600 
Q 1481 -109 1013 -844 
L 513 -844 
Q 928 -128 1133 580 
Q 1338 1288 1338 2009 
Q 1338 2731 1133 3434 
Q 928 4138 513 4856 
z
" transform="scale(0.015625)"/>
       </defs>
       <use xlink:href="#EBGaramond-Regular-66" transform="translate(0 0.125)"/>
       <use xlink:href="#EBGaramond-Regular-75" transform="translate(31.799988 0.125)"/>
       <use xlink:href="#EBGaramond-Regular-6c" transform="translate(84.499985 0.125)"/>
       <use xlink:href="#EBGaramond-Regular-6c" transform="translate(108.499969 0.125)"/>
       <use xlink:href="#EBGaramond-Regular-20" transform="translate(132.499954 0.125)"/>
       <use xlink:href="#DejaVuSans-Oblique-53" transform="translate(152.499939 0.125)"/>
       <use xlink:href="#DejaVuSans-28" transform="translate(215.976501 0.125)"/>
       <use xlink:href="#DejaVuSans-Oblique-74" transform="translate(254.990173 0.125)"/>
       <use xlink:href="#DejaVuSans-29" transform="translate(294.199158 0.125)"/>
      </g>
      <!-- + CIF -->
      <g style="fill: #5f776c" transform="translate(36.567656 71.69905) scale(0.11 -0.11)">
       <defs>
        <path id="EBGaramond-Regular-2b" d="M 1805 -51 
Q 1779 -51 1753 -22 
Q 1728 6 1728 38 
L 1728 1389 
Q 1728 1421 1702 1421 
L 410 1421 
Q 378 1421 349 1446 
Q 320 1472 320 1498 
Q 320 1530 336 1587 
Q 352 1645 384 1693 
Q 416 1741 474 1741 
L 1683 1741 
Q 1715 1741 1721 1753 
Q 1728 1766 1728 1792 
L 1728 2886 
Q 1728 2957 1792 3001 
Q 1856 3046 1929 3065 
Q 2003 3085 2022 3085 
Q 2054 3085 2083 3059 
Q 2112 3034 2112 3002 
L 2112 1779 
Q 2112 1741 2125 1741 
L 3437 1741 
Q 3469 1741 3494 1725 
Q 3520 1709 3520 1677 
Q 3520 1594 3465 1507 
Q 3411 1421 3322 1421 
L 2138 1421 
Q 2112 1421 2112 1395 
L 2112 102 
Q 2112 38 2048 3 
Q 1984 -32 1910 -41 
Q 1837 -51 1805 -51 
z
" transform="scale(0.015625)"/>
        <path id="EBGaramond-Regular-43" d="M 2605 -96 
Q 2157 -96 1741 57 
Q 1325 211 998 496 
Q 672 781 483 1181 
Q 294 1581 294 2067 
Q 294 2534 492 2931 
Q 691 3328 1036 3622 
Q 1382 3917 1827 4080 
Q 2272 4243 2765 4243 
Q 3014 4243 3187 4224 
Q 3360 4205 3523 4169 
Q 3686 4134 3904 4077 
Q 4000 4051 4041 4000 
Q 4083 3949 4090 3859 
Q 4102 3712 4121 3542 
Q 4141 3373 4147 3123 
Q 4154 3078 4106 3049 
Q 4058 3021 4003 3033 
Q 3949 3046 3930 3117 
Q 3866 3360 3782 3536 
Q 3699 3712 3533 3827 
Q 3373 3936 3145 3990 
Q 2918 4045 2656 4045 
Q 2285 4045 1968 3894 
Q 1651 3744 1424 3485 
Q 1197 3226 1069 2899 
Q 941 2573 941 2221 
Q 941 1830 1065 1452 
Q 1190 1075 1424 771 
Q 1658 467 1981 284 
Q 2304 102 2701 102 
Q 3162 102 3462 313 
Q 3763 525 3974 902 
Q 4019 986 4105 986 
Q 4192 986 4192 883 
Q 4192 832 4166 720 
Q 4141 608 4099 483 
Q 4058 358 4019 262 
Q 3974 173 3945 147 
Q 3917 122 3814 90 
Q 3578 -6 3248 -51 
Q 2918 -96 2605 -96 
z
" transform="scale(0.015625)"/>
        <path id="EBGaramond-Regular-49" d="M 307 -32 
Q 224 -32 173 -16 
Q 122 0 122 38 
Q 122 115 333 154 
Q 576 198 704 300 
Q 832 403 832 627 
L 832 3520 
Q 832 3744 739 3840 
Q 646 3936 403 3981 
Q 192 4019 192 4109 
Q 192 4147 243 4163 
Q 294 4179 378 4179 
Q 550 4179 662 4172 
Q 774 4166 876 4163 
Q 979 4160 1126 4160 
Q 1267 4160 1356 4163 
Q 1446 4166 1548 4172 
Q 1651 4179 1824 4179 
Q 1907 4179 1958 4163 
Q 2010 4147 2010 4109 
Q 2010 4064 1958 4032 
Q 1907 4000 1798 3981 
Q 1562 3936 1453 3840 
Q 1344 3744 1344 3520 
L 1344 627 
Q 1344 403 1478 300 
Q 1613 198 1850 154 
Q 1958 134 2009 108 
Q 2061 83 2061 38 
Q 2061 0 2009 -16 
Q 1958 -32 1875 -32 
Q 1702 -32 1590 -22 
Q 1478 -13 1376 -6 
Q 1274 0 1126 0 
Q 966 0 848 -6 
Q 730 -13 605 -22 
Q 480 -32 307 -32 
z
" transform="scale(0.015625)"/>
        <path id="EBGaramond-Regular-46" d="M 378 -32 
Q 294 -32 243 -16 
Q 192 0 192 38 
Q 192 115 403 154 
Q 646 198 739 300 
Q 832 403 832 640 
L 832 3341 
Q 832 3629 758 3782 
Q 685 3936 442 3981 
Q 333 4000 281 4032 
Q 230 4064 230 4109 
Q 230 4147 281 4163 
Q 333 4179 416 4179 
Q 653 4179 816 4172 
Q 979 4166 1139 4163 
Q 1299 4160 1517 4160 
Q 1702 4160 1913 4160 
Q 2125 4160 2323 4160 
Q 2528 4160 2685 4192 
Q 2842 4224 2957 4224 
Q 2989 4224 3027 4211 
Q 3066 4198 3072 4166 
Q 3085 4096 3091 3958 
Q 3098 3821 3101 3693 
Q 3104 3565 3104 3520 
Q 3104 3386 3046 3386 
Q 3014 3386 2988 3408 
Q 2963 3430 2950 3462 
Q 2925 3571 2886 3651 
Q 2848 3731 2803 3776 
Q 2714 3878 2605 3913 
Q 2496 3949 2374 3949 
L 1562 3949 
Q 1414 3949 1382 3853 
Q 1350 3757 1344 3629 
Q 1338 3507 1338 3331 
Q 1338 3155 1338 2989 
Q 1338 2829 1338 2662 
Q 1338 2496 1344 2381 
Q 1344 2330 1353 2285 
Q 1363 2240 1408 2240 
Q 1613 2240 1824 2249 
Q 2035 2259 2150 2259 
Q 2291 2259 2393 2336 
Q 2496 2413 2541 2522 
Q 2554 2547 2592 2588 
Q 2630 2630 2656 2630 
Q 2682 2630 2714 2601 
Q 2746 2573 2739 2528 
Q 2733 2419 2726 2336 
Q 2720 2253 2720 2176 
Q 2720 2080 2726 1981 
Q 2733 1882 2739 1741 
Q 2739 1696 2729 1664 
Q 2720 1632 2682 1632 
Q 2618 1632 2582 1689 
Q 2547 1747 2534 1779 
Q 2490 1926 2400 1980 
Q 2310 2035 2234 2035 
Q 2150 2035 2070 2038 
Q 1990 2042 1914 2042 
Q 1805 2042 1702 2042 
Q 1600 2042 1498 2029 
Q 1434 2022 1389 1987 
Q 1344 1952 1344 1869 
Q 1344 1574 1347 1270 
Q 1350 966 1363 646 
Q 1376 442 1462 320 
Q 1549 198 1786 154 
Q 1894 134 1945 108 
Q 1997 83 1997 38 
Q 1997 0 1945 -16 
Q 1894 -32 1811 -32 
Q 1638 -32 1545 -19 
Q 1453 -6 1379 3 
Q 1306 13 1184 13 
Q 1030 13 912 3 
Q 794 -6 672 -19 
Q 550 -32 378 -32 
z
" transform="scale(0.015625)"/>
       </defs>
       <use xlink:href="#EBGaramond-Regular-2b"/>
       <use xlink:href="#EBGaramond-Regular-20" x="58.999985"/>
       <use xlink:href="#EBGaramond-Regular-43" x="78.999969"/>
       <use xlink:href="#EBGaramond-Regular-49" x="149.999954"/>
       <use xlink:href="#EBGaramond-Regular-46" x="183.999939"/>
      </g>
     </g>
    </g>
    <g id="text_6">
     <!-- output: ranking  $\rightarrow$  absolute probability -->
     <g style="fill: #33463f" transform="translate(17.495 255.732312) rotate(-90) scale(0.145 -0.145)">
      <defs>
       <path id="EBGaramond-Regular-3a" d="M 800 1702 
Q 659 1702 553 1808 
Q 448 1914 448 2054 
Q 448 2202 553 2304 
Q 659 2406 800 2406 
Q 947 2406 1049 2304 
Q 1152 2202 1152 2054 
Q 1152 1914 1049 1808 
Q 947 1702 800 1702 
z
M 800 -90 
Q 659 -90 553 16 
Q 448 122 448 262 
Q 448 410 553 512 
Q 659 614 800 614 
Q 947 614 1049 512 
Q 1152 410 1152 262 
Q 1152 122 1049 16 
Q 947 -90 800 -90 
z
" transform="scale(0.015625)"/>
      </defs>
      <use xlink:href="#EBGaramond-Regular-6f" transform="translate(0 0.5)"/>
      <use xlink:href="#EBGaramond-Regular-75" transform="translate(49.499985 0.5)"/>
      <use xlink:href="#EBGaramond-Regular-74" transform="translate(102.199982 0.5)"/>
      <use xlink:href="#EBGaramond-Regular-70" transform="translate(133.599976 0.5)"/>
      <use xlink:href="#EBGaramond-Regular-75" transform="translate(185.499969 0.5)"/>
      <use xlink:href="#EBGaramond-Regular-74" transform="translate(238.199966 0.5)"/>
      <use xlink:href="#EBGaramond-Regular-3a" transform="translate(269.59996 0.5)"/>
      <use xlink:href="#EBGaramond-Regular-20" transform="translate(294.399948 0.5)"/>
      <use xlink:href="#EBGaramond-Regular-72" transform="translate(314.399933 0.5)"/>
      <use xlink:href="#EBGaramond-Regular-61" transform="translate(347.799927 0.5)"/>
      <use xlink:href="#EBGaramond-Regular-6e" transform="translate(387.699921 0.5)"/>
      <use xlink:href="#EBGaramond-Regular-6b" transform="translate(440.499908 0.5)"/>
      <use xlink:href="#EBGaramond-Regular-69" transform="translate(487.399902 0.5)"/>
      <use xlink:href="#EBGaramond-Regular-6e" transform="translate(511.899887 0.5)"/>
      <use xlink:href="#EBGaramond-Regular-67" transform="translate(564.699875 0.5)"/>
      <use xlink:href="#EBGaramond-Regular-20" transform="translate(608.19986 0.5)"/>
      <use xlink:href="#EBGaramond-Regular-20" transform="translate(628.199844 0.5)"/>
      <use xlink:href="#DejaVuSans-2192" transform="translate(667.682251 0.5)"/>
      <use xlink:href="#EBGaramond-Regular-20" transform="translate(770.953735 0.5)"/>
      <use xlink:href="#EBGaramond-Regular-20" transform="translate(790.95372 0.5)"/>
      <use xlink:href="#EBGaramond-Regular-61" transform="translate(810.953705 0.5)"/>
      <use xlink:href="#EBGaramond-Regular-62" transform="translate(850.853699 0.5)"/>
      <use xlink:href="#EBGaramond-Regular-73" transform="translate(902.353683 0.5)"/>
      <use xlink:href="#EBGaramond-Regular-6f" transform="translate(934.653671 0.5)"/>
      <use xlink:href="#EBGaramond-Regular-6c" transform="translate(984.153656 0.5)"/>
      <use xlink:href="#EBGaramond-Regular-75" transform="translate(1008.153641 0.5)"/>
      <use xlink:href="#EBGaramond-Regular-74" transform="translate(1060.853638 0.5)"/>
      <use xlink:href="#EBGaramond-Regular-65" transform="translate(1092.253632 0.5)"/>
      <use xlink:href="#EBGaramond-Regular-20" transform="translate(1131.253616 0.5)"/>
      <use xlink:href="#EBGaramond-Regular-70" transform="translate(1151.253601 0.5)"/>
      <use xlink:href="#EBGaramond-Regular-72" transform="translate(1203.153595 0.5)"/>
      <use xlink:href="#EBGaramond-Regular-6f" transform="translate(1236.553589 0.5)"/>
      <use xlink:href="#EBGaramond-Regular-62" transform="translate(1286.053574 0.5)"/>
      <use xlink:href="#EBGaramond-Regular-61" transform="translate(1337.553558 0.5)"/>
      <use xlink:href="#EBGaramond-Regular-62" transform="translate(1377.453552 0.5)"/>
      <use xlink:href="#EBGaramond-Regular-69" transform="translate(1428.953537 0.5)"/>
      <use xlink:href="#EBGaramond-Regular-6c" transform="translate(1453.453522 0.5)"/>
      <use xlink:href="#EBGaramond-Regular-69" transform="translate(1477.453506 0.5)"/>
      <use xlink:href="#EBGaramond-Regular-74" transform="translate(1501.953491 0.5)"/>
      <use xlink:href="#EBGaramond-Regular-79" transform="translate(1533.353485 0.5)"/>
     </g>
    </g>
   </g>
   <g id="patch_3">
    <path d="M 69.44 257.171312 
L 69.44 25.483312 
" style="fill: none; stroke: #5f776c; stroke-width: 0.8; stroke-linejoin: miter; stroke-linecap: square"/>
   </g>
   <g id="patch_4">
    <path d="M 69.44 257.171312 
L 503.374646 257.171312 
" style="fill: none; stroke: #5f776c; stroke-width: 0.8; stroke-linejoin: miter; stroke-linecap: square"/>
   </g>
   <g id="PathCollection_1">
    <defs>
     <path id="m36e252448b" d="M 0 8.062258 
C 2.138136 8.062258 4.188987 7.212767 5.700877 5.700877 
C 7.212767 4.188987 8.062258 2.138136 8.062258 0 
C 8.062258 -2.138136 7.212767 -4.188987 5.700877 -5.700877 
C 4.188987 -7.212767 2.138136 -8.062258 0 -8.062258 
C -2.138136 -8.062258 -4.188987 -7.212767 -5.700877 -5.700877 
C -7.212767 -4.188987 -8.062258 -2.138136 -8.062258 0 
C -8.062258 2.138136 -7.212767 4.188987 -5.700877 5.700877 
C -4.188987 7.212767 -2.138136 8.062258 0 8.062258 
z
" style="stroke: #fbf7ef; stroke-opacity: 0.9; stroke-width: 1.5"/>
    </defs>
    <g clip-path="url(#p6f89012660)">
     <use xlink:href="#m36e252448b" x="164.905622" y="233.609821" style="fill: #2f8a5f; fill-opacity: 0.9; stroke: #fbf7ef; stroke-opacity: 0.9; stroke-width: 1.5"/>
    </g>
   </g>
   <g id="PathCollection_2">
    <defs>
     <path id="m327ed0294e" d="M 0 8.062258 
C 2.138136 8.062258 4.188987 7.212767 5.700877 5.700877 
C 7.212767 4.188987 8.062258 2.138136 8.062258 0 
C 8.062258 -2.138136 7.212767 -4.188987 5.700877 -5.700877 
C 4.188987 -7.212767 2.138136 -8.062258 0 -8.062258 
C -2.138136 -8.062258 -4.188987 -7.212767 -5.700877 -5.700877 
C -7.212767 -4.188987 -8.062258 -2.138136 -8.062258 0 
C -8.062258 2.138136 -7.212767 4.188987 -5.700877 5.700877 
C -4.188987 7.212767 -2.138136 8.062258 0 8.062258 
z
" style="stroke: #fbf7ef; stroke-opacity: 0.9; stroke-width: 1.5"/>
    </defs>
    <g clip-path="url(#p6f89012660)">
     <use xlink:href="#m327ed0294e" x="243.013858" y="84.387041" style="fill: #a9781c; fill-opacity: 0.9; stroke: #fbf7ef; stroke-opacity: 0.9; stroke-width: 1.5"/>
    </g>
   </g>
   <g id="PathCollection_3">
    <defs>
     <path id="mb3c410e04f" d="M 0 8.062258 
C 2.138136 8.062258 4.188987 7.212767 5.700877 5.700877 
C 7.212767 4.188987 8.062258 2.138136 8.062258 0 
C 8.062258 -2.138136 7.212767 -4.188987 5.700877 -5.700877 
C 4.188987 -7.212767 2.138136 -8.062258 0 -8.062258 
C -2.138136 -8.062258 -4.188987 -7.212767 -5.700877 -5.700877 
C -7.212767 -4.188987 -8.062258 -2.138136 -8.062258 0 
C -8.062258 2.138136 -7.212767 4.188987 -5.700877 5.700877 
C -4.188987 7.212767 -2.138136 8.062258 0 8.062258 
z
" style="stroke: #fbf7ef; stroke-opacity: 0.9; stroke-width: 1.5"/>
    </defs>
    <g clip-path="url(#p6f89012660)">
     <use xlink:href="#mb3c410e04f" x="338.47948" y="127.583109" style="fill: #3a6ea5; fill-opacity: 0.9; stroke: #fbf7ef; stroke-opacity: 0.9; stroke-width: 1.5"/>
    </g>
   </g>
   <g id="PathCollection_4">
    <defs>
     <path id="mf37d2b4465" d="M 0 8.062258 
C 2.138136 8.062258 4.188987 7.212767 5.700877 5.700877 
C 7.212767 4.188987 8.062258 2.138136 8.062258 0 
C 8.062258 -2.138136 7.212767 -4.188987 5.700877 -5.700877 
C 4.188987 -7.212767 2.138136 -8.062258 0 -8.062258 
C -2.138136 -8.062258 -4.188987 -7.212767 -5.700877 -5.700877 
C -7.212767 -4.188987 -8.062258 -2.138136 -8.062258 0 
C -8.062258 2.138136 -7.212767 4.188987 -5.700877 5.700877 
C -4.188987 7.212767 -2.138136 8.062258 0 8.062258 
z
" style="stroke: #fbf7ef; stroke-opacity: 0.9; stroke-width: 1.5"/>
    </defs>
    <g clip-path="url(#p6f89012660)">
     <use xlink:href="#mf37d2b4465" x="442.623795" y="104.021618" style="fill: #b23a24; fill-opacity: 0.9; stroke: #fbf7ef; stroke-opacity: 0.9; stroke-width: 1.5"/>
    </g>
   </g>
   <g id="PathCollection_5">
    <defs>
     <path id="meea3ddb1ed" d="M 0 8.062258 
C 2.138136 8.062258 4.188987 7.212767 5.700877 5.700877 
C 7.212767 4.188987 8.062258 2.138136 8.062258 0 
C 8.062258 -2.138136 7.212767 -4.188987 5.700877 -5.700877 
C 4.188987 -7.212767 2.138136 -8.062258 0 -8.062258 
C -2.138136 -8.062258 -4.188987 -7.212767 -5.700877 -5.700877 
C -7.212767 -4.188987 -8.062258 -2.138136 -8.062258 0 
C -8.062258 2.138136 -7.212767 4.188987 -5.700877 5.700877 
C -4.188987 7.212767 -2.138136 8.062258 0 8.062258 
z
" style="stroke: #fbf7ef; stroke-opacity: 0.9; stroke-width: 1.5"/>
    </defs>
    <g clip-path="url(#p6f89012660)">
     <use xlink:href="#meea3ddb1ed" x="390.551638" y="70.642838" style="fill: #1c6b43; fill-opacity: 0.9; stroke: #fbf7ef; stroke-opacity: 0.9; stroke-width: 1.5"/>
    </g>
   </g>
   <g id="text_7">
    <!-- Where each loss family sits -->
    <g style="fill: #0e1f1b" transform="translate(198.885323 19.483312) scale(0.174 -0.174)">
     <defs>
      <path id="EBGaramond-Regular-57" d="M 2144 -102 
Q 2131 -102 2105 -44 
Q 2080 13 2054 77 
L 672 3546 
Q 595 3712 486 3817 
Q 378 3923 211 3968 
Q 109 4000 54 4032 
Q 0 4064 0 4109 
Q 0 4147 51 4163 
Q 102 4179 186 4179 
Q 333 4179 464 4169 
Q 595 4160 755 4160 
Q 934 4160 1094 4166 
Q 1254 4173 1350 4173 
Q 1434 4173 1485 4157 
Q 1536 4141 1536 4102 
Q 1536 4058 1485 4032 
Q 1434 4006 1325 3974 
Q 1248 3955 1222 3894 
Q 1197 3834 1197 3763 
Q 1197 3661 1222 3574 
Q 1248 3488 1248 3488 
Q 1395 3117 1516 2809 
Q 1638 2502 1756 2217 
Q 1875 1933 2006 1635 
Q 2138 1338 2298 973 
Q 2330 902 2352 908 
Q 2374 915 2394 966 
L 2893 2202 
Q 2912 2253 2921 2288 
Q 2931 2323 2931 2349 
Q 2931 2387 2918 2428 
Q 2906 2470 2880 2534 
L 2515 3443 
Q 2432 3648 2253 3785 
Q 2074 3923 1907 3968 
Q 1805 4000 1750 4032 
Q 1696 4064 1696 4109 
Q 1696 4147 1747 4163 
Q 1798 4179 1882 4179 
Q 1984 4179 2077 4172 
Q 2170 4166 2269 4163 
Q 2368 4160 2483 4160 
Q 2630 4160 2755 4166 
Q 2880 4173 2976 4173 
Q 3059 4173 3110 4157 
Q 3162 4141 3162 4102 
Q 3162 4051 3098 4019 
Q 3034 3987 2966 3948 
Q 2899 3910 2899 3834 
Q 2899 3821 2902 3808 
Q 2906 3795 2912 3782 
Q 2925 3757 2960 3657 
Q 2995 3558 3043 3436 
Q 3091 3315 3136 3209 
Q 3181 3104 3200 3059 
Q 3232 2982 3254 2979 
Q 3277 2976 3315 3059 
Q 3366 3174 3420 3321 
Q 3475 3469 3516 3600 
Q 3558 3731 3571 3782 
Q 3578 3802 3578 3827 
Q 3578 3904 3520 3942 
Q 3462 3981 3401 4016 
Q 3341 4051 3341 4102 
Q 3341 4141 3392 4157 
Q 3443 4173 3526 4173 
Q 3667 4173 3718 4166 
Q 3770 4160 3859 4160 
Q 3968 4160 4045 4169 
Q 4122 4179 4237 4179 
Q 4320 4179 4371 4163 
Q 4422 4147 4422 4109 
Q 4422 4064 4371 4035 
Q 4320 4006 4211 3981 
Q 4006 3936 3932 3872 
Q 3859 3808 3776 3674 
Q 3744 3616 3683 3481 
Q 3622 3347 3555 3187 
Q 3488 3027 3437 2886 
Q 3418 2842 3402 2758 
Q 3386 2675 3398 2643 
L 4058 947 
Q 4070 915 4089 928 
Q 4109 941 4128 986 
Q 4288 1408 4489 2067 
Q 4691 2726 4909 3462 
Q 4928 3520 4937 3581 
Q 4947 3642 4947 3693 
Q 4947 3789 4905 3865 
Q 4864 3942 4755 3968 
Q 4691 3987 4617 4019 
Q 4544 4051 4544 4096 
Q 4544 4134 4595 4150 
Q 4646 4166 4730 4166 
Q 4858 4166 4963 4163 
Q 5069 4160 5190 4160 
Q 5350 4160 5497 4169 
Q 5645 4179 5766 4179 
Q 5850 4179 5901 4163 
Q 5952 4147 5952 4109 
Q 5952 4064 5901 4035 
Q 5850 4006 5741 3981 
Q 5587 3949 5481 3849 
Q 5376 3750 5315 3632 
Q 5254 3514 5216 3418 
L 4083 70 
Q 4077 45 4045 -16 
Q 4013 -77 3981 -77 
Q 3955 -77 3923 -38 
Q 3891 0 3872 45 
Q 3706 429 3584 733 
Q 3462 1037 3350 1344 
Q 3238 1651 3085 2022 
Q 3066 2067 3053 2057 
Q 3040 2048 3014 1984 
Q 2861 1619 2749 1337 
Q 2637 1056 2528 765 
Q 2419 474 2285 96 
Q 2259 32 2220 -35 
Q 2182 -102 2144 -102 
z
" transform="scale(0.015625)"/>
     </defs>
     <use xlink:href="#EBGaramond-Regular-57"/>
     <use xlink:href="#EBGaramond-Regular-68" x="91.599991"/>
     <use xlink:href="#EBGaramond-Regular-65" x="143.099976"/>
     <use xlink:href="#EBGaramond-Regular-72" x="182.09996"/>
     <use xlink:href="#EBGaramond-Regular-65" x="215.499954"/>
     <use xlink:href="#EBGaramond-Regular-20" x="254.499939"/>
     <use xlink:href="#EBGaramond-Regular-65" x="274.499924"/>
     <use xlink:href="#EBGaramond-Regular-61" x="313.499908"/>
     <use xlink:href="#EBGaramond-Regular-63" x="353.399902"/>
     <use xlink:href="#EBGaramond-Regular-68" x="394.099899"/>
     <use xlink:href="#EBGaramond-Regular-20" x="445.599884"/>
     <use xlink:href="#EBGaramond-Regular-6c" x="465.599869"/>
     <use xlink:href="#EBGaramond-Regular-6f" x="489.599854"/>
     <use xlink:href="#EBGaramond-Regular-73" x="539.099838"/>
     <use xlink:href="#EBGaramond-Regular-73" x="571.399826"/>
     <use xlink:href="#EBGaramond-Regular-20" x="603.699814"/>
     <use xlink:href="#EBGaramond-Regular-66" x="623.699799"/>
     <use xlink:href="#EBGaramond-Regular-61" x="655.499786"/>
     <use xlink:href="#EBGaramond-Regular-6d" x="695.39978"/>
     <use xlink:href="#EBGaramond-Regular-69" x="773.199768"/>
     <use xlink:href="#EBGaramond-Regular-6c" x="797.699753"/>
     <use xlink:href="#EBGaramond-Regular-79" x="821.699738"/>
     <use xlink:href="#EBGaramond-Regular-20" x="865.499725"/>
     <use xlink:href="#EBGaramond-Regular-73" x="885.49971"/>
     <use xlink:href="#EBGaramond-Regular-69" x="917.799698"/>
     <use xlink:href="#EBGaramond-Regular-74" x="942.299683"/>
     <use xlink:href="#EBGaramond-Regular-73" x="973.699677"/>
    </g>
   </g>
   <g id="text_8">
    <!-- Cox PH -->
    <g style="fill: #0e1f1b" transform="translate(146.522692 217.332321) scale(0.115 -0.115)">
     <use xlink:href="#EBGaramond-Regular-43"/>
     <use xlink:href="#EBGaramond-Regular-6f" x="70.999985"/>
     <use xlink:href="#EBGaramond-Regular-78" x="120.499969"/>
     <use xlink:href="#EBGaramond-Regular-20" x="163.499954"/>
     <use xlink:href="#EBGaramond-Regular-50" x="183.499939"/>
     <use xlink:href="#EBGaramond-Regular-48" x="238.699936"/>
    </g>
   </g>
   <g id="text_9">
    <!-- Parametric -->
    <g style="fill: #0e1f1b" transform="translate(219.137882 55.103041) scale(0.115 -0.115)">
     <use xlink:href="#EBGaramond-Regular-50"/>
     <use xlink:href="#EBGaramond-Regular-61" x="55.199997"/>
     <use xlink:href="#EBGaramond-Regular-72" x="95.099991"/>
     <use xlink:href="#EBGaramond-Regular-61" x="128.499985"/>
     <use xlink:href="#EBGaramond-Regular-6d" x="168.399979"/>
     <use xlink:href="#EBGaramond-Regular-65" x="246.199966"/>
     <use xlink:href="#EBGaramond-Regular-74" x="285.199951"/>
     <use xlink:href="#EBGaramond-Regular-72" x="316.599945"/>
     <use xlink:href="#EBGaramond-Regular-69" x="349.999939"/>
     <use xlink:href="#EBGaramond-Regular-63" x="374.499924"/>
    </g>
    <!-- NLL -->
    <g style="fill: #0e1f1b" transform="translate(231.74296 68.109541) scale(0.115 -0.115)">
     <defs>
      <path id="EBGaramond-Regular-4e" d="M 4275 -109 
Q 4218 -109 4048 -13 
Q 3878 83 3725 294 
Q 3699 326 3568 486 
Q 3437 646 3235 886 
Q 3034 1126 2797 1408 
Q 2560 1690 2323 1971 
Q 2086 2253 1881 2493 
Q 1677 2733 1539 2896 
Q 1402 3059 1370 3098 
Q 1325 3155 1293 3177 
Q 1261 3200 1235 3200 
Q 1203 3200 1190 3152 
Q 1178 3104 1178 3066 
Q 1171 2752 1164 2342 
Q 1158 1933 1152 1497 
Q 1146 1062 1146 666 
Q 1146 493 1232 345 
Q 1318 198 1555 154 
Q 1664 134 1715 108 
Q 1766 83 1766 38 
Q 1766 0 1715 -16 
Q 1664 -32 1581 -32 
Q 1408 -32 1321 -22 
Q 1235 -13 1168 -6 
Q 1101 0 979 0 
Q 864 0 800 -6 
Q 736 -13 653 -22 
Q 570 -32 397 -32 
Q 314 -32 262 -16 
Q 211 0 211 38 
Q 211 83 262 108 
Q 314 134 422 160 
Q 608 211 691 348 
Q 774 486 794 685 
Q 819 928 844 1328 
Q 870 1728 889 2224 
Q 909 2720 909 3245 
Q 909 3584 733 3731 
Q 557 3878 275 3968 
Q 250 3981 163 4022 
Q 77 4064 77 4122 
Q 77 4179 134 4195 
Q 192 4211 224 4211 
Q 410 4205 525 4201 
Q 640 4198 729 4192 
Q 819 4186 928 4182 
Q 1037 4179 1210 4179 
Q 1267 4179 1299 4147 
Q 1331 4115 1363 4070 
Q 1389 4032 1533 3856 
Q 1677 3680 1891 3414 
Q 2106 3149 2362 2838 
Q 2618 2528 2874 2217 
Q 3130 1907 3347 1641 
Q 3565 1376 3709 1203 
Q 3853 1030 3878 998 
Q 3904 973 3952 921 
Q 4000 870 4038 870 
Q 4096 870 4102 1005 
Q 4102 1094 4105 1347 
Q 4109 1600 4112 1961 
Q 4115 2323 4115 2745 
Q 4115 3168 4115 3610 
Q 4109 3738 3981 3840 
Q 3853 3942 3744 3962 
Q 3635 3981 3545 4013 
Q 3456 4045 3456 4090 
Q 3456 4128 3545 4144 
Q 3635 4160 3718 4160 
Q 3782 4160 3843 4160 
Q 3904 4160 3965 4160 
Q 4026 4160 4083 4160 
Q 4237 4160 4326 4163 
Q 4416 4166 4521 4172 
Q 4627 4179 4819 4179 
Q 4902 4179 4953 4163 
Q 5005 4147 5005 4109 
Q 5005 4019 4794 3981 
Q 4557 3936 4480 3865 
Q 4403 3795 4390 3635 
Q 4390 3603 4387 3385 
Q 4384 3168 4384 2835 
Q 4384 2502 4381 2118 
Q 4378 1734 4378 1353 
Q 4378 973 4378 672 
Q 4378 518 4387 393 
Q 4397 269 4403 182 
Q 4410 96 4410 51 
Q 4410 -51 4368 -80 
Q 4326 -109 4275 -109 
z
" transform="scale(0.015625)"/>
      <path id="EBGaramond-Regular-4c" d="M 352 -32 
Q 269 -32 221 -9 
Q 173 13 173 45 
Q 173 102 233 124 
Q 294 147 314 154 
Q 563 205 697 304 
Q 832 403 832 614 
L 832 3584 
Q 832 3738 800 3811 
Q 768 3885 685 3920 
Q 602 3955 442 3981 
Q 230 4019 230 4109 
Q 230 4147 281 4163 
Q 333 4179 416 4179 
Q 589 4179 694 4172 
Q 800 4166 896 4163 
Q 992 4160 1133 4160 
Q 1293 4160 1408 4163 
Q 1523 4166 1644 4172 
Q 1766 4179 1939 4179 
Q 2022 4179 2073 4163 
Q 2125 4147 2125 4109 
Q 2125 4064 2073 4032 
Q 2022 4000 1914 3981 
Q 1677 3936 1510 3875 
Q 1344 3814 1344 3629 
L 1344 614 
Q 1344 416 1433 320 
Q 1523 224 1837 224 
L 2630 224 
Q 2803 224 2934 278 
Q 3066 333 3130 390 
Q 3258 499 3318 585 
Q 3379 672 3462 845 
Q 3475 883 3516 960 
Q 3558 1037 3603 1037 
Q 3642 1037 3661 998 
Q 3680 960 3680 922 
Q 3680 915 3677 905 
Q 3674 896 3674 890 
Q 3629 723 3593 588 
Q 3558 454 3536 332 
Q 3514 211 3501 77 
Q 3494 32 3478 0 
Q 3462 -32 3411 -32 
Q 3091 -32 2796 -25 
Q 2502 -19 2230 -16 
Q 1958 -13 1708 -6 
Q 1459 0 1216 0 
Q 1056 0 854 -6 
Q 653 -13 502 -22 
Q 352 -32 352 -32 
z
" transform="scale(0.015625)"/>
     </defs>
     <use xlink:href="#EBGaramond-Regular-4e"/>
     <use xlink:href="#EBGaramond-Regular-4c" x="79.199982"/>
     <use xlink:href="#EBGaramond-Regular-4c" x="137.599976"/>
    </g>
   </g>
   <g id="text_10">
    <!-- Discrete-time -->
    <g style="fill: #0e1f1b" transform="translate(308.819363 98.299109) scale(0.115 -0.115)">
     <defs>
      <path id="EBGaramond-Regular-44" d="M 2374 -45 
Q 2310 -45 2089 -32 
Q 1869 -19 1584 -9 
Q 1299 0 1043 0 
Q 915 0 828 -6 
Q 742 -13 643 -22 
Q 544 -32 371 -32 
Q 288 -32 237 -13 
Q 186 6 186 51 
Q 186 102 237 118 
Q 288 134 397 154 
Q 640 198 733 300 
Q 826 403 826 634 
L 826 3514 
Q 826 3744 733 3840 
Q 640 3936 397 3981 
Q 288 4000 237 4022 
Q 186 4045 186 4096 
Q 186 4141 237 4160 
Q 288 4179 371 4179 
Q 538 4179 637 4176 
Q 736 4173 832 4169 
Q 928 4166 1082 4166 
Q 1184 4166 1341 4172 
Q 1498 4179 1667 4192 
Q 1837 4205 1974 4211 
Q 2112 4218 2176 4218 
Q 2829 4218 3289 4061 
Q 3750 3904 4038 3625 
Q 4326 3347 4464 2979 
Q 4602 2611 4602 2189 
Q 4602 1728 4429 1325 
Q 4256 922 3949 611 
Q 3642 301 3238 128 
Q 2835 -45 2374 -45 
z
M 2298 179 
Q 2797 179 3181 422 
Q 3565 666 3779 1094 
Q 3994 1523 3994 2080 
Q 3994 2541 3840 2902 
Q 3686 3264 3430 3510 
Q 3174 3757 2854 3888 
Q 2534 4019 2208 4019 
Q 1933 4019 1737 4003 
Q 1542 3987 1440 3904 
Q 1338 3821 1338 3629 
L 1338 774 
Q 1338 518 1478 390 
Q 1619 262 1840 220 
Q 2061 179 2298 179 
z
" transform="scale(0.015625)"/>
      <path id="EBGaramond-Regular-2d" d="M 224 1088 
Q 186 1088 186 1126 
Q 186 1235 214 1350 
Q 243 1466 288 1472 
Q 595 1517 902 1558 
Q 1210 1600 1517 1632 
Q 1536 1632 1552 1622 
Q 1568 1613 1568 1594 
Q 1568 1472 1539 1366 
Q 1510 1261 1434 1248 
Q 1146 1203 848 1161 
Q 550 1120 224 1088 
z
" transform="scale(0.015625)"/>
     </defs>
     <use xlink:href="#EBGaramond-Regular-44"/>
     <use xlink:href="#EBGaramond-Regular-69" x="75.399994"/>
     <use xlink:href="#EBGaramond-Regular-73" x="99.899979"/>
     <use xlink:href="#EBGaramond-Regular-63" x="132.199966"/>
     <use xlink:href="#EBGaramond-Regular-72" x="172.899963"/>
     <use xlink:href="#EBGaramond-Regular-65" x="206.299957"/>
     <use xlink:href="#EBGaramond-Regular-74" x="245.299942"/>
     <use xlink:href="#EBGaramond-Regular-65" x="276.699936"/>
     <use xlink:href="#EBGaramond-Regular-2d" x="315.699921"/>
     <use xlink:href="#EBGaramond-Regular-74" x="343.099915"/>
     <use xlink:href="#EBGaramond-Regular-69" x="374.499908"/>
     <use xlink:href="#EBGaramond-Regular-6d" x="398.999893"/>
     <use xlink:href="#EBGaramond-Regular-65" x="476.799881"/>
    </g>
    <!-- NLL -->
    <g style="fill: #0e1f1b" transform="translate(327.208582 111.305609) scale(0.115 -0.115)">
     <use xlink:href="#EBGaramond-Regular-4e"/>
     <use xlink:href="#EBGaramond-Regular-4c" x="79.199982"/>
     <use xlink:href="#EBGaramond-Regular-4c" x="137.599976"/>
    </g>
   </g>
   <g id="text_11">
    <!-- DeepHit -->
    <g style="fill: #0e1f1b" transform="translate(422.946217 87.744118) scale(0.115 -0.115)">
     <use xlink:href="#EBGaramond-Regular-44"/>
     <use xlink:href="#EBGaramond-Regular-65" x="75.399994"/>
     <use xlink:href="#EBGaramond-Regular-65" x="114.399979"/>
     <use xlink:href="#EBGaramond-Regular-70" x="153.399963"/>
     <use xlink:href="#EBGaramond-Regular-48" x="205.299957"/>
     <use xlink:href="#EBGaramond-Regular-69" x="286.299942"/>
     <use xlink:href="#EBGaramond-Regular-74" x="310.799927"/>
    </g>
   </g>
   <g id="text_12">
    <!-- DSM -->
    <g style="fill: #0e1f1b" transform="translate(378.361638 54.365338) scale(0.115 -0.115)">
     <defs>
      <path id="EBGaramond-Regular-53" d="M 1306 -102 
Q 1037 -102 809 -22 
Q 582 58 403 205 
Q 378 230 355 262 
Q 333 294 320 333 
Q 288 461 278 665 
Q 269 870 256 1005 
Q 256 1050 294 1072 
Q 333 1094 384 1094 
Q 416 1094 448 1078 
Q 480 1062 486 1024 
Q 614 531 867 320 
Q 1120 109 1395 109 
Q 1619 109 1792 205 
Q 1965 301 2064 477 
Q 2163 653 2163 890 
Q 2163 1152 2076 1315 
Q 1990 1478 1830 1600 
Q 1670 1722 1440 1862 
Q 1190 2022 947 2185 
Q 704 2349 544 2563 
Q 384 2778 384 3085 
Q 384 3411 531 3673 
Q 678 3936 976 4093 
Q 1274 4250 1722 4250 
Q 1952 4250 2121 4202 
Q 2291 4154 2394 4109 
Q 2445 4090 2480 4045 
Q 2515 4000 2528 3949 
Q 2566 3814 2611 3641 
Q 2656 3469 2656 3315 
Q 2656 3245 2560 3245 
Q 2502 3245 2448 3270 
Q 2394 3296 2381 3334 
Q 2246 3674 2067 3853 
Q 1888 4032 1613 4032 
Q 1421 4032 1254 3961 
Q 1088 3891 982 3731 
Q 877 3571 877 3302 
Q 877 3110 1001 2953 
Q 1126 2797 1331 2656 
Q 1536 2515 1773 2368 
Q 1997 2234 2211 2074 
Q 2426 1914 2563 1693 
Q 2701 1472 2701 1152 
Q 2701 774 2528 489 
Q 2355 205 2041 51 
Q 1728 -102 1306 -102 
z
" transform="scale(0.015625)"/>
      <path id="EBGaramond-Regular-4d" d="M 307 -32 
Q 224 -32 173 -16 
Q 122 0 122 38 
Q 122 83 173 108 
Q 224 134 333 154 
Q 493 186 595 307 
Q 698 429 730 653 
Q 806 1229 864 1750 
Q 922 2272 957 2691 
Q 992 3110 992 3379 
Q 992 3430 992 3488 
Q 992 3546 986 3590 
Q 979 3642 966 3696 
Q 954 3750 890 3802 
Q 774 3898 665 3933 
Q 557 3968 410 3994 
Q 346 4006 307 4041 
Q 269 4077 269 4122 
Q 269 4173 329 4182 
Q 390 4192 486 4192 
Q 550 4192 681 4185 
Q 813 4179 966 4166 
Q 1120 4154 1251 4147 
Q 1382 4141 1446 4141 
Q 1491 4141 1523 4115 
Q 1555 4090 1568 4038 
Q 1600 3923 1632 3795 
Q 1664 3667 1709 3546 
L 2720 979 
Q 2739 934 2790 924 
Q 2842 915 2867 960 
L 4128 3584 
Q 4160 3693 4192 3827 
Q 4224 3962 4243 4064 
Q 4262 4147 4307 4147 
L 4538 4147 
Q 4730 4147 4944 4172 
Q 5158 4198 5267 4198 
Q 5299 4198 5350 4188 
Q 5402 4179 5402 4134 
Q 5402 4090 5366 4064 
Q 5331 4038 5235 4000 
Q 5152 3968 5049 3929 
Q 4947 3891 4858 3853 
Q 4794 3827 4749 3766 
Q 4704 3706 4704 3635 
Q 4704 3187 4720 2793 
Q 4736 2400 4755 2038 
Q 4774 1677 4800 1325 
Q 4826 973 4845 608 
Q 4858 410 4973 304 
Q 5088 198 5325 154 
Q 5434 134 5485 108 
Q 5536 83 5536 38 
Q 5536 0 5485 -16 
Q 5434 -32 5350 -32 
Q 5178 -32 5066 -22 
Q 4954 -13 4851 -6 
Q 4749 0 4602 0 
Q 4474 0 4387 -6 
Q 4301 -13 4201 -22 
Q 4102 -32 3930 -32 
Q 3846 -32 3795 -16 
Q 3744 0 3744 38 
Q 3744 83 3795 112 
Q 3846 141 3955 154 
Q 4141 179 4211 284 
Q 4282 390 4282 614 
Q 4282 1075 4272 1446 
Q 4262 1818 4243 2179 
Q 4224 2541 4205 2970 
Q 4198 3040 4166 3037 
Q 4134 3034 4102 2970 
L 2630 -32 
Q 2618 -64 2573 -67 
Q 2528 -70 2515 -26 
Q 2266 723 1981 1449 
Q 1696 2176 1338 3014 
Q 1325 3046 1293 3046 
Q 1261 3046 1254 3014 
Q 1197 2566 1149 2192 
Q 1101 1818 1075 1453 
Q 1050 1088 1050 653 
Q 1050 480 1158 336 
Q 1267 192 1466 154 
Q 1574 134 1625 108 
Q 1677 83 1677 38 
Q 1677 0 1625 -16 
Q 1574 -32 1491 -32 
Q 1318 -32 1232 -22 
Q 1146 -13 1078 -6 
Q 1011 0 890 0 
Q 774 0 710 -6 
Q 646 -13 563 -22 
Q 480 -32 307 -32 
z
" transform="scale(0.015625)"/>
     </defs>
     <use xlink:href="#EBGaramond-Regular-44"/>
     <use xlink:href="#EBGaramond-Regular-53" x="75.399994"/>
     <use xlink:href="#EBGaramond-Regular-4d" x="121.899979"/>
    </g>
   </g>
  </g>
 </g>
 <defs>
  <clipPath id="p6f89012660">
   <rect x="69.44" y="25.483312" width="433.934646" height="231.688"/>
  </clipPath>
 </defs>
</svg>
