<?xml version="1.0" encoding="utf-8" standalone="no"?>
<!DOCTYPE svg PUBLIC "-//W3C//DTD SVG 1.1//EN"
  "http://www.w3.org/Graphics/SVG/1.1/DTD/svg11.dtd">
<svg xmlns:xlink="http://www.w3.org/1999/xlink" width="487.86125pt" height="285.298312pt" viewBox="0 0 487.86125 285.298312" xmlns="http://www.w3.org/2000/svg" version="1.1">
 <metadata>
  <rdf:RDF xmlns:dc="http://purl.org/dc/elements/1.1/" xmlns:cc="http://creativecommons.org/ns#" xmlns:rdf="http://www.w3.org/1999/02/22-rdf-syntax-ns#">
   <cc:Work>
    <dc:type rdf:resource="http://purl.org/dc/dcmitype/StillImage"/>
    <dc:date>2026-07-16T21:39:24.051045</dc:date>
    <dc:format>image/svg+xml</dc:format>
    <dc:creator>
     <cc:Agent>
      <dc:title>Matplotlib v3.9.4, https://matplotlib.org/</dc:title>
     </cc:Agent>
    </dc:creator>
   </cc:Work>
  </rdf:RDF>
 </metadata>
 <defs>
  <style type="text/css">*{stroke-linejoin: round; stroke-linecap: butt}</style>
 </defs>
 <g id="figure_1">
  <g id="patch_1">
   <path d="M 0 285.298312 
L 487.86125 285.298312 
L 487.86125 0 
L 0 0 
z
" style="fill: #fbf7ef"/>
  </g>
  <g id="axes_1">
   <g id="patch_2">
    <path d="M 49.81 238.388312 
L 473.70125 238.388312 
L 473.70125 25.483313 
L 49.81 25.483313 
z
" style="fill: #fbf7ef"/>
   </g>
   <g id="line2d_1">
    <path d="M 134.58825 55.898313 
L 261.755625 157.281646 
" clip-path="url(#p041670df9e)" style="fill: none; stroke: #2f8a5f; stroke-opacity: 0.8; stroke-width: 2; stroke-linecap: square"/>
   </g>
   <g id="line2d_2">
    <path d="M 134.58825 55.898313 
L 388.923 96.451646 
" clip-path="url(#p041670df9e)" style="fill: none; stroke: #2f8a5f; stroke-opacity: 0.8; stroke-width: 2; stroke-linecap: square"/>
   </g>
   <g id="line2d_3">
    <path d="M 261.755625 157.281646 
L 388.923 96.451646 
" clip-path="url(#p041670df9e)" style="fill: none; stroke: #b23a24; stroke-opacity: 0.8; stroke-width: 2; stroke-linecap: square"/>
   </g>
   <g id="matplotlib.axis_1">
    <g id="xtick_1">
     <g id="line2d_4">
      <defs>
       <path id="m33f64e4af6" d="M 0 0 
L 0 3.5 
" style="stroke: #5f776c; stroke-width: 0.8"/>
      </defs>
      <g>
       <use xlink:href="#m33f64e4af6" x="49.81" y="238.388312" style="fill: #5f776c; stroke: #5f776c; stroke-width: 0.8"/>
      </g>
     </g>
     <g id="text_1">
      <!-- 0 -->
      <g style="fill: #5f776c" transform="translate(46.33 255.610812) scale(0.145 -0.145)">
       <defs>
        <path id="EBGaramond-Regular-30" d="M 1571 -90 
Q 1245 -90 1005 89 
Q 765 269 605 566 
Q 445 864 368 1222 
Q 291 1581 291 1933 
Q 291 2298 368 2669 
Q 445 3040 608 3347 
Q 771 3654 1027 3843 
Q 1283 4032 1635 4032 
Q 1962 4032 2202 3853 
Q 2442 3674 2602 3376 
Q 2762 3078 2838 2723 
Q 2915 2368 2915 2022 
Q 2915 1664 2838 1293 
Q 2762 922 2598 608 
Q 2435 294 2182 102 
Q 1930 -90 1571 -90 
z
M 1680 77 
Q 1936 77 2093 336 
Q 2250 595 2320 1011 
Q 2390 1427 2390 1907 
Q 2390 2266 2336 2611 
Q 2282 2957 2170 3238 
Q 2058 3520 1894 3686 
Q 1731 3853 1514 3853 
Q 1258 3853 1107 3603 
Q 957 3354 889 2941 
Q 822 2528 822 2048 
Q 822 1690 876 1338 
Q 931 986 1036 701 
Q 1142 416 1302 246 
Q 1462 77 1680 77 
z
" transform="scale(0.015625)"/>
       </defs>
       <use xlink:href="#EBGaramond-Regular-30"/>
      </g>
     </g>
    </g>
    <g id="xtick_2">
     <g id="line2d_5">
      <g>
       <use xlink:href="#m33f64e4af6" x="134.58825" y="238.388312" style="fill: #5f776c; stroke: #5f776c; stroke-width: 0.8"/>
      </g>
     </g>
     <g id="text_2">
      <!-- 2 -->
      <g style="fill: #5f776c" transform="translate(131.10825 255.610812) scale(0.145 -0.145)">
       <defs>
        <path id="EBGaramond-Regular-32" d="M 2683 -19 
Q 2638 -19 2542 -12 
Q 2446 -6 2324 0 
Q 2203 6 2072 12 
Q 1941 19 1819 19 
Q 1698 19 1474 12 
Q 1250 6 1003 3 
Q 757 0 571 -6 
Q 386 -13 334 -13 
Q 309 -13 257 28 
Q 206 70 206 96 
Q 206 128 219 141 
Q 232 154 258 179 
L 1352 1312 
Q 1672 1645 1883 2057 
Q 2094 2470 2094 2893 
Q 2094 3232 1889 3427 
Q 1685 3622 1410 3622 
Q 1147 3622 923 3478 
Q 699 3334 565 3104 
Q 546 3066 517 3040 
Q 488 3014 456 3014 
Q 430 3014 395 3068 
Q 360 3123 360 3206 
Q 360 3283 453 3417 
Q 546 3552 712 3693 
Q 878 3834 1108 3933 
Q 1339 4032 1608 4032 
Q 1928 4032 2158 3897 
Q 2389 3763 2510 3526 
Q 2632 3290 2632 2976 
Q 2632 2803 2571 2604 
Q 2510 2406 2404 2214 
Q 2299 2022 2165 1856 
Q 2082 1754 1918 1584 
Q 1755 1414 1566 1222 
Q 1378 1030 1208 860 
Q 1038 691 929 579 
Q 821 467 821 454 
Q 821 422 910 410 
Q 1019 403 1156 396 
Q 1294 390 1474 390 
Q 1659 390 1844 396 
Q 2030 403 2203 410 
Q 2389 422 2491 441 
Q 2594 461 2664 521 
Q 2734 582 2811 710 
Q 2837 749 2878 803 
Q 2920 858 2971 858 
Q 3003 858 3009 832 
Q 3016 806 3016 781 
Q 3016 749 2981 656 
Q 2946 563 2901 428 
Q 2856 294 2824 134 
Q 2805 32 2760 6 
Q 2715 -19 2683 -19 
z
" transform="scale(0.015625)"/>
       </defs>
       <use xlink:href="#EBGaramond-Regular-32"/>
      </g>
     </g>
    </g>
    <g id="xtick_3">
     <g id="line2d_6">
      <g>
       <use xlink:href="#m33f64e4af6" x="219.3665" y="238.388312" style="fill: #5f776c; stroke: #5f776c; stroke-width: 0.8"/>
      </g>
     </g>
     <g id="text_3">
      <!-- 4 -->
      <g style="fill: #5f776c" transform="translate(215.8865 255.610812) scale(0.145 -0.145)">
       <defs>
        <path id="EBGaramond-Regular-34" d="M 1344 -19 
Q 1312 -19 1270 0 
Q 1229 19 1229 64 
Q 1229 96 1267 115 
Q 1306 134 1344 141 
Q 1645 179 1741 268 
Q 1837 358 1837 512 
L 1837 1107 
Q 1837 1139 1792 1152 
Q 1747 1165 1741 1165 
Q 1478 1165 1251 1155 
Q 1024 1146 774 1136 
Q 525 1126 186 1120 
Q 160 1120 141 1142 
Q 122 1165 122 1184 
Q 122 1197 128 1203 
Q 211 1306 249 1347 
Q 288 1389 313 1417 
Q 339 1446 378 1504 
L 2067 3930 
Q 2106 3987 2160 4048 
Q 2214 4109 2259 4109 
L 2394 4109 
Q 2426 4109 2403 4064 
Q 2381 4019 2381 4019 
L 653 1536 
Q 646 1523 640 1500 
Q 634 1478 653 1478 
L 1760 1478 
Q 1786 1478 1811 1494 
Q 1837 1510 1837 1530 
L 1837 2522 
Q 1837 2592 1846 2617 
Q 1856 2643 1894 2662 
Q 1990 2714 2099 2730 
Q 2208 2746 2253 2746 
Q 2323 2746 2336 2643 
Q 2349 2541 2349 2336 
L 2349 1510 
Q 2349 1472 2381 1472 
Q 2451 1466 2515 1466 
Q 2579 1466 2637 1466 
Q 2726 1466 2819 1469 
Q 2912 1472 3014 1478 
Q 3085 1478 3085 1427 
Q 3085 1376 3056 1318 
Q 3027 1261 2995 1222 
Q 2963 1184 2950 1184 
Q 2880 1184 2797 1187 
Q 2714 1190 2637 1190 
Q 2579 1190 2528 1187 
Q 2477 1184 2438 1178 
Q 2413 1171 2384 1158 
Q 2355 1146 2355 1139 
L 2355 538 
Q 2355 352 2441 281 
Q 2528 211 2784 141 
Q 2822 134 2860 108 
Q 2899 83 2899 51 
Q 2899 26 2870 3 
Q 2842 -19 2803 -19 
Q 2624 -19 2518 -9 
Q 2413 0 2323 6 
Q 2234 13 2080 13 
Q 1920 13 1821 6 
Q 1722 0 1619 -9 
Q 1517 -19 1344 -19 
z
" transform="scale(0.015625)"/>
       </defs>
       <use xlink:href="#EBGaramond-Regular-34"/>
      </g>
     </g>
    </g>
    <g id="xtick_4">
     <g id="line2d_7">
      <g>
       <use xlink:href="#m33f64e4af6" x="304.14475" y="238.388312" style="fill: #5f776c; stroke: #5f776c; stroke-width: 0.8"/>
      </g>
     </g>
     <g id="text_4">
      <!-- 6 -->
      <g style="fill: #5f776c" transform="translate(300.66475 255.610812) scale(0.145 -0.145)">
       <defs>
        <path id="EBGaramond-Regular-36" d="M 1614 -102 
Q 1288 -102 987 45 
Q 686 192 494 489 
Q 302 787 302 1235 
Q 302 1594 385 1888 
Q 469 2182 597 2409 
Q 725 2637 856 2800 
Q 987 2963 1077 3053 
Q 1237 3219 1486 3424 
Q 1736 3629 2065 3814 
Q 2395 4000 2786 4102 
Q 2843 4115 2878 4096 
Q 2914 4077 2901 4058 
Q 2875 4000 2820 3971 
Q 2766 3942 2734 3930 
Q 2306 3744 1995 3507 
Q 1685 3270 1442 2918 
Q 1339 2765 1198 2499 
Q 1058 2234 955 1907 
Q 853 1581 853 1248 
Q 859 896 1000 649 
Q 1141 403 1349 275 
Q 1557 147 1768 141 
Q 2030 134 2228 323 
Q 2427 512 2427 909 
Q 2427 1107 2353 1276 
Q 2280 1446 2149 1555 
Q 2018 1664 1845 1664 
Q 1678 1664 1560 1645 
Q 1442 1626 1333 1568 
Q 1275 1542 1265 1571 
Q 1256 1600 1288 1638 
Q 1339 1690 1374 1722 
Q 1410 1754 1461 1792 
Q 1531 1843 1720 1923 
Q 1909 2003 2088 2003 
Q 2312 2003 2501 1900 
Q 2690 1798 2808 1622 
Q 2926 1446 2926 1216 
Q 2926 915 2811 672 
Q 2696 429 2504 256 
Q 2312 83 2078 -9 
Q 1845 -102 1614 -102 
z
" transform="scale(0.015625)"/>
       </defs>
       <use xlink:href="#EBGaramond-Regular-36"/>
      </g>
     </g>
    </g>
    <g id="xtick_5">
     <g id="line2d_8">
      <g>
       <use xlink:href="#m33f64e4af6" x="388.923" y="238.388312" style="fill: #5f776c; stroke: #5f776c; stroke-width: 0.8"/>
      </g>
     </g>
     <g id="text_5">
      <!-- 8 -->
      <g style="fill: #5f776c" transform="translate(385.443 255.610812) scale(0.145 -0.145)">
       <defs>
        <path id="EBGaramond-Regular-38" d="M 1549 -90 
Q 1254 -90 995 35 
Q 736 160 576 384 
Q 416 608 416 902 
Q 416 1184 563 1382 
Q 710 1581 912 1712 
Q 1114 1843 1274 1933 
Q 1318 1958 1305 1971 
Q 1293 1984 1254 2016 
Q 1062 2182 892 2332 
Q 723 2483 617 2672 
Q 512 2861 512 3130 
Q 512 3379 685 3584 
Q 858 3789 1126 3910 
Q 1395 4032 1677 4032 
Q 1933 4032 2166 3926 
Q 2400 3821 2547 3629 
Q 2694 3437 2694 3174 
Q 2694 2944 2579 2800 
Q 2464 2656 2355 2560 
Q 2266 2483 2195 2428 
Q 2125 2374 2016 2291 
Q 1933 2234 1933 2211 
Q 1933 2189 1984 2157 
Q 2227 1990 2412 1830 
Q 2598 1670 2704 1484 
Q 2810 1299 2810 1050 
Q 2810 717 2624 461 
Q 2438 205 2150 57 
Q 1862 -90 1549 -90 
z
M 1638 96 
Q 1920 96 2109 304 
Q 2298 512 2298 794 
Q 2298 992 2186 1171 
Q 2074 1350 1901 1507 
Q 1728 1664 1542 1792 
Q 1504 1824 1475 1840 
Q 1446 1856 1414 1856 
Q 1389 1856 1338 1818 
Q 1133 1651 1030 1481 
Q 928 1312 928 1005 
Q 928 781 1011 573 
Q 1094 365 1254 230 
Q 1414 96 1638 96 
z
M 1843 2291 
Q 2067 2477 2134 2701 
Q 2202 2925 2202 3219 
Q 2202 3488 2064 3683 
Q 1926 3878 1645 3878 
Q 1498 3878 1350 3795 
Q 1203 3712 1104 3571 
Q 1005 3430 1005 3258 
Q 1005 3014 1097 2873 
Q 1190 2733 1360 2614 
Q 1530 2496 1754 2310 
Q 1773 2298 1798 2288 
Q 1824 2278 1843 2291 
z
" transform="scale(0.015625)"/>
       </defs>
       <use xlink:href="#EBGaramond-Regular-38"/>
      </g>
     </g>
    </g>
    <g id="xtick_6">
     <g id="line2d_9">
      <g>
       <use xlink:href="#m33f64e4af6" x="473.70125" y="238.388312" style="fill: #5f776c; stroke: #5f776c; stroke-width: 0.8"/>
      </g>
     </g>
     <g id="text_6">
      <!-- 10 -->
      <g style="fill: #5f776c" transform="translate(466.74125 255.610812) scale(0.145 -0.145)">
       <defs>
        <path id="EBGaramond-Regular-31" d="M 685 -19 
Q 640 -19 614 6 
Q 589 32 589 58 
Q 589 115 685 141 
Q 928 205 1085 259 
Q 1242 314 1315 413 
Q 1389 512 1389 698 
L 1389 3142 
Q 1389 3264 1312 3328 
Q 1235 3392 1113 3417 
Q 992 3443 851 3450 
Q 787 3456 736 3481 
Q 685 3507 685 3558 
Q 685 3603 733 3635 
Q 781 3667 845 3674 
Q 1133 3718 1360 3785 
Q 1587 3853 1805 4070 
Q 1811 4077 1820 4077 
Q 1830 4077 1837 4077 
Q 1869 4077 1894 4061 
Q 1920 4045 1914 4019 
Q 1901 3923 1894 3811 
Q 1888 3699 1888 3565 
L 1888 621 
Q 1888 461 1949 377 
Q 2010 294 2157 246 
Q 2304 198 2566 134 
Q 2605 128 2640 105 
Q 2675 83 2675 51 
Q 2675 -19 2586 -19 
Q 2406 -19 2256 -9 
Q 2106 0 1962 6 
Q 1818 13 1645 13 
Q 1472 13 1318 6 
Q 1165 0 1011 -9 
Q 858 -19 685 -19 
z
" transform="scale(0.015625)"/>
       </defs>
       <use xlink:href="#EBGaramond-Regular-31"/>
       <use xlink:href="#EBGaramond-Regular-30" x="47.999985"/>
      </g>
     </g>
    </g>
    <g id="text_7">
     <!-- observed time $T$  (earlier = should be riskier) -->
     <g style="fill: #33463f" transform="translate(140.608125 273.965812) scale(0.145 -0.145)">
      <defs>
       <path id="EBGaramond-Regular-6f" d="M 1498 -90 
Q 1139 -90 851 76 
Q 563 243 393 534 
Q 224 826 224 1197 
Q 224 1466 329 1722 
Q 435 1978 627 2189 
Q 819 2400 1075 2525 
Q 1331 2650 1626 2650 
Q 1997 2650 2294 2470 
Q 2592 2291 2768 2000 
Q 2944 1709 2944 1363 
Q 2944 992 2781 659 
Q 2618 326 2298 118 
Q 1978 -90 1498 -90 
z
M 1632 102 
Q 1850 102 2022 185 
Q 2195 269 2291 454 
Q 2368 602 2393 813 
Q 2419 1024 2419 1210 
Q 2419 1517 2307 1801 
Q 2195 2086 1993 2268 
Q 1792 2451 1517 2451 
Q 1344 2451 1206 2396 
Q 1069 2342 954 2195 
Q 826 2035 787 1804 
Q 749 1574 749 1344 
Q 749 1030 864 745 
Q 979 461 1177 281 
Q 1376 102 1632 102 
z
" transform="scale(0.015625)"/>
       <path id="EBGaramond-Regular-62" d="M 1658 -90 
Q 1517 -90 1376 -64 
Q 1235 -38 1107 -6 
Q 966 32 860 64 
Q 755 96 723 96 
Q 685 96 649 70 
Q 614 45 582 13 
Q 550 -19 525 -19 
Q 499 -19 467 3 
Q 435 26 435 58 
Q 435 115 457 256 
Q 480 397 480 518 
L 480 3622 
Q 480 3789 397 3910 
Q 314 4032 186 4090 
Q 160 4102 131 4124 
Q 102 4147 102 4186 
Q 102 4218 128 4230 
Q 154 4243 179 4250 
Q 262 4269 406 4320 
Q 550 4371 678 4422 
Q 806 4474 851 4493 
Q 890 4512 909 4512 
Q 922 4512 934 4499 
Q 947 4486 947 4467 
Q 947 4442 937 4253 
Q 928 4064 928 3795 
L 928 2483 
Q 928 2362 941 2320 
Q 954 2278 986 2272 
Q 1184 2438 1446 2544 
Q 1709 2650 1920 2650 
Q 2246 2650 2505 2483 
Q 2765 2317 2918 2032 
Q 3072 1747 3072 1389 
Q 3072 954 2893 618 
Q 2714 282 2397 96 
Q 2080 -90 1658 -90 
z
M 1805 109 
Q 2048 109 2224 259 
Q 2400 410 2496 669 
Q 2592 928 2592 1248 
Q 2592 1498 2499 1760 
Q 2406 2022 2211 2201 
Q 2016 2381 1709 2381 
Q 1453 2381 1261 2297 
Q 1069 2214 928 2086 
L 928 845 
Q 928 621 1053 454 
Q 1178 288 1379 198 
Q 1581 109 1805 109 
z
" transform="scale(0.015625)"/>
       <path id="EBGaramond-Regular-73" d="M 922 -90 
Q 723 -90 550 -29 
Q 378 32 256 141 
Q 224 211 208 377 
Q 192 544 186 653 
Q 186 710 269 710 
Q 294 710 316 700 
Q 339 691 346 666 
Q 429 352 611 217 
Q 794 83 979 83 
Q 1165 83 1296 208 
Q 1427 333 1427 518 
Q 1427 691 1312 816 
Q 1197 941 909 1120 
Q 691 1254 556 1376 
Q 422 1498 361 1626 
Q 301 1754 301 1914 
Q 301 2118 397 2284 
Q 493 2451 685 2550 
Q 877 2650 1165 2650 
Q 1357 2650 1485 2611 
Q 1613 2573 1677 2528 
Q 1728 2458 1763 2307 
Q 1798 2157 1798 2022 
Q 1798 1978 1734 1978 
Q 1696 1978 1661 1994 
Q 1626 2010 1613 2035 
Q 1530 2246 1405 2358 
Q 1280 2470 1094 2470 
Q 934 2470 809 2374 
Q 685 2278 685 2093 
Q 685 1946 777 1830 
Q 870 1715 1126 1568 
Q 1498 1357 1680 1174 
Q 1862 992 1862 691 
Q 1862 346 1600 128 
Q 1338 -90 922 -90 
z
" transform="scale(0.015625)"/>
       <path id="EBGaramond-Regular-65" d="M 1363 -96 
Q 1011 -96 748 77 
Q 486 250 339 566 
Q 192 883 192 1299 
Q 192 1670 361 1974 
Q 531 2278 812 2464 
Q 1094 2650 1427 2650 
Q 1683 2650 1881 2547 
Q 2080 2445 2192 2262 
Q 2304 2080 2304 1843 
Q 2304 1645 2112 1645 
L 762 1645 
Q 672 1645 637 1597 
Q 602 1549 602 1408 
Q 602 1101 736 848 
Q 870 595 1094 444 
Q 1318 294 1587 294 
Q 1779 294 1936 368 
Q 2093 442 2214 582 
Q 2240 614 2253 624 
Q 2266 634 2285 634 
Q 2336 634 2336 570 
Q 2336 448 2221 301 
Q 2125 179 1990 89 
Q 1856 0 1696 -48 
Q 1536 -96 1363 -96 
z
M 774 1843 
L 1357 1843 
Q 1510 1843 1619 1849 
Q 1728 1856 1830 1875 
Q 1862 1882 1872 1917 
Q 1882 1952 1882 2016 
Q 1882 2202 1718 2333 
Q 1555 2464 1331 2464 
Q 1184 2464 1037 2377 
Q 890 2291 794 2163 
Q 698 2035 698 1907 
Q 698 1843 774 1843 
z
" transform="scale(0.015625)"/>
       <path id="EBGaramond-Regular-72" d="M 314 -19 
Q 250 -19 218 -3 
Q 186 13 186 51 
Q 186 102 224 118 
Q 262 134 333 154 
Q 454 186 515 246 
Q 576 307 576 397 
L 576 1773 
Q 576 1946 525 2074 
Q 474 2202 314 2234 
Q 288 2240 269 2265 
Q 250 2291 250 2317 
Q 250 2381 307 2394 
Q 474 2445 656 2544 
Q 838 2643 941 2707 
Q 979 2733 1001 2742 
Q 1024 2752 1037 2752 
Q 1069 2752 1069 2707 
Q 1069 2688 1065 2611 
Q 1062 2534 1059 2432 
Q 1056 2330 1050 2227 
Q 1050 2214 1062 2214 
Q 1165 2342 1289 2438 
Q 1414 2534 1545 2592 
Q 1677 2650 1798 2650 
Q 1933 2650 2019 2592 
Q 2106 2534 2106 2445 
Q 2106 2381 2070 2304 
Q 2035 2227 1977 2169 
Q 1920 2112 1856 2112 
Q 1818 2112 1773 2128 
Q 1728 2144 1677 2170 
Q 1626 2189 1574 2208 
Q 1523 2227 1472 2227 
Q 1318 2227 1174 2118 
Q 1030 2010 1030 1690 
L 1030 397 
Q 1030 314 1120 259 
Q 1210 205 1370 154 
Q 1440 134 1478 115 
Q 1517 96 1517 51 
Q 1517 -19 1389 -19 
Q 1197 -19 1097 -3 
Q 998 13 832 13 
Q 723 13 656 6 
Q 589 0 515 -9 
Q 442 -19 314 -19 
z
" transform="scale(0.015625)"/>
       <path id="EBGaramond-Regular-76" d="M 1370 -134 
Q 1344 -134 1305 -35 
Q 1267 64 1254 109 
Q 1210 218 1171 336 
Q 1133 454 1094 557 
Q 954 954 790 1334 
Q 627 1715 474 2106 
Q 429 2221 336 2313 
Q 243 2406 147 2432 
Q 96 2451 64 2470 
Q 32 2490 32 2534 
Q 32 2573 80 2582 
Q 128 2592 160 2592 
Q 288 2592 345 2585 
Q 403 2579 460 2569 
Q 518 2560 627 2560 
Q 742 2560 800 2569 
Q 858 2579 922 2585 
Q 986 2592 1107 2592 
Q 1139 2592 1187 2582 
Q 1235 2573 1235 2534 
Q 1235 2490 1190 2464 
Q 1146 2438 1088 2419 
Q 1024 2394 992 2320 
Q 960 2246 960 2157 
Q 960 2112 966 2067 
Q 973 2022 986 1984 
L 1491 640 
Q 1498 634 1501 634 
Q 1504 634 1510 640 
L 1997 1888 
Q 2022 1952 2035 2025 
Q 2048 2099 2048 2150 
Q 2048 2278 2009 2332 
Q 1971 2387 1882 2419 
Q 1798 2451 1766 2470 
Q 1734 2490 1734 2534 
Q 1734 2573 1776 2582 
Q 1818 2592 1862 2592 
Q 1933 2592 2048 2576 
Q 2163 2560 2330 2560 
Q 2496 2560 2557 2576 
Q 2618 2592 2707 2592 
Q 2758 2592 2796 2582 
Q 2835 2573 2835 2534 
Q 2835 2464 2688 2419 
Q 2592 2394 2477 2272 
Q 2362 2150 2291 1990 
L 1792 787 
Q 1779 762 1740 662 
Q 1702 563 1657 444 
Q 1613 326 1581 240 
Q 1549 154 1549 154 
Q 1549 154 1523 93 
Q 1498 32 1466 -35 
Q 1434 -102 1408 -134 
L 1370 -134 
z
" transform="scale(0.015625)"/>
       <path id="EBGaramond-Regular-64" d="M 2285 -122 
Q 2272 -122 2243 -96 
Q 2214 -70 2214 -58 
Q 2214 6 2230 124 
Q 2246 243 2246 326 
L 2246 365 
Q 2150 218 1939 64 
Q 1728 -90 1408 -90 
Q 1043 -90 777 102 
Q 512 294 368 595 
Q 224 896 224 1216 
Q 224 1587 397 1913 
Q 570 2240 893 2445 
Q 1216 2650 1664 2650 
Q 1792 2650 1923 2627 
Q 2054 2605 2125 2579 
Q 2182 2560 2208 2560 
Q 2253 2560 2253 2714 
L 2253 3622 
Q 2253 3885 2169 3974 
Q 2086 4064 1933 4090 
Q 1875 4102 1875 4173 
Q 1875 4230 1926 4250 
Q 2208 4320 2368 4384 
Q 2528 4448 2618 4486 
Q 2643 4499 2665 4502 
Q 2688 4506 2701 4506 
Q 2739 4506 2746 4467 
Q 2746 4429 2736 4336 
Q 2726 4243 2713 4064 
Q 2701 3885 2701 3597 
L 2701 704 
Q 2701 486 2733 387 
Q 2765 288 2835 288 
Q 2867 288 2947 294 
Q 3027 301 3110 307 
Q 3226 314 3226 250 
Q 3226 205 3197 169 
Q 3168 134 3136 134 
Q 2957 109 2784 61 
Q 2611 13 2387 -83 
Q 2336 -109 2320 -115 
Q 2304 -122 2285 -122 
z
M 1638 243 
Q 1805 243 1965 329 
Q 2125 416 2246 557 
L 2253 1709 
Q 2253 1882 2153 2048 
Q 2054 2214 1878 2320 
Q 1702 2426 1466 2426 
Q 1318 2426 1132 2336 
Q 947 2246 812 2019 
Q 678 1792 678 1363 
Q 678 998 787 777 
Q 896 557 1053 441 
Q 1210 326 1373 284 
Q 1536 243 1638 243 
z
" transform="scale(0.015625)"/>
       <path id="EBGaramond-Regular-20" transform="scale(0.015625)"/>
       <path id="EBGaramond-Regular-74" d="M 1210 -90 
Q 896 -90 720 102 
Q 544 294 544 672 
L 544 2157 
Q 544 2208 505 2230 
Q 467 2253 339 2253 
L 301 2253 
Q 269 2253 246 2294 
Q 224 2336 224 2381 
Q 224 2394 243 2419 
Q 262 2445 269 2451 
Q 397 2541 502 2630 
Q 608 2720 694 2806 
Q 781 2893 838 2963 
Q 870 2995 892 3017 
Q 915 3040 947 3040 
Q 979 3040 1008 3027 
Q 1037 3014 1030 2970 
L 998 2682 
Q 992 2611 1030 2585 
Q 1069 2560 1152 2560 
L 1882 2560 
Q 1907 2560 1926 2518 
Q 1946 2477 1946 2419 
Q 1946 2362 1926 2307 
Q 1907 2253 1882 2253 
L 1248 2253 
Q 1088 2253 1040 2227 
Q 992 2202 992 2074 
L 992 813 
Q 992 557 1101 409 
Q 1210 262 1414 262 
Q 1600 262 1702 291 
Q 1805 320 1888 378 
Q 1901 390 1914 390 
Q 1939 390 1948 361 
Q 1958 333 1958 301 
Q 1958 269 1852 173 
Q 1747 77 1577 -6 
Q 1408 -90 1210 -90 
z
" transform="scale(0.015625)"/>
       <path id="EBGaramond-Regular-69" d="M 282 -19 
Q 224 -19 189 -3 
Q 154 13 154 51 
Q 154 102 202 121 
Q 250 141 301 154 
Q 435 186 505 234 
Q 576 282 576 397 
L 576 1786 
Q 576 1958 515 2092 
Q 454 2227 288 2253 
Q 256 2259 240 2278 
Q 224 2298 224 2336 
Q 224 2406 282 2413 
Q 538 2470 704 2569 
Q 870 2669 954 2733 
Q 1011 2778 1043 2778 
Q 1082 2778 1082 2746 
Q 1082 2694 1066 2544 
Q 1050 2394 1037 2211 
Q 1024 2029 1024 1882 
L 1024 397 
Q 1024 288 1097 237 
Q 1171 186 1299 154 
Q 1350 141 1398 121 
Q 1446 102 1446 51 
Q 1446 -19 1318 -19 
Q 1197 -19 1123 -9 
Q 1050 0 982 6 
Q 915 13 800 13 
Q 691 13 620 6 
Q 550 0 480 -9 
Q 410 -19 282 -19 
z
M 792 3302 
Q 658 3302 565 3395 
Q 472 3488 472 3622 
Q 472 3763 565 3856 
Q 658 3949 792 3949 
Q 933 3949 1025 3856 
Q 1118 3763 1118 3622 
Q 1118 3488 1025 3395 
Q 933 3302 792 3302 
z
" transform="scale(0.015625)"/>
       <path id="EBGaramond-Regular-6d" d="M 282 -19 
Q 230 -19 192 -6 
Q 154 6 154 51 
Q 154 96 195 115 
Q 237 134 301 154 
Q 390 186 483 227 
Q 576 269 576 397 
L 576 1773 
Q 576 1946 537 2077 
Q 499 2208 333 2234 
Q 307 2240 291 2259 
Q 275 2278 275 2317 
Q 275 2381 326 2394 
Q 499 2438 601 2486 
Q 704 2534 784 2595 
Q 864 2656 979 2726 
Q 992 2733 1005 2742 
Q 1018 2752 1037 2752 
Q 1075 2752 1075 2707 
Q 1075 2662 1059 2524 
Q 1043 2387 1043 2298 
Q 1043 2234 1056 2221 
L 1069 2221 
Q 1216 2362 1456 2506 
Q 1696 2650 2067 2650 
Q 2298 2650 2451 2550 
Q 2605 2451 2707 2208 
L 2726 2208 
Q 2931 2394 3193 2522 
Q 3456 2650 3770 2650 
Q 3981 2650 4121 2522 
Q 4262 2394 4336 2189 
Q 4410 1984 4410 1760 
L 4410 397 
Q 4410 269 4499 227 
Q 4589 186 4685 154 
Q 4749 134 4790 115 
Q 4832 96 4832 51 
Q 4832 13 4803 -3 
Q 4774 -19 4704 -19 
Q 4576 -19 4505 -9 
Q 4435 0 4374 6 
Q 4314 13 4198 13 
Q 4090 13 4019 6 
Q 3949 0 3872 -9 
Q 3795 -19 3667 -19 
Q 3610 -19 3574 -3 
Q 3539 13 3539 51 
Q 3539 102 3580 121 
Q 3622 141 3686 154 
Q 3789 179 3875 224 
Q 3962 269 3962 397 
L 3962 1741 
Q 3962 1894 3891 2032 
Q 3821 2170 3705 2259 
Q 3590 2349 3450 2349 
Q 3290 2349 3152 2310 
Q 3014 2272 2893 2176 
Q 2714 2035 2714 1715 
L 2714 397 
Q 2714 269 2810 224 
Q 2906 179 3002 154 
Q 3066 141 3107 118 
Q 3149 96 3149 51 
Q 3149 13 3117 -3 
Q 3085 -19 3021 -19 
Q 2893 -19 2819 -9 
Q 2746 0 2678 6 
Q 2611 13 2496 13 
Q 2387 13 2316 6 
Q 2246 0 2169 -9 
Q 2093 -19 1965 -19 
Q 1914 -19 1875 -3 
Q 1837 13 1837 51 
Q 1837 102 1885 118 
Q 1933 134 1984 154 
Q 2080 186 2173 227 
Q 2266 269 2266 397 
L 2266 1741 
Q 2266 1894 2195 2032 
Q 2125 2170 2009 2259 
Q 1894 2349 1754 2349 
Q 1594 2349 1456 2310 
Q 1318 2272 1197 2176 
Q 1024 2048 1024 1715 
L 1024 397 
Q 1024 269 1113 227 
Q 1203 186 1299 154 
Q 1350 134 1398 118 
Q 1446 102 1446 51 
Q 1446 13 1411 -3 
Q 1376 -19 1318 -19 
Q 1190 -19 1116 -9 
Q 1043 0 979 6 
Q 915 13 800 13 
Q 691 13 624 6 
Q 557 0 483 -9 
Q 410 -19 282 -19 
z
" transform="scale(0.015625)"/>
       <path id="DejaVuSans-Oblique-54" d="M 378 4666 
L 4325 4666 
L 4225 4134 
L 2559 4134 
L 1759 0 
L 1125 0 
L 1925 4134 
L 275 4134 
L 378 4666 
z
" transform="scale(0.015625)"/>
       <path id="EBGaramond-Regular-28" d="M 1517 -1370 
Q 1453 -1370 1408 -1325 
Q 1274 -1190 1117 -940 
Q 960 -691 806 -371 
Q 653 -51 528 310 
Q 403 672 329 1033 
Q 256 1395 256 1722 
Q 256 2131 365 2540 
Q 474 2950 646 3318 
Q 819 3686 1014 3977 
Q 1210 4269 1382 4442 
Q 1414 4474 1462 4493 
Q 1510 4512 1555 4512 
Q 1587 4512 1641 4483 
Q 1696 4454 1696 4410 
Q 1696 4403 1677 4377 
Q 1658 4352 1638 4323 
Q 1619 4294 1613 4288 
Q 1421 4064 1229 3686 
Q 1037 3309 912 2825 
Q 787 2342 787 1798 
Q 787 1389 857 950 
Q 928 512 1043 105 
Q 1158 -301 1302 -617 
Q 1446 -934 1594 -1107 
Q 1600 -1114 1622 -1139 
Q 1645 -1165 1667 -1193 
Q 1690 -1222 1690 -1229 
Q 1690 -1293 1635 -1331 
Q 1581 -1370 1517 -1370 
z
" transform="scale(0.015625)"/>
       <path id="EBGaramond-Regular-61" d="M 749 -90 
Q 634 -90 515 0 
Q 397 90 317 218 
Q 237 346 237 461 
Q 237 666 345 781 
Q 454 896 691 992 
L 1344 1261 
Q 1472 1312 1494 1350 
Q 1517 1389 1523 1517 
L 1536 1926 
Q 1542 2093 1443 2214 
Q 1344 2336 1158 2336 
Q 1062 2336 966 2304 
Q 870 2272 806 2221 
Q 768 2195 755 2144 
Q 742 2093 742 2035 
Q 742 2010 745 1978 
Q 749 1946 749 1920 
Q 749 1888 669 1833 
Q 589 1779 489 1737 
Q 390 1696 326 1696 
Q 294 1696 275 1712 
Q 256 1728 256 1754 
Q 256 1856 323 1974 
Q 390 2093 512 2195 
Q 659 2330 832 2432 
Q 1005 2534 1171 2592 
Q 1338 2650 1466 2650 
Q 1696 2650 1846 2486 
Q 1997 2323 1990 2080 
L 1958 544 
Q 1952 410 2019 326 
Q 2086 243 2189 243 
Q 2349 243 2426 314 
Q 2458 346 2477 346 
Q 2509 346 2528 326 
Q 2547 307 2547 275 
Q 2547 205 2477 134 
Q 2374 32 2256 -29 
Q 2138 -90 2035 -90 
Q 1741 -90 1568 243 
L 1549 243 
Q 1338 70 1146 -10 
Q 954 -90 749 -90 
z
M 1050 218 
Q 1178 218 1267 259 
Q 1357 301 1427 371 
Q 1459 403 1481 457 
Q 1504 512 1510 634 
L 1523 947 
Q 1530 1018 1517 1050 
Q 1504 1082 1466 1082 
Q 1453 1082 1421 1075 
Q 1389 1069 1338 1050 
Q 998 928 867 797 
Q 736 666 736 557 
Q 736 390 835 304 
Q 934 218 1050 218 
z
" transform="scale(0.015625)"/>
       <path id="EBGaramond-Regular-6c" d="M 250 -19 
Q 218 -19 170 -9 
Q 122 0 122 38 
Q 122 90 170 112 
Q 218 134 269 154 
Q 365 186 454 227 
Q 544 269 544 397 
L 544 3622 
Q 544 3808 477 3933 
Q 410 4058 250 4090 
Q 198 4102 198 4173 
Q 198 4237 243 4250 
Q 410 4288 531 4329 
Q 653 4371 758 4416 
Q 864 4461 966 4499 
Q 992 4512 1005 4512 
Q 1018 4512 1027 4496 
Q 1037 4480 1037 4467 
Q 1037 4410 1014 4221 
Q 992 4032 992 3597 
L 992 397 
Q 992 269 1081 227 
Q 1171 186 1267 154 
Q 1318 134 1366 112 
Q 1414 90 1414 38 
Q 1414 0 1366 -9 
Q 1318 -19 1286 -19 
Q 1165 -19 1091 -9 
Q 1018 0 950 6 
Q 883 13 768 13 
Q 659 13 588 6 
Q 518 0 448 -9 
Q 378 -19 250 -19 
z
" transform="scale(0.015625)"/>
       <path id="EBGaramond-Regular-3d" d="M 410 2010 
Q 378 2010 349 2035 
Q 320 2061 320 2086 
Q 320 2118 336 2176 
Q 352 2234 384 2282 
Q 416 2330 474 2330 
L 3213 2330 
Q 3245 2330 3273 2310 
Q 3302 2291 3302 2259 
Q 3302 2195 3238 2102 
Q 3174 2010 3098 2010 
L 410 2010 
z
M 410 915 
Q 378 915 349 940 
Q 320 966 320 992 
Q 320 1024 336 1081 
Q 352 1139 384 1187 
Q 416 1235 474 1235 
L 3213 1235 
Q 3245 1235 3273 1216 
Q 3302 1197 3302 1165 
Q 3302 1082 3238 998 
Q 3174 915 3098 915 
L 410 915 
z
" transform="scale(0.015625)"/>
       <path id="EBGaramond-Regular-68" d="M 250 -19 
Q 122 -19 122 51 
Q 122 109 269 154 
Q 365 186 451 237 
Q 538 288 544 416 
L 544 3622 
Q 544 3795 486 3926 
Q 429 4058 262 4083 
Q 205 4096 205 4173 
Q 205 4230 256 4250 
Q 346 4282 470 4320 
Q 595 4358 729 4406 
Q 864 4454 966 4499 
Q 992 4512 1005 4512 
Q 1024 4512 1037 4499 
Q 1050 4486 1050 4467 
Q 1050 4429 1034 4358 
Q 1018 4288 1005 4115 
Q 992 3942 992 3597 
L 992 2483 
Q 992 2381 1001 2336 
Q 1011 2291 1037 2246 
Q 1139 2323 1289 2416 
Q 1440 2509 1625 2579 
Q 1811 2650 2010 2650 
Q 2323 2650 2531 2403 
Q 2739 2157 2739 1779 
L 2739 435 
Q 2739 307 2822 246 
Q 2906 186 3002 154 
Q 3072 134 3110 112 
Q 3149 90 3149 51 
Q 3149 -19 3021 -19 
Q 2893 -19 2825 -9 
Q 2758 0 2697 6 
Q 2637 13 2522 13 
Q 2413 13 2349 6 
Q 2285 0 2217 -9 
Q 2150 -19 2022 -19 
Q 1894 -19 1894 51 
Q 1894 96 1932 112 
Q 1971 128 2042 154 
Q 2138 186 2214 246 
Q 2291 307 2291 435 
L 2291 1741 
Q 2291 1901 2198 2032 
Q 2106 2163 1971 2240 
Q 1837 2317 1696 2317 
Q 1574 2317 1414 2281 
Q 1254 2246 1165 2176 
Q 1062 2093 1027 2003 
Q 992 1914 992 1715 
L 992 416 
Q 998 288 1072 237 
Q 1146 186 1242 154 
Q 1312 134 1347 112 
Q 1382 90 1382 51 
Q 1382 -19 1254 -19 
Q 1126 -19 1062 -9 
Q 998 0 940 6 
Q 883 13 768 13 
Q 659 13 592 6 
Q 525 0 451 -9 
Q 378 -19 250 -19 
z
" transform="scale(0.015625)"/>
       <path id="EBGaramond-Regular-75" d="M 2342 -122 
Q 2298 -122 2298 -70 
Q 2298 -6 2314 118 
Q 2330 243 2330 326 
Q 2330 339 2330 348 
Q 2330 358 2330 365 
Q 2080 122 1827 16 
Q 1574 -90 1274 -90 
Q 1069 -90 902 -3 
Q 736 83 640 252 
Q 544 422 544 672 
L 544 1971 
Q 544 2112 480 2195 
Q 416 2278 269 2336 
Q 237 2349 211 2368 
Q 186 2387 186 2438 
Q 186 2496 214 2515 
Q 243 2534 282 2541 
Q 499 2554 617 2576 
Q 736 2598 915 2643 
Q 934 2650 944 2650 
Q 954 2650 966 2650 
Q 1037 2650 1030 2560 
Q 1011 2413 1001 2313 
Q 992 2214 992 2067 
L 992 819 
Q 992 666 1069 534 
Q 1146 403 1270 320 
Q 1395 237 1530 237 
Q 1696 237 1821 256 
Q 1946 275 2067 365 
Q 2138 416 2246 531 
Q 2355 646 2355 845 
L 2355 2016 
Q 2355 2150 2275 2217 
Q 2195 2285 2092 2310 
Q 1990 2336 1926 2336 
Q 1869 2336 1830 2358 
Q 1792 2381 1792 2445 
Q 1792 2502 1833 2521 
Q 1875 2541 1926 2541 
Q 2125 2547 2256 2556 
Q 2387 2566 2492 2588 
Q 2598 2611 2714 2643 
Q 2726 2650 2745 2653 
Q 2765 2656 2778 2656 
Q 2861 2656 2861 2586 
Q 2861 2579 2857 2563 
Q 2854 2547 2848 2528 
Q 2842 2509 2832 2419 
Q 2822 2330 2812 2234 
Q 2803 2138 2803 2086 
L 2803 608 
Q 2803 435 2838 361 
Q 2874 288 2918 288 
Q 2970 288 3069 297 
Q 3168 307 3213 307 
Q 3245 307 3277 294 
Q 3309 282 3309 224 
Q 3309 173 3283 157 
Q 3258 141 3219 134 
Q 2970 102 2790 38 
Q 2611 -26 2470 -83 
Q 2451 -90 2412 -106 
Q 2374 -122 2342 -122 
z
" transform="scale(0.015625)"/>
       <path id="EBGaramond-Regular-6b" d="M 269 -19 
Q 122 -19 122 51 
Q 122 102 170 118 
Q 218 134 269 154 
Q 365 186 454 237 
Q 544 288 544 416 
L 544 3622 
Q 544 3846 480 3948 
Q 416 4051 256 4090 
Q 198 4102 198 4173 
Q 198 4237 250 4250 
Q 416 4288 537 4329 
Q 659 4371 758 4412 
Q 858 4454 954 4493 
Q 992 4512 1011 4512 
Q 1030 4512 1040 4499 
Q 1050 4486 1050 4454 
Q 1050 4390 1021 4198 
Q 992 4006 992 3597 
L 992 1498 
Q 992 1440 1024 1440 
Q 1062 1440 1123 1472 
Q 1184 1504 1254 1568 
Q 1517 1792 1693 1974 
Q 1869 2157 1933 2227 
Q 1965 2266 1977 2288 
Q 1990 2310 1990 2323 
Q 1990 2355 1936 2380 
Q 1882 2406 1824 2419 
Q 1747 2438 1747 2483 
Q 1747 2515 1785 2537 
Q 1824 2560 1888 2560 
L 2202 2560 
Q 2304 2560 2416 2579 
Q 2528 2598 2627 2617 
Q 2726 2637 2784 2637 
Q 2874 2637 2874 2573 
Q 2874 2534 2829 2505 
Q 2784 2477 2714 2458 
Q 2592 2426 2486 2368 
Q 2381 2310 2291 2259 
Q 2253 2234 2115 2122 
Q 1978 2010 1802 1862 
Q 1626 1715 1472 1581 
Q 1434 1542 1434 1517 
Q 1434 1510 1440 1497 
Q 1446 1485 1453 1472 
Q 1619 1267 1811 1056 
Q 2003 845 2166 685 
Q 2330 525 2394 461 
Q 2502 358 2640 278 
Q 2778 198 2874 166 
Q 2944 141 3005 121 
Q 3066 102 3066 51 
Q 3066 -19 2938 -19 
Q 2688 -19 2377 -9 
Q 2067 0 1741 0 
Q 1626 0 1626 58 
Q 1626 96 1658 121 
Q 1690 147 1734 160 
Q 1805 186 1856 218 
Q 1907 250 1907 307 
Q 1907 326 1894 348 
Q 1882 371 1862 397 
L 1088 1274 
Q 1050 1318 1024 1318 
Q 992 1318 992 1274 
Q 986 1184 986 1078 
Q 986 973 986 864 
Q 986 755 986 640 
Q 986 525 992 416 
Q 992 288 1056 237 
Q 1120 186 1216 154 
Q 1267 134 1315 118 
Q 1363 102 1363 51 
Q 1363 6 1302 -6 
Q 1242 -19 1216 -19 
Q 1094 -19 1036 -9 
Q 979 0 931 6 
Q 883 13 768 13 
Q 659 13 595 6 
Q 531 0 464 -9 
Q 397 -19 269 -19 
z
" transform="scale(0.015625)"/>
       <path id="EBGaramond-Regular-29" d="M 499 -1370 
Q 435 -1370 380 -1331 
Q 326 -1293 326 -1229 
Q 326 -1222 348 -1193 
Q 371 -1165 396 -1139 
Q 422 -1114 422 -1107 
Q 570 -934 714 -617 
Q 858 -301 973 105 
Q 1088 512 1158 950 
Q 1229 1389 1229 1798 
Q 1229 2342 1104 2825 
Q 979 3309 790 3686 
Q 602 4064 403 4288 
Q 397 4294 377 4323 
Q 358 4352 339 4377 
Q 320 4403 320 4410 
Q 320 4454 374 4483 
Q 429 4512 461 4512 
Q 512 4512 560 4493 
Q 608 4474 634 4442 
Q 806 4269 1001 3977 
Q 1197 3686 1369 3318 
Q 1542 2950 1651 2540 
Q 1760 2131 1760 1722 
Q 1760 1395 1686 1033 
Q 1613 672 1488 310 
Q 1363 -51 1209 -371 
Q 1056 -691 899 -940 
Q 742 -1190 608 -1325 
Q 563 -1370 499 -1370 
z
" transform="scale(0.015625)"/>
      </defs>
      <use xlink:href="#EBGaramond-Regular-6f" transform="translate(0 0.09375)"/>
      <use xlink:href="#EBGaramond-Regular-62" transform="translate(49.499985 0.09375)"/>
      <use xlink:href="#EBGaramond-Regular-73" transform="translate(100.999969 0.09375)"/>
      <use xlink:href="#EBGaramond-Regular-65" transform="translate(133.299957 0.09375)"/>
      <use xlink:href="#EBGaramond-Regular-72" transform="translate(172.299942 0.09375)"/>
      <use xlink:href="#EBGaramond-Regular-76" transform="translate(205.699936 0.09375)"/>
      <use xlink:href="#EBGaramond-Regular-65" transform="translate(249.499924 0.09375)"/>
      <use xlink:href="#EBGaramond-Regular-64" transform="translate(288.499908 0.09375)"/>
      <use xlink:href="#EBGaramond-Regular-20" transform="translate(339.099899 0.09375)"/>
      <use xlink:href="#EBGaramond-Regular-74" transform="translate(359.099884 0.09375)"/>
      <use xlink:href="#EBGaramond-Regular-69" transform="translate(390.499878 0.09375)"/>
      <use xlink:href="#EBGaramond-Regular-6d" transform="translate(414.999863 0.09375)"/>
      <use xlink:href="#EBGaramond-Regular-65" transform="translate(492.79985 0.09375)"/>
      <use xlink:href="#EBGaramond-Regular-20" transform="translate(531.799835 0.09375)"/>
      <use xlink:href="#DejaVuSans-Oblique-54" transform="translate(551.79982 0.09375)"/>
      <use xlink:href="#EBGaramond-Regular-20" transform="translate(612.883804 0.09375)"/>
      <use xlink:href="#EBGaramond-Regular-20" transform="translate(632.883789 0.09375)"/>
      <use xlink:href="#EBGaramond-Regular-28" transform="translate(652.883774 0.09375)"/>
      <use xlink:href="#EBGaramond-Regular-65" transform="translate(684.383759 0.09375)"/>
      <use xlink:href="#EBGaramond-Regular-61" transform="translate(723.383743 0.09375)"/>
      <use xlink:href="#EBGaramond-Regular-72" transform="translate(763.283737 0.09375)"/>
      <use xlink:href="#EBGaramond-Regular-6c" transform="translate(796.683731 0.09375)"/>
      <use xlink:href="#EBGaramond-Regular-69" transform="translate(820.683716 0.09375)"/>
      <use xlink:href="#EBGaramond-Regular-65" transform="translate(845.183701 0.09375)"/>
      <use xlink:href="#EBGaramond-Regular-72" transform="translate(884.183685 0.09375)"/>
      <use xlink:href="#EBGaramond-Regular-20" transform="translate(917.583679 0.09375)"/>
      <use xlink:href="#EBGaramond-Regular-3d" transform="translate(937.583664 0.09375)"/>
      <use xlink:href="#EBGaramond-Regular-20" transform="translate(994.183655 0.09375)"/>
      <use xlink:href="#EBGaramond-Regular-73" transform="translate(1014.18364 0.09375)"/>
      <use xlink:href="#EBGaramond-Regular-68" transform="translate(1046.483627 0.09375)"/>
      <use xlink:href="#EBGaramond-Regular-6f" transform="translate(1097.983612 0.09375)"/>
      <use xlink:href="#EBGaramond-Regular-75" transform="translate(1147.483597 0.09375)"/>
      <use xlink:href="#EBGaramond-Regular-6c" transform="translate(1200.183594 0.09375)"/>
      <use xlink:href="#EBGaramond-Regular-64" transform="translate(1224.183578 0.09375)"/>
      <use xlink:href="#EBGaramond-Regular-20" transform="translate(1274.783569 0.09375)"/>
      <use xlink:href="#EBGaramond-Regular-62" transform="translate(1294.783554 0.09375)"/>
      <use xlink:href="#EBGaramond-Regular-65" transform="translate(1346.283539 0.09375)"/>
      <use xlink:href="#EBGaramond-Regular-20" transform="translate(1385.283524 0.09375)"/>
      <use xlink:href="#EBGaramond-Regular-72" transform="translate(1405.283508 0.09375)"/>
      <use xlink:href="#EBGaramond-Regular-69" transform="translate(1438.683502 0.09375)"/>
      <use xlink:href="#EBGaramond-Regular-73" transform="translate(1463.183487 0.09375)"/>
      <use xlink:href="#EBGaramond-Regular-6b" transform="translate(1495.483475 0.09375)"/>
      <use xlink:href="#EBGaramond-Regular-69" transform="translate(1542.383469 0.09375)"/>
      <use xlink:href="#EBGaramond-Regular-65" transform="translate(1566.883453 0.09375)"/>
      <use xlink:href="#EBGaramond-Regular-72" transform="translate(1605.883438 0.09375)"/>
      <use xlink:href="#EBGaramond-Regular-29" transform="translate(1639.283432 0.09375)"/>
     </g>
    </g>
   </g>
   <g id="matplotlib.axis_2">
    <g id="ytick_1">
     <g id="line2d_10">
      <defs>
       <path id="m415075ee84" d="M 0 0 
L -3.5 0 
" style="stroke: #5f776c; stroke-width: 0.8"/>
      </defs>
      <g>
       <use xlink:href="#m415075ee84" x="49.81" y="238.388312" style="fill: #5f776c; stroke: #5f776c; stroke-width: 0.8"/>
      </g>
     </g>
     <g id="text_8">
      <!-- 0.0 -->
      <g style="fill: #5f776c" transform="translate(25.555 243.499562) scale(0.145 -0.145)">
       <defs>
        <path id="EBGaramond-Regular-2e" d="M 736 -90 
Q 595 -90 489 16 
Q 384 122 384 262 
Q 384 410 489 512 
Q 595 614 736 614 
Q 883 614 985 512 
Q 1088 410 1088 262 
Q 1088 122 985 16 
Q 883 -90 736 -90 
z
" transform="scale(0.015625)"/>
       </defs>
       <use xlink:href="#EBGaramond-Regular-30"/>
       <use xlink:href="#EBGaramond-Regular-2e" x="47.999985"/>
       <use xlink:href="#EBGaramond-Regular-30" x="70.999969"/>
      </g>
     </g>
    </g>
    <g id="ytick_2">
     <g id="line2d_11">
      <g>
       <use xlink:href="#m415075ee84" x="49.81" y="197.834979" style="fill: #5f776c; stroke: #5f776c; stroke-width: 0.8"/>
      </g>
     </g>
     <g id="text_9">
      <!-- 0.2 -->
      <g style="fill: #5f776c" transform="translate(25.555 202.946229) scale(0.145 -0.145)">
       <use xlink:href="#EBGaramond-Regular-30"/>
       <use xlink:href="#EBGaramond-Regular-2e" x="47.999985"/>
       <use xlink:href="#EBGaramond-Regular-32" x="70.999969"/>
      </g>
     </g>
    </g>
    <g id="ytick_3">
     <g id="line2d_12">
      <g>
       <use xlink:href="#m415075ee84" x="49.81" y="157.281646" style="fill: #5f776c; stroke: #5f776c; stroke-width: 0.8"/>
      </g>
     </g>
     <g id="text_10">
      <!-- 0.4 -->
      <g style="fill: #5f776c" transform="translate(25.555 162.392896) scale(0.145 -0.145)">
       <use xlink:href="#EBGaramond-Regular-30"/>
       <use xlink:href="#EBGaramond-Regular-2e" x="47.999985"/>
       <use xlink:href="#EBGaramond-Regular-34" x="70.999969"/>
      </g>
     </g>
    </g>
    <g id="ytick_4">
     <g id="line2d_13">
      <g>
       <use xlink:href="#m415075ee84" x="49.81" y="116.728312" style="fill: #5f776c; stroke: #5f776c; stroke-width: 0.8"/>
      </g>
     </g>
     <g id="text_11">
      <!-- 0.6 -->
      <g style="fill: #5f776c" transform="translate(25.555 121.839562) scale(0.145 -0.145)">
       <use xlink:href="#EBGaramond-Regular-30"/>
       <use xlink:href="#EBGaramond-Regular-2e" x="47.999985"/>
       <use xlink:href="#EBGaramond-Regular-36" x="70.999969"/>
      </g>
     </g>
    </g>
    <g id="ytick_5">
     <g id="line2d_14">
      <g>
       <use xlink:href="#m415075ee84" x="49.81" y="76.174979" style="fill: #5f776c; stroke: #5f776c; stroke-width: 0.8"/>
      </g>
     </g>
     <g id="text_12">
      <!-- 0.8 -->
      <g style="fill: #5f776c" transform="translate(25.555 81.286229) scale(0.145 -0.145)">
       <use xlink:href="#EBGaramond-Regular-30"/>
       <use xlink:href="#EBGaramond-Regular-2e" x="47.999985"/>
       <use xlink:href="#EBGaramond-Regular-38" x="70.999969"/>
      </g>
     </g>
    </g>
    <g id="ytick_6">
     <g id="line2d_15">
      <g>
       <use xlink:href="#m415075ee84" x="49.81" y="35.621646" style="fill: #5f776c; stroke: #5f776c; stroke-width: 0.8"/>
      </g>
     </g>
     <g id="text_13">
      <!-- 1.0 -->
      <g style="fill: #5f776c" transform="translate(25.555 40.732896) scale(0.145 -0.145)">
       <use xlink:href="#EBGaramond-Regular-31"/>
       <use xlink:href="#EBGaramond-Regular-2e" x="47.999985"/>
       <use xlink:href="#EBGaramond-Regular-30" x="70.999969"/>
      </g>
     </g>
    </g>
    <g id="text_14">
     <!-- risk score $r$ -->
     <g style="fill: #33463f" transform="translate(17.4225 161.950812) rotate(-90) scale(0.145 -0.145)">
      <defs>
       <path id="EBGaramond-Regular-63" d="M 1363 -96 
Q 1043 -96 784 67 
Q 525 230 374 515 
Q 224 800 224 1152 
Q 224 1568 406 1907 
Q 589 2246 896 2448 
Q 1203 2650 1574 2650 
Q 1990 2650 2304 2426 
Q 2381 2368 2381 2304 
Q 2381 2253 2336 2189 
Q 2291 2125 2227 2083 
Q 2163 2042 2106 2042 
Q 2074 2042 2042 2064 
Q 2010 2086 1971 2112 
Q 1830 2221 1657 2317 
Q 1485 2413 1370 2413 
Q 1056 2413 861 2121 
Q 666 1830 666 1357 
Q 666 1056 797 813 
Q 928 570 1149 429 
Q 1370 288 1638 288 
Q 1824 288 1958 349 
Q 2093 410 2246 563 
Q 2259 576 2278 585 
Q 2298 595 2310 595 
Q 2381 595 2381 506 
Q 2381 467 2358 419 
Q 2336 371 2285 307 
Q 2182 179 2041 86 
Q 1901 -6 1731 -51 
Q 1562 -96 1363 -96 
z
" transform="scale(0.015625)"/>
       <path id="DejaVuSans-Oblique-72" d="M 2853 2969 
Q 2766 3016 2653 3041 
Q 2541 3066 2413 3066 
Q 1953 3066 1609 2717 
Q 1266 2369 1153 1784 
L 800 0 
L 225 0 
L 909 3500 
L 1484 3500 
L 1375 2956 
Q 1603 3259 1920 3421 
Q 2238 3584 2597 3584 
Q 2691 3584 2781 3573 
Q 2872 3563 2963 3538 
L 2853 2969 
z
" transform="scale(0.015625)"/>
      </defs>
      <use xlink:href="#EBGaramond-Regular-72" transform="translate(0 0.5)"/>
      <use xlink:href="#EBGaramond-Regular-69" transform="translate(33.399994 0.5)"/>
      <use xlink:href="#EBGaramond-Regular-73" transform="translate(57.899979 0.5)"/>
      <use xlink:href="#EBGaramond-Regular-6b" transform="translate(90.199966 0.5)"/>
      <use xlink:href="#EBGaramond-Regular-20" transform="translate(137.09996 0.5)"/>
      <use xlink:href="#EBGaramond-Regular-73" transform="translate(157.099945 0.5)"/>
      <use xlink:href="#EBGaramond-Regular-63" transform="translate(189.399933 0.5)"/>
      <use xlink:href="#EBGaramond-Regular-6f" transform="translate(230.09993 0.5)"/>
      <use xlink:href="#EBGaramond-Regular-72" transform="translate(279.599915 0.5)"/>
      <use xlink:href="#EBGaramond-Regular-65" transform="translate(312.999908 0.5)"/>
      <use xlink:href="#EBGaramond-Regular-20" transform="translate(351.999893 0.5)"/>
      <use xlink:href="#DejaVuSans-Oblique-72" transform="translate(371.999878 0.5)"/>
     </g>
    </g>
   </g>
   <g id="line2d_16"/>
   <g id="line2d_17"/>
   <g id="line2d_18"/>
   <g id="line2d_19"/>
   <g id="patch_3">
    <path d="M 49.81 238.388312 
L 49.81 25.483313 
" style="fill: none; stroke: #5f776c; stroke-width: 0.8; stroke-linejoin: miter; stroke-linecap: square"/>
   </g>
   <g id="patch_4">
    <path d="M 49.81 238.388312 
L 473.70125 238.388312 
" style="fill: none; stroke: #5f776c; stroke-width: 0.8; stroke-linejoin: miter; stroke-linecap: square"/>
   </g>
   <g id="line2d_20">
    <defs>
     <path id="m95bbabe539" d="M 0 6.5 
C 1.72382 6.5 3.377269 5.815119 4.596194 4.596194 
C 5.815119 3.377269 6.5 1.72382 6.5 0 
C 6.5 -1.72382 5.815119 -3.377269 4.596194 -4.596194 
C 3.377269 -5.815119 1.72382 -6.5 0 -6.5 
C -1.72382 -6.5 -3.377269 -5.815119 -4.596194 -4.596194 
C -5.815119 -3.377269 -6.5 -1.72382 -6.5 0 
C -6.5 1.72382 -5.815119 3.377269 -4.596194 4.596194 
C -3.377269 5.815119 -1.72382 6.5 0 6.5 
z
" style="stroke: #0e1f1b"/>
    </defs>
    <g clip-path="url(#p041670df9e)">
     <use xlink:href="#m95bbabe539" x="134.58825" y="55.898313" style="fill: #0e1f1b; stroke: #0e1f1b"/>
    </g>
   </g>
   <g id="line2d_21">
    <g clip-path="url(#p041670df9e)">
     <use xlink:href="#m95bbabe539" x="261.755625" y="157.281646" style="fill: #0e1f1b; stroke: #0e1f1b"/>
    </g>
   </g>
   <g id="line2d_22">
    <defs>
     <path id="m9bbe310916" d="M 0 6.5 
C 1.72382 6.5 3.377269 5.815119 4.596194 4.596194 
C 5.815119 3.377269 6.5 1.72382 6.5 0 
C 6.5 -1.72382 5.815119 -3.377269 4.596194 -4.596194 
C 3.377269 -5.815119 1.72382 -6.5 0 -6.5 
C -1.72382 -6.5 -3.377269 -5.815119 -4.596194 -4.596194 
C -5.815119 -3.377269 -6.5 -1.72382 -6.5 0 
C -6.5 1.72382 -5.815119 3.377269 -4.596194 4.596194 
C -3.377269 5.815119 -1.72382 6.5 0 6.5 
z
" style="stroke: #0e1f1b; stroke-width: 2"/>
    </defs>
    <g clip-path="url(#p041670df9e)">
     <use xlink:href="#m9bbe310916" x="388.923" y="96.451646" style="fill: #fbf7ef; stroke: #0e1f1b; stroke-width: 2"/>
    </g>
   </g>
   <g id="text_15">
    <!-- $\hat{C} = 2/3 \approx 0.67$ -->
    <g style="fill: #0e1f1b" transform="translate(58.287825 234.130212) scale(0.145 -0.145)">
     <defs>
      <path id="DejaVuSans-302" d="M -1831 5119 
L -1369 5119 
L -603 3944 
L -1038 3944 
L -1600 4709 
L -2163 3944 
L -2597 3944 
L -1831 5119 
z
M -1600 3584 
L -1600 3584 
z
" transform="scale(0.015625)"/>
      <path id="DejaVuSans-Oblique-43" d="M 4447 4306 
L 4319 3641 
Q 4019 3944 3683 4091 
Q 3347 4238 2956 4238 
Q 2422 4238 2017 3981 
Q 1613 3725 1319 3200 
Q 1131 2863 1032 2486 
Q 934 2109 934 1728 
Q 934 1091 1264 756 
Q 1594 422 2222 422 
Q 2656 422 3056 561 
Q 3456 700 3834 978 
L 3688 231 
Q 3316 72 2936 -9 
Q 2556 -91 2175 -91 
Q 1278 -91 773 396 
Q 269 884 269 1753 
Q 269 2309 461 2846 
Q 653 3384 1013 3828 
Q 1394 4300 1883 4525 
Q 2372 4750 3022 4750 
Q 3422 4750 3780 4639 
Q 4138 4528 4447 4306 
z
" transform="scale(0.015625)"/>
      <path id="DejaVuSans-3d" d="M 678 2906 
L 4684 2906 
L 4684 2381 
L 678 2381 
L 678 2906 
z
M 678 1631 
L 4684 1631 
L 4684 1100 
L 678 1100 
L 678 1631 
z
" transform="scale(0.015625)"/>
      <path id="DejaVuSans-32" d="M 1228 531 
L 3431 531 
L 3431 0 
L 469 0 
L 469 531 
Q 828 903 1448 1529 
Q 2069 2156 2228 2338 
Q 2531 2678 2651 2914 
Q 2772 3150 2772 3378 
Q 2772 3750 2511 3984 
Q 2250 4219 1831 4219 
Q 1534 4219 1204 4116 
Q 875 4013 500 3803 
L 500 4441 
Q 881 4594 1212 4672 
Q 1544 4750 1819 4750 
Q 2544 4750 2975 4387 
Q 3406 4025 3406 3419 
Q 3406 3131 3298 2873 
Q 3191 2616 2906 2266 
Q 2828 2175 2409 1742 
Q 1991 1309 1228 531 
z
" transform="scale(0.015625)"/>
      <path id="DejaVuSans-2f" d="M 1625 4666 
L 2156 4666 
L 531 -594 
L 0 -594 
L 1625 4666 
z
" transform="scale(0.015625)"/>
      <path id="DejaVuSans-33" d="M 2597 2516 
Q 3050 2419 3304 2112 
Q 3559 1806 3559 1356 
Q 3559 666 3084 287 
Q 2609 -91 1734 -91 
Q 1441 -91 1130 -33 
Q 819 25 488 141 
L 488 750 
Q 750 597 1062 519 
Q 1375 441 1716 441 
Q 2309 441 2620 675 
Q 2931 909 2931 1356 
Q 2931 1769 2642 2001 
Q 2353 2234 1838 2234 
L 1294 2234 
L 1294 2753 
L 1863 2753 
Q 2328 2753 2575 2939 
Q 2822 3125 2822 3475 
Q 2822 3834 2567 4026 
Q 2313 4219 1838 4219 
Q 1578 4219 1281 4162 
Q 984 4106 628 3988 
L 628 4550 
Q 988 4650 1302 4700 
Q 1616 4750 1894 4750 
Q 2613 4750 3031 4423 
Q 3450 4097 3450 3541 
Q 3450 3153 3228 2886 
Q 3006 2619 2597 2516 
z
" transform="scale(0.015625)"/>
      <path id="DejaVuSans-2248" d="M 4684 1947 
L 4684 1388 
Q 4356 1144 4076 1036 
Q 3797 928 3494 928 
Q 3150 928 2694 1113 
Q 2663 1125 2641 1134 
Q 2622 1141 2575 1159 
Q 2091 1350 1797 1350 
Q 1522 1350 1253 1231 
Q 984 1113 678 850 
L 678 1409 
Q 1006 1653 1286 1761 
Q 1566 1869 1869 1869 
Q 2213 1869 2672 1684 
Q 2706 1669 2722 1663 
Q 2741 1656 2788 1638 
Q 3272 1447 3566 1447 
Q 3834 1447 4098 1564 
Q 4363 1681 4684 1947 
z
M 4684 3163 
L 4684 2606 
Q 4356 2359 4076 2251 
Q 3797 2144 3494 2144 
Q 3150 2144 2694 2328 
Q 2663 2341 2641 2350 
Q 2622 2356 2575 2375 
Q 2091 2566 1797 2566 
Q 1522 2566 1253 2447 
Q 984 2328 678 2069 
L 678 2625 
Q 1006 2869 1286 2976 
Q 1566 3084 1869 3084 
Q 2213 3084 2672 2900 
Q 2703 2888 2719 2881 
Q 2741 2872 2788 2853 
Q 3272 2663 3566 2663 
Q 3834 2663 4098 2780 
Q 4363 2897 4684 3163 
z
" transform="scale(0.015625)"/>
      <path id="DejaVuSans-30" d="M 2034 4250 
Q 1547 4250 1301 3770 
Q 1056 3291 1056 2328 
Q 1056 1369 1301 889 
Q 1547 409 2034 409 
Q 2525 409 2770 889 
Q 3016 1369 3016 2328 
Q 3016 3291 2770 3770 
Q 2525 4250 2034 4250 
z
M 2034 4750 
Q 2819 4750 3233 4129 
Q 3647 3509 3647 2328 
Q 3647 1150 3233 529 
Q 2819 -91 2034 -91 
Q 1250 -91 836 529 
Q 422 1150 422 2328 
Q 422 3509 836 4129 
Q 1250 4750 2034 4750 
z
" transform="scale(0.015625)"/>
      <path id="DejaVuSans-2e" d="M 684 794 
L 1344 794 
L 1344 0 
L 684 0 
L 684 794 
z
" transform="scale(0.015625)"/>
      <path id="DejaVuSans-36" d="M 2113 2584 
Q 1688 2584 1439 2293 
Q 1191 2003 1191 1497 
Q 1191 994 1439 701 
Q 1688 409 2113 409 
Q 2538 409 2786 701 
Q 3034 994 3034 1497 
Q 3034 2003 2786 2293 
Q 2538 2584 2113 2584 
z
M 3366 4563 
L 3366 3988 
Q 3128 4100 2886 4159 
Q 2644 4219 2406 4219 
Q 1781 4219 1451 3797 
Q 1122 3375 1075 2522 
Q 1259 2794 1537 2939 
Q 1816 3084 2150 3084 
Q 2853 3084 3261 2657 
Q 3669 2231 3669 1497 
Q 3669 778 3244 343 
Q 2819 -91 2113 -91 
Q 1303 -91 875 529 
Q 447 1150 447 2328 
Q 447 3434 972 4092 
Q 1497 4750 2381 4750 
Q 2619 4750 2861 4703 
Q 3103 4656 3366 4563 
z
" transform="scale(0.015625)"/>
      <path id="DejaVuSans-37" d="M 525 4666 
L 3525 4666 
L 3525 4397 
L 1831 0 
L 1172 0 
L 2766 4134 
L 525 4134 
L 525 4666 
z
" transform="scale(0.015625)"/>
     </defs>
     <use xlink:href="#DejaVuSans-302" transform="translate(69.03418 31.015625)"/>
     <use xlink:href="#DejaVuSans-Oblique-43" transform="translate(0 0.296875)"/>
     <use xlink:href="#DejaVuSans-3d" transform="translate(89.306641 0.296875)"/>
     <use xlink:href="#DejaVuSans-32" transform="translate(192.578125 0.296875)"/>
     <use xlink:href="#DejaVuSans-2f" transform="translate(256.201172 0.296875)"/>
     <use xlink:href="#DejaVuSans-33" transform="translate(289.892578 0.296875)"/>
     <use xlink:href="#DejaVuSans-2248" transform="translate(372.998047 0.296875)"/>
     <use xlink:href="#DejaVuSans-30" transform="translate(476.269531 0.296875)"/>
     <use xlink:href="#DejaVuSans-2e" transform="translate(539.892578 0.296875)"/>
     <use xlink:href="#DejaVuSans-36" transform="translate(571.679688 0.296875)"/>
     <use xlink:href="#DejaVuSans-37" transform="translate(635.302734 0.296875)"/>
    </g>
   </g>
   <g id="text_16">
    <!-- C-index: does the riskier patient fail first? -->
    <g style="fill: #0e1f1b" transform="translate(125.815406 19.483313) scale(0.174 -0.174)">
     <defs>
      <path id="EBGaramond-Regular-43" d="M 2605 -96 
Q 2157 -96 1741 57 
Q 1325 211 998 496 
Q 672 781 483 1181 
Q 294 1581 294 2067 
Q 294 2534 492 2931 
Q 691 3328 1036 3622 
Q 1382 3917 1827 4080 
Q 2272 4243 2765 4243 
Q 3014 4243 3187 4224 
Q 3360 4205 3523 4169 
Q 3686 4134 3904 4077 
Q 4000 4051 4041 4000 
Q 4083 3949 4090 3859 
Q 4102 3712 4121 3542 
Q 4141 3373 4147 3123 
Q 4154 3078 4106 3049 
Q 4058 3021 4003 3033 
Q 3949 3046 3930 3117 
Q 3866 3360 3782 3536 
Q 3699 3712 3533 3827 
Q 3373 3936 3145 3990 
Q 2918 4045 2656 4045 
Q 2285 4045 1968 3894 
Q 1651 3744 1424 3485 
Q 1197 3226 1069 2899 
Q 941 2573 941 2221 
Q 941 1830 1065 1452 
Q 1190 1075 1424 771 
Q 1658 467 1981 284 
Q 2304 102 2701 102 
Q 3162 102 3462 313 
Q 3763 525 3974 902 
Q 4019 986 4105 986 
Q 4192 986 4192 883 
Q 4192 832 4166 720 
Q 4141 608 4099 483 
Q 4058 358 4019 262 
Q 3974 173 3945 147 
Q 3917 122 3814 90 
Q 3578 -6 3248 -51 
Q 2918 -96 2605 -96 
z
" transform="scale(0.015625)"/>
      <path id="EBGaramond-Regular-2d" d="M 224 1088 
Q 186 1088 186 1126 
Q 186 1235 214 1350 
Q 243 1466 288 1472 
Q 595 1517 902 1558 
Q 1210 1600 1517 1632 
Q 1536 1632 1552 1622 
Q 1568 1613 1568 1594 
Q 1568 1472 1539 1366 
Q 1510 1261 1434 1248 
Q 1146 1203 848 1161 
Q 550 1120 224 1088 
z
" transform="scale(0.015625)"/>
      <path id="EBGaramond-Regular-6e" d="M 282 -19 
Q 224 -19 189 -3 
Q 154 13 154 51 
Q 154 102 192 118 
Q 230 134 301 154 
Q 397 179 486 224 
Q 576 269 576 397 
L 576 1773 
Q 576 1946 541 2067 
Q 506 2189 339 2234 
Q 314 2246 294 2262 
Q 275 2278 275 2317 
Q 275 2387 333 2394 
Q 557 2451 697 2534 
Q 838 2618 973 2720 
Q 992 2733 1008 2742 
Q 1024 2752 1043 2752 
Q 1056 2752 1065 2739 
Q 1075 2726 1075 2707 
Q 1075 2662 1059 2524 
Q 1043 2387 1043 2298 
Q 1043 2272 1046 2249 
Q 1050 2227 1056 2221 
Q 1280 2432 1533 2541 
Q 1786 2650 2086 2650 
Q 2400 2650 2605 2394 
Q 2810 2138 2810 1760 
L 2810 397 
Q 2810 269 2899 227 
Q 2989 186 3085 154 
Q 3136 134 3184 112 
Q 3232 90 3232 38 
Q 3232 0 3187 -9 
Q 3142 -19 3104 -19 
Q 2976 -19 2905 -9 
Q 2835 0 2771 6 
Q 2707 13 2592 13 
Q 2483 13 2412 6 
Q 2342 0 2268 -9 
Q 2195 -19 2067 -19 
Q 2035 -19 1987 -9 
Q 1939 0 1939 38 
Q 1939 90 1987 112 
Q 2035 134 2086 154 
Q 2182 186 2272 227 
Q 2362 269 2362 397 
L 2362 1741 
Q 2362 2022 2205 2179 
Q 2048 2336 1786 2342 
Q 1555 2342 1382 2268 
Q 1210 2195 1075 2086 
Q 1050 2061 1037 2019 
Q 1024 1978 1024 1939 
L 1024 397 
Q 1024 269 1113 224 
Q 1203 179 1299 154 
Q 1446 115 1446 51 
Q 1446 13 1414 -3 
Q 1382 -19 1318 -19 
Q 1190 -19 1116 -9 
Q 1043 0 979 6 
Q 915 13 800 13 
Q 691 13 624 6 
Q 557 0 483 -9 
Q 410 -19 282 -19 
z
" transform="scale(0.015625)"/>
      <path id="EBGaramond-Regular-78" d="M 192 -26 
Q 154 -26 109 -16 
Q 64 -6 64 32 
Q 64 83 112 108 
Q 160 134 211 147 
Q 307 179 406 252 
Q 506 326 640 512 
L 1133 1197 
Q 1178 1248 1174 1277 
Q 1171 1306 1146 1344 
L 621 2144 
Q 544 2272 483 2329 
Q 422 2387 326 2413 
Q 275 2426 227 2451 
Q 179 2477 179 2528 
Q 179 2579 240 2582 
Q 301 2586 326 2586 
Q 454 2586 502 2579 
Q 550 2573 614 2566 
Q 678 2560 832 2560 
Q 947 2560 998 2566 
Q 1050 2573 1158 2573 
Q 1184 2573 1245 2569 
Q 1306 2566 1306 2515 
Q 1306 2477 1270 2457 
Q 1235 2438 1190 2426 
Q 1146 2413 1101 2390 
Q 1056 2368 1056 2317 
Q 1056 2285 1078 2230 
Q 1101 2176 1139 2112 
L 1434 1670 
Q 1459 1626 1491 1670 
L 1818 2163 
Q 1843 2195 1856 2233 
Q 1869 2272 1869 2304 
Q 1869 2381 1786 2406 
Q 1734 2426 1686 2451 
Q 1638 2477 1638 2522 
Q 1638 2573 1699 2576 
Q 1760 2579 1786 2579 
Q 1837 2579 1933 2569 
Q 2029 2560 2106 2560 
Q 2285 2560 2355 2576 
Q 2426 2592 2509 2592 
Q 2547 2592 2592 2582 
Q 2637 2573 2637 2534 
Q 2637 2490 2589 2464 
Q 2541 2438 2490 2419 
Q 2394 2394 2259 2320 
Q 2125 2246 2035 2118 
L 1632 1510 
Q 1626 1498 1622 1475 
Q 1619 1453 1638 1427 
L 2259 416 
Q 2336 294 2406 236 
Q 2477 179 2573 147 
Q 2624 134 2672 108 
Q 2720 83 2720 32 
Q 2720 -6 2675 -16 
Q 2630 -26 2592 -26 
Q 2464 -26 2406 -19 
Q 2349 -13 2281 -6 
Q 2214 0 2054 0 
Q 1939 0 1817 -6 
Q 1696 -13 1587 -13 
Q 1440 -13 1440 51 
Q 1440 109 1481 134 
Q 1523 160 1600 179 
Q 1670 198 1724 233 
Q 1779 269 1779 333 
Q 1779 358 1769 387 
Q 1760 416 1741 448 
L 1363 1062 
Q 1344 1082 1325 1062 
L 902 429 
Q 896 416 883 381 
Q 870 346 870 307 
Q 870 262 892 220 
Q 915 179 960 166 
Q 1011 147 1059 124 
Q 1107 102 1107 51 
Q 1107 6 1046 0 
Q 986 -6 960 -6 
Q 909 -6 803 0 
Q 698 6 621 6 
Q 442 6 362 -10 
Q 282 -26 192 -26 
z
" transform="scale(0.015625)"/>
      <path id="EBGaramond-Regular-3a" d="M 800 1702 
Q 659 1702 553 1808 
Q 448 1914 448 2054 
Q 448 2202 553 2304 
Q 659 2406 800 2406 
Q 947 2406 1049 2304 
Q 1152 2202 1152 2054 
Q 1152 1914 1049 1808 
Q 947 1702 800 1702 
z
M 800 -90 
Q 659 -90 553 16 
Q 448 122 448 262 
Q 448 410 553 512 
Q 659 614 800 614 
Q 947 614 1049 512 
Q 1152 410 1152 262 
Q 1152 122 1049 16 
Q 947 -90 800 -90 
z
" transform="scale(0.015625)"/>
      <path id="EBGaramond-Regular-70" d="M 256 -1824 
Q 224 -1824 173 -1814 
Q 122 -1805 122 -1766 
Q 122 -1715 170 -1692 
Q 218 -1670 269 -1651 
Q 365 -1619 454 -1577 
Q 544 -1536 544 -1408 
L 544 1837 
Q 544 1888 515 1990 
Q 486 2093 422 2189 
Q 358 2285 250 2304 
Q 224 2310 211 2336 
Q 198 2362 198 2387 
Q 198 2419 211 2438 
Q 224 2458 243 2464 
Q 486 2522 659 2589 
Q 832 2656 986 2720 
Q 992 2720 992 2723 
Q 992 2726 998 2726 
Q 1011 2726 1024 2707 
Q 1037 2688 1037 2669 
Q 1037 2611 1021 2486 
Q 1005 2362 1005 2285 
Q 1005 2234 1011 2227 
Q 1075 2291 1244 2390 
Q 1414 2490 1632 2570 
Q 1850 2650 2048 2650 
Q 2381 2650 2614 2474 
Q 2848 2298 2973 2019 
Q 3098 1741 3098 1440 
Q 3098 1152 2989 880 
Q 2880 608 2681 390 
Q 2483 173 2220 41 
Q 1958 -90 1658 -90 
Q 1568 -90 1443 -61 
Q 1318 -32 1200 13 
Q 1082 58 1018 115 
Q 1011 115 1004 41 
Q 998 -32 995 -112 
Q 992 -192 992 -211 
L 992 -1408 
Q 992 -1491 1059 -1539 
Q 1126 -1587 1212 -1609 
Q 1299 -1632 1363 -1651 
Q 1414 -1670 1462 -1692 
Q 1510 -1715 1510 -1766 
Q 1510 -1805 1459 -1814 
Q 1408 -1824 1370 -1824 
Q 1184 -1824 1059 -1808 
Q 934 -1792 768 -1792 
Q 659 -1792 592 -1798 
Q 525 -1805 454 -1814 
Q 384 -1824 256 -1824 
z
M 1754 109 
Q 1850 109 1987 166 
Q 2125 224 2262 352 
Q 2400 480 2493 697 
Q 2586 915 2586 1235 
Q 2586 1606 2490 1830 
Q 2394 2054 2253 2169 
Q 2112 2285 1965 2323 
Q 1818 2362 1715 2362 
Q 1562 2362 1398 2298 
Q 1235 2234 1123 2154 
Q 1011 2074 1011 2029 
Q 1011 1888 1008 1744 
Q 1005 1600 1001 1465 
Q 998 1331 995 1225 
Q 992 1120 992 1062 
Q 992 806 1110 588 
Q 1229 371 1405 240 
Q 1581 109 1754 109 
z
" transform="scale(0.015625)"/>
      <path id="EBGaramond-Regular-66" d="M 282 -19 
Q 218 -19 186 -3 
Q 154 13 154 51 
Q 154 102 195 121 
Q 237 141 301 154 
Q 448 186 512 246 
Q 576 307 576 435 
L 576 2240 
Q 512 2240 429 2243 
Q 346 2246 243 2253 
Q 224 2259 189 2297 
Q 154 2336 154 2368 
Q 154 2381 173 2390 
Q 192 2400 198 2406 
Q 314 2464 397 2509 
Q 480 2554 576 2598 
Q 576 3155 713 3526 
Q 851 3898 1068 4115 
Q 1286 4333 1529 4425 
Q 1773 4518 1984 4518 
Q 2342 4518 2515 4409 
Q 2688 4301 2688 4134 
Q 2688 4006 2624 3942 
Q 2560 3878 2470 3878 
Q 2413 3878 2365 3923 
Q 2317 3968 2253 4026 
Q 2170 4109 2048 4182 
Q 1926 4256 1715 4256 
Q 1414 4256 1219 3993 
Q 1024 3731 1024 3187 
L 1024 2624 
Q 1024 2586 1046 2573 
Q 1069 2560 1094 2560 
L 1894 2560 
Q 1926 2560 1952 2541 
Q 1978 2522 1978 2490 
Q 1978 2445 1968 2393 
Q 1958 2342 1939 2304 
Q 1920 2253 1882 2253 
L 1146 2253 
Q 1069 2253 1046 2230 
Q 1024 2208 1024 2170 
L 1024 435 
Q 1024 307 1107 246 
Q 1190 186 1446 154 
Q 1594 134 1594 51 
Q 1594 13 1562 -3 
Q 1530 -19 1466 -19 
Q 1274 -19 1126 -3 
Q 979 13 813 13 
Q 704 13 633 6 
Q 563 0 486 -9 
Q 410 -19 282 -19 
z
" transform="scale(0.015625)"/>
      <path id="EBGaramond-Regular-3f" d="M 870 1158 
Q 838 1158 793 1212 
Q 749 1267 730 1344 
Q 704 1446 665 1564 
Q 627 1683 627 1901 
Q 627 2067 800 2195 
Q 973 2323 1274 2477 
Q 1408 2547 1536 2668 
Q 1664 2790 1664 2931 
Q 1664 3251 1504 3456 
Q 1344 3661 1018 3667 
Q 973 3667 937 3664 
Q 902 3661 870 3654 
Q 838 3648 803 3645 
Q 768 3642 717 3642 
Q 653 3642 589 3696 
Q 525 3750 486 3833 
Q 448 3917 448 4000 
Q 448 4090 534 4160 
Q 621 4230 704 4230 
Q 864 4230 1049 4150 
Q 1235 4070 1395 3910 
Q 1574 3731 1708 3504 
Q 1843 3277 1916 3059 
Q 1990 2842 1990 2675 
Q 1990 2438 1904 2313 
Q 1818 2189 1722 2138 
Q 1581 2061 1497 2013 
Q 1414 1965 1344 1923 
Q 1274 1882 1171 1811 
Q 1037 1728 1005 1593 
Q 973 1459 966 1306 
Q 966 1261 944 1209 
Q 922 1158 870 1158 
z
M 960 -90 
Q 800 -90 688 22 
Q 576 134 576 294 
Q 576 454 688 566 
Q 800 678 960 678 
Q 1120 678 1232 566 
Q 1344 454 1344 294 
Q 1344 134 1232 22 
Q 1120 -90 960 -90 
z
" transform="scale(0.015625)"/>
     </defs>
     <use xlink:href="#EBGaramond-Regular-43"/>
     <use xlink:href="#EBGaramond-Regular-2d" x="70.999985"/>
     <use xlink:href="#EBGaramond-Regular-69" x="98.399979"/>
     <use xlink:href="#EBGaramond-Regular-6e" x="122.899963"/>
     <use xlink:href="#EBGaramond-Regular-64" x="175.699951"/>
     <use xlink:href="#EBGaramond-Regular-65" x="226.299942"/>
     <use xlink:href="#EBGaramond-Regular-78" x="265.299927"/>
     <use xlink:href="#EBGaramond-Regular-3a" x="308.299911"/>
     <use xlink:href="#EBGaramond-Regular-20" x="333.099899"/>
     <use xlink:href="#EBGaramond-Regular-64" x="353.099884"/>
     <use xlink:href="#EBGaramond-Regular-6f" x="403.699875"/>
     <use xlink:href="#EBGaramond-Regular-65" x="453.19986"/>
     <use xlink:href="#EBGaramond-Regular-73" x="492.199844"/>
     <use xlink:href="#EBGaramond-Regular-20" x="524.499832"/>
     <use xlink:href="#EBGaramond-Regular-74" x="544.499817"/>
     <use xlink:href="#EBGaramond-Regular-68" x="575.899811"/>
     <use xlink:href="#EBGaramond-Regular-65" x="627.399796"/>
     <use xlink:href="#EBGaramond-Regular-20" x="666.39978"/>
     <use xlink:href="#EBGaramond-Regular-72" x="686.399765"/>
     <use xlink:href="#EBGaramond-Regular-69" x="719.799759"/>
     <use xlink:href="#EBGaramond-Regular-73" x="744.299744"/>
     <use xlink:href="#EBGaramond-Regular-6b" x="776.599731"/>
     <use xlink:href="#EBGaramond-Regular-69" x="823.499725"/>
     <use xlink:href="#EBGaramond-Regular-65" x="847.99971"/>
     <use xlink:href="#EBGaramond-Regular-72" x="886.999695"/>
     <use xlink:href="#EBGaramond-Regular-20" x="920.399689"/>
     <use xlink:href="#EBGaramond-Regular-70" x="940.399673"/>
     <use xlink:href="#EBGaramond-Regular-61" x="992.299667"/>
     <use xlink:href="#EBGaramond-Regular-74" x="1032.199661"/>
     <use xlink:href="#EBGaramond-Regular-69" x="1063.599655"/>
     <use xlink:href="#EBGaramond-Regular-65" x="1088.09964"/>
     <use xlink:href="#EBGaramond-Regular-6e" x="1127.099625"/>
     <use xlink:href="#EBGaramond-Regular-74" x="1179.899612"/>
     <use xlink:href="#EBGaramond-Regular-20" x="1211.299606"/>
     <use xlink:href="#EBGaramond-Regular-66" x="1231.299591"/>
     <use xlink:href="#EBGaramond-Regular-61" x="1263.099579"/>
     <use xlink:href="#EBGaramond-Regular-69" x="1302.999573"/>
     <use xlink:href="#EBGaramond-Regular-6c" x="1327.499557"/>
     <use xlink:href="#EBGaramond-Regular-20" x="1351.499542"/>
     <use xlink:href="#EBGaramond-Regular-66" x="1371.499527"/>
     <use xlink:href="#EBGaramond-Regular-69" x="1403.299515"/>
     <use xlink:href="#EBGaramond-Regular-72" x="1427.7995"/>
     <use xlink:href="#EBGaramond-Regular-73" x="1461.199493"/>
     <use xlink:href="#EBGaramond-Regular-74" x="1493.499481"/>
     <use xlink:href="#EBGaramond-Regular-3f" x="1524.899475"/>
    </g>
   </g>
   <g id="text_17">
    <!-- A -->
    <g style="fill: #ffffff" transform="translate(130.782078 58.208313) scale(0.11 -0.11)">
     <defs>
      <path id="EBGaramond-Regular-41" d="M 173 -32 
Q 90 -32 38 -9 
Q -13 13 -13 51 
Q -13 96 41 131 
Q 96 166 198 198 
Q 365 250 505 352 
Q 646 454 749 691 
Q 928 1101 1078 1459 
Q 1229 1818 1363 2163 
Q 1498 2509 1642 2883 
Q 1786 3258 1946 3699 
Q 1978 3789 2003 3878 
Q 2029 3968 2035 4070 
Q 2093 4090 2150 4109 
Q 2208 4128 2266 4166 
Q 2323 4205 2345 4281 
Q 2368 4358 2387 4384 
Q 2394 4390 2403 4390 
Q 2413 4390 2419 4378 
Q 2432 4352 2441 4313 
Q 2451 4275 2464 4237 
Q 2618 3750 2784 3244 
Q 2950 2739 3107 2268 
Q 3264 1798 3395 1424 
Q 3526 1050 3603 819 
Q 3693 563 3795 435 
Q 3898 307 4010 256 
Q 4122 205 4250 179 
Q 4358 160 4409 118 
Q 4461 77 4461 32 
Q 4461 -6 4409 -19 
Q 4358 -32 4275 -32 
Q 4186 -32 4032 -22 
Q 3878 -13 3705 -3 
Q 3533 6 3386 6 
Q 3264 6 3136 6 
Q 3008 6 2899 3 
Q 2790 0 2714 0 
Q 2630 0 2579 19 
Q 2528 38 2528 77 
Q 2528 122 2592 154 
Q 2656 186 2739 198 
Q 2950 230 3040 307 
Q 3130 384 3130 486 
Q 3130 582 3088 764 
Q 3046 947 2988 1155 
Q 2931 1363 2880 1523 
Q 2867 1574 2832 1584 
Q 2797 1594 2707 1594 
L 1498 1594 
Q 1472 1594 1443 1571 
Q 1414 1549 1389 1478 
Q 1370 1414 1325 1276 
Q 1280 1139 1235 985 
Q 1190 832 1158 710 
Q 1126 589 1126 557 
Q 1126 416 1235 323 
Q 1344 230 1498 192 
Q 1709 134 1709 64 
Q 1709 26 1657 10 
Q 1606 -6 1523 -6 
Q 1440 -6 1280 0 
Q 1120 6 941 6 
Q 730 6 531 -13 
Q 333 -32 173 -32 
z
M 1670 1805 
L 2662 1805 
Q 2752 1805 2752 1837 
Q 2752 1850 2749 1866 
Q 2746 1882 2739 1901 
L 2240 3462 
Q 2202 3578 2182 3578 
Q 2170 3578 2131 3469 
L 1549 1901 
Q 1536 1862 1536 1850 
Q 1536 1818 1571 1811 
Q 1606 1805 1670 1805 
z
" transform="scale(0.015625)"/>
     </defs>
     <use xlink:href="#EBGaramond-Regular-41"/>
    </g>
   </g>
   <g id="text_18">
    <!-- B -->
    <g style="fill: #ffffff" transform="translate(258.526953 159.591646) scale(0.11 -0.11)">
     <defs>
      <path id="EBGaramond-Regular-42" d="M 307 -32 
Q 224 -32 173 -16 
Q 122 0 122 38 
Q 122 115 333 154 
Q 576 198 704 300 
Q 832 403 832 634 
L 832 3514 
Q 832 3744 736 3853 
Q 640 3962 403 3981 
Q 294 3994 243 4029 
Q 192 4064 192 4109 
Q 192 4147 243 4163 
Q 294 4179 378 4179 
Q 550 4179 646 4179 
Q 742 4179 828 4176 
Q 915 4173 1043 4173 
Q 1165 4173 1254 4182 
Q 1344 4192 1456 4198 
Q 1568 4205 1754 4205 
Q 2502 4205 2870 3990 
Q 3238 3776 3238 3251 
Q 3238 3034 3164 2870 
Q 3091 2707 3021 2637 
Q 2918 2534 2835 2480 
Q 2752 2426 2592 2362 
Q 2566 2355 2566 2332 
Q 2566 2310 2592 2298 
Q 2739 2253 2896 2182 
Q 3053 2112 3190 2000 
Q 3328 1888 3414 1705 
Q 3501 1523 3501 1242 
Q 3501 890 3389 685 
Q 3277 480 3123 371 
Q 2970 262 2835 192 
Q 2637 90 2374 32 
Q 2112 -26 1747 -26 
Q 1664 -26 1497 -13 
Q 1331 0 1139 0 
Q 973 0 857 -6 
Q 742 -13 617 -22 
Q 493 -32 307 -32 
z
M 1837 237 
Q 2118 237 2361 365 
Q 2605 493 2752 713 
Q 2899 934 2899 1210 
Q 2899 1459 2816 1622 
Q 2733 1786 2624 1888 
Q 2515 1990 2426 2035 
Q 2342 2086 2163 2140 
Q 1984 2195 1696 2195 
Q 1491 2195 1411 2112 
Q 1331 2029 1331 1965 
L 1331 691 
Q 1331 422 1462 329 
Q 1594 237 1837 237 
z
M 1626 2374 
Q 1798 2374 2000 2412 
Q 2202 2451 2400 2560 
Q 2470 2598 2579 2745 
Q 2688 2893 2688 3168 
Q 2688 3354 2617 3549 
Q 2547 3744 2348 3878 
Q 2150 4013 1754 4013 
Q 1491 4013 1411 3942 
Q 1331 3872 1331 3725 
L 1331 2611 
Q 1331 2445 1440 2409 
Q 1549 2374 1626 2374 
z
" transform="scale(0.015625)"/>
     </defs>
     <use xlink:href="#EBGaramond-Regular-42"/>
    </g>
   </g>
   <g id="text_19">
    <!-- C -->
    <g style="fill: #0e1f1b" transform="translate(385.018 98.761646) scale(0.11 -0.11)">
     <use xlink:href="#EBGaramond-Regular-43"/>
    </g>
   </g>
   <g id="legend_1">
    <g id="line2d_23">
     <path d="M 327.146875 39.288313 
L 338.146875 39.288313 
L 349.146875 39.288313 
" style="fill: none; stroke: #2f8a5f; stroke-width: 2.4; stroke-linecap: square"/>
    </g>
    <g id="text_20">
     <!-- concordant (right order) -->
     <g style="fill: #33463f" transform="translate(357.946875 43.138313) scale(0.11 -0.11)">
      <defs>
       <path id="EBGaramond-Regular-67" d="M 1248 -1856 
Q 704 -1856 387 -1648 
Q 70 -1440 70 -1088 
Q 70 -922 121 -806 
Q 173 -691 282 -608 
Q 371 -531 521 -412 
Q 672 -294 832 -166 
L 1101 -179 
Q 794 -378 672 -557 
Q 550 -736 550 -992 
Q 550 -1248 777 -1424 
Q 1005 -1600 1338 -1600 
Q 1715 -1600 1946 -1427 
Q 2106 -1306 2195 -1110 
Q 2285 -915 2285 -698 
Q 2285 -557 2185 -464 
Q 2086 -371 1875 -313 
Q 1664 -256 1325 -237 
Q 723 -192 489 -77 
Q 256 38 256 282 
Q 256 346 291 400 
Q 326 454 403 518 
Q 550 634 620 688 
Q 691 742 726 780 
Q 762 819 794 877 
L 1011 768 
Q 870 717 774 630 
Q 678 544 678 474 
Q 678 384 774 317 
Q 870 250 1056 211 
Q 1242 173 1510 154 
Q 2099 122 2387 -38 
Q 2675 -198 2675 -493 
Q 2675 -742 2550 -982 
Q 2426 -1222 2221 -1420 
Q 2016 -1619 1763 -1737 
Q 1510 -1856 1248 -1856 
z
M 1325 902 
Q 1568 902 1728 1148 
Q 1888 1395 1888 1760 
Q 1888 1946 1801 2109 
Q 1715 2272 1577 2371 
Q 1440 2470 1280 2470 
Q 1133 2470 1001 2364 
Q 870 2259 790 2092 
Q 710 1926 710 1728 
Q 710 1504 793 1315 
Q 877 1126 1017 1014 
Q 1158 902 1325 902 
z
M 1286 678 
Q 1024 678 787 812 
Q 550 947 400 1168 
Q 250 1389 250 1651 
Q 250 1952 406 2179 
Q 563 2406 819 2534 
Q 1075 2662 1363 2662 
Q 1549 2662 1686 2614 
Q 1824 2566 1958 2528 
Q 2112 2483 2201 2473 
Q 2291 2464 2387 2464 
Q 2464 2464 2579 2473 
Q 2694 2483 2739 2483 
Q 2822 2483 2822 2387 
Q 2822 2330 2758 2266 
Q 2726 2234 2707 2234 
L 2534 2234 
Q 2362 2234 2342 2182 
Q 2336 2157 2326 2109 
Q 2317 2061 2310 2003 
Q 2304 1946 2304 1888 
Q 2304 1562 2163 1286 
Q 2022 1011 1792 844 
Q 1562 678 1286 678 
z
" transform="scale(0.015625)"/>
      </defs>
      <use xlink:href="#EBGaramond-Regular-63"/>
      <use xlink:href="#EBGaramond-Regular-6f" x="40.699997"/>
      <use xlink:href="#EBGaramond-Regular-6e" x="90.199982"/>
      <use xlink:href="#EBGaramond-Regular-63" x="142.999969"/>
      <use xlink:href="#EBGaramond-Regular-6f" x="183.699966"/>
      <use xlink:href="#EBGaramond-Regular-72" x="233.199951"/>
      <use xlink:href="#EBGaramond-Regular-64" x="266.599945"/>
      <use xlink:href="#EBGaramond-Regular-61" x="317.199936"/>
      <use xlink:href="#EBGaramond-Regular-6e" x="357.09993"/>
      <use xlink:href="#EBGaramond-Regular-74" x="409.899918"/>
      <use xlink:href="#EBGaramond-Regular-20" x="441.299911"/>
      <use xlink:href="#EBGaramond-Regular-28" x="461.299896"/>
      <use xlink:href="#EBGaramond-Regular-72" x="492.799881"/>
      <use xlink:href="#EBGaramond-Regular-69" x="526.199875"/>
      <use xlink:href="#EBGaramond-Regular-67" x="550.69986"/>
      <use xlink:href="#EBGaramond-Regular-68" x="594.199844"/>
      <use xlink:href="#EBGaramond-Regular-74" x="645.699829"/>
      <use xlink:href="#EBGaramond-Regular-20" x="677.099823"/>
      <use xlink:href="#EBGaramond-Regular-6f" x="697.099808"/>
      <use xlink:href="#EBGaramond-Regular-72" x="746.599792"/>
      <use xlink:href="#EBGaramond-Regular-64" x="779.999786"/>
      <use xlink:href="#EBGaramond-Regular-65" x="830.599777"/>
      <use xlink:href="#EBGaramond-Regular-72" x="869.599762"/>
      <use xlink:href="#EBGaramond-Regular-29" x="902.999756"/>
     </g>
    </g>
    <g id="line2d_24">
     <path d="M 327.146875 55.733313 
L 338.146875 55.733313 
L 349.146875 55.733313 
" style="fill: none; stroke: #b23a24; stroke-width: 2.4; stroke-linecap: square"/>
    </g>
    <g id="text_21">
     <!-- discordant (wrong order) -->
     <g style="fill: #33463f" transform="translate(357.946875 59.583313) scale(0.11 -0.11)">
      <defs>
       <path id="EBGaramond-Regular-77" d="M 1446 -147 
Q 1434 -147 1421 -134 
Q 1408 -122 1402 -102 
L 512 2106 
Q 467 2234 371 2314 
Q 275 2394 179 2419 
Q 128 2438 80 2464 
Q 32 2490 32 2534 
Q 32 2573 80 2582 
Q 128 2592 160 2592 
Q 243 2592 316 2585 
Q 390 2579 467 2569 
Q 544 2560 627 2560 
Q 717 2560 806 2569 
Q 896 2579 982 2585 
Q 1069 2592 1158 2592 
Q 1184 2592 1235 2582 
Q 1286 2573 1286 2534 
Q 1286 2490 1238 2464 
Q 1190 2438 1139 2419 
Q 1075 2400 1040 2326 
Q 1005 2253 1005 2163 
Q 1005 2080 1037 1997 
L 1536 710 
Q 1542 685 1568 685 
Q 1594 685 1600 710 
L 2035 1747 
Q 2067 1830 2076 1907 
Q 2086 1984 2086 2054 
Q 2086 2195 1977 2284 
Q 1869 2374 1760 2419 
Q 1709 2438 1661 2464 
Q 1613 2490 1613 2534 
Q 1613 2573 1657 2582 
Q 1702 2592 1741 2592 
Q 1830 2592 1936 2576 
Q 2042 2560 2221 2560 
Q 2400 2560 2528 2576 
Q 2656 2592 2758 2592 
Q 2790 2592 2838 2582 
Q 2886 2573 2886 2534 
Q 2886 2490 2838 2464 
Q 2790 2438 2739 2419 
Q 2669 2394 2595 2349 
Q 2522 2304 2522 2189 
Q 2522 2150 2531 2102 
Q 2541 2054 2566 1997 
L 3046 762 
Q 3078 691 3098 691 
Q 3123 691 3149 755 
L 3635 1888 
Q 3661 1939 3670 2016 
Q 3680 2093 3680 2138 
Q 3680 2253 3603 2323 
Q 3526 2394 3456 2419 
Q 3405 2438 3357 2464 
Q 3309 2490 3309 2534 
Q 3309 2573 3357 2582 
Q 3405 2592 3437 2592 
Q 3578 2592 3661 2576 
Q 3744 2560 3917 2560 
Q 4038 2560 4089 2569 
Q 4141 2579 4179 2585 
Q 4218 2592 4288 2592 
Q 4326 2592 4371 2582 
Q 4416 2573 4416 2534 
Q 4416 2490 4368 2464 
Q 4320 2438 4269 2419 
Q 4173 2394 4083 2269 
Q 3994 2144 3930 1997 
L 3053 -102 
Q 3034 -147 2995 -147 
Q 2970 -147 2944 -102 
L 2278 1549 
Q 2259 1600 2240 1606 
Q 2221 1606 2195 1542 
L 1498 -102 
Q 1478 -147 1446 -147 
z
" transform="scale(0.015625)"/>
      </defs>
      <use xlink:href="#EBGaramond-Regular-64"/>
      <use xlink:href="#EBGaramond-Regular-69" x="50.599991"/>
      <use xlink:href="#EBGaramond-Regular-73" x="75.099976"/>
      <use xlink:href="#EBGaramond-Regular-63" x="107.399963"/>
      <use xlink:href="#EBGaramond-Regular-6f" x="148.09996"/>
      <use xlink:href="#EBGaramond-Regular-72" x="197.599945"/>
      <use xlink:href="#EBGaramond-Regular-64" x="230.999939"/>
      <use xlink:href="#EBGaramond-Regular-61" x="281.59993"/>
      <use xlink:href="#EBGaramond-Regular-6e" x="321.499924"/>
      <use xlink:href="#EBGaramond-Regular-74" x="374.299911"/>
      <use xlink:href="#EBGaramond-Regular-20" x="405.699905"/>
      <use xlink:href="#EBGaramond-Regular-28" x="425.69989"/>
      <use xlink:href="#EBGaramond-Regular-77" x="457.199875"/>
      <use xlink:href="#EBGaramond-Regular-72" x="525.69986"/>
      <use xlink:href="#EBGaramond-Regular-6f" x="559.099854"/>
      <use xlink:href="#EBGaramond-Regular-6e" x="608.599838"/>
      <use xlink:href="#EBGaramond-Regular-67" x="661.399826"/>
      <use xlink:href="#EBGaramond-Regular-20" x="704.899811"/>
      <use xlink:href="#EBGaramond-Regular-6f" x="724.899796"/>
      <use xlink:href="#EBGaramond-Regular-72" x="774.39978"/>
      <use xlink:href="#EBGaramond-Regular-64" x="807.799774"/>
      <use xlink:href="#EBGaramond-Regular-65" x="858.399765"/>
      <use xlink:href="#EBGaramond-Regular-72" x="897.39975"/>
      <use xlink:href="#EBGaramond-Regular-29" x="930.799744"/>
     </g>
    </g>
    <g id="line2d_25">
     <defs>
      <path id="m0cb7fbc7fa" d="M 0 5 
C 1.326016 5 2.597899 4.473168 3.535534 3.535534 
C 4.473168 2.597899 5 1.326016 5 0 
C 5 -1.326016 4.473168 -2.597899 3.535534 -3.535534 
C 2.597899 -4.473168 1.326016 -5 0 -5 
C -1.326016 -5 -2.597899 -4.473168 -3.535534 -3.535534 
C -4.473168 -2.597899 -5 -1.326016 -5 0 
C -5 1.326016 -4.473168 2.597899 -3.535534 3.535534 
C -2.597899 4.473168 -1.326016 5 0 5 
z
" style="stroke: #0e1f1b"/>
     </defs>
     <g>
      <use xlink:href="#m0cb7fbc7fa" x="338.146875" y="72.178313" style="fill: #0e1f1b; stroke: #0e1f1b"/>
     </g>
    </g>
    <g id="text_22">
     <!-- event observed -->
     <g style="fill: #33463f" transform="translate(357.946875 76.028313) scale(0.11 -0.11)">
      <use xlink:href="#EBGaramond-Regular-65"/>
      <use xlink:href="#EBGaramond-Regular-76" x="38.999985"/>
      <use xlink:href="#EBGaramond-Regular-65" x="82.799973"/>
      <use xlink:href="#EBGaramond-Regular-6e" x="121.799957"/>
      <use xlink:href="#EBGaramond-Regular-74" x="174.599945"/>
      <use xlink:href="#EBGaramond-Regular-20" x="205.999939"/>
      <use xlink:href="#EBGaramond-Regular-6f" x="225.999924"/>
      <use xlink:href="#EBGaramond-Regular-62" x="275.499908"/>
      <use xlink:href="#EBGaramond-Regular-73" x="326.999893"/>
      <use xlink:href="#EBGaramond-Regular-65" x="359.299881"/>
      <use xlink:href="#EBGaramond-Regular-72" x="398.299866"/>
      <use xlink:href="#EBGaramond-Regular-76" x="431.69986"/>
      <use xlink:href="#EBGaramond-Regular-65" x="475.499847"/>
      <use xlink:href="#EBGaramond-Regular-64" x="514.499832"/>
     </g>
    </g>
    <g id="line2d_26">
     <defs>
      <path id="mdfb33c8e10" d="M 0 5 
C 1.326016 5 2.597899 4.473168 3.535534 3.535534 
C 4.473168 2.597899 5 1.326016 5 0 
C 5 -1.326016 4.473168 -2.597899 3.535534 -3.535534 
C 2.597899 -4.473168 1.326016 -5 0 -5 
C -1.326016 -5 -2.597899 -4.473168 -3.535534 -3.535534 
C -4.473168 -2.597899 -5 -1.326016 -5 0 
C -5 1.326016 -4.473168 2.597899 -3.535534 3.535534 
C -2.597899 4.473168 -1.326016 5 0 5 
z
" style="stroke: #0e1f1b; stroke-width: 2"/>
     </defs>
     <g>
      <use xlink:href="#mdfb33c8e10" x="338.146875" y="88.568313" style="fill: #fbf7ef; stroke: #0e1f1b; stroke-width: 2"/>
     </g>
    </g>
    <g id="text_23">
     <!-- censored -->
     <g style="fill: #33463f" transform="translate(357.946875 92.418313) scale(0.11 -0.11)">
      <use xlink:href="#EBGaramond-Regular-63"/>
      <use xlink:href="#EBGaramond-Regular-65" x="40.699997"/>
      <use xlink:href="#EBGaramond-Regular-6e" x="79.699982"/>
      <use xlink:href="#EBGaramond-Regular-73" x="132.499969"/>
      <use xlink:href="#EBGaramond-Regular-6f" x="164.799957"/>
      <use xlink:href="#EBGaramond-Regular-72" x="214.299942"/>
      <use xlink:href="#EBGaramond-Regular-65" x="247.699936"/>
      <use xlink:href="#EBGaramond-Regular-64" x="286.699921"/>
     </g>
    </g>
   </g>
  </g>
 </g>
 <defs>
  <clipPath id="p041670df9e">
   <rect x="49.81" y="25.483313" width="423.89125" height="212.905"/>
  </clipPath>
 </defs>
</svg>
