<?xml version="1.0" encoding="utf-8" standalone="no"?>
<!DOCTYPE svg PUBLIC "-//W3C//DTD SVG 1.1//EN"
  "http://www.w3.org/Graphics/SVG/1.1/DTD/svg11.dtd">
<svg xmlns:xlink="http://www.w3.org/1999/xlink" width="503.61pt" height="290.53575pt" viewBox="0 0 503.61 290.53575" xmlns="http://www.w3.org/2000/svg" version="1.1">
 <metadata>
  <rdf:RDF xmlns:dc="http://purl.org/dc/elements/1.1/" xmlns:cc="http://creativecommons.org/ns#" xmlns:rdf="http://www.w3.org/1999/02/22-rdf-syntax-ns#">
   <cc:Work>
    <dc:type rdf:resource="http://purl.org/dc/dcmitype/StillImage"/>
    <dc:date>2026-07-16T21:25:06.106667</dc:date>
    <dc:format>image/svg+xml</dc:format>
    <dc:creator>
     <cc:Agent>
      <dc:title>Matplotlib v3.9.4, https://matplotlib.org/</dc:title>
     </cc:Agent>
    </dc:creator>
   </cc:Work>
  </rdf:RDF>
 </metadata>
 <defs>
  <style type="text/css">*{stroke-linejoin: round; stroke-linecap: butt}</style>
 </defs>
 <g id="figure_1">
  <g id="patch_1">
   <path d="M 0 290.53575 
L 503.61 290.53575 
L 503.61 0 
L 0 0 
z
" style="fill: #fbf7ef"/>
  </g>
  <g id="axes_1">
   <g id="patch_2">
    <path d="M 50.12 248.57575 
L 496.41 248.57575 
L 496.41 23.352 
L 50.12 23.352 
z
" style="fill: #fbf7ef"/>
   </g>
   <g id="PolyCollection_1">
    <defs>
     <path id="md9c0e97705" d="M 50.12 -41.96 
L 50.12 -71.989833 
L 52.362663 -72.423699 
L 54.605327 -72.85609 
L 56.84799 -73.287007 
L 59.090653 -73.716451 
L 61.333317 -74.144419 
L 63.57598 -74.570914 
L 65.818643 -74.995935 
L 68.061307 -75.419481 
L 70.30397 -75.841554 
L 72.546633 -76.262152 
L 74.789296 -76.681276 
L 77.03196 -77.098926 
L 79.274623 -77.515101 
L 81.517286 -77.929803 
L 83.75995 -78.34303 
L 86.002613 -78.754783 
L 88.245276 -79.165062 
L 90.48794 -79.573867 
L 92.730603 -79.981198 
L 94.973266 -80.387055 
L 97.21593 -80.791437 
L 99.458593 -81.194345 
L 101.701256 -81.59578 
L 103.94392 -81.99574 
L 106.186583 -82.394225 
L 108.429246 -82.791237 
L 110.67191 -83.186775 
L 112.914573 -83.580838 
L 115.157236 -83.973427 
L 117.399899 -84.364542 
L 119.642563 -84.754183 
L 121.885226 -85.14235 
L 124.127889 -85.529042 
L 126.370553 -85.914261 
L 128.613216 -86.298005 
L 130.855879 -86.680275 
L 133.098543 -87.061071 
L 135.341206 -87.440393 
L 137.583869 -87.818241 
L 139.826533 -88.194614 
L 142.069196 -88.569514 
L 144.311859 -88.942939 
L 146.554523 -89.31489 
L 148.797186 -89.685367 
L 151.039849 -90.054369 
L 153.282513 -90.421898 
L 155.525176 -90.787952 
L 157.767839 -91.152533 
L 160.010503 -91.515639 
L 162.253166 -91.877271 
L 164.495829 -92.237429 
L 166.738492 -92.596112 
L 168.981156 -92.953322 
L 171.223819 -93.309057 
L 173.466482 -93.663318 
L 175.709146 -94.016105 
L 177.951809 -94.367418 
L 180.194472 -94.717257 
L 182.437136 -95.065621 
L 184.679799 -95.412512 
L 186.922462 -95.757928 
L 189.165126 -96.10187 
L 191.407789 -96.444338 
L 193.650452 -96.785332 
L 195.893116 -97.124852 
L 198.135779 -97.462897 
L 200.378442 -97.799468 
L 202.621106 -98.134566 
L 204.863769 -98.468189 
L 207.106432 -98.800337 
L 209.349095 -99.131012 
L 211.591759 -99.460213 
L 213.834422 -99.787939 
L 216.077085 -100.114191 
L 218.319749 -100.43897 
L 220.562412 -100.762273 
L 222.805075 -101.084103 
L 225.047739 -101.404459 
L 227.290402 -101.72334 
L 229.533065 -102.040748 
L 231.775729 -102.356681 
L 234.018392 -102.67114 
L 236.261055 -102.984125 
L 238.503719 -103.295635 
L 240.746382 -103.605672 
L 242.989045 -103.914234 
L 245.231709 -104.221323 
L 247.474372 -104.526937 
L 249.717035 -104.831077 
L 251.959698 -105.133742 
L 254.202362 -105.434934 
L 256.445025 -105.734652 
L 258.687688 -106.032895 
L 260.930352 -106.329664 
L 263.173015 -106.624959 
L 265.415678 -106.91878 
L 267.658342 -107.211127 
L 269.901005 -107.501999 
L 272.143668 -107.791397 
L 274.386332 -108.079322 
L 276.628995 -108.365772 
L 278.871658 -108.650748 
L 281.114322 -108.934249 
L 283.356985 -109.216277 
L 285.599648 -109.496831 
L 287.842312 -109.77591 
L 290.084975 -110.053515 
L 292.327638 -110.329646 
L 294.570302 -110.604303 
L 296.812965 -110.877485 
L 299.055628 -111.149194 
L 301.298291 -111.419428 
L 303.540955 -111.688189 
L 305.783618 -111.955475 
L 308.026281 -112.221287 
L 310.268945 -112.485624 
L 312.511608 -112.748488 
L 314.754271 -113.009877 
L 316.996935 -113.269793 
L 319.239598 -113.528234 
L 321.482261 -113.785201 
L 323.724925 -114.040694 
L 325.967588 -114.294712 
L 328.210251 -114.547257 
L 330.452915 -114.798327 
L 332.695578 -115.047923 
L 334.938241 -115.296045 
L 337.180905 -115.542693 
L 339.423568 -115.787867 
L 341.666231 -116.031567 
L 343.908894 -116.273792 
L 346.151558 -116.514543 
L 348.394221 -116.753821 
L 350.636884 -116.991624 
L 352.879548 -117.227952 
L 355.122211 -117.462807 
L 357.364874 -117.696188 
L 359.607538 -117.928094 
L 361.850201 -118.158526 
L 364.092864 -118.387484 
L 366.335528 -118.614968 
L 368.578191 -118.840978 
L 370.820854 -119.065513 
L 373.063518 -119.288575 
L 375.306181 -119.510162 
L 377.548844 -119.730275 
L 379.791508 -119.948914 
L 382.034171 -120.166079 
L 384.276834 -120.38177 
L 386.519497 -120.595986 
L 388.762161 -120.808728 
L 391.004824 -121.019997 
L 393.247487 -121.229791 
L 395.490151 -121.438111 
L 397.732814 -121.644956 
L 399.975477 -121.850328 
L 402.218141 -122.054225 
L 404.460804 -122.256649 
L 406.703467 -122.457598 
L 408.946131 -122.657073 
L 411.188794 -122.855073 
L 413.431457 -123.0516 
L 415.674121 -123.246653 
L 417.916784 -123.440231 
L 420.159447 -123.632335 
L 422.402111 -123.822965 
L 424.644774 -124.012121 
L 426.887437 -124.199803 
L 429.130101 -124.38601 
L 431.372764 -124.570744 
L 433.615427 -124.754003 
L 435.85809 -124.935788 
L 438.100754 -125.116099 
L 440.343417 -125.294936 
L 442.58608 -125.472298 
L 444.828744 -125.648187 
L 447.071407 -125.822601 
L 449.31407 -125.995541 
L 451.556734 -126.167007 
L 453.799397 -126.336999 
L 456.04206 -126.505517 
L 458.284724 -126.672561 
L 460.527387 -126.83813 
L 462.77005 -127.002225 
L 465.012714 -127.164846 
L 467.255377 -127.325993 
L 469.49804 -127.485666 
L 471.740704 -127.643865 
L 473.983367 -127.800589 
L 476.22603 -127.955839 
L 478.468693 -128.109616 
L 480.711357 -128.261918 
L 482.95402 -128.412745 
L 485.196683 -128.562099 
L 487.439347 -128.709979 
L 489.68201 -128.856384 
L 491.924673 -129.001315 
L 494.167337 -129.144772 
L 496.41 -129.286755 
L 496.41 -41.96 
L 496.41 -41.96 
L 494.167337 -41.96 
L 491.924673 -41.96 
L 489.68201 -41.96 
L 487.439347 -41.96 
L 485.196683 -41.96 
L 482.95402 -41.96 
L 480.711357 -41.96 
L 478.468693 -41.96 
L 476.22603 -41.96 
L 473.983367 -41.96 
L 471.740704 -41.96 
L 469.49804 -41.96 
L 467.255377 -41.96 
L 465.012714 -41.96 
L 462.77005 -41.96 
L 460.527387 -41.96 
L 458.284724 -41.96 
L 456.04206 -41.96 
L 453.799397 -41.96 
L 451.556734 -41.96 
L 449.31407 -41.96 
L 447.071407 -41.96 
L 444.828744 -41.96 
L 442.58608 -41.96 
L 440.343417 -41.96 
L 438.100754 -41.96 
L 435.85809 -41.96 
L 433.615427 -41.96 
L 431.372764 -41.96 
L 429.130101 -41.96 
L 426.887437 -41.96 
L 424.644774 -41.96 
L 422.402111 -41.96 
L 420.159447 -41.96 
L 417.916784 -41.96 
L 415.674121 -41.96 
L 413.431457 -41.96 
L 411.188794 -41.96 
L 408.946131 -41.96 
L 406.703467 -41.96 
L 404.460804 -41.96 
L 402.218141 -41.96 
L 399.975477 -41.96 
L 397.732814 -41.96 
L 395.490151 -41.96 
L 393.247487 -41.96 
L 391.004824 -41.96 
L 388.762161 -41.96 
L 386.519497 -41.96 
L 384.276834 -41.96 
L 382.034171 -41.96 
L 379.791508 -41.96 
L 377.548844 -41.96 
L 375.306181 -41.96 
L 373.063518 -41.96 
L 370.820854 -41.96 
L 368.578191 -41.96 
L 366.335528 -41.96 
L 364.092864 -41.96 
L 361.850201 -41.96 
L 359.607538 -41.96 
L 357.364874 -41.96 
L 355.122211 -41.96 
L 352.879548 -41.96 
L 350.636884 -41.96 
L 348.394221 -41.96 
L 346.151558 -41.96 
L 343.908894 -41.96 
L 341.666231 -41.96 
L 339.423568 -41.96 
L 337.180905 -41.96 
L 334.938241 -41.96 
L 332.695578 -41.96 
L 330.452915 -41.96 
L 328.210251 -41.96 
L 325.967588 -41.96 
L 323.724925 -41.96 
L 321.482261 -41.96 
L 319.239598 -41.96 
L 316.996935 -41.96 
L 314.754271 -41.96 
L 312.511608 -41.96 
L 310.268945 -41.96 
L 308.026281 -41.96 
L 305.783618 -41.96 
L 303.540955 -41.96 
L 301.298291 -41.96 
L 299.055628 -41.96 
L 296.812965 -41.96 
L 294.570302 -41.96 
L 292.327638 -41.96 
L 290.084975 -41.96 
L 287.842312 -41.96 
L 285.599648 -41.96 
L 283.356985 -41.96 
L 281.114322 -41.96 
L 278.871658 -41.96 
L 276.628995 -41.96 
L 274.386332 -41.96 
L 272.143668 -41.96 
L 269.901005 -41.96 
L 267.658342 -41.96 
L 265.415678 -41.96 
L 263.173015 -41.96 
L 260.930352 -41.96 
L 258.687688 -41.96 
L 256.445025 -41.96 
L 254.202362 -41.96 
L 251.959698 -41.96 
L 249.717035 -41.96 
L 247.474372 -41.96 
L 245.231709 -41.96 
L 242.989045 -41.96 
L 240.746382 -41.96 
L 238.503719 -41.96 
L 236.261055 -41.96 
L 234.018392 -41.96 
L 231.775729 -41.96 
L 229.533065 -41.96 
L 227.290402 -41.96 
L 225.047739 -41.96 
L 222.805075 -41.96 
L 220.562412 -41.96 
L 218.319749 -41.96 
L 216.077085 -41.96 
L 213.834422 -41.96 
L 211.591759 -41.96 
L 209.349095 -41.96 
L 207.106432 -41.96 
L 204.863769 -41.96 
L 202.621106 -41.96 
L 200.378442 -41.96 
L 198.135779 -41.96 
L 195.893116 -41.96 
L 193.650452 -41.96 
L 191.407789 -41.96 
L 189.165126 -41.96 
L 186.922462 -41.96 
L 184.679799 -41.96 
L 182.437136 -41.96 
L 180.194472 -41.96 
L 177.951809 -41.96 
L 175.709146 -41.96 
L 173.466482 -41.96 
L 171.223819 -41.96 
L 168.981156 -41.96 
L 166.738492 -41.96 
L 164.495829 -41.96 
L 162.253166 -41.96 
L 160.010503 -41.96 
L 157.767839 -41.96 
L 155.525176 -41.96 
L 153.282513 -41.96 
L 151.039849 -41.96 
L 148.797186 -41.96 
L 146.554523 -41.96 
L 144.311859 -41.96 
L 142.069196 -41.96 
L 139.826533 -41.96 
L 137.583869 -41.96 
L 135.341206 -41.96 
L 133.098543 -41.96 
L 130.855879 -41.96 
L 128.613216 -41.96 
L 126.370553 -41.96 
L 124.127889 -41.96 
L 121.885226 -41.96 
L 119.642563 -41.96 
L 117.399899 -41.96 
L 115.157236 -41.96 
L 112.914573 -41.96 
L 110.67191 -41.96 
L 108.429246 -41.96 
L 106.186583 -41.96 
L 103.94392 -41.96 
L 101.701256 -41.96 
L 99.458593 -41.96 
L 97.21593 -41.96 
L 94.973266 -41.96 
L 92.730603 -41.96 
L 90.48794 -41.96 
L 88.245276 -41.96 
L 86.002613 -41.96 
L 83.75995 -41.96 
L 81.517286 -41.96 
L 79.274623 -41.96 
L 77.03196 -41.96 
L 74.789296 -41.96 
L 72.546633 -41.96 
L 70.30397 -41.96 
L 68.061307 -41.96 
L 65.818643 -41.96 
L 63.57598 -41.96 
L 61.333317 -41.96 
L 59.090653 -41.96 
L 56.84799 -41.96 
L 54.605327 -41.96 
L 52.362663 -41.96 
L 50.12 -41.96 
z
" style="stroke: #2f8a5f; stroke-opacity: 0.1"/>
    </defs>
    <g clip-path="url(#p2df846ba56)">
     <use xlink:href="#md9c0e97705" x="0" y="290.53575" style="fill: #2f8a5f; fill-opacity: 0.1; stroke: #2f8a5f; stroke-opacity: 0.1"/>
    </g>
   </g>
   <g id="matplotlib.axis_1">
    <g id="xtick_1">
     <g id="line2d_1">
      <defs>
       <path id="mb882a974bc" d="M 0 0 
L 0 3.5 
" style="stroke: #5f776c; stroke-width: 0.8"/>
      </defs>
      <g>
       <use xlink:href="#mb882a974bc" x="50.12" y="248.57575" style="fill: #5f776c; stroke: #5f776c; stroke-width: 0.8"/>
      </g>
     </g>
     <g id="text_1">
      <!-- 0 -->
      <g style="fill: #5f776c" transform="translate(47.24 264.03575) scale(0.12 -0.12)">
       <defs>
        <path id="EBGaramond-Regular-30" d="M 1571 -90 
Q 1245 -90 1005 89 
Q 765 269 605 566 
Q 445 864 368 1222 
Q 291 1581 291 1933 
Q 291 2298 368 2669 
Q 445 3040 608 3347 
Q 771 3654 1027 3843 
Q 1283 4032 1635 4032 
Q 1962 4032 2202 3853 
Q 2442 3674 2602 3376 
Q 2762 3078 2838 2723 
Q 2915 2368 2915 2022 
Q 2915 1664 2838 1293 
Q 2762 922 2598 608 
Q 2435 294 2182 102 
Q 1930 -90 1571 -90 
z
M 1680 77 
Q 1936 77 2093 336 
Q 2250 595 2320 1011 
Q 2390 1427 2390 1907 
Q 2390 2266 2336 2611 
Q 2282 2957 2170 3238 
Q 2058 3520 1894 3686 
Q 1731 3853 1514 3853 
Q 1258 3853 1107 3603 
Q 957 3354 889 2941 
Q 822 2528 822 2048 
Q 822 1690 876 1338 
Q 931 986 1036 701 
Q 1142 416 1302 246 
Q 1462 77 1680 77 
z
" transform="scale(0.015625)"/>
       </defs>
       <use xlink:href="#EBGaramond-Regular-30"/>
      </g>
     </g>
    </g>
    <g id="xtick_2">
     <g id="line2d_2">
      <g>
       <use xlink:href="#mb882a974bc" x="112.104722" y="248.57575" style="fill: #5f776c; stroke: #5f776c; stroke-width: 0.8"/>
      </g>
     </g>
     <g id="text_2">
      <!-- 5 -->
      <g style="fill: #5f776c" transform="translate(109.224722 264.03575) scale(0.12 -0.12)">
       <defs>
        <path id="EBGaramond-Regular-35" d="M 698 -243 
Q 627 -243 544 -227 
Q 461 -211 461 -166 
Q 461 -115 547 -80 
Q 634 -45 691 -45 
Q 1197 -45 1526 137 
Q 1856 320 2019 595 
Q 2182 870 2182 1146 
Q 2182 1395 2035 1587 
Q 1888 1779 1552 1939 
Q 1216 2099 646 2246 
Q 563 2317 528 2387 
Q 493 2458 493 2541 
Q 493 2630 528 2758 
Q 563 2886 614 3030 
Q 666 3174 717 3315 
Q 768 3456 800 3558 
Q 832 3654 896 3708 
Q 960 3763 1062 3789 
Q 1210 3827 1363 3859 
Q 1517 3891 1683 3920 
Q 1850 3949 2026 3971 
Q 2202 3994 2387 4013 
Q 2438 4019 2460 3984 
Q 2483 3949 2458 3904 
Q 2432 3853 2403 3798 
Q 2374 3744 2349 3693 
Q 2304 3597 2249 3549 
Q 2195 3501 2112 3488 
Q 1990 3475 1830 3459 
Q 1670 3443 1510 3427 
Q 1350 3411 1216 3398 
Q 1082 3386 1011 3373 
Q 966 3366 902 3260 
Q 838 3155 787 3036 
Q 736 2918 730 2867 
Q 723 2822 739 2790 
Q 755 2758 813 2746 
Q 1171 2643 1465 2537 
Q 1760 2432 1978 2317 
Q 2336 2131 2512 1878 
Q 2688 1626 2688 1235 
Q 2688 883 2477 576 
Q 2266 269 1907 64 
Q 1734 -32 1542 -99 
Q 1350 -166 1139 -204 
Q 928 -243 698 -243 
z
" transform="scale(0.015625)"/>
       </defs>
       <use xlink:href="#EBGaramond-Regular-35"/>
      </g>
     </g>
    </g>
    <g id="xtick_3">
     <g id="line2d_3">
      <g>
       <use xlink:href="#mb882a974bc" x="174.089444" y="248.57575" style="fill: #5f776c; stroke: #5f776c; stroke-width: 0.8"/>
      </g>
     </g>
     <g id="text_3">
      <!-- 10 -->
      <g style="fill: #5f776c" transform="translate(168.329444 264.03575) scale(0.12 -0.12)">
       <defs>
        <path id="EBGaramond-Regular-31" d="M 685 -19 
Q 640 -19 614 6 
Q 589 32 589 58 
Q 589 115 685 141 
Q 928 205 1085 259 
Q 1242 314 1315 413 
Q 1389 512 1389 698 
L 1389 3142 
Q 1389 3264 1312 3328 
Q 1235 3392 1113 3417 
Q 992 3443 851 3450 
Q 787 3456 736 3481 
Q 685 3507 685 3558 
Q 685 3603 733 3635 
Q 781 3667 845 3674 
Q 1133 3718 1360 3785 
Q 1587 3853 1805 4070 
Q 1811 4077 1820 4077 
Q 1830 4077 1837 4077 
Q 1869 4077 1894 4061 
Q 1920 4045 1914 4019 
Q 1901 3923 1894 3811 
Q 1888 3699 1888 3565 
L 1888 621 
Q 1888 461 1949 377 
Q 2010 294 2157 246 
Q 2304 198 2566 134 
Q 2605 128 2640 105 
Q 2675 83 2675 51 
Q 2675 -19 2586 -19 
Q 2406 -19 2256 -9 
Q 2106 0 1962 6 
Q 1818 13 1645 13 
Q 1472 13 1318 6 
Q 1165 0 1011 -9 
Q 858 -19 685 -19 
z
" transform="scale(0.015625)"/>
       </defs>
       <use xlink:href="#EBGaramond-Regular-31"/>
       <use xlink:href="#EBGaramond-Regular-30" x="47.999985"/>
      </g>
     </g>
    </g>
    <g id="xtick_4">
     <g id="line2d_4">
      <g>
       <use xlink:href="#mb882a974bc" x="236.074167" y="248.57575" style="fill: #5f776c; stroke: #5f776c; stroke-width: 0.8"/>
      </g>
     </g>
     <g id="text_4">
      <!-- 15 -->
      <g style="fill: #5f776c" transform="translate(230.314167 264.03575) scale(0.12 -0.12)">
       <use xlink:href="#EBGaramond-Regular-31"/>
       <use xlink:href="#EBGaramond-Regular-35" x="47.999985"/>
      </g>
     </g>
    </g>
    <g id="xtick_5">
     <g id="line2d_5">
      <g>
       <use xlink:href="#mb882a974bc" x="298.058889" y="248.57575" style="fill: #5f776c; stroke: #5f776c; stroke-width: 0.8"/>
      </g>
     </g>
     <g id="text_5">
      <!-- 20 -->
      <g style="fill: #5f776c" transform="translate(292.298889 264.03575) scale(0.12 -0.12)">
       <defs>
        <path id="EBGaramond-Regular-32" d="M 2683 -19 
Q 2638 -19 2542 -12 
Q 2446 -6 2324 0 
Q 2203 6 2072 12 
Q 1941 19 1819 19 
Q 1698 19 1474 12 
Q 1250 6 1003 3 
Q 757 0 571 -6 
Q 386 -13 334 -13 
Q 309 -13 257 28 
Q 206 70 206 96 
Q 206 128 219 141 
Q 232 154 258 179 
L 1352 1312 
Q 1672 1645 1883 2057 
Q 2094 2470 2094 2893 
Q 2094 3232 1889 3427 
Q 1685 3622 1410 3622 
Q 1147 3622 923 3478 
Q 699 3334 565 3104 
Q 546 3066 517 3040 
Q 488 3014 456 3014 
Q 430 3014 395 3068 
Q 360 3123 360 3206 
Q 360 3283 453 3417 
Q 546 3552 712 3693 
Q 878 3834 1108 3933 
Q 1339 4032 1608 4032 
Q 1928 4032 2158 3897 
Q 2389 3763 2510 3526 
Q 2632 3290 2632 2976 
Q 2632 2803 2571 2604 
Q 2510 2406 2404 2214 
Q 2299 2022 2165 1856 
Q 2082 1754 1918 1584 
Q 1755 1414 1566 1222 
Q 1378 1030 1208 860 
Q 1038 691 929 579 
Q 821 467 821 454 
Q 821 422 910 410 
Q 1019 403 1156 396 
Q 1294 390 1474 390 
Q 1659 390 1844 396 
Q 2030 403 2203 410 
Q 2389 422 2491 441 
Q 2594 461 2664 521 
Q 2734 582 2811 710 
Q 2837 749 2878 803 
Q 2920 858 2971 858 
Q 3003 858 3009 832 
Q 3016 806 3016 781 
Q 3016 749 2981 656 
Q 2946 563 2901 428 
Q 2856 294 2824 134 
Q 2805 32 2760 6 
Q 2715 -19 2683 -19 
z
" transform="scale(0.015625)"/>
       </defs>
       <use xlink:href="#EBGaramond-Regular-32"/>
       <use xlink:href="#EBGaramond-Regular-30" x="47.999985"/>
      </g>
     </g>
    </g>
    <g id="xtick_6">
     <g id="line2d_6">
      <g>
       <use xlink:href="#mb882a974bc" x="360.043611" y="248.57575" style="fill: #5f776c; stroke: #5f776c; stroke-width: 0.8"/>
      </g>
     </g>
     <g id="text_6">
      <!-- 25 -->
      <g style="fill: #5f776c" transform="translate(354.283611 264.03575) scale(0.12 -0.12)">
       <use xlink:href="#EBGaramond-Regular-32"/>
       <use xlink:href="#EBGaramond-Regular-35" x="47.999985"/>
      </g>
     </g>
    </g>
    <g id="xtick_7">
     <g id="line2d_7">
      <g>
       <use xlink:href="#mb882a974bc" x="422.028333" y="248.57575" style="fill: #5f776c; stroke: #5f776c; stroke-width: 0.8"/>
      </g>
     </g>
     <g id="text_7">
      <!-- 30 -->
      <g style="fill: #5f776c" transform="translate(416.268333 264.03575) scale(0.12 -0.12)">
       <defs>
        <path id="EBGaramond-Regular-33" d="M 1030 -243 
Q 883 -243 716 -195 
Q 550 -147 435 -83 
Q 320 -19 320 32 
Q 320 77 371 147 
Q 422 218 489 272 
Q 557 326 602 326 
Q 672 326 729 288 
Q 787 250 851 198 
Q 934 128 1043 64 
Q 1152 0 1331 0 
Q 1568 0 1779 121 
Q 1990 243 2128 457 
Q 2266 672 2266 934 
Q 2266 1184 2182 1414 
Q 2099 1645 1936 1795 
Q 1773 1946 1523 1946 
Q 1453 1946 1334 1930 
Q 1216 1914 1107 1850 
Q 1075 1830 1033 1852 
Q 992 1875 998 1907 
Q 1024 1990 1075 2044 
Q 1126 2099 1190 2125 
Q 1248 2150 1376 2224 
Q 1504 2298 1648 2410 
Q 1792 2522 1894 2666 
Q 1997 2810 1997 2982 
Q 1997 3245 1827 3446 
Q 1658 3648 1395 3648 
Q 1146 3648 995 3561 
Q 845 3475 755 3363 
Q 666 3251 621 3164 
Q 576 3078 538 3078 
Q 512 3078 473 3116 
Q 435 3155 435 3200 
Q 435 3283 505 3420 
Q 576 3558 726 3699 
Q 877 3840 1110 3936 
Q 1344 4032 1670 4032 
Q 1882 4032 2070 3939 
Q 2259 3846 2380 3683 
Q 2502 3520 2502 3302 
Q 2502 3149 2438 2982 
Q 2374 2816 2227 2653 
Q 2080 2490 1830 2342 
Q 1811 2336 1811 2320 
Q 1811 2304 1837 2304 
Q 2112 2304 2329 2166 
Q 2547 2029 2678 1801 
Q 2810 1574 2810 1299 
Q 2810 941 2656 656 
Q 2502 371 2246 169 
Q 1990 -32 1673 -137 
Q 1357 -243 1030 -243 
z
" transform="scale(0.015625)"/>
       </defs>
       <use xlink:href="#EBGaramond-Regular-33"/>
       <use xlink:href="#EBGaramond-Regular-30" x="47.999985"/>
      </g>
     </g>
    </g>
    <g id="xtick_8">
     <g id="line2d_8">
      <g>
       <use xlink:href="#mb882a974bc" x="484.013056" y="248.57575" style="fill: #5f776c; stroke: #5f776c; stroke-width: 0.8"/>
      </g>
     </g>
     <g id="text_8">
      <!-- 35 -->
      <g style="fill: #5f776c" transform="translate(478.253056 264.03575) scale(0.12 -0.12)">
       <use xlink:href="#EBGaramond-Regular-33"/>
       <use xlink:href="#EBGaramond-Regular-35" x="47.999985"/>
      </g>
     </g>
    </g>
    <g id="text_9">
     <!-- time (months) -->
     <g style="fill: #33463f" transform="translate(240.205 279.91575) scale(0.12 -0.12)">
      <defs>
       <path id="EBGaramond-Regular-74" d="M 1210 -90 
Q 896 -90 720 102 
Q 544 294 544 672 
L 544 2157 
Q 544 2208 505 2230 
Q 467 2253 339 2253 
L 301 2253 
Q 269 2253 246 2294 
Q 224 2336 224 2381 
Q 224 2394 243 2419 
Q 262 2445 269 2451 
Q 397 2541 502 2630 
Q 608 2720 694 2806 
Q 781 2893 838 2963 
Q 870 2995 892 3017 
Q 915 3040 947 3040 
Q 979 3040 1008 3027 
Q 1037 3014 1030 2970 
L 998 2682 
Q 992 2611 1030 2585 
Q 1069 2560 1152 2560 
L 1882 2560 
Q 1907 2560 1926 2518 
Q 1946 2477 1946 2419 
Q 1946 2362 1926 2307 
Q 1907 2253 1882 2253 
L 1248 2253 
Q 1088 2253 1040 2227 
Q 992 2202 992 2074 
L 992 813 
Q 992 557 1101 409 
Q 1210 262 1414 262 
Q 1600 262 1702 291 
Q 1805 320 1888 378 
Q 1901 390 1914 390 
Q 1939 390 1948 361 
Q 1958 333 1958 301 
Q 1958 269 1852 173 
Q 1747 77 1577 -6 
Q 1408 -90 1210 -90 
z
" transform="scale(0.015625)"/>
       <path id="EBGaramond-Regular-69" d="M 282 -19 
Q 224 -19 189 -3 
Q 154 13 154 51 
Q 154 102 202 121 
Q 250 141 301 154 
Q 435 186 505 234 
Q 576 282 576 397 
L 576 1786 
Q 576 1958 515 2092 
Q 454 2227 288 2253 
Q 256 2259 240 2278 
Q 224 2298 224 2336 
Q 224 2406 282 2413 
Q 538 2470 704 2569 
Q 870 2669 954 2733 
Q 1011 2778 1043 2778 
Q 1082 2778 1082 2746 
Q 1082 2694 1066 2544 
Q 1050 2394 1037 2211 
Q 1024 2029 1024 1882 
L 1024 397 
Q 1024 288 1097 237 
Q 1171 186 1299 154 
Q 1350 141 1398 121 
Q 1446 102 1446 51 
Q 1446 -19 1318 -19 
Q 1197 -19 1123 -9 
Q 1050 0 982 6 
Q 915 13 800 13 
Q 691 13 620 6 
Q 550 0 480 -9 
Q 410 -19 282 -19 
z
M 792 3302 
Q 658 3302 565 3395 
Q 472 3488 472 3622 
Q 472 3763 565 3856 
Q 658 3949 792 3949 
Q 933 3949 1025 3856 
Q 1118 3763 1118 3622 
Q 1118 3488 1025 3395 
Q 933 3302 792 3302 
z
" transform="scale(0.015625)"/>
       <path id="EBGaramond-Regular-6d" d="M 282 -19 
Q 230 -19 192 -6 
Q 154 6 154 51 
Q 154 96 195 115 
Q 237 134 301 154 
Q 390 186 483 227 
Q 576 269 576 397 
L 576 1773 
Q 576 1946 537 2077 
Q 499 2208 333 2234 
Q 307 2240 291 2259 
Q 275 2278 275 2317 
Q 275 2381 326 2394 
Q 499 2438 601 2486 
Q 704 2534 784 2595 
Q 864 2656 979 2726 
Q 992 2733 1005 2742 
Q 1018 2752 1037 2752 
Q 1075 2752 1075 2707 
Q 1075 2662 1059 2524 
Q 1043 2387 1043 2298 
Q 1043 2234 1056 2221 
L 1069 2221 
Q 1216 2362 1456 2506 
Q 1696 2650 2067 2650 
Q 2298 2650 2451 2550 
Q 2605 2451 2707 2208 
L 2726 2208 
Q 2931 2394 3193 2522 
Q 3456 2650 3770 2650 
Q 3981 2650 4121 2522 
Q 4262 2394 4336 2189 
Q 4410 1984 4410 1760 
L 4410 397 
Q 4410 269 4499 227 
Q 4589 186 4685 154 
Q 4749 134 4790 115 
Q 4832 96 4832 51 
Q 4832 13 4803 -3 
Q 4774 -19 4704 -19 
Q 4576 -19 4505 -9 
Q 4435 0 4374 6 
Q 4314 13 4198 13 
Q 4090 13 4019 6 
Q 3949 0 3872 -9 
Q 3795 -19 3667 -19 
Q 3610 -19 3574 -3 
Q 3539 13 3539 51 
Q 3539 102 3580 121 
Q 3622 141 3686 154 
Q 3789 179 3875 224 
Q 3962 269 3962 397 
L 3962 1741 
Q 3962 1894 3891 2032 
Q 3821 2170 3705 2259 
Q 3590 2349 3450 2349 
Q 3290 2349 3152 2310 
Q 3014 2272 2893 2176 
Q 2714 2035 2714 1715 
L 2714 397 
Q 2714 269 2810 224 
Q 2906 179 3002 154 
Q 3066 141 3107 118 
Q 3149 96 3149 51 
Q 3149 13 3117 -3 
Q 3085 -19 3021 -19 
Q 2893 -19 2819 -9 
Q 2746 0 2678 6 
Q 2611 13 2496 13 
Q 2387 13 2316 6 
Q 2246 0 2169 -9 
Q 2093 -19 1965 -19 
Q 1914 -19 1875 -3 
Q 1837 13 1837 51 
Q 1837 102 1885 118 
Q 1933 134 1984 154 
Q 2080 186 2173 227 
Q 2266 269 2266 397 
L 2266 1741 
Q 2266 1894 2195 2032 
Q 2125 2170 2009 2259 
Q 1894 2349 1754 2349 
Q 1594 2349 1456 2310 
Q 1318 2272 1197 2176 
Q 1024 2048 1024 1715 
L 1024 397 
Q 1024 269 1113 227 
Q 1203 186 1299 154 
Q 1350 134 1398 118 
Q 1446 102 1446 51 
Q 1446 13 1411 -3 
Q 1376 -19 1318 -19 
Q 1190 -19 1116 -9 
Q 1043 0 979 6 
Q 915 13 800 13 
Q 691 13 624 6 
Q 557 0 483 -9 
Q 410 -19 282 -19 
z
" transform="scale(0.015625)"/>
       <path id="EBGaramond-Regular-65" d="M 1363 -96 
Q 1011 -96 748 77 
Q 486 250 339 566 
Q 192 883 192 1299 
Q 192 1670 361 1974 
Q 531 2278 812 2464 
Q 1094 2650 1427 2650 
Q 1683 2650 1881 2547 
Q 2080 2445 2192 2262 
Q 2304 2080 2304 1843 
Q 2304 1645 2112 1645 
L 762 1645 
Q 672 1645 637 1597 
Q 602 1549 602 1408 
Q 602 1101 736 848 
Q 870 595 1094 444 
Q 1318 294 1587 294 
Q 1779 294 1936 368 
Q 2093 442 2214 582 
Q 2240 614 2253 624 
Q 2266 634 2285 634 
Q 2336 634 2336 570 
Q 2336 448 2221 301 
Q 2125 179 1990 89 
Q 1856 0 1696 -48 
Q 1536 -96 1363 -96 
z
M 774 1843 
L 1357 1843 
Q 1510 1843 1619 1849 
Q 1728 1856 1830 1875 
Q 1862 1882 1872 1917 
Q 1882 1952 1882 2016 
Q 1882 2202 1718 2333 
Q 1555 2464 1331 2464 
Q 1184 2464 1037 2377 
Q 890 2291 794 2163 
Q 698 2035 698 1907 
Q 698 1843 774 1843 
z
" transform="scale(0.015625)"/>
       <path id="EBGaramond-Regular-20" transform="scale(0.015625)"/>
       <path id="EBGaramond-Regular-28" d="M 1517 -1370 
Q 1453 -1370 1408 -1325 
Q 1274 -1190 1117 -940 
Q 960 -691 806 -371 
Q 653 -51 528 310 
Q 403 672 329 1033 
Q 256 1395 256 1722 
Q 256 2131 365 2540 
Q 474 2950 646 3318 
Q 819 3686 1014 3977 
Q 1210 4269 1382 4442 
Q 1414 4474 1462 4493 
Q 1510 4512 1555 4512 
Q 1587 4512 1641 4483 
Q 1696 4454 1696 4410 
Q 1696 4403 1677 4377 
Q 1658 4352 1638 4323 
Q 1619 4294 1613 4288 
Q 1421 4064 1229 3686 
Q 1037 3309 912 2825 
Q 787 2342 787 1798 
Q 787 1389 857 950 
Q 928 512 1043 105 
Q 1158 -301 1302 -617 
Q 1446 -934 1594 -1107 
Q 1600 -1114 1622 -1139 
Q 1645 -1165 1667 -1193 
Q 1690 -1222 1690 -1229 
Q 1690 -1293 1635 -1331 
Q 1581 -1370 1517 -1370 
z
" transform="scale(0.015625)"/>
       <path id="EBGaramond-Regular-6f" d="M 1498 -90 
Q 1139 -90 851 76 
Q 563 243 393 534 
Q 224 826 224 1197 
Q 224 1466 329 1722 
Q 435 1978 627 2189 
Q 819 2400 1075 2525 
Q 1331 2650 1626 2650 
Q 1997 2650 2294 2470 
Q 2592 2291 2768 2000 
Q 2944 1709 2944 1363 
Q 2944 992 2781 659 
Q 2618 326 2298 118 
Q 1978 -90 1498 -90 
z
M 1632 102 
Q 1850 102 2022 185 
Q 2195 269 2291 454 
Q 2368 602 2393 813 
Q 2419 1024 2419 1210 
Q 2419 1517 2307 1801 
Q 2195 2086 1993 2268 
Q 1792 2451 1517 2451 
Q 1344 2451 1206 2396 
Q 1069 2342 954 2195 
Q 826 2035 787 1804 
Q 749 1574 749 1344 
Q 749 1030 864 745 
Q 979 461 1177 281 
Q 1376 102 1632 102 
z
" transform="scale(0.015625)"/>
       <path id="EBGaramond-Regular-6e" d="M 282 -19 
Q 224 -19 189 -3 
Q 154 13 154 51 
Q 154 102 192 118 
Q 230 134 301 154 
Q 397 179 486 224 
Q 576 269 576 397 
L 576 1773 
Q 576 1946 541 2067 
Q 506 2189 339 2234 
Q 314 2246 294 2262 
Q 275 2278 275 2317 
Q 275 2387 333 2394 
Q 557 2451 697 2534 
Q 838 2618 973 2720 
Q 992 2733 1008 2742 
Q 1024 2752 1043 2752 
Q 1056 2752 1065 2739 
Q 1075 2726 1075 2707 
Q 1075 2662 1059 2524 
Q 1043 2387 1043 2298 
Q 1043 2272 1046 2249 
Q 1050 2227 1056 2221 
Q 1280 2432 1533 2541 
Q 1786 2650 2086 2650 
Q 2400 2650 2605 2394 
Q 2810 2138 2810 1760 
L 2810 397 
Q 2810 269 2899 227 
Q 2989 186 3085 154 
Q 3136 134 3184 112 
Q 3232 90 3232 38 
Q 3232 0 3187 -9 
Q 3142 -19 3104 -19 
Q 2976 -19 2905 -9 
Q 2835 0 2771 6 
Q 2707 13 2592 13 
Q 2483 13 2412 6 
Q 2342 0 2268 -9 
Q 2195 -19 2067 -19 
Q 2035 -19 1987 -9 
Q 1939 0 1939 38 
Q 1939 90 1987 112 
Q 2035 134 2086 154 
Q 2182 186 2272 227 
Q 2362 269 2362 397 
L 2362 1741 
Q 2362 2022 2205 2179 
Q 2048 2336 1786 2342 
Q 1555 2342 1382 2268 
Q 1210 2195 1075 2086 
Q 1050 2061 1037 2019 
Q 1024 1978 1024 1939 
L 1024 397 
Q 1024 269 1113 224 
Q 1203 179 1299 154 
Q 1446 115 1446 51 
Q 1446 13 1414 -3 
Q 1382 -19 1318 -19 
Q 1190 -19 1116 -9 
Q 1043 0 979 6 
Q 915 13 800 13 
Q 691 13 624 6 
Q 557 0 483 -9 
Q 410 -19 282 -19 
z
" transform="scale(0.015625)"/>
       <path id="EBGaramond-Regular-68" d="M 250 -19 
Q 122 -19 122 51 
Q 122 109 269 154 
Q 365 186 451 237 
Q 538 288 544 416 
L 544 3622 
Q 544 3795 486 3926 
Q 429 4058 262 4083 
Q 205 4096 205 4173 
Q 205 4230 256 4250 
Q 346 4282 470 4320 
Q 595 4358 729 4406 
Q 864 4454 966 4499 
Q 992 4512 1005 4512 
Q 1024 4512 1037 4499 
Q 1050 4486 1050 4467 
Q 1050 4429 1034 4358 
Q 1018 4288 1005 4115 
Q 992 3942 992 3597 
L 992 2483 
Q 992 2381 1001 2336 
Q 1011 2291 1037 2246 
Q 1139 2323 1289 2416 
Q 1440 2509 1625 2579 
Q 1811 2650 2010 2650 
Q 2323 2650 2531 2403 
Q 2739 2157 2739 1779 
L 2739 435 
Q 2739 307 2822 246 
Q 2906 186 3002 154 
Q 3072 134 3110 112 
Q 3149 90 3149 51 
Q 3149 -19 3021 -19 
Q 2893 -19 2825 -9 
Q 2758 0 2697 6 
Q 2637 13 2522 13 
Q 2413 13 2349 6 
Q 2285 0 2217 -9 
Q 2150 -19 2022 -19 
Q 1894 -19 1894 51 
Q 1894 96 1932 112 
Q 1971 128 2042 154 
Q 2138 186 2214 246 
Q 2291 307 2291 435 
L 2291 1741 
Q 2291 1901 2198 2032 
Q 2106 2163 1971 2240 
Q 1837 2317 1696 2317 
Q 1574 2317 1414 2281 
Q 1254 2246 1165 2176 
Q 1062 2093 1027 2003 
Q 992 1914 992 1715 
L 992 416 
Q 998 288 1072 237 
Q 1146 186 1242 154 
Q 1312 134 1347 112 
Q 1382 90 1382 51 
Q 1382 -19 1254 -19 
Q 1126 -19 1062 -9 
Q 998 0 940 6 
Q 883 13 768 13 
Q 659 13 592 6 
Q 525 0 451 -9 
Q 378 -19 250 -19 
z
" transform="scale(0.015625)"/>
       <path id="EBGaramond-Regular-73" d="M 922 -90 
Q 723 -90 550 -29 
Q 378 32 256 141 
Q 224 211 208 377 
Q 192 544 186 653 
Q 186 710 269 710 
Q 294 710 316 700 
Q 339 691 346 666 
Q 429 352 611 217 
Q 794 83 979 83 
Q 1165 83 1296 208 
Q 1427 333 1427 518 
Q 1427 691 1312 816 
Q 1197 941 909 1120 
Q 691 1254 556 1376 
Q 422 1498 361 1626 
Q 301 1754 301 1914 
Q 301 2118 397 2284 
Q 493 2451 685 2550 
Q 877 2650 1165 2650 
Q 1357 2650 1485 2611 
Q 1613 2573 1677 2528 
Q 1728 2458 1763 2307 
Q 1798 2157 1798 2022 
Q 1798 1978 1734 1978 
Q 1696 1978 1661 1994 
Q 1626 2010 1613 2035 
Q 1530 2246 1405 2358 
Q 1280 2470 1094 2470 
Q 934 2470 809 2374 
Q 685 2278 685 2093 
Q 685 1946 777 1830 
Q 870 1715 1126 1568 
Q 1498 1357 1680 1174 
Q 1862 992 1862 691 
Q 1862 346 1600 128 
Q 1338 -90 922 -90 
z
" transform="scale(0.015625)"/>
       <path id="EBGaramond-Regular-29" d="M 499 -1370 
Q 435 -1370 380 -1331 
Q 326 -1293 326 -1229 
Q 326 -1222 348 -1193 
Q 371 -1165 396 -1139 
Q 422 -1114 422 -1107 
Q 570 -934 714 -617 
Q 858 -301 973 105 
Q 1088 512 1158 950 
Q 1229 1389 1229 1798 
Q 1229 2342 1104 2825 
Q 979 3309 790 3686 
Q 602 4064 403 4288 
Q 397 4294 377 4323 
Q 358 4352 339 4377 
Q 320 4403 320 4410 
Q 320 4454 374 4483 
Q 429 4512 461 4512 
Q 512 4512 560 4493 
Q 608 4474 634 4442 
Q 806 4269 1001 3977 
Q 1197 3686 1369 3318 
Q 1542 2950 1651 2540 
Q 1760 2131 1760 1722 
Q 1760 1395 1686 1033 
Q 1613 672 1488 310 
Q 1363 -51 1209 -371 
Q 1056 -691 899 -940 
Q 742 -1190 608 -1325 
Q 563 -1370 499 -1370 
z
" transform="scale(0.015625)"/>
      </defs>
      <use xlink:href="#EBGaramond-Regular-74"/>
      <use xlink:href="#EBGaramond-Regular-69" x="31.399994"/>
      <use xlink:href="#EBGaramond-Regular-6d" x="55.899979"/>
      <use xlink:href="#EBGaramond-Regular-65" x="133.699966"/>
      <use xlink:href="#EBGaramond-Regular-20" x="172.699951"/>
      <use xlink:href="#EBGaramond-Regular-28" x="192.699936"/>
      <use xlink:href="#EBGaramond-Regular-6d" x="224.199921"/>
      <use xlink:href="#EBGaramond-Regular-6f" x="301.999908"/>
      <use xlink:href="#EBGaramond-Regular-6e" x="351.499893"/>
      <use xlink:href="#EBGaramond-Regular-74" x="404.299881"/>
      <use xlink:href="#EBGaramond-Regular-68" x="435.699875"/>
      <use xlink:href="#EBGaramond-Regular-73" x="487.19986"/>
      <use xlink:href="#EBGaramond-Regular-29" x="519.499847"/>
     </g>
    </g>
   </g>
   <g id="matplotlib.axis_2">
    <g id="ytick_1">
     <g id="line2d_9">
      <defs>
       <path id="m03a8d9f588" d="M 0 0 
L -3.5 0 
" style="stroke: #5f776c; stroke-width: 0.8"/>
      </defs>
      <g>
       <use xlink:href="#m03a8d9f588" x="50.12" y="248.57575" style="fill: #5f776c; stroke: #5f776c; stroke-width: 0.8"/>
      </g>
     </g>
     <g id="text_10">
      <!-- 0.00 -->
      <g style="fill: #5f776c" transform="translate(23.08 252.80575) scale(0.12 -0.12)">
       <defs>
        <path id="EBGaramond-Regular-2e" d="M 736 -90 
Q 595 -90 489 16 
Q 384 122 384 262 
Q 384 410 489 512 
Q 595 614 736 614 
Q 883 614 985 512 
Q 1088 410 1088 262 
Q 1088 122 985 16 
Q 883 -90 736 -90 
z
" transform="scale(0.015625)"/>
       </defs>
       <use xlink:href="#EBGaramond-Regular-30"/>
       <use xlink:href="#EBGaramond-Regular-2e" x="47.999985"/>
       <use xlink:href="#EBGaramond-Regular-30" x="70.999969"/>
       <use xlink:href="#EBGaramond-Regular-30" x="118.999954"/>
      </g>
     </g>
    </g>
    <g id="ytick_2">
     <g id="line2d_10">
      <g>
       <use xlink:href="#m03a8d9f588" x="50.12" y="211.038458" style="fill: #5f776c; stroke: #5f776c; stroke-width: 0.8"/>
      </g>
     </g>
     <g id="text_11">
      <!-- 0.05 -->
      <g style="fill: #5f776c" transform="translate(23.08 215.268458) scale(0.12 -0.12)">
       <use xlink:href="#EBGaramond-Regular-30"/>
       <use xlink:href="#EBGaramond-Regular-2e" x="47.999985"/>
       <use xlink:href="#EBGaramond-Regular-30" x="70.999969"/>
       <use xlink:href="#EBGaramond-Regular-35" x="118.999954"/>
      </g>
     </g>
    </g>
    <g id="ytick_3">
     <g id="line2d_11">
      <g>
       <use xlink:href="#m03a8d9f588" x="50.12" y="173.501167" style="fill: #5f776c; stroke: #5f776c; stroke-width: 0.8"/>
      </g>
     </g>
     <g id="text_12">
      <!-- 0.10 -->
      <g style="fill: #5f776c" transform="translate(23.08 177.731167) scale(0.12 -0.12)">
       <use xlink:href="#EBGaramond-Regular-30"/>
       <use xlink:href="#EBGaramond-Regular-2e" x="47.999985"/>
       <use xlink:href="#EBGaramond-Regular-31" x="70.999969"/>
       <use xlink:href="#EBGaramond-Regular-30" x="118.999954"/>
      </g>
     </g>
    </g>
    <g id="ytick_4">
     <g id="line2d_12">
      <g>
       <use xlink:href="#m03a8d9f588" x="50.12" y="135.963875" style="fill: #5f776c; stroke: #5f776c; stroke-width: 0.8"/>
      </g>
     </g>
     <g id="text_13">
      <!-- 0.15 -->
      <g style="fill: #5f776c" transform="translate(23.08 140.193875) scale(0.12 -0.12)">
       <use xlink:href="#EBGaramond-Regular-30"/>
       <use xlink:href="#EBGaramond-Regular-2e" x="47.999985"/>
       <use xlink:href="#EBGaramond-Regular-31" x="70.999969"/>
       <use xlink:href="#EBGaramond-Regular-35" x="118.999954"/>
      </g>
     </g>
    </g>
    <g id="ytick_5">
     <g id="line2d_13">
      <g>
       <use xlink:href="#m03a8d9f588" x="50.12" y="98.426583" style="fill: #5f776c; stroke: #5f776c; stroke-width: 0.8"/>
      </g>
     </g>
     <g id="text_14">
      <!-- 0.20 -->
      <g style="fill: #5f776c" transform="translate(23.08 102.656583) scale(0.12 -0.12)">
       <use xlink:href="#EBGaramond-Regular-30"/>
       <use xlink:href="#EBGaramond-Regular-2e" x="47.999985"/>
       <use xlink:href="#EBGaramond-Regular-32" x="70.999969"/>
       <use xlink:href="#EBGaramond-Regular-30" x="118.999954"/>
      </g>
     </g>
    </g>
    <g id="ytick_6">
     <g id="line2d_14">
      <g>
       <use xlink:href="#m03a8d9f588" x="50.12" y="60.889292" style="fill: #5f776c; stroke: #5f776c; stroke-width: 0.8"/>
      </g>
     </g>
     <g id="text_15">
      <!-- 0.25 -->
      <g style="fill: #5f776c" transform="translate(23.08 65.119292) scale(0.12 -0.12)">
       <use xlink:href="#EBGaramond-Regular-30"/>
       <use xlink:href="#EBGaramond-Regular-2e" x="47.999985"/>
       <use xlink:href="#EBGaramond-Regular-32" x="70.999969"/>
       <use xlink:href="#EBGaramond-Regular-35" x="118.999954"/>
      </g>
     </g>
    </g>
    <g id="ytick_7">
     <g id="line2d_15">
      <g>
       <use xlink:href="#m03a8d9f588" x="50.12" y="23.352" style="fill: #5f776c; stroke: #5f776c; stroke-width: 0.8"/>
      </g>
     </g>
     <g id="text_16">
      <!-- 0.30 -->
      <g style="fill: #5f776c" transform="translate(23.08 27.582) scale(0.12 -0.12)">
       <use xlink:href="#EBGaramond-Regular-30"/>
       <use xlink:href="#EBGaramond-Regular-2e" x="47.999985"/>
       <use xlink:href="#EBGaramond-Regular-33" x="70.999969"/>
       <use xlink:href="#EBGaramond-Regular-30" x="118.999954"/>
      </g>
     </g>
    </g>
    <g id="text_17">
     <!-- $BS(t)$  (lower = better) -->
     <g style="fill: #33463f" transform="translate(15.66 189.363875) rotate(-90) scale(0.12 -0.12)">
      <defs>
       <path id="DejaVuSans-Oblique-42" d="M 1081 4666 
L 2694 4666 
Q 3350 4666 3675 4422 
Q 4000 4178 4000 3688 
Q 4000 3238 3720 2911 
Q 3441 2584 2988 2516 
Q 3375 2428 3569 2181 
Q 3763 1934 3763 1522 
Q 3763 819 3242 409 
Q 2722 0 1819 0 
L 172 0 
L 1081 4666 
z
M 1234 2228 
L 903 519 
L 1919 519 
Q 2491 519 2800 781 
Q 3109 1044 3109 1522 
Q 3109 1891 2904 2059 
Q 2700 2228 2247 2228 
L 1234 2228 
z
M 1606 4147 
L 1331 2741 
L 2272 2741 
Q 2775 2741 3058 2959 
Q 3341 3178 3341 3566 
Q 3341 3869 3150 4008 
Q 2959 4147 2541 4147 
L 1606 4147 
z
" transform="scale(0.015625)"/>
       <path id="DejaVuSans-Oblique-53" d="M 3859 4513 
L 3738 3897 
Q 3422 4066 3111 4152 
Q 2800 4238 2509 4238 
Q 1944 4238 1609 3991 
Q 1275 3744 1275 3334 
Q 1275 3109 1398 2989 
Q 1522 2869 2034 2731 
L 2413 2638 
Q 3053 2472 3303 2217 
Q 3553 1963 3553 1503 
Q 3553 797 2998 353 
Q 2444 -91 1538 -91 
Q 1166 -91 791 -17 
Q 416 56 38 206 
L 166 856 
Q 513 641 861 531 
Q 1209 422 1556 422 
Q 2147 422 2503 684 
Q 2859 947 2859 1369 
Q 2859 1650 2717 1795 
Q 2575 1941 2106 2059 
L 1728 2156 
Q 1081 2325 845 2545 
Q 609 2766 609 3163 
Q 609 3859 1145 4304 
Q 1681 4750 2541 4750 
Q 2875 4750 3203 4690 
Q 3531 4631 3859 4513 
z
" transform="scale(0.015625)"/>
       <path id="DejaVuSans-28" d="M 1984 4856 
Q 1566 4138 1362 3434 
Q 1159 2731 1159 2009 
Q 1159 1288 1364 580 
Q 1569 -128 1984 -844 
L 1484 -844 
Q 1016 -109 783 600 
Q 550 1309 550 2009 
Q 550 2706 781 3412 
Q 1013 4119 1484 4856 
L 1984 4856 
z
" transform="scale(0.015625)"/>
       <path id="DejaVuSans-Oblique-74" d="M 2706 3500 
L 2619 3053 
L 1472 3053 
L 1100 1153 
Q 1081 1047 1072 975 
Q 1063 903 1063 863 
Q 1063 663 1183 572 
Q 1303 481 1569 481 
L 2150 481 
L 2053 0 
L 1503 0 
Q 991 0 739 200 
Q 488 400 488 806 
Q 488 878 497 964 
Q 506 1050 525 1153 
L 897 3053 
L 409 3053 
L 500 3500 
L 978 3500 
L 1172 4494 
L 1747 4494 
L 1556 3500 
L 2706 3500 
z
" transform="scale(0.015625)"/>
       <path id="DejaVuSans-29" d="M 513 4856 
L 1013 4856 
Q 1481 4119 1714 3412 
Q 1947 2706 1947 2009 
Q 1947 1309 1714 600 
Q 1481 -109 1013 -844 
L 513 -844 
Q 928 -128 1133 580 
Q 1338 1288 1338 2009 
Q 1338 2731 1133 3434 
Q 928 4138 513 4856 
z
" transform="scale(0.015625)"/>
       <path id="EBGaramond-Regular-6c" d="M 250 -19 
Q 218 -19 170 -9 
Q 122 0 122 38 
Q 122 90 170 112 
Q 218 134 269 154 
Q 365 186 454 227 
Q 544 269 544 397 
L 544 3622 
Q 544 3808 477 3933 
Q 410 4058 250 4090 
Q 198 4102 198 4173 
Q 198 4237 243 4250 
Q 410 4288 531 4329 
Q 653 4371 758 4416 
Q 864 4461 966 4499 
Q 992 4512 1005 4512 
Q 1018 4512 1027 4496 
Q 1037 4480 1037 4467 
Q 1037 4410 1014 4221 
Q 992 4032 992 3597 
L 992 397 
Q 992 269 1081 227 
Q 1171 186 1267 154 
Q 1318 134 1366 112 
Q 1414 90 1414 38 
Q 1414 0 1366 -9 
Q 1318 -19 1286 -19 
Q 1165 -19 1091 -9 
Q 1018 0 950 6 
Q 883 13 768 13 
Q 659 13 588 6 
Q 518 0 448 -9 
Q 378 -19 250 -19 
z
" transform="scale(0.015625)"/>
       <path id="EBGaramond-Regular-77" d="M 1446 -147 
Q 1434 -147 1421 -134 
Q 1408 -122 1402 -102 
L 512 2106 
Q 467 2234 371 2314 
Q 275 2394 179 2419 
Q 128 2438 80 2464 
Q 32 2490 32 2534 
Q 32 2573 80 2582 
Q 128 2592 160 2592 
Q 243 2592 316 2585 
Q 390 2579 467 2569 
Q 544 2560 627 2560 
Q 717 2560 806 2569 
Q 896 2579 982 2585 
Q 1069 2592 1158 2592 
Q 1184 2592 1235 2582 
Q 1286 2573 1286 2534 
Q 1286 2490 1238 2464 
Q 1190 2438 1139 2419 
Q 1075 2400 1040 2326 
Q 1005 2253 1005 2163 
Q 1005 2080 1037 1997 
L 1536 710 
Q 1542 685 1568 685 
Q 1594 685 1600 710 
L 2035 1747 
Q 2067 1830 2076 1907 
Q 2086 1984 2086 2054 
Q 2086 2195 1977 2284 
Q 1869 2374 1760 2419 
Q 1709 2438 1661 2464 
Q 1613 2490 1613 2534 
Q 1613 2573 1657 2582 
Q 1702 2592 1741 2592 
Q 1830 2592 1936 2576 
Q 2042 2560 2221 2560 
Q 2400 2560 2528 2576 
Q 2656 2592 2758 2592 
Q 2790 2592 2838 2582 
Q 2886 2573 2886 2534 
Q 2886 2490 2838 2464 
Q 2790 2438 2739 2419 
Q 2669 2394 2595 2349 
Q 2522 2304 2522 2189 
Q 2522 2150 2531 2102 
Q 2541 2054 2566 1997 
L 3046 762 
Q 3078 691 3098 691 
Q 3123 691 3149 755 
L 3635 1888 
Q 3661 1939 3670 2016 
Q 3680 2093 3680 2138 
Q 3680 2253 3603 2323 
Q 3526 2394 3456 2419 
Q 3405 2438 3357 2464 
Q 3309 2490 3309 2534 
Q 3309 2573 3357 2582 
Q 3405 2592 3437 2592 
Q 3578 2592 3661 2576 
Q 3744 2560 3917 2560 
Q 4038 2560 4089 2569 
Q 4141 2579 4179 2585 
Q 4218 2592 4288 2592 
Q 4326 2592 4371 2582 
Q 4416 2573 4416 2534 
Q 4416 2490 4368 2464 
Q 4320 2438 4269 2419 
Q 4173 2394 4083 2269 
Q 3994 2144 3930 1997 
L 3053 -102 
Q 3034 -147 2995 -147 
Q 2970 -147 2944 -102 
L 2278 1549 
Q 2259 1600 2240 1606 
Q 2221 1606 2195 1542 
L 1498 -102 
Q 1478 -147 1446 -147 
z
" transform="scale(0.015625)"/>
       <path id="EBGaramond-Regular-72" d="M 314 -19 
Q 250 -19 218 -3 
Q 186 13 186 51 
Q 186 102 224 118 
Q 262 134 333 154 
Q 454 186 515 246 
Q 576 307 576 397 
L 576 1773 
Q 576 1946 525 2074 
Q 474 2202 314 2234 
Q 288 2240 269 2265 
Q 250 2291 250 2317 
Q 250 2381 307 2394 
Q 474 2445 656 2544 
Q 838 2643 941 2707 
Q 979 2733 1001 2742 
Q 1024 2752 1037 2752 
Q 1069 2752 1069 2707 
Q 1069 2688 1065 2611 
Q 1062 2534 1059 2432 
Q 1056 2330 1050 2227 
Q 1050 2214 1062 2214 
Q 1165 2342 1289 2438 
Q 1414 2534 1545 2592 
Q 1677 2650 1798 2650 
Q 1933 2650 2019 2592 
Q 2106 2534 2106 2445 
Q 2106 2381 2070 2304 
Q 2035 2227 1977 2169 
Q 1920 2112 1856 2112 
Q 1818 2112 1773 2128 
Q 1728 2144 1677 2170 
Q 1626 2189 1574 2208 
Q 1523 2227 1472 2227 
Q 1318 2227 1174 2118 
Q 1030 2010 1030 1690 
L 1030 397 
Q 1030 314 1120 259 
Q 1210 205 1370 154 
Q 1440 134 1478 115 
Q 1517 96 1517 51 
Q 1517 -19 1389 -19 
Q 1197 -19 1097 -3 
Q 998 13 832 13 
Q 723 13 656 6 
Q 589 0 515 -9 
Q 442 -19 314 -19 
z
" transform="scale(0.015625)"/>
       <path id="EBGaramond-Regular-3d" d="M 410 2010 
Q 378 2010 349 2035 
Q 320 2061 320 2086 
Q 320 2118 336 2176 
Q 352 2234 384 2282 
Q 416 2330 474 2330 
L 3213 2330 
Q 3245 2330 3273 2310 
Q 3302 2291 3302 2259 
Q 3302 2195 3238 2102 
Q 3174 2010 3098 2010 
L 410 2010 
z
M 410 915 
Q 378 915 349 940 
Q 320 966 320 992 
Q 320 1024 336 1081 
Q 352 1139 384 1187 
Q 416 1235 474 1235 
L 3213 1235 
Q 3245 1235 3273 1216 
Q 3302 1197 3302 1165 
Q 3302 1082 3238 998 
Q 3174 915 3098 915 
L 410 915 
z
" transform="scale(0.015625)"/>
       <path id="EBGaramond-Regular-62" d="M 1658 -90 
Q 1517 -90 1376 -64 
Q 1235 -38 1107 -6 
Q 966 32 860 64 
Q 755 96 723 96 
Q 685 96 649 70 
Q 614 45 582 13 
Q 550 -19 525 -19 
Q 499 -19 467 3 
Q 435 26 435 58 
Q 435 115 457 256 
Q 480 397 480 518 
L 480 3622 
Q 480 3789 397 3910 
Q 314 4032 186 4090 
Q 160 4102 131 4124 
Q 102 4147 102 4186 
Q 102 4218 128 4230 
Q 154 4243 179 4250 
Q 262 4269 406 4320 
Q 550 4371 678 4422 
Q 806 4474 851 4493 
Q 890 4512 909 4512 
Q 922 4512 934 4499 
Q 947 4486 947 4467 
Q 947 4442 937 4253 
Q 928 4064 928 3795 
L 928 2483 
Q 928 2362 941 2320 
Q 954 2278 986 2272 
Q 1184 2438 1446 2544 
Q 1709 2650 1920 2650 
Q 2246 2650 2505 2483 
Q 2765 2317 2918 2032 
Q 3072 1747 3072 1389 
Q 3072 954 2893 618 
Q 2714 282 2397 96 
Q 2080 -90 1658 -90 
z
M 1805 109 
Q 2048 109 2224 259 
Q 2400 410 2496 669 
Q 2592 928 2592 1248 
Q 2592 1498 2499 1760 
Q 2406 2022 2211 2201 
Q 2016 2381 1709 2381 
Q 1453 2381 1261 2297 
Q 1069 2214 928 2086 
L 928 845 
Q 928 621 1053 454 
Q 1178 288 1379 198 
Q 1581 109 1805 109 
z
" transform="scale(0.015625)"/>
      </defs>
      <use xlink:href="#DejaVuSans-Oblique-42" transform="translate(0 0.125)"/>
      <use xlink:href="#DejaVuSans-Oblique-53" transform="translate(68.603516 0.125)"/>
      <use xlink:href="#DejaVuSans-28" transform="translate(132.080078 0.125)"/>
      <use xlink:href="#DejaVuSans-Oblique-74" transform="translate(171.09375 0.125)"/>
      <use xlink:href="#DejaVuSans-29" transform="translate(210.302734 0.125)"/>
      <use xlink:href="#EBGaramond-Regular-20" transform="translate(249.316406 0.125)"/>
      <use xlink:href="#EBGaramond-Regular-20" transform="translate(269.316391 0.125)"/>
      <use xlink:href="#EBGaramond-Regular-28" transform="translate(289.316376 0.125)"/>
      <use xlink:href="#EBGaramond-Regular-6c" transform="translate(320.81636 0.125)"/>
      <use xlink:href="#EBGaramond-Regular-6f" transform="translate(344.816345 0.125)"/>
      <use xlink:href="#EBGaramond-Regular-77" transform="translate(394.31633 0.125)"/>
      <use xlink:href="#EBGaramond-Regular-65" transform="translate(462.816315 0.125)"/>
      <use xlink:href="#EBGaramond-Regular-72" transform="translate(501.816299 0.125)"/>
      <use xlink:href="#EBGaramond-Regular-20" transform="translate(535.216293 0.125)"/>
      <use xlink:href="#EBGaramond-Regular-3d" transform="translate(555.216278 0.125)"/>
      <use xlink:href="#EBGaramond-Regular-20" transform="translate(611.816269 0.125)"/>
      <use xlink:href="#EBGaramond-Regular-62" transform="translate(631.816254 0.125)"/>
      <use xlink:href="#EBGaramond-Regular-65" transform="translate(683.316238 0.125)"/>
      <use xlink:href="#EBGaramond-Regular-74" transform="translate(722.316223 0.125)"/>
      <use xlink:href="#EBGaramond-Regular-74" transform="translate(753.716217 0.125)"/>
      <use xlink:href="#EBGaramond-Regular-65" transform="translate(785.116211 0.125)"/>
      <use xlink:href="#EBGaramond-Regular-72" transform="translate(824.116196 0.125)"/>
      <use xlink:href="#EBGaramond-Regular-29" transform="translate(857.51619 0.125)"/>
     </g>
    </g>
   </g>
   <g id="line2d_16">
    <path d="M 50.12 60.889292 
L 496.41 60.889292 
" clip-path="url(#p2df846ba56)" style="fill: none; stroke-dasharray: 1.6,2.64; stroke-dashoffset: 0; stroke: #5f776c; stroke-width: 1.6"/>
   </g>
   <g id="line2d_17">
    <path d="M 50.12 196.023542 
L 74.789296 188.672724 
L 99.458593 181.559737 
L 124.127889 174.684581 
L 148.797186 168.047254 
L 173.466482 161.647758 
L 198.135779 155.486092 
L 222.805075 149.562256 
L 247.474372 143.876251 
L 272.143668 138.428076 
L 296.812965 133.217731 
L 321.482261 128.245217 
L 346.151558 123.510532 
L 370.820854 119.013678 
L 395.490151 114.754655 
L 420.159447 110.733461 
L 444.828744 106.950098 
L 469.49804 103.404565 
L 494.167337 100.096863 
L 496.41 99.807956 
L 496.41 99.807956 
" clip-path="url(#p2df846ba56)" style="fill: none; stroke-dasharray: 8.14,3.52; stroke-dashoffset: 0; stroke: #b23a24; stroke-width: 2.2"/>
   </g>
   <g id="line2d_18">
    <path d="M 50.12 218.545917 
L 77.03196 213.436824 
L 103.94392 208.54001 
L 130.855879 203.855475 
L 157.767839 199.383217 
L 184.679799 195.123238 
L 211.591759 191.075537 
L 238.503719 187.240115 
L 265.415678 183.61697 
L 292.327638 180.206104 
L 319.239598 177.007516 
L 346.151558 174.021207 
L 373.063518 171.247175 
L 399.975477 168.685422 
L 426.887437 166.335947 
L 453.799397 164.198751 
L 480.711357 162.273832 
L 496.41 161.248995 
L 496.41 161.248995 
" clip-path="url(#p2df846ba56)" style="fill: none; stroke: #2f8a5f; stroke-width: 2.4; stroke-linecap: square"/>
   </g>
   <g id="patch_3">
    <path d="M 50.12 248.57575 
L 50.12 23.352 
" style="fill: none; stroke: #5f776c; stroke-width: 0.8; stroke-linejoin: miter; stroke-linecap: square"/>
   </g>
   <g id="patch_4">
    <path d="M 50.12 248.57575 
L 496.41 248.57575 
" style="fill: none; stroke: #5f776c; stroke-width: 0.8; stroke-linejoin: miter; stroke-linecap: square"/>
   </g>
   <g id="patch_5">
    <path d="M 187.795838 134.476322 
Q 242.11809 173.712143 295.534 212.293333 
" style="fill: none; stroke: #5f776c; stroke-linecap: round"/>
    <path d="M 293.462412 208.329935 
L 295.534 212.293333 
L 291.120329 211.572565 
" style="fill: none; stroke: #5f776c; stroke-linecap: round"/>
   </g>
   <g id="text_18">
    <!-- IBS = area under -->
    <g style="fill: #5f776c" transform="translate(136.898611 117.146417) scale(0.1 -0.1)">
     <defs>
      <path id="EBGaramond-Regular-49" d="M 307 -32 
Q 224 -32 173 -16 
Q 122 0 122 38 
Q 122 115 333 154 
Q 576 198 704 300 
Q 832 403 832 627 
L 832 3520 
Q 832 3744 739 3840 
Q 646 3936 403 3981 
Q 192 4019 192 4109 
Q 192 4147 243 4163 
Q 294 4179 378 4179 
Q 550 4179 662 4172 
Q 774 4166 876 4163 
Q 979 4160 1126 4160 
Q 1267 4160 1356 4163 
Q 1446 4166 1548 4172 
Q 1651 4179 1824 4179 
Q 1907 4179 1958 4163 
Q 2010 4147 2010 4109 
Q 2010 4064 1958 4032 
Q 1907 4000 1798 3981 
Q 1562 3936 1453 3840 
Q 1344 3744 1344 3520 
L 1344 627 
Q 1344 403 1478 300 
Q 1613 198 1850 154 
Q 1958 134 2009 108 
Q 2061 83 2061 38 
Q 2061 0 2009 -16 
Q 1958 -32 1875 -32 
Q 1702 -32 1590 -22 
Q 1478 -13 1376 -6 
Q 1274 0 1126 0 
Q 966 0 848 -6 
Q 730 -13 605 -22 
Q 480 -32 307 -32 
z
" transform="scale(0.015625)"/>
      <path id="EBGaramond-Regular-42" d="M 307 -32 
Q 224 -32 173 -16 
Q 122 0 122 38 
Q 122 115 333 154 
Q 576 198 704 300 
Q 832 403 832 634 
L 832 3514 
Q 832 3744 736 3853 
Q 640 3962 403 3981 
Q 294 3994 243 4029 
Q 192 4064 192 4109 
Q 192 4147 243 4163 
Q 294 4179 378 4179 
Q 550 4179 646 4179 
Q 742 4179 828 4176 
Q 915 4173 1043 4173 
Q 1165 4173 1254 4182 
Q 1344 4192 1456 4198 
Q 1568 4205 1754 4205 
Q 2502 4205 2870 3990 
Q 3238 3776 3238 3251 
Q 3238 3034 3164 2870 
Q 3091 2707 3021 2637 
Q 2918 2534 2835 2480 
Q 2752 2426 2592 2362 
Q 2566 2355 2566 2332 
Q 2566 2310 2592 2298 
Q 2739 2253 2896 2182 
Q 3053 2112 3190 2000 
Q 3328 1888 3414 1705 
Q 3501 1523 3501 1242 
Q 3501 890 3389 685 
Q 3277 480 3123 371 
Q 2970 262 2835 192 
Q 2637 90 2374 32 
Q 2112 -26 1747 -26 
Q 1664 -26 1497 -13 
Q 1331 0 1139 0 
Q 973 0 857 -6 
Q 742 -13 617 -22 
Q 493 -32 307 -32 
z
M 1837 237 
Q 2118 237 2361 365 
Q 2605 493 2752 713 
Q 2899 934 2899 1210 
Q 2899 1459 2816 1622 
Q 2733 1786 2624 1888 
Q 2515 1990 2426 2035 
Q 2342 2086 2163 2140 
Q 1984 2195 1696 2195 
Q 1491 2195 1411 2112 
Q 1331 2029 1331 1965 
L 1331 691 
Q 1331 422 1462 329 
Q 1594 237 1837 237 
z
M 1626 2374 
Q 1798 2374 2000 2412 
Q 2202 2451 2400 2560 
Q 2470 2598 2579 2745 
Q 2688 2893 2688 3168 
Q 2688 3354 2617 3549 
Q 2547 3744 2348 3878 
Q 2150 4013 1754 4013 
Q 1491 4013 1411 3942 
Q 1331 3872 1331 3725 
L 1331 2611 
Q 1331 2445 1440 2409 
Q 1549 2374 1626 2374 
z
" transform="scale(0.015625)"/>
      <path id="EBGaramond-Regular-53" d="M 1306 -102 
Q 1037 -102 809 -22 
Q 582 58 403 205 
Q 378 230 355 262 
Q 333 294 320 333 
Q 288 461 278 665 
Q 269 870 256 1005 
Q 256 1050 294 1072 
Q 333 1094 384 1094 
Q 416 1094 448 1078 
Q 480 1062 486 1024 
Q 614 531 867 320 
Q 1120 109 1395 109 
Q 1619 109 1792 205 
Q 1965 301 2064 477 
Q 2163 653 2163 890 
Q 2163 1152 2076 1315 
Q 1990 1478 1830 1600 
Q 1670 1722 1440 1862 
Q 1190 2022 947 2185 
Q 704 2349 544 2563 
Q 384 2778 384 3085 
Q 384 3411 531 3673 
Q 678 3936 976 4093 
Q 1274 4250 1722 4250 
Q 1952 4250 2121 4202 
Q 2291 4154 2394 4109 
Q 2445 4090 2480 4045 
Q 2515 4000 2528 3949 
Q 2566 3814 2611 3641 
Q 2656 3469 2656 3315 
Q 2656 3245 2560 3245 
Q 2502 3245 2448 3270 
Q 2394 3296 2381 3334 
Q 2246 3674 2067 3853 
Q 1888 4032 1613 4032 
Q 1421 4032 1254 3961 
Q 1088 3891 982 3731 
Q 877 3571 877 3302 
Q 877 3110 1001 2953 
Q 1126 2797 1331 2656 
Q 1536 2515 1773 2368 
Q 1997 2234 2211 2074 
Q 2426 1914 2563 1693 
Q 2701 1472 2701 1152 
Q 2701 774 2528 489 
Q 2355 205 2041 51 
Q 1728 -102 1306 -102 
z
" transform="scale(0.015625)"/>
      <path id="EBGaramond-Regular-61" d="M 749 -90 
Q 634 -90 515 0 
Q 397 90 317 218 
Q 237 346 237 461 
Q 237 666 345 781 
Q 454 896 691 992 
L 1344 1261 
Q 1472 1312 1494 1350 
Q 1517 1389 1523 1517 
L 1536 1926 
Q 1542 2093 1443 2214 
Q 1344 2336 1158 2336 
Q 1062 2336 966 2304 
Q 870 2272 806 2221 
Q 768 2195 755 2144 
Q 742 2093 742 2035 
Q 742 2010 745 1978 
Q 749 1946 749 1920 
Q 749 1888 669 1833 
Q 589 1779 489 1737 
Q 390 1696 326 1696 
Q 294 1696 275 1712 
Q 256 1728 256 1754 
Q 256 1856 323 1974 
Q 390 2093 512 2195 
Q 659 2330 832 2432 
Q 1005 2534 1171 2592 
Q 1338 2650 1466 2650 
Q 1696 2650 1846 2486 
Q 1997 2323 1990 2080 
L 1958 544 
Q 1952 410 2019 326 
Q 2086 243 2189 243 
Q 2349 243 2426 314 
Q 2458 346 2477 346 
Q 2509 346 2528 326 
Q 2547 307 2547 275 
Q 2547 205 2477 134 
Q 2374 32 2256 -29 
Q 2138 -90 2035 -90 
Q 1741 -90 1568 243 
L 1549 243 
Q 1338 70 1146 -10 
Q 954 -90 749 -90 
z
M 1050 218 
Q 1178 218 1267 259 
Q 1357 301 1427 371 
Q 1459 403 1481 457 
Q 1504 512 1510 634 
L 1523 947 
Q 1530 1018 1517 1050 
Q 1504 1082 1466 1082 
Q 1453 1082 1421 1075 
Q 1389 1069 1338 1050 
Q 998 928 867 797 
Q 736 666 736 557 
Q 736 390 835 304 
Q 934 218 1050 218 
z
" transform="scale(0.015625)"/>
      <path id="EBGaramond-Regular-75" d="M 2342 -122 
Q 2298 -122 2298 -70 
Q 2298 -6 2314 118 
Q 2330 243 2330 326 
Q 2330 339 2330 348 
Q 2330 358 2330 365 
Q 2080 122 1827 16 
Q 1574 -90 1274 -90 
Q 1069 -90 902 -3 
Q 736 83 640 252 
Q 544 422 544 672 
L 544 1971 
Q 544 2112 480 2195 
Q 416 2278 269 2336 
Q 237 2349 211 2368 
Q 186 2387 186 2438 
Q 186 2496 214 2515 
Q 243 2534 282 2541 
Q 499 2554 617 2576 
Q 736 2598 915 2643 
Q 934 2650 944 2650 
Q 954 2650 966 2650 
Q 1037 2650 1030 2560 
Q 1011 2413 1001 2313 
Q 992 2214 992 2067 
L 992 819 
Q 992 666 1069 534 
Q 1146 403 1270 320 
Q 1395 237 1530 237 
Q 1696 237 1821 256 
Q 1946 275 2067 365 
Q 2138 416 2246 531 
Q 2355 646 2355 845 
L 2355 2016 
Q 2355 2150 2275 2217 
Q 2195 2285 2092 2310 
Q 1990 2336 1926 2336 
Q 1869 2336 1830 2358 
Q 1792 2381 1792 2445 
Q 1792 2502 1833 2521 
Q 1875 2541 1926 2541 
Q 2125 2547 2256 2556 
Q 2387 2566 2492 2588 
Q 2598 2611 2714 2643 
Q 2726 2650 2745 2653 
Q 2765 2656 2778 2656 
Q 2861 2656 2861 2586 
Q 2861 2579 2857 2563 
Q 2854 2547 2848 2528 
Q 2842 2509 2832 2419 
Q 2822 2330 2812 2234 
Q 2803 2138 2803 2086 
L 2803 608 
Q 2803 435 2838 361 
Q 2874 288 2918 288 
Q 2970 288 3069 297 
Q 3168 307 3213 307 
Q 3245 307 3277 294 
Q 3309 282 3309 224 
Q 3309 173 3283 157 
Q 3258 141 3219 134 
Q 2970 102 2790 38 
Q 2611 -26 2470 -83 
Q 2451 -90 2412 -106 
Q 2374 -122 2342 -122 
z
" transform="scale(0.015625)"/>
      <path id="EBGaramond-Regular-64" d="M 2285 -122 
Q 2272 -122 2243 -96 
Q 2214 -70 2214 -58 
Q 2214 6 2230 124 
Q 2246 243 2246 326 
L 2246 365 
Q 2150 218 1939 64 
Q 1728 -90 1408 -90 
Q 1043 -90 777 102 
Q 512 294 368 595 
Q 224 896 224 1216 
Q 224 1587 397 1913 
Q 570 2240 893 2445 
Q 1216 2650 1664 2650 
Q 1792 2650 1923 2627 
Q 2054 2605 2125 2579 
Q 2182 2560 2208 2560 
Q 2253 2560 2253 2714 
L 2253 3622 
Q 2253 3885 2169 3974 
Q 2086 4064 1933 4090 
Q 1875 4102 1875 4173 
Q 1875 4230 1926 4250 
Q 2208 4320 2368 4384 
Q 2528 4448 2618 4486 
Q 2643 4499 2665 4502 
Q 2688 4506 2701 4506 
Q 2739 4506 2746 4467 
Q 2746 4429 2736 4336 
Q 2726 4243 2713 4064 
Q 2701 3885 2701 3597 
L 2701 704 
Q 2701 486 2733 387 
Q 2765 288 2835 288 
Q 2867 288 2947 294 
Q 3027 301 3110 307 
Q 3226 314 3226 250 
Q 3226 205 3197 169 
Q 3168 134 3136 134 
Q 2957 109 2784 61 
Q 2611 13 2387 -83 
Q 2336 -109 2320 -115 
Q 2304 -122 2285 -122 
z
M 1638 243 
Q 1805 243 1965 329 
Q 2125 416 2246 557 
L 2253 1709 
Q 2253 1882 2153 2048 
Q 2054 2214 1878 2320 
Q 1702 2426 1466 2426 
Q 1318 2426 1132 2336 
Q 947 2246 812 2019 
Q 678 1792 678 1363 
Q 678 998 787 777 
Q 896 557 1053 441 
Q 1210 326 1373 284 
Q 1536 243 1638 243 
z
" transform="scale(0.015625)"/>
     </defs>
     <use xlink:href="#EBGaramond-Regular-49"/>
     <use xlink:href="#EBGaramond-Regular-42" x="33.999985"/>
     <use xlink:href="#EBGaramond-Regular-53" x="92.699982"/>
     <use xlink:href="#EBGaramond-Regular-20" x="139.199966"/>
     <use xlink:href="#EBGaramond-Regular-3d" x="159.199951"/>
     <use xlink:href="#EBGaramond-Regular-20" x="215.799942"/>
     <use xlink:href="#EBGaramond-Regular-61" x="235.799927"/>
     <use xlink:href="#EBGaramond-Regular-72" x="275.699921"/>
     <use xlink:href="#EBGaramond-Regular-65" x="309.099915"/>
     <use xlink:href="#EBGaramond-Regular-61" x="348.099899"/>
     <use xlink:href="#EBGaramond-Regular-20" x="387.999893"/>
     <use xlink:href="#EBGaramond-Regular-75" x="407.999878"/>
     <use xlink:href="#EBGaramond-Regular-6e" x="460.699875"/>
     <use xlink:href="#EBGaramond-Regular-64" x="513.499863"/>
     <use xlink:href="#EBGaramond-Regular-65" x="564.099854"/>
     <use xlink:href="#EBGaramond-Regular-72" x="603.099838"/>
    </g>
    <!-- the model curve -->
    <g style="fill: #5f776c" transform="translate(136.898611 128.456417) scale(0.1 -0.1)">
     <defs>
      <path id="EBGaramond-Regular-63" d="M 1363 -96 
Q 1043 -96 784 67 
Q 525 230 374 515 
Q 224 800 224 1152 
Q 224 1568 406 1907 
Q 589 2246 896 2448 
Q 1203 2650 1574 2650 
Q 1990 2650 2304 2426 
Q 2381 2368 2381 2304 
Q 2381 2253 2336 2189 
Q 2291 2125 2227 2083 
Q 2163 2042 2106 2042 
Q 2074 2042 2042 2064 
Q 2010 2086 1971 2112 
Q 1830 2221 1657 2317 
Q 1485 2413 1370 2413 
Q 1056 2413 861 2121 
Q 666 1830 666 1357 
Q 666 1056 797 813 
Q 928 570 1149 429 
Q 1370 288 1638 288 
Q 1824 288 1958 349 
Q 2093 410 2246 563 
Q 2259 576 2278 585 
Q 2298 595 2310 595 
Q 2381 595 2381 506 
Q 2381 467 2358 419 
Q 2336 371 2285 307 
Q 2182 179 2041 86 
Q 1901 -6 1731 -51 
Q 1562 -96 1363 -96 
z
" transform="scale(0.015625)"/>
      <path id="EBGaramond-Regular-76" d="M 1370 -134 
Q 1344 -134 1305 -35 
Q 1267 64 1254 109 
Q 1210 218 1171 336 
Q 1133 454 1094 557 
Q 954 954 790 1334 
Q 627 1715 474 2106 
Q 429 2221 336 2313 
Q 243 2406 147 2432 
Q 96 2451 64 2470 
Q 32 2490 32 2534 
Q 32 2573 80 2582 
Q 128 2592 160 2592 
Q 288 2592 345 2585 
Q 403 2579 460 2569 
Q 518 2560 627 2560 
Q 742 2560 800 2569 
Q 858 2579 922 2585 
Q 986 2592 1107 2592 
Q 1139 2592 1187 2582 
Q 1235 2573 1235 2534 
Q 1235 2490 1190 2464 
Q 1146 2438 1088 2419 
Q 1024 2394 992 2320 
Q 960 2246 960 2157 
Q 960 2112 966 2067 
Q 973 2022 986 1984 
L 1491 640 
Q 1498 634 1501 634 
Q 1504 634 1510 640 
L 1997 1888 
Q 2022 1952 2035 2025 
Q 2048 2099 2048 2150 
Q 2048 2278 2009 2332 
Q 1971 2387 1882 2419 
Q 1798 2451 1766 2470 
Q 1734 2490 1734 2534 
Q 1734 2573 1776 2582 
Q 1818 2592 1862 2592 
Q 1933 2592 2048 2576 
Q 2163 2560 2330 2560 
Q 2496 2560 2557 2576 
Q 2618 2592 2707 2592 
Q 2758 2592 2796 2582 
Q 2835 2573 2835 2534 
Q 2835 2464 2688 2419 
Q 2592 2394 2477 2272 
Q 2362 2150 2291 1990 
L 1792 787 
Q 1779 762 1740 662 
Q 1702 563 1657 444 
Q 1613 326 1581 240 
Q 1549 154 1549 154 
Q 1549 154 1523 93 
Q 1498 32 1466 -35 
Q 1434 -102 1408 -134 
L 1370 -134 
z
" transform="scale(0.015625)"/>
     </defs>
     <use xlink:href="#EBGaramond-Regular-74"/>
     <use xlink:href="#EBGaramond-Regular-68" x="31.399994"/>
     <use xlink:href="#EBGaramond-Regular-65" x="82.899979"/>
     <use xlink:href="#EBGaramond-Regular-20" x="121.899963"/>
     <use xlink:href="#EBGaramond-Regular-6d" x="141.899948"/>
     <use xlink:href="#EBGaramond-Regular-6f" x="219.699936"/>
     <use xlink:href="#EBGaramond-Regular-64" x="269.199921"/>
     <use xlink:href="#EBGaramond-Regular-65" x="319.799911"/>
     <use xlink:href="#EBGaramond-Regular-6c" x="358.799896"/>
     <use xlink:href="#EBGaramond-Regular-20" x="382.799881"/>
     <use xlink:href="#EBGaramond-Regular-63" x="402.799866"/>
     <use xlink:href="#EBGaramond-Regular-75" x="443.499863"/>
     <use xlink:href="#EBGaramond-Regular-72" x="496.19986"/>
     <use xlink:href="#EBGaramond-Regular-76" x="529.599854"/>
     <use xlink:href="#EBGaramond-Regular-65" x="573.399841"/>
    </g>
   </g>
   <g id="text_19">
    <!-- Brier score: calibration over time — beat the KM baseline -->
    <g style="fill: #0e1f1b" transform="translate(116.36575 17.352) scale(0.144 -0.144)">
     <defs>
      <path id="EBGaramond-Regular-3a" d="M 800 1702 
Q 659 1702 553 1808 
Q 448 1914 448 2054 
Q 448 2202 553 2304 
Q 659 2406 800 2406 
Q 947 2406 1049 2304 
Q 1152 2202 1152 2054 
Q 1152 1914 1049 1808 
Q 947 1702 800 1702 
z
M 800 -90 
Q 659 -90 553 16 
Q 448 122 448 262 
Q 448 410 553 512 
Q 659 614 800 614 
Q 947 614 1049 512 
Q 1152 410 1152 262 
Q 1152 122 1049 16 
Q 947 -90 800 -90 
z
" transform="scale(0.015625)"/>
      <path id="EBGaramond-Regular-2014" d="M 410 1184 
Q 378 1184 349 1209 
Q 320 1235 320 1261 
Q 320 1293 333 1357 
Q 346 1421 381 1475 
Q 416 1530 474 1530 
L 5677 1530 
Q 5709 1530 5734 1507 
Q 5760 1485 5760 1453 
Q 5760 1357 5699 1270 
Q 5638 1184 5562 1184 
L 410 1184 
z
" transform="scale(0.015625)"/>
      <path id="EBGaramond-Regular-4b" d="M 384 -32 
Q 301 -32 249 -16 
Q 198 0 198 38 
Q 198 115 410 154 
Q 653 198 745 304 
Q 838 410 838 646 
L 838 3526 
Q 838 3750 745 3843 
Q 653 3936 410 3981 
Q 198 4019 198 4109 
Q 198 4147 249 4163 
Q 301 4179 384 4179 
Q 557 4179 662 4176 
Q 768 4173 864 4169 
Q 960 4166 1101 4166 
Q 1222 4166 1296 4169 
Q 1370 4173 1459 4176 
Q 1549 4179 1722 4179 
Q 1805 4179 1856 4163 
Q 1907 4147 1907 4109 
Q 1907 4064 1856 4032 
Q 1805 4000 1696 3981 
Q 1459 3936 1404 3824 
Q 1350 3712 1350 3526 
L 1350 2330 
Q 1350 2304 1353 2256 
Q 1357 2208 1382 2208 
Q 1414 2208 1468 2246 
Q 1523 2285 1555 2323 
L 2835 3629 
Q 2886 3680 2908 3728 
Q 2931 3776 2931 3821 
Q 2931 3936 2810 3968 
Q 2701 4000 2656 4025 
Q 2611 4051 2611 4096 
Q 2611 4134 2662 4150 
Q 2714 4166 2797 4166 
L 3142 4166 
Q 3328 4166 3552 4172 
Q 3776 4179 3958 4185 
Q 4141 4192 4179 4192 
Q 4243 4192 4281 4173 
Q 4320 4154 4320 4122 
Q 4320 4077 4269 4045 
Q 4218 4013 4109 3994 
Q 3872 3949 3616 3853 
Q 3360 3757 3136 3571 
Q 2906 3379 2710 3196 
Q 2515 3014 2323 2819 
Q 2131 2624 1907 2374 
Q 1869 2336 1939 2259 
L 3488 608 
Q 3629 454 3715 371 
Q 3802 288 3907 240 
Q 4013 192 4192 154 
Q 4301 128 4352 105 
Q 4403 83 4403 38 
Q 4403 0 4352 -16 
Q 4301 -32 4218 -32 
Q 4032 -32 3897 -22 
Q 3763 -13 3635 -6 
Q 3507 0 3328 0 
Q 3206 0 3116 -3 
Q 3027 -6 2810 -6 
Q 2726 -6 2675 10 
Q 2624 26 2624 64 
Q 2624 134 2797 173 
Q 2976 218 2976 301 
Q 2976 339 2947 377 
Q 2918 416 2880 461 
L 1523 1958 
Q 1485 1997 1443 2032 
Q 1402 2067 1376 2067 
Q 1350 2067 1350 2016 
Q 1350 1965 1350 1933 
Q 1350 1632 1360 1360 
Q 1370 1088 1382 704 
Q 1389 570 1424 454 
Q 1459 339 1545 262 
Q 1632 186 1792 154 
Q 1901 134 1952 108 
Q 2003 83 2003 38 
Q 2003 0 1952 -16 
Q 1901 -32 1818 -32 
Q 1645 -32 1552 -19 
Q 1459 -6 1385 3 
Q 1312 13 1190 13 
Q 1037 13 918 3 
Q 800 -6 678 -19 
Q 557 -32 384 -32 
z
" transform="scale(0.015625)"/>
      <path id="EBGaramond-Regular-4d" d="M 307 -32 
Q 224 -32 173 -16 
Q 122 0 122 38 
Q 122 83 173 108 
Q 224 134 333 154 
Q 493 186 595 307 
Q 698 429 730 653 
Q 806 1229 864 1750 
Q 922 2272 957 2691 
Q 992 3110 992 3379 
Q 992 3430 992 3488 
Q 992 3546 986 3590 
Q 979 3642 966 3696 
Q 954 3750 890 3802 
Q 774 3898 665 3933 
Q 557 3968 410 3994 
Q 346 4006 307 4041 
Q 269 4077 269 4122 
Q 269 4173 329 4182 
Q 390 4192 486 4192 
Q 550 4192 681 4185 
Q 813 4179 966 4166 
Q 1120 4154 1251 4147 
Q 1382 4141 1446 4141 
Q 1491 4141 1523 4115 
Q 1555 4090 1568 4038 
Q 1600 3923 1632 3795 
Q 1664 3667 1709 3546 
L 2720 979 
Q 2739 934 2790 924 
Q 2842 915 2867 960 
L 4128 3584 
Q 4160 3693 4192 3827 
Q 4224 3962 4243 4064 
Q 4262 4147 4307 4147 
L 4538 4147 
Q 4730 4147 4944 4172 
Q 5158 4198 5267 4198 
Q 5299 4198 5350 4188 
Q 5402 4179 5402 4134 
Q 5402 4090 5366 4064 
Q 5331 4038 5235 4000 
Q 5152 3968 5049 3929 
Q 4947 3891 4858 3853 
Q 4794 3827 4749 3766 
Q 4704 3706 4704 3635 
Q 4704 3187 4720 2793 
Q 4736 2400 4755 2038 
Q 4774 1677 4800 1325 
Q 4826 973 4845 608 
Q 4858 410 4973 304 
Q 5088 198 5325 154 
Q 5434 134 5485 108 
Q 5536 83 5536 38 
Q 5536 0 5485 -16 
Q 5434 -32 5350 -32 
Q 5178 -32 5066 -22 
Q 4954 -13 4851 -6 
Q 4749 0 4602 0 
Q 4474 0 4387 -6 
Q 4301 -13 4201 -22 
Q 4102 -32 3930 -32 
Q 3846 -32 3795 -16 
Q 3744 0 3744 38 
Q 3744 83 3795 112 
Q 3846 141 3955 154 
Q 4141 179 4211 284 
Q 4282 390 4282 614 
Q 4282 1075 4272 1446 
Q 4262 1818 4243 2179 
Q 4224 2541 4205 2970 
Q 4198 3040 4166 3037 
Q 4134 3034 4102 2970 
L 2630 -32 
Q 2618 -64 2573 -67 
Q 2528 -70 2515 -26 
Q 2266 723 1981 1449 
Q 1696 2176 1338 3014 
Q 1325 3046 1293 3046 
Q 1261 3046 1254 3014 
Q 1197 2566 1149 2192 
Q 1101 1818 1075 1453 
Q 1050 1088 1050 653 
Q 1050 480 1158 336 
Q 1267 192 1466 154 
Q 1574 134 1625 108 
Q 1677 83 1677 38 
Q 1677 0 1625 -16 
Q 1574 -32 1491 -32 
Q 1318 -32 1232 -22 
Q 1146 -13 1078 -6 
Q 1011 0 890 0 
Q 774 0 710 -6 
Q 646 -13 563 -22 
Q 480 -32 307 -32 
z
" transform="scale(0.015625)"/>
     </defs>
     <use xlink:href="#EBGaramond-Regular-42"/>
     <use xlink:href="#EBGaramond-Regular-72" x="58.699997"/>
     <use xlink:href="#EBGaramond-Regular-69" x="92.099991"/>
     <use xlink:href="#EBGaramond-Regular-65" x="116.599976"/>
     <use xlink:href="#EBGaramond-Regular-72" x="155.59996"/>
     <use xlink:href="#EBGaramond-Regular-20" x="188.999954"/>
     <use xlink:href="#EBGaramond-Regular-73" x="208.999939"/>
     <use xlink:href="#EBGaramond-Regular-63" x="241.299927"/>
     <use xlink:href="#EBGaramond-Regular-6f" x="281.999924"/>
     <use xlink:href="#EBGaramond-Regular-72" x="331.499908"/>
     <use xlink:href="#EBGaramond-Regular-65" x="364.899902"/>
     <use xlink:href="#EBGaramond-Regular-3a" x="403.899887"/>
     <use xlink:href="#EBGaramond-Regular-20" x="428.699875"/>
     <use xlink:href="#EBGaramond-Regular-63" x="448.69986"/>
     <use xlink:href="#EBGaramond-Regular-61" x="489.399857"/>
     <use xlink:href="#EBGaramond-Regular-6c" x="529.29985"/>
     <use xlink:href="#EBGaramond-Regular-69" x="553.299835"/>
     <use xlink:href="#EBGaramond-Regular-62" x="577.79982"/>
     <use xlink:href="#EBGaramond-Regular-72" x="629.299805"/>
     <use xlink:href="#EBGaramond-Regular-61" x="662.699799"/>
     <use xlink:href="#EBGaramond-Regular-74" x="702.599792"/>
     <use xlink:href="#EBGaramond-Regular-69" x="733.999786"/>
     <use xlink:href="#EBGaramond-Regular-6f" x="758.499771"/>
     <use xlink:href="#EBGaramond-Regular-6e" x="807.999756"/>
     <use xlink:href="#EBGaramond-Regular-20" x="860.799744"/>
     <use xlink:href="#EBGaramond-Regular-6f" x="880.799728"/>
     <use xlink:href="#EBGaramond-Regular-76" x="930.299713"/>
     <use xlink:href="#EBGaramond-Regular-65" x="974.099701"/>
     <use xlink:href="#EBGaramond-Regular-72" x="1013.099686"/>
     <use xlink:href="#EBGaramond-Regular-20" x="1046.49968"/>
     <use xlink:href="#EBGaramond-Regular-74" x="1066.499664"/>
     <use xlink:href="#EBGaramond-Regular-69" x="1097.899658"/>
     <use xlink:href="#EBGaramond-Regular-6d" x="1122.399643"/>
     <use xlink:href="#EBGaramond-Regular-65" x="1200.199631"/>
     <use xlink:href="#EBGaramond-Regular-20" x="1239.199615"/>
     <use xlink:href="#EBGaramond-Regular-2014" x="1259.1996"/>
     <use xlink:href="#EBGaramond-Regular-20" x="1354.199585"/>
     <use xlink:href="#EBGaramond-Regular-62" x="1374.19957"/>
     <use xlink:href="#EBGaramond-Regular-65" x="1425.699554"/>
     <use xlink:href="#EBGaramond-Regular-61" x="1464.699539"/>
     <use xlink:href="#EBGaramond-Regular-74" x="1504.599533"/>
     <use xlink:href="#EBGaramond-Regular-20" x="1535.999527"/>
     <use xlink:href="#EBGaramond-Regular-74" x="1555.999512"/>
     <use xlink:href="#EBGaramond-Regular-68" x="1587.399506"/>
     <use xlink:href="#EBGaramond-Regular-65" x="1638.89949"/>
     <use xlink:href="#EBGaramond-Regular-20" x="1677.899475"/>
     <use xlink:href="#EBGaramond-Regular-4b" x="1697.89946"/>
     <use xlink:href="#EBGaramond-Regular-4d" x="1765.999451"/>
     <use xlink:href="#EBGaramond-Regular-20" x="1856.099442"/>
     <use xlink:href="#EBGaramond-Regular-62" x="1876.099426"/>
     <use xlink:href="#EBGaramond-Regular-61" x="1927.599411"/>
     <use xlink:href="#EBGaramond-Regular-73" x="1967.499405"/>
     <use xlink:href="#EBGaramond-Regular-65" x="1999.799393"/>
     <use xlink:href="#EBGaramond-Regular-6c" x="2038.799377"/>
     <use xlink:href="#EBGaramond-Regular-69" x="2062.799362"/>
     <use xlink:href="#EBGaramond-Regular-6e" x="2087.299347"/>
     <use xlink:href="#EBGaramond-Regular-65" x="2140.099335"/>
    </g>
   </g>
   <g id="legend_1">
    <g id="line2d_19">
     <path d="M 58.22 34.647 
L 67.22 34.647 
L 76.22 34.647 
" style="fill: none; stroke-dasharray: 1.6,2.64; stroke-dashoffset: 0; stroke: #5f776c; stroke-width: 1.6"/>
    </g>
    <g id="text_20">
     <!-- uninformative (0.25) -->
     <g style="fill: #33463f" transform="translate(83.42 37.797) scale(0.09 -0.09)">
      <defs>
       <path id="EBGaramond-Regular-66" d="M 282 -19 
Q 218 -19 186 -3 
Q 154 13 154 51 
Q 154 102 195 121 
Q 237 141 301 154 
Q 448 186 512 246 
Q 576 307 576 435 
L 576 2240 
Q 512 2240 429 2243 
Q 346 2246 243 2253 
Q 224 2259 189 2297 
Q 154 2336 154 2368 
Q 154 2381 173 2390 
Q 192 2400 198 2406 
Q 314 2464 397 2509 
Q 480 2554 576 2598 
Q 576 3155 713 3526 
Q 851 3898 1068 4115 
Q 1286 4333 1529 4425 
Q 1773 4518 1984 4518 
Q 2342 4518 2515 4409 
Q 2688 4301 2688 4134 
Q 2688 4006 2624 3942 
Q 2560 3878 2470 3878 
Q 2413 3878 2365 3923 
Q 2317 3968 2253 4026 
Q 2170 4109 2048 4182 
Q 1926 4256 1715 4256 
Q 1414 4256 1219 3993 
Q 1024 3731 1024 3187 
L 1024 2624 
Q 1024 2586 1046 2573 
Q 1069 2560 1094 2560 
L 1894 2560 
Q 1926 2560 1952 2541 
Q 1978 2522 1978 2490 
Q 1978 2445 1968 2393 
Q 1958 2342 1939 2304 
Q 1920 2253 1882 2253 
L 1146 2253 
Q 1069 2253 1046 2230 
Q 1024 2208 1024 2170 
L 1024 435 
Q 1024 307 1107 246 
Q 1190 186 1446 154 
Q 1594 134 1594 51 
Q 1594 13 1562 -3 
Q 1530 -19 1466 -19 
Q 1274 -19 1126 -3 
Q 979 13 813 13 
Q 704 13 633 6 
Q 563 0 486 -9 
Q 410 -19 282 -19 
z
" transform="scale(0.015625)"/>
      </defs>
      <use xlink:href="#EBGaramond-Regular-75"/>
      <use xlink:href="#EBGaramond-Regular-6e" x="52.699997"/>
      <use xlink:href="#EBGaramond-Regular-69" x="105.499985"/>
      <use xlink:href="#EBGaramond-Regular-6e" x="129.999969"/>
      <use xlink:href="#EBGaramond-Regular-66" x="182.799957"/>
      <use xlink:href="#EBGaramond-Regular-6f" x="214.599945"/>
      <use xlink:href="#EBGaramond-Regular-72" x="264.09993"/>
      <use xlink:href="#EBGaramond-Regular-6d" x="297.499924"/>
      <use xlink:href="#EBGaramond-Regular-61" x="375.299911"/>
      <use xlink:href="#EBGaramond-Regular-74" x="415.199905"/>
      <use xlink:href="#EBGaramond-Regular-69" x="446.599899"/>
      <use xlink:href="#EBGaramond-Regular-76" x="471.099884"/>
      <use xlink:href="#EBGaramond-Regular-65" x="514.899872"/>
      <use xlink:href="#EBGaramond-Regular-20" x="553.899857"/>
      <use xlink:href="#EBGaramond-Regular-28" x="573.899841"/>
      <use xlink:href="#EBGaramond-Regular-30" x="605.399826"/>
      <use xlink:href="#EBGaramond-Regular-2e" x="653.399811"/>
      <use xlink:href="#EBGaramond-Regular-32" x="676.399796"/>
      <use xlink:href="#EBGaramond-Regular-35" x="724.39978"/>
      <use xlink:href="#EBGaramond-Regular-29" x="772.399765"/>
     </g>
    </g>
    <g id="line2d_20">
     <path d="M 58.22 48.057 
L 67.22 48.057 
L 76.22 48.057 
" style="fill: none; stroke-dasharray: 8.14,3.52; stroke-dashoffset: 0; stroke: #b23a24; stroke-width: 2.2"/>
    </g>
    <g id="text_21">
     <!-- Kaplan-Meier baseline -->
     <g style="fill: #33463f" transform="translate(83.42 51.207) scale(0.09 -0.09)">
      <defs>
       <path id="EBGaramond-Regular-70" d="M 256 -1824 
Q 224 -1824 173 -1814 
Q 122 -1805 122 -1766 
Q 122 -1715 170 -1692 
Q 218 -1670 269 -1651 
Q 365 -1619 454 -1577 
Q 544 -1536 544 -1408 
L 544 1837 
Q 544 1888 515 1990 
Q 486 2093 422 2189 
Q 358 2285 250 2304 
Q 224 2310 211 2336 
Q 198 2362 198 2387 
Q 198 2419 211 2438 
Q 224 2458 243 2464 
Q 486 2522 659 2589 
Q 832 2656 986 2720 
Q 992 2720 992 2723 
Q 992 2726 998 2726 
Q 1011 2726 1024 2707 
Q 1037 2688 1037 2669 
Q 1037 2611 1021 2486 
Q 1005 2362 1005 2285 
Q 1005 2234 1011 2227 
Q 1075 2291 1244 2390 
Q 1414 2490 1632 2570 
Q 1850 2650 2048 2650 
Q 2381 2650 2614 2474 
Q 2848 2298 2973 2019 
Q 3098 1741 3098 1440 
Q 3098 1152 2989 880 
Q 2880 608 2681 390 
Q 2483 173 2220 41 
Q 1958 -90 1658 -90 
Q 1568 -90 1443 -61 
Q 1318 -32 1200 13 
Q 1082 58 1018 115 
Q 1011 115 1004 41 
Q 998 -32 995 -112 
Q 992 -192 992 -211 
L 992 -1408 
Q 992 -1491 1059 -1539 
Q 1126 -1587 1212 -1609 
Q 1299 -1632 1363 -1651 
Q 1414 -1670 1462 -1692 
Q 1510 -1715 1510 -1766 
Q 1510 -1805 1459 -1814 
Q 1408 -1824 1370 -1824 
Q 1184 -1824 1059 -1808 
Q 934 -1792 768 -1792 
Q 659 -1792 592 -1798 
Q 525 -1805 454 -1814 
Q 384 -1824 256 -1824 
z
M 1754 109 
Q 1850 109 1987 166 
Q 2125 224 2262 352 
Q 2400 480 2493 697 
Q 2586 915 2586 1235 
Q 2586 1606 2490 1830 
Q 2394 2054 2253 2169 
Q 2112 2285 1965 2323 
Q 1818 2362 1715 2362 
Q 1562 2362 1398 2298 
Q 1235 2234 1123 2154 
Q 1011 2074 1011 2029 
Q 1011 1888 1008 1744 
Q 1005 1600 1001 1465 
Q 998 1331 995 1225 
Q 992 1120 992 1062 
Q 992 806 1110 588 
Q 1229 371 1405 240 
Q 1581 109 1754 109 
z
" transform="scale(0.015625)"/>
       <path id="EBGaramond-Regular-2d" d="M 224 1088 
Q 186 1088 186 1126 
Q 186 1235 214 1350 
Q 243 1466 288 1472 
Q 595 1517 902 1558 
Q 1210 1600 1517 1632 
Q 1536 1632 1552 1622 
Q 1568 1613 1568 1594 
Q 1568 1472 1539 1366 
Q 1510 1261 1434 1248 
Q 1146 1203 848 1161 
Q 550 1120 224 1088 
z
" transform="scale(0.015625)"/>
      </defs>
      <use xlink:href="#EBGaramond-Regular-4b"/>
      <use xlink:href="#EBGaramond-Regular-61" x="68.099991"/>
      <use xlink:href="#EBGaramond-Regular-70" x="107.999985"/>
      <use xlink:href="#EBGaramond-Regular-6c" x="159.899979"/>
      <use xlink:href="#EBGaramond-Regular-61" x="183.899963"/>
      <use xlink:href="#EBGaramond-Regular-6e" x="223.799957"/>
      <use xlink:href="#EBGaramond-Regular-2d" x="276.599945"/>
      <use xlink:href="#EBGaramond-Regular-4d" x="303.999939"/>
      <use xlink:href="#EBGaramond-Regular-65" x="394.09993"/>
      <use xlink:href="#EBGaramond-Regular-69" x="433.099915"/>
      <use xlink:href="#EBGaramond-Regular-65" x="457.599899"/>
      <use xlink:href="#EBGaramond-Regular-72" x="496.599884"/>
      <use xlink:href="#EBGaramond-Regular-20" x="529.999878"/>
      <use xlink:href="#EBGaramond-Regular-62" x="549.999863"/>
      <use xlink:href="#EBGaramond-Regular-61" x="601.499847"/>
      <use xlink:href="#EBGaramond-Regular-73" x="641.399841"/>
      <use xlink:href="#EBGaramond-Regular-65" x="673.699829"/>
      <use xlink:href="#EBGaramond-Regular-6c" x="712.699814"/>
      <use xlink:href="#EBGaramond-Regular-69" x="736.699799"/>
      <use xlink:href="#EBGaramond-Regular-6e" x="761.199783"/>
      <use xlink:href="#EBGaramond-Regular-65" x="813.999771"/>
     </g>
    </g>
    <g id="line2d_21">
     <path d="M 58.22 61.467 
L 67.22 61.467 
L 76.22 61.467 
" style="fill: none; stroke: #2f8a5f; stroke-width: 2.4; stroke-linecap: square"/>
    </g>
    <g id="text_22">
     <!-- model -->
     <g style="fill: #33463f" transform="translate(83.42 64.617) scale(0.09 -0.09)">
      <use xlink:href="#EBGaramond-Regular-6d"/>
      <use xlink:href="#EBGaramond-Regular-6f" x="77.799988"/>
      <use xlink:href="#EBGaramond-Regular-64" x="127.299973"/>
      <use xlink:href="#EBGaramond-Regular-65" x="177.899963"/>
      <use xlink:href="#EBGaramond-Regular-6c" x="216.899948"/>
     </g>
    </g>
   </g>
  </g>
 </g>
 <defs>
  <clipPath id="p2df846ba56">
   <rect x="50.12" y="23.352" width="446.29" height="225.22375"/>
  </clipPath>
 </defs>
</svg>
