<?xml version="1.0" encoding="utf-8" standalone="no"?>
<!DOCTYPE svg PUBLIC "-//W3C//DTD SVG 1.1//EN"
  "http://www.w3.org/Graphics/SVG/1.1/DTD/svg11.dtd">
<svg xmlns:xlink="http://www.w3.org/1999/xlink" width="503.518125pt" height="288.393pt" viewBox="0 0 503.518125 288.393" xmlns="http://www.w3.org/2000/svg" version="1.1">
 <metadata>
  <rdf:RDF xmlns:dc="http://purl.org/dc/elements/1.1/" xmlns:cc="http://creativecommons.org/ns#" xmlns:rdf="http://www.w3.org/1999/02/22-rdf-syntax-ns#">
   <cc:Work>
    <dc:type rdf:resource="http://purl.org/dc/dcmitype/StillImage"/>
    <dc:date>2026-06-15T14:28:26.621448</dc:date>
    <dc:format>image/svg+xml</dc:format>
    <dc:creator>
     <cc:Agent>
      <dc:title>Matplotlib v3.9.4, https://matplotlib.org/</dc:title>
     </cc:Agent>
    </dc:creator>
   </cc:Work>
  </rdf:RDF>
 </metadata>
 <defs>
  <style type="text/css">*{stroke-linejoin: round; stroke-linecap: butt}</style>
 </defs>
 <g id="figure_1">
  <g id="patch_1">
   <path d="M 0 288.393 
L 503.518125 288.393 
L 503.518125 0 
L 0 0 
z
" style="fill: #ffffff"/>
  </g>
  <g id="axes_1">
   <g id="patch_2">
    <path d="M 55.203125 246.8455 
L 496.318125 246.8455 
L 496.318125 24.0855 
L 55.203125 24.0855 
z
" style="fill: #ffffff"/>
   </g>
   <g id="PolyCollection_1">
    <defs>
     <path id="m749e2fe739" d="M 55.203125 -41.5475 
L 55.203125 -71.248833 
L 57.419783 -71.677953 
L 59.636442 -72.105614 
L 61.8531 -72.531818 
L 64.069758 -72.956563 
L 66.286416 -73.37985 
L 68.503075 -73.801679 
L 70.719733 -74.222051 
L 72.936391 -74.640964 
L 75.15305 -75.058419 
L 77.369708 -75.474416 
L 79.586366 -75.888955 
L 81.803024 -76.302037 
L 84.019683 -76.71366 
L 86.236341 -77.123825 
L 88.452999 -77.532532 
L 90.669658 -77.939781 
L 92.886316 -78.345572 
L 95.102974 -78.749905 
L 97.319633 -79.15278 
L 99.536291 -79.554196 
L 101.752949 -79.954155 
L 103.969607 -80.352656 
L 106.186266 -80.749699 
L 108.402924 -81.145284 
L 110.619582 -81.53941 
L 112.836241 -81.932079 
L 115.052899 -82.32329 
L 117.269557 -82.713042 
L 119.486215 -83.101337 
L 121.702874 -83.488174 
L 123.919532 -83.873552 
L 126.13619 -84.257473 
L 128.352849 -84.639935 
L 130.569507 -85.02094 
L 132.786165 -85.400486 
L 135.002823 -85.778575 
L 137.219482 -86.155205 
L 139.43614 -86.530377 
L 141.652798 -86.904092 
L 143.869457 -87.276348 
L 146.086115 -87.647146 
L 148.302773 -88.016487 
L 150.519432 -88.384369 
L 152.73609 -88.750793 
L 154.952748 -89.115759 
L 157.169406 -89.479267 
L 159.386065 -89.841317 
L 161.602723 -90.20191 
L 163.819381 -90.561044 
L 166.03604 -90.91872 
L 168.252698 -91.274938 
L 170.469356 -91.629698 
L 172.686014 -91.983 
L 174.902673 -92.334843 
L 177.119331 -92.685229 
L 179.335989 -93.034157 
L 181.552648 -93.381627 
L 183.769306 -93.727639 
L 185.985964 -94.072193 
L 188.202622 -94.415288 
L 190.419281 -94.756926 
L 192.635939 -95.097106 
L 194.852597 -95.435827 
L 197.069256 -95.773091 
L 199.285914 -96.108897 
L 201.502572 -96.443244 
L 203.719231 -96.776134 
L 205.935889 -97.107565 
L 208.152547 -97.437539 
L 210.369205 -97.766054 
L 212.585864 -98.093112 
L 214.802522 -98.418711 
L 217.01918 -98.742852 
L 219.235839 -99.065536 
L 221.452497 -99.386761 
L 223.669155 -99.706528 
L 225.885813 -100.024837 
L 228.102472 -100.341689 
L 230.31913 -100.657082 
L 232.535788 -100.971017 
L 234.752447 -101.283494 
L 236.969105 -101.594513 
L 239.185763 -101.904074 
L 241.402421 -102.212177 
L 243.61908 -102.518822 
L 245.835738 -102.824009 
L 248.052396 -103.127738 
L 250.269055 -103.430009 
L 252.485713 -103.730822 
L 254.702371 -104.030177 
L 256.91903 -104.328074 
L 259.135688 -104.624513 
L 261.352346 -104.919494 
L 263.569004 -105.213016 
L 265.785663 -105.505081 
L 268.002321 -105.795688 
L 270.218979 -106.084837 
L 272.435638 -106.372527 
L 274.652296 -106.65876 
L 276.868954 -106.943534 
L 279.085612 -107.226851 
L 281.302271 -107.508709 
L 283.518929 -107.78911 
L 285.735587 -108.068052 
L 287.952246 -108.345537 
L 290.168904 -108.621563 
L 292.385562 -108.896132 
L 294.60222 -109.169242 
L 296.818879 -109.440894 
L 299.035537 -109.711089 
L 301.252195 -109.979825 
L 303.468854 -110.247103 
L 305.685512 -110.512923 
L 307.90217 -110.777286 
L 310.118829 -111.04019 
L 312.335487 -111.301636 
L 314.552145 -111.561624 
L 316.768803 -111.820154 
L 318.985462 -112.077226 
L 321.20212 -112.33284 
L 323.418778 -112.586996 
L 325.635437 -112.839694 
L 327.852095 -113.090934 
L 330.068753 -113.340716 
L 332.285411 -113.58904 
L 334.50207 -113.835906 
L 336.718728 -114.081314 
L 338.935386 -114.325263 
L 341.152045 -114.567755 
L 343.368703 -114.808789 
L 345.585361 -115.048365 
L 347.802019 -115.286482 
L 350.018678 -115.523142 
L 352.235336 -115.758343 
L 354.451994 -115.992087 
L 356.668653 -116.224373 
L 358.885311 -116.4552 
L 361.101969 -116.68457 
L 363.318628 -116.912481 
L 365.535286 -117.138935 
L 367.751944 -117.36393 
L 369.968602 -117.587467 
L 372.185261 -117.809547 
L 374.401919 -118.030168 
L 376.618577 -118.249331 
L 378.835236 -118.467037 
L 381.051894 -118.683284 
L 383.268552 -118.898073 
L 385.48521 -119.111404 
L 387.701869 -119.323278 
L 389.918527 -119.533693 
L 392.135185 -119.74265 
L 394.351844 -119.950149 
L 396.568502 -120.15619 
L 398.78516 -120.360773 
L 401.001818 -120.563898 
L 403.218477 -120.765565 
L 405.435135 -120.965774 
L 407.651793 -121.164525 
L 409.868452 -121.361818 
L 412.08511 -121.557652 
L 414.301768 -121.752029 
L 416.518427 -121.944948 
L 418.735085 -122.136409 
L 420.951743 -122.326411 
L 423.168401 -122.514956 
L 425.38506 -122.702043 
L 427.601718 -122.887672 
L 429.818376 -123.071842 
L 432.035035 -123.254555 
L 434.251693 -123.435809 
L 436.468351 -123.615606 
L 438.685009 -123.793944 
L 440.901668 -123.970825 
L 443.118326 -124.146247 
L 445.334984 -124.320212 
L 447.551643 -124.492718 
L 449.768301 -124.663766 
L 451.984959 -124.833357 
L 454.201617 -125.001489 
L 456.418276 -125.168163 
L 458.634934 -125.33338 
L 460.851592 -125.497138 
L 463.068251 -125.659438 
L 465.284909 -125.82028 
L 467.501567 -125.979664 
L 469.718226 -126.13759 
L 471.934884 -126.294058 
L 474.151542 -126.449068 
L 476.3682 -126.60262 
L 478.584859 -126.754714 
L 480.801517 -126.90535 
L 483.018175 -127.054528 
L 485.234834 -127.202248 
L 487.451492 -127.34851 
L 489.66815 -127.493314 
L 491.884808 -127.63666 
L 494.101467 -127.778548 
L 496.318125 -127.918977 
L 496.318125 -41.5475 
L 496.318125 -41.5475 
L 494.101467 -41.5475 
L 491.884808 -41.5475 
L 489.66815 -41.5475 
L 487.451492 -41.5475 
L 485.234834 -41.5475 
L 483.018175 -41.5475 
L 480.801517 -41.5475 
L 478.584859 -41.5475 
L 476.3682 -41.5475 
L 474.151542 -41.5475 
L 471.934884 -41.5475 
L 469.718226 -41.5475 
L 467.501567 -41.5475 
L 465.284909 -41.5475 
L 463.068251 -41.5475 
L 460.851592 -41.5475 
L 458.634934 -41.5475 
L 456.418276 -41.5475 
L 454.201617 -41.5475 
L 451.984959 -41.5475 
L 449.768301 -41.5475 
L 447.551643 -41.5475 
L 445.334984 -41.5475 
L 443.118326 -41.5475 
L 440.901668 -41.5475 
L 438.685009 -41.5475 
L 436.468351 -41.5475 
L 434.251693 -41.5475 
L 432.035035 -41.5475 
L 429.818376 -41.5475 
L 427.601718 -41.5475 
L 425.38506 -41.5475 
L 423.168401 -41.5475 
L 420.951743 -41.5475 
L 418.735085 -41.5475 
L 416.518427 -41.5475 
L 414.301768 -41.5475 
L 412.08511 -41.5475 
L 409.868452 -41.5475 
L 407.651793 -41.5475 
L 405.435135 -41.5475 
L 403.218477 -41.5475 
L 401.001818 -41.5475 
L 398.78516 -41.5475 
L 396.568502 -41.5475 
L 394.351844 -41.5475 
L 392.135185 -41.5475 
L 389.918527 -41.5475 
L 387.701869 -41.5475 
L 385.48521 -41.5475 
L 383.268552 -41.5475 
L 381.051894 -41.5475 
L 378.835236 -41.5475 
L 376.618577 -41.5475 
L 374.401919 -41.5475 
L 372.185261 -41.5475 
L 369.968602 -41.5475 
L 367.751944 -41.5475 
L 365.535286 -41.5475 
L 363.318628 -41.5475 
L 361.101969 -41.5475 
L 358.885311 -41.5475 
L 356.668653 -41.5475 
L 354.451994 -41.5475 
L 352.235336 -41.5475 
L 350.018678 -41.5475 
L 347.802019 -41.5475 
L 345.585361 -41.5475 
L 343.368703 -41.5475 
L 341.152045 -41.5475 
L 338.935386 -41.5475 
L 336.718728 -41.5475 
L 334.50207 -41.5475 
L 332.285411 -41.5475 
L 330.068753 -41.5475 
L 327.852095 -41.5475 
L 325.635437 -41.5475 
L 323.418778 -41.5475 
L 321.20212 -41.5475 
L 318.985462 -41.5475 
L 316.768803 -41.5475 
L 314.552145 -41.5475 
L 312.335487 -41.5475 
L 310.118829 -41.5475 
L 307.90217 -41.5475 
L 305.685512 -41.5475 
L 303.468854 -41.5475 
L 301.252195 -41.5475 
L 299.035537 -41.5475 
L 296.818879 -41.5475 
L 294.60222 -41.5475 
L 292.385562 -41.5475 
L 290.168904 -41.5475 
L 287.952246 -41.5475 
L 285.735587 -41.5475 
L 283.518929 -41.5475 
L 281.302271 -41.5475 
L 279.085612 -41.5475 
L 276.868954 -41.5475 
L 274.652296 -41.5475 
L 272.435638 -41.5475 
L 270.218979 -41.5475 
L 268.002321 -41.5475 
L 265.785663 -41.5475 
L 263.569004 -41.5475 
L 261.352346 -41.5475 
L 259.135688 -41.5475 
L 256.91903 -41.5475 
L 254.702371 -41.5475 
L 252.485713 -41.5475 
L 250.269055 -41.5475 
L 248.052396 -41.5475 
L 245.835738 -41.5475 
L 243.61908 -41.5475 
L 241.402421 -41.5475 
L 239.185763 -41.5475 
L 236.969105 -41.5475 
L 234.752447 -41.5475 
L 232.535788 -41.5475 
L 230.31913 -41.5475 
L 228.102472 -41.5475 
L 225.885813 -41.5475 
L 223.669155 -41.5475 
L 221.452497 -41.5475 
L 219.235839 -41.5475 
L 217.01918 -41.5475 
L 214.802522 -41.5475 
L 212.585864 -41.5475 
L 210.369205 -41.5475 
L 208.152547 -41.5475 
L 205.935889 -41.5475 
L 203.719231 -41.5475 
L 201.502572 -41.5475 
L 199.285914 -41.5475 
L 197.069256 -41.5475 
L 194.852597 -41.5475 
L 192.635939 -41.5475 
L 190.419281 -41.5475 
L 188.202622 -41.5475 
L 185.985964 -41.5475 
L 183.769306 -41.5475 
L 181.552648 -41.5475 
L 179.335989 -41.5475 
L 177.119331 -41.5475 
L 174.902673 -41.5475 
L 172.686014 -41.5475 
L 170.469356 -41.5475 
L 168.252698 -41.5475 
L 166.03604 -41.5475 
L 163.819381 -41.5475 
L 161.602723 -41.5475 
L 159.386065 -41.5475 
L 157.169406 -41.5475 
L 154.952748 -41.5475 
L 152.73609 -41.5475 
L 150.519432 -41.5475 
L 148.302773 -41.5475 
L 146.086115 -41.5475 
L 143.869457 -41.5475 
L 141.652798 -41.5475 
L 139.43614 -41.5475 
L 137.219482 -41.5475 
L 135.002823 -41.5475 
L 132.786165 -41.5475 
L 130.569507 -41.5475 
L 128.352849 -41.5475 
L 126.13619 -41.5475 
L 123.919532 -41.5475 
L 121.702874 -41.5475 
L 119.486215 -41.5475 
L 117.269557 -41.5475 
L 115.052899 -41.5475 
L 112.836241 -41.5475 
L 110.619582 -41.5475 
L 108.402924 -41.5475 
L 106.186266 -41.5475 
L 103.969607 -41.5475 
L 101.752949 -41.5475 
L 99.536291 -41.5475 
L 97.319633 -41.5475 
L 95.102974 -41.5475 
L 92.886316 -41.5475 
L 90.669658 -41.5475 
L 88.452999 -41.5475 
L 86.236341 -41.5475 
L 84.019683 -41.5475 
L 81.803024 -41.5475 
L 79.586366 -41.5475 
L 77.369708 -41.5475 
L 75.15305 -41.5475 
L 72.936391 -41.5475 
L 70.719733 -41.5475 
L 68.503075 -41.5475 
L 66.286416 -41.5475 
L 64.069758 -41.5475 
L 61.8531 -41.5475 
L 59.636442 -41.5475 
L 57.419783 -41.5475 
L 55.203125 -41.5475 
z
" style="stroke: #1c7293; stroke-opacity: 0.1"/>
    </defs>
    <g clip-path="url(#pc272dff6ef)">
     <use xlink:href="#m749e2fe739" x="0" y="288.393" style="fill: #1c7293; fill-opacity: 0.1; stroke: #1c7293; stroke-opacity: 0.1"/>
    </g>
   </g>
   <g id="matplotlib.axis_1">
    <g id="xtick_1">
     <g id="line2d_1">
      <defs>
       <path id="mde01efb63e" d="M 0 0 
L 0 3.5 
" style="stroke: #5b6b7f; stroke-width: 0.8"/>
      </defs>
      <g>
       <use xlink:href="#mde01efb63e" x="55.203125" y="246.8455" style="fill: #5b6b7f; stroke: #5b6b7f; stroke-width: 0.8"/>
      </g>
     </g>
     <g id="text_1">
      <!-- 0 -->
      <g style="fill: #5b6b7f" transform="translate(51.520625 262.91675) scale(0.12 -0.12)">
       <defs>
        <path id="Georgia-30" d="M 3209 2919 
Q 3409 2678 3507 2354 
Q 3606 2031 3606 1678 
Q 3606 1253 3484 917 
Q 3363 581 3150 359 
Q 2931 131 2631 15 
Q 2331 -100 1963 -100 
Q 1559 -100 1243 34 
Q 928 169 731 403 
Q 525 647 423 973 
Q 322 1300 322 1678 
Q 322 2050 420 2362 
Q 519 2675 728 2928 
Q 928 3172 1243 3312 
Q 1559 3453 1966 3453 
Q 2394 3453 2700 3309 
Q 3006 3166 3209 2919 
z
M 2916 1678 
Q 2916 2422 2661 2831 
Q 2406 3241 1969 3241 
Q 1525 3241 1269 2831 
Q 1013 2422 1013 1678 
Q 1013 972 1258 542 
Q 1503 113 1963 113 
Q 2422 113 2669 542 
Q 2916 972 2916 1678 
z
" transform="scale(0.015625)"/>
       </defs>
       <use xlink:href="#Georgia-30"/>
      </g>
     </g>
    </g>
    <g id="xtick_2">
     <g id="line2d_2">
      <g>
       <use xlink:href="#mde01efb63e" x="116.469097" y="246.8455" style="fill: #5b6b7f; stroke: #5b6b7f; stroke-width: 0.8"/>
      </g>
     </g>
     <g id="text_2">
      <!-- 5 -->
      <g style="fill: #5b6b7f" transform="translate(113.29941 262.91675) scale(0.12 -0.12)">
       <defs>
        <path id="Georgia-35" d="M 2634 1466 
Q 2841 1303 2977 1047 
Q 3113 791 3113 406 
Q 3113 -266 2653 -703 
Q 2194 -1141 1488 -1141 
Q 941 -1141 562 -881 
Q 184 -622 184 -278 
Q 184 -119 262 0 
Q 341 119 503 119 
Q 691 119 789 20 
Q 888 -78 888 -194 
Q 888 -294 853 -444 
Q 819 -594 800 -666 
Q 825 -688 881 -725 
Q 938 -763 1016 -797 
Q 1097 -831 1214 -857 
Q 1331 -884 1488 -884 
Q 1688 -884 1866 -803 
Q 2044 -722 2166 -563 
Q 2300 -388 2367 -164 
Q 2434 59 2434 403 
Q 2434 844 2189 1133 
Q 1944 1422 1544 1422 
Q 1294 1422 1076 1328 
Q 859 1234 688 1016 
L 478 1097 
L 744 3353 
L 2981 3353 
L 2981 2797 
L 997 2797 
L 834 1472 
Q 975 1572 1204 1670 
Q 1434 1769 1709 1769 
Q 1938 1769 2183 1698 
Q 2428 1628 2634 1466 
z
" transform="scale(0.015625)"/>
       </defs>
       <use xlink:href="#Georgia-35"/>
      </g>
     </g>
    </g>
    <g id="xtick_3">
     <g id="line2d_3">
      <g>
       <use xlink:href="#mde01efb63e" x="177.735069" y="246.8455" style="fill: #5b6b7f; stroke: #5b6b7f; stroke-width: 0.8"/>
      </g>
     </g>
     <g id="text_3">
      <!-- 10 -->
      <g style="fill: #5b6b7f" transform="translate(171.474444 262.91675) scale(0.12 -0.12)">
       <defs>
        <path id="Georgia-31" d="M 2528 0 
L 422 0 
L 422 222 
Q 516 228 714 248 
Q 913 269 988 291 
Q 1084 322 1136 392 
Q 1188 463 1188 603 
L 1188 2797 
L 409 2797 
L 409 3059 
L 581 3059 
Q 919 3059 1186 3184 
Q 1453 3309 1569 3453 
L 1828 3453 
Q 1819 3250 1809 2978 
Q 1800 2706 1800 2491 
L 1800 638 
Q 1800 528 1848 442 
Q 1897 356 1988 316 
Q 2069 281 2253 253 
Q 2438 225 2528 222 
L 2528 0 
z
" transform="scale(0.015625)"/>
       </defs>
       <use xlink:href="#Georgia-31"/>
       <use xlink:href="#Georgia-30" x="42.96875"/>
      </g>
     </g>
    </g>
    <g id="xtick_4">
     <g id="line2d_4">
      <g>
       <use xlink:href="#mde01efb63e" x="239.001042" y="246.8455" style="fill: #5b6b7f; stroke: #5b6b7f; stroke-width: 0.8"/>
      </g>
     </g>
     <g id="text_4">
      <!-- 15 -->
      <g style="fill: #5b6b7f" transform="translate(233.253229 262.91675) scale(0.12 -0.12)">
       <use xlink:href="#Georgia-31"/>
       <use xlink:href="#Georgia-35" x="42.96875"/>
      </g>
     </g>
    </g>
    <g id="xtick_5">
     <g id="line2d_5">
      <g>
       <use xlink:href="#mde01efb63e" x="300.267014" y="246.8455" style="fill: #5b6b7f; stroke: #5b6b7f; stroke-width: 0.8"/>
      </g>
     </g>
     <g id="text_5">
      <!-- 20 -->
      <g style="fill: #5b6b7f" transform="translate(293.232951 262.91675) scale(0.12 -0.12)">
       <defs>
        <path id="Georgia-32" d="M 3272 0 
L 344 0 
L 344 425 
Q 428 522 578 642 
Q 728 763 934 903 
Q 1059 988 1234 1088 
Q 1409 1188 1631 1306 
Q 1878 1438 2011 1538 
Q 2144 1638 2253 1784 
Q 2325 1881 2369 2026 
Q 2413 2172 2413 2441 
Q 2413 2831 2203 3014 
Q 1994 3197 1666 3197 
Q 1463 3197 1281 3117 
Q 1100 3038 1009 2897 
Q 1031 2797 1064 2659 
Q 1097 2522 1097 2391 
Q 1097 2272 998 2180 
Q 900 2088 706 2088 
Q 550 2088 465 2195 
Q 381 2303 381 2484 
Q 381 2653 475 2823 
Q 569 2994 744 3138 
Q 916 3278 1169 3365 
Q 1422 3453 1716 3453 
Q 2356 3453 2732 3167 
Q 3109 2881 3109 2403 
Q 3109 2175 3042 1987 
Q 2975 1800 2825 1656 
Q 2659 1497 2437 1383 
Q 2216 1269 1759 1066 
Q 1488 944 1253 811 
Q 1019 678 869 553 
L 3272 553 
L 3272 0 
z
" transform="scale(0.015625)"/>
       </defs>
       <use xlink:href="#Georgia-32"/>
       <use xlink:href="#Georgia-30" x="55.859375"/>
      </g>
     </g>
    </g>
    <g id="xtick_6">
     <g id="line2d_6">
      <g>
       <use xlink:href="#mde01efb63e" x="361.532986" y="246.8455" style="fill: #5b6b7f; stroke: #5b6b7f; stroke-width: 0.8"/>
      </g>
     </g>
     <g id="text_6">
      <!-- 25 -->
      <g style="fill: #5b6b7f" transform="translate(355.011736 262.91675) scale(0.12 -0.12)">
       <use xlink:href="#Georgia-32"/>
       <use xlink:href="#Georgia-35" x="55.859375"/>
      </g>
     </g>
    </g>
    <g id="xtick_7">
     <g id="line2d_7">
      <g>
       <use xlink:href="#mde01efb63e" x="422.798958" y="246.8455" style="fill: #5b6b7f; stroke: #5b6b7f; stroke-width: 0.8"/>
      </g>
     </g>
     <g id="text_7">
      <!-- 30 -->
      <g style="fill: #5b6b7f" transform="translate(415.806146 262.91675) scale(0.12 -0.12)">
       <defs>
        <path id="Georgia-33" d="M 1522 -1141 
Q 1228 -1141 984 -1067 
Q 741 -994 566 -869 
Q 391 -744 295 -581 
Q 200 -419 200 -247 
Q 200 -94 275 29 
Q 350 153 516 153 
Q 703 153 801 61 
Q 900 -31 900 -150 
Q 900 -250 867 -403 
Q 834 -556 816 -622 
Q 838 -650 895 -697 
Q 953 -744 1038 -781 
Q 1138 -828 1247 -856 
Q 1356 -884 1556 -884 
Q 1744 -884 1917 -821 
Q 2091 -759 2222 -622 
Q 2359 -478 2436 -286 
Q 2513 -94 2513 219 
Q 2513 388 2477 553 
Q 2441 719 2344 841 
Q 2247 963 2080 1030 
Q 1913 1097 1656 1097 
L 1247 1097 
L 1247 1456 
L 1519 1456 
Q 1950 1456 2140 1693 
Q 2331 1931 2331 2409 
Q 2331 2800 2147 2998 
Q 1963 3197 1625 3197 
Q 1463 3197 1358 3158 
Q 1253 3119 1188 3081 
Q 1109 3038 1059 2984 
Q 1009 2931 984 2906 
Q 1006 2806 1037 2661 
Q 1069 2516 1069 2384 
Q 1069 2269 970 2176 
Q 872 2084 681 2084 
Q 516 2084 439 2203 
Q 363 2322 363 2478 
Q 363 2641 453 2809 
Q 544 2978 722 3125 
Q 900 3272 1156 3362 
Q 1413 3453 1747 3453 
Q 2131 3453 2382 3339 
Q 2634 3225 2778 3063 
Q 2919 2903 2972 2728 
Q 3025 2553 3025 2428 
Q 3025 2272 2981 2114 
Q 2938 1956 2838 1822 
Q 2728 1675 2548 1554 
Q 2369 1434 2097 1359 
L 2097 1309 
Q 2272 1294 2470 1231 
Q 2669 1169 2828 1047 
Q 2994 919 3100 717 
Q 3206 516 3206 206 
Q 3206 -394 2725 -767 
Q 2244 -1141 1522 -1141 
z
" transform="scale(0.015625)"/>
       </defs>
       <use xlink:href="#Georgia-33"/>
       <use xlink:href="#Georgia-30" x="55.175781"/>
      </g>
     </g>
    </g>
    <g id="xtick_8">
     <g id="line2d_8">
      <g>
       <use xlink:href="#mde01efb63e" x="484.064931" y="246.8455" style="fill: #5b6b7f; stroke: #5b6b7f; stroke-width: 0.8"/>
      </g>
     </g>
     <g id="text_8">
      <!-- 35 -->
      <g style="fill: #5b6b7f" transform="translate(477.584931 262.91675) scale(0.12 -0.12)">
       <use xlink:href="#Georgia-33"/>
       <use xlink:href="#Georgia-35" x="55.175781"/>
      </g>
     </g>
    </g>
    <g id="text_9">
     <!-- time (months) -->
     <g style="fill: #33415a" transform="translate(237.577188 278.5905) scale(0.12 -0.12)">
      <defs>
       <path id="Georgia-74" d="M 2128 134 
Q 1925 50 1744 -8 
Q 1563 -66 1300 -66 
Q 913 -66 755 129 
Q 597 325 597 681 
L 597 2769 
L 41 2769 
L 41 3069 
L 609 3069 
L 609 4028 
L 1178 4028 
L 1178 3069 
L 2063 3069 
L 2063 2769 
L 1184 2769 
L 1184 1047 
Q 1184 853 1198 723 
Q 1213 594 1266 497 
Q 1316 406 1416 359 
Q 1516 313 1684 313 
Q 1763 313 1914 327 
Q 2066 341 2128 363 
L 2128 134 
z
" transform="scale(0.015625)"/>
       <path id="Georgia-69" d="M 1722 0 
L 231 0 
L 231 206 
Q 303 213 379 219 
Q 456 225 513 244 
Q 600 272 642 342 
Q 684 413 684 525 
L 684 2428 
Q 684 2528 639 2611 
Q 594 2694 513 2750 
Q 453 2788 340 2814 
Q 228 2841 134 2847 
L 134 3050 
L 1222 3119 
L 1266 3075 
L 1266 563 
Q 1266 453 1308 381 
Q 1350 309 1441 275 
Q 1509 247 1575 230 
Q 1641 213 1722 206 
L 1722 0 
z
M 1328 4334 
Q 1328 4156 1211 4023 
Q 1094 3891 922 3891 
Q 763 3891 645 4017 
Q 528 4144 528 4306 
Q 528 4478 645 4606 
Q 763 4734 922 4734 
Q 1100 4734 1214 4614 
Q 1328 4494 1328 4334 
z
" transform="scale(0.015625)"/>
       <path id="Georgia-6d" d="M 5503 0 
L 4000 0 
L 4000 206 
Q 4072 213 4145 219 
Q 4219 225 4275 244 
Q 4363 272 4405 342 
Q 4447 413 4447 525 
L 4447 2116 
Q 4447 2441 4298 2617 
Q 4150 2794 3928 2794 
Q 3775 2794 3640 2747 
Q 3506 2700 3394 2616 
Q 3303 2547 3242 2467 
Q 3181 2388 3150 2334 
L 3150 556 
Q 3150 447 3187 376 
Q 3225 306 3316 269 
Q 3388 241 3445 227 
Q 3503 213 3597 206 
L 3597 0 
L 2125 0 
L 2125 206 
Q 2197 213 2264 219 
Q 2331 225 2388 244 
Q 2475 272 2517 342 
Q 2559 413 2559 525 
L 2559 2116 
Q 2559 2441 2411 2617 
Q 2263 2794 2041 2794 
Q 1888 2794 1753 2745 
Q 1619 2697 1506 2613 
Q 1416 2544 1353 2458 
Q 1291 2372 1259 2328 
L 1259 563 
Q 1259 456 1303 384 
Q 1347 313 1434 275 
Q 1500 244 1569 228 
Q 1638 213 1722 206 
L 1722 0 
L 225 0 
L 225 206 
Q 297 213 373 219 
Q 450 225 506 244 
Q 594 272 636 342 
Q 678 413 678 525 
L 678 2441 
Q 678 2541 633 2620 
Q 588 2700 506 2756 
Q 447 2794 359 2817 
Q 272 2841 178 2847 
L 178 3050 
L 1209 3119 
L 1253 3075 
L 1253 2634 
L 1275 2634 
Q 1353 2713 1465 2819 
Q 1578 2925 1675 2991 
Q 1784 3066 1948 3116 
Q 2113 3166 2303 3166 
Q 2603 3166 2818 3005 
Q 3034 2844 3128 2616 
Q 3241 2725 3327 2808 
Q 3413 2891 3553 2984 
Q 3672 3066 3833 3116 
Q 3994 3166 4191 3166 
Q 4581 3166 4809 2909 
Q 5038 2653 5038 2122 
L 5038 556 
Q 5038 447 5075 376 
Q 5113 306 5203 269 
Q 5275 241 5345 227 
Q 5416 213 5503 206 
L 5503 0 
z
" transform="scale(0.015625)"/>
       <path id="Georgia-65" d="M 2963 725 
Q 2769 356 2444 137 
Q 2119 -81 1697 -81 
Q 1325 -81 1045 50 
Q 766 181 584 406 
Q 403 631 314 931 
Q 225 1231 225 1566 
Q 225 1866 320 2155 
Q 416 2444 600 2675 
Q 778 2897 1042 3033 
Q 1306 3169 1634 3169 
Q 1972 3169 2212 3062 
Q 2453 2956 2603 2772 
Q 2747 2597 2817 2359 
Q 2888 2122 2888 1844 
L 2888 1638 
L 847 1638 
Q 847 1334 905 1087 
Q 963 841 1088 653 
Q 1209 472 1406 367 
Q 1603 263 1875 263 
Q 2153 263 2354 392 
Q 2556 522 2744 859 
L 2963 725 
z
M 2272 1900 
Q 2272 2075 2242 2275 
Q 2213 2475 2147 2609 
Q 2075 2753 1950 2843 
Q 1825 2934 1628 2934 
Q 1300 2934 1083 2661 
Q 866 2388 847 1900 
L 2272 1900 
z
" transform="scale(0.015625)"/>
       <path id="Georgia-20" transform="scale(0.015625)"/>
       <path id="Georgia-28" d="M 2191 -1025 
Q 1338 -919 852 -165 
Q 366 588 366 1863 
Q 366 3159 852 3917 
Q 1338 4675 2191 4788 
L 2191 4528 
Q 1591 4419 1278 3762 
Q 966 3106 966 1856 
Q 966 666 1272 5 
Q 1578 -656 2191 -769 
L 2191 -1025 
z
" transform="scale(0.015625)"/>
       <path id="Georgia-6f" d="M 3228 1572 
Q 3228 1247 3125 933 
Q 3022 619 2831 400 
Q 2616 150 2331 28 
Q 2047 -94 1694 -94 
Q 1400 -94 1134 17 
Q 869 128 663 341 
Q 459 550 339 851 
Q 219 1153 219 1528 
Q 219 2250 639 2709 
Q 1059 3169 1741 3169 
Q 2388 3169 2808 2733 
Q 3228 2297 3228 1572 
z
M 2581 1566 
Q 2581 1800 2534 2061 
Q 2488 2322 2394 2503 
Q 2294 2697 2131 2814 
Q 1969 2931 1734 2931 
Q 1494 2931 1323 2812 
Q 1153 2694 1047 2488 
Q 947 2297 906 2053 
Q 866 1809 866 1581 
Q 866 1281 914 1026 
Q 963 772 1069 572 
Q 1175 372 1336 258 
Q 1497 144 1734 144 
Q 2125 144 2353 522 
Q 2581 900 2581 1566 
z
" transform="scale(0.015625)"/>
       <path id="Georgia-6e" d="M 3628 0 
L 2119 0 
L 2119 206 
Q 2191 213 2277 219 
Q 2363 225 2419 244 
Q 2506 272 2548 342 
Q 2591 413 2591 525 
L 2591 2109 
Q 2591 2438 2436 2616 
Q 2281 2794 2059 2794 
Q 1894 2794 1756 2742 
Q 1619 2691 1513 2616 
Q 1409 2544 1348 2461 
Q 1288 2378 1259 2328 
L 1259 556 
Q 1259 450 1303 381 
Q 1347 313 1434 275 
Q 1500 244 1576 228 
Q 1653 213 1734 206 
L 1734 0 
L 225 0 
L 225 206 
Q 297 213 373 219 
Q 450 225 506 244 
Q 594 272 636 342 
Q 678 413 678 525 
L 678 2428 
Q 678 2534 633 2623 
Q 588 2713 506 2769 
Q 447 2806 365 2823 
Q 284 2841 191 2847 
L 191 3050 
L 1216 3119 
L 1259 3075 
L 1259 2641 
L 1275 2641 
Q 1350 2716 1462 2820 
Q 1575 2925 1675 2991 
Q 1791 3066 1950 3116 
Q 2109 3166 2309 3166 
Q 2753 3166 2967 2889 
Q 3181 2613 3181 2153 
L 3181 550 
Q 3181 441 3218 373 
Q 3256 306 3347 269 
Q 3422 238 3476 225 
Q 3531 213 3628 206 
L 3628 0 
z
" transform="scale(0.015625)"/>
       <path id="Georgia-68" d="M 3572 0 
L 2059 0 
L 2059 206 
Q 2131 213 2218 219 
Q 2306 225 2363 244 
Q 2450 272 2492 342 
Q 2534 413 2534 525 
L 2534 2109 
Q 2534 2438 2379 2616 
Q 2225 2794 2003 2794 
Q 1841 2794 1702 2742 
Q 1563 2691 1453 2616 
Q 1347 2538 1290 2459 
Q 1234 2381 1203 2328 
L 1203 556 
Q 1203 450 1245 381 
Q 1288 313 1375 275 
Q 1444 244 1517 228 
Q 1591 213 1678 206 
L 1678 0 
L 166 0 
L 166 206 
Q 238 213 316 220 
Q 394 228 447 244 
Q 534 272 578 342 
Q 622 413 622 525 
L 622 4113 
Q 622 4219 573 4325 
Q 525 4431 447 4484 
Q 391 4525 248 4542 
Q 106 4559 19 4566 
L 19 4766 
L 1159 4838 
L 1203 4791 
L 1203 2641 
L 1216 2641 
Q 1319 2744 1403 2823 
Q 1488 2903 1625 2991 
Q 1744 3066 1905 3116 
Q 2066 3166 2266 3166 
Q 2678 3166 2900 2905 
Q 3122 2644 3122 2153 
L 3122 550 
Q 3122 441 3161 373 
Q 3200 306 3291 269 
Q 3363 241 3420 227 
Q 3478 213 3572 206 
L 3572 0 
z
" transform="scale(0.015625)"/>
       <path id="Georgia-73" d="M 2259 1509 
Q 2388 1397 2456 1250 
Q 2525 1103 2525 891 
Q 2525 463 2204 191 
Q 1884 -81 1375 -81 
Q 1106 -81 879 16 
Q 653 113 556 194 
L 494 -9 
L 259 -9 
L 228 1063 
L 444 1063 
Q 469 941 550 778 
Q 631 616 747 484 
Q 869 347 1039 253 
Q 1209 159 1422 159 
Q 1722 159 1884 295 
Q 2047 431 2047 684 
Q 2047 816 1995 911 
Q 1944 1006 1844 1078 
Q 1741 1150 1591 1208 
Q 1441 1266 1256 1322 
Q 1109 1366 929 1442 
Q 750 1519 622 1622 
Q 484 1731 396 1890 
Q 309 2050 309 2266 
Q 309 2644 590 2906 
Q 872 3169 1344 3169 
Q 1525 3169 1714 3122 
Q 1903 3075 2022 3009 
L 2094 3172 
L 2319 3172 
L 2366 2181 
L 2150 2181 
Q 2084 2513 1867 2720 
Q 1650 2928 1338 2928 
Q 1081 2928 934 2800 
Q 788 2672 788 2491 
Q 788 2350 836 2256 
Q 884 2163 981 2097 
Q 1075 2034 1217 1979 
Q 1359 1925 1569 1856 
Q 1775 1791 1958 1703 
Q 2141 1616 2259 1509 
z
" transform="scale(0.015625)"/>
       <path id="Georgia-29" d="M 2034 1863 
Q 2034 588 1548 -165 
Q 1063 -919 209 -1025 
L 209 -769 
Q 822 -656 1128 5 
Q 1434 666 1434 1856 
Q 1434 3106 1121 3762 
Q 809 4419 209 4528 
L 209 4788 
Q 1063 4675 1548 3917 
Q 2034 3159 2034 1863 
z
" transform="scale(0.015625)"/>
      </defs>
      <use xlink:href="#Georgia-74"/>
      <use xlink:href="#Georgia-69" x="34.521484"/>
      <use xlink:href="#Georgia-6d" x="63.818359"/>
      <use xlink:href="#Georgia-65" x="151.904297"/>
      <use xlink:href="#Georgia-20" x="200.244141"/>
      <use xlink:href="#Georgia-28" x="224.365234"/>
      <use xlink:href="#Georgia-6d" x="261.865234"/>
      <use xlink:href="#Georgia-6f" x="349.951172"/>
      <use xlink:href="#Georgia-6e" x="403.857422"/>
      <use xlink:href="#Georgia-74" x="462.939453"/>
      <use xlink:href="#Georgia-68" x="497.460938"/>
      <use xlink:href="#Georgia-73" x="555.664062"/>
      <use xlink:href="#Georgia-29" x="598.876953"/>
     </g>
    </g>
   </g>
   <g id="matplotlib.axis_2">
    <g id="ytick_1">
     <g id="line2d_9">
      <defs>
       <path id="me2d5d0146f" d="M 0 0 
L -3.5 0 
" style="stroke: #5b6b7f; stroke-width: 0.8"/>
      </defs>
      <g>
       <use xlink:href="#me2d5d0146f" x="55.203125" y="246.8455" style="fill: #5b6b7f; stroke: #5b6b7f; stroke-width: 0.8"/>
      </g>
     </g>
     <g id="text_10">
      <!-- 0.00 -->
      <g style="fill: #5b6b7f" transform="translate(22.87375 251.381125) scale(0.12 -0.12)">
       <defs>
        <path id="Georgia-2e" d="M 1297 359 
Q 1297 184 1170 60 
Q 1044 -63 869 -63 
Q 694 -63 567 60 
Q 441 184 441 359 
Q 441 534 567 661 
Q 694 788 869 788 
Q 1044 788 1170 661 
Q 1297 534 1297 359 
z
" transform="scale(0.015625)"/>
       </defs>
       <use xlink:href="#Georgia-30"/>
       <use xlink:href="#Georgia-2e" x="61.376953"/>
       <use xlink:href="#Georgia-30" x="88.330078"/>
       <use xlink:href="#Georgia-30" x="149.707031"/>
      </g>
     </g>
    </g>
    <g id="ytick_2">
     <g id="line2d_10">
      <g>
       <use xlink:href="#me2d5d0146f" x="55.203125" y="209.718833" style="fill: #5b6b7f; stroke: #5b6b7f; stroke-width: 0.8"/>
      </g>
     </g>
     <g id="text_11">
      <!-- 0.05 -->
      <g style="fill: #5b6b7f" transform="translate(23.899375 214.254458) scale(0.12 -0.12)">
       <use xlink:href="#Georgia-30"/>
       <use xlink:href="#Georgia-2e" x="61.376953"/>
       <use xlink:href="#Georgia-30" x="88.330078"/>
       <use xlink:href="#Georgia-35" x="149.707031"/>
      </g>
     </g>
    </g>
    <g id="ytick_3">
     <g id="line2d_11">
      <g>
       <use xlink:href="#me2d5d0146f" x="55.203125" y="172.592167" style="fill: #5b6b7f; stroke: #5b6b7f; stroke-width: 0.8"/>
      </g>
     </g>
     <g id="text_12">
      <!-- 0.10 -->
      <g style="fill: #5b6b7f" transform="translate(25.0825 177.127792) scale(0.12 -0.12)">
       <use xlink:href="#Georgia-30"/>
       <use xlink:href="#Georgia-2e" x="61.376953"/>
       <use xlink:href="#Georgia-31" x="88.330078"/>
       <use xlink:href="#Georgia-30" x="131.298828"/>
      </g>
     </g>
    </g>
    <g id="ytick_4">
     <g id="line2d_12">
      <g>
       <use xlink:href="#me2d5d0146f" x="55.203125" y="135.4655" style="fill: #5b6b7f; stroke: #5b6b7f; stroke-width: 0.8"/>
      </g>
     </g>
     <g id="text_13">
      <!-- 0.15 -->
      <g style="fill: #5b6b7f" transform="translate(26.108125 140.001125) scale(0.12 -0.12)">
       <use xlink:href="#Georgia-30"/>
       <use xlink:href="#Georgia-2e" x="61.376953"/>
       <use xlink:href="#Georgia-31" x="88.330078"/>
       <use xlink:href="#Georgia-35" x="131.298828"/>
      </g>
     </g>
    </g>
    <g id="ytick_5">
     <g id="line2d_13">
      <g>
       <use xlink:href="#me2d5d0146f" x="55.203125" y="98.338833" style="fill: #5b6b7f; stroke: #5b6b7f; stroke-width: 0.8"/>
      </g>
     </g>
     <g id="text_14">
      <!-- 0.20 -->
      <g style="fill: #5b6b7f" transform="translate(23.535625 102.874458) scale(0.12 -0.12)">
       <use xlink:href="#Georgia-30"/>
       <use xlink:href="#Georgia-2e" x="61.376953"/>
       <use xlink:href="#Georgia-32" x="88.330078"/>
       <use xlink:href="#Georgia-30" x="144.189453"/>
      </g>
     </g>
    </g>
    <g id="ytick_6">
     <g id="line2d_14">
      <g>
       <use xlink:href="#me2d5d0146f" x="55.203125" y="61.212167" style="fill: #5b6b7f; stroke: #5b6b7f; stroke-width: 0.8"/>
      </g>
     </g>
     <g id="text_15">
      <!-- 0.25 -->
      <g style="fill: #5b6b7f" transform="translate(24.56125 65.747792) scale(0.12 -0.12)">
       <use xlink:href="#Georgia-30"/>
       <use xlink:href="#Georgia-2e" x="61.376953"/>
       <use xlink:href="#Georgia-32" x="88.330078"/>
       <use xlink:href="#Georgia-35" x="144.189453"/>
      </g>
     </g>
    </g>
    <g id="ytick_7">
     <g id="line2d_15">
      <g>
       <use xlink:href="#me2d5d0146f" x="55.203125" y="24.0855" style="fill: #5b6b7f; stroke: #5b6b7f; stroke-width: 0.8"/>
      </g>
     </g>
     <g id="text_16">
      <!-- 0.30 -->
      <g style="fill: #5b6b7f" transform="translate(23.618125 28.621125) scale(0.12 -0.12)">
       <use xlink:href="#Georgia-30"/>
       <use xlink:href="#Georgia-2e" x="61.376953"/>
       <use xlink:href="#Georgia-33" x="88.330078"/>
       <use xlink:href="#Georgia-30" x="143.505859"/>
      </g>
     </g>
    </g>
    <g id="text_17">
     <!-- $BS(t)$  (lower = better) -->
     <g style="fill: #33415a" transform="translate(16.27125 195.1055) rotate(-90) scale(0.12 -0.12)">
      <defs>
       <path id="DejaVuSans-Oblique-42" d="M 1081 4666 
L 2694 4666 
Q 3350 4666 3675 4422 
Q 4000 4178 4000 3688 
Q 4000 3238 3720 2911 
Q 3441 2584 2988 2516 
Q 3375 2428 3569 2181 
Q 3763 1934 3763 1522 
Q 3763 819 3242 409 
Q 2722 0 1819 0 
L 172 0 
L 1081 4666 
z
M 1234 2228 
L 903 519 
L 1919 519 
Q 2491 519 2800 781 
Q 3109 1044 3109 1522 
Q 3109 1891 2904 2059 
Q 2700 2228 2247 2228 
L 1234 2228 
z
M 1606 4147 
L 1331 2741 
L 2272 2741 
Q 2775 2741 3058 2959 
Q 3341 3178 3341 3566 
Q 3341 3869 3150 4008 
Q 2959 4147 2541 4147 
L 1606 4147 
z
" transform="scale(0.015625)"/>
       <path id="DejaVuSans-Oblique-53" d="M 3859 4513 
L 3738 3897 
Q 3422 4066 3111 4152 
Q 2800 4238 2509 4238 
Q 1944 4238 1609 3991 
Q 1275 3744 1275 3334 
Q 1275 3109 1398 2989 
Q 1522 2869 2034 2731 
L 2413 2638 
Q 3053 2472 3303 2217 
Q 3553 1963 3553 1503 
Q 3553 797 2998 353 
Q 2444 -91 1538 -91 
Q 1166 -91 791 -17 
Q 416 56 38 206 
L 166 856 
Q 513 641 861 531 
Q 1209 422 1556 422 
Q 2147 422 2503 684 
Q 2859 947 2859 1369 
Q 2859 1650 2717 1795 
Q 2575 1941 2106 2059 
L 1728 2156 
Q 1081 2325 845 2545 
Q 609 2766 609 3163 
Q 609 3859 1145 4304 
Q 1681 4750 2541 4750 
Q 2875 4750 3203 4690 
Q 3531 4631 3859 4513 
z
" transform="scale(0.015625)"/>
       <path id="DejaVuSans-28" d="M 1984 4856 
Q 1566 4138 1362 3434 
Q 1159 2731 1159 2009 
Q 1159 1288 1364 580 
Q 1569 -128 1984 -844 
L 1484 -844 
Q 1016 -109 783 600 
Q 550 1309 550 2009 
Q 550 2706 781 3412 
Q 1013 4119 1484 4856 
L 1984 4856 
z
" transform="scale(0.015625)"/>
       <path id="DejaVuSans-Oblique-74" d="M 2706 3500 
L 2619 3053 
L 1472 3053 
L 1100 1153 
Q 1081 1047 1072 975 
Q 1063 903 1063 863 
Q 1063 663 1183 572 
Q 1303 481 1569 481 
L 2150 481 
L 2053 0 
L 1503 0 
Q 991 0 739 200 
Q 488 400 488 806 
Q 488 878 497 964 
Q 506 1050 525 1153 
L 897 3053 
L 409 3053 
L 500 3500 
L 978 3500 
L 1172 4494 
L 1747 4494 
L 1556 3500 
L 2706 3500 
z
" transform="scale(0.015625)"/>
       <path id="DejaVuSans-29" d="M 513 4856 
L 1013 4856 
Q 1481 4119 1714 3412 
Q 1947 2706 1947 2009 
Q 1947 1309 1714 600 
Q 1481 -109 1013 -844 
L 513 -844 
Q 928 -128 1133 580 
Q 1338 1288 1338 2009 
Q 1338 2731 1133 3434 
Q 928 4138 513 4856 
z
" transform="scale(0.015625)"/>
       <path id="Georgia-6c" d="M 1669 0 
L 166 0 
L 166 206 
Q 238 213 319 220 
Q 400 228 453 244 
Q 541 272 584 342 
Q 628 413 628 525 
L 628 4094 
Q 628 4206 579 4304 
Q 531 4403 453 4459 
Q 397 4497 247 4528 
Q 97 4559 6 4566 
L 6 4766 
L 1166 4838 
L 1209 4791 
L 1209 563 
Q 1209 453 1250 383 
Q 1291 313 1381 275 
Q 1450 244 1517 228 
Q 1584 213 1669 206 
L 1669 0 
z
" transform="scale(0.015625)"/>
       <path id="Georgia-77" d="M 4816 2881 
Q 4684 2869 4532 2772 
Q 4381 2675 4313 2481 
Q 4156 2022 4017 1611 
Q 3878 1200 3706 688 
Q 3650 525 3592 337 
Q 3534 150 3488 -22 
L 3219 -22 
L 2391 2247 
L 1556 -22 
L 1300 -22 
Q 1066 672 842 1355 
Q 619 2038 447 2544 
Q 397 2691 256 2775 
Q 116 2859 -16 2875 
L -16 3081 
L 1359 3081 
L 1359 2863 
Q 1256 2859 1136 2828 
Q 1016 2797 1016 2725 
Q 1016 2713 1027 2672 
Q 1038 2631 1053 2584 
Q 1153 2256 1279 1851 
Q 1406 1447 1606 800 
L 2394 3019 
L 2694 3019 
L 3497 831 
Q 3631 1250 3764 1642 
Q 3897 2034 3997 2378 
Q 4019 2459 4039 2526 
Q 4059 2594 4059 2659 
Q 4059 2716 4009 2759 
Q 3959 2803 3888 2831 
Q 3825 2856 3751 2868 
Q 3678 2881 3644 2881 
L 3644 3081 
L 4816 3081 
L 4816 2881 
z
" transform="scale(0.015625)"/>
       <path id="Georgia-72" d="M 2584 2684 
Q 2584 2525 2506 2401 
Q 2428 2278 2266 2278 
Q 2091 2278 1998 2368 
Q 1906 2459 1906 2569 
Q 1906 2638 1917 2694 
Q 1928 2750 1938 2806 
Q 1791 2806 1594 2687 
Q 1397 2569 1259 2350 
L 1259 556 
Q 1259 447 1301 378 
Q 1344 309 1434 275 
Q 1513 244 1636 228 
Q 1759 213 1850 206 
L 1850 0 
L 225 0 
L 225 206 
Q 297 213 373 219 
Q 450 225 506 244 
Q 594 272 636 342 
Q 678 413 678 525 
L 678 2428 
Q 678 2525 633 2619 
Q 588 2713 506 2769 
Q 447 2806 365 2823 
Q 284 2841 191 2847 
L 191 3050 
L 1216 3119 
L 1259 3075 
L 1259 2641 
L 1275 2641 
Q 1469 2894 1706 3025 
Q 1944 3156 2141 3156 
Q 2338 3156 2461 3028 
Q 2584 2900 2584 2684 
z
" transform="scale(0.015625)"/>
       <path id="Georgia-3d" d="M 3634 2134 
L 481 2134 
L 481 2525 
L 3634 2525 
L 3634 2134 
z
M 3634 972 
L 481 972 
L 481 1363 
L 3634 1363 
L 3634 972 
z
" transform="scale(0.015625)"/>
       <path id="Georgia-62" d="M 3353 1544 
Q 3353 850 2915 378 
Q 2478 -94 1900 -94 
Q 1647 -94 1401 -15 
Q 1156 63 941 194 
L 709 -166 
L 516 -122 
Q 531 109 537 434 
Q 544 759 544 1063 
L 544 4113 
Q 544 4219 495 4325 
Q 447 4431 372 4478 
Q 313 4519 173 4539 
Q 34 4559 -50 4566 
L -50 4766 
L 1081 4838 
L 1125 4791 
L 1125 2759 
L 1147 2753 
Q 1341 2959 1570 3062 
Q 1800 3166 2022 3166 
Q 2591 3166 2972 2716 
Q 3353 2266 3353 1544 
z
M 2700 1522 
Q 2700 1753 2650 1993 
Q 2600 2234 2494 2413 
Q 2388 2594 2216 2706 
Q 2044 2819 1803 2819 
Q 1584 2819 1420 2733 
Q 1256 2647 1125 2500 
L 1125 706 
Q 1144 631 1198 531 
Q 1253 431 1347 341 
Q 1441 253 1559 198 
Q 1678 144 1850 144 
Q 2231 144 2465 512 
Q 2700 881 2700 1522 
z
" transform="scale(0.015625)"/>
      </defs>
      <use xlink:href="#DejaVuSans-Oblique-42" transform="translate(0 0.125)"/>
      <use xlink:href="#DejaVuSans-Oblique-53" transform="translate(68.603516 0.125)"/>
      <use xlink:href="#DejaVuSans-28" transform="translate(132.080078 0.125)"/>
      <use xlink:href="#DejaVuSans-Oblique-74" transform="translate(171.09375 0.125)"/>
      <use xlink:href="#DejaVuSans-29" transform="translate(210.302734 0.125)"/>
      <use xlink:href="#Georgia-20" transform="translate(249.316406 0.125)"/>
      <use xlink:href="#Georgia-20" transform="translate(273.4375 0.125)"/>
      <use xlink:href="#Georgia-28" transform="translate(297.558594 0.125)"/>
      <use xlink:href="#Georgia-6c" transform="translate(335.058594 0.125)"/>
      <use xlink:href="#Georgia-6f" transform="translate(363.671875 0.125)"/>
      <use xlink:href="#Georgia-77" transform="translate(417.578125 0.125)"/>
      <use xlink:href="#Georgia-65" transform="translate(491.308594 0.125)"/>
      <use xlink:href="#Georgia-72" transform="translate(539.648438 0.125)"/>
      <use xlink:href="#Georgia-20" transform="translate(580.615234 0.125)"/>
      <use xlink:href="#Georgia-3d" transform="translate(604.736328 0.125)"/>
      <use xlink:href="#Georgia-20" transform="translate(669.042969 0.125)"/>
      <use xlink:href="#Georgia-62" transform="translate(693.164062 0.125)"/>
      <use xlink:href="#Georgia-65" transform="translate(749.169922 0.125)"/>
      <use xlink:href="#Georgia-74" transform="translate(797.509766 0.125)"/>
      <use xlink:href="#Georgia-74" transform="translate(832.03125 0.125)"/>
      <use xlink:href="#Georgia-65" transform="translate(866.552734 0.125)"/>
      <use xlink:href="#Georgia-72" transform="translate(914.892578 0.125)"/>
      <use xlink:href="#Georgia-29" transform="translate(955.859375 0.125)"/>
     </g>
    </g>
   </g>
   <g id="line2d_16">
    <path d="M 55.203125 61.212167 
L 496.318125 61.212167 
" clip-path="url(#pc272dff6ef)" style="fill: none; stroke-dasharray: 1.6,2.64; stroke-dashoffset: 0; stroke: #5b6b7f; stroke-width: 1.6"/>
   </g>
   <g id="line2d_17">
    <path d="M 55.203125 194.868167 
L 79.586366 187.597761 
L 103.969607 180.562584 
L 128.352849 173.762635 
L 152.73609 167.197915 
L 177.119331 160.868424 
L 201.502572 154.774161 
L 225.885813 148.915127 
L 250.269055 143.291322 
L 274.652296 137.902745 
L 299.035537 132.749397 
L 323.418778 127.831277 
L 347.802019 123.148386 
L 372.185261 118.700724 
L 396.568502 114.48829 
L 420.951743 110.511085 
L 445.334984 106.769108 
L 469.718226 103.262361 
L 494.101467 99.990841 
L 496.318125 99.705095 
L 496.318125 99.705095 
" clip-path="url(#pc272dff6ef)" style="fill: none; stroke-dasharray: 8.14,3.52; stroke-dashoffset: 0; stroke: #ef6f6c; stroke-width: 2.2"/>
   </g>
   <g id="line2d_18">
    <path d="M 55.203125 217.144167 
L 81.803024 212.090963 
L 108.402924 207.247716 
L 135.002823 202.614425 
L 161.602723 198.19109 
L 188.202622 193.977712 
L 214.802522 189.974289 
L 241.402421 186.180823 
L 268.002321 182.597312 
L 294.60222 179.223758 
L 321.20212 176.06016 
L 347.802019 173.106518 
L 374.401919 170.362832 
L 401.001818 167.829102 
L 427.601718 165.505328 
L 454.201617 163.391511 
L 480.801517 161.48765 
L 496.318125 160.474023 
L 496.318125 160.474023 
" clip-path="url(#pc272dff6ef)" style="fill: none; stroke: #1c7293; stroke-width: 2.4; stroke-linecap: square"/>
   </g>
   <g id="patch_3">
    <path d="M 55.203125 246.8455 
L 55.203125 24.0855 
" style="fill: none; stroke: #5b6b7f; stroke-width: 0.8; stroke-linejoin: miter; stroke-linecap: square"/>
   </g>
   <g id="patch_4">
    <path d="M 55.203125 246.8455 
L 496.318125 246.8455 
" style="fill: none; stroke: #5b6b7f; stroke-width: 0.8; stroke-linejoin: miter; stroke-linecap: square"/>
   </g>
   <g id="patch_5">
    <path d="M 196.428658 133.4213 
Q 247.554028 172.485958 297.791017 210.871808 
" style="fill: none; stroke: #5b6b7f; stroke-linecap: round"/>
    <path d="M 295.826937 206.854048 
L 297.791017 210.871808 
L 293.398361 210.032416 
" style="fill: none; stroke: #5b6b7f; stroke-linecap: round"/>
   </g>
   <g id="text_18">
    <!-- IBS = area under -->
    <g style="fill: #5b6b7f" transform="translate(140.975486 116.800167) scale(0.1 -0.1)">
     <defs>
      <path id="Georgia-49" d="M 2244 0 
L 247 0 
L 247 222 
Q 331 228 490 240 
Q 650 253 716 278 
Q 819 319 866 389 
Q 913 459 913 584 
L 913 3797 
Q 913 3906 878 3979 
Q 844 4053 716 4103 
Q 622 4141 480 4173 
Q 338 4206 247 4213 
L 247 4434 
L 2244 4434 
L 2244 4213 
Q 2147 4209 2012 4189 
Q 1878 4169 1778 4138 
Q 1659 4100 1618 4015 
Q 1578 3931 1578 3828 
L 1578 619 
Q 1578 516 1623 436 
Q 1669 356 1778 309 
Q 1844 284 1992 254 
Q 2141 225 2244 222 
L 2244 0 
z
" transform="scale(0.015625)"/>
      <path id="Georgia-42" d="M 3450 2066 
Q 3644 1934 3772 1721 
Q 3900 1509 3900 1206 
Q 3900 897 3765 669 
Q 3631 441 3416 294 
Q 3206 150 2942 75 
Q 2678 0 2397 0 
L 297 0 
L 297 222 
Q 372 228 515 248 
Q 659 269 722 297 
Q 819 341 859 414 
Q 900 488 900 603 
L 900 3791 
Q 900 3897 864 3978 
Q 828 4059 722 4109 
Q 628 4156 512 4181 
Q 397 4206 319 4213 
L 319 4434 
L 2366 4434 
Q 2603 4434 2820 4387 
Q 3038 4341 3234 4222 
Q 3419 4113 3537 3925 
Q 3656 3738 3656 3469 
Q 3656 3234 3572 3051 
Q 3488 2869 3334 2738 
Q 3191 2613 3005 2527 
Q 2819 2441 2603 2394 
L 2603 2366 
Q 2794 2344 3030 2270 
Q 3266 2197 3450 2066 
z
M 2697 2734 
Q 2813 2869 2858 3028 
Q 2903 3188 2903 3406 
Q 2903 3772 2703 3980 
Q 2503 4188 2072 4188 
Q 1972 4188 1820 4183 
Q 1669 4178 1566 4175 
L 1566 2472 
L 1963 2472 
Q 2219 2472 2401 2537 
Q 2584 2603 2697 2734 
z
M 3128 1319 
Q 3128 1713 2864 1966 
Q 2600 2219 2109 2219 
Q 1909 2219 1771 2214 
Q 1634 2209 1566 2206 
L 1566 644 
Q 1566 447 1725 347 
Q 1884 247 2169 247 
Q 2634 247 2881 519 
Q 3128 791 3128 1319 
z
" transform="scale(0.015625)"/>
      <path id="Georgia-53" d="M 3066 2034 
Q 3206 1878 3273 1692 
Q 3341 1506 3341 1259 
Q 3341 672 2906 290 
Q 2472 -91 1828 -91 
Q 1531 -91 1234 1 
Q 938 94 722 225 
L 588 -3 
L 338 -3 
L 294 1516 
L 547 1516 
Q 625 1234 729 1007 
Q 834 781 1006 584 
Q 1169 400 1386 290 
Q 1603 181 1891 181 
Q 2106 181 2267 237 
Q 2428 294 2528 397 
Q 2628 500 2676 639 
Q 2725 778 2725 959 
Q 2725 1225 2575 1454 
Q 2425 1684 2128 1803 
Q 1925 1884 1662 1982 
Q 1400 2081 1209 2169 
Q 834 2338 626 2611 
Q 419 2884 419 3325 
Q 419 3578 522 3797 
Q 625 4016 816 4188 
Q 997 4350 1244 4442 
Q 1491 4534 1759 4534 
Q 2066 4534 2308 4440 
Q 2550 4347 2750 4222 
L 2878 4434 
L 3128 4434 
L 3153 2963 
L 2900 2963 
Q 2831 3216 2745 3447 
Q 2659 3678 2522 3866 
Q 2388 4047 2194 4155 
Q 2000 4263 1719 4263 
Q 1422 4263 1212 4072 
Q 1003 3881 1003 3606 
Q 1003 3319 1137 3130 
Q 1272 2941 1528 2819 
Q 1756 2709 1976 2629 
Q 2197 2550 2403 2459 
Q 2591 2378 2764 2275 
Q 2938 2172 3066 2034 
z
" transform="scale(0.015625)"/>
      <path id="Georgia-61" d="M 3144 56 
Q 2997 3 2886 -30 
Q 2775 -63 2634 -63 
Q 2391 -63 2245 51 
Q 2100 166 2059 384 
L 2041 384 
Q 1838 159 1605 40 
Q 1372 -78 1044 -78 
Q 697 -78 473 134 
Q 250 347 250 691 
Q 250 869 300 1009 
Q 350 1150 450 1263 
Q 528 1356 656 1429 
Q 784 1503 897 1547 
Q 1038 1600 1467 1744 
Q 1897 1888 2047 1969 
L 2047 2278 
Q 2047 2319 2030 2434 
Q 2013 2550 1956 2653 
Q 1894 2769 1780 2855 
Q 1666 2941 1456 2941 
Q 1313 2941 1189 2892 
Q 1066 2844 1016 2791 
Q 1016 2728 1045 2606 
Q 1075 2484 1075 2381 
Q 1075 2272 976 2181 
Q 878 2091 703 2091 
Q 547 2091 473 2202 
Q 400 2313 400 2450 
Q 400 2594 501 2725 
Q 603 2856 766 2959 
Q 906 3047 1106 3108 
Q 1306 3169 1497 3169 
Q 1759 3169 1954 3133 
Q 2150 3097 2309 2978 
Q 2469 2863 2551 2664 
Q 2634 2466 2634 2153 
Q 2634 1706 2625 1361 
Q 2616 1016 2616 606 
Q 2616 484 2658 412 
Q 2700 341 2788 291 
Q 2834 263 2936 259 
Q 3038 256 3144 256 
L 3144 56 
z
M 2053 1706 
Q 1788 1628 1588 1553 
Q 1388 1478 1216 1366 
Q 1059 1259 968 1114 
Q 878 969 878 769 
Q 878 509 1014 387 
Q 1150 266 1359 266 
Q 1581 266 1750 373 
Q 1919 481 2034 628 
L 2053 1706 
z
" transform="scale(0.015625)"/>
      <path id="Georgia-75" d="M 3528 56 
L 2525 -13 
L 2478 31 
L 2478 422 
L 2459 422 
Q 2384 344 2290 255 
Q 2197 166 2075 94 
Q 1934 9 1803 -34 
Q 1672 -78 1431 -78 
Q 1022 -78 808 189 
Q 594 456 594 966 
L 594 2441 
Q 594 2553 551 2629 
Q 509 2706 428 2763 
Q 372 2800 287 2817 
Q 203 2834 109 2841 
L 109 3044 
L 1138 3119 
L 1184 3075 
L 1184 934 
Q 1184 600 1334 431 
Q 1484 263 1694 263 
Q 1866 263 2000 316 
Q 2134 369 2225 441 
Q 2309 506 2373 579 
Q 2438 653 2472 716 
L 2472 2463 
Q 2472 2566 2428 2645 
Q 2384 2725 2306 2781 
Q 2250 2819 2139 2826 
Q 2028 2834 1891 2841 
L 1891 3044 
L 3009 3119 
L 3056 3075 
L 3056 628 
Q 3056 522 3100 447 
Q 3144 372 3222 319 
Q 3278 284 3356 273 
Q 3434 263 3528 259 
L 3528 56 
z
" transform="scale(0.015625)"/>
      <path id="Georgia-64" d="M 3600 56 
L 2525 -13 
L 2478 31 
L 2478 319 
L 2453 325 
Q 2291 144 2052 28 
Q 1813 -88 1559 -88 
Q 1297 -88 1051 29 
Q 806 147 625 359 
Q 441 575 333 878 
Q 225 1181 225 1547 
Q 225 1881 340 2181 
Q 456 2481 659 2706 
Q 850 2916 1126 3041 
Q 1403 3166 1691 3166 
Q 1906 3166 2114 3111 
Q 2322 3056 2472 2972 
L 2472 4044 
Q 2472 4175 2428 4283 
Q 2384 4391 2306 4447 
Q 2219 4506 2070 4532 
Q 1922 4559 1750 4572 
L 1750 4766 
L 3009 4838 
L 3056 4791 
L 3056 634 
Q 3056 525 3098 448 
Q 3141 372 3222 319 
Q 3281 281 3393 272 
Q 3506 263 3600 259 
L 3600 56 
z
M 2472 597 
L 2472 2400 
Q 2447 2481 2390 2575 
Q 2334 2669 2250 2747 
Q 2159 2825 2037 2876 
Q 1916 2928 1753 2928 
Q 1566 2928 1408 2831 
Q 1250 2734 1128 2553 
Q 1013 2378 945 2108 
Q 878 1838 878 1509 
Q 878 1247 928 1033 
Q 978 819 1097 634 
Q 1206 459 1376 353 
Q 1547 247 1781 247 
Q 2031 247 2195 356 
Q 2359 466 2472 597 
z
" transform="scale(0.015625)"/>
     </defs>
     <use xlink:href="#Georgia-49"/>
     <use xlink:href="#Georgia-42" x="38.964844"/>
     <use xlink:href="#Georgia-53" x="104.345703"/>
     <use xlink:href="#Georgia-20" x="160.449219"/>
     <use xlink:href="#Georgia-3d" x="184.570312"/>
     <use xlink:href="#Georgia-20" x="248.876953"/>
     <use xlink:href="#Georgia-61" x="272.998047"/>
     <use xlink:href="#Georgia-72" x="323.388672"/>
     <use xlink:href="#Georgia-65" x="364.355469"/>
     <use xlink:href="#Georgia-61" x="412.695312"/>
     <use xlink:href="#Georgia-20" x="463.085938"/>
     <use xlink:href="#Georgia-75" x="487.207031"/>
     <use xlink:href="#Georgia-6e" x="544.726562"/>
     <use xlink:href="#Georgia-64" x="603.808594"/>
     <use xlink:href="#Georgia-65" x="661.230469"/>
     <use xlink:href="#Georgia-72" x="709.570312"/>
    </g>
    <!-- the model curve -->
    <g style="fill: #5b6b7f" transform="translate(140.975486 128.040167) scale(0.1 -0.1)">
     <defs>
      <path id="Georgia-63" d="M 1650 -81 
Q 981 -81 603 362 
Q 225 806 225 1553 
Q 225 1878 326 2161 
Q 428 2444 622 2675 
Q 806 2897 1084 3033 
Q 1363 3169 1691 3169 
Q 2144 3169 2428 2951 
Q 2713 2734 2713 2359 
Q 2713 2203 2638 2083 
Q 2563 1963 2391 1963 
Q 2206 1963 2104 2056 
Q 2003 2150 2003 2266 
Q 2003 2406 2040 2554 
Q 2078 2703 2084 2772 
Q 2028 2869 1917 2901 
Q 1806 2934 1678 2934 
Q 1528 2934 1392 2870 
Q 1256 2806 1128 2634 
Q 1013 2478 941 2212 
Q 869 1947 869 1578 
Q 869 997 1126 630 
Q 1384 263 1803 263 
Q 2106 263 2311 409 
Q 2516 556 2691 850 
L 2891 719 
Q 2684 350 2346 134 
Q 2009 -81 1650 -81 
z
" transform="scale(0.015625)"/>
      <path id="Georgia-76" d="M 3269 2891 
Q 3128 2866 3001 2789 
Q 2875 2713 2784 2519 
Q 2600 2100 2403 1645 
Q 2206 1191 1994 691 
Q 1931 547 1861 350 
Q 1791 153 1731 -28 
L 1488 -28 
Q 1191 706 941 1311 
Q 691 1916 422 2550 
Q 359 2694 220 2773 
Q 81 2853 -59 2875 
L -59 3081 
L 1366 3081 
L 1366 2863 
Q 1272 2859 1131 2823 
Q 991 2788 991 2725 
Q 991 2716 1006 2677 
Q 1022 2638 1038 2588 
Q 1166 2269 1400 1697 
Q 1634 1125 1781 775 
Q 1894 1044 2064 1444 
Q 2234 1844 2431 2338 
Q 2463 2422 2491 2495 
Q 2519 2569 2519 2644 
Q 2519 2697 2467 2739 
Q 2416 2781 2344 2813 
Q 2272 2844 2203 2859 
Q 2134 2875 2091 2881 
L 2091 3081 
L 3269 3081 
L 3269 2891 
z
" transform="scale(0.015625)"/>
     </defs>
     <use xlink:href="#Georgia-74"/>
     <use xlink:href="#Georgia-68" x="34.521484"/>
     <use xlink:href="#Georgia-65" x="92.724609"/>
     <use xlink:href="#Georgia-20" x="141.064453"/>
     <use xlink:href="#Georgia-6d" x="165.185547"/>
     <use xlink:href="#Georgia-6f" x="253.271484"/>
     <use xlink:href="#Georgia-64" x="307.177734"/>
     <use xlink:href="#Georgia-65" x="364.599609"/>
     <use xlink:href="#Georgia-6c" x="412.939453"/>
     <use xlink:href="#Georgia-20" x="441.552734"/>
     <use xlink:href="#Georgia-63" x="465.673828"/>
     <use xlink:href="#Georgia-75" x="511.083984"/>
     <use xlink:href="#Georgia-72" x="568.603516"/>
     <use xlink:href="#Georgia-76" x="609.570312"/>
     <use xlink:href="#Georgia-65" x="659.228516"/>
    </g>
   </g>
   <g id="text_19">
    <!-- Brier score: calibration over time — beat the KM baseline -->
    <g style="fill: #1b2a41" transform="translate(94.493875 18.0855) scale(0.144 -0.144)">
     <defs>
      <path id="Georgia-3a" d="M 1428 2666 
Q 1428 2491 1301 2366 
Q 1175 2241 1000 2241 
Q 825 2241 698 2366 
Q 572 2491 572 2666 
Q 572 2841 697 2967 
Q 822 3094 1000 3094 
Q 1178 3094 1303 2967 
Q 1428 2841 1428 2666 
z
M 1428 359 
Q 1428 184 1301 60 
Q 1175 -63 1000 -63 
Q 825 -63 698 60 
Q 572 184 572 359 
Q 572 534 698 661 
Q 825 788 1000 788 
Q 1175 788 1301 661 
Q 1428 534 1428 359 
z
" transform="scale(0.015625)"/>
      <path id="Georgia-2014" d="M 5166 1553 
L 319 1553 
L 319 1944 
L 5166 1944 
L 5166 1553 
z
" transform="scale(0.015625)"/>
      <path id="Georgia-4b" d="M 4609 0 
L 3366 0 
Q 3006 556 2567 1104 
Q 2128 1653 1647 2169 
L 1566 2169 
L 1566 625 
Q 1566 522 1605 440 
Q 1644 359 1747 309 
Q 1797 288 1933 256 
Q 2069 225 2159 222 
L 2159 0 
L 319 0 
L 319 222 
Q 391 228 528 240 
Q 666 253 722 278 
Q 816 319 858 398 
Q 900 478 900 591 
L 900 3791 
Q 900 3897 864 3975 
Q 828 4053 722 4103 
Q 638 4144 522 4175 
Q 406 4206 319 4213 
L 319 4434 
L 2159 4434 
L 2159 4213 
Q 2072 4209 1940 4184 
Q 1809 4159 1747 4138 
Q 1641 4100 1603 4012 
Q 1566 3925 1566 3822 
L 1566 2291 
L 1628 2291 
Q 1909 2528 2181 2786 
Q 2453 3044 2675 3300 
Q 2922 3584 3036 3754 
Q 3150 3925 3150 4056 
Q 3150 4103 3092 4133 
Q 3034 4163 2959 4181 
Q 2872 4200 2803 4204 
Q 2734 4209 2691 4213 
L 2691 4434 
L 4353 4434 
L 4353 4213 
Q 4344 4213 4312 4209 
Q 4281 4206 4241 4203 
Q 4197 4200 4153 4190 
Q 4109 4181 4041 4169 
Q 3931 4144 3814 4089 
Q 3697 4034 3622 3953 
Q 3300 3588 2950 3197 
Q 2600 2806 2256 2484 
Q 2731 1947 3042 1559 
Q 3353 1172 3703 731 
Q 3838 563 3972 461 
Q 4106 359 4203 309 
Q 4284 269 4406 247 
Q 4528 225 4609 222 
L 4609 0 
z
" transform="scale(0.015625)"/>
      <path id="Georgia-4d" d="M 5644 0 
L 3684 0 
L 3684 222 
Q 3791 225 3958 244 
Q 4125 263 4188 297 
Q 4284 356 4329 432 
Q 4375 509 4375 625 
L 4375 3850 
L 4328 3850 
L 2816 72 
L 2659 72 
L 1219 3928 
L 1178 3928 
L 1178 1281 
Q 1178 897 1226 697 
Q 1275 497 1375 409 
Q 1444 344 1659 284 
Q 1875 225 1941 222 
L 1941 0 
L 150 0 
L 150 222 
Q 291 234 445 268 
Q 600 303 684 372 
Q 794 459 834 640 
Q 875 822 875 1247 
L 875 3516 
Q 875 3713 828 3838 
Q 781 3963 694 4041 
Q 597 4125 456 4165 
Q 316 4206 178 4213 
L 178 4434 
L 1691 4434 
L 2959 1109 
L 4044 3891 
Q 4103 4044 4145 4211 
Q 4188 4378 4191 4434 
L 5638 4434 
L 5638 4213 
Q 5550 4209 5414 4184 
Q 5278 4159 5216 4138 
Q 5109 4100 5071 4012 
Q 5034 3925 5034 3822 
L 5034 625 
Q 5034 516 5071 441 
Q 5109 366 5216 309 
Q 5272 278 5415 251 
Q 5559 225 5644 222 
L 5644 0 
z
" transform="scale(0.015625)"/>
     </defs>
     <use xlink:href="#Georgia-42"/>
     <use xlink:href="#Georgia-72" x="65.380859"/>
     <use xlink:href="#Georgia-69" x="106.347656"/>
     <use xlink:href="#Georgia-65" x="135.644531"/>
     <use xlink:href="#Georgia-72" x="183.984375"/>
     <use xlink:href="#Georgia-20" x="224.951172"/>
     <use xlink:href="#Georgia-73" x="249.072266"/>
     <use xlink:href="#Georgia-63" x="292.285156"/>
     <use xlink:href="#Georgia-6f" x="337.695312"/>
     <use xlink:href="#Georgia-72" x="391.601562"/>
     <use xlink:href="#Georgia-65" x="432.568359"/>
     <use xlink:href="#Georgia-3a" x="480.908203"/>
     <use xlink:href="#Georgia-20" x="512.158203"/>
     <use xlink:href="#Georgia-63" x="536.279297"/>
     <use xlink:href="#Georgia-61" x="581.689453"/>
     <use xlink:href="#Georgia-6c" x="632.080078"/>
     <use xlink:href="#Georgia-69" x="660.693359"/>
     <use xlink:href="#Georgia-62" x="689.990234"/>
     <use xlink:href="#Georgia-72" x="745.996094"/>
     <use xlink:href="#Georgia-61" x="786.962891"/>
     <use xlink:href="#Georgia-74" x="837.353516"/>
     <use xlink:href="#Georgia-69" x="871.875"/>
     <use xlink:href="#Georgia-6f" x="901.171875"/>
     <use xlink:href="#Georgia-6e" x="955.078125"/>
     <use xlink:href="#Georgia-20" x="1014.160156"/>
     <use xlink:href="#Georgia-6f" x="1038.28125"/>
     <use xlink:href="#Georgia-76" x="1092.1875"/>
     <use xlink:href="#Georgia-65" x="1141.845703"/>
     <use xlink:href="#Georgia-72" x="1190.185547"/>
     <use xlink:href="#Georgia-20" x="1231.152344"/>
     <use xlink:href="#Georgia-74" x="1255.273438"/>
     <use xlink:href="#Georgia-69" x="1289.794922"/>
     <use xlink:href="#Georgia-6d" x="1319.091797"/>
     <use xlink:href="#Georgia-65" x="1407.177734"/>
     <use xlink:href="#Georgia-20" x="1455.517578"/>
     <use xlink:href="#Georgia-2014" x="1479.638672"/>
     <use xlink:href="#Georgia-20" x="1565.332031"/>
     <use xlink:href="#Georgia-62" x="1589.453125"/>
     <use xlink:href="#Georgia-65" x="1645.458984"/>
     <use xlink:href="#Georgia-61" x="1693.798828"/>
     <use xlink:href="#Georgia-74" x="1744.189453"/>
     <use xlink:href="#Georgia-20" x="1778.710938"/>
     <use xlink:href="#Georgia-74" x="1802.832031"/>
     <use xlink:href="#Georgia-68" x="1837.353516"/>
     <use xlink:href="#Georgia-65" x="1895.556641"/>
     <use xlink:href="#Georgia-20" x="1943.896484"/>
     <use xlink:href="#Georgia-4b" x="1968.017578"/>
     <use xlink:href="#Georgia-4d" x="2037.451172"/>
     <use xlink:href="#Georgia-20" x="2130.175781"/>
     <use xlink:href="#Georgia-62" x="2154.296875"/>
     <use xlink:href="#Georgia-61" x="2210.302734"/>
     <use xlink:href="#Georgia-73" x="2260.693359"/>
     <use xlink:href="#Georgia-65" x="2303.90625"/>
     <use xlink:href="#Georgia-6c" x="2352.246094"/>
     <use xlink:href="#Georgia-69" x="2380.859375"/>
     <use xlink:href="#Georgia-6e" x="2410.15625"/>
     <use xlink:href="#Georgia-65" x="2469.238281"/>
    </g>
   </g>
   <g id="legend_1">
    <g id="line2d_19">
     <path d="M 63.303125 35.838937 
L 72.303125 35.838937 
L 81.303125 35.838937 
" style="fill: none; stroke-dasharray: 1.6,2.64; stroke-dashoffset: 0; stroke: #5b6b7f; stroke-width: 1.6"/>
    </g>
    <g id="text_20">
     <!-- uninformative (0.25) -->
     <g style="fill: #33415a" transform="translate(88.503125 38.988937) scale(0.09 -0.09)">
      <defs>
       <path id="Georgia-66" d="M 2519 4466 
Q 2519 4325 2444 4228 
Q 2369 4131 2216 4131 
Q 2119 4131 2045 4172 
Q 1972 4213 1909 4281 
Q 1847 4350 1794 4437 
Q 1741 4525 1703 4578 
Q 1494 4569 1380 4286 
Q 1266 4003 1266 3384 
L 1266 3069 
L 2059 3069 
L 2059 2769 
L 1266 2769 
L 1266 556 
Q 1266 447 1308 378 
Q 1350 309 1441 275 
Q 1516 247 1641 230 
Q 1766 213 1856 206 
L 1856 0 
L 231 0 
L 231 206 
Q 303 213 379 219 
Q 456 225 513 244 
Q 600 272 642 342 
Q 684 413 684 525 
L 684 2769 
L 75 2769 
L 75 3069 
L 684 3069 
L 684 3266 
Q 684 3969 1048 4405 
Q 1413 4841 1959 4841 
Q 2238 4841 2378 4731 
Q 2519 4622 2519 4466 
z
" transform="scale(0.015625)"/>
      </defs>
      <use xlink:href="#Georgia-75"/>
      <use xlink:href="#Georgia-6e" x="57.519531"/>
      <use xlink:href="#Georgia-69" x="116.601562"/>
      <use xlink:href="#Georgia-6e" x="145.898438"/>
      <use xlink:href="#Georgia-66" x="204.980469"/>
      <use xlink:href="#Georgia-6f" x="237.5"/>
      <use xlink:href="#Georgia-72" x="291.40625"/>
      <use xlink:href="#Georgia-6d" x="332.373047"/>
      <use xlink:href="#Georgia-61" x="420.458984"/>
      <use xlink:href="#Georgia-74" x="470.849609"/>
      <use xlink:href="#Georgia-69" x="505.371094"/>
      <use xlink:href="#Georgia-76" x="534.667969"/>
      <use xlink:href="#Georgia-65" x="584.326172"/>
      <use xlink:href="#Georgia-20" x="632.666016"/>
      <use xlink:href="#Georgia-28" x="656.787109"/>
      <use xlink:href="#Georgia-30" x="694.287109"/>
      <use xlink:href="#Georgia-2e" x="755.664062"/>
      <use xlink:href="#Georgia-32" x="782.617188"/>
      <use xlink:href="#Georgia-35" x="838.476562"/>
      <use xlink:href="#Georgia-29" x="891.308594"/>
     </g>
    </g>
    <g id="line2d_20">
     <path d="M 63.303125 49.09425 
L 72.303125 49.09425 
L 81.303125 49.09425 
" style="fill: none; stroke-dasharray: 8.14,3.52; stroke-dashoffset: 0; stroke: #ef6f6c; stroke-width: 2.2"/>
    </g>
    <g id="text_21">
     <!-- Kaplan-Meier baseline -->
     <g style="fill: #33415a" transform="translate(88.503125 52.24425) scale(0.09 -0.09)">
      <defs>
       <path id="Georgia-70" d="M 3041 2716 
Q 3225 2497 3326 2208 
Q 3428 1919 3428 1547 
Q 3428 1181 3306 879 
Q 3184 578 2984 366 
Q 2775 150 2519 34 
Q 2263 -81 1975 -81 
Q 1697 -81 1519 -18 
Q 1341 44 1228 128 
L 1203 128 
L 1203 -797 
Q 1203 -909 1247 -984 
Q 1291 -1059 1381 -1094 
Q 1456 -1122 1595 -1148 
Q 1734 -1175 1825 -1178 
L 1825 -1388 
L 103 -1388 
L 103 -1178 
Q 200 -1172 290 -1162 
Q 381 -1153 453 -1131 
Q 547 -1100 584 -1022 
Q 622 -944 622 -838 
L 622 2441 
Q 622 2534 575 2621 
Q 528 2709 453 2763 
Q 397 2800 297 2820 
Q 197 2841 103 2847 
L 103 3050 
L 1153 3119 
L 1197 3081 
L 1197 2734 
L 1222 2728 
Q 1384 2916 1625 3041 
Q 1866 3166 2103 3166 
Q 2391 3166 2630 3044 
Q 2869 2922 3041 2716 
z
M 2531 500 
Q 2656 694 2715 950 
Q 2775 1206 2775 1522 
Q 2775 1753 2725 1993 
Q 2675 2234 2569 2413 
Q 2463 2594 2291 2706 
Q 2119 2819 1878 2819 
Q 1647 2819 1484 2717 
Q 1322 2616 1203 2475 
L 1203 653 
Q 1231 569 1295 478 
Q 1359 388 1438 322 
Q 1534 244 1646 195 
Q 1759 147 1922 147 
Q 2097 147 2259 239 
Q 2422 331 2531 500 
z
" transform="scale(0.015625)"/>
       <path id="Georgia-2d" d="M 2128 1453 
L 266 1453 
L 266 1944 
L 2128 1944 
L 2128 1453 
z
" transform="scale(0.015625)"/>
      </defs>
      <use xlink:href="#Georgia-4b"/>
      <use xlink:href="#Georgia-61" x="69.433594"/>
      <use xlink:href="#Georgia-70" x="119.824219"/>
      <use xlink:href="#Georgia-6c" x="176.953125"/>
      <use xlink:href="#Georgia-61" x="205.566406"/>
      <use xlink:href="#Georgia-6e" x="255.957031"/>
      <use xlink:href="#Georgia-2d" x="315.039062"/>
      <use xlink:href="#Georgia-4d" x="352.441406"/>
      <use xlink:href="#Georgia-65" x="445.166016"/>
      <use xlink:href="#Georgia-69" x="493.505859"/>
      <use xlink:href="#Georgia-65" x="522.802734"/>
      <use xlink:href="#Georgia-72" x="571.142578"/>
      <use xlink:href="#Georgia-20" x="612.109375"/>
      <use xlink:href="#Georgia-62" x="636.230469"/>
      <use xlink:href="#Georgia-61" x="692.236328"/>
      <use xlink:href="#Georgia-73" x="742.626953"/>
      <use xlink:href="#Georgia-65" x="785.839844"/>
      <use xlink:href="#Georgia-6c" x="834.179688"/>
      <use xlink:href="#Georgia-69" x="862.792969"/>
      <use xlink:href="#Georgia-6e" x="892.089844"/>
      <use xlink:href="#Georgia-65" x="951.171875"/>
     </g>
    </g>
    <g id="line2d_21">
     <path d="M 63.303125 62.349562 
L 72.303125 62.349562 
L 81.303125 62.349562 
" style="fill: none; stroke: #1c7293; stroke-width: 2.4; stroke-linecap: square"/>
    </g>
    <g id="text_22">
     <!-- model -->
     <g style="fill: #33415a" transform="translate(88.503125 65.499562) scale(0.09 -0.09)">
      <use xlink:href="#Georgia-6d"/>
      <use xlink:href="#Georgia-6f" x="88.085938"/>
      <use xlink:href="#Georgia-64" x="141.992188"/>
      <use xlink:href="#Georgia-65" x="199.414062"/>
      <use xlink:href="#Georgia-6c" x="247.753906"/>
     </g>
    </g>
   </g>
  </g>
 </g>
 <defs>
  <clipPath id="pc272dff6ef">
   <rect x="55.203125" y="24.0855" width="441.115" height="222.76"/>
  </clipPath>
 </defs>
</svg>
