<?xml version="1.0" encoding="utf-8" standalone="no"?>
<!DOCTYPE svg PUBLIC "-//W3C//DTD SVG 1.1//EN"
  "http://www.w3.org/Graphics/SVG/1.1/DTD/svg11.dtd">
<svg xmlns:xlink="http://www.w3.org/1999/xlink" width="504.088125pt" height="286.368pt" viewBox="0 0 504.088125 286.368" xmlns="http://www.w3.org/2000/svg" version="1.1">
 <metadata>
  <rdf:RDF xmlns:dc="http://purl.org/dc/elements/1.1/" xmlns:cc="http://creativecommons.org/ns#" xmlns:rdf="http://www.w3.org/1999/02/22-rdf-syntax-ns#">
   <cc:Work>
    <dc:type rdf:resource="http://purl.org/dc/dcmitype/StillImage"/>
    <dc:date>2026-06-15T14:28:26.746985</dc:date>
    <dc:format>image/svg+xml</dc:format>
    <dc:creator>
     <cc:Agent>
      <dc:title>Matplotlib v3.9.4, https://matplotlib.org/</dc:title>
     </cc:Agent>
    </dc:creator>
   </cc:Work>
  </rdf:RDF>
 </metadata>
 <defs>
  <style type="text/css">*{stroke-linejoin: round; stroke-linecap: butt}</style>
 </defs>
 <g id="figure_1">
  <g id="patch_1">
   <path d="M 0 286.368 
L 504.088125 286.368 
L 504.088125 0 
L 0 0 
z
" style="fill: #ffffff"/>
  </g>
  <g id="axes_1">
   <g id="patch_2">
    <path d="M 47.628125 244.8205 
L 496.888125 244.8205 
L 496.888125 24.0855 
L 47.628125 24.0855 
z
" style="fill: #ffffff"/>
   </g>
   <g id="matplotlib.axis_1">
    <g id="xtick_1">
     <g id="line2d_1">
      <defs>
       <path id="mbf630e8dba" d="M 0 0 
L 0 3.5 
" style="stroke: #5b6b7f; stroke-width: 0.8"/>
      </defs>
      <g>
       <use xlink:href="#mbf630e8dba" x="47.628125" y="244.8205" style="fill: #5b6b7f; stroke: #5b6b7f; stroke-width: 0.8"/>
      </g>
     </g>
     <g id="text_1">
      <!-- 0 -->
      <g style="fill: #5b6b7f" transform="translate(43.945625 260.89175) scale(0.12 -0.12)">
       <defs>
        <path id="Georgia-30" d="M 3209 2919 
Q 3409 2678 3507 2354 
Q 3606 2031 3606 1678 
Q 3606 1253 3484 917 
Q 3363 581 3150 359 
Q 2931 131 2631 15 
Q 2331 -100 1963 -100 
Q 1559 -100 1243 34 
Q 928 169 731 403 
Q 525 647 423 973 
Q 322 1300 322 1678 
Q 322 2050 420 2362 
Q 519 2675 728 2928 
Q 928 3172 1243 3312 
Q 1559 3453 1966 3453 
Q 2394 3453 2700 3309 
Q 3006 3166 3209 2919 
z
M 2916 1678 
Q 2916 2422 2661 2831 
Q 2406 3241 1969 3241 
Q 1525 3241 1269 2831 
Q 1013 2422 1013 1678 
Q 1013 972 1258 542 
Q 1503 113 1963 113 
Q 2422 113 2669 542 
Q 2916 972 2916 1678 
z
" transform="scale(0.015625)"/>
       </defs>
       <use xlink:href="#Georgia-30"/>
      </g>
     </g>
    </g>
    <g id="xtick_2">
     <g id="line2d_2">
      <g>
       <use xlink:href="#mbf630e8dba" x="110.025347" y="244.8205" style="fill: #5b6b7f; stroke: #5b6b7f; stroke-width: 0.8"/>
      </g>
     </g>
     <g id="text_2">
      <!-- 5 -->
      <g style="fill: #5b6b7f" transform="translate(106.85566 260.89175) scale(0.12 -0.12)">
       <defs>
        <path id="Georgia-35" d="M 2634 1466 
Q 2841 1303 2977 1047 
Q 3113 791 3113 406 
Q 3113 -266 2653 -703 
Q 2194 -1141 1488 -1141 
Q 941 -1141 562 -881 
Q 184 -622 184 -278 
Q 184 -119 262 0 
Q 341 119 503 119 
Q 691 119 789 20 
Q 888 -78 888 -194 
Q 888 -294 853 -444 
Q 819 -594 800 -666 
Q 825 -688 881 -725 
Q 938 -763 1016 -797 
Q 1097 -831 1214 -857 
Q 1331 -884 1488 -884 
Q 1688 -884 1866 -803 
Q 2044 -722 2166 -563 
Q 2300 -388 2367 -164 
Q 2434 59 2434 403 
Q 2434 844 2189 1133 
Q 1944 1422 1544 1422 
Q 1294 1422 1076 1328 
Q 859 1234 688 1016 
L 478 1097 
L 744 3353 
L 2981 3353 
L 2981 2797 
L 997 2797 
L 834 1472 
Q 975 1572 1204 1670 
Q 1434 1769 1709 1769 
Q 1938 1769 2183 1698 
Q 2428 1628 2634 1466 
z
" transform="scale(0.015625)"/>
       </defs>
       <use xlink:href="#Georgia-35"/>
      </g>
     </g>
    </g>
    <g id="xtick_3">
     <g id="line2d_3">
      <g>
       <use xlink:href="#mbf630e8dba" x="172.422569" y="244.8205" style="fill: #5b6b7f; stroke: #5b6b7f; stroke-width: 0.8"/>
      </g>
     </g>
     <g id="text_3">
      <!-- 10 -->
      <g style="fill: #5b6b7f" transform="translate(166.161944 260.89175) scale(0.12 -0.12)">
       <defs>
        <path id="Georgia-31" d="M 2528 0 
L 422 0 
L 422 222 
Q 516 228 714 248 
Q 913 269 988 291 
Q 1084 322 1136 392 
Q 1188 463 1188 603 
L 1188 2797 
L 409 2797 
L 409 3059 
L 581 3059 
Q 919 3059 1186 3184 
Q 1453 3309 1569 3453 
L 1828 3453 
Q 1819 3250 1809 2978 
Q 1800 2706 1800 2491 
L 1800 638 
Q 1800 528 1848 442 
Q 1897 356 1988 316 
Q 2069 281 2253 253 
Q 2438 225 2528 222 
L 2528 0 
z
" transform="scale(0.015625)"/>
       </defs>
       <use xlink:href="#Georgia-31"/>
       <use xlink:href="#Georgia-30" x="42.96875"/>
      </g>
     </g>
    </g>
    <g id="xtick_4">
     <g id="line2d_4">
      <g>
       <use xlink:href="#mbf630e8dba" x="234.819792" y="244.8205" style="fill: #5b6b7f; stroke: #5b6b7f; stroke-width: 0.8"/>
      </g>
     </g>
     <g id="text_4">
      <!-- 15 -->
      <g style="fill: #5b6b7f" transform="translate(229.071979 260.89175) scale(0.12 -0.12)">
       <use xlink:href="#Georgia-31"/>
       <use xlink:href="#Georgia-35" x="42.96875"/>
      </g>
     </g>
    </g>
    <g id="xtick_5">
     <g id="line2d_5">
      <g>
       <use xlink:href="#mbf630e8dba" x="297.217014" y="244.8205" style="fill: #5b6b7f; stroke: #5b6b7f; stroke-width: 0.8"/>
      </g>
     </g>
     <g id="text_5">
      <!-- 20 -->
      <g style="fill: #5b6b7f" transform="translate(290.182951 260.89175) scale(0.12 -0.12)">
       <defs>
        <path id="Georgia-32" d="M 3272 0 
L 344 0 
L 344 425 
Q 428 522 578 642 
Q 728 763 934 903 
Q 1059 988 1234 1088 
Q 1409 1188 1631 1306 
Q 1878 1438 2011 1538 
Q 2144 1638 2253 1784 
Q 2325 1881 2369 2026 
Q 2413 2172 2413 2441 
Q 2413 2831 2203 3014 
Q 1994 3197 1666 3197 
Q 1463 3197 1281 3117 
Q 1100 3038 1009 2897 
Q 1031 2797 1064 2659 
Q 1097 2522 1097 2391 
Q 1097 2272 998 2180 
Q 900 2088 706 2088 
Q 550 2088 465 2195 
Q 381 2303 381 2484 
Q 381 2653 475 2823 
Q 569 2994 744 3138 
Q 916 3278 1169 3365 
Q 1422 3453 1716 3453 
Q 2356 3453 2732 3167 
Q 3109 2881 3109 2403 
Q 3109 2175 3042 1987 
Q 2975 1800 2825 1656 
Q 2659 1497 2437 1383 
Q 2216 1269 1759 1066 
Q 1488 944 1253 811 
Q 1019 678 869 553 
L 3272 553 
L 3272 0 
z
" transform="scale(0.015625)"/>
       </defs>
       <use xlink:href="#Georgia-32"/>
       <use xlink:href="#Georgia-30" x="55.859375"/>
      </g>
     </g>
    </g>
    <g id="xtick_6">
     <g id="line2d_6">
      <g>
       <use xlink:href="#mbf630e8dba" x="359.614236" y="244.8205" style="fill: #5b6b7f; stroke: #5b6b7f; stroke-width: 0.8"/>
      </g>
     </g>
     <g id="text_6">
      <!-- 25 -->
      <g style="fill: #5b6b7f" transform="translate(353.092986 260.89175) scale(0.12 -0.12)">
       <use xlink:href="#Georgia-32"/>
       <use xlink:href="#Georgia-35" x="55.859375"/>
      </g>
     </g>
    </g>
    <g id="xtick_7">
     <g id="line2d_7">
      <g>
       <use xlink:href="#mbf630e8dba" x="422.011458" y="244.8205" style="fill: #5b6b7f; stroke: #5b6b7f; stroke-width: 0.8"/>
      </g>
     </g>
     <g id="text_7">
      <!-- 30 -->
      <g style="fill: #5b6b7f" transform="translate(415.018646 260.89175) scale(0.12 -0.12)">
       <defs>
        <path id="Georgia-33" d="M 1522 -1141 
Q 1228 -1141 984 -1067 
Q 741 -994 566 -869 
Q 391 -744 295 -581 
Q 200 -419 200 -247 
Q 200 -94 275 29 
Q 350 153 516 153 
Q 703 153 801 61 
Q 900 -31 900 -150 
Q 900 -250 867 -403 
Q 834 -556 816 -622 
Q 838 -650 895 -697 
Q 953 -744 1038 -781 
Q 1138 -828 1247 -856 
Q 1356 -884 1556 -884 
Q 1744 -884 1917 -821 
Q 2091 -759 2222 -622 
Q 2359 -478 2436 -286 
Q 2513 -94 2513 219 
Q 2513 388 2477 553 
Q 2441 719 2344 841 
Q 2247 963 2080 1030 
Q 1913 1097 1656 1097 
L 1247 1097 
L 1247 1456 
L 1519 1456 
Q 1950 1456 2140 1693 
Q 2331 1931 2331 2409 
Q 2331 2800 2147 2998 
Q 1963 3197 1625 3197 
Q 1463 3197 1358 3158 
Q 1253 3119 1188 3081 
Q 1109 3038 1059 2984 
Q 1009 2931 984 2906 
Q 1006 2806 1037 2661 
Q 1069 2516 1069 2384 
Q 1069 2269 970 2176 
Q 872 2084 681 2084 
Q 516 2084 439 2203 
Q 363 2322 363 2478 
Q 363 2641 453 2809 
Q 544 2978 722 3125 
Q 900 3272 1156 3362 
Q 1413 3453 1747 3453 
Q 2131 3453 2382 3339 
Q 2634 3225 2778 3063 
Q 2919 2903 2972 2728 
Q 3025 2553 3025 2428 
Q 3025 2272 2981 2114 
Q 2938 1956 2838 1822 
Q 2728 1675 2548 1554 
Q 2369 1434 2097 1359 
L 2097 1309 
Q 2272 1294 2470 1231 
Q 2669 1169 2828 1047 
Q 2994 919 3100 717 
Q 3206 516 3206 206 
Q 3206 -394 2725 -767 
Q 2244 -1141 1522 -1141 
z
" transform="scale(0.015625)"/>
       </defs>
       <use xlink:href="#Georgia-33"/>
       <use xlink:href="#Georgia-30" x="55.175781"/>
      </g>
     </g>
    </g>
    <g id="xtick_8">
     <g id="line2d_8">
      <g>
       <use xlink:href="#mbf630e8dba" x="484.408681" y="244.8205" style="fill: #5b6b7f; stroke: #5b6b7f; stroke-width: 0.8"/>
      </g>
     </g>
     <g id="text_8">
      <!-- 35 -->
      <g style="fill: #5b6b7f" transform="translate(477.928681 260.89175) scale(0.12 -0.12)">
       <use xlink:href="#Georgia-33"/>
       <use xlink:href="#Georgia-35" x="55.175781"/>
      </g>
     </g>
    </g>
    <g id="text_9">
     <!-- time horizon $t$ (months) -->
     <g style="fill: #33415a" transform="translate(208.418125 276.5655) scale(0.12 -0.12)">
      <defs>
       <path id="Georgia-74" d="M 2128 134 
Q 1925 50 1744 -8 
Q 1563 -66 1300 -66 
Q 913 -66 755 129 
Q 597 325 597 681 
L 597 2769 
L 41 2769 
L 41 3069 
L 609 3069 
L 609 4028 
L 1178 4028 
L 1178 3069 
L 2063 3069 
L 2063 2769 
L 1184 2769 
L 1184 1047 
Q 1184 853 1198 723 
Q 1213 594 1266 497 
Q 1316 406 1416 359 
Q 1516 313 1684 313 
Q 1763 313 1914 327 
Q 2066 341 2128 363 
L 2128 134 
z
" transform="scale(0.015625)"/>
       <path id="Georgia-69" d="M 1722 0 
L 231 0 
L 231 206 
Q 303 213 379 219 
Q 456 225 513 244 
Q 600 272 642 342 
Q 684 413 684 525 
L 684 2428 
Q 684 2528 639 2611 
Q 594 2694 513 2750 
Q 453 2788 340 2814 
Q 228 2841 134 2847 
L 134 3050 
L 1222 3119 
L 1266 3075 
L 1266 563 
Q 1266 453 1308 381 
Q 1350 309 1441 275 
Q 1509 247 1575 230 
Q 1641 213 1722 206 
L 1722 0 
z
M 1328 4334 
Q 1328 4156 1211 4023 
Q 1094 3891 922 3891 
Q 763 3891 645 4017 
Q 528 4144 528 4306 
Q 528 4478 645 4606 
Q 763 4734 922 4734 
Q 1100 4734 1214 4614 
Q 1328 4494 1328 4334 
z
" transform="scale(0.015625)"/>
       <path id="Georgia-6d" d="M 5503 0 
L 4000 0 
L 4000 206 
Q 4072 213 4145 219 
Q 4219 225 4275 244 
Q 4363 272 4405 342 
Q 4447 413 4447 525 
L 4447 2116 
Q 4447 2441 4298 2617 
Q 4150 2794 3928 2794 
Q 3775 2794 3640 2747 
Q 3506 2700 3394 2616 
Q 3303 2547 3242 2467 
Q 3181 2388 3150 2334 
L 3150 556 
Q 3150 447 3187 376 
Q 3225 306 3316 269 
Q 3388 241 3445 227 
Q 3503 213 3597 206 
L 3597 0 
L 2125 0 
L 2125 206 
Q 2197 213 2264 219 
Q 2331 225 2388 244 
Q 2475 272 2517 342 
Q 2559 413 2559 525 
L 2559 2116 
Q 2559 2441 2411 2617 
Q 2263 2794 2041 2794 
Q 1888 2794 1753 2745 
Q 1619 2697 1506 2613 
Q 1416 2544 1353 2458 
Q 1291 2372 1259 2328 
L 1259 563 
Q 1259 456 1303 384 
Q 1347 313 1434 275 
Q 1500 244 1569 228 
Q 1638 213 1722 206 
L 1722 0 
L 225 0 
L 225 206 
Q 297 213 373 219 
Q 450 225 506 244 
Q 594 272 636 342 
Q 678 413 678 525 
L 678 2441 
Q 678 2541 633 2620 
Q 588 2700 506 2756 
Q 447 2794 359 2817 
Q 272 2841 178 2847 
L 178 3050 
L 1209 3119 
L 1253 3075 
L 1253 2634 
L 1275 2634 
Q 1353 2713 1465 2819 
Q 1578 2925 1675 2991 
Q 1784 3066 1948 3116 
Q 2113 3166 2303 3166 
Q 2603 3166 2818 3005 
Q 3034 2844 3128 2616 
Q 3241 2725 3327 2808 
Q 3413 2891 3553 2984 
Q 3672 3066 3833 3116 
Q 3994 3166 4191 3166 
Q 4581 3166 4809 2909 
Q 5038 2653 5038 2122 
L 5038 556 
Q 5038 447 5075 376 
Q 5113 306 5203 269 
Q 5275 241 5345 227 
Q 5416 213 5503 206 
L 5503 0 
z
" transform="scale(0.015625)"/>
       <path id="Georgia-65" d="M 2963 725 
Q 2769 356 2444 137 
Q 2119 -81 1697 -81 
Q 1325 -81 1045 50 
Q 766 181 584 406 
Q 403 631 314 931 
Q 225 1231 225 1566 
Q 225 1866 320 2155 
Q 416 2444 600 2675 
Q 778 2897 1042 3033 
Q 1306 3169 1634 3169 
Q 1972 3169 2212 3062 
Q 2453 2956 2603 2772 
Q 2747 2597 2817 2359 
Q 2888 2122 2888 1844 
L 2888 1638 
L 847 1638 
Q 847 1334 905 1087 
Q 963 841 1088 653 
Q 1209 472 1406 367 
Q 1603 263 1875 263 
Q 2153 263 2354 392 
Q 2556 522 2744 859 
L 2963 725 
z
M 2272 1900 
Q 2272 2075 2242 2275 
Q 2213 2475 2147 2609 
Q 2075 2753 1950 2843 
Q 1825 2934 1628 2934 
Q 1300 2934 1083 2661 
Q 866 2388 847 1900 
L 2272 1900 
z
" transform="scale(0.015625)"/>
       <path id="Georgia-20" transform="scale(0.015625)"/>
       <path id="Georgia-68" d="M 3572 0 
L 2059 0 
L 2059 206 
Q 2131 213 2218 219 
Q 2306 225 2363 244 
Q 2450 272 2492 342 
Q 2534 413 2534 525 
L 2534 2109 
Q 2534 2438 2379 2616 
Q 2225 2794 2003 2794 
Q 1841 2794 1702 2742 
Q 1563 2691 1453 2616 
Q 1347 2538 1290 2459 
Q 1234 2381 1203 2328 
L 1203 556 
Q 1203 450 1245 381 
Q 1288 313 1375 275 
Q 1444 244 1517 228 
Q 1591 213 1678 206 
L 1678 0 
L 166 0 
L 166 206 
Q 238 213 316 220 
Q 394 228 447 244 
Q 534 272 578 342 
Q 622 413 622 525 
L 622 4113 
Q 622 4219 573 4325 
Q 525 4431 447 4484 
Q 391 4525 248 4542 
Q 106 4559 19 4566 
L 19 4766 
L 1159 4838 
L 1203 4791 
L 1203 2641 
L 1216 2641 
Q 1319 2744 1403 2823 
Q 1488 2903 1625 2991 
Q 1744 3066 1905 3116 
Q 2066 3166 2266 3166 
Q 2678 3166 2900 2905 
Q 3122 2644 3122 2153 
L 3122 550 
Q 3122 441 3161 373 
Q 3200 306 3291 269 
Q 3363 241 3420 227 
Q 3478 213 3572 206 
L 3572 0 
z
" transform="scale(0.015625)"/>
       <path id="Georgia-6f" d="M 3228 1572 
Q 3228 1247 3125 933 
Q 3022 619 2831 400 
Q 2616 150 2331 28 
Q 2047 -94 1694 -94 
Q 1400 -94 1134 17 
Q 869 128 663 341 
Q 459 550 339 851 
Q 219 1153 219 1528 
Q 219 2250 639 2709 
Q 1059 3169 1741 3169 
Q 2388 3169 2808 2733 
Q 3228 2297 3228 1572 
z
M 2581 1566 
Q 2581 1800 2534 2061 
Q 2488 2322 2394 2503 
Q 2294 2697 2131 2814 
Q 1969 2931 1734 2931 
Q 1494 2931 1323 2812 
Q 1153 2694 1047 2488 
Q 947 2297 906 2053 
Q 866 1809 866 1581 
Q 866 1281 914 1026 
Q 963 772 1069 572 
Q 1175 372 1336 258 
Q 1497 144 1734 144 
Q 2125 144 2353 522 
Q 2581 900 2581 1566 
z
" transform="scale(0.015625)"/>
       <path id="Georgia-72" d="M 2584 2684 
Q 2584 2525 2506 2401 
Q 2428 2278 2266 2278 
Q 2091 2278 1998 2368 
Q 1906 2459 1906 2569 
Q 1906 2638 1917 2694 
Q 1928 2750 1938 2806 
Q 1791 2806 1594 2687 
Q 1397 2569 1259 2350 
L 1259 556 
Q 1259 447 1301 378 
Q 1344 309 1434 275 
Q 1513 244 1636 228 
Q 1759 213 1850 206 
L 1850 0 
L 225 0 
L 225 206 
Q 297 213 373 219 
Q 450 225 506 244 
Q 594 272 636 342 
Q 678 413 678 525 
L 678 2428 
Q 678 2525 633 2619 
Q 588 2713 506 2769 
Q 447 2806 365 2823 
Q 284 2841 191 2847 
L 191 3050 
L 1216 3119 
L 1259 3075 
L 1259 2641 
L 1275 2641 
Q 1469 2894 1706 3025 
Q 1944 3156 2141 3156 
Q 2338 3156 2461 3028 
Q 2584 2900 2584 2684 
z
" transform="scale(0.015625)"/>
       <path id="Georgia-7a" d="M 2666 0 
L 172 0 
L 172 166 
L 1916 2828 
L 1484 2828 
Q 1213 2828 1059 2818 
Q 906 2809 778 2756 
Q 691 2722 614 2559 
Q 538 2397 481 2134 
L 291 2134 
L 291 3081 
L 2647 3081 
L 2647 2953 
L 875 253 
Q 988 250 1122 248 
Q 1256 247 1413 247 
Q 1538 247 1673 250 
Q 1809 253 2022 266 
Q 2147 272 2211 350 
Q 2275 428 2309 528 
Q 2344 619 2392 778 
Q 2441 938 2478 1088 
L 2666 1088 
L 2666 0 
z
" transform="scale(0.015625)"/>
       <path id="Georgia-6e" d="M 3628 0 
L 2119 0 
L 2119 206 
Q 2191 213 2277 219 
Q 2363 225 2419 244 
Q 2506 272 2548 342 
Q 2591 413 2591 525 
L 2591 2109 
Q 2591 2438 2436 2616 
Q 2281 2794 2059 2794 
Q 1894 2794 1756 2742 
Q 1619 2691 1513 2616 
Q 1409 2544 1348 2461 
Q 1288 2378 1259 2328 
L 1259 556 
Q 1259 450 1303 381 
Q 1347 313 1434 275 
Q 1500 244 1576 228 
Q 1653 213 1734 206 
L 1734 0 
L 225 0 
L 225 206 
Q 297 213 373 219 
Q 450 225 506 244 
Q 594 272 636 342 
Q 678 413 678 525 
L 678 2428 
Q 678 2534 633 2623 
Q 588 2713 506 2769 
Q 447 2806 365 2823 
Q 284 2841 191 2847 
L 191 3050 
L 1216 3119 
L 1259 3075 
L 1259 2641 
L 1275 2641 
Q 1350 2716 1462 2820 
Q 1575 2925 1675 2991 
Q 1791 3066 1950 3116 
Q 2109 3166 2309 3166 
Q 2753 3166 2967 2889 
Q 3181 2613 3181 2153 
L 3181 550 
Q 3181 441 3218 373 
Q 3256 306 3347 269 
Q 3422 238 3476 225 
Q 3531 213 3628 206 
L 3628 0 
z
" transform="scale(0.015625)"/>
       <path id="DejaVuSans-Oblique-74" d="M 2706 3500 
L 2619 3053 
L 1472 3053 
L 1100 1153 
Q 1081 1047 1072 975 
Q 1063 903 1063 863 
Q 1063 663 1183 572 
Q 1303 481 1569 481 
L 2150 481 
L 2053 0 
L 1503 0 
Q 991 0 739 200 
Q 488 400 488 806 
Q 488 878 497 964 
Q 506 1050 525 1153 
L 897 3053 
L 409 3053 
L 500 3500 
L 978 3500 
L 1172 4494 
L 1747 4494 
L 1556 3500 
L 2706 3500 
z
" transform="scale(0.015625)"/>
       <path id="Georgia-28" d="M 2191 -1025 
Q 1338 -919 852 -165 
Q 366 588 366 1863 
Q 366 3159 852 3917 
Q 1338 4675 2191 4788 
L 2191 4528 
Q 1591 4419 1278 3762 
Q 966 3106 966 1856 
Q 966 666 1272 5 
Q 1578 -656 2191 -769 
L 2191 -1025 
z
" transform="scale(0.015625)"/>
       <path id="Georgia-73" d="M 2259 1509 
Q 2388 1397 2456 1250 
Q 2525 1103 2525 891 
Q 2525 463 2204 191 
Q 1884 -81 1375 -81 
Q 1106 -81 879 16 
Q 653 113 556 194 
L 494 -9 
L 259 -9 
L 228 1063 
L 444 1063 
Q 469 941 550 778 
Q 631 616 747 484 
Q 869 347 1039 253 
Q 1209 159 1422 159 
Q 1722 159 1884 295 
Q 2047 431 2047 684 
Q 2047 816 1995 911 
Q 1944 1006 1844 1078 
Q 1741 1150 1591 1208 
Q 1441 1266 1256 1322 
Q 1109 1366 929 1442 
Q 750 1519 622 1622 
Q 484 1731 396 1890 
Q 309 2050 309 2266 
Q 309 2644 590 2906 
Q 872 3169 1344 3169 
Q 1525 3169 1714 3122 
Q 1903 3075 2022 3009 
L 2094 3172 
L 2319 3172 
L 2366 2181 
L 2150 2181 
Q 2084 2513 1867 2720 
Q 1650 2928 1338 2928 
Q 1081 2928 934 2800 
Q 788 2672 788 2491 
Q 788 2350 836 2256 
Q 884 2163 981 2097 
Q 1075 2034 1217 1979 
Q 1359 1925 1569 1856 
Q 1775 1791 1958 1703 
Q 2141 1616 2259 1509 
z
" transform="scale(0.015625)"/>
       <path id="Georgia-29" d="M 2034 1863 
Q 2034 588 1548 -165 
Q 1063 -919 209 -1025 
L 209 -769 
Q 822 -656 1128 5 
Q 1434 666 1434 1856 
Q 1434 3106 1121 3762 
Q 809 4419 209 4528 
L 209 4788 
Q 1063 4675 1548 3917 
Q 2034 3159 2034 1863 
z
" transform="scale(0.015625)"/>
      </defs>
      <use xlink:href="#Georgia-74" transform="translate(0 0.40625)"/>
      <use xlink:href="#Georgia-69" transform="translate(34.521484 0.40625)"/>
      <use xlink:href="#Georgia-6d" transform="translate(63.818359 0.40625)"/>
      <use xlink:href="#Georgia-65" transform="translate(151.904297 0.40625)"/>
      <use xlink:href="#Georgia-20" transform="translate(200.244141 0.40625)"/>
      <use xlink:href="#Georgia-68" transform="translate(224.365234 0.40625)"/>
      <use xlink:href="#Georgia-6f" transform="translate(282.568359 0.40625)"/>
      <use xlink:href="#Georgia-72" transform="translate(336.474609 0.40625)"/>
      <use xlink:href="#Georgia-69" transform="translate(377.441406 0.40625)"/>
      <use xlink:href="#Georgia-7a" transform="translate(406.738281 0.40625)"/>
      <use xlink:href="#Georgia-6f" transform="translate(451.123047 0.40625)"/>
      <use xlink:href="#Georgia-6e" transform="translate(505.029297 0.40625)"/>
      <use xlink:href="#Georgia-20" transform="translate(564.111328 0.40625)"/>
      <use xlink:href="#DejaVuSans-Oblique-74" transform="translate(588.232422 0.40625)"/>
      <use xlink:href="#Georgia-20" transform="translate(627.441406 0.40625)"/>
      <use xlink:href="#Georgia-28" transform="translate(651.5625 0.40625)"/>
      <use xlink:href="#Georgia-6d" transform="translate(689.0625 0.40625)"/>
      <use xlink:href="#Georgia-6f" transform="translate(777.148438 0.40625)"/>
      <use xlink:href="#Georgia-6e" transform="translate(831.054688 0.40625)"/>
      <use xlink:href="#Georgia-74" transform="translate(890.136719 0.40625)"/>
      <use xlink:href="#Georgia-68" transform="translate(924.658203 0.40625)"/>
      <use xlink:href="#Georgia-73" transform="translate(982.861328 0.40625)"/>
      <use xlink:href="#Georgia-29" transform="translate(1026.074219 0.40625)"/>
     </g>
    </g>
   </g>
   <g id="matplotlib.axis_2">
    <g id="ytick_1">
     <g id="line2d_9">
      <defs>
       <path id="m4cf1092f78" d="M 0 0 
L -3.5 0 
" style="stroke: #5b6b7f; stroke-width: 0.8"/>
      </defs>
      <g>
       <use xlink:href="#m4cf1092f78" x="47.628125" y="224.753682" style="fill: #5b6b7f; stroke: #5b6b7f; stroke-width: 0.8"/>
      </g>
     </g>
     <g id="text_10">
      <!-- 0.5 -->
      <g style="fill: #5b6b7f" transform="translate(23.689375 229.289307) scale(0.12 -0.12)">
       <defs>
        <path id="Georgia-2e" d="M 1297 359 
Q 1297 184 1170 60 
Q 1044 -63 869 -63 
Q 694 -63 567 60 
Q 441 184 441 359 
Q 441 534 567 661 
Q 694 788 869 788 
Q 1044 788 1170 661 
Q 1297 534 1297 359 
z
" transform="scale(0.015625)"/>
       </defs>
       <use xlink:href="#Georgia-30"/>
       <use xlink:href="#Georgia-2e" x="61.376953"/>
       <use xlink:href="#Georgia-35" x="88.330078"/>
      </g>
     </g>
    </g>
    <g id="ytick_2">
     <g id="line2d_10">
      <g>
       <use xlink:href="#m4cf1092f78" x="47.628125" y="184.620045" style="fill: #5b6b7f; stroke: #5b6b7f; stroke-width: 0.8"/>
      </g>
     </g>
     <g id="text_11">
      <!-- 0.6 -->
      <g style="fill: #5b6b7f" transform="translate(23.2375 189.15567) scale(0.12 -0.12)">
       <defs>
        <path id="Georgia-36" d="M 3359 1441 
Q 3359 1116 3242 831 
Q 3125 547 2928 347 
Q 2700 119 2423 9 
Q 2147 -100 1847 -100 
Q 1500 -100 1219 28 
Q 938 156 741 391 
Q 541 628 431 972 
Q 322 1316 322 1744 
Q 322 2859 986 3625 
Q 1650 4391 2766 4544 
L 2822 4263 
L 2541 4213 
Q 1863 3994 1492 3531 
Q 1122 3069 1013 2409 
Q 1281 2644 1543 2741 
Q 1806 2838 2097 2838 
Q 2619 2838 2989 2438 
Q 3359 2038 3359 1441 
z
M 2681 1356 
Q 2681 1863 2448 2169 
Q 2216 2475 1825 2475 
Q 1591 2475 1389 2387 
Q 1188 2300 1000 2094 
Q 997 2056 990 1920 
Q 984 1784 984 1706 
Q 984 975 1223 561 
Q 1463 147 1853 147 
Q 2225 147 2453 470 
Q 2681 794 2681 1356 
z
" transform="scale(0.015625)"/>
       </defs>
       <use xlink:href="#Georgia-30"/>
       <use xlink:href="#Georgia-2e" x="61.376953"/>
       <use xlink:href="#Georgia-36" x="88.330078"/>
      </g>
     </g>
    </g>
    <g id="ytick_3">
     <g id="line2d_11">
      <g>
       <use xlink:href="#m4cf1092f78" x="47.628125" y="144.486409" style="fill: #5b6b7f; stroke: #5b6b7f; stroke-width: 0.8"/>
      </g>
     </g>
     <g id="text_12">
      <!-- 0.7 -->
      <g style="fill: #5b6b7f" transform="translate(23.99875 149.022034) scale(0.12 -0.12)">
       <defs>
        <path id="Georgia-37" d="M 3216 3150 
L 988 -1141 
L 597 -1141 
L 2694 2828 
L 1466 2828 
Q 1194 2828 1041 2822 
Q 888 2816 759 2763 
Q 663 2722 586 2555 
Q 509 2388 469 2128 
L 278 2128 
L 278 3353 
L 3216 3353 
L 3216 3150 
z
" transform="scale(0.015625)"/>
       </defs>
       <use xlink:href="#Georgia-30"/>
       <use xlink:href="#Georgia-2e" x="61.376953"/>
       <use xlink:href="#Georgia-37" x="88.330078"/>
      </g>
     </g>
    </g>
    <g id="ytick_4">
     <g id="line2d_12">
      <g>
       <use xlink:href="#m4cf1092f78" x="47.628125" y="104.352773" style="fill: #5b6b7f; stroke: #5b6b7f; stroke-width: 0.8"/>
      </g>
     </g>
     <g id="text_13">
      <!-- 0.8 -->
      <g style="fill: #5b6b7f" transform="translate(22.87375 108.888398) scale(0.12 -0.12)">
       <defs>
        <path id="Georgia-38" d="M 3491 1175 
Q 3491 650 3037 272 
Q 2584 -106 1847 -106 
Q 1156 -106 740 241 
Q 325 588 325 1134 
Q 325 1538 570 1808 
Q 816 2078 1297 2266 
Q 900 2488 703 2753 
Q 506 3019 506 3353 
Q 506 3863 939 4206 
Q 1372 4550 1975 4550 
Q 2578 4550 2951 4225 
Q 3325 3900 3325 3409 
Q 3325 3094 3119 2811 
Q 2913 2528 2513 2347 
Q 3031 2125 3261 1856 
Q 3491 1588 3491 1175 
z
M 2734 3444 
Q 2734 3825 2507 4064 
Q 2281 4303 1928 4303 
Q 1575 4303 1350 4073 
Q 1125 3844 1125 3503 
Q 1125 3175 1381 2947 
Q 1638 2719 2294 2459 
Q 2528 2609 2631 2856 
Q 2734 3103 2734 3444 
z
M 2866 1028 
Q 2866 1225 2781 1373 
Q 2697 1522 2538 1644 
Q 2384 1763 2111 1892 
Q 1838 2022 1519 2156 
Q 1219 1994 1078 1742 
Q 938 1491 938 1169 
Q 938 709 1208 426 
Q 1478 144 1928 144 
Q 2359 144 2612 394 
Q 2866 644 2866 1028 
z
" transform="scale(0.015625)"/>
       </defs>
       <use xlink:href="#Georgia-30"/>
       <use xlink:href="#Georgia-2e" x="61.376953"/>
       <use xlink:href="#Georgia-38" x="88.330078"/>
      </g>
     </g>
    </g>
    <g id="ytick_5">
     <g id="line2d_13">
      <g>
       <use xlink:href="#m4cf1092f78" x="47.628125" y="64.219136" style="fill: #5b6b7f; stroke: #5b6b7f; stroke-width: 0.8"/>
      </g>
     </g>
     <g id="text_14">
      <!-- 0.9 -->
      <g style="fill: #5b6b7f" transform="translate(23.2375 68.754761) scale(0.12 -0.12)">
       <defs>
        <path id="Georgia-39" d="M 3300 1613 
Q 3300 1069 3128 589 
Q 2956 109 2634 -253 
Q 2319 -609 1864 -845 
Q 1409 -1081 847 -1156 
L 791 -875 
L 1072 -825 
Q 1744 -613 2122 -172 
Q 2500 269 2609 947 
Q 2353 728 2098 626 
Q 1844 525 1525 525 
Q 1016 525 639 922 
Q 263 1319 263 1922 
Q 263 2569 698 3012 
Q 1134 3456 1775 3456 
Q 2472 3456 2886 2959 
Q 3300 2463 3300 1613 
z
M 2638 1650 
Q 2638 2381 2398 2795 
Q 2159 3209 1769 3209 
Q 1397 3209 1169 2889 
Q 941 2569 941 2006 
Q 941 1500 1173 1194 
Q 1406 888 1797 888 
Q 2041 888 2244 977 
Q 2447 1066 2622 1263 
Q 2622 1275 2626 1312 
Q 2631 1350 2631 1419 
Q 2631 1463 2634 1525 
Q 2638 1588 2638 1650 
z
" transform="scale(0.015625)"/>
       </defs>
       <use xlink:href="#Georgia-30"/>
       <use xlink:href="#Georgia-2e" x="61.376953"/>
       <use xlink:href="#Georgia-39" x="88.330078"/>
      </g>
     </g>
    </g>
    <g id="ytick_6">
     <g id="line2d_14">
      <g>
       <use xlink:href="#m4cf1092f78" x="47.628125" y="24.0855" style="fill: #5b6b7f; stroke: #5b6b7f; stroke-width: 0.8"/>
      </g>
     </g>
     <g id="text_15">
      <!-- 1.0 -->
      <g style="fill: #5b6b7f" transform="translate(24.8725 28.621125) scale(0.12 -0.12)">
       <use xlink:href="#Georgia-31"/>
       <use xlink:href="#Georgia-2e" x="42.96875"/>
       <use xlink:href="#Georgia-30" x="69.921875"/>
      </g>
     </g>
    </g>
    <g id="text_16">
     <!-- $\mathrm{AUC}(t)$ -->
     <g style="fill: #33415a" transform="translate(16.27125 154.193) rotate(-90) scale(0.12 -0.12)">
      <defs>
       <path id="DejaVuSans-41" d="M 2188 4044 
L 1331 1722 
L 3047 1722 
L 2188 4044 
z
M 1831 4666 
L 2547 4666 
L 4325 0 
L 3669 0 
L 3244 1197 
L 1141 1197 
L 716 0 
L 50 0 
L 1831 4666 
z
" transform="scale(0.015625)"/>
       <path id="DejaVuSans-55" d="M 556 4666 
L 1191 4666 
L 1191 1831 
Q 1191 1081 1462 751 
Q 1734 422 2344 422 
Q 2950 422 3222 751 
Q 3494 1081 3494 1831 
L 3494 4666 
L 4128 4666 
L 4128 1753 
Q 4128 841 3676 375 
Q 3225 -91 2344 -91 
Q 1459 -91 1007 375 
Q 556 841 556 1753 
L 556 4666 
z
" transform="scale(0.015625)"/>
       <path id="DejaVuSans-43" d="M 4122 4306 
L 4122 3641 
Q 3803 3938 3442 4084 
Q 3081 4231 2675 4231 
Q 1875 4231 1450 3742 
Q 1025 3253 1025 2328 
Q 1025 1406 1450 917 
Q 1875 428 2675 428 
Q 3081 428 3442 575 
Q 3803 722 4122 1019 
L 4122 359 
Q 3791 134 3420 21 
Q 3050 -91 2638 -91 
Q 1578 -91 968 557 
Q 359 1206 359 2328 
Q 359 3453 968 4101 
Q 1578 4750 2638 4750 
Q 3056 4750 3426 4639 
Q 3797 4528 4122 4306 
z
" transform="scale(0.015625)"/>
       <path id="DejaVuSans-28" d="M 1984 4856 
Q 1566 4138 1362 3434 
Q 1159 2731 1159 2009 
Q 1159 1288 1364 580 
Q 1569 -128 1984 -844 
L 1484 -844 
Q 1016 -109 783 600 
Q 550 1309 550 2009 
Q 550 2706 781 3412 
Q 1013 4119 1484 4856 
L 1984 4856 
z
" transform="scale(0.015625)"/>
       <path id="DejaVuSans-29" d="M 513 4856 
L 1013 4856 
Q 1481 4119 1714 3412 
Q 1947 2706 1947 2009 
Q 1947 1309 1714 600 
Q 1481 -109 1013 -844 
L 513 -844 
Q 928 -128 1133 580 
Q 1338 1288 1338 2009 
Q 1338 2731 1133 3434 
Q 928 4138 513 4856 
z
" transform="scale(0.015625)"/>
      </defs>
      <use xlink:href="#DejaVuSans-41" transform="translate(0 0.125)"/>
      <use xlink:href="#DejaVuSans-55" transform="translate(68.408203 0.125)"/>
      <use xlink:href="#DejaVuSans-43" transform="translate(141.601562 0.125)"/>
      <use xlink:href="#DejaVuSans-28" transform="translate(211.425781 0.125)"/>
      <use xlink:href="#DejaVuSans-Oblique-74" transform="translate(250.439453 0.125)"/>
      <use xlink:href="#DejaVuSans-29" transform="translate(289.648438 0.125)"/>
     </g>
    </g>
   </g>
   <g id="line2d_15">
    <path d="M 47.628125 224.753682 
L 496.888125 224.753682 
" clip-path="url(#pe45c11e420)" style="fill: none; stroke-dasharray: 1.6,2.64; stroke-dashoffset: 0; stroke: #5b6b7f; stroke-width: 1.6"/>
   </g>
   <g id="line2d_16">
    <path d="M 85.066458 92.477827 
L 101.622103 91.026676 
L 116.108293 89.966453 
L 130.594482 89.143525 
L 143.011215 88.650567 
L 155.427949 88.368196 
L 167.844683 88.304159 
L 180.261416 88.460213 
L 192.67815 88.832077 
L 205.094884 89.409549 
L 219.581073 90.321698 
L 234.067262 91.457888 
L 250.622907 92.976017 
L 273.386919 95.313233 
L 316.845487 99.845446 
L 333.401132 101.341865 
L 347.887321 102.453115 
L 362.37351 103.335746 
L 374.790244 103.885102 
L 387.206978 104.227065 
L 399.623711 104.352253 
L 412.040445 104.257231 
L 424.457179 103.944606 
L 436.873912 103.422956 
L 451.360102 102.569575 
L 465.846291 101.483229 
L 482.401936 100.008768 
L 496.888125 98.568837 
L 496.888125 98.568837 
" clip-path="url(#pe45c11e420)" style="fill: none; stroke: #1c7293; stroke-width: 2.4; stroke-linecap: square"/>
   </g>
   <g id="line2d_17">
    <path d="M 85.066458 80.272591 
L 496.888125 179.603341 
L 496.888125 179.603341 
" clip-path="url(#pe45c11e420)" style="fill: none; stroke: #ef6f6c; stroke-width: 2.4; stroke-linecap: square"/>
   </g>
   <g id="patch_3">
    <path d="M 47.628125 244.8205 
L 47.628125 24.0855 
" style="fill: none; stroke: #5b6b7f; stroke-width: 0.8; stroke-linejoin: miter; stroke-linecap: square"/>
   </g>
   <g id="patch_4">
    <path d="M 47.628125 244.8205 
L 496.888125 244.8205 
" style="fill: none; stroke: #5b6b7f; stroke-width: 0.8; stroke-linejoin: miter; stroke-linecap: square"/>
   </g>
   <g id="text_17">
    <!-- Time-dependent AUC: when does the model discriminate well? -->
    <g style="fill: #1b2a41" transform="translate(71.816875 18.0855) scale(0.144 -0.144)">
     <defs>
      <path id="Georgia-54" d="M 3909 3231 
L 3694 3231 
Q 3666 3344 3592 3498 
Q 3519 3653 3428 3791 
Q 3334 3934 3223 4042 
Q 3113 4150 3009 4166 
Q 2913 4178 2766 4184 
Q 2619 4191 2494 4191 
L 2313 4191 
L 2313 644 
Q 2313 541 2356 455 
Q 2400 369 2509 322 
Q 2566 300 2745 262 
Q 2925 225 3025 222 
L 3025 0 
L 931 0 
L 931 222 
Q 1019 228 1198 247 
Q 1378 266 1447 294 
Q 1550 334 1598 411 
Q 1647 488 1647 616 
L 1647 4191 
L 1466 4191 
Q 1369 4191 1225 4186 
Q 1081 4181 950 4166 
Q 847 4153 736 4042 
Q 625 3931 531 3791 
Q 438 3650 366 3492 
Q 294 3334 266 3231 
L 47 3231 
L 47 4434 
L 3909 4434 
L 3909 3231 
z
" transform="scale(0.015625)"/>
      <path id="Georgia-2d" d="M 2128 1453 
L 266 1453 
L 266 1944 
L 2128 1944 
L 2128 1453 
z
" transform="scale(0.015625)"/>
      <path id="Georgia-64" d="M 3600 56 
L 2525 -13 
L 2478 31 
L 2478 319 
L 2453 325 
Q 2291 144 2052 28 
Q 1813 -88 1559 -88 
Q 1297 -88 1051 29 
Q 806 147 625 359 
Q 441 575 333 878 
Q 225 1181 225 1547 
Q 225 1881 340 2181 
Q 456 2481 659 2706 
Q 850 2916 1126 3041 
Q 1403 3166 1691 3166 
Q 1906 3166 2114 3111 
Q 2322 3056 2472 2972 
L 2472 4044 
Q 2472 4175 2428 4283 
Q 2384 4391 2306 4447 
Q 2219 4506 2070 4532 
Q 1922 4559 1750 4572 
L 1750 4766 
L 3009 4838 
L 3056 4791 
L 3056 634 
Q 3056 525 3098 448 
Q 3141 372 3222 319 
Q 3281 281 3393 272 
Q 3506 263 3600 259 
L 3600 56 
z
M 2472 597 
L 2472 2400 
Q 2447 2481 2390 2575 
Q 2334 2669 2250 2747 
Q 2159 2825 2037 2876 
Q 1916 2928 1753 2928 
Q 1566 2928 1408 2831 
Q 1250 2734 1128 2553 
Q 1013 2378 945 2108 
Q 878 1838 878 1509 
Q 878 1247 928 1033 
Q 978 819 1097 634 
Q 1206 459 1376 353 
Q 1547 247 1781 247 
Q 2031 247 2195 356 
Q 2359 466 2472 597 
z
" transform="scale(0.015625)"/>
      <path id="Georgia-70" d="M 3041 2716 
Q 3225 2497 3326 2208 
Q 3428 1919 3428 1547 
Q 3428 1181 3306 879 
Q 3184 578 2984 366 
Q 2775 150 2519 34 
Q 2263 -81 1975 -81 
Q 1697 -81 1519 -18 
Q 1341 44 1228 128 
L 1203 128 
L 1203 -797 
Q 1203 -909 1247 -984 
Q 1291 -1059 1381 -1094 
Q 1456 -1122 1595 -1148 
Q 1734 -1175 1825 -1178 
L 1825 -1388 
L 103 -1388 
L 103 -1178 
Q 200 -1172 290 -1162 
Q 381 -1153 453 -1131 
Q 547 -1100 584 -1022 
Q 622 -944 622 -838 
L 622 2441 
Q 622 2534 575 2621 
Q 528 2709 453 2763 
Q 397 2800 297 2820 
Q 197 2841 103 2847 
L 103 3050 
L 1153 3119 
L 1197 3081 
L 1197 2734 
L 1222 2728 
Q 1384 2916 1625 3041 
Q 1866 3166 2103 3166 
Q 2391 3166 2630 3044 
Q 2869 2922 3041 2716 
z
M 2531 500 
Q 2656 694 2715 950 
Q 2775 1206 2775 1522 
Q 2775 1753 2725 1993 
Q 2675 2234 2569 2413 
Q 2463 2594 2291 2706 
Q 2119 2819 1878 2819 
Q 1647 2819 1484 2717 
Q 1322 2616 1203 2475 
L 1203 653 
Q 1231 569 1295 478 
Q 1359 388 1438 322 
Q 1534 244 1646 195 
Q 1759 147 1922 147 
Q 2097 147 2259 239 
Q 2422 331 2531 500 
z
" transform="scale(0.015625)"/>
      <path id="Georgia-41" d="M 4441 0 
L 2594 0 
L 2594 222 
Q 2838 238 2998 284 
Q 3159 331 3159 400 
Q 3159 428 3153 468 
Q 3147 509 3134 541 
L 2766 1534 
L 1213 1534 
Q 1125 1316 1070 1153 
Q 1016 991 972 853 
Q 931 719 915 634 
Q 900 550 900 497 
Q 900 372 1097 303 
Q 1294 234 1541 222 
L 1541 0 
L -128 0 
L -128 222 
Q -47 228 75 258 
Q 197 288 275 338 
Q 400 422 469 514 
Q 538 606 603 769 
Q 938 1603 1341 2643 
Q 1744 3684 2059 4497 
L 2309 4497 
L 3788 672 
Q 3834 550 3893 475 
Q 3953 400 4059 328 
Q 4131 284 4247 254 
Q 4363 225 4441 222 
L 4441 0 
z
M 2653 1813 
L 1981 3531 
L 1322 1813 
L 2653 1813 
z
" transform="scale(0.015625)"/>
      <path id="Georgia-55" d="M 4791 4213 
Q 4703 4209 4534 4175 
Q 4366 4141 4259 4072 
Q 4153 4000 4112 3775 
Q 4072 3550 4072 3225 
L 4072 1297 
Q 4072 928 3919 656 
Q 3766 384 3516 209 
Q 3269 41 2995 -32 
Q 2722 -106 2472 -106 
Q 2072 -106 1759 -1 
Q 1447 103 1234 281 
Q 1025 459 919 689 
Q 813 919 813 1169 
L 813 3791 
Q 813 3900 777 3973 
Q 741 4047 631 4109 
Q 553 4153 431 4179 
Q 309 4206 231 4213 
L 231 4434 
L 2078 4434 
L 2078 4213 
Q 1991 4209 1858 4184 
Q 1725 4159 1663 4138 
Q 1556 4100 1520 4012 
Q 1484 3925 1484 3822 
L 1484 1372 
Q 1484 1194 1523 998 
Q 1563 803 1678 634 
Q 1800 463 2009 353 
Q 2219 244 2584 244 
Q 2928 244 3161 353 
Q 3394 463 3528 641 
Q 3656 809 3709 993 
Q 3763 1178 3763 1366 
L 3763 3184 
Q 3763 3531 3713 3751 
Q 3663 3972 3566 4041 
Q 3456 4119 3267 4162 
Q 3078 4206 2978 4213 
L 2978 4434 
L 4791 4434 
L 4791 4213 
z
" transform="scale(0.015625)"/>
      <path id="Georgia-43" d="M 2259 -103 
Q 1863 -103 1498 53 
Q 1134 209 853 503 
Q 575 797 409 1220 
Q 244 1644 244 2175 
Q 244 2706 406 3139 
Q 569 3572 856 3884 
Q 1141 4194 1528 4362 
Q 1916 4531 2356 4531 
Q 2684 4531 2950 4450 
Q 3216 4369 3456 4222 
L 3584 4434 
L 3834 4434 
L 3863 2853 
L 3606 2853 
Q 3556 3084 3456 3354 
Q 3356 3625 3222 3813 
Q 3072 4025 2865 4145 
Q 2659 4266 2394 4266 
Q 2091 4266 1830 4131 
Q 1569 3997 1378 3734 
Q 1197 3481 1094 3090 
Q 991 2700 991 2219 
Q 991 1794 1098 1439 
Q 1206 1084 1406 816 
Q 1606 550 1879 400 
Q 2153 250 2491 250 
Q 2744 250 2956 329 
Q 3169 409 3325 541 
Q 3481 678 3600 853 
Q 3719 1028 3794 1234 
L 4028 1122 
Q 3759 463 3315 180 
Q 2872 -103 2259 -103 
z
" transform="scale(0.015625)"/>
      <path id="Georgia-3a" d="M 1428 2666 
Q 1428 2491 1301 2366 
Q 1175 2241 1000 2241 
Q 825 2241 698 2366 
Q 572 2491 572 2666 
Q 572 2841 697 2967 
Q 822 3094 1000 3094 
Q 1178 3094 1303 2967 
Q 1428 2841 1428 2666 
z
M 1428 359 
Q 1428 184 1301 60 
Q 1175 -63 1000 -63 
Q 825 -63 698 60 
Q 572 184 572 359 
Q 572 534 698 661 
Q 825 788 1000 788 
Q 1175 788 1301 661 
Q 1428 534 1428 359 
z
" transform="scale(0.015625)"/>
      <path id="Georgia-77" d="M 4816 2881 
Q 4684 2869 4532 2772 
Q 4381 2675 4313 2481 
Q 4156 2022 4017 1611 
Q 3878 1200 3706 688 
Q 3650 525 3592 337 
Q 3534 150 3488 -22 
L 3219 -22 
L 2391 2247 
L 1556 -22 
L 1300 -22 
Q 1066 672 842 1355 
Q 619 2038 447 2544 
Q 397 2691 256 2775 
Q 116 2859 -16 2875 
L -16 3081 
L 1359 3081 
L 1359 2863 
Q 1256 2859 1136 2828 
Q 1016 2797 1016 2725 
Q 1016 2713 1027 2672 
Q 1038 2631 1053 2584 
Q 1153 2256 1279 1851 
Q 1406 1447 1606 800 
L 2394 3019 
L 2694 3019 
L 3497 831 
Q 3631 1250 3764 1642 
Q 3897 2034 3997 2378 
Q 4019 2459 4039 2526 
Q 4059 2594 4059 2659 
Q 4059 2716 4009 2759 
Q 3959 2803 3888 2831 
Q 3825 2856 3751 2868 
Q 3678 2881 3644 2881 
L 3644 3081 
L 4816 3081 
L 4816 2881 
z
" transform="scale(0.015625)"/>
      <path id="Georgia-6c" d="M 1669 0 
L 166 0 
L 166 206 
Q 238 213 319 220 
Q 400 228 453 244 
Q 541 272 584 342 
Q 628 413 628 525 
L 628 4094 
Q 628 4206 579 4304 
Q 531 4403 453 4459 
Q 397 4497 247 4528 
Q 97 4559 6 4566 
L 6 4766 
L 1166 4838 
L 1209 4791 
L 1209 563 
Q 1209 453 1250 383 
Q 1291 313 1381 275 
Q 1450 244 1517 228 
Q 1584 213 1669 206 
L 1669 0 
z
" transform="scale(0.015625)"/>
      <path id="Georgia-63" d="M 1650 -81 
Q 981 -81 603 362 
Q 225 806 225 1553 
Q 225 1878 326 2161 
Q 428 2444 622 2675 
Q 806 2897 1084 3033 
Q 1363 3169 1691 3169 
Q 2144 3169 2428 2951 
Q 2713 2734 2713 2359 
Q 2713 2203 2638 2083 
Q 2563 1963 2391 1963 
Q 2206 1963 2104 2056 
Q 2003 2150 2003 2266 
Q 2003 2406 2040 2554 
Q 2078 2703 2084 2772 
Q 2028 2869 1917 2901 
Q 1806 2934 1678 2934 
Q 1528 2934 1392 2870 
Q 1256 2806 1128 2634 
Q 1013 2478 941 2212 
Q 869 1947 869 1578 
Q 869 997 1126 630 
Q 1384 263 1803 263 
Q 2106 263 2311 409 
Q 2516 556 2691 850 
L 2891 719 
Q 2684 350 2346 134 
Q 2009 -81 1650 -81 
z
" transform="scale(0.015625)"/>
      <path id="Georgia-61" d="M 3144 56 
Q 2997 3 2886 -30 
Q 2775 -63 2634 -63 
Q 2391 -63 2245 51 
Q 2100 166 2059 384 
L 2041 384 
Q 1838 159 1605 40 
Q 1372 -78 1044 -78 
Q 697 -78 473 134 
Q 250 347 250 691 
Q 250 869 300 1009 
Q 350 1150 450 1263 
Q 528 1356 656 1429 
Q 784 1503 897 1547 
Q 1038 1600 1467 1744 
Q 1897 1888 2047 1969 
L 2047 2278 
Q 2047 2319 2030 2434 
Q 2013 2550 1956 2653 
Q 1894 2769 1780 2855 
Q 1666 2941 1456 2941 
Q 1313 2941 1189 2892 
Q 1066 2844 1016 2791 
Q 1016 2728 1045 2606 
Q 1075 2484 1075 2381 
Q 1075 2272 976 2181 
Q 878 2091 703 2091 
Q 547 2091 473 2202 
Q 400 2313 400 2450 
Q 400 2594 501 2725 
Q 603 2856 766 2959 
Q 906 3047 1106 3108 
Q 1306 3169 1497 3169 
Q 1759 3169 1954 3133 
Q 2150 3097 2309 2978 
Q 2469 2863 2551 2664 
Q 2634 2466 2634 2153 
Q 2634 1706 2625 1361 
Q 2616 1016 2616 606 
Q 2616 484 2658 412 
Q 2700 341 2788 291 
Q 2834 263 2936 259 
Q 3038 256 3144 256 
L 3144 56 
z
M 2053 1706 
Q 1788 1628 1588 1553 
Q 1388 1478 1216 1366 
Q 1059 1259 968 1114 
Q 878 969 878 769 
Q 878 509 1014 387 
Q 1150 266 1359 266 
Q 1581 266 1750 373 
Q 1919 481 2034 628 
L 2053 1706 
z
" transform="scale(0.015625)"/>
      <path id="Georgia-3f" d="M 2409 4153 
Q 2581 3972 2664 3745 
Q 2747 3519 2747 3253 
Q 2747 2675 2378 2309 
Q 2009 1944 1366 1869 
L 1366 1178 
L 1078 1178 
L 1078 2363 
Q 1275 2378 1469 2426 
Q 1663 2475 1816 2584 
Q 1975 2700 2064 2864 
Q 2153 3028 2153 3322 
Q 2153 3791 1954 4041 
Q 1756 4291 1375 4291 
Q 1231 4291 1123 4248 
Q 1016 4206 966 4169 
Q 981 4094 1007 3953 
Q 1034 3813 1034 3738 
Q 1034 3622 934 3526 
Q 834 3431 644 3431 
Q 475 3431 403 3547 
Q 331 3663 331 3816 
Q 331 3941 400 4061 
Q 469 4181 616 4294 
Q 741 4394 955 4466 
Q 1169 4538 1400 4538 
Q 1731 4538 1987 4433 
Q 2244 4328 2409 4153 
z
M 1659 359 
Q 1659 184 1532 60 
Q 1406 -63 1231 -63 
Q 1056 -63 929 60 
Q 803 184 803 359 
Q 803 534 929 661 
Q 1056 788 1231 788 
Q 1406 788 1532 661 
Q 1659 534 1659 359 
z
" transform="scale(0.015625)"/>
     </defs>
     <use xlink:href="#Georgia-54"/>
     <use xlink:href="#Georgia-69" x="61.865234"/>
     <use xlink:href="#Georgia-6d" x="91.162109"/>
     <use xlink:href="#Georgia-65" x="179.248047"/>
     <use xlink:href="#Georgia-2d" x="227.587891"/>
     <use xlink:href="#Georgia-64" x="264.990234"/>
     <use xlink:href="#Georgia-65" x="322.412109"/>
     <use xlink:href="#Georgia-70" x="370.751953"/>
     <use xlink:href="#Georgia-65" x="427.880859"/>
     <use xlink:href="#Georgia-6e" x="476.220703"/>
     <use xlink:href="#Georgia-64" x="535.302734"/>
     <use xlink:href="#Georgia-65" x="592.724609"/>
     <use xlink:href="#Georgia-6e" x="641.064453"/>
     <use xlink:href="#Georgia-74" x="700.146484"/>
     <use xlink:href="#Georgia-20" x="734.667969"/>
     <use xlink:href="#Georgia-41" x="758.789062"/>
     <use xlink:href="#Georgia-55" x="825.878906"/>
     <use xlink:href="#Georgia-43" x="901.513672"/>
     <use xlink:href="#Georgia-3a" x="965.722656"/>
     <use xlink:href="#Georgia-20" x="996.972656"/>
     <use xlink:href="#Georgia-77" x="1021.09375"/>
     <use xlink:href="#Georgia-68" x="1094.824219"/>
     <use xlink:href="#Georgia-65" x="1153.027344"/>
     <use xlink:href="#Georgia-6e" x="1201.367188"/>
     <use xlink:href="#Georgia-20" x="1260.449219"/>
     <use xlink:href="#Georgia-64" x="1284.570312"/>
     <use xlink:href="#Georgia-6f" x="1341.992188"/>
     <use xlink:href="#Georgia-65" x="1395.898438"/>
     <use xlink:href="#Georgia-73" x="1444.238281"/>
     <use xlink:href="#Georgia-20" x="1487.451172"/>
     <use xlink:href="#Georgia-74" x="1511.572266"/>
     <use xlink:href="#Georgia-68" x="1546.09375"/>
     <use xlink:href="#Georgia-65" x="1604.296875"/>
     <use xlink:href="#Georgia-20" x="1652.636719"/>
     <use xlink:href="#Georgia-6d" x="1676.757812"/>
     <use xlink:href="#Georgia-6f" x="1764.84375"/>
     <use xlink:href="#Georgia-64" x="1818.75"/>
     <use xlink:href="#Georgia-65" x="1876.171875"/>
     <use xlink:href="#Georgia-6c" x="1924.511719"/>
     <use xlink:href="#Georgia-20" x="1953.125"/>
     <use xlink:href="#Georgia-64" x="1977.246094"/>
     <use xlink:href="#Georgia-69" x="2034.667969"/>
     <use xlink:href="#Georgia-73" x="2063.964844"/>
     <use xlink:href="#Georgia-63" x="2107.177734"/>
     <use xlink:href="#Georgia-72" x="2152.587891"/>
     <use xlink:href="#Georgia-69" x="2193.554688"/>
     <use xlink:href="#Georgia-6d" x="2222.851562"/>
     <use xlink:href="#Georgia-69" x="2310.9375"/>
     <use xlink:href="#Georgia-6e" x="2340.234375"/>
     <use xlink:href="#Georgia-61" x="2399.316406"/>
     <use xlink:href="#Georgia-74" x="2449.707031"/>
     <use xlink:href="#Georgia-65" x="2484.228516"/>
     <use xlink:href="#Georgia-20" x="2532.568359"/>
     <use xlink:href="#Georgia-77" x="2556.689453"/>
     <use xlink:href="#Georgia-65" x="2630.419922"/>
     <use xlink:href="#Georgia-6c" x="2678.759766"/>
     <use xlink:href="#Georgia-6c" x="2707.373047"/>
     <use xlink:href="#Georgia-3f" x="2735.986328"/>
    </g>
   </g>
   <g id="legend_1">
    <g id="line2d_18">
     <path d="M 55.728125 205.108 
L 64.728125 205.108 
L 73.728125 205.108 
" style="fill: none; stroke-dasharray: 1.6,2.64; stroke-dashoffset: 0; stroke: #5b6b7f; stroke-width: 1.6"/>
    </g>
    <g id="text_18">
     <!-- chance (0.5) -->
     <g style="fill: #33415a" transform="translate(80.928125 208.258) scale(0.09 -0.09)">
      <use xlink:href="#Georgia-63"/>
      <use xlink:href="#Georgia-68" x="45.410156"/>
      <use xlink:href="#Georgia-61" x="103.613281"/>
      <use xlink:href="#Georgia-6e" x="154.003906"/>
      <use xlink:href="#Georgia-63" x="213.085938"/>
      <use xlink:href="#Georgia-65" x="258.496094"/>
      <use xlink:href="#Georgia-20" x="306.835938"/>
      <use xlink:href="#Georgia-28" x="330.957031"/>
      <use xlink:href="#Georgia-30" x="368.457031"/>
      <use xlink:href="#Georgia-2e" x="429.833984"/>
      <use xlink:href="#Georgia-35" x="456.787109"/>
      <use xlink:href="#Georgia-29" x="509.619141"/>
     </g>
    </g>
    <g id="line2d_19">
     <path d="M 55.728125 218.363312 
L 64.728125 218.363312 
L 73.728125 218.363312 
" style="fill: none; stroke: #1c7293; stroke-width: 2.4; stroke-linecap: square"/>
    </g>
    <g id="text_19">
     <!-- robust model -->
     <g style="fill: #33415a" transform="translate(80.928125 221.513312) scale(0.09 -0.09)">
      <defs>
       <path id="Georgia-62" d="M 3353 1544 
Q 3353 850 2915 378 
Q 2478 -94 1900 -94 
Q 1647 -94 1401 -15 
Q 1156 63 941 194 
L 709 -166 
L 516 -122 
Q 531 109 537 434 
Q 544 759 544 1063 
L 544 4113 
Q 544 4219 495 4325 
Q 447 4431 372 4478 
Q 313 4519 173 4539 
Q 34 4559 -50 4566 
L -50 4766 
L 1081 4838 
L 1125 4791 
L 1125 2759 
L 1147 2753 
Q 1341 2959 1570 3062 
Q 1800 3166 2022 3166 
Q 2591 3166 2972 2716 
Q 3353 2266 3353 1544 
z
M 2700 1522 
Q 2700 1753 2650 1993 
Q 2600 2234 2494 2413 
Q 2388 2594 2216 2706 
Q 2044 2819 1803 2819 
Q 1584 2819 1420 2733 
Q 1256 2647 1125 2500 
L 1125 706 
Q 1144 631 1198 531 
Q 1253 431 1347 341 
Q 1441 253 1559 198 
Q 1678 144 1850 144 
Q 2231 144 2465 512 
Q 2700 881 2700 1522 
z
" transform="scale(0.015625)"/>
       <path id="Georgia-75" d="M 3528 56 
L 2525 -13 
L 2478 31 
L 2478 422 
L 2459 422 
Q 2384 344 2290 255 
Q 2197 166 2075 94 
Q 1934 9 1803 -34 
Q 1672 -78 1431 -78 
Q 1022 -78 808 189 
Q 594 456 594 966 
L 594 2441 
Q 594 2553 551 2629 
Q 509 2706 428 2763 
Q 372 2800 287 2817 
Q 203 2834 109 2841 
L 109 3044 
L 1138 3119 
L 1184 3075 
L 1184 934 
Q 1184 600 1334 431 
Q 1484 263 1694 263 
Q 1866 263 2000 316 
Q 2134 369 2225 441 
Q 2309 506 2373 579 
Q 2438 653 2472 716 
L 2472 2463 
Q 2472 2566 2428 2645 
Q 2384 2725 2306 2781 
Q 2250 2819 2139 2826 
Q 2028 2834 1891 2841 
L 1891 3044 
L 3009 3119 
L 3056 3075 
L 3056 628 
Q 3056 522 3100 447 
Q 3144 372 3222 319 
Q 3278 284 3356 273 
Q 3434 263 3528 259 
L 3528 56 
z
" transform="scale(0.015625)"/>
      </defs>
      <use xlink:href="#Georgia-72"/>
      <use xlink:href="#Georgia-6f" x="40.966797"/>
      <use xlink:href="#Georgia-62" x="94.873047"/>
      <use xlink:href="#Georgia-75" x="150.878906"/>
      <use xlink:href="#Georgia-73" x="208.398438"/>
      <use xlink:href="#Georgia-74" x="251.611328"/>
      <use xlink:href="#Georgia-20" x="286.132812"/>
      <use xlink:href="#Georgia-6d" x="310.253906"/>
      <use xlink:href="#Georgia-6f" x="398.339844"/>
      <use xlink:href="#Georgia-64" x="452.246094"/>
      <use xlink:href="#Georgia-65" x="509.667969"/>
      <use xlink:href="#Georgia-6c" x="558.007812"/>
     </g>
    </g>
    <g id="line2d_20">
     <path d="M 55.728125 231.618625 
L 64.728125 231.618625 
L 73.728125 231.618625 
" style="fill: none; stroke: #ef6f6c; stroke-width: 2.4; stroke-linecap: square"/>
    </g>
    <g id="text_20">
     <!-- degrades at long horizons -->
     <g style="fill: #33415a" transform="translate(80.928125 234.768625) scale(0.09 -0.09)">
      <defs>
       <path id="Georgia-67" d="M 2866 319 
Q 2991 200 3062 50 
Q 3134 -100 3134 -322 
Q 3134 -544 3037 -739 
Q 2941 -934 2744 -1078 
Q 2534 -1225 2243 -1306 
Q 1953 -1388 1525 -1388 
Q 825 -1388 478 -1183 
Q 131 -978 131 -584 
Q 131 -266 381 -81 
Q 631 103 1019 119 
L 1019 163 
Q 925 191 825 233 
Q 725 275 653 331 
Q 572 397 522 486 
Q 472 575 472 706 
Q 472 872 589 1011 
Q 706 1150 944 1250 
L 944 1297 
Q 644 1438 478 1658 
Q 313 1878 313 2169 
Q 313 2606 639 2887 
Q 966 3169 1475 3169 
Q 1616 3169 1755 3141 
Q 1894 3113 2038 3069 
L 3113 3069 
L 3113 2769 
L 2388 2769 
L 2388 2750 
Q 2503 2616 2559 2453 
Q 2616 2291 2616 2134 
Q 2616 1728 2286 1447 
Q 1956 1166 1519 1166 
L 1141 1166 
Q 1069 1141 991 1075 
Q 913 1009 913 897 
Q 913 781 978 720 
Q 1044 659 1138 638 
Q 1228 613 1348 606 
Q 1469 600 1597 597 
Q 1734 594 1973 578 
Q 2213 563 2313 559 
Q 2456 553 2601 490 
Q 2747 428 2866 319 
z
M 2022 2147 
Q 2022 2513 1873 2730 
Q 1725 2947 1456 2947 
Q 1309 2947 1204 2886 
Q 1100 2825 1034 2713 
Q 972 2609 945 2464 
Q 919 2319 919 2166 
Q 919 1819 1070 1600 
Q 1222 1381 1463 1381 
Q 1731 1381 1876 1598 
Q 2022 1816 2022 2147 
z
M 2622 -438 
Q 2622 -263 2540 -150 
Q 2459 -38 2294 3 
Q 2206 16 1934 31 
Q 1663 47 1303 47 
Q 966 -19 823 -173 
Q 681 -328 681 -572 
Q 681 -681 728 -781 
Q 775 -881 891 -966 
Q 1000 -1047 1184 -1098 
Q 1369 -1150 1634 -1150 
Q 2094 -1150 2358 -973 
Q 2622 -797 2622 -438 
z
" transform="scale(0.015625)"/>
      </defs>
      <use xlink:href="#Georgia-64"/>
      <use xlink:href="#Georgia-65" x="57.421875"/>
      <use xlink:href="#Georgia-67" x="105.761719"/>
      <use xlink:href="#Georgia-72" x="156.689453"/>
      <use xlink:href="#Georgia-61" x="197.65625"/>
      <use xlink:href="#Georgia-64" x="248.046875"/>
      <use xlink:href="#Georgia-65" x="305.46875"/>
      <use xlink:href="#Georgia-73" x="353.808594"/>
      <use xlink:href="#Georgia-20" x="397.021484"/>
      <use xlink:href="#Georgia-61" x="421.142578"/>
      <use xlink:href="#Georgia-74" x="471.533203"/>
      <use xlink:href="#Georgia-20" x="506.054688"/>
      <use xlink:href="#Georgia-6c" x="530.175781"/>
      <use xlink:href="#Georgia-6f" x="558.789062"/>
      <use xlink:href="#Georgia-6e" x="612.695312"/>
      <use xlink:href="#Georgia-67" x="671.777344"/>
      <use xlink:href="#Georgia-20" x="722.705078"/>
      <use xlink:href="#Georgia-68" x="746.826172"/>
      <use xlink:href="#Georgia-6f" x="805.029297"/>
      <use xlink:href="#Georgia-72" x="858.935547"/>
      <use xlink:href="#Georgia-69" x="899.902344"/>
      <use xlink:href="#Georgia-7a" x="929.199219"/>
      <use xlink:href="#Georgia-6f" x="973.583984"/>
      <use xlink:href="#Georgia-6e" x="1027.490234"/>
      <use xlink:href="#Georgia-73" x="1086.572266"/>
     </g>
    </g>
   </g>
  </g>
 </g>
 <defs>
  <clipPath id="pe45c11e420">
   <rect x="47.628125" y="24.0855" width="449.26" height="220.735"/>
  </clipPath>
 </defs>
</svg>
